<?xml version="1.0" encoding="UTF-8" standalone="no"?>
<!-- Created with Inkscape (http://www.inkscape.org/) -->

<svg
   xmlns:dc="http://purl.org/dc/elements/1.1/"
   xmlns:cc="http://creativecommons.org/ns#"
   xmlns:rdf="http://www.w3.org/1999/02/22-rdf-syntax-ns#"
   xmlns:svg="http://www.w3.org/2000/svg"
   xmlns="http://www.w3.org/2000/svg"
   xmlns:sodipodi="http://sodipodi.sourceforge.net/DTD/sodipodi-0.dtd"
   xmlns:inkscape="http://www.inkscape.org/namespaces/inkscape"
   width="210mm"
   height="297mm"
   viewBox="0 0 210 297"
   version="1.1"
   id="svg8"
   inkscape:version="0.92.2 5c3e80d, 2017-08-06"
   sodipodi:docname="bat-mouth.svg">
  <defs
     id="defs2">
    <clipPath
       id="clipPath45"
       clipPathUnits="userSpaceOnUse">
      <path
         inkscape:connector-curvature="0"
         id="path43"
         d="M 0,864 H 864 V 0 H 0 Z" />
    </clipPath>
    <clipPath
       id="clipPath3854"
       clipPathUnits="userSpaceOnUse">
      <path
         inkscape:connector-curvature="0"
         id="path3852"
         d="M 0,864 H 864 V 0 H 0 Z" />
    </clipPath>
    <clipPath
       id="clipPath4053"
       clipPathUnits="userSpaceOnUse">
      <path
         inkscape:connector-curvature="0"
         id="path4051"
         d="M 0,864 H 864 V 0 H 0 Z" />
    </clipPath>
    <clipPath
       id="clipPath4150"
       clipPathUnits="userSpaceOnUse">
      <path
         inkscape:connector-curvature="0"
         id="path4148"
         d="M 0,864 H 864 V 0 H 0 Z" />
    </clipPath>
    <clipPath
       id="clipPath4295"
       clipPathUnits="userSpaceOnUse">
      <path
         inkscape:connector-curvature="0"
         id="path4293"
         d="M 0,864 H 864 V 0 H 0 Z" />
    </clipPath>
    <clipPath
       id="clipPath4410"
       clipPathUnits="userSpaceOnUse">
      <path
         inkscape:connector-curvature="0"
         id="path4408"
         d="M 0,864 H 864 V 0 H 0 Z" />
    </clipPath>
    <clipPath
       id="clipPath4615"
       clipPathUnits="userSpaceOnUse">
      <path
         inkscape:connector-curvature="0"
         id="path4613"
         d="M 0,864 H 864 V 0 H 0 Z" />
    </clipPath>
    <clipPath
       id="clipPath4838"
       clipPathUnits="userSpaceOnUse">
      <path
         inkscape:connector-curvature="0"
         id="path4836"
         d="M 0,864 H 864 V 0 H 0 Z" />
    </clipPath>
    <clipPath
       id="clipPath5001"
       clipPathUnits="userSpaceOnUse">
      <path
         inkscape:connector-curvature="0"
         id="path4999"
         d="M 0,864 H 864 V 0 H 0 Z" />
    </clipPath>
    <inkscape:perspective
       id="perspective9"
       inkscape:persp3d-origin="372.04724 : 350.78739 : 1"
       inkscape:vp_z="744.09448 : 526.18109 : 1"
       inkscape:vp_y="0 : 1000 : 0"
       inkscape:vp_x="0 : 526.18109 : 1"
       sodipodi:type="inkscape:persp3d" />
  </defs>
  <sodipodi:namedview
     id="base"
     pagecolor="#000000"
     bordercolor="#666666"
     borderopacity="1.0"
     inkscape:pageopacity="0"
     inkscape:pageshadow="2"
     inkscape:zoom="0.91846942"
     inkscape:cx="396.85039"
     inkscape:cy="515.06733"
     inkscape:document-units="mm"
     inkscape:current-layer="g5136"
     showgrid="false"
     inkscape:window-width="2560"
     inkscape:window-height="1385"
     inkscape:window-x="2560"
     inkscape:window-y="27"
     inkscape:window-maximized="1"
     showguides="true"
     inkscape:guide-bbox="true">
    <sodipodi:guide
       position="105.43356,205.96993"
       orientation="1,0"
       id="guide3815"
       inkscape:locked="false" />
    <sodipodi:guide
       position="92.758485,149.50825"
       orientation="0,1"
       id="guide3817"
       inkscape:locked="false" />
  </sodipodi:namedview>
  <metadata
     id="metadata5">
    <rdf:RDF>
      <cc:Work
         rdf:about="">
        <dc:format>image/svg+xml</dc:format>
        <dc:type
           rdf:resource="http://purl.org/dc/dcmitype/StillImage" />
        <dc:title></dc:title>
      </cc:Work>
    </rdf:RDF>
  </metadata>
  <g
     inkscape:label="Layer 1"
     inkscape:groupmode="layer"
     id="layer1">
    <g
       transform="matrix(0.35277777,0,0,-0.35277777,-70.777455,287.43463)"
       inkscape:label="1"
       id="g37">
      <g
         id="g39">
        <g
           id="g5136"
           transform="matrix(0.75000002,0,0,-0.75000002,342.50983,505.50165)"
           style="fill:#ffeeaa">
          <path
             style="fill:#ffeeaa;stroke-width:1.33100021"
             d="m 81.171877,374.84738 c -2.057303,-0.6176 -9.2447,-1.52844 -15.972,-2.02405 -11.319142,-0.83393 -28.569501,-4.39037 -34.858498,-7.18666 -1.464093,-0.651 -6.255693,-2.52603 -10.647967,-4.16673 -16.7324628,-6.25026 -38.72749,-17.90098 -50.578022,-26.79096 -5.975932,-4.48303 -22.021829,-21.09175 -23.435964,-24.25808 -0.679981,-1.52254 -5.363131,-9.35673 -10.406902,-17.40922 -12.383864,-19.77109 -28.048603,-51.90993 -28.048603,-57.54636 0,-0.87606 -0.825606,-3.55975 -1.83469,-5.96377 -3.352962,-7.98805 -6.438641,-19.19944 -5.959031,-21.65134 0.35263,-1.80195 6.586744,3.69132 24.431221,21.52724 16.220098,16.21236 26.752222,25.61456 32.609487,29.11094 8.116239,4.84481 9.317839,5.16674 19.421854,5.20281 10.609228,0.0402 10.868041,-0.0401 17.3029735,-5.28022 9.4787693,-7.71723 13.3228579,-12.19702 19.2355185,-22.4165 2.896097,-5.00565 5.265636,-9.29268 5.265636,-9.52675 0,-0.23392 2.614424,-6.02122 5.809781,-12.86036 3.195406,-6.83907 7.162297,-15.57921 8.815436,-19.4225 2.12652,-4.94394 3.749675,-6.98773 5.549506,-6.98773 1.399147,0 6.819365,4.2332 12.044845,9.40712 12.321226,12.19963 17.811428,15.03909 29.006452,15.00165 12.794964,-0.0401 33.60063,-7.60512 40.19748,-14.61087 4.53018,-4.81097 10.34132,-17.63173 14.99864,-33.09042 9.58274,-31.80727 9.50966,-31.74297 21.80166,-19.18113 l 8.07443,8.25165 6.62117,-0.78416 c 7.29072,-0.86348 15.86199,-5.58502 18.96009,-10.44427 1.09792,-1.72212 3.36474,-7.02426 5.0374,-11.78255 1.6726,-4.75836 3.39319,-9.54996 3.82353,-10.64802 0.4301,-1.09807 2.01598,-5.5902 3.52374,-9.98254 3.90115,-11.364562 6.22435,-11.164098 10.75678,0.92825 6.23914,16.64574 12.80063,31.48797 15.08395,34.12001 3.53553,4.0755 12.41726,8.20924 17.63848,8.20924 4.1424,0 6.14411,-1.24737 13.88356,-8.65148 4.97381,-4.75829 9.82497,-8.65148 10.78036,-8.65148 1.00652,0 2.93789,4.0585 4.59226,9.64975 7.23256,24.4446 12.19648,38.17358 16.24188,44.92127 7.99421,13.33422 24.2832,21.29598 43.56952,21.29598 12.06783,0 17.24302,-2.60191 30.73134,-15.45058 5.79785,-5.52295 11.09015,-9.52717 12.08644,-9.14484 0.97482,0.37427 2.48862,2.31761 3.36404,4.31901 0.87535,2.00142 3.15678,7.23257 5.06973,11.62491 6.51493,14.95849 18.20929,37.25172 22.91612,43.6855 2.58223,3.52964 8.00975,8.92018 12.0611,11.979 7.23319,5.46107 7.56028,5.56148 18.11799,5.56148 10.32195,0 11.07108,-0.21278 18.73784,-5.31805 4.39229,-2.92491 9.48335,-6.51183 11.31345,-7.97099 4.34882,-3.46726 24.90296,-24.04841 36.23608,-36.28372 12.34597,-13.32879 13.31149,-11.06012 5.51973,12.97028 -3.20446,9.88266 -6.39083,19.1664 -7.08086,20.63048 -2.42242,5.13996 -6.72395,15.1658 -6.72395,15.67198 0,1.48548 -18.21717,32.9538 -21.47391,37.0941 -2.09828,2.66749 -3.81505,5.20848 -3.81505,5.64664 0,3.13796 -25.33778,28.24741 -34.60604,34.29417 -6.93767,4.52628 -18.64758,10.69294 -31.944,16.82226 -9.46738,4.36431 -33.11706,11.81587 -42.59195,13.42001 -22.77533,3.85586 -34.96066,5.43027 -36.18274,4.67499 -1.66784,-1.03077 -0.74388,-7.29892 2.23395,-15.15463 6.93955,-18.30699 -6.13017,-47.4131 -28.63399,-63.76763 -15.0662,-10.9493 -39.72084,-16.46012 -53.3484,-11.92452 -8.38961,2.79226 -8.29769,2.53847 -11.60227,32.03651 -0.54953,4.90539 -1.38274,9.30245 -1.85154,9.7713 -2.35716,2.35716 -6.28498,-1.71915 -11.33242,-11.76089 -6.83264,-13.59333 -9.17684,-15.8933 -15.63104,-15.33613 -4.57165,0.3944 -5.21266,1.04309 -10.28379,10.40339 -8.38834,15.48313 -10.09728,17.55375 -13.14257,15.92396 -1.59825,-0.8554 -2.57224,-2.78205 -2.57224,-5.08837 0,-2.04143 -0.92742,-9.95646 -2.0609,-17.58891 -2.69481,-18.14559 -3.39257,-18.86215 -19.09854,-19.61307 -9.56404,-0.45727 -13.79014,-0.003 -21.33205,2.28648 -22.60856,6.86717 -41.479668,24.37299 -50.349685,46.70688 -5.348175,13.46631 -5.309492,17.74879 0.298822,33.08767 2.189996,5.98979 1.706959,10.92134 -1.050135,10.72092 -0.865706,-0.0628 -3.257283,-0.61971 -5.314574,-1.23735 z M 36.447763,120.58982 C 29.854119,119.92825 28.747246,119.30833 23.37643,113.26931 16.137969,105.13028 7.0394665,86.398109 3.1181546,71.561359 0.5259518,61.75334 0.2283534,57.822676 0.6490561,38.951878 1.1063338,18.449313 2.3761485,10.591094 7.1284037,-1.1393548 20.921269,-35.185723 30.697492,-55.616294 38.381054,-66.452098 c 6.292661,-8.874349 21.019258,-23.198798 23.849989,-23.198798 3.217145,0 4.71287,8.082791 4.71287,25.467821 0,15.40305 0.390874,18.260801 3.970319,29.034886 9.895201,29.783827 19.344019,50.459736 28.78104,62.978523 8.021768,10.641372 31.674218,33.927385 38.847628,38.245761 5.93826,3.574866 7.2135,7.512377 3.60247,11.123354 -1.09806,1.098114 -1.99648,2.387707 -1.99648,2.865855 0,1.046752 -8.25628,11.572036 -13.90372,17.724742 -4.65664,5.073264 -18.52501,13.234024 -25.77026,15.164454 -20.762051,5.53168 -50.111183,9.03165 -64.027147,7.63532 z m 310.006177,-1.50851 c -32.70653,-6.80474 -45.2228,-11.47705 -54.9715,-20.520934 -5.78499,-5.366746 -19.56455,-24.714648 -19.56455,-27.470684 0,-1.010987 4.01525,-4.786368 8.92281,-8.389705 10.31298,-7.57232 27.07755,-24.435891 35.46071,-35.67017 8.04653,-10.783029 15.45904,-25.959593 26.32976,-53.908077 4.86066,-12.4966 7.06164,-24.654339 7.74971,-42.807636 0.72303,-19.075492 0.76833,-19.30469 3.90059,-19.747634 2.46809,-0.349108 5.27479,1.711853 12.68881,9.316987 16.35422,16.775831 30.85956,44.09937 42.28023,79.64268817 1.52892,4.75829753 3.66153,11.34676083 4.73913,14.64095483 1.09485,3.346879 2.26678,13.623837 2.65618,23.292513 0.60473,15.015038 0.30132,18.880768 -2.29569,29.234691 -1.64589,6.562456 -3.91146,14.049318 -5.03458,16.637487 -7.67521,17.687019 -16.59468,31.252849 -23.13702,35.189519 -2.73364,1.64488 -6.94908,2.08963 -18.63397,1.96599 -8.30563,-0.088 -17.79642,-0.72063 -21.09062,-1.40599 z"
             id="path5232"
             inkscape:connector-curvature="0"
             sodipodi:nodetypes="ccccccssccsscccsccssccscccccccscsssccsccccccsccsccscsccccsscscccscscccccccccsccccsscsccssccccscccscccccccccc" />
        </g>
      </g>
    </g>
  </g>
</svg>
