<?xml version="1.0" encoding="UTF-8" standalone="no"?>
<!-- Created with Inkscape (http://www.inkscape.org/) -->

<svg
   xmlns:dc="http://purl.org/dc/elements/1.1/"
   xmlns:cc="http://creativecommons.org/ns#"
   xmlns:rdf="http://www.w3.org/1999/02/22-rdf-syntax-ns#"
   xmlns:svg="http://www.w3.org/2000/svg"
   xmlns="http://www.w3.org/2000/svg"
   xmlns:sodipodi="http://sodipodi.sourceforge.net/DTD/sodipodi-0.dtd"
   xmlns:inkscape="http://www.inkscape.org/namespaces/inkscape"
   width="210mm"
   height="297mm"
   viewBox="0 0 210 297"
   version="1.1"
   id="svg8"
   inkscape:version="0.92.2 5c3e80d, 2017-08-06"
   sodipodi:docname="bat.svg">
  <defs
     id="defs2">
    <clipPath
       id="clipPath45"
       clipPathUnits="userSpaceOnUse">
      <path
         inkscape:connector-curvature="0"
         id="path43"
         d="M 0,864 H 864 V 0 H 0 Z" />
    </clipPath>
    <clipPath
       id="clipPath3854"
       clipPathUnits="userSpaceOnUse">
      <path
         inkscape:connector-curvature="0"
         id="path3852"
         d="M 0,864 H 864 V 0 H 0 Z" />
    </clipPath>
    <clipPath
       id="clipPath4053"
       clipPathUnits="userSpaceOnUse">
      <path
         inkscape:connector-curvature="0"
         id="path4051"
         d="M 0,864 H 864 V 0 H 0 Z" />
    </clipPath>
    <clipPath
       id="clipPath4150"
       clipPathUnits="userSpaceOnUse">
      <path
         inkscape:connector-curvature="0"
         id="path4148"
         d="M 0,864 H 864 V 0 H 0 Z" />
    </clipPath>
    <clipPath
       id="clipPath4295"
       clipPathUnits="userSpaceOnUse">
      <path
         inkscape:connector-curvature="0"
         id="path4293"
         d="M 0,864 H 864 V 0 H 0 Z" />
    </clipPath>
    <clipPath
       id="clipPath4410"
       clipPathUnits="userSpaceOnUse">
      <path
         inkscape:connector-curvature="0"
         id="path4408"
         d="M 0,864 H 864 V 0 H 0 Z" />
    </clipPath>
    <clipPath
       id="clipPath4615"
       clipPathUnits="userSpaceOnUse">
      <path
         inkscape:connector-curvature="0"
         id="path4613"
         d="M 0,864 H 864 V 0 H 0 Z" />
    </clipPath>
    <clipPath
       id="clipPath4838"
       clipPathUnits="userSpaceOnUse">
      <path
         inkscape:connector-curvature="0"
         id="path4836"
         d="M 0,864 H 864 V 0 H 0 Z" />
    </clipPath>
    <clipPath
       id="clipPath5001"
       clipPathUnits="userSpaceOnUse">
      <path
         inkscape:connector-curvature="0"
         id="path4999"
         d="M 0,864 H 864 V 0 H 0 Z" />
    </clipPath>
    <inkscape:perspective
       id="perspective9"
       inkscape:persp3d-origin="372.04724 : 350.78739 : 1"
       inkscape:vp_z="744.09448 : 526.18109 : 1"
       inkscape:vp_y="0 : 1000 : 0"
       inkscape:vp_x="0 : 526.18109 : 1"
       sodipodi:type="inkscape:persp3d" />
  </defs>
  <sodipodi:namedview
     id="base"
     pagecolor="#000000"
     bordercolor="#666666"
     borderopacity="1.0"
     inkscape:pageopacity="0"
     inkscape:pageshadow="2"
     inkscape:zoom="0.91846942"
     inkscape:cx="396.85039"
     inkscape:cy="556.87007"
     inkscape:document-units="mm"
     inkscape:current-layer="g5136"
     showgrid="false"
     inkscape:window-width="2560"
     inkscape:window-height="1385"
     inkscape:window-x="2560"
     inkscape:window-y="27"
     inkscape:window-maximized="1"
     showguides="true"
     inkscape:guide-bbox="true">
    <sodipodi:guide
       position="105.43356,205.96993"
       orientation="1,0"
       id="guide3815"
       inkscape:locked="false" />
    <sodipodi:guide
       position="92.758485,149.50825"
       orientation="0,1"
       id="guide3817"
       inkscape:locked="false" />
  </sodipodi:namedview>
  <metadata
     id="metadata5">
    <rdf:RDF>
      <cc:Work
         rdf:about="">
        <dc:format>image/svg+xml</dc:format>
        <dc:type
           rdf:resource="http://purl.org/dc/dcmitype/StillImage" />
        <dc:title></dc:title>
      </cc:Work>
    </rdf:RDF>
  </metadata>
  <g
     inkscape:label="Layer 1"
     inkscape:groupmode="layer"
     id="layer1">
    <g
       transform="matrix(0.35277777,0,0,-0.35277777,-70.777455,287.43463)"
       inkscape:label="1"
       id="g37">
      <g
         id="g39">
        <g
           id="g5136"
           transform="matrix(0.75000002,0,0,-0.75000002,342.50983,505.50165)"
           style="fill:#ffeeaa">
          <path
             style="fill:#ffeeaa;stroke-width:1.72916186"
             d="m 174.35224,363.27083 c -1.9021,-0.81761 -6.37636,-1.54096 -9.94273,-1.60762 -3.56636,-0.0689 -6.48437,-0.89993 -6.48437,-1.85062 0,-0.9509 -3.11251,-1.72928 -6.91657,-1.72928 -3.8042,0 -6.91669,-0.77834 -6.91669,-1.729 0,-0.9509 -2.00976,-1.72926 -4.46623,-1.72926 -2.45643,0 -10.75019,-3.11248 -18.43046,-6.91668 -7.68037,-3.80401 -15.00809,-6.91651 -16.28376,-6.91651 -1.27568,0 -2.31941,-0.77836 -2.31941,-1.72928 0,-0.95085 -1.0205,-1.72912 -2.26767,-1.72912 -1.24724,0 -3.77614,-1.36177 -5.61981,-3.02597 -1.8437,-1.66435 -5.49191,-4.13022 -8.1073,-5.47973 -2.61538,-1.3496 -4.75523,-3.10032 -4.75523,-3.89067 0,-0.79013 -1.12849,-1.43696 -2.507788,-1.43696 -2.94566,0 -44.17946,-39.99885 -44.17946,-42.85608 0,-1.06991 -1.75068,-3.77391 -3.89053,-6.00968 -2.13984,-2.2358 -5.01079,-5.9672 -6.37969,-8.29219 -1.36902,-2.32511 -5.45419,-9.07662 -9.07816,-15.00329 -4.14428,-6.77769 -6.58899,-12.90512 -6.58899,-16.51464 0,-5.98421 3.37797,-15.03692 5.61973,-15.06022 0.7137,0 1.29686,-1.17186 1.29686,-2.58754 0,-5.81756 22.61873,-28.55091 28.40689,-28.55091 1.33647,0 2.77724,-0.97248 3.20179,-2.16141 1.50822,-4.22285 3.02603,0.078 5.69353,16.14713 1.4863,8.95102 3.12389,18.80334 3.63917,21.89429 0.51563,3.09092 1.62988,5.61981 2.47683,5.61981 0.84701,0 1.53999,1.53243 1.53999,3.40592 0,1.87319 1.55623,6.1762 3.45825,9.56285 1.90206,3.38669 3.45833,6.94317 3.45833,7.9037 0,2.00805 7.13647,12.55962 9.07807,13.42259 0.71366,0.31764 1.29724,1.48441 1.29757,2.59374 9.8e-4,2.81573 18.704228,22.79508 20.065198,21.43414 1.31754,-1.31755 -3.00673,-16.82296 -4.69174,-16.82296 -1.88094,0 -3.54749,-11.69575 -4.41976,-31.01885 -0.78033,-17.28885 -0.39704,-19.67608 4.80982,-29.9108 0.84012,-1.65143 1.5274,-3.86801 1.5274,-4.92579 0,-3.21234 10.74465,-12.18516 13.38017,-11.17387 1.35588,0.52057 2.79059,0.94599 3.18828,0.94599 0.398,0 0.72349,1.61382 0.72349,3.58581 0,8.93963 13.45634,40.73501 18.97315,44.83086 0.64012,0.47543 1.66693,2.22617 2.28098,3.89055 0.61368,1.66439 2.30803,3.02613 3.7645,3.02613 1.45637,0 2.64795,1.19154 2.64795,2.6479 0,1.45646 1.36172,3.15045 3.02612,3.76459 1.66427,0.61468 3.41501,1.67919 3.89054,2.3665 0.47545,0.68819 2.4208,1.52259 4.3229,1.85563 3.14157,0.54993 3.40208,-0.1863 2.84327,-8.04095 -0.3382,-4.75508 -1.31088,-9.95632 -2.16148,-11.55817 -2.10737,-3.96893 -1.96374,-23.42747 0.18357,-24.75412 0.95089,-0.58724 1.72921,-3.41161 1.72921,-6.27482 0,-4.14404 6.05211,-15.68154 11.67472,-22.25639 1.05233,-1.23076 9.0562,9.0732 9.06656,11.67178 0.002,1.18877 0.59213,2.17983 1.3054,2.20238 0.71367,0.0292 3.58601,3.13487 6.3838,6.9165 2.79779,3.78165 5.81903,6.87598 6.71385,6.87598 0.89506,0 2.90104,1.46913 4.45828,3.26456 4.10484,4.73306 15.162,10.56862 20.02466,10.56862 2.30391,0 6.19191,0.91268 8.64007,2.02809 3.40481,1.55138 4.9279,1.55138 6.47925,0 1.11551,-1.11531 4.44087,-2.02809 7.38958,-2.02809 5.67622,0 14.66057,-3.43873 14.68334,-5.61981 0.003,-0.71368 1.05042,-1.29686 2.31784,-1.29686 4.3518,0 18.44554,-19.70465 18.44554,-25.78907 0,-1.60319 0.74603,-3.66054 1.657,-4.57196 0.91173,-0.9117 1.88397,-9.04257 2.16144,-18.06979 0.63131,-20.54382 2.02337,-22.48389 12.16811,-16.96027 7.92818,4.31678 22.00643,18.19898 22.03656,21.72988 0.004,1.18871 0.79697,2.16139 1.74767,2.16139 0.95093,0 1.72909,0.79013 1.72909,1.75591 0,3.56198 12.50556,20.46072 14.5586,19.67273 3.07066,-1.17836 6.41948,-28.43728 4.37101,-35.57965 -0.9009,-3.14132 -1.63801,-9.02359 -1.63801,-13.07201 0,-4.04796 -0.77838,-7.36012 -1.72915,-7.36012 -0.95092,0 -1.72909,-1.8995 -1.72909,-4.22089 0,-2.32134 -0.77835,-4.70194 -1.72914,-5.28964 -0.95094,-0.5882 -1.7292,-2.9221 -1.7292,-5.18753 0,-2.26539 -0.77836,-4.59972 -1.72915,-5.1874 -0.95093,-0.58818 -1.72921,-2.26306 -1.72921,-3.72253 0,-2.20605 1.53311,-2.4454 9.0781,-1.41832 4.9929,0.67935 11.14351,2.69803 13.66791,4.48512 2.52441,1.7873 5.12057,3.24944 5.76916,3.24944 2.17675,0 19.9014,19.45722 19.9014,21.84684 0,1.2986 0.58326,2.36753 1.29687,2.37511 1.55288,0.0291 5.61971,8.38942 5.61971,11.5706 0,1.23696 0.58918,2.24903 1.30821,2.24903 1.52428,0 5.60845,12.32059 5.60845,16.91852 0,3.22995 3.08164,7.28971 5.53332,7.28971 0.76071,0 1.38341,-9.27804 1.38341,-20.61794 0,-18.8557 -1.77592,-33.54252 -5.13871,-42.49644 -0.71463,-1.90219 -2.24923,-6.57093 -3.41096,-10.37492 -3.03224,-9.92961 -6.69261,-17.88099 -12.43223,-27.005526 -7.45519,-11.85208 -5.80168,-14.10501 9.5443,-13.00424 16.8544,1.20919 26.83887,2.90242 27.97739,4.74451 0.52547,0.85091 2.4662,1.54666 4.31211,1.54666 1.84594,0 3.35628,0.68325 3.35628,1.51936 0,0.83624 2.25652,2.45392 5.01442,3.59622 3.61468,1.4974 5.28399,3.60741 5.98012,7.55894 0.53133,3.014656 1.73516,9.761256 2.67577,14.992126 3.72529,20.71595 4.07466,30.46948 1.86699,52.12122 -1.25527,12.31223 -2.93035,22.78658 -3.72235,23.27596 -0.7921,0.48917 -1.43999,3.95656 -1.43999,7.70445 0,3.74826 -0.77838,6.81455 -1.72915,6.81455 -0.95094,0 -1.72909,2.345 -1.72909,5.21113 0,2.86577 -0.7127,6.56193 -1.58381,8.21357 -0.87149,1.65124 -2.9013,6.11477 -4.51147,9.91899 -1.61028,3.8043 -4.01007,9.17593 -5.3329,11.93745 -1.32282,2.76154 -2.4052,6.06863 -2.4052,7.34913 0,1.28026 -0.70192,2.3281 -1.55997,2.3281 -0.85779,0 -2.40301,2.13984 -3.43336,4.75515 -2.07586,5.26947 -5.1217,10.29895 -8.40761,13.88373 -1.18885,1.29685 -2.16151,3.04534 -2.16151,3.88519 0,0.84014 -1.94522,3.47228 -4.32287,5.84972 -2.37757,2.37764 -4.32293,5.0798 -4.32293,6.00501 0,2.14402 -31.98862,34.78754 -34.08965,34.78754 -0.86364,0 -3.07903,1.40323 -4.92273,3.11788 -5.31149,4.9404 -29.79295,21.09051 -31.9705,21.09051 -1.08494,0 -4.03804,1.45099 -6.5624,3.22455 -2.52442,1.7736 -9.64767,4.92294 -15.82944,6.99845 -6.18172,2.07552 -12.40668,4.39532 -13.83325,5.15509 -1.42656,0.75972 -8.04061,2.3699 -14.69795,3.57722 -6.65717,1.20718 -14.36008,2.88324 -17.11732,3.72414 -6.3829,1.94662 -64.73704,1.77781 -69.3407,-0.19999 z M -9.687638,175.79641 c -2.47714,-2.98481 -1.49292,-56.33528 1.27862,-69.30609 6.79788,-31.814856 10.93321,-42.814646 28.04671,-74.600986 2.12123,-3.94013 6.08952,-9.77603 8.81833,-12.96871 2.72879,-3.192577 4.96331,-6.362139 4.96553,-7.043248 0.004,-4.1574937 38.08034,-41.401318 47.193258,-46.173581 2.57703,-1.349519 4.6856,-3.100304 4.6856,-3.890553 0,-0.790131 1.02049,-1.436954 2.26763,-1.436954 1.24728,0 3.93811,-1.556248 5.9798,-3.458243 2.04163,-1.902302 4.91177,-3.458555 6.3781,-3.458555 1.46639,0 2.66608,-0.778342 2.66608,-1.728995 0,-0.950893 1.55624,-1.729267 3.45834,-1.729267 1.902,0 3.45824,-0.778344 3.45824,-1.729142 0,-0.950942 1.55625,-1.729091 3.45832,-1.729091 1.90214,0 3.4584,-0.778359 3.4584,-1.729156 0,-0.95091 1.55623,-1.729206 3.45833,-1.729206 1.90209,0 3.45833,-0.778359 3.45833,-1.729156 0,-0.95092 1.51027,-1.729167 3.35623,-1.729167 1.846,0 3.78173,-0.68818 4.30175,-1.52976 0.51961,-0.841138 3.09488,-1.944678 5.72182,-2.451486 2.62704,-0.506826 7.88887,-1.822491 11.69297,-2.923501 15.24619,-4.412782 23.42787,-5.629933 44.95828,-6.68819 22.75401,-1.118422 48.8964,0.05899 63.11438,2.84771 12.07271,2.366205 29.39571,7.905257 29.39571,9.399251 0,0.740139 2.33444,1.345976 5.18754,1.345976 2.85309,0 5.18751,0.77839 5.18751,1.729167 0,0.950926 1.49136,1.729156 3.31414,1.729156 1.82291,0 3.57362,0.583312 3.89069,1.296863 0.31659,0.713697 4.46695,3.211873 9.22217,5.552605 9.94174,4.893116 23.93711,13.90632 24.78465,15.96114 0.31666,0.768564 1.59484,1.397703 2.83968,1.397703 2.50342,0 42.40425,38.4309913 42.41075,40.8483813 10e-4,0.834229 2.33475,4.2394107 5.18346,7.5679887 2.84862,3.32885 5.18116,6.66829 5.18342,7.42126 10e-4,0.75288 1.56026,3.03983 3.46237,5.08134 3.74868,4.02371 4.57245,8.24738 1.60839,8.24738 -1.01736,0 -5.10253,-2.16374 -9.07811,-4.80804 -16.12043,-10.72307 -43.9651,-19.888608 -67.74884,-22.3004237 -4.75522,-0.482361 -9.38505,-1.583296 -10.2885,-2.446774 -0.90385,-0.863643 -7.55578,-1.56968 -14.78281,-1.56968 h -13.1401 l -2.07649,5.7425737 c -1.14207,3.158375 -2.0765,7.048943 -2.0765,8.645954 0,1.59675 -0.77836,2.90322 -1.72919,2.90322 -0.95088,0 -1.72915,2.28841 -1.72915,5.08552 0,2.79687 -0.77835,5.56614 -1.72916,6.15394 -0.95091,0.5882 -1.72918,2.96816 -1.72918,5.28964 0,2.32141 -0.77837,4.22074 -1.7292,4.22074 -0.95089,0 -1.72916,2.33445 -1.72916,5.18752 0,2.85313 -0.77836,5.18756 -1.72915,5.18756 -0.95093,0 -1.72919,2.33429 -1.72919,5.18737 0,2.85309 -0.77836,5.18753 -1.72908,5.18753 -0.95089,0 -1.72916,1.17786 -1.72916,2.61737 0,1.43929 -0.70188,3.96816 -1.56064,5.61959 -0.85878,1.65145 -2.57648,6.50412 -3.81814,10.78376 -1.24156,4.27962 -3.06819,8.3596 -4.05907,9.06641 -1.00817,0.71954 -4.20231,-1.37547 -7.25155,-4.75509 -2.99752,-3.32211 -6.18394,-6.04029 -7.08102,-6.04029 -0.897,0 -3.03946,-1.55627 -4.76077,-3.45858 -1.72134,-1.90201 -4.56543,-3.45824 -6.32007,-3.45824 -2.56931,0 -3.19036,1.3465 -3.19036,6.91682 0,3.80397 -0.77837,6.91648 -1.72915,6.91648 -0.95092,0 -1.72918,1.05195 -1.72918,2.33744 0,2.66144 -9.58129,13.225016 -11.99564,13.225016 -0.87438,0 -2.81352,1.22296 -4.30833,2.7177 -5.35379,5.35369 -39.02915,2.64457 -39.02915,-3.13976 0,-0.7195 -1.89289,-1.30724 -4.20644,-1.30724 -5.22833,0 -6.01545,2.36995 -6.52967,19.65459 -0.45095,15.15108 -2.44647,17.76739 -8.91642,11.68926 -2.15277,-2.02258 -4.83657,-3.67716 -5.96414,-3.67716 -1.12744,0 -2.04991,-0.77837 -2.04991,-1.72897 0,-0.95089 -1.02053,-1.72929 -2.26776,-1.72929 -1.24715,0 -3.77605,-1.38274 -5.61973,-3.07306 -1.84368,-1.69008 -6.07546,-4.97607 -9.40413,-7.30185 -3.32867,-2.32611 -7.56054,-5.61191 -9.40415,-7.30198 -1.84366,-1.69034 -4.37258,-3.07311 -5.6198,-3.07311 -1.24729,0 -2.26768,-0.59403 -2.26768,-1.32094 0,-0.72641 -3.1125,-3.24455 -6.9167,-5.595726 -3.80409,-2.35096 -6.9166,-4.8692 -6.9166,-5.59572 0,-0.72643 -0.97245,-1.3526 -2.16148,-1.39104 -1.18881,-0.0391 -4.8555,-2.37328 -8.148138,-5.18751 -3.29277,-2.81467 -6.98887,-5.11713 -8.21355,-5.11713 -1.22469,0 -2.22679,-0.77839 -2.22679,-1.7293 0,-3.91007 -4.17558,-1.15137 -13.49216,8.91339 -5.41826,5.85335 -14.71467,15.751836 -20.65865,21.996236 -5.94406,6.24468 -10.8073,12.34932 -10.8073,13.56606 0,1.21648 -0.59407,2.21168 -1.32096,2.21168 -0.72641,0 -3.24453,3.1125 -5.59571,6.91648 -2.35107,3.80423 -4.86908,6.91671 -5.59561,6.91671 -0.72643,0 -1.32098,1.55625 -1.32098,3.45855 0,1.90201 -0.77839,3.45827 -1.7292,3.45827 -0.95087,0 -1.72914,1.55624 -1.72914,3.45824 0,1.90216 -0.77835,3.4584 -1.72919,3.4584 -0.9509,0 -1.72918,1.55624 -1.72918,3.45827 0,1.90201 -0.77836,3.45824 -1.72916999,3.45824 -0.95087,0 -1.72907001,1.55625 -1.72907001,3.45823 0,1.90221 -0.77836,3.45845 -1.72914,3.45845 -0.95093,0 -1.7292,1.89946 -1.7292,4.22085 0,5.19112 -2.38817,6.93335 -5.07174,3.69996 z m 199.002258,-26.7122 c -2.04757,-1.77565 -3.7228,-4.45344 -3.7228,-5.94999 0,-1.49669 -0.77837,-3.20201 -1.72919,-3.78968 -2.307,-1.42588 -2.18716,-6.61333 0.27742,-12.02287 1.56976,-3.44522 3.26958,-4.40418 7.80664,-4.40418 4.68752,0 6.4574,1.07777 9.22787,5.61966 5.67237,9.29954 6.24499,16.38337 1.64673,20.37149 -4.91333,4.26123 -8.73862,4.31101 -13.50673,0.17629 z m 28.69413,-10.57602 c -7.14527,-5.6203 -8.24586,-17.33652 -1.85863,-19.78758 1.51795,-0.58233 5.32669,-0.57741 8.46389,0.0291 4.23821,0.79503 6.40018,2.53744 8.41364,6.78049 3.41649,7.19953 3.41482,10.28762 -0.003,13.71008 -3.70166,3.70179 -9.76467,3.41337 -15.01144,-0.7137 z"
             id="path6497-6-2"
             inkscape:connector-curvature="0"
             sodipodi:nodetypes="ccsssscsssccssssccscsscccsscsccssccscssccssccccccscccsscsccscssccccssccssscscsccsscssssscccccsscccccsssccsssccscsscssssccccccccccsscssssssssscccccsssscccsccccscccsccssscsssssssscccscssssscssccssscccsscsccssccsscssssssssssccsccsccccccccccc" />
        </g>
      </g>
    </g>
  </g>
</svg>
