<?xml version="1.0" encoding="UTF-8" standalone="no"?>
<!-- Created with Inkscape (http://www.inkscape.org/) -->

<svg
   xmlns:dc="http://purl.org/dc/elements/1.1/"
   xmlns:cc="http://creativecommons.org/ns#"
   xmlns:rdf="http://www.w3.org/1999/02/22-rdf-syntax-ns#"
   xmlns:svg="http://www.w3.org/2000/svg"
   xmlns="http://www.w3.org/2000/svg"
   xmlns:sodipodi="http://sodipodi.sourceforge.net/DTD/sodipodi-0.dtd"
   xmlns:inkscape="http://www.inkscape.org/namespaces/inkscape"
   width="210mm"
   height="297mm"
   viewBox="0 0 210 297"
   version="1.1"
   id="svg8"
   inkscape:version="0.92.2 5c3e80d, 2017-08-06"
   sodipodi:docname="bats.svg">
  <defs
     id="defs2">
    <clipPath
       id="clipPath45"
       clipPathUnits="userSpaceOnUse">
      <path
         inkscape:connector-curvature="0"
         id="path43"
         d="M 0,864 H 864 V 0 H 0 Z" />
    </clipPath>
    <clipPath
       id="clipPath3854"
       clipPathUnits="userSpaceOnUse">
      <path
         inkscape:connector-curvature="0"
         id="path3852"
         d="M 0,864 H 864 V 0 H 0 Z" />
    </clipPath>
    <clipPath
       id="clipPath4053"
       clipPathUnits="userSpaceOnUse">
      <path
         inkscape:connector-curvature="0"
         id="path4051"
         d="M 0,864 H 864 V 0 H 0 Z" />
    </clipPath>
    <clipPath
       id="clipPath4150"
       clipPathUnits="userSpaceOnUse">
      <path
         inkscape:connector-curvature="0"
         id="path4148"
         d="M 0,864 H 864 V 0 H 0 Z" />
    </clipPath>
    <clipPath
       id="clipPath4295"
       clipPathUnits="userSpaceOnUse">
      <path
         inkscape:connector-curvature="0"
         id="path4293"
         d="M 0,864 H 864 V 0 H 0 Z" />
    </clipPath>
    <clipPath
       id="clipPath4410"
       clipPathUnits="userSpaceOnUse">
      <path
         inkscape:connector-curvature="0"
         id="path4408"
         d="M 0,864 H 864 V 0 H 0 Z" />
    </clipPath>
    <clipPath
       id="clipPath4615"
       clipPathUnits="userSpaceOnUse">
      <path
         inkscape:connector-curvature="0"
         id="path4613"
         d="M 0,864 H 864 V 0 H 0 Z" />
    </clipPath>
    <clipPath
       id="clipPath4838"
       clipPathUnits="userSpaceOnUse">
      <path
         inkscape:connector-curvature="0"
         id="path4836"
         d="M 0,864 H 864 V 0 H 0 Z" />
    </clipPath>
    <clipPath
       id="clipPath5001"
       clipPathUnits="userSpaceOnUse">
      <path
         inkscape:connector-curvature="0"
         id="path4999"
         d="M 0,864 H 864 V 0 H 0 Z" />
    </clipPath>
    <inkscape:perspective
       id="perspective9"
       inkscape:persp3d-origin="372.04724 : 350.78739 : 1"
       inkscape:vp_z="744.09448 : 526.18109 : 1"
       inkscape:vp_y="0 : 1000 : 0"
       inkscape:vp_x="0 : 526.18109 : 1"
       sodipodi:type="inkscape:persp3d" />
  </defs>
  <sodipodi:namedview
     id="base"
     pagecolor="#000000"
     bordercolor="#666666"
     borderopacity="1.0"
     inkscape:pageopacity="0"
     inkscape:pageshadow="2"
     inkscape:zoom="0.91846942"
     inkscape:cx="396.85039"
     inkscape:cy="556.87007"
     inkscape:document-units="mm"
     inkscape:current-layer="g5136"
     showgrid="false"
     inkscape:window-width="2560"
     inkscape:window-height="1385"
     inkscape:window-x="2560"
     inkscape:window-y="27"
     inkscape:window-maximized="1"
     showguides="true"
     inkscape:guide-bbox="true">
    <sodipodi:guide
       position="105.43356,205.96993"
       orientation="1,0"
       id="guide3815"
       inkscape:locked="false" />
    <sodipodi:guide
       position="92.758485,149.50825"
       orientation="0,1"
       id="guide3817"
       inkscape:locked="false" />
  </sodipodi:namedview>
  <metadata
     id="metadata5">
    <rdf:RDF>
      <cc:Work
         rdf:about="">
        <dc:format>image/svg+xml</dc:format>
        <dc:type
           rdf:resource="http://purl.org/dc/dcmitype/StillImage" />
        <dc:title></dc:title>
      </cc:Work>
    </rdf:RDF>
  </metadata>
  <g
     inkscape:label="Layer 1"
     inkscape:groupmode="layer"
     id="layer1">
    <g
       transform="matrix(0.35277777,0,0,-0.35277777,-70.777455,287.43463)"
       inkscape:label="1"
       id="g37">
      <g
         id="g39">
        <g
           id="g5136"
           transform="matrix(0.75000002,0,0,-0.75000002,342.50983,505.50165)"
           style="fill:#ffeeaa">
          <path
             style="fill:#ffeeaa;stroke-width:1.07367337"
             d="M 187.50249,365.83793 C 155.70843,361.57241 134.42561,355.26171 109.284,342.64506 88.54954,332.23999 70.877598,319.42389 51.521038,300.75401 l -5.223935,-5.03874 3.498121,-2.57107 c 10.019752,-7.36406 27.596706,-12.70453 42.000556,-12.76101 20.39907,-0.079 37.90708,8.13322 55.61601,26.09013 3.93298,3.98805 8.01421,8.71259 9.06939,10.49887 1.05518,1.78621 2.46681,3.45807 3.13697,3.71531 0.67012,0.25685 5.32607,-3.47214 10.34638,-8.28736 14.19788,-13.61764 26.28415,-19.68548 44.29963,-22.24052 16.37565,-2.32247 37.33123,2.39269 56.44802,12.70128 7.0304,3.791 15.1109,8.81611 16.10509,10.0153 0.91499,1.10363 5.52867,3.31388 5.97849,2.86411 0.23435,-0.23435 -0.0181,-1.84382 -0.56242,-3.5764 -2.96833,-9.45593 -3.40733,-12.4792 -2.95505,-20.34814 0.80677,-14.03695 2.82783,-20.02635 10.8625,-32.19109 6.01173,-9.10185 15.95272,-18.45849 28.20931,-26.55105 12.77527,-8.43515 14.85487,-9.53846 29.86667,-15.84516 9.6823,-4.06773 11.76459,-5.33834 11.55612,-7.05097 -0.13998,-1.14904 -0.50949,-4.02173 -0.82149,-6.38383 -2.87769,-21.79018 -2.94469,-23.05853 -1.68343,-31.85043 1.79329,-12.50041 3.33276,-20.30251 4.62579,-23.44375 0.60748,-1.47628 1.46221,-3.65048 1.89895,-4.83153 1.63143,-4.41214 5.92621,-12.89682 6.70279,-13.24191 0.44315,-0.1972 0.80524,-0.79532 0.80524,-1.32988 0,-1.25317 2.36169,-4.20244 9.66306,-12.06753 6.2124,-6.69187 16.74807,-14.16906 26.10044,-18.523423 7.95195,-3.702396 9.00982,-3.489164 9.66215,1.947393 0.30131,2.50972 1.18054,8.42834 1.95428,13.15248 1.82615,11.15046 1.90427,50.87304 0.12245,62.27308 -2.02059,12.92758 -3.1707,18.87762 -4.56571,23.62079 -0.69465,2.3621 -1.5131,5.86949 -1.81861,7.79412 -0.30559,1.92469 -0.98537,3.76497 -1.51066,4.08965 -0.52531,0.32442 -0.95506,1.74105 -0.95506,3.14768 0,1.40663 -0.4833,2.85606 -1.0736,3.22103 -0.59044,0.36462 -1.07368,1.60794 -1.07368,2.7621 0,1.15421 -0.43036,2.93751 -0.95621,3.96299 -0.52592,1.02533 -1.91527,4.03843 -3.08749,6.69583 -3.6657,8.30968 -9.30515,19.83902 -9.97842,20.39979 -0.35428,0.29522 -1.32769,2.10707 -2.1627,4.02623 -0.83503,1.91923 -1.88338,3.48949 -2.32975,3.48949 -0.44616,0 -0.81155,0.50946 -0.81155,1.1326 0,1.36508 -8.60923,14.28587 -9.85707,14.79353 -0.4839,0.19722 -0.87967,0.83531 -0.87967,1.41879 0,0.58314 -0.60382,1.67465 -1.34211,2.4247 -0.73819,0.75008 -2.54996,2.9613 -4.02629,4.91401 -6.87768,9.0967 -24.85055,27.20142 -33.86892,34.11739 -32.19696,24.69105 -65.12825,39.35825 -103.31976,46.0171 -8.88312,1.54882 -50.21956,2.93324 -57.68302,1.93194 z M 0.41494001,218.60266 c -0.73816,-1.58937 -1.342116,-3.73138 -1.342116,-4.7597 0,-1.02854 -0.48329901,-2.16862 -1.07368101,-2.53358 -0.590428,-0.36463 -1.073679,-2.05595 -1.073679,-3.75784 0,-1.70187 -0.429747,-3.35996 -0.955049,-3.68453 -0.525298,-0.32443 -1.229863,-2.16494 -1.565801,-4.08966 -0.336,-1.92462 -1.135409,-6.15671 -1.776618,-9.40459 -2.98516,-15.11936 -3.581934,-22.59384 -3.600247,-45.09427 -0.01819,-22.54684 0.636329,-30.5184 3.659546,-44.55744 0.635845,-2.952586 1.41741,-7.183219 1.736855,-9.401424 0.319556,-2.218089 1.01293,-4.300028 1.541033,-4.626462 0.528343,-0.326258 0.960281,-1.985873 0.960281,-3.68773 0,-1.701859 0.483298,-3.392943 1.073679,-3.757853 0.59043,-0.365215 1.07368101,-1.607933 1.07368101,-2.762136 0,-1.154221 0.483313,-3.058213 1.073678,-4.231358 C 0.73694801,71.08112 1.7033,69.161601 2.293859,67.988635 c 0.590445,-1.173128 1.07363,-2.645874 1.07363,-3.272894 0,-0.627133 0.966306,-3.140205 2.147357,-5.584605 1.181051,-2.444528 2.147357,-5.078485 2.147357,-5.853351 0,-0.774881 0.483298,-1.40889 1.073681,-1.40889 0.590444,0 1.073678,-0.731283 1.073678,-1.6251 0,-1.490334 1.938587,-5.68188 3.220987,-6.964281 0.295206,-0.295222 1.539567,-2.469426 2.765118,-4.83153 2.886806,-5.56386 5.149814,-9.52586 5.826022,-10.199874 0.296423,-0.295207 1.180505,-1.785428 1.965101,-3.311548 0.784626,-1.526007 2.584971,-4.183332 4.000859,-5.905208 l 2.574239,-3.130478 5.123707,5.429095 c 6.231154,6.602592 8.881495,9.888467 8.881495,11.011073 0,2.263379 2.842962,6.58507 4.037109,6.13688 4.39479,-1.64926 16.749139,-2.913573 23.48862,-2.403911 5.850372,0.442519 9.553201,1.455562 14.583841,3.990295 7.16577,3.610426 16.84081,12.776918 19.26404,18.251347 0.78302,1.768999 1.78883,3.2163 2.23525,3.2163 0.44616,0 0.81156,0.937752 0.81156,2.084 0,1.146168 0.48332,2.382622 1.07364,2.74753 0.59044,0.365216 1.08908,1.480591 1.10783,2.479092 0.0181,0.998627 0.68044,2.66726 1.47041,3.708182 1.34744,1.775459 1.95972,1.642639 9.89735,-2.147358 8.1955,-3.913119 8.83171,-4.039916 20.27149,-4.039916 11.62293,0 11.94672,0.06749 20.39975,4.283941 8.28777,4.133535 19.88002,14.155981 25.70628,22.225167 2.65459,3.676456 3.81976,2.934768 3.81976,-2.431741 0,-4.689837 2.2069,-12.803763 3.48241,-12.803763 0.4468,0 0.8123,-0.724216 0.8123,-1.609335 0,-0.885282 2.5365,-4.218812 5.63682,-7.40796 9.69538,-9.973422 25.67651,-16.189137 47.13587,-18.333031 l 7.14159,-0.71344 0.58194,-3.952207 c 1.12921,-7.671843 1.93422,-11.494032 2.92383,-13.883596 0.55026,-1.328655 1.42249,-3.50286 1.93817,-4.83153 4.87718,-12.565376 14.56873,-24.057572 24.55646,-29.118761 6.6838,-3.386918 16.34375,-6.044003 21.9731,-6.044003 3.87168,0 4.06986,-0.169215 4.08526,-3.489476 0.0243,-4.827439 5.91611,-20.131358 7.75285,-20.131358 0.45105,0 0.82041,-0.724713 0.82041,-1.610494 0,-0.885764 0.40174,-1.610542 0.89221,-1.610542 0.49062,0 1.52499,-1.18221 2.29833,-2.627192 0.77331,-1.444999 2.08546,-2.887967 2.91589,-3.206623 1.338,-0.513124 14.53879,8.24528 23.41742,15.537348 6.67339,5.481016 28.10689,27.591257 32.74648,33.7805918 2.65583,3.5428632 5.10687,6.6832452 5.44669,6.9785322 0.33967,0.295223 0.91279,1.338045 1.27334,2.317314 0.84505,2.29551 -1.03028,2.734566 -15.30673,3.583513 -10.52235,0.625733 -34.02006,-1.310101 -38.79953,-3.196442 -1.54135,-0.608096 -1.83316,0.73597 -2.36952,10.916535 -1.15892,21.995074 -4.15201,42.624419 -8.22729,56.704672 -0.6837,2.362103 -1.50056,5.629281 -1.81533,7.260405 -0.31468,1.631255 -0.99966,3.229926 -1.5221,3.552898 -0.52227,0.322618 -0.94986,1.737831 -0.94986,3.144467 0,1.406635 -0.48331,2.856065 -1.07368,3.220995 -0.59043,0.3652 -1.07367,1.60793 -1.07367,2.76212 0,1.15421 -0.4547,2.93751 -1.01014,3.96293 -0.55575,1.02541 -1.88422,4.00936 -2.9526,6.6309 -1.06839,2.62159 -4.05308,8.90261 -6.63265,13.95778 -2.57956,5.05516 -5.23694,10.27448 -5.90517,11.59858 -0.66829,1.32405 -1.57743,2.4111 -2.02032,2.41575 -0.44315,0 -0.80524,0.5253 -0.80524,1.15702 0,1.36017 -6.46705,11.03907 -7.72162,11.55646 -0.47721,0.19722 -0.86777,0.8353 -0.86777,1.41887 0,0.58313 -0.60383,1.69438 -1.34212,2.46856 -0.73815,0.7742 -3.00786,3.45807 -5.04384,5.96414 -7.0553,8.68422 -7.92396,9.01309 -13.57705,5.13949 -6.50835,-4.45963 -8.76632,-10.04779 -10.10643,-25.01198 -1.01683,-11.35445 -0.73999,-10.19992 -2.44611,-10.19992 -0.75849,0 -2.22481,1.43189 -3.25866,3.18195 -1.03379,1.75007 -2.48962,3.8035 -3.23514,4.5631 -0.74555,0.75964 -3.00356,3.797 -5.01777,6.74954 -5.98439,8.77217 -6.47541,9.13325 -11.02413,8.10734 -8.64927,-1.95068 -15.37769,1.52053 -24.65849,12.72165 -2.06264,2.48937 -4.39213,2.73341 -12.21118,1.27936 -2.88559,-0.53687 -9.06953,-1.32558 -13.7421,-1.75311 l -8.49554,-0.77718 2.53863,3.63189 c 1.3962,1.99758 2.83538,3.87344 3.19803,4.16875 1.44612,1.17727 7.49657,10.66058 7.49657,11.74997 0,0.63981 0.4267,2.00218 0.94842,3.02765 3.01012,5.91718 4.03079,9.85406 5.13418,19.80262 0.53504,4.82663 0.42547,5.08821 -2.44522,5.80866 -4.32405,1.08525 -29.9937,-1.4907 -44.43696,-4.45933 -15.53596,-3.19315 -31.49105,-7.86002 -40.26275,-11.77662 -1.77155,-0.79115 -5.74232,-2.42921 -8.8239,-3.64032 -15.92432,-6.25879 -49.561787,-25.77495 -57.015281,-33.07987 -2.21352,-2.16943 -2.69634,-1.77739 -5.560093,4.51466 -1.476323,3.24369 -2.956367,5.89931 -3.289025,5.90137 -0.332966,0 -1.268394,1.69494 -2.079359,3.76169 -0.810921,2.06682 -1.86743,3.75789 -2.347742,3.75789 -0.48027,0 -0.873235,0.50522 -0.873235,1.12221 0,1.36707 -10.753054,17.52298 -11.997108,18.02491 -0.487566,0.19721 -0.887004,1.04245 -0.887004,1.87891 0,0.83659 -0.371305,1.52109 -0.824968,1.52109 -0.453471,0 -1.540856,1.14551 -2.415798,2.54557 -2.18406,3.49511 -9.836287,12.48776 -10.617545,12.47749 -0.350012,0 -1.24022,-1.30882 -1.97833499,-2.89825 z M 146.1661,18.941809 C 119.43779,7.1827674 109.43526,0.42543799 90.60344,-18.593831 c -6.6433,-6.709547 -12.064529,-12.805584 -12.047116,-13.546741 0.01815,-0.741139 5.181516,-4.681108 11.475746,-8.755554 47.82684,-30.959289 107.77169,-41.945769 164.98767,-30.23828 7.01792,1.435979 13.24788,3.098879 13.84431,3.695331 1.03198,1.031983 0.79496,2.042112 -2.42346,10.330139 -4.2476,10.938149 -16.38539,31.342956 -23.51382,39.529001 -5.06971,5.821768 -11.36624,11.931495 -16.80046,16.302 -2.93696,2.362103 -5.5815,4.537709 -5.87677,4.834574 -2.44799,2.4618095 -9.87936,6.554196 -11.37442,6.2639671 -3.11629,-0.6050363 -6.08242,-7.1568661 -5.36065,-11.8412111 0.34632,-2.248771 0.92227,-6.021472 1.27957,-8.383526 0.72611,-4.800414 -0.14785,-5.301508 -3.99424,-2.289308 -1.40831,1.103023 -4.38666,3.241136 -6.61856,4.751424 -3.7336,2.526455 -4.29154,2.624165 -6.97891,1.2222 -4.0867,-2.131897 -5.80079,-1.944225 -12.57206,1.37676 l -5.94094,2.913703 -8.05842,-3.987382 c -4.43205,-2.193079 -8.2919,-3.987397 -8.57738,-3.987397 -0.84793,0 -0.59104,3.107833 0.42304,5.114513 3.56715,7.06083 4.31038,16.283497 1.79706,22.298639 -1.72345,4.124885 -2.63213,4.341581 -8.10727,1.932788 z"
             id="path5434-6"
             inkscape:connector-curvature="0"
             sodipodi:nodetypes="cccccccccccccccscccccscccsccccccccscsccccsscscccccccscscccccccscsccscssssccccccsccccssccccsccssscccccccscsssccccccccccccscscccccscscccssccccccccccsccccccccccsscsscccccccccccccccccccccccscccc" />
        </g>
      </g>
    </g>
  </g>
</svg>
