<?xml version="1.0" encoding="UTF-8" standalone="no"?>
<!-- Created with Inkscape (http://www.inkscape.org/) -->

<svg
   xmlns:dc="http://purl.org/dc/elements/1.1/"
   xmlns:cc="http://creativecommons.org/ns#"
   xmlns:rdf="http://www.w3.org/1999/02/22-rdf-syntax-ns#"
   xmlns:svg="http://www.w3.org/2000/svg"
   xmlns="http://www.w3.org/2000/svg"
   xmlns:sodipodi="http://sodipodi.sourceforge.net/DTD/sodipodi-0.dtd"
   xmlns:inkscape="http://www.inkscape.org/namespaces/inkscape"
   width="210mm"
   height="297mm"
   viewBox="0 0 210 297"
   version="1.1"
   id="svg8"
   inkscape:version="0.92.2 5c3e80d, 2017-08-06"
   sodipodi:docname="boo.svg">
  <defs
     id="defs2">
    <clipPath
       id="clipPath45"
       clipPathUnits="userSpaceOnUse">
      <path
         inkscape:connector-curvature="0"
         id="path43"
         d="M 0,864 H 864 V 0 H 0 Z" />
    </clipPath>
    <clipPath
       id="clipPath3854"
       clipPathUnits="userSpaceOnUse">
      <path
         inkscape:connector-curvature="0"
         id="path3852"
         d="M 0,864 H 864 V 0 H 0 Z" />
    </clipPath>
    <clipPath
       id="clipPath4053"
       clipPathUnits="userSpaceOnUse">
      <path
         inkscape:connector-curvature="0"
         id="path4051"
         d="M 0,864 H 864 V 0 H 0 Z" />
    </clipPath>
    <clipPath
       id="clipPath4150"
       clipPathUnits="userSpaceOnUse">
      <path
         inkscape:connector-curvature="0"
         id="path4148"
         d="M 0,864 H 864 V 0 H 0 Z" />
    </clipPath>
    <clipPath
       id="clipPath4295"
       clipPathUnits="userSpaceOnUse">
      <path
         inkscape:connector-curvature="0"
         id="path4293"
         d="M 0,864 H 864 V 0 H 0 Z" />
    </clipPath>
    <clipPath
       id="clipPath4410"
       clipPathUnits="userSpaceOnUse">
      <path
         inkscape:connector-curvature="0"
         id="path4408"
         d="M 0,864 H 864 V 0 H 0 Z" />
    </clipPath>
    <clipPath
       id="clipPath4615"
       clipPathUnits="userSpaceOnUse">
      <path
         inkscape:connector-curvature="0"
         id="path4613"
         d="M 0,864 H 864 V 0 H 0 Z" />
    </clipPath>
    <clipPath
       id="clipPath4838"
       clipPathUnits="userSpaceOnUse">
      <path
         inkscape:connector-curvature="0"
         id="path4836"
         d="M 0,864 H 864 V 0 H 0 Z" />
    </clipPath>
    <clipPath
       id="clipPath5001"
       clipPathUnits="userSpaceOnUse">
      <path
         inkscape:connector-curvature="0"
         id="path4999"
         d="M 0,864 H 864 V 0 H 0 Z" />
    </clipPath>
    <inkscape:perspective
       id="perspective9"
       inkscape:persp3d-origin="372.04724 : 350.78739 : 1"
       inkscape:vp_z="744.09448 : 526.18109 : 1"
       inkscape:vp_y="0 : 1000 : 0"
       inkscape:vp_x="0 : 526.18109 : 1"
       sodipodi:type="inkscape:persp3d" />
  </defs>
  <sodipodi:namedview
     id="base"
     pagecolor="#000000"
     bordercolor="#666666"
     borderopacity="1.0"
     inkscape:pageopacity="0"
     inkscape:pageshadow="2"
     inkscape:zoom="0.91846942"
     inkscape:cx="396.85039"
     inkscape:cy="556.87007"
     inkscape:document-units="mm"
     inkscape:current-layer="g5136"
     showgrid="false"
     inkscape:window-width="2560"
     inkscape:window-height="1385"
     inkscape:window-x="2560"
     inkscape:window-y="27"
     inkscape:window-maximized="1"
     showguides="true"
     inkscape:guide-bbox="true">
    <sodipodi:guide
       position="105.43356,205.96993"
       orientation="1,0"
       id="guide3815"
       inkscape:locked="false" />
    <sodipodi:guide
       position="92.758485,149.50825"
       orientation="0,1"
       id="guide3817"
       inkscape:locked="false" />
  </sodipodi:namedview>
  <metadata
     id="metadata5">
    <rdf:RDF>
      <cc:Work
         rdf:about="">
        <dc:format>image/svg+xml</dc:format>
        <dc:type
           rdf:resource="http://purl.org/dc/dcmitype/StillImage" />
        <dc:title></dc:title>
      </cc:Work>
    </rdf:RDF>
  </metadata>
  <g
     inkscape:label="Layer 1"
     inkscape:groupmode="layer"
     id="layer1">
    <g
       transform="matrix(0.35277777,0,0,-0.35277777,-70.777455,287.43463)"
       inkscape:label="1"
       id="g37">
      <g
         id="g39">
        <g
           id="g5136"
           transform="matrix(0.75000002,0,0,-0.75000002,342.50983,505.50165)"
           style="fill:#ffeeaa">
          <path
             style="fill:#ffeeaa;stroke-width:1.57196534"
             d="m 62.801977,337.10564 c 0,-3.40732 0.707601,-6.63226 1.571964,-7.16661 0.864444,-0.5347 1.57199,-3.61779 1.57199,-6.85223 0,-3.23441 0.634501,-6.5527 1.410967,-7.37408 0.776172,-0.82168 1.853897,-4.67653 2.395361,-8.56719 2.426479,-17.43543 2.885102,-19.73582 4.214492,-21.14294 0.776213,-0.82167 1.410926,-4.84702 1.410926,-8.94597 0,-4.09895 0.7076,-7.88992 1.571991,-8.42421 0.864426,-0.53468 1.57195,-4.16276 1.57195,-8.0632 0,-6.74901 -0.532037,-7.59038 -11.003736,-17.41463 -6.0521,-5.67768 -11.003804,-10.96548 -11.003804,-11.75064 0,-0.78513 -1.78222,-3.20977 -3.960551,-5.38815 -2.178317,-2.17833 -5.128809,-5.74347 -6.556591,-7.92255 -2.214355,-3.37945 -2.26755,-4.16949 -0.361849,-5.37377 1.228528,-0.77623 4.540375,-0.98956 7.359778,-0.47321 7.640612,1.39834 9.807552,-1.29422 9.807552,-12.18645 0,-8.19133 0.356464,-9.23928 3.143953,-9.23928 1.729169,0 3.143942,1.01338 3.143942,2.25198 0,1.23865 1.414761,2.70113 3.143876,3.24989 1.729195,0.54899 3.143955,1.62359 3.143955,2.38841 0,1.99546 12.362404,9.94495 18.975176,12.20158 3.087447,1.05356 9.288171,1.91563 13.779441,1.91563 8.45528,0 20.69217,-3.01518 20.69217,-5.09861 0,-0.65412 1.00524,-1.18918 2.23386,-1.18918 3.22069,0 15.70745,-12.95911 18.83268,-19.54497 3.27414,-6.89979 5.68403,-7.07419 9.45857,-0.68442 3.75637,6.35908 14.81163,17.08541 17.60939,17.08541 1.19267,0 2.16843,0.5864 2.16843,1.30329 0,0.71652 3.60657,2.99243 8.01468,5.05705 6.61486,3.09831 10.52729,3.7547 22.40049,3.75853 14.48133,0.002 17.31645,-0.78871 30.86575,-8.64209 4.67073,-2.70706 20.46124,-18.14947 20.46124,-20.01021 0,-0.72006 1.23796,-2.71661 2.75094,-4.43671 3.88845,-4.4206 6.68085,-9.59414 6.68085,-12.37777 0,-5.55099 9.24616,-0.42867 9.38184,5.19735 0.0801,3.24165 8.77057,15.10213 16.7577,22.86523 3.99025,3.8784 11.52831,9.32919 16.75114,12.11292 8.76326,4.67084 10.65901,5.06545 24.56678,5.11456 13.13451,0.0445 16.21806,-0.48751 24.00117,-4.15504 4.91174,-2.31448 12.36932,-7.56984 16.57243,-11.67853 7.93306,-7.75481 17.72611,-20.94005 17.72611,-23.86611 0,-0.92498 0.7076,-1.68178 1.572,-1.68178 0.86442,0 1.57195,-1.41477 1.57195,-3.14397 0,-1.72908 0.70762,-3.14384 1.572,-3.14384 0.86442,0 1.57194,1.37297 1.57194,3.05109 0,1.67819 -0.70759,3.4884 -1.57194,4.02277 -0.86447,0.53469 -1.572,2.35404 -1.572,4.04393 0,1.68991 -0.61938,4.30084 -1.3759,5.8021 -0.75663,1.50132 -4.33335,8.63771 -7.94804,15.85873 -3.61463,7.22103 -7.94719,14.60513 -9.62779,16.40906 -1.68072,1.80396 -3.05574,3.90448 -3.05574,4.66779 0,1.62503 -0.13644,1.78873 -16.50569,19.85502 -6.91664,7.63357 -14.34411,14.86248 -16.50559,16.06431 -2.16144,1.20181 -5.55366,3.77674 -7.53826,5.72204 -1.98459,1.94525 -4.23305,3.53684 -4.99668,3.53684 -0.76375,0 -2.32295,0.89465 -3.46548,1.98816 -1.14238,1.09349 -5.43724,3.74498 -9.54404,5.8922 -4.10668,2.14719 -7.46685,4.43573 -7.46685,5.08571 0,0.64968 -0.95232,1.18161 -2.11641,1.18161 -1.164,0 -4.1704,0.98396 -6.68082,2.18654 -15.51816,7.43373 -32.99035,13.53315 -38.76651,13.53315 -2.26908,0 -4.56267,0.7076 -5.09705,1.57193 -0.53468,0.86449 -3.61785,1.57199 -6.85225,1.57199 -3.23434,0 -6.6319,0.75127 -7.55011,1.66947 -2.07425,2.07424 -57.08866,0.96891 -69.69778,-1.40031 -13.20676,-2.48164 -17.78973,-3.53671 -21.22152,-4.88563 -1.72919,-0.67997 -5.97349,-2.08788 -9.43179,-3.12942 -6.42369,-1.93458 -10.47901,-3.49159 -17.10431,-6.56719 -5.17799,-2.40363 -9.38549,-0.68179 -14.39962,5.89178 -2.35049,3.08166 -7.36501,8.69435 -11.14328,12.47267 -3.778333,3.77831 -6.884656,7.41884 -6.902916,8.08997 -0.01947,0.67108 -5.676835,7.23309 -12.574585,14.58205 -6.897797,7.34897 -12.541929,14.17023 -12.542529,15.15848 -9.98e-4,1.51262 -3.333396,3.70513 -5.631549,3.70513 -0.361807,0 -0.657688,-2.78783 -0.657688,-6.19513 z m 31.439318,-153.7616 c 0,-0.65323 -1.945284,-2.06431 -4.32289,-3.1351 -4.495661,-2.02468 -11.396787,-11.2357 -11.396787,-15.21142 0,-1.25792 -0.707596,-2.72441 -1.57195,-3.25874 -0.864458,-0.53472 -1.571991,-5.52773 -1.571991,-11.09649 0,-5.70205 0.687129,-10.12504 1.571991,-10.12504 0.864426,0 1.57195,-1.41476 1.57195,-3.14386 0,-1.72919 0.707583,-3.14394 1.571995,-3.14394 0.864448,0 1.57196,-1.15561 1.57196,-2.56805 0,-2.86983 7.564254,-10.00276 10.610748,-10.0058 1.080739,-0.001 1.964974,-0.70939 1.964974,-1.57384 0,-0.8894 4.504005,-1.57197 10.368035,-1.57197 8.16754,0 11.42056,0.73968 15.32677,3.48518 11.43708,8.03875 15.17628,15.87891 15.17628,31.82137 0,6.51883 -0.54097,11.85242 -1.20112,11.85242 -0.66042,0 -2.42702,2.82954 -3.92529,6.2878 -1.49828,3.4584 -3.63107,6.28795 -4.73972,6.28795 -1.10856,0 -3.03522,1.41475 -4.28157,3.14383 -1.93184,2.68036 -4.06938,3.14396 -14.49471,3.14396 -6.725738,0 -12.228675,-0.53473 -12.228675,-1.18826 z M 194.84706,164.09681 c 0,-0.86447 -1.07067,-1.57199 -2.37931,-1.57199 -6.13685,0 -20.00405,-12.67843 -25.52313,-23.3351 -2.84726,-5.49776 -3.53688,-9.41053 -3.53688,-20.06726 0,-12.68041 2.58921,-25.764123 5.09861,-25.764123 0.65413,0 1.18921,-1.116528 1.18921,-2.481154 0,-2.970152 11.33731,-14.205525 15.74657,-15.604963 1.71439,-0.544513 3.11704,-1.649063 3.11704,-2.455349 0,-0.806504 1.41477,-1.466071 3.14394,-1.466071 1.7292,0 3.14395,-0.707597 3.14395,-1.571978 0,-0.904825 4.88501,-1.57187 11.5112,-1.57187 9.5682,0 13.14758,0.792278 21.20671,4.69658 9.62579,4.662812 20.72889,14.531513 20.72889,18.424352 0,1.116733 0.70763,2.030453 1.57198,2.030453 0.86446,0 1.57197,1.273307 1.57197,2.829549 0,1.556225 0.81635,3.646126 1.81455,4.644184 2.21656,2.21648 2.27542,28.55463 0.0713,32.81358 -0.83683,1.61794 -2.48777,5.00376 -3.66938,7.52397 -2.69586,5.74996 -15.00719,18.21124 -17.99214,18.21124 -1.22857,0 -2.23386,0.53471 -2.23386,1.18921 0,0.65415 -2.81841,2.06893 -6.26316,3.14394 -7.51573,2.34572 -28.32003,2.62678 -28.32003,0.38321 z m 123.4846,-1.83692 c -3.41141,-1.79838 -7.18036,-4.24764 -8.37541,-5.4427 -1.19514,-1.195 -3.53245,-2.90041 -5.19428,-3.78984 -1.66171,-0.88939 -3.02132,-2.49691 -3.02132,-3.57254 0,-1.07565 -1.41476,-2.97529 -3.14392,-4.22163 -1.72913,-1.2463 -3.14391,-3.38314 -3.14391,-4.74853 0,-1.36539 -0.88225,-3.36508 -1.96129,-4.44385 -1.32672,-1.32665 -1.95238,-7.4052 -1.93336,-18.78492 0.0355,-19.148428 1.75,-23.560546 13.78664,-35.403521 9.63988,-9.484718 15.93785,-12.387582 28.78064,-13.265691 10.20076,-0.6978 12.09608,-0.318155 21.98295,4.400561 5.95079,2.840023 11.57171,5.932635 12.49096,6.872504 2.82786,2.891495 10.98422,15.611651 12.98665,20.253437 3.7306,8.64769 1.21409,40.40408 -3.20179,40.40408 -0.6541,0 -1.18919,1.0067 -1.18919,2.23698 0,3.26364 -12.34536,14.83605 -18.80969,17.63189 -3.05567,1.32167 -6.78413,3.05091 -8.28543,3.84286 -5.2822,2.7862 -25.07516,1.5595 -31.76825,-1.96909 z M 22.063496,161.05166 c -4.926075,-4.30071 -7.015209,-38.04778 -3.703982,-59.83353 3.85699,-25.376883 5.440731,-29.376023 11.931127,-30.127379 11.234601,-1.30052 10.503833,-4.498294 10.503833,45.962289 0,25.00945 -0.530245,45.56766 -1.179023,45.68475 -6.639052,1.19972 -15.1871,0.37877 -17.551955,-1.68613 z M 131.96842,104.36208 c 0,-0.86445 -2.82954,-1.57196 -6.28784,-1.57196 -3.45832,0 -6.28786,-0.70761 -6.28786,-1.57199 0,-0.86445 1.07067,-1.571943 2.3793,-1.571943 2.78892,0 7.96013,-2.794539 12.39863,-6.700363 2.55399,-2.247406 3.52733,-2.391541 5.15548,-0.763752 2.95599,2.955993 -0.55879,13.751548 -4.47753,13.751548 -1.5841,0 -2.88018,-0.70761 -2.88018,-1.57198 z M 89.918405,87.989487 c -2.809974,-0.862715 -5.108962,-2.13024 -5.108962,-2.816024 0,-0.686208 -0.979689,-1.246958 -2.17708,-1.246958 -5.804455,0 -9.307913,-13.751543 -5.289709,-20.762926 3.112289,-5.430744 8.676837,-10.676292 11.325273,-10.676292 1.33619,0 2.429414,-0.59534 2.429414,-1.323152 0,-1.911353 11.145059,-4.964764 18.121899,-4.964764 9.11473,0 18.99023,6.446627 20.26221,13.226821 0.56236,2.996736 0.53384,7.393236 -0.0625,9.770052 -1.267,5.048601 -10.40548,14.730261 -13.90367,14.730261 -1.32574,0 -2.41039,0.707615 -2.41039,1.571989 0,0.86443 -2.42977,1.571963 -5.39948,1.571963 -2.96982,0 -7.03723,0.559673 -9.038846,1.244033 -2.001593,0.684427 -5.938251,0.53827 -8.748102,-0.32531 z M 270.30137,68.813925 c 0,-2.60898 -5.24984,-12.984055 -9.4318,-18.639637 -4.0725,-5.507582 -18.71151,-19.093714 -22.40331,-20.792073 -3.33721,-1.535166 -5.11929,-2.276267 -15.79082,-6.566577 -5.44757,-2.190109 -25.71909,-2.336799 -27.04244,-0.195944 -0.5347,0.864468 -2.34454,1.571973 -4.02267,1.571973 -1.67809,0 -3.05116,0.707617 -3.05116,1.571972 0,0.864471 -1.41477,1.571903 -3.14392,1.571903 -1.72916,0 -3.14391,0.707594 -3.14391,1.57197 0,0.864447 -1.06986,1.571974 -2.37741,1.571974 -2.9628,0 -25.91796,23.125724 -25.91796,26.110523 0,1.201678 -0.5935,2.184825 -1.31967,2.184825 -1.55735,0 -4.9682,-7.032744 -4.9682,-10.243902 0,-6.055561 -12.06648,-21.188719 -16.89864,-21.193434 -1.08075,-0.0011 -1.96496,-0.537399 -1.96496,-1.191165 0,-2.472166 -13.00014,-5.098614 -25.23647,-5.098614 -11.735825,0 -13.274252,0.386774 -20.067237,5.051454 C 74.76,32.114368 70.106079,36.567403 68.670555,40.30844 c -0.579264,1.51076 -2.13724,2.746751 -3.461278,2.746751 -1.89425,0 -2.4073,-2.010012 -2.4073,-9.431759 0,-7.526382 -0.499053,-9.431765 -2.470215,-9.431765 -1.358625,0 -3.558158,-1.087864 -4.887751,-2.417533 -2.175374,-2.175397 -2.085405,-2.705582 0.898241,-5.293242 1.823741,-1.581686 3.315776,-3.541233 3.315776,-4.354536 0,-0.813659 4.363982,-5.3283524 9.697713,-10.0334253 5.333689,-4.7050476 10.462113,-9.2852412 11.396705,-10.1782926 0.934532,-0.8930732 4.174899,-3.3496541 7.200952,-5.4591911 3.026056,-2.109444 6.873229,-5.092551 8.549222,-6.629039 1.676048,-1.536602 3.91617,-2.79372 4.97793,-2.79372 1.06173,0 2.16632,-0.530257 2.45453,-1.17895 0.80564,-1.812506 19.6808,-11.396763 22.44476,-11.396763 1.34455,0 2.44466,-0.707596 2.44466,-1.571973 0,-0.864448 1.37302,-1.571972 3.05116,-1.571972 1.67811,0 3.48839,-0.707621 4.02268,-1.571975 0.53469,-0.86447 2.69822,-1.571973 4.80867,-1.571973 2.11043,0 3.83713,-0.707621 3.83713,-1.5719 0,-0.864448 2.08038,-1.571974 4.62315,-1.571974 2.54266,0 5.01413,-0.632731 5.49206,-1.405926 0.47769,-0.773572 3.52599,-1.807628 6.77362,-2.298578 3.24758,-0.49104 10.85643,-1.746036 16.90843,-2.788978 14.48314,-2.495889 51.95785,-2.515767 66.80851,-0.03561 6.4844,1.082981 14.79611,2.35889 18.4706,2.835337 3.67447,0.475879 6.68086,1.502274 6.68086,2.279831 0,0.777131 1.63558,1.413705 3.63462,1.413705 1.99913,0 6.5629,1.414769 10.14184,3.143852 3.57892,1.729203 7.25576,3.143972 8.17066,3.143972 2.27763,0 27.44169,12.991698 28.09377,14.504158 0.28785,0.668384 1.56452,1.2155 2.83622,1.2155 1.27163,0 4.5728,2.1189 7.33578,4.708607 2.76303,2.589711 5.6544,4.711912 6.4255,4.715921 0.77086,0.0046 3.42976,2.129416 5.9085,4.7231573 2.47871,2.5937185 5.10541,4.7159181 5.83707,4.7159181 2.3094,0 23.70707,23.8067826 27.02773,30.0708136 1.08654,2.049553 3.27923,4.870461 4.87269,6.268723 1.59335,1.398287 2.8971,3.697306 2.8971,5.108939 0,1.411563 0.7076,2.566547 1.57196,2.566547 0.86443,0 1.57196,1.038863 1.57196,2.308549 0,3.477617 -3.41121,1.514933 -12.36224,-7.11279 -4.43458,-4.27432 -9.33848,-7.771557 -10.89762,-7.771557 -1.55914,0 -3.50676,-0.584606 -4.32805,-1.298546 -0.82171,-0.713844 -4.45989,-2.229062 -8.08555,-3.366298 -13.99595,-4.389839 -35.66624,0.877815 -48.27815,11.736377 -2.51209,2.162756 -5.16481,3.932301 -5.89489,3.932301 -0.72988,0 -1.32745,0.705818 -1.32745,1.568309 0,0.862679 -2.52133,4.222659 -5.60297,7.466772 -3.08169,3.244198 -7.5028,9.95862 -9.82482,14.920967 -2.76692,5.913257 -5.1698,9.02805 -6.97275,9.038856 -1.513,0.007 -2.75091,-1.12533 -2.75091,-2.520576 z"
             id="path6497"
             inkscape:connector-curvature="0"
             sodipodi:nodetypes="ccscccscscsscccssscscsssccsscccscsccccccssssscscccsccssccsscscsscccccscccsccscscssssscsscsscscsscscssscsssscssscccssccccccscscccccccssccccccscccsssccscccsscsssccsssccccccscsssssssscssccsssccsscccscssscssscccccsscscscccsccssscscccssccccc" />
        </g>
      </g>
    </g>
  </g>
</svg>
