<?xml version="1.0" encoding="UTF-8" standalone="no"?>
<!-- Created with Inkscape (http://www.inkscape.org/) -->

<svg
   xmlns:dc="http://purl.org/dc/elements/1.1/"
   xmlns:cc="http://creativecommons.org/ns#"
   xmlns:rdf="http://www.w3.org/1999/02/22-rdf-syntax-ns#"
   xmlns:svg="http://www.w3.org/2000/svg"
   xmlns="http://www.w3.org/2000/svg"
   xmlns:sodipodi="http://sodipodi.sourceforge.net/DTD/sodipodi-0.dtd"
   xmlns:inkscape="http://www.inkscape.org/namespaces/inkscape"
   width="210mm"
   height="297mm"
   viewBox="0 0 210 297"
   version="1.1"
   id="svg8"
   inkscape:version="0.92.2 5c3e80d, 2017-08-06"
   sodipodi:docname="cat2.svg">
  <defs
     id="defs2">
    <clipPath
       id="clipPath45"
       clipPathUnits="userSpaceOnUse">
      <path
         inkscape:connector-curvature="0"
         id="path43"
         d="M 0,864 H 864 V 0 H 0 Z" />
    </clipPath>
    <clipPath
       id="clipPath3854"
       clipPathUnits="userSpaceOnUse">
      <path
         inkscape:connector-curvature="0"
         id="path3852"
         d="M 0,864 H 864 V 0 H 0 Z" />
    </clipPath>
    <clipPath
       id="clipPath4053"
       clipPathUnits="userSpaceOnUse">
      <path
         inkscape:connector-curvature="0"
         id="path4051"
         d="M 0,864 H 864 V 0 H 0 Z" />
    </clipPath>
    <clipPath
       id="clipPath4150"
       clipPathUnits="userSpaceOnUse">
      <path
         inkscape:connector-curvature="0"
         id="path4148"
         d="M 0,864 H 864 V 0 H 0 Z" />
    </clipPath>
    <clipPath
       id="clipPath4295"
       clipPathUnits="userSpaceOnUse">
      <path
         inkscape:connector-curvature="0"
         id="path4293"
         d="M 0,864 H 864 V 0 H 0 Z" />
    </clipPath>
    <clipPath
       id="clipPath4410"
       clipPathUnits="userSpaceOnUse">
      <path
         inkscape:connector-curvature="0"
         id="path4408"
         d="M 0,864 H 864 V 0 H 0 Z" />
    </clipPath>
    <clipPath
       id="clipPath4615"
       clipPathUnits="userSpaceOnUse">
      <path
         inkscape:connector-curvature="0"
         id="path4613"
         d="M 0,864 H 864 V 0 H 0 Z" />
    </clipPath>
    <clipPath
       id="clipPath4838"
       clipPathUnits="userSpaceOnUse">
      <path
         inkscape:connector-curvature="0"
         id="path4836"
         d="M 0,864 H 864 V 0 H 0 Z" />
    </clipPath>
    <clipPath
       id="clipPath5001"
       clipPathUnits="userSpaceOnUse">
      <path
         inkscape:connector-curvature="0"
         id="path4999"
         d="M 0,864 H 864 V 0 H 0 Z" />
    </clipPath>
    <inkscape:perspective
       id="perspective9"
       inkscape:persp3d-origin="372.04724 : 350.78739 : 1"
       inkscape:vp_z="744.09448 : 526.18109 : 1"
       inkscape:vp_y="0 : 1000 : 0"
       inkscape:vp_x="0 : 526.18109 : 1"
       sodipodi:type="inkscape:persp3d" />
  </defs>
  <sodipodi:namedview
     id="base"
     pagecolor="#000000"
     bordercolor="#666666"
     borderopacity="1.0"
     inkscape:pageopacity="0"
     inkscape:pageshadow="2"
     inkscape:zoom="0.91846942"
     inkscape:cx="396.85039"
     inkscape:cy="556.87007"
     inkscape:document-units="mm"
     inkscape:current-layer="g5136"
     showgrid="false"
     inkscape:window-width="2560"
     inkscape:window-height="1385"
     inkscape:window-x="2560"
     inkscape:window-y="27"
     inkscape:window-maximized="1"
     showguides="true"
     inkscape:guide-bbox="true">
    <sodipodi:guide
       position="105.43356,205.96993"
       orientation="1,0"
       id="guide3815"
       inkscape:locked="false" />
    <sodipodi:guide
       position="92.758485,149.50825"
       orientation="0,1"
       id="guide3817"
       inkscape:locked="false" />
  </sodipodi:namedview>
  <metadata
     id="metadata5">
    <rdf:RDF>
      <cc:Work
         rdf:about="">
        <dc:format>image/svg+xml</dc:format>
        <dc:type
           rdf:resource="http://purl.org/dc/dcmitype/StillImage" />
        <dc:title></dc:title>
      </cc:Work>
    </rdf:RDF>
  </metadata>
  <g
     inkscape:label="Layer 1"
     inkscape:groupmode="layer"
     id="layer1">
    <g
       transform="matrix(0.35277777,0,0,-0.35277777,-70.777455,287.43463)"
       inkscape:label="1"
       id="g37">
      <g
         id="g39">
        <g
           id="g5136"
           transform="matrix(0.75000002,0,0,-0.75000002,342.50983,505.50165)"
           style="fill:#ffeeaa">
          <path
             style="fill:#ffeeaa;stroke-width:1.07367337"
             d="m 239.69965,365.52565 c 0,-0.52653 1.08707,-2.0689 2.41579,-3.42783 6.45079,-6.59825 14.24241,-17.26323 17.91626,-24.52358 0.81669,-1.61402 2.25317,-3.78823 3.19207,-4.83153 0.93896,-1.04345 2.3884,-3.21764 3.22103,-4.83153 0.83258,-1.61402 2.40284,-3.88873 3.4894,-5.05505 1.0866,-1.16632 1.97567,-2.41691 1.97567,-2.77894 0,-0.36217 0.60382,-1.2723 1.34205,-2.02233 0.73818,-0.75016 2.52043,-2.91451 3.96061,-4.80974 1.4401,-1.89543 11.10316,-12.03296 21.47341,-22.52801 25.94558,-26.25776 28.8548,-29.64499 35.26663,-41.0606 1.19661,-2.13056 2.82513,-5.02705 3.6188,-6.43655 0.79368,-1.40955 1.68464,-2.80456 1.97993,-3.09979 1.5683,-1.56829 3.22096,-5.65995 3.22096,-7.97457 0,-1.44945 0.48332,-2.93405 1.07368,-3.29895 0.61718,-0.38104 1.0737,-6.02398 1.0737,-13.27032 0,-7.83978 0.50765,-13.69094 1.3421,-15.47454 1.94638,-4.15948 6.63303,-6.01015 16.37353,-6.46576 10.39749,-0.48635 15.37603,-2.75928 23.51182,-10.73421 6.32381,-6.1988 12.45625,-14.72923 12.45625,-17.32695 0,-0.92704 0.4833,-1.68542 1.07367,-1.68542 0.59043,0 1.07361,-1.17934 1.07361,-2.62093 0,-1.44125 0.48332,-2.91936 1.07368,-3.28434 0.59045,-0.36521 1.0737,-2.01234 1.0737,-3.66099 0,-1.64867 0.55025,-4.57528 1.22234,-6.50356 1.26729,-3.63557 -0.22767,-16.60435 -2.385,-20.68894 -0.54174,-1.02541 -0.98472,-2.80871 -0.98472,-3.96298 0,-1.15409 -0.48328,-2.39711 -1.07361,-2.76202 -0.59044,-0.36522 -1.07367,-1.56125 -1.07367,-2.65818 0,-1.09687 -0.36217,-2.15546 -0.80532,-2.35243 -0.72396,-0.322 -3.96631,-5.96632 -7.13897,-12.4283 -0.65008,-1.32405 -1.54433,-2.41111 -1.98721,-2.41562 -0.44313,0 -0.80524,-0.53748 -0.80524,-1.184709 0,-0.647103 -0.90922,-2.458895 -2.02052,-4.026405 -2.99448,-4.223755 -7.64907,-12.244547 -8.35179,-14.391839 -0.33844,-1.033513 -1.04167,-1.878983 -1.56332,-1.878983 -0.52163,0 -0.94846,-0.731348 -0.94846,-1.625165 0,-0.893687 -0.5588,-2.705527 -1.24132,-4.02629 -2.64887,-5.123999 -3.05336,-6.194038 -3.05336,-8.077031 0,-1.070826 -0.49303,-2.439906 -1.0952,-3.042397 -1.44879,-1.448686 -1.58106,-23.138504 -0.15704,-25.748835 0.61142,-1.120673 1.74434,-3.607993 2.51769,-5.527157 0.7734,-1.919212 1.77131,-3.489412 2.21772,-3.489412 0.44617,0 0.81152,-0.621479 0.81152,-1.381011 0,-0.759599 1.91896,-3.537744 4.26428,-6.173586 2.34524,-2.635953 4.27785,-5.155049 4.29465,-5.597939 0.0906,-2.39705 3.44578,-0.185643 6.10554,4.024343 1.67818,2.656294 3.41356,4.830499 3.85646,4.83153 0.44314,0.0011 0.80519,0.531386 0.80519,1.178249 0,0.646989 0.90927,2.45883 2.02056,4.026292 4.08917,5.768009 13.11841,22.910664 16.34582,31.033963 2.33295,5.872096 3.42069,8.444693 4.30611,10.185204 0.52163,1.025411 0.94836,2.808712 0.94836,3.962981 0,1.154092 0.48328,2.397229 1.07374,2.762025 0.59041,0.365215 1.0736,1.8144 1.0736,3.221165 0,1.406458 0.48332,2.855933 1.07369,3.220858 0.59044,0.365216 1.07365,2.055994 1.07365,3.757964 0,1.701795 0.4322,3.36128 0.96029,3.687731 0.52836,0.326256 1.2339,2.408373 1.5685,4.626512 0.33479,2.218155 1.12652,6.931972 1.76006,10.474952 4.90664,27.44211 4.89367,56.61633 -0.0365,82.13599 -0.62744,3.24789 -1.40884,7.7201 -1.73643,9.93826 -0.32748,2.21822 -1.02792,4.30008 -1.55597,4.62652 -0.52833,0.32626 -0.97275,1.65206 -0.98797,2.94578 -0.0305,2.55769 -4.5055,16.36974 -5.68692,17.55124 -0.39992,0.39989 -0.7274,1.37679 -0.7274,2.17061 0,0.79379 -1.01547,3.73301 -2.25664,6.53154 -5.59803,12.62291 -6.66179,14.91437 -8.094,17.43558 -0.83867,1.47621 -2.3489,4.49588 -3.3561,6.71033 -1.00715,2.21451 -2.20046,4.02627 -2.65162,4.02627 -0.45103,0 -0.8204,0.50523 -0.8204,1.12221 0,1.01933 -10.24996,16.93437 -11.72393,18.20391 -0.34268,0.29523 -2.30043,2.71114 -4.3503,5.36835 -6.79712,8.81173 -19.17698,21.89342 -27.97173,29.55783 -12.06351,10.51293 -32.01241,23.98888 -45.76128,30.91278 -7.36084,3.70679 -21.83206,9.60543 -31.66609,12.90742 -12.92508,4.3399 -37.43043,9.58193 -37.43043,8.00686 z m -83.7465,-3.10654 C 116.63907,352.34583 81.913176,333.16549 53.457028,305.80678 43.21035,295.95515 34.232932,285.66591 30.572098,279.57767 c -0.976468,-1.62388 -2.154347,-2.95255 -2.617578,-2.95255 -0.463214,0 -0.842184,-0.68447 -0.842184,-1.52111 0,-0.83649 -0.390178,-1.68202 -0.867759,-1.87881 -1.254588,-0.5174 -7.721622,-10.19629 -7.721622,-11.55655 0,-0.63182 -0.365215,-1.14862 -0.811584,-1.14862 -0.44616,0 -1.494763,-1.57023 -2.32978,-3.48946 -0.834953,-1.91927 -1.798456,-3.73108 -2.140964,-4.02627 -1.214469,-1.04665 -5.4544113,-9.88903 -5.4544113,-11.37504 0,-0.8299 -0.483314,-1.50909 -1.073678,-1.50909 -0.590445,0 -1.073679,-0.73114 -1.073679,-1.62515 0,-0.89367 -0.426705,-2.46394 -0.948413,-3.48934 -1.023092,-2.0112 -2.814625,-6.33478 -6.4448907,-15.55367 -0.523481,-1.32866 -1.539873,-4.58994 -2.259175,-7.24728 -0.719351,-2.65732 -1.740688,-5.94148 -2.269708,-7.29782 -0.528955,-1.35644 -0.96186,-3.55473 -0.96186,-4.88536 0,-1.33028 -0.433389,-2.87778 -0.963747,-3.43877 -0.53018,-0.56121 -1.263105,-3.19426 -1.629061,-5.85145 -0.365828,-2.65752 -1.221524,-8.21376 -1.901192,-12.34731 -1.616098,-9.82862 -1.657311,-52.50001 -0.06087,-62.80987 1.506583,-9.7288 2.938053,-17.154342 4.553476,-23.620828 0.663852,-2.65739 1.474501,-6.166048 1.801564,-7.797173 0.32687,-1.631301 1.021997,-3.230038 1.544448,-3.552961 0.522254,-0.322602 0.949862,-1.737886 0.949862,-3.144456 0,-1.406636 0.483313,-2.856128 1.073679,-3.221038 0.590445,-0.365229 1.07369301,-1.607932 1.07369301,-2.762217 0,-1.154075 0.451653,-2.937376 1.0033637,-3.962789 0.5521,-1.025411 1.63605299,-3.434572 2.40940499,-5.353849 0.773351,-1.91923 1.736805,-3.489477 2.14098,-3.489477 0.972393,0 3.6661163,2.832565 24.7404123,26.016001 2.164092,2.380672 4.621408,6.954053 6.057386,11.273602 7.67445,23.085855 19.357155,33.272335 45.247585,39.452615 9.400902,2.24415 18.906174,6.55384 19.913564,9.02855 0.38836,0.95358 1.14308,6.08211 1.67771,11.39676 1.46256,14.53997 2.15959,18.7428 3.21665,19.39617 0.52834,0.32626 0.96028,1.74434 0.96028,3.15096 0,1.40665 0.4833,2.85608 1.07368,3.22104 0.59043,0.36525 1.07368,1.60794 1.07368,2.76203 0,1.15423 0.42669,2.93756 0.94841,3.96298 0.52165,1.02543 1.42666,3.07221 2.01132,4.54854 1.8732,4.73038 9.5272,21.61465 15.81838,34.89429 2.51781,5.31483 6.38638,13.52829 8.59693,18.25254 2.21047,4.7241 6.18788,13.17927 8.8387,18.7892 7.04986,14.92007 9.77991,21.09154 12.11147,27.37882 0.43827,1.18098 1.33968,3.49866 2.00372,5.15043 0.664,1.65158 1.20734,4.15977 1.20734,5.57335 0,1.41368 0.42062,2.83026 0.93494,3.14816 0.51436,0.31775 1.26935,3.12439 1.67807,6.2369 0.40843,3.11264 1.21922,8.79979 1.80102,12.63812 0.5819,3.83832 1.31948,14.34694 1.63926,23.35241 0.47173,13.28364 0.30983,16.35604 -0.85697,16.28147 -0.79112,-0.0485 -5.06211,-1.02041 -9.49098,-2.15519 z m 42.62874,-16.27358 c -0.25628,-5.46238 -1.04592,-12.1057 -1.75538,-14.76304 -3.13515,-11.74387 -3.77878,-20.98803 -3.77513,-54.22054 0.001,-22.0268 0.48881,-37.6328 1.35423,-43.48377 0.74274,-5.01951 1.62572,-10.94103 1.96221,-13.15917 0.33659,-2.21817 1.04384,-4.30021 1.57201,-4.62654 0.52836,-0.32625 0.96021,-1.74434 0.96021,-3.1509 0,-1.40665 0.48329,-2.85614 1.0737,-3.22104 0.59042,-0.36525 1.07367,-1.60137 1.07367,-2.74754 0,-1.14619 0.48329,-2.08399 1.07367,-2.08399 0.59044,0 1.07369,-0.6378 1.07369,-1.41723 0,-0.77951 1.71195,-3.41724 3.8044,-5.86183 6.57034,-7.67603 25.82713,-15.83902 32.4248,-13.74504 2.22041,0.70475 8.86507,12.50484 8.86507,15.74322 0,1.06309 0.42059,2.19301 0.93493,2.51093 2.19175,1.35448 3.33244,20.54142 1.85623,31.2223 -0.97562,7.05937 -3.61783,17.55165 -7.30015,28.98918 -2.03026,6.30628 -2.53505,7.68534 -5.01042,13.68935 -0.66951,1.6239 -1.6393,4.03968 -2.15498,5.36834 -0.51557,1.32867 -1.9149,4.58994 -3.10934,7.24725 -1.1944,2.65734 -2.94664,6.6434 -3.89382,8.85784 -0.94727,2.21443 -2.44697,5.7173 -3.33276,7.78407 -0.88577,2.06694 -2.38402,5.56981 -3.32939,7.78424 -0.94542,2.21445 -2.87803,6.41609 -4.29471,9.33693 -1.41668,2.92095 -2.57577,5.94072 -2.57577,6.71051 0,0.76982 -0.4833,1.39972 -1.07369,1.39972 -0.59042,0 -1.07366,0.71003 -1.07366,1.57779 0,0.86788 -0.96631,3.28367 -2.14737,5.36847 -1.18104,2.08465 -3.08255,5.44095 -4.22562,7.4581 -3.58449,6.32547 -7.01914,11.33674 -7.77952,11.35055 -0.40233,0.0182 -0.94103,-4.45596 -1.19711,-9.91816 z M 355.25295,163.08421 c -0.30131,-1.03351 -0.88013,-6.84163 -1.28596,-12.9073 -0.40598,-6.06547 -1.15803,-11.2879 -1.6716,-11.60533 -0.51374,-0.31714 -0.93368,-2.21104 -0.93368,-4.20823 0,-1.99708 -0.48331,-3.92969 -1.07367,-4.2946 -0.59045,-0.36461 -1.07368,-1.60794 -1.07368,-2.76221 0,-1.15409 -0.43218,-2.93739 -0.96091,-3.96298 -0.52833,-1.02523 -2.5797,-5.24623 -4.55839,-9.3799 -1.97861,-4.13371 -3.96202,-7.67682 -4.40752,-7.87367 -0.44556,-0.19722 -0.80992,-0.79525 -0.80992,-1.32975 0,-2.1613 -16.80448,-20.538044 -26.93417,-29.454294 -16.244,-14.298284 -34.59265,-24.909081 -52.18765,-30.179475 -8.16347,-2.445318 -11.51124,-2.844757 -24.48768,-2.921256 -12.67581,-0.07489 -16.46159,0.307994 -24.15765,2.442017 -17.10937,4.744916 -34.55314,15.086371 -47.51467,28.169333 -3.40713,3.438889 -6.43054,6.252659 -6.71874,6.252659 -0.28793,0 -0.52409,-2.145536 -0.52409,-4.768237 0,-2.622376 -0.48332,-5.066663 -1.07367,-5.431637 -0.59045,-0.365214 -1.0737,-2.332646 -1.0737,-4.372695 0,-2.039872 -0.42669,-4.54787 -0.9484,-5.573476 -0.52166,-1.025217 -1.42673,-3.072209 -2.01131,-4.548419 -2.43255,-6.142839 -6.02817,-12.884095 -6.87212,-12.884095 -0.49793,0 -0.9049,-0.724714 -0.9049,-1.610495 0,-0.88578 -0.4413,-1.610558 -0.98128,-1.610558 -0.53991,0 -1.24283,-5.435407 -1.56252,-12.078793 -0.31957,-6.64337 -1.05305,-15.460896 -1.62966,-19.594545 -0.57645,-4.133597 -1.38539,-10.062368 -1.79725,-13.174937 -0.41208,-3.112455 -1.16955,-5.919156 -1.68377,-6.236956 -0.51435,-0.31774 -0.9349,-1.640918 -0.9349,-2.940374 0,-3.370653 -3.63179,-5.45855 -6.44202,-3.703546 -1.18105,0.73755 -2.14735,1.956159 -2.14735,2.707849 0,1.45545 -1.65962,4.619763 -4.29474,8.188798 -2.69359,3.648225 -15.28973,16.078045 -20.01741,19.753115 -4.232146,3.289821 -4.905049,3.458618 -13.79252,3.458618 -10.935041,0 -18.208362,1.860108 -29.623625,7.576144 -7.657153,3.834175 -20.312928,14.240583 -20.312928,16.702633 0,2.173287 -4.900202,5.504514 -9.87009,6.709658 -6.200914,1.503605 -15.54094,1.59455 -16.427557,0.160085 -0.59104,-0.95595 2.23331,-8.351622 3.694542,-9.67493 0.326258,-0.295205 1.196755,-1.623941 1.934867,-2.952595 3.332242,-5.998102 4.141507,-7.268876 5.905208,-9.273978 1.033449,-1.174915 1.878918,-2.769755 1.878918,-3.544201 0,-0.774447 0.483315,-1.408038 1.073679,-1.408038 0.590445,0 1.073695,-0.477821 1.073695,-1.06139 0,-0.943774 1.483634,-3.042818 4.836329,-6.842541 0.593472,-0.672243 3.250557,-3.875627 5.905208,-7.118647 5.675309,-6.933052 21.323863,-22.633592 27.661492,-27.753403 2.442097,-1.972843 5.55059,-4.554941 6.907799,-5.73812 6.365509,-5.5493 29.631223,-19.764324 40.661063,-24.843294 28.88173,-13.29959 56.18622,-19.73844 88.28414,-20.81876 58.63155,-1.97333 113.75751,18.64821 158.27279,59.206766 8.4056,7.658507 8.43263,7.804291 2.62609,14.169075 -8.83431,9.683624 -15.20027,18.588376 -15.20027,21.262258 0,0.926977 -0.48329,1.685415 -1.07368,1.685415 -0.59043,0 -1.07366,0.731283 -1.07366,1.625101 0,0.893751 -0.43583,2.463999 -0.96905,3.489476 -5.23134,10.064802 -5.23134,37.684404 0,47.749334 0.53322,1.025412 0.96905,2.60223 0.96905,3.503955 0,0.901725 0.43217,2.478624 0.96088,3.504036 0.52835,1.025412 2.57971,5.246348 4.5584,9.380076 1.97863,4.133535 3.96201,7.676819 4.40752,7.873606 0.44556,0.197223 0.80992,0.834583 0.80992,1.417104 0,0.582524 1.44951,3.165784 3.22105,5.740614 1.77156,2.57492 3.22105,5.19858 3.22105,5.8304 0,0.63166 0.42668,1.14862 0.9484,1.14862 0.52165,0 1.21667,0.84535 1.54438,1.8788 0.58436,1.84307 3.96379,7.8004 5.02461,8.85782 0.29645,0.29521 1.14182,1.86547 1.87896,3.48948 0.73717,1.62388 1.94426,4.23451 2.68244,5.80143 0.73816,1.56683 1.32278,6.34876 1.29921,10.62643 -0.0726,13.16739 -6.3571,21.94235 -15.72143,21.95203 -2.84334,0 -4.1079,-0.52408 -4.50212,-1.87508 z"
             id="path5434-7"
             inkscape:connector-curvature="0"
             sodipodi:nodetypes="cccccssccscccscscscssscsccscscccsccsscscccssccscscccscscsccccccccscccssccccscccccsscssccsssccccscccccccscsccsccccccscscccccccscccscccccccccscsssscsccccccccccssscccccccscscccscccccsscsccsssccccscsccscscccccssscccscssssssccscccscsscccccccc" />
        </g>
      </g>
    </g>
  </g>
</svg>
