<?xml version="1.0" encoding="UTF-8" standalone="no"?>
<!-- Created with Inkscape (http://www.inkscape.org/) -->

<svg
   xmlns:dc="http://purl.org/dc/elements/1.1/"
   xmlns:cc="http://creativecommons.org/ns#"
   xmlns:rdf="http://www.w3.org/1999/02/22-rdf-syntax-ns#"
   xmlns:svg="http://www.w3.org/2000/svg"
   xmlns="http://www.w3.org/2000/svg"
   xmlns:sodipodi="http://sodipodi.sourceforge.net/DTD/sodipodi-0.dtd"
   xmlns:inkscape="http://www.inkscape.org/namespaces/inkscape"
   width="210mm"
   height="297mm"
   viewBox="0 0 210 297"
   version="1.1"
   id="svg8"
   inkscape:version="0.92.2 5c3e80d, 2017-08-06"
   sodipodi:docname="cat3.svg">
  <defs
     id="defs2">
    <clipPath
       id="clipPath45"
       clipPathUnits="userSpaceOnUse">
      <path
         inkscape:connector-curvature="0"
         id="path43"
         d="M 0,864 H 864 V 0 H 0 Z" />
    </clipPath>
    <clipPath
       id="clipPath3854"
       clipPathUnits="userSpaceOnUse">
      <path
         inkscape:connector-curvature="0"
         id="path3852"
         d="M 0,864 H 864 V 0 H 0 Z" />
    </clipPath>
    <clipPath
       id="clipPath4053"
       clipPathUnits="userSpaceOnUse">
      <path
         inkscape:connector-curvature="0"
         id="path4051"
         d="M 0,864 H 864 V 0 H 0 Z" />
    </clipPath>
    <clipPath
       id="clipPath4150"
       clipPathUnits="userSpaceOnUse">
      <path
         inkscape:connector-curvature="0"
         id="path4148"
         d="M 0,864 H 864 V 0 H 0 Z" />
    </clipPath>
    <clipPath
       id="clipPath4295"
       clipPathUnits="userSpaceOnUse">
      <path
         inkscape:connector-curvature="0"
         id="path4293"
         d="M 0,864 H 864 V 0 H 0 Z" />
    </clipPath>
    <clipPath
       id="clipPath4410"
       clipPathUnits="userSpaceOnUse">
      <path
         inkscape:connector-curvature="0"
         id="path4408"
         d="M 0,864 H 864 V 0 H 0 Z" />
    </clipPath>
    <clipPath
       id="clipPath4615"
       clipPathUnits="userSpaceOnUse">
      <path
         inkscape:connector-curvature="0"
         id="path4613"
         d="M 0,864 H 864 V 0 H 0 Z" />
    </clipPath>
    <clipPath
       id="clipPath4838"
       clipPathUnits="userSpaceOnUse">
      <path
         inkscape:connector-curvature="0"
         id="path4836"
         d="M 0,864 H 864 V 0 H 0 Z" />
    </clipPath>
    <clipPath
       id="clipPath5001"
       clipPathUnits="userSpaceOnUse">
      <path
         inkscape:connector-curvature="0"
         id="path4999"
         d="M 0,864 H 864 V 0 H 0 Z" />
    </clipPath>
    <inkscape:perspective
       id="perspective9"
       inkscape:persp3d-origin="372.04724 : 350.78739 : 1"
       inkscape:vp_z="744.09448 : 526.18109 : 1"
       inkscape:vp_y="0 : 1000 : 0"
       inkscape:vp_x="0 : 526.18109 : 1"
       sodipodi:type="inkscape:persp3d" />
  </defs>
  <sodipodi:namedview
     id="base"
     pagecolor="#000000"
     bordercolor="#666666"
     borderopacity="1.0"
     inkscape:pageopacity="0"
     inkscape:pageshadow="2"
     inkscape:zoom="0.91846942"
     inkscape:cx="396.85039"
     inkscape:cy="556.87007"
     inkscape:document-units="mm"
     inkscape:current-layer="g5136"
     showgrid="false"
     inkscape:window-width="2560"
     inkscape:window-height="1385"
     inkscape:window-x="2560"
     inkscape:window-y="27"
     inkscape:window-maximized="1"
     showguides="true"
     inkscape:guide-bbox="true">
    <sodipodi:guide
       position="105.43356,205.96993"
       orientation="1,0"
       id="guide3815"
       inkscape:locked="false" />
    <sodipodi:guide
       position="92.758485,149.50825"
       orientation="0,1"
       id="guide3817"
       inkscape:locked="false" />
  </sodipodi:namedview>
  <metadata
     id="metadata5">
    <rdf:RDF>
      <cc:Work
         rdf:about="">
        <dc:format>image/svg+xml</dc:format>
        <dc:type
           rdf:resource="http://purl.org/dc/dcmitype/StillImage" />
        <dc:title></dc:title>
      </cc:Work>
    </rdf:RDF>
  </metadata>
  <g
     inkscape:label="Layer 1"
     inkscape:groupmode="layer"
     id="layer1">
    <g
       transform="matrix(0.35277777,0,0,-0.35277777,-70.777455,287.43463)"
       inkscape:label="1"
       id="g37">
      <g
         id="g39">
        <g
           id="g5136"
           transform="matrix(0.75000002,0,0,-0.75000002,342.50983,505.50165)"
           style="fill:#ffeeaa">
          <path
             style="fill:#ffeeaa;stroke-width:1.57196534"
             d="m 207.12724,376.73954 c -2.59381,-0.66039 -8.42972,-1.28369 -12.96872,-1.386 -4.53912,-0.10274 -8.25281,-0.89333 -8.25281,-1.758 0,-0.8644 -2.78782,-1.57194 -6.19513,-1.57194 -3.4073,0 -6.63225,-0.7076 -7.1666,-1.57195 -0.53473,-0.86449 -3.01017,-1.57189 -5.50188,-1.57189 -2.49168,0 -4.9675,-0.70763 -5.50186,-1.57202 -0.53472,-0.86442 -3.052,-1.57195 -5.59467,-1.57195 -2.54274,0 -4.62312,-0.70761 -4.62312,-1.57198 0,-0.86447 -2.13175,-1.57196 -4.73723,-1.57196 -2.60549,0 -5.96557,-0.64525 -7.46688,-1.43332 -1.5013,-0.78872 -8.15118,-4.00295 -14.77765,-7.14363 -6.62648,-3.14057 -12.9027,-6.73989 -13.94717,-7.99843 -1.04448,-1.2585 -2.61058,-2.28824 -3.48021,-2.28824 -2.31452,0 -21.613379,-20.36911 -21.613379,-22.81195 0,-1.14261 -0.530258,-2.3133 -1.178975,-2.60148 -0.648766,-0.28786 -2.848074,-4.06089 -4.888001,-8.38384 -2.039863,-4.3229 -4.33886,-9.08808 -5.108843,-10.5894 -0.769984,-1.50129 -1.399892,-4.86136 -1.399892,-7.46683 0,-2.60543 -0.603329,-4.73724 -1.340983,-4.73724 -3.7652,0 -2.797802,-46.85412 1.298217,-62.87858 0.994457,-3.8906 2.198572,-9.01913 2.67579,-11.39674 0.477682,-2.37758 1.494792,-4.3229 2.26122,-4.3229 0.766426,0 1.393557,-1.41476 1.393557,-3.14395 0,-1.72908 0.624735,-3.14384 1.388657,-3.14384 0.763776,0 1.781241,-1.238 2.261042,-2.75105 1.383151,-4.36152 6.165107,-11.57981 11.284024,-17.03317 11.436326,-12.1835 16.505626,-17.96734 16.505626,-18.83199 0,-0.51154 2.74585,-3.5677 6.10188,-6.79218 3.35598,-3.22447 7.66514,-8.92705 9.57587,-12.67236 3.50561,-6.87156 3.51408,-7.16021 0.71743,-24.44747 -1.24858,-7.7173 -6.72086,-13.83166 -14.75105,-16.4819 -5.68545,-1.87639 -6.32628,-1.75395 -10.34959,1.97659 -5.048351,4.68107 -4.554704,9.74775 1.54372,15.84622 3.96527,3.96533 6.54565,13.226 4.44439,15.95071 -2.51175,3.2569 -8.456983,5.50191 -14.570288,5.50191 -7.833236,0 -20.336493,-6.02282 -20.396108,-9.82481 -0.02662,-1.51307 -0.750392,-2.75094 -1.615023,-2.75094 -0.864444,0 -1.571978,-1.41475 -1.571978,-3.14393 0,-1.72918 -0.707612,-3.14395 -1.571963,-3.14395 -2.567713,0 -1.813222,-16.97563 0.999009,-22.47856 7.174009,-14.037709 21.710444,-21.130727 39.563081,-19.304755 5.78973,0.592642 11.19865,1.747097 12.02006,2.566354 0.82168,0.818992 3.12033,1.489842 5.10885,1.489842 1.98851,0 3.61557,0.534676 3.61557,1.188197 0,0.653228 1.94531,2.075934 4.3229,3.160872 2.37753,1.085032 6.05665,4.794638 8.17582,8.24363 2.11906,3.44894 4.41808,6.2709 5.10885,6.2709 0.69067,0 1.25596,1.41476 1.25596,3.14385 0,1.72916 0.63007,3.14394 1.39996,3.14394 3.00395,0 6.1806,30.77538 3.45775,33.49825 -0.94261,0.94263 -1.71376,3.29903 -1.71376,5.23658 0,1.93744 -0.70759,3.95994 -1.57197,4.49417 -0.86447,0.53472 -1.57198,2.01021 -1.57198,3.27961 0,1.26942 -9.08484,11.4075 -20.18857,22.52926 -26.21924,26.2616 -29.672177,32.78147 -31.011185,58.55562 -0.556094,10.70226 -0.211277,21.89217 0.864468,28.03104 0.984412,5.61983 2.141975,13.04739 2.572347,16.50564 0.79404,6.38192 1.6438,9.03713 5.45427,17.04627 3.27844,6.8908 17.10707,20.29745 25.41013,24.6348 4.10679,2.14529 7.46687,4.43227 7.46687,5.08222 0,0.64966 1.41476,1.18159 3.14394,1.18159 1.72909,0 3.14385,0.70762 3.14385,1.57201 0,0.86449 1.41478,1.57199 3.14397,1.57199 1.72917,0 3.14396,0.70761 3.14396,1.57197 0,0.86444 1.37304,1.57195 3.05116,1.57195 1.67813,0 3.48832,0.70762 4.02268,1.57198 0.53471,0.86448 2.69824,1.57202 4.80867,1.57202 2.11044,0 3.83714,0.54628 3.83714,1.21449 0,4.01547 34.57989,6.78857 41.36738,3.31734 9.93904,-5.08279 11.90296,-16.21818 4.13959,-23.47025 -2.63784,-2.46406 -6.17471,-4.91769 -7.85987,-5.45249 -1.68517,-0.53472 -3.06394,-1.63212 -3.06394,-2.43847 0,-0.80654 -1.41476,-1.466 -3.14385,-1.466 -1.72917,0 -3.14394,-0.62119 -3.14394,-1.38126 0,-0.7602 -2.1222,-2.26038 -4.71591,-3.33469 -2.59375,-1.07436 -4.71585,-2.57494 -4.71585,-3.33467 0,-0.7593 -0.99386,-1.38128 -2.20855,-1.38128 -3.13176,0 -22.94297,-19.50791 -22.94297,-22.59179 0,-1.40784 -0.53472,-2.5596 -1.18921,-2.5596 -4.14779,0 -7.47531,-40.78868 -3.52662,-43.22898 0.86445,-0.53474 1.57198,-2.3542 1.57198,-4.0441 0,-1.68987 0.63006,-4.30081 1.39988,-5.80209 0.76998,-1.50131 3.06802,-6.26652 5.10689,-10.58942 2.03879,-4.32288 4.94578,-9.23117 6.45991,-10.90713 1.51412,-1.67605 2.75287,-3.81894 2.75287,-4.7619 0,-0.94297 1.41477,-2.73421 3.14398,-3.98053 1.72917,-1.24631 3.14395,-2.88031 3.14395,-3.63116 0,-0.75126 3.00632,-4.37754 6.68081,-8.05933 9.80658,-9.82619 20.75384,-22.85546 21.33686,-25.39491 0.27982,-1.21751 1.11604,-2.21373 1.85902,-2.21373 0.74325,0 1.77232,-1.32822 2.28759,-2.95168 0.51511,-1.62341 2.6842,-4.9835 4.81993,-7.46688 2.13567,-2.48329 3.88391,-5.39929 3.88497,-6.48003 0.001,-1.08075 0.70939,-1.96501 1.57387,-1.96501 0.86444,0 1.57196,-2.1221 1.57196,-4.7158 0,-2.59383 0.5463,-4.71594 1.21452,-4.71594 2.22441,0 5.07365,-16.43504 5.04967,-29.127394 -0.0195,-7.352627 -1.0115,-15.127742 -2.41431,-18.817514 -1.31485,-3.45839 -2.80159,-7.525767 -3.30365,-9.038874 -0.50174,-1.512948 -1.53775,-2.750925 -2.30151,-2.750925 -0.76374,0 -1.38865,-1.021063 -1.38865,-2.269048 0,-1.247933 -2.12211,-3.522651 -4.71595,-5.054859 -2.59371,-1.532153 -4.71582,-3.340544 -4.71582,-4.018755 0,-0.678211 -1.41477,-1.233065 -3.14395,-1.233065 -1.72917,0 -3.14394,-0.588156 -3.14394,-1.306296 0,-0.718288 -1.94531,-2.305239 -4.32292,-3.526166 -2.37752,-1.220952 -5.38397,-3.28709 -6.68082,-4.59155 -6.94552,-6.985847 -7.32393,-7.027294 -17.71656,-1.937976 -5.38602,2.637576 -12.09179,5.738314 -14.90173,6.890533 -2.80985,1.152327 -5.10885,2.629737 -5.10885,3.283258 0,0.653215 -1.06115,1.188197 -2.35803,1.188197 -3.73052,0 -2.75251,-2.409203 1.965,-4.840767 2.37763,-1.225372 4.67665,-2.582846 5.10886,-3.016486 1.60782,-1.612878 7.8754,-4.718447 9.52275,-4.718447 1.78408,0 6.19693,-3.837939 6.19693,-5.389552 0,-0.493748 -5.70079,-0.898345 -12.6685,-0.898345 -8.04532,0 -12.31396,-0.573941 -11.69699,-1.571872 0.53472,-0.86447 6.15947,-1.571964 12.50031,-1.571964 9.31163,0 11.72222,-0.504435 12.53456,-2.620845 1.60271,-4.176758 -1.16623,-5.520203 -14.29421,-6.935255 -6.77193,-0.729881 -14.43476,-1.946655 -17.02848,-2.703807 -4.45783,-1.301292 -4.52555,-1.438359 -1.23831,-2.505315 1.91259,-0.620259 4.87251,-0.382317 6.57743,0.530271 3.96021,2.119338 18.52836,2.164525 19.82815,0.06256 1.19457,-1.932932 -8.69124,-11.8487755 -13.258,-13.2981146 -5.5097,-1.7487745 -3.84397,-6.3190292 3.72137,-10.2099413 6.32166,-3.2513535 7.21705,-3.3600696 9.43177,-1.1454586 1.34587,1.3458806 2.44692,3.0725737 2.44692,3.83722 0,2.02744515 8.49236,9.8381261 10.69684,9.8381261 1.0334,0 1.87898,0.5614554 1.87898,1.2472273 0,0.6862229 2.65263,1.9358461 5.89478,2.7775041 9.43579,2.44944 17.23976,-0.363629 26.7235,-9.6312092 10.45557,-10.2178876 10.74716,-13.2570398 1.27173,-13.2570398 -3.83962,0 -7.41829,-0.707626 -7.95264,-1.571951 -0.53472,-0.864498 -3.05189,-1.571991 -5.59466,-1.571991 -4.30026,0 -4.62316,0.41438 -4.62316,5.938097 0,5.9530575 -3.50042,12.9255142 -6.48921,12.9255142 -3.43519,0 -6.08649,-4.79339745 -6.08649,-11.0037498 0,-6.2714994 -2.65584,-11.0038294 -6.17551,-11.0038294 -2.2665,0 -2.12888,-2.449346 0.28074,-4.996547 1.08064,-1.142518 2.96863,-4.022601 4.19544,-6.400194 1.22681,-2.377512 2.8185,-4.322901 3.53698,-4.322901 0.71829,0 1.30631,-1.41476 1.30631,-3.143849 0,-1.729208 0.70759,-3.143968 1.57198,-3.143968 0.86445,0 1.57197,-1.096239 1.57197,-2.435996 0,-1.339825 1.18046,-4.699895 2.62322,-7.466844 2.52049,-4.833832 4.0618,-10.344253 6.6835,-23.894405 1.97052,-10.184466 3.47164,-13.361724 6.31278,-13.361724 4.22647,0 9.07154,6.831173 10.17126,14.340808 0.55432,3.784432 1.411,9.453135 1.90419,12.597076 0.49284,3.144048 3.0036,8.272591 5.57881,11.396754 4.24617,5.151356 5.4182,5.680375 12.58292,5.680375 6.65187,0 8.55954,-0.704924 12.06838,-4.461938 5.10125,-5.461652 8.09745,-16.052352 8.09745,-28.622529 0,-8.365633 0.40905,-9.61473 3.53695,-10.798484 4.3986,-1.664756 9.03873,2.610666 9.03873,8.328108 0,5.482163 3.46567,19.8352 4.78948,19.8352 0.60781,0 1.51279,2.036897 2.01072,4.526439 0.49816,2.489556 2.00106,5.622198 3.34041,6.961542 1.33928,1.33928 2.43522,3.546783 2.43522,4.905401 0,1.358632 0.7076,2.470217 1.57185,2.470217 0.86448,0 1.58271,1.591596 1.59576,3.536866 0.004,1.945323 1.01912,6.366506 2.23596,9.824803 2.22004,6.309725 1.31709,9.428737 -2.73125,9.434607 -1.22522,0.0013 -1.93415,3.077112 -2.02264,8.7734595 -0.0713,4.8239164 -0.60603,9.5307317 -1.18005,10.4596102 -1.56411,2.530803 -8.87424,-1.33032135 -8.88917,-4.6952488 -0.003,-1.5129611 -0.7192,-2.7508975 -1.58427,-2.7508975 -0.86447,0 -1.57202,-1.3281783 -1.57202,-2.9514659 0,-4.5121035 -3.86594,-7.0457815 -7.65592,-5.0173905 -1.7276,0.924579 -5.68564,1.681026 -8.79567,1.681026 -7.36745,0 -8.90371,3.6524637 -3.36778,8.0070038 2.26422,1.7810507 5.12345,4.24503745 6.35391,5.4754007 1.23048,1.2304831 2.81824,2.2529177 3.52839,2.2721765 0.71032,0.019437 3.05978,1.4182608 5.22128,3.1089366 2.97024,2.3234475 6.42496,3.0808654 14.14768,3.1017224 9.23996,0.02662 10.70659,-0.430445 15.32662,-4.7606005 2.80986,-2.633543 5.10887,-5.35159245 5.10887,-6.04003845 0,-3.00189775 6.2168,-8.02063265 9.93519,-8.02063265 3.2492,0 10.37482,2.190866 13.37869,4.113562 1.20508,0.7708618 -3.27434,7.0363045 -9.14631,12.7922679 -9.18792,9.0065037 -8.53424,11.3895397 3.12407,11.3895397 5.18746,0 9.43177,0.593547 9.43177,1.31974 0,0.726327 -4.91697,2.247619 -10.92676,3.381579 -6.00965,1.133944 -11.27973,2.981719 -11.71125,4.106081 -0.92797,2.418413 7.30356,6.912149 12.66183,6.912149 2.02862,0 3.68835,0.707627 3.68835,1.572004 0,2.048183 -8.95194,2.048183 -10.21779,0 -1.52152,-2.461937 -10.17303,-1.841225 -12.94297,0.928679 -2.12379,2.12381 -2.16612,2.712272 -0.28074,3.905819 1.22103,0.772713 2.71831,1.416025 3.32746,1.429295 0.60959,0.0053 2.87597,1.792591 5.03745,3.954002 2.16134,2.161477 4.69901,3.929884 5.63896,3.929884 0.9401,0 3.22772,1.414773 5.0838,3.143955 1.85607,1.729195 2.57565,3.143955 1.59904,3.143955 -0.97657,0 -2.21271,-0.707653 -2.74705,-1.571991 -0.53473,-0.864471 -2.3446,-1.571964 -4.02279,-1.571964 -1.67821,0 -3.05668,-0.530284 -3.06346,-1.178987 -0.0195,-1.411712 -7.62691,-5.108831 -10.51885,-5.108831 -1.12451,0 -2.0445,-0.707599 -2.0445,-1.57199 0,-2.747277 -7.13718,-1.693019 -10.64172,1.57199 -1.856,1.729102 -3.93472,3.145539 -4.61923,3.14759 -0.68443,0.0013 -3.72063,2.122492 -6.7467,4.712192 -3.02602,2.5897 -6.21918,4.71009 -7.09604,4.712166 -1.81007,0.0026 -7.00081,10.633359 -9.21383,18.867297 -4.18692,15.578048 0.34311,78.598282 5.64936,78.598282 0.67552,0 1.22885,1.14162 1.22885,2.53688 0,2.24018 5.7801,14.24703 7.85974,16.32663 0.43217,0.43223 1.67019,2.37759 2.75099,4.3229 1.08065,1.9453 2.84913,5.12853 3.92988,7.07384 1.08074,1.94532 2.35268,3.8907 2.82667,4.32292 0.47414,0.43225 2.58058,3.26187 4.68137,6.28793 2.101,3.026 7.93635,9.6868 12.96767,14.8017 5.0314,5.11494 11.4135,12.18878 14.18217,15.7197 2.76883,3.53086 7.27438,8.6834 10.01238,11.45018 2.73786,2.76672 5.43831,6.48051 6.00075,8.25281 0.56236,1.77232 1.68242,3.22238 2.48875,3.22238 0.80652,0 1.46609,0.92774 1.46609,2.06151 0,1.13384 1.41478,3.58009 3.14398,5.43618 1.72916,1.856 3.14394,5.05477 3.14394,7.10828 0,2.05346 0.50619,4.23946 1.12397,4.85776 2.47312,2.47297 5.02882,16.57693 5.09447,28.11293 0.0625,11.7703 -2.56904,24.73374 -5.02929,24.73374 -0.65407,0 -1.18915,1.41478 -1.18915,3.14397 0,1.72906 -0.70761,3.14385 -1.57201,3.14385 -0.86444,0 -1.57193,1.10025 -1.57193,2.44496 0,2.85967 -16.70551,19.68191 -23.57492,23.7398 -2.59634,1.53363 -4.72045,3.34338 -4.72045,4.0215 0,0.67822 -1.41479,1.23306 -3.14404,1.23306 -1.72921,0 -3.14399,0.70763 -3.14399,1.57195 0,0.86451 -1.07066,1.572 -2.37929,1.572 -1.30847,0 -3.60757,0.62474 -5.10886,1.38858 -8.3101,4.22735 -12.89904,5.46298 -27.88105,7.50724 -3.45819,0.4723 -6.95987,1.4929 -7.78119,2.26897 -1.78711,1.68854 -48.3636,1.55247 -55.09739,-0.16122 z M 326.59655,40.339278 c -0.53473,-0.864485 0.1311,-1.571965 1.47917,-1.571965 1.34796,0 2.4507,0.707614 2.4507,1.571965 0,0.864457 -0.66572,1.571964 -1.47909,1.571964 -0.81366,0 -1.91642,-0.707599 -2.45078,-1.571964 z"
             id="path6497-6"
             inkscape:connector-curvature="0"
             sodipodi:nodetypes="ccsscscssscccssccsssccsssccscscccccscssscccssccssssscsccccccsssssscsscccsssssssscscccsssccscccssscccsscsssccccssccssscscccccccccsssccscsssssccsssscssccsscscsscsssccccccsscsccccccssccssccsscscccssscscssccsccssscsccccccsscsccsssscssssccccccsssc" />
        </g>
      </g>
    </g>
  </g>
</svg>
