<?xml version="1.0" encoding="UTF-8" standalone="no"?>
<!-- Created with Inkscape (http://www.inkscape.org/) -->

<svg
   xmlns:dc="http://purl.org/dc/elements/1.1/"
   xmlns:cc="http://creativecommons.org/ns#"
   xmlns:rdf="http://www.w3.org/1999/02/22-rdf-syntax-ns#"
   xmlns:svg="http://www.w3.org/2000/svg"
   xmlns="http://www.w3.org/2000/svg"
   xmlns:sodipodi="http://sodipodi.sourceforge.net/DTD/sodipodi-0.dtd"
   xmlns:inkscape="http://www.inkscape.org/namespaces/inkscape"
   width="210mm"
   height="297mm"
   viewBox="0 0 210 297"
   version="1.1"
   id="svg8"
   inkscape:version="0.92.2 5c3e80d, 2017-08-06"
   sodipodi:docname="cauldron.svg">
  <defs
     id="defs2">
    <clipPath
       id="clipPath45"
       clipPathUnits="userSpaceOnUse">
      <path
         inkscape:connector-curvature="0"
         id="path43"
         d="M 0,864 H 864 V 0 H 0 Z" />
    </clipPath>
    <clipPath
       id="clipPath3854"
       clipPathUnits="userSpaceOnUse">
      <path
         inkscape:connector-curvature="0"
         id="path3852"
         d="M 0,864 H 864 V 0 H 0 Z" />
    </clipPath>
    <clipPath
       id="clipPath4053"
       clipPathUnits="userSpaceOnUse">
      <path
         inkscape:connector-curvature="0"
         id="path4051"
         d="M 0,864 H 864 V 0 H 0 Z" />
    </clipPath>
    <clipPath
       id="clipPath4150"
       clipPathUnits="userSpaceOnUse">
      <path
         inkscape:connector-curvature="0"
         id="path4148"
         d="M 0,864 H 864 V 0 H 0 Z" />
    </clipPath>
    <clipPath
       id="clipPath4295"
       clipPathUnits="userSpaceOnUse">
      <path
         inkscape:connector-curvature="0"
         id="path4293"
         d="M 0,864 H 864 V 0 H 0 Z" />
    </clipPath>
    <clipPath
       id="clipPath4410"
       clipPathUnits="userSpaceOnUse">
      <path
         inkscape:connector-curvature="0"
         id="path4408"
         d="M 0,864 H 864 V 0 H 0 Z" />
    </clipPath>
    <clipPath
       id="clipPath4615"
       clipPathUnits="userSpaceOnUse">
      <path
         inkscape:connector-curvature="0"
         id="path4613"
         d="M 0,864 H 864 V 0 H 0 Z" />
    </clipPath>
    <clipPath
       id="clipPath4838"
       clipPathUnits="userSpaceOnUse">
      <path
         inkscape:connector-curvature="0"
         id="path4836"
         d="M 0,864 H 864 V 0 H 0 Z" />
    </clipPath>
    <clipPath
       id="clipPath5001"
       clipPathUnits="userSpaceOnUse">
      <path
         inkscape:connector-curvature="0"
         id="path4999"
         d="M 0,864 H 864 V 0 H 0 Z" />
    </clipPath>
    <inkscape:perspective
       id="perspective9"
       inkscape:persp3d-origin="372.04724 : 350.78739 : 1"
       inkscape:vp_z="744.09448 : 526.18109 : 1"
       inkscape:vp_y="0 : 1000 : 0"
       inkscape:vp_x="0 : 526.18109 : 1"
       sodipodi:type="inkscape:persp3d" />
  </defs>
  <sodipodi:namedview
     id="base"
     pagecolor="#000000"
     bordercolor="#666666"
     borderopacity="1.0"
     inkscape:pageopacity="0"
     inkscape:pageshadow="2"
     inkscape:zoom="0.91846942"
     inkscape:cx="396.85039"
     inkscape:cy="556.87007"
     inkscape:document-units="mm"
     inkscape:current-layer="g5136"
     showgrid="false"
     inkscape:window-width="2560"
     inkscape:window-height="1385"
     inkscape:window-x="2560"
     inkscape:window-y="27"
     inkscape:window-maximized="1"
     showguides="true"
     inkscape:guide-bbox="true">
    <sodipodi:guide
       position="105.43356,205.96993"
       orientation="1,0"
       id="guide3815"
       inkscape:locked="false" />
    <sodipodi:guide
       position="92.758485,149.50825"
       orientation="0,1"
       id="guide3817"
       inkscape:locked="false" />
  </sodipodi:namedview>
  <metadata
     id="metadata5">
    <rdf:RDF>
      <cc:Work
         rdf:about="">
        <dc:format>image/svg+xml</dc:format>
        <dc:type
           rdf:resource="http://purl.org/dc/dcmitype/StillImage" />
        <dc:title></dc:title>
      </cc:Work>
    </rdf:RDF>
  </metadata>
  <g
     inkscape:label="Layer 1"
     inkscape:groupmode="layer"
     id="layer1">
    <g
       transform="matrix(0.35277777,0,0,-0.35277777,-70.777455,287.43463)"
       inkscape:label="1"
       id="g37">
      <g
         id="g39">
        <g
           id="g5136"
           transform="matrix(0.75000002,0,0,-0.75000002,342.50983,505.50165)"
           style="fill:#ffeeaa">
          <path
             style="fill:#ffeeaa;stroke-width:1.57196534"
             d="m 90.083037,364.32719 c -3.25276,-3.00935 -6.921359,-8.92875 -6.921359,-11.16788 0,-0.7718 3.536951,-5.11137 7.859879,-9.64376 4.322857,-4.53244 7.859764,-9.48863 7.859764,-11.01357 0,-1.52482 -1.9393,-4.04319 -4.309514,-5.59635 -4.854971,-3.18081 -19.26995,-17.59824 -19.26995,-19.27319 0,-0.59974 -1.591636,-2.88628 -3.536946,-5.0816 -3.904755,-4.40645 -5.763776,-7.43973 -12.405449,-20.2411 -2.471255,-4.76296 -4.493163,-9.91744 -4.493163,-11.45415 0,-1.53694 -0.632739,-2.79444 -1.406839,-2.79444 -2.431342,0 -3.692297,-12.53437 -3.716178,-36.94099 -0.02664,-23.90579 1.183227,-35.36922 3.723045,-35.36922 0.77,0 1.399972,-2.1222 1.399972,-4.71609 0,-2.59383 0.53472,-4.71567 1.188235,-4.71567 0.653224,0 2.179401,-2.299 3.390783,-5.10905 1.211498,-2.8099 3.506328,-6.98657 5.099704,-9.28158 4.296363,-6.18772 3.827052,-10.76085 -1.10437,-10.76085 -6.305626,0 -11.718315,-6.53489 -11.718315,-14.14769 0,-4.73171 1.019422,-7.45021 3.858504,-10.28949 l 3.858415,-3.8582 H 210.40744 361.37567 l 3.94187,3.42727 c 7.98068,6.93913 3.21586,24.86811 -6.60878,24.86811 -5.16401,0 -6.05277,3.77553 -2.17189,9.2256 1.80992,2.54169 3.29072,5.75017 3.29072,7.12969 0,1.37951 0.70761,2.50818 1.57198,2.50818 0.86445,0 1.57197,1.41477 1.57197,3.14387 0,1.72935 0.70763,3.14414 1.57191,3.14414 0.86444,0 1.57198,1.62696 1.57198,3.61537 0,1.98842 0.57836,4.28744 1.28507,5.10895 4.18193,4.85979 7.18622,34.16762 5.22899,51.0103 -1.49358,12.85198 -6.4801,31.4391 -8.43433,31.4391 -0.67286,0 -1.22362,1.65887 -1.22362,3.68629 0,2.02752 -1.41478,4.96681 -3.14395,6.53171 -1.72916,1.56477 -3.14394,3.49231 -3.14394,4.28328 0,2.94928 -9.56752,15.1828 -21.10238,26.98261 -6.54992,6.70031 -11.9089,12.78996 -11.9089,13.53249 0,0.74239 1.06113,2.41108 2.35796,3.70788 1.2969,1.29688 2.35795,3.09101 2.35795,3.98686 0,0.89602 1.41477,2.38597 3.14394,3.31153 1.72916,0.92547 3.14395,2.71863 3.14395,3.98539 0,1.26622 0.70763,2.30245 1.57192,2.30245 0.86442,0 1.57196,2.05919 1.57196,4.5761 0,3.1804 -1.47548,5.81786 -4.83645,8.64595 -7.42852,6.25064 -12.45172,5.39989 -21.78208,-3.68826 -4.38063,-4.26681 -7.96468,-8.86484 -7.96468,-10.21777 0,-2.81089 -3.31887,-3.18465 -7.88125,-0.88763 -1.71733,0.86449 -4.52769,2.27898 -6.24503,3.1439 -1.71762,0.86445 -4.17633,1.57175 -5.464,1.57175 -1.28759,0 -4.65729,1.41222 -7.48807,3.13773 -2.83078,1.72652 -6.69678,3.14127 -8.59109,3.14458 -1.89426,0 -3.83515,0.63899 -4.31302,1.41149 -1.03612,1.67625 -7.85231,2.72312 -33.36182,5.12452 -14.1722,1.33412 -23.92267,1.34732 -37.72722,0.0533 -24.32413,-2.28414 -31.80731,-3.46262 -32.86592,-5.17569 -0.4777,-0.77355 -2.6238,-1.4056 -4.7687,-1.4056 -2.14483,0 -6.6729,-1.41477 -10.06237,-3.14429 -3.38948,-1.72909 -7.19289,-3.14386 -8.45215,-3.14386 -1.25938,0 -2.52539,-0.59801 -2.8136,-1.32851 -0.28785,-0.73078 -2.43288,-1.79648 -4.76587,-2.36781 -3.25362,-0.79672 -5.11614,-0.16493 -7.99478,2.71421 -8.12312,8.12314 -18.78037,15.12979 -23.012464,15.12979 -2.395151,0 -5.701135,-1.24527 -7.346449,-2.76778 z M 68.22135,118.7149 c -0.53827,-0.8707 0.48125,-3.63242 2.265229,-6.13747 1.783806,-2.50514 3.243341,-4.99986 3.243341,-5.54358 0,-0.54363 2.547894,-3.53672 5.661918,-6.65078 6.940003,-6.939897 22.439952,-14.668892 29.417922,-14.668892 5.75721,0 8.93515,-2.348008 8.93515,-6.602184 0,-1.556207 0.70764,-2.829544 1.57201,-2.829544 0.86443,0 1.57198,-1.098753 1.57198,-2.441854 0,-3.180418 8.06925,-13.277646 10.61072,-13.277646 1.08075,0 1.96498,-0.631852 1.96498,-1.403876 0,-3.206868 19.71427,-8.22429 24.76697,-6.303332 2.05324,0.780687 6.5165,1.419342 9.91864,1.419342 6.16839,0 6.18545,-0.02651 6.18545,-6.288015 0,-3.458184 0.70763,-6.287717 1.572,-6.287717 0.86443,0 1.57198,-1.414768 1.57198,-3.144039 0,-1.729107 0.53471,-3.143876 1.18821,-3.143876 0.65325,0 2.06438,-1.945282 3.13515,-4.322797 1.85786,-4.125253 6.71433,-7.938031 18.65009,-14.64196 8.44366,-4.742301 35.09916,-3.579813 39.90509,1.740425 0.43223,0.478568 3.26189,2.585513 6.28791,4.681868 6.97859,4.835092 11.22369,10.076286 13.90415,17.16687 1.16283,3.076389 2.84017,7.538587 3.72766,9.916299 1.49445,4.004754 7.51963,6.347618 7.51963,2.923941 0,-2.82538 14.16764,-8.032885 21.8549,-8.032885 8.54786,0 26.42065,7.91381 28.09368,12.439105 0.50707,1.37217 2.2091,3.638567 3.78213,5.03682 1.57308,1.398294 2.86004,3.655759 2.86004,5.016353 0,1.360504 0.70759,2.910817 1.57193,3.445151 0.86446,0.534755 1.57201,5.179288 1.57201,10.321928 v 9.3502 l 11.00375,10.873465 c 7.9612,7.86708 11.0037,11.99294 11.0037,14.92247 v 4.04884 H 211.36958 c -93.72678,0 -142.503347,-0.53914 -143.14823,-1.58263 z M 345.93244,77.110363 c -6.85573,-7.53388 -6.54028,-15.935516 0.9027,-24.042174 1.08321,-1.179659 5.46446,-2.19456 9.91186,-2.295868 10.56609,-0.240638 16.08497,4.720553 16.08497,14.459319 0,11.565289 -5.57922,17.338822 -16.75577,17.338822 -3.90539,0 -6.39439,-1.33955 -10.14376,-5.460099 z M 97.599249,57.847294 c -5.552525,-0.507055 -8.049063,-1.902572 -13.754647,-7.68999 -6.475957,-6.569264 -6.970738,-7.660966 -6.970738,-15.382797 0,-9.717026 3.075675,-16.762786 9.075799,-20.790631 8.418039,-5.6506113 22.363407,-8.9531996 22.363407,-5.2957381 0,0.8644691 1.70569,1.5718051 3.79027,1.5718051 2.38841,0 5.30404,1.889426 7.88349,5.108945 2.25135,2.810013 4.79009,5.963224 5.6416,7.007631 0.85197,1.044028 1.54826,6.137007 1.54826,11.317152 0,8.936883 -0.3413,9.775572 -6.6808,16.40374 -7.11047,7.434446 -11.19702,8.817546 -22.896641,7.749883 z M 146.89266,33.354128 c -4.96127,-3.01864 -6.51448,-4.796745 -7.50476,-8.591462 -1.53657,-5.887747 1.46008,-13.511463 6.16397,-15.6816961 5.12471,-2.3641497 9.92019,-2.5541516 9.92019,-0.3929992 0,0.8644471 1.41477,1.5717853 3.14398,1.5717853 2.09591,0 3.14394,1.048131 3.14394,3.144042 0,1.729105 0.7076,3.143874 1.57197,3.143874 0.86447,0 1.57198,2.07049 1.57198,4.601581 0,3.400515 -1.52937,5.861717 -5.86007,9.431675 -6.41248,5.285567 -7.58248,5.552464 -12.1512,2.77294 z M 268.11128,29.39278 c -4.28299,-4.732685 -3.15668,-19.132837 1.4965,-19.132837 1.20427,0 2.18975,-0.7076187 2.18975,-1.5718051 0,-2.1474079 7.29222,-1.9844968 11.50005,0.2566619 8.12069,4.3249692 9.94328,14.0632942 3.72513,19.9049672 -4.67952,4.396342 -15.15226,4.697218 -18.91143,0.543627 z M 229.7446,2.3500677 c -1.94672,-0.7824619 -6.19101,-4.0745331 -9.43174,-7.3154371 -5.70756,-5.7085456 -5.88928,-6.2363026 -5.8004,-16.8480086 0.0625,-7.008244 0.7664,-11.179738 1.9649,-11.57927 1.03033,-0.343104 1.87336,-1.980321 1.87336,-3.637227 0,-1.657262 0.95153,-3.013033 2.11427,-3.013033 1.16294,0 3.39462,-1.414768 4.95957,-3.144039 2.28157,-2.521096 4.84165,-3.143854 12.92268,-3.143854 12.6018,0 20.87455,4.004834 20.87455,10.105598 0,1.358698 0.59534,2.470115 1.32317,2.470115 2.97838,0 4.9315,11.720794 3.02016,18.124014 -2.04885,6.864054 -10.44582,16.45925211 -14.40389,16.45925211 -1.38331,0 -2.51514,0.70761899 -2.51514,1.57197149 0,1.9335415 -12.05459,1.897984 -16.90149,-0.053526 z M 188.09038,-43.765589 c -3.36115,-2.890773 -4.31182,-5.076141 -4.27294,-9.822739 0.0535,-6.528683 1.8666,-9.650019 7.42695,-12.785853 4.65442,-2.625104 7.57273,-2.476622 12.30834,0.626505 6.34112,4.154848 8.62578,9.888408 6.18309,15.51702 -4.46745,10.29487 -13.91243,13.11594 -21.64544,6.465139 z"
             id="path6497-5-6-8"
             inkscape:connector-curvature="0"
             sodipodi:nodetypes="cssscsccsscsssccsscccccscsssssccsscscsssssssccsccsccccccscscccsccccscsssssscsssssccccccsscsscsccscsccccsscccscssccscccccsssssccccssccccccccsscssscssccccccccc" />
        </g>
      </g>
    </g>
  </g>
</svg>
