<?xml version="1.0" encoding="UTF-8" standalone="no"?>
<!-- Created with Inkscape (http://www.inkscape.org/) -->

<svg
   xmlns:dc="http://purl.org/dc/elements/1.1/"
   xmlns:cc="http://creativecommons.org/ns#"
   xmlns:rdf="http://www.w3.org/1999/02/22-rdf-syntax-ns#"
   xmlns:svg="http://www.w3.org/2000/svg"
   xmlns="http://www.w3.org/2000/svg"
   xmlns:sodipodi="http://sodipodi.sourceforge.net/DTD/sodipodi-0.dtd"
   xmlns:inkscape="http://www.inkscape.org/namespaces/inkscape"
   width="210mm"
   height="297mm"
   viewBox="0 0 210 297"
   version="1.1"
   id="svg8"
   inkscape:version="0.92.2 5c3e80d, 2017-08-06"
   sodipodi:docname="cheshire.svg">
  <defs
     id="defs2">
    <clipPath
       id="clipPath45"
       clipPathUnits="userSpaceOnUse">
      <path
         inkscape:connector-curvature="0"
         id="path43"
         d="M 0,864 H 864 V 0 H 0 Z" />
    </clipPath>
    <clipPath
       id="clipPath3854"
       clipPathUnits="userSpaceOnUse">
      <path
         inkscape:connector-curvature="0"
         id="path3852"
         d="M 0,864 H 864 V 0 H 0 Z" />
    </clipPath>
    <clipPath
       id="clipPath4053"
       clipPathUnits="userSpaceOnUse">
      <path
         inkscape:connector-curvature="0"
         id="path4051"
         d="M 0,864 H 864 V 0 H 0 Z" />
    </clipPath>
    <clipPath
       id="clipPath4150"
       clipPathUnits="userSpaceOnUse">
      <path
         inkscape:connector-curvature="0"
         id="path4148"
         d="M 0,864 H 864 V 0 H 0 Z" />
    </clipPath>
    <clipPath
       id="clipPath4295"
       clipPathUnits="userSpaceOnUse">
      <path
         inkscape:connector-curvature="0"
         id="path4293"
         d="M 0,864 H 864 V 0 H 0 Z" />
    </clipPath>
    <clipPath
       id="clipPath4410"
       clipPathUnits="userSpaceOnUse">
      <path
         inkscape:connector-curvature="0"
         id="path4408"
         d="M 0,864 H 864 V 0 H 0 Z" />
    </clipPath>
    <clipPath
       id="clipPath4615"
       clipPathUnits="userSpaceOnUse">
      <path
         inkscape:connector-curvature="0"
         id="path4613"
         d="M 0,864 H 864 V 0 H 0 Z" />
    </clipPath>
    <clipPath
       id="clipPath4838"
       clipPathUnits="userSpaceOnUse">
      <path
         inkscape:connector-curvature="0"
         id="path4836"
         d="M 0,864 H 864 V 0 H 0 Z" />
    </clipPath>
    <clipPath
       id="clipPath5001"
       clipPathUnits="userSpaceOnUse">
      <path
         inkscape:connector-curvature="0"
         id="path4999"
         d="M 0,864 H 864 V 0 H 0 Z" />
    </clipPath>
    <inkscape:perspective
       id="perspective9"
       inkscape:persp3d-origin="372.04724 : 350.78739 : 1"
       inkscape:vp_z="744.09448 : 526.18109 : 1"
       inkscape:vp_y="0 : 1000 : 0"
       inkscape:vp_x="0 : 526.18109 : 1"
       sodipodi:type="inkscape:persp3d" />
  </defs>
  <sodipodi:namedview
     id="base"
     pagecolor="#000000"
     bordercolor="#666666"
     borderopacity="1.0"
     inkscape:pageopacity="0"
     inkscape:pageshadow="2"
     inkscape:zoom="0.91846942"
     inkscape:cx="396.85039"
     inkscape:cy="515.06733"
     inkscape:document-units="mm"
     inkscape:current-layer="g5136"
     showgrid="false"
     inkscape:window-width="2560"
     inkscape:window-height="1385"
     inkscape:window-x="2560"
     inkscape:window-y="27"
     inkscape:window-maximized="1"
     showguides="true"
     inkscape:guide-bbox="true">
    <sodipodi:guide
       position="105.43356,205.96993"
       orientation="1,0"
       id="guide3815"
       inkscape:locked="false" />
    <sodipodi:guide
       position="92.758485,149.50825"
       orientation="0,1"
       id="guide3817"
       inkscape:locked="false" />
  </sodipodi:namedview>
  <metadata
     id="metadata5">
    <rdf:RDF>
      <cc:Work
         rdf:about="">
        <dc:format>image/svg+xml</dc:format>
        <dc:type
           rdf:resource="http://purl.org/dc/dcmitype/StillImage" />
        <dc:title></dc:title>
      </cc:Work>
    </rdf:RDF>
  </metadata>
  <g
     inkscape:label="Layer 1"
     inkscape:groupmode="layer"
     id="layer1">
    <g
       transform="matrix(0.35277777,0,0,-0.35277777,-70.777455,287.43463)"
       inkscape:label="1"
       id="g37">
      <g
         id="g39">
        <g
           id="g5136"
           transform="matrix(0.75000002,0,0,-0.75000002,342.50983,505.50165)"
           style="fill:#ffeeaa">
          <path
             style="fill:#ffeeaa;stroke-width:0.48600003"
             d="m 210.59658,454.56552 c -0.53461,-0.21437 -1.84681,-0.65524 -2.916,-0.9794 -5.8816,-1.78332 -14.60736,-6.47977 -19.66748,-10.58554 -4.17573,-3.38822 -8.14066,-9.78518 -11.52688,-18.59729 -0.66767,-1.73744 -1.39809,-3.5964 -1.62317,-4.13101 -0.36656,-0.8707 -0.75079,-2.07199 -1.94291,-6.07499 -0.34411,-1.15546 -0.74114,-2.65711 -1.86328,-7.04701 -1.30331,-5.09867 -1.73395,-8.80316 -1.75137,-15.06598 -0.0193,-7.20827 0.71202,-11.12777 2.23018,-11.94024 5.39433,-2.88696 16.93606,-3.92486 36.95816,-3.32347 20.31035,0.61008 25.91786,1.99269 28.94134,7.13614 1.29651,2.20559 1.34912,2.5527 1.34214,8.85656 -0.004,3.60856 -0.31002,10.27892 -0.68005,14.823 -0.46485,5.70836 -0.59186,12.31781 -0.41092,21.38399 0.30321,15.19441 0.37096,14.87846 -4.048,18.87741 -2.99559,2.71086 -7.36513,5.15889 -11.38417,6.37794 -2.56535,0.77811 -9.98107,0.96256 -11.65759,0.28989 z m 50.54398,-5.14907 c -6.46693,-1.75092 -11.96252,-12.10987 -14.4302,-27.20016 -0.76379,-4.6708 -0.78347,-22.58086 -0.0293,-26.48701 0.28393,-1.47014 0.79638,-4.31325 1.13881,-6.31799 0.65297,-3.82309 2.12316,-7.06742 4.26786,-9.4183 1.55293,-1.70217 5.84579,-3.7037 7.94371,-3.7037 0.84502,0 2.86177,-0.23558 4.48165,-0.52353 5.68948,-1.01135 8.30911,-1.50328 10.23524,-1.92216 1.06922,-0.23255 3.14686,-0.6721 4.61702,-0.97683 1.47013,-0.30471 3.43845,-0.74382 4.374,-0.97577 0.93555,-0.23201 4.54408,-1.10276 8.01898,-1.93512 3.4749,-0.83231 6.86477,-1.69075 7.533,-1.90759 0.66827,-0.21684 2.19916,-0.65965 3.402,-0.98402 1.20287,-0.32436 2.56675,-0.78712 3.03091,-1.02838 0.46416,-0.24136 1.14485,-0.43861 1.51265,-0.43861 0.36783,0 2.26949,-0.66008 4.22596,-1.46683 1.95643,-0.80682 3.7342,-1.28985 3.95056,-1.07348 0.53026,0.53028 -0.54058,13.47154 -1.99971,24.16732 -0.4233,3.10258 -0.68496,4.69995 -1.9903,12.15 -1.30336,7.43858 -4.65284,20.04959 -6.38958,24.057 -0.28957,0.66827 -0.70066,1.65239 -0.91348,2.187 -3.9206,9.84826 -9.82647,17.68553 -15.1571,20.11394 -8.28864,3.77586 -21.17963,5.48289 -27.82291,3.68422 z m -111.537,-9.92466 c -2.68427,-0.34687 -3.18127,-0.48998 -6.31798,-1.81959 -3.03326,-1.28569 -12.34521,-6.05171 -13.67716,-7.00013 -0.71274,-0.50755 -1.44509,-0.92277 -1.62741,-0.92277 -0.29927,0 -4.51874,-2.81158 -5.10742,-3.40324 -0.13363,-0.13446 -1.50251,-1.20127 -3.04192,-2.37099 -6.24898,-4.74837 -12.4364,-12.73145 -14.42419,-18.61035 -2.74329,-8.11329 -3.1889,-11.50702 -3.1889,-24.28596 0,-12.93511 -0.0882,-12.60217 3.81327,-14.40971 4.32956,-2.00581 12.91855,-1.72819 25.58974,0.82725 4.5308,0.9137 8.08959,1.61365 10.20598,2.0073 10.05452,1.87019 17.03904,4.67804 19.60984,7.88351 l 1.46515,1.82683 -0.1138,9.92491 c -0.20553,17.95682 1.52266,31.4895 5.03631,39.43446 0.6701,1.51522 1.21836,3.24499 1.21836,3.84392 0,4.44759 -10.42091,8.23992 -19.44001,7.07456 z m 168.0342,-5.66899 c -0.86972,-0.26257 -0.79461,-1.75389 0.18489,-3.66924 0.55279,-1.08101 2.43877,-7.92195 3.39411,-12.31127 0.29087,-1.33649 0.72912,-3.30478 0.9739,-4.374 0.24468,-1.06921 0.66868,-3.14685 0.94201,-4.61701 0.27332,-1.47014 0.68838,-3.65714 0.92235,-4.85998 0.23393,-1.20286 0.67152,-3.60856 0.97233,-5.346 0.30086,-1.73745 0.75641,-4.36185 1.01238,-5.83201 1.21552,-6.98137 2.92718,-18.16956 3.86632,-25.272 0.30044,-2.27205 0.69749,-4.2524 0.88237,-4.40083 0.18488,-0.14824 1.86709,-0.76101 3.73816,-1.36144 1.87111,-0.60041 3.83942,-1.28479 4.374,-1.52078 0.53461,-0.23613 2.39357,-0.91183 4.13102,-1.50174 3.71777,-1.26234 6.28255,-2.39069 14.88474,-6.54827 7.59715,-3.67186 12.02452,-5.17751 15.46906,-5.26067 4.79734,-0.11572 6.15685,1.76327 5.07576,7.01552 -1.50548,7.3142 -2.65779,13.60741 -3.86551,21.11122 -2.00931,12.48396 -3.33766,17.19335 -6.92266,24.543 -3.69468,7.57439 -12.89427,20.53732 -16.47702,23.21732 -0.45461,0.34007 -1.12048,0.91217 -1.47965,1.27138 -2.91672,2.91673 -11.29752,7.25524 -17.09768,8.85104 -2.52786,0.69551 -13.4536,1.32692 -14.98084,0.86576 z M 84.965568,406.65929 c -5.606185,-1.27426 -11.48829,-3.95404 -14.266516,-6.49967 -2.73469,-2.50567 -7.997793,-11.60641 -10.712924,-18.52432 -0.472086,-1.20288 -1.156114,-2.84312 -1.520031,-3.64501 -1.131868,-2.49405 -4.974149,-14.40858 -5.798947,-17.982 -0.43186,-1.87111 -0.97611,-4.16744 -1.209426,-5.10299 -2.168184,-8.69387 -1.772796,-16.30313 1.000523,-19.2552 2.025352,-2.15588 8.661345,-1.26717 15.046065,2.01508 5.57136,2.86413 12.748745,9.24183 15.300099,13.59535 1.688845,2.8818 3.133161,7.15605 3.133161,9.27211 0,3.05182 2.572657,13.8539 5.074423,21.30652 1.340989,3.99474 4.689038,12.49021 6.38954,16.213 1.41103,3.08917 1.555271,6.44038 0.32154,7.47086 -2.330249,1.94624 -7.261562,2.38548 -12.757507,1.13627 z m 293.058002,-1.19113 c -1.1582,-0.75755 -0.8583,-7.66036 1.01443,-23.34686 2.40377,-20.13476 4.3552,-30.60062 7.38304,-39.59661 1.88712,-5.60674 2.2663,-6.10256 11.84577,-15.49 5.22435,-5.11961 9.69591,-9.3813 9.93678,-9.47038 0.75833,-0.28051 0.52202,27.65514 -0.28503,33.69598 -1.4738,11.03162 -2.64534,14.50126 -9.59971,28.42984 -4.35869,8.72973 -5.19295,10.19656 -9.21852,16.20772 -4.99914,7.46495 -9.00457,10.92566 -11.07676,9.57031 z M 44.946289,390.64144 C 39.114143,387.182 32.098356,377.5716 28.614888,368.27029 c -0.600645,-1.6038 -1.286685,-3.3534 -1.524521,-3.888 -0.886836,-1.99322 -2.171319,-7.29049 -3.358598,-13.85099 -1.980598,-10.9439 -1.618613,-37.42202 0.511605,-37.42202 0.769132,0 6.897332,5.54289 11.455965,10.36177 4.809469,5.08406 5.998788,7.04093 6.551217,10.77924 1.5645,10.58706 3.573099,22.82726 4.78512,29.15999 0.255689,1.3365 0.71364,3.74222 1.017465,5.34601 1.082689,5.71535 1.96217,9.88816 2.970544,14.094 0.859593,3.58522 1.051663,7.48631 0.406869,8.26321 -0.89543,1.07897 -4.285579,0.83212 -6.484265,-0.47206 z M 206.70858,363.84876 c -5.91604,-0.72084 -8.41792,-1.18546 -12.39301,-2.30145 -6.18538,-1.73657 -10.92475,-3.83439 -11.40571,-5.04854 -0.18846,-0.47549 -0.46627,-8.91788 -0.61759,-18.76099 -0.42033,-27.33945 0.81344,-48.95025 3.54248,-62.05049 1.18422,-5.68472 1.58147,-6.88287 2.66422,-8.03537 1.26543,-1.34701 9.50264,-5.59187 12.62061,-6.50375 1.20285,-0.35181 2.73374,-0.81287 3.402,-1.0246 7.22643,-2.28972 20.9043,-2.27859 29.7675,0.0248 7.54753,1.96097 8.36913,2.39185 9.56466,5.01627 2.74781,6.03181 7.6392,19.62145 9.73525,27.04722 0.33953,1.20288 0.78974,2.73376 1.00049,3.40203 0.21078,0.66824 0.63658,2.30848 0.94633,3.64497 0.30972,1.33651 0.75843,3.19547 0.99711,4.13103 1.73887,6.81555 3.1758,16.31929 3.9542,26.15289 0.46559,5.88164 0.46203,9.09134 -0.0166,15.30901 -0.66294,8.60493 -1.12957,10.79013 -2.38782,11.18198 -0.45636,0.14218 -2.79802,0.95909 -5.20374,1.81548 -2.40568,0.85636 -5.08478,1.74731 -5.95348,1.97986 -0.86874,0.23254 -2.39962,0.64424 -3.40199,0.91489 -2.05002,0.55356 -5.60688,1.34914 -8.86951,1.9838 -3.71436,0.72254 -16.111,1.88923 -19.44002,1.82949 -1.73745,-0.0311 -5.56469,-0.34971 -8.50497,-0.70794 z m 67.06798,-5.94597 -2.42999,-0.32449 0.14218,-5.10302 c 0.18763,-6.74222 0.99096,-12.30492 3.08784,-21.38399 2.59893,-11.25305 2.84507,-12.67108 2.84507,-16.39192 0,-5.22177 -0.69527,-6.89993 -6.43768,-15.53849 -3.99304,-6.00685 -8.18962,-13.63139 -10.25389,-18.6297 -0.49312,-1.19398 -1.19993,-2.85172 -1.57074,-3.68384 -1.16085,-2.60525 -3.99349,-11.51638 -4.32516,-13.60657 -0.31538,-1.98732 -0.30384,-2.00609 2.26574,-3.6803 3.90648,-2.54528 7.1758,-3.89291 12.54573,-5.17149 6.64118,-1.58125 9.36168,-1.78586 23.32798,-1.75459 14.20833,0.0317 14.35446,0.0425 16.281,1.18984 4.19754,2.49987 9.6623,8.14967 11.8467,12.24781 3.40095,6.3805 3.96354,7.65313 5.53976,12.53125 2.42078,7.49197 3.38337,11.87837 4.69275,21.38399 1.68208,12.21138 1.86442,33.58155 0.31617,37.05289 -0.38857,0.87125 -1.64991,2.57623 -2.80294,3.7888 -2.4328,2.5585 -9.11082,8.24432 -9.68295,8.24432 -0.21436,0 -1.43814,0.61352 -2.7196,1.36339 -4.61799,2.70223 -9.83603,4.4652 -20.47139,6.91639 -2.57667,0.59391 -18.84802,0.99684 -22.1965,0.54972 z m -125.38799,-0.84912 c -5.26509,-0.50745 -12.70411,-2.12777 -17.01,-3.70494 -6.14669,-2.2515 -15.29211,-7.66543 -20.09155,-11.8939 -1.63738,-1.44252 -2.20447,-2.3481 -2.53347,-4.04553 -0.60768,-3.13509 -0.58415,-30.96784 0.0308,-36.45001 1.80341,-16.07677 4.71891,-25.3017 9.72902,-30.78357 2.06984,-2.26473 2.62853,-2.59153 5.39995,-3.15863 1.70019,-0.34787 4.18477,-0.87794 5.52127,-1.1779 1.33647,-0.29996 6.03855,-0.53834 10.449,-0.52976 10.00892,0.0193 13.78081,0.92627 19.2869,4.63655 1.96735,1.32568 2.10566,1.59723 4.22464,8.29443 3.34848,10.58326 4.82978,16.19567 6.57334,24.90588 1.33352,6.6617 1.76737,9.53556 2.96475,19.63877 1.02012,8.60751 0.40038,30.84856 -0.89761,32.21248 -1.19857,1.25952 -17.34547,2.66347 -23.64704,2.05613 z m 271.5283,-7.37287 c -0.99597,-9.98518 -1.70132,-23.79087 -1.43423,-28.07224 0.19177,-3.07513 0.59226,-4.85758 1.55613,-6.9274 7.13795,-15.32776 11.359,-22.25706 15.01909,-24.65523 1.87615,-1.22929 2.22232,-0.50777 1.96115,4.08765 -0.29165,5.13134 -1.16035,15.05615 -1.47132,16.8087 -0.14217,0.80189 -0.45916,2.87957 -0.70423,4.61702 -0.52305,3.7089 -1.17056,7.2504 -1.8215,9.96299 -0.25651,1.06921 -0.62525,2.70945 -0.81917,3.64501 -1.02623,4.94974 -4.07946,13.55311 -6.64038,18.71099 -1.24062,2.49871 -4.44529,7.52322 -4.80187,7.52876 -0.15071,0 -0.53039,-2.56549 -0.84367,-5.70625 z m -405.467953,1.28599 c -1.925333,-2.08334 -5.4203416,-8.16459 -6.8141311,-11.8565 -1.1235132,-2.97608 -3.1253616,-10.70337 -3.7770948,-14.58 -1.3636377,-8.1114 -2.85926224,-24.81584 -2.2742028,-25.4009 0.9575127,-0.95756 11.5625667,9.05789 13.2591027,12.52191 1.005539,2.05314 1.085802,3.01963 1.311814,15.795 0.218773,12.37072 0.41343,15.35833 1.527306,23.44949 0.457732,3.325 -0.211877,3.33974 -3.232794,0.0711 z M 349.65261,340.24188 c -3.33449,-5.08993 -6.45436,-20.13153 -7.59343,-36.60959 -1.38353,-20.01438 -3.52334,-31.00718 -8.04254,-41.31732 -1.64912,-3.76224 -1.70381,-4.1199 -0.87618,-5.73051 4.07541,-7.93108 12.45462,-15.91588 18.64572,-17.76808 1.19922,-0.35878 2.68276,-0.84824 3.29674,-1.08769 0.61402,-0.23944 2.83502,-0.43539 4.93559,-0.43539 3.02859,0 4.24403,0.22648 5.87144,1.09348 6.15214,3.27807 17.38551,19.42056 23.42046,33.65551 3.94686,9.30962 7.51605,24.54109 6.35351,27.11344 -5.41621,11.98429 -10.78239,20.31641 -17.8109,27.6552 -3.80016,3.9679 -10.35375,8.68731 -14.79487,10.65416 -4.49611,1.99112 -6.14353,2.52768 -9.49061,3.09075 -1.02134,0.17194 -2.15324,0.42614 -2.51531,0.56508 -0.36206,0.13887 -0.99191,-0.25651 -1.39962,-0.87904 z M 87.152568,333.96145 c -2.405686,-0.79324 -4.8114,-1.63718 -5.346005,-1.8754 -0.534583,-0.23834 -1.948894,-0.83292 -3.142887,-1.32146 -6.363754,-2.60394 -18.046534,-9.43398 -22.895849,-13.3855 -2.410365,-1.96411 -5.254887,-6.71812 -7.101911,-11.86933 -1.118205,-3.11853 -1.106082,-12.54012 0.02201,-17.67247 0.739848,-3.36392 0.998512,-4.40938 2.194473,-8.86951 2.220447,-8.28085 8.790099,-19.01697 12.801779,-20.92062 2.293573,-1.0884 7.324074,-1.38367 13.990684,-0.82123 8.725904,0.73617 14.075183,2.09428 19.520382,4.95593 2.650214,1.3928 7.695626,5.69037 7.695626,6.55497 0,0.23034 -0.78382,2.27129 -1.74178,4.53521 -2.39122,5.65105 -6.195735,17.25244 -7.485919,22.82725 -0.58767,2.53933 -1.251606,5.38245 -1.475446,6.31801 -1.366203,5.71051 -1.689865,9.73656 -1.689865,21.0195 0,7.71549 -0.174414,12.01746 -0.486003,11.99773 -0.267266,-0.0166 -2.454295,-0.67983 -4.86001,-1.47308 z M 403.95317,298.27551 c -0.15264,-0.39761 -0.14465,-1.54199 0.0166,-2.54306 1.01903,-6.28801 0.75813,-15.09859 -0.66556,-22.47518 -0.23228,-1.20284 -0.67047,-3.60852 -0.97405,-5.34597 -0.30355,-1.73745 -0.73947,-3.92445 -0.96865,-4.86 -1.73629,-7.0873 -3.17455,-11.60517 -4.87936,-15.32746 -1.34034,-2.92639 -1.44959,-3.58465 -1.44959,-8.73475 0,-3.06343 0.20637,-6.50249 0.45839,-7.64235 0.25212,-1.13985 0.71161,-3.27529 1.02114,-4.74545 1.2389,-5.88464 1.90902,-7.61386 3.17394,-8.19021 6.31848,-2.87887 16.6727,6.58842 28.04288,25.64086 6.63631,11.12006 7.15565,12.24336 7.15565,15.47677 0,1.59033 -0.19314,3.52559 -0.4293,4.30056 -0.23612,0.77496 -0.70921,2.39315 -1.0513,3.59603 -1.02782,3.61411 -4.1968,9.73551 -7.04461,13.608 -4.6504,6.32362 -12.38841,13.67564 -17.25756,16.39664 -2.43171,1.35896 -4.80318,1.7483 -5.14963,0.84557 z M 25.673578,296.29708 c -1.47016,-0.39059 -3.726371,-1.36036 -5.0138,-2.15501 -1.287429,-0.79462 -2.464924,-1.44478 -2.616629,-1.44478 -0.151814,0 -2.269493,-1.51472 -4.706205,-3.36609 -8.4303749,-6.40516 -8.3305235,-6.21425 -8.2803251,-15.83091 0.038268,-7.31526 0.2049948,-8.35991 2.4442065,-15.309 1.0269495,-3.18708 3.5417436,-8.1088 5.3638356,-10.49767 1.666698,-2.1852 4.930431,-4.43706 8.121097,-5.60328 2.878959,-1.0523 11.046201,-1.27029 13.291448,-0.35477 3.644927,1.48629 4.398604,1.94691 6.00088,3.66763 2.777373,2.98273 3.0756,4.50644 3.013694,15.39784 -0.03033,5.31123 -0.276743,11.54415 -0.547975,13.85101 -0.271115,2.30683 -0.758335,6.70929 -1.082521,9.78324 -0.324208,3.07396 -0.8408,7.01056 -1.148008,8.748 l -0.558581,3.15901 -2.159058,0.32848 c -3.62052,0.55078 -9.301755,0.37568 -12.122059,-0.3737 z M -6.4024295,263.93719 c -0.6682383,-0.27847 -2.8552383,-1.28861 -4.8600005,-2.24474 -7.468781,-3.56219 -12.635998,-10.92426 -12.635998,-18.00337 0,-3.07058 1.905052,-9.63224 4.004106,-13.79147 4.12635,-8.17622 10.2711705,-10.71405 16.1761938,-6.6808 3.54568136,2.42181 4.37217746,5.3111 4.30470176,15.04846 -0.047385,6.82042 -0.604917,12.03755 -2.15578436,20.16901 -0.2548584,1.3365 -0.6006447,3.25012 -0.7683372,4.25253 -0.2636793,1.57639 -0.476685,1.81803 -1.5773661,1.78959 -0.6998913,-0.0194 -1.8192483,-0.26065 -2.4875154,-0.53921 z M 447.14088,246.04436 c -2.48957,-0.58184 -6.80661,-3.65557 -10.8343,-7.71398 -6.04874,-6.09498 -12.11302,-14.89198 -12.11302,-17.5716 0,-2.46044 9.97424,-15.04245 14.82456,-18.70049 4.21475,-3.17866 5.71249,-3.38694 8.2615,-1.14888 2.46895,2.16774 4.07493,6.13688 5.67601,14.02789 0.89842,4.42803 0.88186,24.20004 -0.022,27.31315 -0.99498,3.42343 -2.67319,4.52273 -5.79186,3.79391 z M -33.618433,234.37733 c -7.794708,-1.41117 -10.777817,-7.57456 -7.527275,-15.55204 4.084172,-10.02333 7.754111,-15.58203 10.336025,-15.65542 1.894671,-0.0537 2.367697,0.29575 3.558686,2.6303 2.432913,4.76889 3.042627,10.83766 1.667303,16.59505 -0.782005,3.27362 -4.803133,11.7701 -5.717445,12.08069 -0.338956,0.11517 -1.381747,0.0708 -2.317294,-0.0986 z M 191.39958,218.03047 c -6.11504,-0.44194 -16.18193,-2.53263 -21.384,-4.441 -5.70551,-2.09304 -7.29002,-2.76169 -7.29002,-3.07638 0,-0.17964 2.46297,-2.81148 5.47325,-5.84868 4.67231,-4.71403 8.0303,-7.80366 14.97442,-13.7777 1.79629,-1.54535 8.09244,-5.742 10.65634,-7.10288 3.03488,-1.6109 9.06714,-1.61106 13.608,-3.8e-4 8.17183,2.8986 17.98831,9.00108 24.15303,15.01484 3.97315,3.8759 6.95097,7.7469 6.95097,9.03593 0,0.72227 -6.54386,4.18705 -7.90797,4.18705 -0.3551,0 -0.85339,0.17938 -1.10732,0.3985 -0.25404,0.21904 -2.10197,0.90169 -4.10671,1.51672 -2.00474,0.61503 -4.19174,1.28713 -4.86,1.49349 -1.34928,0.41675 -5.04441,1.15745 -9.47699,1.89975 -3.30289,0.55309 -15.64581,0.99253 -19.683,0.70074 z m 269.16192,-3.43825 c -1.40427,-1.49556 -3.53541,-5.61255 -5.23029,-10.10392 -1.22079,-3.23504 -1.60983,-4.24326 -2.38193,-6.17287 -0.46667,-1.16626 -0.2973,-1.65471 1.51661,-4.374 2.63751,-3.95401 7.4305,-8.73249 9.5049,-9.47605 1.4695,-0.52676 1.73428,-0.47479 2.74851,0.53942 0.84282,0.84287 1.20859,1.92759 1.4686,4.35587 0.36109,3.37163 -0.0389,11.29066 -0.73978,14.64163 -1.39325,6.66252 -1.74975,7.96871 -2.65315,9.71997 -1.24655,2.4166 -2.53301,2.68097 -4.23347,0.86995 z M 138.05243,166.3755 c -1.32025,-0.44697 -3.90871,-1.91042 -5.75216,-3.25213 -3.73685,-2.71979 -8.34284,-5.48873 -13.7833,-8.28594 l -3.62759,-1.86516 0.14134,-4.65737 c 0.16669,-5.49945 -0.60401,-8.667 -3.13696,-12.89123 -3.23585,-5.39642 -7.27407,-8.62641 -13.358761,-10.68498 -7.940596,-2.68651 -17.139359,-0.467 -23.271831,5.61502 -2.628642,2.60705 -5.849503,7.81991 -5.849503,9.46725 0,0.44362 -0.317021,1.41963 -0.704498,2.16892 l -0.704469,1.36232 -7.193036,0.32909 c -12.651234,0.57881 -27.783175,3.00691 -41.212995,6.6131 -7.519562,2.01918 -11.5997159,3.25149 -17.471396,5.27685 -2.39216224,0.82515 -4.4663859,1.38326 -4.6093572,1.24029 -0.2490777,-0.24908 4.4636814,-4.94352 7.513497,-7.48423 3.9714534,-3.30855 11.3627332,-8.262 12.3280462,-8.262 0.230611,0 0.694248,-0.33144 1.030419,-0.73652 0.502121,-0.60501 0.442824,-0.88698 -0.332125,-1.57949 -1.289907,-1.15267 -5.894198,-6.65294 -8.2590528,-9.86629 -3.1448691,-4.27317 -5.5090377,-7.71306 -5.5090377,-8.01567 0,-0.15512 -0.622224,-1.19611 -1.3826799,-2.31349 -8.3836674,-12.31807 -19.9470866,-41.17883 -24.3753096,-60.837561 -0.30107,-1.336497 -0.735961,-3.195455 -0.966442,-4.131009 -0.864827,-3.510391 -2.039538,-10.105522 -2.856674,-16.037993 -0.276101,-2.004735 -0.776436,-5.613294 -1.111805,-8.019008 -0.374495,-2.686226 -0.603546,-9.624812 -0.593655,-17.981973 0.01655,-13.394915 0.220421,-15.9542081 2.174739,-27.216012 1.468155,-8.459986 4.638372,-18.230944 8.460818,-26.077004 1.523012,-3.126134 2.09839,-6.873778 1.218166,-7.93437 -2.37108,-2.856965 -14.517496,3.279166 -33.176659,16.760235 -1.536983,1.110457 -2.794508,1.803881 -2.794508,1.540945 0,-0.855765 8.050557,-12.775221 14.500295,-21.468809 0.892405,-1.202845 2.095525,-2.82598 2.673607,-3.606933 1.326117,-1.791396 7.225105,-9.189912 7.586601,-9.51507 0.148505,-0.133626 1.004737,-1.117808 1.902573,-2.187 0.89783,-1.069208 3.952332,-4.32429 6.787785,-7.233502 14.9643416,-15.353662 27.965743,-22.655506 40.339687,-22.655506 2.370723,0 4.944479,0.193149 5.719428,0.4293 0.774978,0.236124 2.393176,0.716175 3.596018,1.066815 7.785393,2.269458 16.509007,9.31419 24.172314,19.520217 3.824874,5.093986 6.445686,8.899244 6.445686,9.358684 0,0.170821 0.622224,1.225085 1.38268,2.342423 4.614701,6.780372 15.443406,29.369971 21.941333,45.771577 0.847171,2.138398 1.827056,4.544084 2.177523,5.345984 0.350474,0.801922 1.226047,2.988922 1.945723,4.8600018 0.719676,1.8711099 1.594367,4.0581099 1.943761,4.8600027 0.349396,0.8018928 1.991432,4.9572072 3.64901,9.2340027 1.657542,4.2767948 3.191905,8.2133948 3.40965,8.7479998 0.217665,0.534605 0.762279,1.956162 1.210035,3.159005 0.44776,1.202842 1.10089,2.843085 1.45143,3.645014 0.35052,0.801893 2.10087,5.175893 3.88967,9.719976 1.78881,4.544111 3.58401,9.02747 3.98934,9.963024 0.40533,0.935526 0.92707,2.138398 1.15939,2.672974 0.23227,0.534604 1.43475,3.377719 2.67201,6.318009 3.81113,9.05695 5.67264,13.128751 10.19873,22.308232 5.08294,10.308781 7.60313,14.932019 12.34516,22.646763 3.17516,5.16565 8.00106,11.749846 12.28938,16.767006 13.24781,15.49933 28.48275,22.567 44.5635,20.67355 2.25571,-0.2656 4.19895,-0.38527 4.31834,-0.26589 0.72706,0.7271 -5.65804,7.52378 -9.14864,9.73836 -2.68962,1.70643 -6.13358,3.39764 -9.14481,4.49077 -3.32783,1.20805 -16.63912,1.16741 -20.7442,-0.0634 -5.15586,-1.54576 -5.10299,-1.54409 -5.10299,-0.16118 0,1.25905 -0.69704,5.05207 -1.49085,8.11275 -2.87773,11.09551 -7.16914,15.29064 -13.46231,13.1602 z m 119.96682,-0.91205 c -3.35091,-1.66639 -3.31016,-5.93519 0.13749,-14.40811 0.97283,-2.3908 1.7688,-4.52314 1.7688,-4.73849 0,-0.21546 -0.82013,-0.39696 -1.8225,-0.40351 -2.15083,-0.0138 -6.8602,-1.51207 -9.09392,-2.8926 -3.47535,-2.14787 -7.3329,-7.25577 -8.6235,-11.41863 -0.85931,-2.77176 -1.8208,-7.67733 -1.58083,-8.06558 0.13197,-0.21353 1.05611,0.36218 2.05377,1.27914 1.94735,1.78977 5.20067,3.53243 9.10399,4.87661 4.89279,1.68497 15.00492,0.94328 21.87,-1.60406 15.13164,-5.61473 25.23587,-13.24585 41.69774,-31.491943 2.41163,-2.673003 5.27924,-5.848374 6.37251,-7.056421 1.09327,-1.208026 3.4051,-3.832426 5.13745,-5.832014 1.73233,-1.99956 3.26322,-3.744918 3.402,-3.878543 0.13886,-0.133633 2.32073,-2.539377 4.84881,-5.346005 4.43751,-4.926466 17.36447,-18.256763 22.86249,-23.575853 12.62792,-12.216946 27.97985,-22.861535 39.60898,-27.463814 5.74279,-2.272716 6.94547,-2.633381 14.56736,-4.368766 3.68416,-0.838816 15.39979,-0.70554 19.91222,0.226486 8.81461,1.820685 16.82002,5.328122 24.97735,10.943318 7.35203,5.060922 7.98166,5.885079 3.72309,4.873671 -9.30656,-2.210306 -17.43671,-2.467927 -20.91531,-0.662697 -2.1625,1.122252 -3.63109,3.628145 -4.61962,7.882596 -0.74261,3.196039 -0.77154,12.906567 -0.0452,15.234249 0.27469,0.880975 1.27467,4.444837 2.22193,7.919739 0.94727,3.474896 2.0863,7.63021 2.53124,9.234003 1.04158,3.75475 1.20066,15.142168 0.25129,17.982003 -1.8635,5.573642 -4.52265,9.775171 -10.76555,17.009991 -2.3065,2.673 -6.1066,7.26571 -8.44468,10.20601 -2.33807,2.94029 -4.52215,5.67899 -4.85352,6.08596 -1.94458,2.38835 -3.76693,5.4766 -3.55602,6.02623 0.13473,0.35075 1.62961,1.31385 3.32224,2.14022 1.69265,0.82633 4.11004,2.11291 5.37199,2.85901 5.12437,3.0297 13.05616,9.46561 12.4442,10.0973 -0.17992,0.18599 -1.82025,0.079 -3.64499,-0.23722 -20.18261,-3.49923 -35.38457,-4.84083 -54.97044,-4.85129 -10.17786,-0.005 -13.30236,-0.14824 -13.4465,-0.61456 -0.10331,-0.33415 -0.5794,-1.91972 -1.05807,-3.52351 -2.14,-7.17014 -7.23296,-12.53529 -14.51868,-15.29465 -4.32787,-1.6391 -11.53447,-1.66121 -15.55199,-0.0477 -5.99743,2.40871 -10.09605,5.94052 -12.86644,11.08709 -2.0457,3.8003 -2.60101,5.97366 -2.69558,10.54935 l -0.0898,4.35015 -1.89405,0.58587 c -15.60896,4.82809 -19.81707,6.35934 -28.86706,10.50399 -6.59854,3.02196 -11.95946,4.91668 -17.00982,6.01184 -4.00146,0.86772 -5.19009,0.83679 -7.25249,-0.18873 z M 338.17157,40.628396 c 0,-0.255968 0.76544,-1.736464 1.70099,-3.29008 0.93556,-1.553645 1.701,-2.885295 1.701,-2.959244 0,-0.954152 13.67813,-21.478476 18.52184,-27.7924106 16.59197,-21.6281974 31.56315,-33.3245694 47.41976,-37.0470834 3.43062,-0.80537 12.43955,-0.72588 15.71927,0.13859 5.11401,1.348154 9.76025,3.511076 14.5514,6.773959 5.46734,3.723426 15.16062,14.8841894 19.40987,22.34837 2.38855,4.1957595 3.93361,7.271556 3.92497,7.8135238 -0.005,0.3069892 -1.37177,-0.8639744 -3.0375,-2.6021359 -3.66302,-3.8222856 -5.10775,-5.0620527 -8.87899,-7.6192749 -11.93464,-8.092826 -25.14773,-9.963353 -40.80563,-5.776713 -3.4008,0.9093258 -4.76607,1.381302 -9.11249,3.1503303 -0.60143,0.244944 -3.4992,1.6005114 -6.43949,3.012723 -15.6109,7.497765 -32.03295,20.4038357 -49.69349,39.0539947 -2.73985,2.893344 -4.98151,5.05125 -4.98151,4.795341 z M 94.178852,-63.371918 c -0.583076,-1.295692 -1.601591,-3.558654 -2.263348,-5.028812 -6.327822,-14.057343 -15.120816,-28.957212 -22.657787,-38.394 -4.008297,-5.01864 -12.466191,-13.37094 -16.854137,-16.64374 -6.195866,-4.62123 -14.002939,-8.24298 -21.87,-10.14567 -3.460213,-0.83686 -15.47156,-0.8495 -18.711017,-0.0194 -1.336475,0.34238 -3.3047907,0.83973 -4.3739781,1.10524 -2.9853648,0.74135 -6.87964594,2.25973 -11.4059268,4.4472 -3.7777068,1.82567 -8.6618161,4.59304 -9.2490771,5.24057 -0.133633,0.1474 -1.008454,0.79227 -1.944009,1.43315 -2.454455,1.68135 -8.355157,6.50242 -10.560309,8.62809 -4.025684,3.88059 -4.593954,4.32294 -4.201329,3.27043 0.197005,-0.52833 0.786876,-1.72602 1.310684,-2.66157 0.523808,-0.93556 1.499094,-2.68516 2.167274,-3.888 6.597172,-11.87598 16.389288,-25.9283 24.3835241,-34.99199 4.3328916,-4.91252 3.8057805,-4.38247 8.0411616,-8.08638 9.5328193,-8.3366 17.4843503,-11.98713 26.2440003,-12.04855 5.61459,-0.0394 8.22301,0.58625 13.27283,3.18344 11.516166,5.923 23.724765,22.69394 32.180706,44.20664 0.569407,1.44861 1.327903,3.28994 1.685565,4.09183 0.736238,1.65077 2.866835,7.61561 5.034277,14.09401 1.266739,3.78633 4.510549,14.93533 5.868187,20.16901 1.023859,3.947067 1.462251,5.723082 1.979439,8.019009 0.301048,1.336491 0.748581,3.19543 0.994524,4.130972 0.946847,3.602005 2.466601,11.766911 2.233532,11.999948 -0.134457,0.13446 -0.721717,-0.815427 -1.304786,-2.11112 z"
             id="path5333"
             inkscape:connector-curvature="0" />
        </g>
      </g>
    </g>
  </g>
</svg>
