<?xml version="1.0" encoding="UTF-8" standalone="no"?>
<!-- Created with Inkscape (http://www.inkscape.org/) -->

<svg
   xmlns:dc="http://purl.org/dc/elements/1.1/"
   xmlns:cc="http://creativecommons.org/ns#"
   xmlns:rdf="http://www.w3.org/1999/02/22-rdf-syntax-ns#"
   xmlns:svg="http://www.w3.org/2000/svg"
   xmlns="http://www.w3.org/2000/svg"
   xmlns:sodipodi="http://sodipodi.sourceforge.net/DTD/sodipodi-0.dtd"
   xmlns:inkscape="http://www.inkscape.org/namespaces/inkscape"
   width="210mm"
   height="297mm"
   viewBox="0 0 210 297"
   version="1.1"
   id="svg8"
   inkscape:version="0.92.2 5c3e80d, 2017-08-06"
   sodipodi:docname="crossbones.svg">
  <defs
     id="defs2">
    <clipPath
       id="clipPath45"
       clipPathUnits="userSpaceOnUse">
      <path
         inkscape:connector-curvature="0"
         id="path43"
         d="M 0,864 H 864 V 0 H 0 Z" />
    </clipPath>
    <clipPath
       id="clipPath3854"
       clipPathUnits="userSpaceOnUse">
      <path
         inkscape:connector-curvature="0"
         id="path3852"
         d="M 0,864 H 864 V 0 H 0 Z" />
    </clipPath>
    <clipPath
       id="clipPath4053"
       clipPathUnits="userSpaceOnUse">
      <path
         inkscape:connector-curvature="0"
         id="path4051"
         d="M 0,864 H 864 V 0 H 0 Z" />
    </clipPath>
    <clipPath
       id="clipPath4150"
       clipPathUnits="userSpaceOnUse">
      <path
         inkscape:connector-curvature="0"
         id="path4148"
         d="M 0,864 H 864 V 0 H 0 Z" />
    </clipPath>
    <clipPath
       id="clipPath4295"
       clipPathUnits="userSpaceOnUse">
      <path
         inkscape:connector-curvature="0"
         id="path4293"
         d="M 0,864 H 864 V 0 H 0 Z" />
    </clipPath>
    <clipPath
       id="clipPath4410"
       clipPathUnits="userSpaceOnUse">
      <path
         inkscape:connector-curvature="0"
         id="path4408"
         d="M 0,864 H 864 V 0 H 0 Z" />
    </clipPath>
    <clipPath
       id="clipPath4615"
       clipPathUnits="userSpaceOnUse">
      <path
         inkscape:connector-curvature="0"
         id="path4613"
         d="M 0,864 H 864 V 0 H 0 Z" />
    </clipPath>
    <clipPath
       id="clipPath4838"
       clipPathUnits="userSpaceOnUse">
      <path
         inkscape:connector-curvature="0"
         id="path4836"
         d="M 0,864 H 864 V 0 H 0 Z" />
    </clipPath>
    <clipPath
       id="clipPath5001"
       clipPathUnits="userSpaceOnUse">
      <path
         inkscape:connector-curvature="0"
         id="path4999"
         d="M 0,864 H 864 V 0 H 0 Z" />
    </clipPath>
    <inkscape:perspective
       id="perspective9"
       inkscape:persp3d-origin="372.04724 : 350.78739 : 1"
       inkscape:vp_z="744.09448 : 526.18109 : 1"
       inkscape:vp_y="0 : 1000 : 0"
       inkscape:vp_x="0 : 526.18109 : 1"
       sodipodi:type="inkscape:persp3d" />
  </defs>
  <sodipodi:namedview
     id="base"
     pagecolor="#000000"
     bordercolor="#666666"
     borderopacity="1.0"
     inkscape:pageopacity="0"
     inkscape:pageshadow="2"
     inkscape:zoom="0.91846942"
     inkscape:cx="396.85039"
     inkscape:cy="556.87007"
     inkscape:document-units="mm"
     inkscape:current-layer="g5136"
     showgrid="false"
     inkscape:window-width="2560"
     inkscape:window-height="1385"
     inkscape:window-x="2560"
     inkscape:window-y="27"
     inkscape:window-maximized="1"
     showguides="true"
     inkscape:guide-bbox="true">
    <sodipodi:guide
       position="105.43356,205.96993"
       orientation="1,0"
       id="guide3815"
       inkscape:locked="false" />
    <sodipodi:guide
       position="92.758485,149.50825"
       orientation="0,1"
       id="guide3817"
       inkscape:locked="false" />
  </sodipodi:namedview>
  <metadata
     id="metadata5">
    <rdf:RDF>
      <cc:Work
         rdf:about="">
        <dc:format>image/svg+xml</dc:format>
        <dc:type
           rdf:resource="http://purl.org/dc/dcmitype/StillImage" />
        <dc:title></dc:title>
      </cc:Work>
    </rdf:RDF>
  </metadata>
  <g
     inkscape:label="Layer 1"
     inkscape:groupmode="layer"
     id="layer1">
    <g
       transform="matrix(0.35277777,0,0,-0.35277777,-70.777455,287.43463)"
       inkscape:label="1"
       id="g37">
      <g
         id="g39">
        <g
           id="g5136"
           transform="matrix(0.75000002,0,0,-0.75000002,342.50983,505.50165)"
           style="fill:#ffeeaa">
          <path
             style="fill:#ffeeaa;stroke-width:1.72916186"
             d="m 222.71577,336.90109 c -3.98471,-0.46562 -4.34239,-1.21057 -4.32287,-9.00426 0.0215,-9.5059 2.42145,-12.81123 28.96617,-39.93047 l 13.38247,-13.67216 h 29.58515 29.58505 l 4.63097,4.75523 c 5.79728,5.95274 11.23968,9.07807 15.80812,9.07807 1.94484,0 3.97633,1.14716 4.51436,2.54931 0.97834,2.55038 -2.94772,7.82564 -5.82477,7.82564 -0.83908,0 -3.07454,1.36176 -4.96672,3.02602 -6.29488,5.5373 -36.73642,21.18229 -41.21558,21.18229 -1.47592,0 -2.68379,0.69012 -2.68379,1.5329 0,0.8431 -2.13983,1.94624 -4.75518,2.45139 -2.61539,0.50484 -7.86768,1.81937 -11.67178,2.92046 -17.03813,4.93134 -41.40514,8.41019 -51.0316,7.28558 z m -77.7909,-6.81035 c -2.37768,-0.43721 -5.10109,-1.38515 -6.05217,-2.10688 -0.95091,-0.7215 -5.42527,-2.37322 -9.94263,-3.6701 -4.51745,-1.29693 -8.21352,-2.96629 -8.21352,-3.7097 0,-0.74305 -1.10014,-1.35166 -2.44461,-1.35166 -2.98062,0 -24.128629,-10.58265 -24.933763,-12.47719 -0.316646,-0.74604 -1.344024,-1.35609 -2.282258,-1.35609 -1.58015,0 -16.805484,-9.75233 -18.755932,-12.01379 -0.475407,-0.55092 -5.102827,-4.49326 -10.282946,-8.75989 -11.144084,-9.17886 -17.373432,-15.23071 -17.410296,-16.91422 -0.0064,-0.66954 -3.905244,-5.45749 -8.645845,-10.63875 -4.740504,-5.1812 -8.619082,-10.43354 -8.619082,-11.67174 0,-1.23836 -0.583305,-2.2575 -1.296854,-2.26494 -0.713691,-0.003 -2.107413,-1.75818 -3.098,-3.89056 -0.990497,-2.13245 -3.422639,-6.98965 -5.40466,-10.79382 -5.492212,-10.54132 -10.5284377,-21.99609 -11.78386,-26.80192 -0.6215022,-2.37765 -1.930203,-7.0464 -2.9093372,-10.37507 -5.6031646,-19.05008 -7.120982,-52.46324 -3.33826789,-73.48928 1.1977372,-6.65727 2.58871469,-14.64026 3.09121119,-17.73999 0.5029244,-3.099706 1.6057613,-6.06354 2.4516602,-6.586321 0.8460166,-0.52255 1.5381223,-2.314827 1.5381223,-3.982126 0,-3.057002 4.0237124,-12.555267 10.7158814,-25.295641 1.998284,-3.80417 4.489843,-8.661321 5.536836,-10.793675 1.046941,-2.132509 2.487148,-3.883222 3.200414,-3.890679 0.713656,-0.0064 1.296854,-1.033919 1.296854,-2.281187 0,-1.24726 1.361764,-3.77675 3.026022,-5.621206 1.66438,-1.844364 5.3472,-6.465355 8.18416,-10.268687 6.057419,-8.120909 28.493612,-30.2588942 30.666496,-30.2588942 1.673878,0 5.343366,-2.7976069 9.639596,-7.349003 1.570955,-1.6642788 3.461495,-3.026043 4.20118,-3.026043 2.818635,0 1.137291,3.5533477 -4.274894,9.03475645 C 75.69353,2.8767814 71.219309,8.3442841 68.841637,11.896337 c -2.377539,3.552054 -4.906439,6.463684 -5.619709,6.470168 -0.713682,0.0051 -1.296887,1.568098 -1.296887,3.470091 0,1.902096 -0.623466,3.458344 -1.384603,3.458344 -1.718149,0 -8.990305,14.723727 -8.990305,18.202455 0,1.401165 -0.607793,2.547549 -1.351657,2.547549 -0.743075,0 -2.330614,3.696067 -3.527076,8.213448 -1.196445,4.517461 -2.922606,10.603129 -3.835844,13.523785 -2.632123,8.417958 -2.018374,41.356353 0.959702,51.486003 3.996544,13.59495 4.770907,14.3834 11.674167,11.88717 3.210318,-1.1609 7.532528,-2.11076 9.60479,-2.11076 3.557549,0 3.767821,-0.77343 3.767821,-13.85669 0,-7.62121 0.655837,-15.20784 1.456566,-16.859259 0.800876,-1.651452 3.318463,-6.893296 5.594251,-11.648401 2.275793,-4.755209 5.121955,-9.674109 6.324767,-10.93079 1.202837,-1.256746 2.18687,-3.001911 2.18687,-3.878209 0,-3.092366 23.63523,-25.463691 30.72211,-29.079202 7.42095,-3.78585 22.88198,-5.093091 22.88198,-1.934648 0,0.950937 1.06107,1.7292 2.35795,1.7292 6.09576,0 18.69714,18.93785 22.43658,33.718612 2.00827,7.937981 2.22668,46.967367 0.31662,56.630097 -0.70482,3.56637 -1.97451,6.48437 -2.82151,6.48437 -0.84699,0 -1.53996,1.2695 -1.53996,2.82126 0,3.11568 -12.52822,16.27119 -18.47491,19.39985 -6.20525,3.26476 -29.46559,2.53 -34.86222,-1.10126 -2.52443,-1.69859 -6.83032,-4.21831 -9.568617,-5.59935 -2.738318,-1.38097 -8.086804,-5.43808 -11.885535,-9.01572 -5.173295,-4.87216 -8.372148,-6.50478 -12.745127,-6.50478 -3.211092,0 -5.838325,0.77838 -5.838325,1.72917 0,0.95089 -2.334414,1.72905 -5.187532,1.72905 -7.418609,0 -6.563793,7.05943 1.963051,16.21195 1.773397,1.90355 3.224481,4.48148 3.224481,5.72864 0,1.24725 0.907755,2.26776 2.016385,2.26776 1.108936,0 3.248864,1.19165 4.755078,2.64821 6.289815,6.08183 13.254926,11.18096 15.275198,11.18286 1.188891,0.001 2.161533,0.78036 2.161533,1.73138 0,0.95091 1.510388,1.72917 3.356309,1.72917 1.84591,0 3.83713,0.77838 4.424926,1.72916 0.588203,0.95088 2.968075,1.72909 5.289585,1.72909 2.32147,0 4.22082,0.69996 4.22082,1.55506 0,1.74086 9.59382,3.22053 30.49093,4.70256 13.04029,0.92446 14.22952,1.33119 16.33937,5.58343 4.00584,8.07378 10.33138,15.8256 12.91377,15.8256 1.37816,0 2.50576,0.77838 2.50576,1.7292 0,3.27562 20.21321,1.97151 26.80199,-1.7292 4.16947,-2.34187 9.36238,-3.45832 16.08566,-3.45832 8.35922,0 10.87883,-0.77939 15.94212,-4.93255 3.30759,-2.71283 10.29348,-5.97609 15.52415,-7.25176 12.70885,-3.09929 17.86803,-6.92337 22.42784,-16.62385 3.61403,-7.68879 3.89634,-13.22498 1.01638,-19.93414 -0.84504,-1.96897 -0.004,-3.9395 2.56649,-6.05217 2.1007,-1.7228 5.63186,-4.88321 7.84659,-7.02306 2.21492,-2.13982 4.81325,-3.89066 5.77396,-3.89066 0.96071,0 2.57978,-1.55624 3.59779,-3.45836 1.0179,-1.90195 2.93824,-3.45822 4.26724,-3.45822 1.32904,0 2.91025,-1.55625 3.51401,-3.45835 0.60387,-1.90212 1.84768,-3.45837 2.76446,-3.45837 0.91662,0 2.17211,-1.36174 2.78954,-3.026 0.61756,-1.66426 2.3491,-4.19319 3.84829,-5.61973 1.49897,-1.42658 3.82416,-4.73364 5.16723,-7.349 1.34301,-2.61533 3.08847,-4.75523 3.87877,-4.75523 0.79014,0 1.43709,-1.81553 1.43709,-4.03467 0,-2.21911 0.53324,-4.56796 1.18499,-5.21978 6.79502,-6.794928 7.89895,-43.554475 1.84436,-61.414079 -2.13799,-6.306665 -4.47238,-11.726004 -5.18755,-12.04296 -0.7156,-0.316618 -1.30017,-2.067867 -1.30017,-3.890647 0,-1.822804 -0.58822,-3.314258 -1.30697,-3.314258 -0.71852,0 -2.34046,-2.334315 -3.60334,-5.187409 -2.35206,-5.313692 -5.46463,-6.976775 -5.46463,-2.919851 0,1.247229 -1.55626,3.938106 -3.45836,5.979796 -3.39726,3.646466 -4.6849,12.428599 -2.18845,14.925152 2.91663,2.916537 4.9957,20.346473 3.47914,29.167234 -2.96479,17.244863 -9.36237,33.773205 -15.21433,39.305682 -1.5089,1.42655 -3.24856,3.95554 -3.86606,5.6198 -0.6176,1.66434 -2.31404,3.02599 -3.77058,3.02599 -1.45625,0 -2.6479,0.7784 -2.6479,1.72915 0,0.95093 -1.51037,1.72921 -3.35625,1.72921 -1.84607,0 -3.8372,0.77839 -4.42498,1.72916 -0.58822,0.95094 -7.34599,1.72914 -15.01837,1.72914 -19.72283,0 -31.88214,-6.22407 -52.41895,-26.831895 C 186.12322,80.256835 182.82207,75.62494 175.50237,60.742751 164.56169,38.498573 162.7584,22.849455 170.00232,13.014296 c 2.38011,-3.2315969 4.8052,-7.23727 5.38918,-8.9015447 0.58429,-1.6643792 2.52713,-3.0260175 4.31835,-3.0260175 1.79114,0 3.25659,-0.65388185 3.25659,-1.45301425 0,-0.79897505 4.19808,-2.46011035 9.32903,-3.69097185 9.82188,-2.3562839 28.42284,-1.6577121 46.00419,1.7275896 5.23067,1.0071732 12.03923,2.27304765 15.13015,2.81301565 3.09081,0.54014735 5.61982,1.67464995 5.61982,2.52166205 0,0.8469857 1.40384,1.5399582 3.11976,1.5399582 1.71584,0 6.8007,2.33442 11.29954,5.1875109 4.49899,2.8531159 9.22556,5.1875369 10.50377,5.1875369 1.27813,0 3.2908,-2.334421 4.47267,-5.1875369 1.18187,-2.8530909 2.83245,-5.1875109 3.66803,-5.1875109 7.03317,0 -13.91995,-23.1569342 -26.1472,-28.8975362 -3.32863,-1.562805 -8.11746,-4.259469 -10.64176,-5.992658 -2.5245,-1.733295 -5.83157,-3.151294 -7.34912,-3.151294 -1.51746,0 -2.75903,-0.778382 -2.75903,-1.729196 0,-0.950892 -2.33435,-1.72917 -5.18756,-1.72917 -2.85308,0 -5.18742,-0.778355 -5.18742,-1.72917 0,-0.950892 -2.33439,-1.729172 -5.18749,-1.729172 -2.85309,0 -5.1875,-0.723471 -5.1875,-1.608871 0,-0.885244 -1.75076,-1.911717 -3.89058,-2.281792 -3.56754,-0.617597 -3.47403,-0.792078 1.12558,-2.102462 3.09409,-0.881304 7.11679,-0.669548 10.49778,0.552881 3.01485,1.090202 8.30756,1.98219 11.76167,1.98219 3.45419,0 8.06767,0.703866 10.25219,1.564208 2.18465,0.860708 8.64076,2.543711 14.34705,3.740667 5.70611,1.19696 13.43902,3.605591 17.18409,5.352398 3.74501,1.746834 8.17327,3.176012 9.84059,3.176012 1.66732,0 3.51247,0.778381 4.10024,1.729171 0.58819,0.950919 2.57901,1.72909 4.42485,1.72909 1.84602,0 3.35637,0.778357 3.35637,1.729172 0,0.950892 1.36167,1.746521 3.02593,1.767584 1.66439,0.02079 4.97148,1.560188 7.34902,3.419927 2.37758,1.859738 5.68465,3.398737 7.34903,3.419823 1.66425,0.02079 3.0259,0.634248 3.0259,1.363117 0,1.109523 9.06208,7.8093676 20.42736,15.10240345 5.22898,3.35541805 32.92948,31.90189855 35.99931,37.09874155 1.71077,2.896123 3.72078,5.265743 4.4669,5.265743 0.74602,0 1.35625,1.020494 1.35625,2.267661 0,1.247239 1.36176,3.776966 3.02615,5.621479 3.87634,4.296524 10.80715,17.639062 10.80715,20.805392 0,1.336757 0.77836,2.430392 1.72916,2.430392 0.95092,0 1.72921,1.556236 1.72921,3.458312 0,1.902012 0.77835,3.458261 1.72914,3.458261 0.95091,0 1.72916,2.288448 1.72916,5.085444 0,2.797069 0.68818,5.510939 1.52976,6.030924 0.84115,0.520542 1.95281,3.094865 2.4698,5.721849 0.51665,2.626966 2.16219,10.612306 3.65583,17.745066 3.00144,14.33431 3.64165,47.85931 1.13271,59.32273 -0.87246,3.98748 -2.55321,11.7242 -3.73439,17.19269 -1.18128,5.46846 -2.80162,9.94268 -3.60068,9.94268 -0.79894,0 -1.45303,2.33432 -1.45303,5.18745 0,2.85308 -0.77837,5.18749 -1.72916,5.18749 -0.95093,0 -1.72914,1.2558 -1.72914,2.79056 0,2.46431 -6.35835,15.67186 -8.6458,17.95941 -0.47546,0.47546 -1.8372,2.61529 -3.02614,4.75511 -1.18879,2.13993 -3.13395,5.63317 -4.32285,7.76277 -1.18882,2.12978 -3.32855,5.05864 -4.75522,6.50871 -1.42655,1.45019 -3.45665,4.18193 -4.51141,6.07061 -3.13346,5.61118 -6.72404,4.2204 -6.75924,-2.61809 -0.0492,-9.75074 -2.56888,-17.16677 -6.59378,-19.41609 -13.52261,-7.55685 -28.90361,-8.57295 -39.82703,-2.63077 -8.42522,4.58323 -10.40875,6.30526 -11.94981,10.37503 -0.85878,2.26813 -3.10809,3.02602 -8.98132,3.02602 -4.30957,0 -7.83544,0.77837 -7.83544,1.72916 0,0.95091 -3.11249,1.72907 -6.9167,1.72907 -5.5354,0 -6.91662,-0.62836 -6.91662,-3.14638 0,-1.73063 1.75075,-4.81698 3.89062,-6.85848 7.39449,-7.05501 9.9427,-10.17835 9.9427,-12.18693 0,-1.3442 4.04451,-2.01641 12.13144,-2.01641 6.67211,0 15.15857,-0.94502 18.85866,-2.09962 12.82182,-4.00163 22.10931,-25.69017 15.93841,-37.22038 -1.05314,-1.96812 -5.65483,-5.87953 -10.22595,-8.69206 -4.57087,-2.81262 -9.46251,-6.26567 -10.87055,-7.67348 -1.40782,-1.40784 -4.2433,-3.46082 -6.30097,-4.56199 -4.58276,-2.45274 -19.53104,-2.66175 -19.53104,-0.2735 0,0.95086 -1.16726,1.72915 -2.59373,1.72915 -1.42663,0 -2.59378,0.74306 -2.59378,1.65056 0,0.90777 -1.76673,3.4366 -3.92619,5.61973 -2.15928,2.18318 -5.75038,7.08179 -7.98041,10.8858 -3.43884,5.86656 -3.8984,8.41137 -3.02718,16.76206 l 1.02706,9.84527 -12.06745,12.58074 c -6.637,6.91932 -12.06733,13.07267 -12.06733,13.67406 0,0.60189 -2.27796,3.47736 -5.06236,6.3908 -4.48108,4.689 -6.51574,5.41522 -17.72383,6.32542 -6.96392,0.56566 -18.03174,1.47814 -24.59522,2.02806 -12.05645,1.01013 -20.0559,-1.09733 -20.0559,-5.28367 0,-2.35343 -15.44504,-10.3875 -25.3659,-13.19471 -5.72931,-1.62114 -8.83601,-1.55985 -15.13021,0.29899 -4.35624,1.28625 -7.92046,2.94693 -7.92046,3.69029 0,0.74306 -1.55623,1.35164 -3.45833,1.35164 -2.51379,0 -3.45832,1.15278 -3.45832,4.22085 0,2.3215 -0.77837,4.70185 -1.7292,5.28966 -2.24755,1.38903 -2.25569,11.23946 -0.003,11.23946 1.02805,0 1.59477,5.81534 1.40901,14.45636 -0.28724,13.34248 0.0214,14.791 4.03224,18.79925 6.68706,6.68723 10.78485,8.24445 21.68869,8.24223 8.23042,-10e-4 10.9686,-0.78625 15.08054,-4.3229 2.76322,-2.37647 5.64384,-4.32083 6.40125,-4.32083 0.75778,0 3.78625,-3.50159 6.73073,-7.78124 l 5.35364,-7.78122 h 12.02108 c 14.73735,0 15.37212,1.92748 4.28537,13.01422 -6.68514,6.68506 -8.74,7.74918 -15.13013,7.83535 -14.79264,0.19892 -30.40222,11.69102 -36.85829,27.13465 -2.36324,5.65326 -3.58711,6.06636 -12.90071,4.35399 z"
             id="path6497-2"
             inkscape:connector-curvature="0"
             sodipodi:nodetypes="ccccsccccscscssccccccsscsccccsccccccccscccscsscscccssssccccsscccscssccssccccssscssccsscssccsscsccccccscscscccsscccsscscccccssscsccccsscccsscscsccsssssscccscscscsscccsscsscssssscccccsssssccccccscsssscsscccccssscccccscccsccssscsccccsccsccc" />
        </g>
      </g>
    </g>
  </g>
</svg>
