<?xml version="1.0" encoding="UTF-8" standalone="no"?>
<!-- Created with Inkscape (http://www.inkscape.org/) -->

<svg
   xmlns:dc="http://purl.org/dc/elements/1.1/"
   xmlns:cc="http://creativecommons.org/ns#"
   xmlns:rdf="http://www.w3.org/1999/02/22-rdf-syntax-ns#"
   xmlns:svg="http://www.w3.org/2000/svg"
   xmlns="http://www.w3.org/2000/svg"
   xmlns:sodipodi="http://sodipodi.sourceforge.net/DTD/sodipodi-0.dtd"
   xmlns:inkscape="http://www.inkscape.org/namespaces/inkscape"
   width="210mm"
   height="297mm"
   viewBox="0 0 210 297"
   version="1.1"
   id="svg8"
   inkscape:version="0.92.2 5c3e80d, 2017-08-06"
   sodipodi:docname="ghost3.svg">
  <defs
     id="defs2">
    <clipPath
       id="clipPath106"
       clipPathUnits="userSpaceOnUse">
      <path
         inkscape:connector-curvature="0"
         id="path104"
         d="M 0,864 H 864 V 0 H 0 Z" />
    </clipPath>
  </defs>
  <sodipodi:namedview
     id="base"
     pagecolor="#000000"
     bordercolor="#666666"
     borderopacity="1.0"
     inkscape:pageopacity="0"
     inkscape:pageshadow="2"
     inkscape:zoom="0.98994949"
     inkscape:cx="291.36527"
     inkscape:cy="554.28571"
     inkscape:document-units="mm"
     inkscape:current-layer="layer1"
     showgrid="false"
     showguides="true"
     inkscape:guide-bbox="true"
     inkscape:window-width="2560"
     inkscape:window-height="1385"
     inkscape:window-x="2560"
     inkscape:window-y="27"
     inkscape:window-maximized="1">
    <sodipodi:guide
       position="104.76965,149.1364"
       orientation="1,0"
       id="guide10"
       inkscape:locked="false" />
    <sodipodi:guide
       position="56.661139,148.86913"
       orientation="0,1"
       id="guide12"
       inkscape:locked="false" />
  </sodipodi:namedview>
  <metadata
     id="metadata5">
    <rdf:RDF>
      <cc:Work
         rdf:about="">
        <dc:format>image/svg+xml</dc:format>
        <dc:type
           rdf:resource="http://purl.org/dc/dcmitype/StillImage" />
        <dc:title></dc:title>
      </cc:Work>
    </rdf:RDF>
  </metadata>
  <g
     inkscape:label="Layer 1"
     inkscape:groupmode="layer"
     id="layer1">
    <g
       transform="matrix(0.2032,0,0,-0.2032,63.200446,231.31105)"
       id="g619"
       style="fill:#ffeeaa" />
    <g
       transform="matrix(0.2032,0,0,-0.2032,135.79572,96.248929)"
       id="g747"
       style="fill:#ffeeaa">
      <path
         inkscape:connector-curvature="0"
         id="path749"
         style="fill:#ffeeaa;fill-opacity:1;fill-rule:nonzero;stroke:none"
         d="m 0,0 c -7.697,41.561 -55.412,84.656 -115.438,40.021 0,0 83.114,9.233 115.438,-40.021" />
    </g>
    <g
       transform="matrix(0.2032,0,0,-0.2032,90.758348,92.182551)"
       id="g751"
       style="fill:#ffeeaa">
      <path
         inkscape:connector-curvature="0"
         id="path753"
         style="fill:#ffeeaa;fill-opacity:1;fill-rule:nonzero;stroke:none"
         d="m 0,0 c 0,0 -38.482,15.395 -67.725,-10.775 -29.246,-26.164 -32.322,-70.801 -32.322,-70.801 0,0 38.481,78.498 100.047,81.576" />
    </g>
    <g
       transform="matrix(0.2032,0,0,-0.2032,93.572973,121.89539)"
       id="g755"
       style="fill:#ffeeaa">
      <path
         inkscape:connector-curvature="0"
         id="path757"
         style="fill:#ffeeaa;fill-opacity:1;fill-rule:nonzero;stroke:none"
         d="m 0,0 c -24.625,-33.859 -56.949,-49.252 -76.961,-12.313 -20.008,36.942 10.775,58.489 55.412,63.11 0,0 -49.256,32.324 -90.812,-12.313 -41.557,-44.636 -26.164,-113.9 20.011,-129.293 C -46.174,-106.201 7.699,-53.869 0,0" />
    </g>
    <g
       transform="matrix(0.2032,0,0,-0.2032,111.71335,129.40149)"
       id="g759"
       style="fill:#ffeeaa">
      <path
         inkscape:connector-curvature="0"
         id="path761"
         style="fill:#ffeeaa;fill-opacity:1;fill-rule:nonzero;stroke:none"
         d="m 0,0 c 20.008,-15.393 72.34,-20.008 95.428,18.473 23.088,38.478 47.713,104.664 -27.705,133.908 -75.42,29.244 -86.196,-50.793 -86.196,-50.793 46.176,38.48 69.264,0 69.264,-13.852 0,-13.855 4.619,-35.4 -21.549,-44.636 C 3.078,33.863 -18.473,64.648 -18.473,64.648 -18.473,64.648 -20.01,15.393 0,0" />
    </g>
    <g
       transform="matrix(0.2032,0,0,-0.2032,62.296858,150.98156)"
       id="g763"
       style="fill:#ffeeaa">
      <path
         inkscape:connector-curvature="0"
         id="path765"
         style="fill:#ffeeaa;fill-opacity:1;fill-rule:nonzero;stroke:none"
         d="M 0,0 C 0,0 1.539,-32.324 -24.627,-12.313 -50.793,7.695 -67.723,18.467 -69.264,0 c -1.539,-18.473 27.705,-47.713 35.403,-56.949 7.695,-9.237 -15.393,-9.237 -29.244,0 -13.854,9.236 -49.252,-23.088 -15.393,-29.248 33.861,-6.153 50.793,-15.389 38.478,-21.547 -12.312,-6.156 -61.566,-43.094 -36.939,-46.174 24.627,-3.08 46.174,13.854 55.41,13.854 9.236,0 55.412,27.703 55.412,67.722 C 33.863,-32.324 6.156,106.201 0,0" />
    </g>
    <g
       transform="matrix(0.2032,0,0,-0.2032,163.319,151.91978)"
       id="g767"
       style="fill:#ffeeaa">
      <path
         inkscape:connector-curvature="0"
         id="path769"
         style="fill:#ffeeaa;fill-opacity:1;fill-rule:nonzero;stroke:none"
         d="m 0,0 c -24.629,-7.695 -16.936,6.156 -12.313,46.174 4.614,40.019 -27.708,9.234 -41.56,-21.549 -13.852,-30.783 -3.078,18.469 -1.539,50.793 1.539,32.324 -24.625,40.02 -27.705,23.088 -3.08,-16.932 -9.235,-87.733 -9.235,-87.733 -55.41,66.184 -64.646,27.706 -52.334,-13.853 12.313,-41.555 36.942,-76.959 63.11,-89.272 26.164,-12.312 63.103,32.321 81.576,56.95 C 18.467,-10.771 24.625,7.693 0,0" />
    </g>
    <g
       transform="matrix(0.2032,0,0,-0.2032,130.47918,170.99875)"
       id="g771"
       style="fill:#ffeeaa">
      <path
         inkscape:connector-curvature="0"
         id="path773"
         style="fill:#ffeeaa;fill-opacity:1;fill-rule:nonzero;stroke:none"
         d="m 0,0 c -49.256,44.637 -76.961,109.285 -132.373,83.117 0,0 -60.025,-53.871 -63.104,-143.144 -3.078,-89.274 26.166,-123.135 43.096,-140.063 16.932,-16.931 60.029,-13.855 96.969,30.781 36.939,44.637 52.328,43.096 70.801,55.409 C 33.861,-101.584 49.252,-44.637 0,0" />
    </g>
  </g>
</svg>
