<?xml version="1.0" encoding="UTF-8" standalone="no"?>
<!-- Created with Inkscape (http://www.inkscape.org/) -->

<svg
   xmlns:dc="http://purl.org/dc/elements/1.1/"
   xmlns:cc="http://creativecommons.org/ns#"
   xmlns:rdf="http://www.w3.org/1999/02/22-rdf-syntax-ns#"
   xmlns:svg="http://www.w3.org/2000/svg"
   xmlns="http://www.w3.org/2000/svg"
   xmlns:sodipodi="http://sodipodi.sourceforge.net/DTD/sodipodi-0.dtd"
   xmlns:inkscape="http://www.inkscape.org/namespaces/inkscape"
   width="210mm"
   height="297mm"
   viewBox="0 0 210 297"
   version="1.1"
   id="svg8"
   inkscape:version="0.92.2 5c3e80d, 2017-08-06"
   sodipodi:docname="ghost.svg">
  <defs
     id="defs2">
    <clipPath
       id="clipPath45"
       clipPathUnits="userSpaceOnUse">
      <path
         inkscape:connector-curvature="0"
         id="path43"
         d="M 0,864 H 864 V 0 H 0 Z" />
    </clipPath>
    <clipPath
       id="clipPath3854"
       clipPathUnits="userSpaceOnUse">
      <path
         inkscape:connector-curvature="0"
         id="path3852"
         d="M 0,864 H 864 V 0 H 0 Z" />
    </clipPath>
    <clipPath
       id="clipPath4053"
       clipPathUnits="userSpaceOnUse">
      <path
         inkscape:connector-curvature="0"
         id="path4051"
         d="M 0,864 H 864 V 0 H 0 Z" />
    </clipPath>
    <clipPath
       id="clipPath4150"
       clipPathUnits="userSpaceOnUse">
      <path
         inkscape:connector-curvature="0"
         id="path4148"
         d="M 0,864 H 864 V 0 H 0 Z" />
    </clipPath>
    <clipPath
       id="clipPath4295"
       clipPathUnits="userSpaceOnUse">
      <path
         inkscape:connector-curvature="0"
         id="path4293"
         d="M 0,864 H 864 V 0 H 0 Z" />
    </clipPath>
    <clipPath
       id="clipPath4410"
       clipPathUnits="userSpaceOnUse">
      <path
         inkscape:connector-curvature="0"
         id="path4408"
         d="M 0,864 H 864 V 0 H 0 Z" />
    </clipPath>
    <clipPath
       id="clipPath4615"
       clipPathUnits="userSpaceOnUse">
      <path
         inkscape:connector-curvature="0"
         id="path4613"
         d="M 0,864 H 864 V 0 H 0 Z" />
    </clipPath>
    <clipPath
       id="clipPath4838"
       clipPathUnits="userSpaceOnUse">
      <path
         inkscape:connector-curvature="0"
         id="path4836"
         d="M 0,864 H 864 V 0 H 0 Z" />
    </clipPath>
    <clipPath
       id="clipPath5001"
       clipPathUnits="userSpaceOnUse">
      <path
         inkscape:connector-curvature="0"
         id="path4999"
         d="M 0,864 H 864 V 0 H 0 Z" />
    </clipPath>
    <inkscape:perspective
       id="perspective9"
       inkscape:persp3d-origin="372.04724 : 350.78739 : 1"
       inkscape:vp_z="744.09448 : 526.18109 : 1"
       inkscape:vp_y="0 : 1000 : 0"
       inkscape:vp_x="0 : 526.18109 : 1"
       sodipodi:type="inkscape:persp3d" />
  </defs>
  <sodipodi:namedview
     id="base"
     pagecolor="#000000"
     bordercolor="#666666"
     borderopacity="1.0"
     inkscape:pageopacity="0"
     inkscape:pageshadow="2"
     inkscape:zoom="0.91846942"
     inkscape:cx="396.85039"
     inkscape:cy="556.87007"
     inkscape:document-units="mm"
     inkscape:current-layer="g5136"
     showgrid="false"
     inkscape:window-width="2560"
     inkscape:window-height="1385"
     inkscape:window-x="2560"
     inkscape:window-y="27"
     inkscape:window-maximized="1"
     showguides="true"
     inkscape:guide-bbox="true">
    <sodipodi:guide
       position="105.43356,205.96993"
       orientation="1,0"
       id="guide3815"
       inkscape:locked="false" />
    <sodipodi:guide
       position="92.758485,149.50825"
       orientation="0,1"
       id="guide3817"
       inkscape:locked="false" />
  </sodipodi:namedview>
  <metadata
     id="metadata5">
    <rdf:RDF>
      <cc:Work
         rdf:about="">
        <dc:format>image/svg+xml</dc:format>
        <dc:type
           rdf:resource="http://purl.org/dc/dcmitype/StillImage" />
        <dc:title></dc:title>
      </cc:Work>
    </rdf:RDF>
  </metadata>
  <g
     inkscape:label="Layer 1"
     inkscape:groupmode="layer"
     id="layer1">
    <g
       transform="matrix(0.35277777,0,0,-0.35277777,-70.777455,287.43463)"
       inkscape:label="1"
       id="g37">
      <g
         id="g39">
        <g
           id="g5136"
           transform="matrix(0.75000002,0,0,-0.75000002,342.50983,505.50165)"
           style="fill:#ffeeaa">
          <path
             style="fill:#ffeeaa;stroke-width:1.07367337"
             d="m 180.80057,360.00861 c -10.43915,-1.42813 -14.512,-2.43971 -14.46422,-3.59239 0.0182,-0.40295 2.07012,-2.96777 4.56309,-5.6993 6.22704,-6.82274 7.3118,-8.20195 12.6416,-16.07215 2.56139,-3.78232 5.16686,-7.40443 5.78987,-8.04903 0.62299,-0.64462 2.34055,-2.76964 3.81689,-4.72227 7.90216,-10.45168 14.74622,-14.59393 22.38342,-13.54708 11.46103,1.57085 21.25154,8.96559 33.44758,25.26284 6.12051,8.17858 12.33267,14.92889 16.28946,17.7003 3.30844,2.3173 1.91295,3.21264 -8.36946,5.36966 -23.59912,4.95048 -54.46485,6.30905 -76.09823,3.34942 z m -71.93615,-22.19307 c -4.72414,-2.38676 -10.2804,-5.40985 -12.34722,-6.71799 -10.653472,-6.74291 -20.152614,-13.2329 -22.536201,-15.39712 -1.470253,-1.335 -3.040516,-2.42724 -3.489429,-2.42724 -0.448608,0 -0.81619,-0.44862 -0.81619,-0.99748 0,-0.54843 2.763538,-1.80088 6.14126,-2.78278 7.515574,-2.18483 12.646289,-4.72316 21.91863,-10.8438 3.9178,-2.58611 7.64979,-4.70206 8.29336,-4.70206 2.46387,0 4.29502,5.78488 7.73185,24.42608 0.62604,3.39549 1.59235,7.65742 2.14736,9.4709 0.55513,1.81348 1.00916,4.32149 1.00916,5.57343 0,1.25188 0.4833,2.57477 1.07368,2.93969 1.23869,0.76561 1.47573,5.93204 0.26843,5.85157 -0.44314,-0.0305 -4.67047,-2.0065 -9.39463,-4.3932 z m 191.12268,1.49422 c 0.43765,-1.62388 1.14023,-8.75042 1.561,-15.83665 0.95669,-16.11207 2.11626,-19.7197 7.52691,-23.41723 4.14138,-2.83012 10.42927,-2.26952 17.74515,1.58207 9.11516,4.7989 17.87406,11.62983 17.48729,13.63811 -0.45773,2.37687 -18.63054,14.31533 -32.23243,21.17479 -6.33829,3.19631 -11.83008,5.81152 -12.204,5.81152 -0.37373,0 -0.322,-1.32866 0.11616,-2.95261 z m -259.992812,-55.831 c -1.15183,-1.03337 -3.26323,-3.56995 -4.69207,-5.63678 -1.42886,-2.06684 -3.20084,-4.37938 -3.93773,-5.13904 -0.73689,-0.7596 -2.18564,-2.81304 -3.21946,-4.56309 -1.03373,-1.75006 -2.25856,-3.18196 -2.72178,-3.18196 -0.46321,0 -0.84219,-0.50949 -0.84219,-1.13255 0,-0.62294 -1.85207,-3.88421 -4.11583,-7.24733 -2.26368,-3.3631 -4.79739,-7.68496 -5.63044,-9.60413 -0.83306,-1.91923 -1.87984,-3.48941 -2.3262,-3.48941 -0.44617,0 -0.81157,-0.96631 -0.81157,-2.14737 0,-1.18105 -0.48332,-2.14736 -1.07368,-2.14736 -0.59043,0 -1.07367,-0.9663 -1.07367,-2.14735 0,-1.18106 -0.48331,-2.14736 -1.0737,-2.14736 -0.59043,0 -1.07368,-0.73129 -1.07368,-1.62504 0,-0.89381 -0.43035,-2.46406 -0.95613,-3.48947 -2.5323,-4.93746 -5.46359999,-11.94556 -6.61793989,-15.8221 -0.70341,-2.36204 -1.70277001,-5.13363 -2.22076001,-6.15905 -0.518,-1.02539 -0.94191,-2.80869 -0.94191,-3.96291 0,-1.15421 -0.42973,-2.36418 -0.95504,-2.6888 -0.52531,-0.32444 -1.22318,-2.16494 -1.5509,-4.08965 -0.32748,-1.92464 -1.1315,-5.91513 -1.7861,-8.86774 -4.2546501,-19.19019 -5.8877401,-43.14034 -4.3666001,-64.03866 1.53665,-21.11179 2.2493201,-27.05061 3.3892801,-28.24359 0.53626,-0.56122 0.97472,-2.82746 0.97472,-5.03655 0,-2.20914 0.48329,-4.31523 1.0736,-4.68021 0.59044,-0.36521 1.07369,-1.68778 1.07369,-2.93969 0,-2.41751 1.78573,-8.70681 3.35282,-11.80878 0.518,-1.02541 0.94189,-2.808698 0.94189,-3.962901 0,-1.15422 0.48332001,-2.397163 1.07370001,-2.762073 0.5904199,-0.365233 1.0736699,-1.365069 1.0736699,-2.222422 0,-1.566786 2.73036999,-8.189284 6.54007999,-15.863122 1.12713,-2.270256 2.04931,-4.806824 2.04931,-5.636768 0,-0.82996 0.36886,-1.50903 0.82039,-1.50903 0.45104,0 1.65322,-1.81184 2.67114,-4.0263 3.2379,-7.04371 16.09048,-27.42415 19.52851,-30.96651 0.62569,-0.64462 2.33442,-2.81883 3.79717,-4.83152999 1.46276,-2.01267001 8.4685,-9.47171001 15.568283,-16.57560001 12.095832,-12.10284 17.614148,-16.99043 25.680901,-22.74541 1.833101,-1.30779 3.815993,-2.75722 4.406551,-3.22104 1.135151,-0.89156 6.765784,-4.55819 14.044517,-9.14555 6.79373,-4.28169 18.65997,-10.05599 30.1989,-14.69522 12.67647,-5.09662 16.41911,-6.12184 16.41911,-4.4976 0,0.65454 -0.37557,1.19006 -0.8341,1.19006 -0.73482,0 -6.05191,5.04914 -10.17577,9.66306 -2.7692,3.09826 -7.88421,11.31921 -10.35447,16.64197 -1.37031,2.95259 -2.92174,6.20728 -3.44767,7.2327 -0.52591,1.02541 -0.95613,2.80873 -0.95613,3.96291 0,1.15421 -0.43218,2.3656 -0.96028,2.69202 -0.52834,0.32628 -1.23012,2.40832 -1.55984,4.62648 -1.77601,11.94518 -2.69775,17.09468 -3.34345,18.67853 -0.39505,0.96873 -0.88975,24.40166 -1.0995,52.07314 -0.50765,66.973476 -2.52037,90.907256 -10.23463,121.711026 -0.66541,2.65739 -1.46999,6.40628 -1.78779,8.33093 -0.31774,1.9247 -1.0077,3.76503 -1.53295,4.08964 -0.5253,0.32444 -0.95503,1.74113 -0.95503,3.1477 0,1.40663 -0.48332,2.85606 -1.0737,3.22103 -0.59043,0.36522 -1.07368,1.60794 -1.07368,2.76216 0,1.15414 -0.42669,2.9375 -0.94839,3.96285 -0.52167,1.02541 -1.43867,3.07227 -2.03786,4.54855 -3.667475,9.03567 -8.036628,18.66397 -8.769924,19.32612 -0.326871,0.29522 -1.30664,1.9863 -2.177073,3.75785 -1.666845,3.39257 -11.731776,18.94428 -12.855187,19.86298 -1.340524,1.09632 -11.072434,14.5528 -11.647466,16.10508 -0.328093,0.88578 -0.876279,1.85209 -1.218254,2.14736 -1.407426,1.21528 -7.587467,14.4042 -7.587467,16.19256 0,1.0632 -0.483298,2.23179 -1.073681,2.59677 -0.59043,0.36459 -1.07368,2.32605 -1.07368,4.35801 0,4.14992 -0.86421,4.55092 -3.91288,1.81556 z M 374.238,271.98089 c -2.85571,-4.38935 -6.15954,-9.09384 -7.34187,-10.45441 -1.18238,-1.36056 -2.9361,-3.80248 -3.89718,-5.42642 -0.96106,-1.62387 -2.12641,-2.95253 -2.58963,-2.95253 -0.46322,0 -0.84213,-0.68449 -0.84213,-1.52108 0,-0.83653 -0.40115,-1.68206 -0.89192,-1.87892 -1.24176,-0.49853 -14.13955,-19.88515 -14.13955,-21.25331 0,-0.6132 -0.36523,-1.11489 -0.81158,-1.11489 -0.44617,0 -1.49477,-1.57025 -2.32971,-3.48941 -0.83501,-1.91923 -1.79846,-3.73101 -2.14105,-4.0263 -1.26585,-1.09102 -3.30703,-5.38963 -3.30703,-6.96428 0,-0.8938 -0.4833,-1.6251 -1.07369,-1.6251 -0.59043,0 -1.07368,-0.73128 -1.07368,-1.6251 0,-0.89374 -0.42668,-2.464 -0.9484,-3.48941 -0.97685,-1.92031 -2.83786,-6.28254 -4.68886,-10.99055 -0.58008,-1.47634 -1.48205,-3.52321 -2.00371,-4.54855 -0.52164,-1.02541 -0.94841,-2.80872 -0.94841,-3.96294 0,-1.1542 -0.48331,-2.39716 -1.07368,-2.76213 -0.59043,-0.36522 -1.07367,-1.8144 -1.07367,-3.22097 0,-1.40666 -0.4833,-2.85608 -1.07362,-3.22106 -0.59044,-0.36521 -1.07368,-2.05599 -1.07368,-3.75785 0,-1.70184 -0.42975,-3.35988 -0.95504,-3.68456 -0.52532,-0.32443 -1.21514,-2.16494 -1.53295,-4.08964 -0.31775,-1.92465 -1.12621,-5.67354 -1.79639,-8.33093 -2.42608,-9.61972 -4.69152,-22.54796 -6.67904,-38.11538 -1.17572,-9.20854 -1.55851,-61.033575 -0.72174,-97.704326 0.20331,-8.8997 -0.21366,-20.42828 -0.9319,-25.76814 -0.71475,-5.31471 -1.59979,-11.83727 -1.96688,-14.49459 -0.36705,-2.65738 -1.10113,-5.29054 -1.63113,-5.85152 -0.53018,-0.56122 -0.96375,-2.58586 -0.96375,-4.49973 0,-1.91393 -0.4833,-3.77835 -1.07362,-4.14334 -0.59044,-0.36519 -1.07368,-1.60793 -1.07368,-2.76214 0,-1.15422 -0.4267,-2.93751 -0.94843,-3.96291 -0.52163,-1.02537 -1.4233,-3.07223 -2.00369,-4.54855 -2.24761,-5.71695 -4.07291,-9.29425 -6.94657,-13.61436 -1.64197,-2.46844 -2.9854,-4.78363 -2.9854,-5.14483 0,-0.36095 -0.98745,-1.71657 -2.19426,-3.01196 -3.32469,-3.5686 -0.81181,-3.47687 8.38221,0.30619 14.57925,5.99863 38.7893,19.64969 48.03254,27.08352 4.4754,3.59929 6.36047,5.15743 11.38823,9.41308 9.69198,8.20352 23.39811,22.45457 29.94819,31.13885 1.47632,1.95732 3.28811,4.17242 4.02628,4.92252 0.73817,0.75009 1.34212,1.88148 1.34212,2.51416 0,0.63268 0.48331,1.15037 1.07362,1.15037 0.59044,0 1.07368,0.68449 1.07368,1.52103 0,0.83659 0.39078,1.68205 0.86774,1.87891 1.06927,0.4407 6.68656,8.86846 8.82649,13.24202 0.86677,1.77156 1.82998,3.46258 2.14049,3.75784 0.64654,0.61485 9.41687,18.63805 10.84105,22.278736 2.02788,5.183651 3.38211,8.397891 4.29132,10.185315 0.52165,1.025364 0.94841,2.808712 0.94841,3.96287 0,1.154203 0.48331,2.397147 1.07368,2.762125 0.59044,0.36521 1.07367,1.8144 1.07367,3.22103 0,1.40659 0.4833,2.85608 1.07369,3.22099 0.59043,0.36522 1.07369,2.05599 1.07369,3.75785 0,1.70197 0.43216,3.36146 0.96028,3.68784 0.52834,0.32626 1.23393,2.40831 1.56848,4.62647 0.33478,2.21815 1.12792,6.93197 1.76303,10.47508 4.78454,26.69024 4.78454,53.83526 0,80.52551 -0.63511,3.54311 -1.4285,8.25684 -1.76303,10.475 -0.33481,2.21821 -1.04039,4.30008 -1.56848,4.62651 -0.52838,0.32628 -0.96028,1.98589 -0.96028,3.68773 0,1.70186 -0.48332,3.39295 -1.07369,3.75786 -0.59044,0.36521 -1.07369,1.84952 -1.07369,3.29895 0,1.44949 -0.55876,3.71598 -1.2413,5.03661 -2.66561,5.15639 -3.05335,6.2014 -3.05335,8.22848 0,1.15421 -0.48331,2.39717 -1.07369,2.76208 -0.59042,0.36521 -1.07368,1.60136 -1.07368,2.74759 0,1.14618 -0.48332,2.08394 -1.07366,2.08394 -0.59046,0 -1.07369,0.64729 -1.07369,1.43841 0,4.09799 -19.85628,38.8816 -25.4031,44.50023 -0.74993,0.75959 -2.20934,2.81305 -3.24314,4.56309 -1.03376,1.75006 -2.62093,3.1757 -3.52703,3.16809 -0.9061,-0.005 -3.98387,-3.60519 -6.83956,-7.99456 z M 199.31462,115.08421 c -0.43947,-0.43886 -0.79849,-2.63582 -0.79849,-4.88155 0,-8.2532 8.15106,-17.82722 20.19206,-23.71703 6.66778,-3.26157 7.96578,-3.51534 17.97907,-3.51534 10.27846,0 11.17324,0.18869 18.78926,3.96066 4.39832,2.17841 9.76508,5.80204 11.92625,8.05259 7.59545,7.90958 10.54587,16.55745 6.72951,19.72468 -1.8161,1.50726 -2.36429,1.41991 -20.85876,-3.32359 -11.24086,-2.8831 -26.63293,-2.47783 -37.52377,0.98803 -8.31286,2.64546 -15.34161,3.80509 -16.43513,2.71155 z M 192.2613,56.327591 c -1.284,-1.366713 -2.33455,-3.270834 -2.33455,-4.231294 0,-0.960524 -0.4833,-2.044977 -1.07368,-2.40995 -1.4784,-0.913707 -1.36165,-21.491313 0.14849,-26.228743 4.53304,-14.21739 10.51689,-23.58116999 16.22774,-25.39367 3.72224,-1.18142 8.04083,1.61000001 10.463,6.76293 1.97109,4.1933 2.22334,6.29039 1.82835,15.19891 -0.59409,13.3968 -1.13583,15.72111 -6.05592,25.981426 -5.59288,11.663428 -13.79898,16.073486 -19.20371,10.320391 z m 77.92254,-0.05475 c -1.62394,-1.396652 -2.9526,-3.087059 -2.9526,-3.7565 0,-0.669456 -0.36523,-1.217158 -0.81158,-1.217158 -0.44617,0 -1.44433,-1.570248 -2.21765,-3.489476 -0.77336,-1.919164 -1.85764,-4.328375 -2.40946,-5.353786 -0.5515,-1.025413 -1.00333,-3.050307 -1.00333,-4.499727 0,-1.44949 -0.42061,-2.89546 -0.93496,-3.2132 -0.51435,-0.31773 -1.2505,-3.12443 -1.63629,-6.23701 -0.38592,-3.11256 -0.98901,-7.91464 -1.34059,-10.67131 -0.72881,-5.71498 1.24392,-15.5522 3.67798,-18.34026999 3.68912,-4.22569001 9.83379,-0.28485 13.81103,8.85781999 0.89909,2.06682 2.07731,4.59681 2.6182,5.62223 0.54113,1.0254 0.9834,2.84377 0.9834,4.04083 0,1.19705 0.4413,3.01543 0.98049,4.04084 0.53931,1.02541 1.5067,6.4543 2.14998,12.06425 1.26754,11.055264 0.14913,18.380925 -3.44785,22.581779 -2.35475,2.750091 -3.87138,2.66293 -7.46677,-0.429119 z"
             id="path5434-5"
             inkscape:connector-curvature="0"
             sodipodi:nodetypes="ccccscccccccccssccsccsccccccccccscccsccssccssssssccsscccscscscscscsscccccsccsscssscccscccscscccccccscsccccsscssccssscccscscsccccccccscscccscccccsssscccccscscsccccccscscscsssccccccscscccscccscccccccccssccssccsscsccccc" />
        </g>
      </g>
    </g>
  </g>
</svg>
