<?xml version="1.0" encoding="UTF-8" standalone="no"?>
<!-- Created with Inkscape (http://www.inkscape.org/) -->

<svg
   xmlns:dc="http://purl.org/dc/elements/1.1/"
   xmlns:cc="http://creativecommons.org/ns#"
   xmlns:rdf="http://www.w3.org/1999/02/22-rdf-syntax-ns#"
   xmlns:svg="http://www.w3.org/2000/svg"
   xmlns="http://www.w3.org/2000/svg"
   xmlns:sodipodi="http://sodipodi.sourceforge.net/DTD/sodipodi-0.dtd"
   xmlns:inkscape="http://www.inkscape.org/namespaces/inkscape"
   width="210mm"
   height="297mm"
   viewBox="0 0 210 297"
   version="1.1"
   id="svg8"
   inkscape:version="0.92.2 5c3e80d, 2017-08-06"
   sodipodi:docname="ghost2.svg">
  <defs
     id="defs2">
    <clipPath
       id="clipPath45"
       clipPathUnits="userSpaceOnUse">
      <path
         inkscape:connector-curvature="0"
         id="path43"
         d="M 0,864 H 864 V 0 H 0 Z" />
    </clipPath>
    <clipPath
       id="clipPath3854"
       clipPathUnits="userSpaceOnUse">
      <path
         inkscape:connector-curvature="0"
         id="path3852"
         d="M 0,864 H 864 V 0 H 0 Z" />
    </clipPath>
    <clipPath
       id="clipPath4053"
       clipPathUnits="userSpaceOnUse">
      <path
         inkscape:connector-curvature="0"
         id="path4051"
         d="M 0,864 H 864 V 0 H 0 Z" />
    </clipPath>
    <clipPath
       id="clipPath4150"
       clipPathUnits="userSpaceOnUse">
      <path
         inkscape:connector-curvature="0"
         id="path4148"
         d="M 0,864 H 864 V 0 H 0 Z" />
    </clipPath>
    <clipPath
       id="clipPath4295"
       clipPathUnits="userSpaceOnUse">
      <path
         inkscape:connector-curvature="0"
         id="path4293"
         d="M 0,864 H 864 V 0 H 0 Z" />
    </clipPath>
    <clipPath
       id="clipPath4410"
       clipPathUnits="userSpaceOnUse">
      <path
         inkscape:connector-curvature="0"
         id="path4408"
         d="M 0,864 H 864 V 0 H 0 Z" />
    </clipPath>
    <clipPath
       id="clipPath4615"
       clipPathUnits="userSpaceOnUse">
      <path
         inkscape:connector-curvature="0"
         id="path4613"
         d="M 0,864 H 864 V 0 H 0 Z" />
    </clipPath>
    <clipPath
       id="clipPath4838"
       clipPathUnits="userSpaceOnUse">
      <path
         inkscape:connector-curvature="0"
         id="path4836"
         d="M 0,864 H 864 V 0 H 0 Z" />
    </clipPath>
    <clipPath
       id="clipPath5001"
       clipPathUnits="userSpaceOnUse">
      <path
         inkscape:connector-curvature="0"
         id="path4999"
         d="M 0,864 H 864 V 0 H 0 Z" />
    </clipPath>
    <inkscape:perspective
       id="perspective9"
       inkscape:persp3d-origin="372.04724 : 350.78739 : 1"
       inkscape:vp_z="744.09448 : 526.18109 : 1"
       inkscape:vp_y="0 : 1000 : 0"
       inkscape:vp_x="0 : 526.18109 : 1"
       sodipodi:type="inkscape:persp3d" />
  </defs>
  <sodipodi:namedview
     id="base"
     pagecolor="#000000"
     bordercolor="#666666"
     borderopacity="1.0"
     inkscape:pageopacity="0"
     inkscape:pageshadow="2"
     inkscape:zoom="0.91846942"
     inkscape:cx="396.85039"
     inkscape:cy="556.87007"
     inkscape:document-units="mm"
     inkscape:current-layer="g5136"
     showgrid="false"
     inkscape:window-width="2560"
     inkscape:window-height="1385"
     inkscape:window-x="2560"
     inkscape:window-y="27"
     inkscape:window-maximized="1"
     showguides="true"
     inkscape:guide-bbox="true">
    <sodipodi:guide
       position="105.43356,205.96993"
       orientation="1,0"
       id="guide3815"
       inkscape:locked="false" />
    <sodipodi:guide
       position="92.758485,149.50825"
       orientation="0,1"
       id="guide3817"
       inkscape:locked="false" />
  </sodipodi:namedview>
  <metadata
     id="metadata5">
    <rdf:RDF>
      <cc:Work
         rdf:about="">
        <dc:format>image/svg+xml</dc:format>
        <dc:type
           rdf:resource="http://purl.org/dc/dcmitype/StillImage" />
        <dc:title></dc:title>
      </cc:Work>
    </rdf:RDF>
  </metadata>
  <g
     inkscape:label="Layer 1"
     inkscape:groupmode="layer"
     id="layer1">
    <g
       transform="matrix(0.35277777,0,0,-0.35277777,-70.777455,287.43463)"
       inkscape:label="1"
       id="g37">
      <g
         id="g39">
        <g
           id="g5136"
           transform="matrix(0.75000002,0,0,-0.75000002,342.50983,505.50165)"
           style="fill:#ffeeaa">
          <path
             style="fill:#ffeeaa;stroke-width:1.57196534"
             d="m 186.28287,379.16118 c -1.29696,-0.8627 -4.96895,-1.57893 -8.16013,-1.59209 -3.19108,-0.004 -6.23926,-0.73171 -6.7736,-1.59607 -0.53473,-0.86446 -2.35222,-1.57197 -4.03979,-1.57197 -1.68756,0 -6.42069,-1.48857 -10.51801,-3.30792 -14.65284,-6.50635 -27.89408,-13.20391 -28.40922,-14.36977 -0.28787,-0.65236 -1.34935,-1.20232 -2.35797,-1.22238 -1.59177,-0.0355 -6.80286,-4.05296 -17.16065,-13.24249 -1.51298,-1.34241 -3.07096,-2.44074 -3.46202,-2.44074 -1.30112,0 -16.320766,-15.58702 -20.806862,-21.59285 -2.430696,-3.25411 -5.278879,-6.82644 -6.329328,-7.93866 -1.05045,-1.11224 -3.148216,-4.11856 -4.661855,-6.68082 -1.513587,-2.56228 -3.306817,-4.65874 -3.984935,-4.65874 -0.678171,0 -1.233065,-1.41476 -1.233065,-3.14392 0,-2.44531 1.047964,-3.14397 4.715933,-3.14397 2.593746,0 4.715822,-0.70761 4.715822,-1.57201 0,-0.86443 1.414781,-1.57194 3.143968,-1.57194 1.729162,0 3.143918,-0.70759 3.143918,-1.57192 0,-0.86443 1.414781,-1.57192 3.14398,-1.57192 1.729102,0 3.143881,-0.7076 3.143881,-1.572 0,-0.86447 1.373053,-1.57199 3.051169,-1.57199 1.678094,0 3.488309,-0.7076 4.022678,-1.57193 0.534699,-0.8645 2.698246,-1.57199 4.808676,-1.57199 3.02535,0 3.8371,0.8154 3.8371,3.85591 0,4.35777 3.05396,12.06507 5.46988,13.80468 4.4964,3.23752 17.49378,-1.71092 26.75541,-10.18644 2.59377,-2.3737 5.60016,-4.31898 6.68092,-4.32289 1.08064,-0.002 1.9649,-1.09056 1.9649,-2.4146 0,-1.32404 1.23793,-2.86654 2.7509,-3.4278 1.51308,-0.56144 3.81208,-2.19655 5.10893,-3.63382 3.71826,-4.12089 8.76128,-6.25073 14.80043,-6.25073 4.75995,0 5.74062,0.63183 6.70614,4.32287 1.43144,5.47202 1.26655,40.93569 -0.24152,51.92029 -0.78605,5.72724 -0.5445,9.01469 0.7798,10.61077 2.16578,2.60963 7.82217,3.14515 7.82217,0.74059 0,-0.86443 1.15559,-1.57196 2.56796,-1.57196 3.08675,0 10.00313,-7.66051 10.0058,-11.08234 0.001,-1.34008 0.63721,-3.10859 1.41291,-3.9299 0.77621,-0.82165 1.80118,-4.32288 2.27804,-7.78127 0.47678,-3.45823 1.63988,-10.17836 2.58444,-14.93361 0.94451,-4.75526 2.11892,-10.94482 2.60979,-13.75466 0.49104,-2.80995 1.52248,-5.10896 2.29249,-5.10896 0.77,0 1.39997,-1.05571 1.39997,-2.34597 0,-1.29026 1.54233,-4.1198 3.42747,-6.28781 2.75968,-3.1739 4.88256,-3.94196 10.89672,-3.94196 8.31667,0 9.77586,1.40222 17.17593,16.50573 5.06607,10.33963 6.61737,11.78967 12.6127,11.78967 3.54702,0 6.13872,-1.27949 8.75621,-4.32291 2.0449,-2.3776 3.71881,-4.8855 3.71977,-5.57332 0.001,-0.68801 1.7383,-2.98668 3.86038,-5.10887 7.26447,-7.26438 16.71647,-4.13069 22.73762,7.53833 1.22681,2.37755 2.81841,4.32282 3.5369,4.32282 0.7183,0 1.30638,0.97976 1.30638,2.17716 0,3.21403 7.03618,7.25469 12.63264,7.25469 7.01542,0 9.37487,-3.16445 9.37487,-12.57321 0,-6.437 -0.97519,-9.49923 -4.79141,-15.04589 -2.63528,-3.8303 -5.46482,-6.9642 -6.28783,-6.9642 -0.82345,0 -1.4965,-0.91244 -1.4965,-2.02779 0,-1.11536 -2.82956,-5.15447 -6.28786,-8.97593 -3.45831,-3.82142 -6.28787,-7.76512 -6.28787,-8.76389 0,-0.99875 -1.41475,-3.6144 -3.14393,-5.81272 -1.72916,-2.19833 -3.14394,-5.12321 -3.14394,-6.49985 0,-1.3767 -0.53026,-2.50852 -1.17897,-2.5153 -1.2924,-0.0195 -5.08792,-7.4852 -5.14386,-10.1259 -0.0195,-0.90831 -1.41823,-3.42002 -3.10894,-5.58148 -1.69067,-2.16149 -3.08975,-5.16782 -3.10892,-6.6808 -0.0195,-1.51305 -0.74236,-2.75095 -1.60699,-2.75095 -0.86447,0 -1.57197,-0.92823 -1.57197,-2.06273 0,-1.92883 -4.5032,-12.59026 -7.91746,-18.74447 -0.83326,-1.50133 -1.51431,-3.80033 -1.51431,-5.10895 0,-1.30852 -0.70759,-2.37922 -1.572,-2.37922 -0.86446,0 -1.57195,-1.41476 -1.57195,-3.14394 0,-1.72917 -0.53651,-3.14393 -1.19313,-3.14393 -0.65592,0 -2.94888,-5.65909 -5.09469,-12.57574 -2.14591,-6.91663 -4.29252,-12.5757 -4.77049,-12.5757 -0.47764,0 -1.78354,-4.42119 -2.90142,-9.82479 -1.11783,-5.40364 -2.77269,-11.7902 -3.67735,-14.19232 -1.10061,-2.9224 -1.24151,-15.40586 -0.42599,-37.72721 2.2393,-61.280047 1.29954,-99.996133 -2.52493,-104.01943 -0.78067,-0.821671 -1.41956,-3.474033 -1.41956,-5.894868 0,-2.420833 -0.70761,-4.401508 -1.57199,-4.401508 -0.86444,0 -1.57199,-1.141532 -1.57199,-2.536872 0,-2.249835 -5.79739,-14.278598 -7.86878,-16.326665 -0.43757,-0.432232 -2.77214,-3.438665 -5.1889,-6.680821 -2.41661,-3.242247 -5.41897,-5.894893 -6.67188,-5.894893 -1.25283,0 -2.2779,-0.593519 -2.2779,-1.319672 0,-1.896097 -7.33593,-4.968217 -11.86375,-4.968217 -3.94991,0 -5.35399,-3.604526 -2.17039,-5.571998 3.19153,-1.972494 54.24236,4.799699 55.85533,7.409545 0.44383,0.718301 2.5341,1.306398 4.64454,1.306398 2.11045,0 3.8371,0.70762 3.8371,1.571973 0,0.86447 1.13897,1.571971 2.53091,1.571971 2.78232,0 20.66355,9.055605 23.80883,12.057391 1.08586,1.03639 3.38491,2.331987 5.10887,2.879194 1.72409,0.547187 3.13469,1.606991 3.13469,2.35498 0,0.747705 1.36817,1.794398 3.04038,2.325123 3.82393,1.213709 32.90973,29.592315 37.8954,36.974058 2.04387,3.0259521 4.81547,6.56292404 6.1593,7.8597943 1.34382,1.2968725 3.44213,4.3033023 4.66307,6.6808214 1.22094,2.3776113 2.80774,4.3229173 3.52621,4.3229173 0.7183,0 1.30639,1.41477 1.30639,3.143947 0,1.729179 0.62471,3.143948 1.38853,3.143948 0.76377,0 1.78124,1.237874 2.26108,2.750945 0.47944,1.512978 2.08414,4.873029 3.56512,7.466842 4.29589,7.523646 5.36097,10.017905 5.36097,12.554335 0,1.30864 0.70759,2.379299 1.57199,2.379299 0.86442,0 1.57195,1.414769 1.57195,3.143956 0,1.729169 0.7076,3.143935 1.57189,3.143935 0.86447,0 1.57197,1.626964 1.57197,3.615492 0,1.98853 0.58463,4.287529 1.29863,5.108857 0.71474,0.821652 2.20967,4.676622 3.32311,8.567217 1.11355,3.890686 2.59486,8.488611 3.29196,10.2178 0.69691,1.729176 1.74479,5.973464 2.32829,9.431748 0.58367,3.458355 1.70714,9.824791 2.49726,14.147697 3.89577,21.31624 5.11325,49.46966 3.14323,72.68709 -3.08935,36.40953 -3.50677,39.70842 -5.02415,39.70842 -0.78427,0 -1.42646,2.78776 -1.42646,6.19507 0,3.40732 -0.70763,6.63232 -1.57196,7.16661 -0.86448,0.53472 -1.572,3.40566 -1.572,6.38067 0,2.975 -0.7076,5.40911 -1.57198,5.40911 -0.86445,0 -1.57199,1.42442 -1.57199,3.16527 0,1.74095 -0.70758,4.57048 -1.57194,6.28788 -0.86447,1.71746 -2.27931,4.5277 -3.14397,6.24521 -0.86444,1.71745 -1.57189,4.54697 -1.57189,6.28784 0,1.74083 -0.7076,3.1652 -1.57195,3.1652 -0.86446,0 -1.57199,1.35589 -1.57199,3.01297 0,1.65708 -0.53026,3.24874 -1.17897,3.53694 -0.64878,0.28786 -2.92423,4.06094 -5.05731,8.38384 -4.83216,9.79286 -18.49371,30.57949 -22.33358,33.98164 -1.57821,1.39825 -2.8724,3.16674 -2.87598,3.92986 -0.003,1.52914 -19.89472,22.60916 -21.33016,22.60916 -0.49282,0 -1.82283,0.88404 -2.95644,1.96488 -4.89927,4.6709 -15.74264,12.98433 -20.29023,15.55622 -13.28822,7.51498 -34.77454,17.06206 -38.39928,17.06206 -1.56565,0 -3.51868,0.63453 -4.34001,1.41102 -2.37832,2.24705 -13.98683,3.56184 -37.64863,4.26407 -13.17024,0.39127 -22.95436,0.0265 -24.36538,-0.91488 z M 49.52182,261.31234 c 0,-1.67824 -0.707604,-3.4884 -1.571948,-4.02277 -0.864474,-0.53474 -1.571988,-2.69826 -1.571988,-4.80861 0,-2.11042 -0.707625,-3.83724 -1.571889,-3.83724 -0.864457,0 -1.571987,-2.12207 -1.571987,-4.71578 0,-2.59373 -0.630063,-4.71591 -1.399952,-4.71591 -1.376357,0 -2.609251,-5.25578 -4.333092,-18.47065 -0.479466,-3.67447 -1.436318,-6.68082 -2.126824,-6.68082 -0.690668,0 -1.653334,-3.00645 -2.139827,-6.68082 -0.486632,-3.67448 -1.783307,-13.40105 -2.88187,-21.61455 -2.560402,-19.14203 -2.501657,-45.26521 0.147217,-65.23657 1.146535,-8.64583 2.427286,-18.90294 2.846316,-22.793518 0.418861,-3.890557 1.400483,-7.745798 2.181291,-8.567207 0.780647,-0.821668 1.419569,-2.850631 1.419569,-4.509523 0,-5.162676 6.503545,-24.413162 13.373051,-39.584103 8.521515,-18.819227 14.421364,-29.816201 18.459205,-34.406561 1.513055,-1.7200771 2.750924,-4.0551043 2.750924,-5.18897 0,-1.1337722 0.588182,-2.0615067 1.306377,-2.0615067 0.718301,0 2.31007,-1.9401184 3.536892,-4.31141476 1.226795,-2.37126784 4.35277,-6.52903754 6.946501,-9.23961654 18.734654,-19.578346 26.598444,-27.320053 27.750664,-27.320053 1.85822,0 1.66865,4.321413 -0.24153,5.50187 -0.86444,0.534711 -1.57199,2.020433 -1.57199,3.302398 0,1.281993 -1.41477,3.849515 -3.14393,5.705526 -1.72917,1.856082 -3.14393,4.614317 -3.14393,6.129346 0,1.515122 -0.70759,3.191977 -1.57192,3.726358 -0.86445,0.534712 -1.571922,3.05187 -1.571922,5.5946333 0,2.5426698 -0.636339,4.6230615 -1.413731,4.6230615 -3.629186,0 -5.080493,36.8459282 -2.10518,53.4469002 1.007171,5.61977 2.259158,12.693609 2.78212,15.719559 0.523182,3.026034 1.529503,6.916736 2.236643,8.645827 0.70672,1.729162 2.14261,6.327182 3.19001,10.21776 1.04741,3.890619 2.54278,8.30217 3.32308,9.803463 0.7807,1.501346 1.41876,4.153974 1.41876,5.894951 0,1.74082 0.70764,3.16518 1.57199,3.16518 0.86447,0 1.57199,2.12214 1.57199,4.71586 0,2.5938 0.53472,4.71593 1.1892,4.71593 1.43812,0 5.09859,11.26788 5.09859,15.69491 0,1.74281 0.70765,3.16867 1.572,3.16867 0.86444,0 1.57199,3.14148 1.57199,6.9811 0,3.83954 0.70763,7.41822 1.57192,7.95255 0.93011,0.57484 1.57201,10.20318 1.57201,23.57944 0,13.37638 -0.64164,23.00472 -1.57201,23.57958 -0.86443,0.53468 -1.57192,2.35565 -1.57192,4.04742 0,4.35412 -3.67572,15.60212 -5.0986,15.60212 -0.65413,0 -1.18925,1.41477 -1.18925,3.14393 0,1.72911 -0.58815,3.14386 -1.30636,3.14386 -0.71831,0 -2.30676,1.94542 -3.5295,4.32292 -2.51405,4.88848 -16.421636,19.25667 -18.639291,19.25667 -0.798512,0 -2.386527,0.89214 -3.52897,1.9827 -1.142482,1.09046 -7.028902,4.4157 -13.081006,7.38931 -6.052096,2.97365 -12.881371,6.6795 -15.176407,8.2351 -5.630255,3.81653 -10.761047,3.7103 -10.761047,-0.22281 z M 181.56691,118.27658 c 0,-0.80651 -1.37875,-1.90358 -3.06387,-2.43849 -3.64063,-1.15544 -12.65577,-9.29505 -12.65577,-11.42669 0,-0.82167 -2.12221,-3.71467 -4.71591,-6.428798 -2.59373,-2.714151 -4.71586,-6.002267 -4.71586,-7.306962 0,-1.304804 -0.53471,-2.372271 -1.18822,-2.372271 -0.65326,0 -2.11462,-2.298997 -3.24686,-5.108964 -1.13226,-2.809825 -2.71976,-6.337163 -3.52772,-7.838475 -0.80832,-1.501221 -1.46903,-6.680299 -1.46903,-11.508942 0,-9.035288 2.22191,-13.270748 6.96157,-13.270748 1.35861,0 2.47026,-0.707621 2.47026,-1.572005 0,-0.864442 1.98068,-1.571977 4.40152,-1.571977 2.42076,0 5.17847,-0.777093 6.1282,-1.726683 2.58304,-2.583131 30.34135,0.59176 30.34135,3.470664 0,0.769999 0.97972,1.400001 2.1771,1.400001 1.19751,0 3.35849,1.802779 4.80231,4.006347 2.20781,3.369589 2.51607,7.180055 1.9392,23.97244 -0.79849,23.250443 -2.22972,31.358243 -6.54078,37.057613 -2.60465,3.44327 -4.36882,4.13003 -10.61075,4.13003 -4.11774,0 -7.48674,-0.65948 -7.48674,-1.46609 z M 154.05753,29.889675 c -5.62258,-3.089147 -10.21773,-8.954517 -10.21773,-13.042163 0,-2.199187 -0.70763,-3.998513 -1.572,-3.998513 -2.09778,0 -1.99819,-11.0626431 0.17735,-19.702304 1.97714,-7.852032 7.36722,-14.066407 13.54543,-15.616992 5.28426,-1.326275 16.10126,3.586509 16.12657,7.324163 0.004,1.461995 0.72543,3.095395 1.58995,3.629754 0.86807,0.536478 1.572,7.6140705 1.572,15.8123254 0,8.8459816 -0.63452,14.8409466 -1.572,14.8409466 -0.86443,0 -1.57178,1.111581 -1.57178,2.470208 0,2.71789 -2.23642,5.14325 -7.50634,8.140509 -4.18324,2.379238 -6.44403,2.409612 -10.57141,0.142662 z m 48.37364,-2.523238 c -2.79021,-1.500222 -5.08925,-3.965622 -5.10894,-5.4786 -0.0195,-1.513071 -0.74325,-2.750945 -1.60763,-2.750945 -0.86444,0 -1.57195,-1.414769 -1.57195,-3.143946 0,-1.729178 -0.70761,-3.143947 -1.572,-3.143947 -0.86443,0 -1.57107,-3.7137653 -1.57001,-8.2527943 0.001,-6.3596423 0.81633,-9.1543296 3.55389,-12.182714 5.93261,-6.5637947 15.30777,-10.4147457 15.30777,-6.2878907 0,0.864449 1.30103,1.571974 2.89128,1.571974 3.79142,0 11.52546,8.7411 14.00735,15.8312369 3.35872,9.5952171 2.13653,17.2329891 -3.68991,23.0595251 -3.40257,3.402589 -14.94902,3.837842 -20.63985,0.778005 z"
             id="path6497-3"
             inkscape:connector-curvature="0"
             sodipodi:nodetypes="cccsccccscssssssssssscsscccsccscccsscccccsscscsccccsssscsscsssccccsscsssscsccccsssccsssccsssccsccscsssccssssscccccssscsssccssscsccsccsccccccsssscscccccsccssscscscscsscccscssssssscscsssscscscccscssssccsssscsscccsscssccccssscccccsssccsscccc" />
        </g>
      </g>
    </g>
  </g>
</svg>
