<?xml version="1.0" encoding="UTF-8" standalone="no"?>
<!-- Created with Inkscape (http://www.inkscape.org/) -->

<svg
   xmlns:dc="http://purl.org/dc/elements/1.1/"
   xmlns:cc="http://creativecommons.org/ns#"
   xmlns:rdf="http://www.w3.org/1999/02/22-rdf-syntax-ns#"
   xmlns:svg="http://www.w3.org/2000/svg"
   xmlns="http://www.w3.org/2000/svg"
   xmlns:sodipodi="http://sodipodi.sourceforge.net/DTD/sodipodi-0.dtd"
   xmlns:inkscape="http://www.inkscape.org/namespaces/inkscape"
   width="210mm"
   height="297mm"
   viewBox="0 0 210 297"
   version="1.1"
   id="svg8"
   inkscape:version="0.92.2 5c3e80d, 2017-08-06"
   sodipodi:docname="grin7.svg">
  <defs
     id="defs2">
    <clipPath
       id="clipPath45"
       clipPathUnits="userSpaceOnUse">
      <path
         inkscape:connector-curvature="0"
         id="path43"
         d="M 0,864 H 864 V 0 H 0 Z" />
    </clipPath>
    <clipPath
       id="clipPath3854"
       clipPathUnits="userSpaceOnUse">
      <path
         inkscape:connector-curvature="0"
         id="path3852"
         d="M 0,864 H 864 V 0 H 0 Z" />
    </clipPath>
    <clipPath
       id="clipPath4053"
       clipPathUnits="userSpaceOnUse">
      <path
         inkscape:connector-curvature="0"
         id="path4051"
         d="M 0,864 H 864 V 0 H 0 Z" />
    </clipPath>
    <clipPath
       id="clipPath4150"
       clipPathUnits="userSpaceOnUse">
      <path
         inkscape:connector-curvature="0"
         id="path4148"
         d="M 0,864 H 864 V 0 H 0 Z" />
    </clipPath>
    <clipPath
       id="clipPath4295"
       clipPathUnits="userSpaceOnUse">
      <path
         inkscape:connector-curvature="0"
         id="path4293"
         d="M 0,864 H 864 V 0 H 0 Z" />
    </clipPath>
    <clipPath
       id="clipPath4410"
       clipPathUnits="userSpaceOnUse">
      <path
         inkscape:connector-curvature="0"
         id="path4408"
         d="M 0,864 H 864 V 0 H 0 Z" />
    </clipPath>
    <clipPath
       id="clipPath4615"
       clipPathUnits="userSpaceOnUse">
      <path
         inkscape:connector-curvature="0"
         id="path4613"
         d="M 0,864 H 864 V 0 H 0 Z" />
    </clipPath>
    <clipPath
       id="clipPath4838"
       clipPathUnits="userSpaceOnUse">
      <path
         inkscape:connector-curvature="0"
         id="path4836"
         d="M 0,864 H 864 V 0 H 0 Z" />
    </clipPath>
    <clipPath
       id="clipPath5001"
       clipPathUnits="userSpaceOnUse">
      <path
         inkscape:connector-curvature="0"
         id="path4999"
         d="M 0,864 H 864 V 0 H 0 Z" />
    </clipPath>
    <inkscape:perspective
       id="perspective9"
       inkscape:persp3d-origin="372.04724 : 350.78739 : 1"
       inkscape:vp_z="744.09448 : 526.18109 : 1"
       inkscape:vp_y="0 : 1000 : 0"
       inkscape:vp_x="0 : 526.18109 : 1"
       sodipodi:type="inkscape:persp3d" />
  </defs>
  <sodipodi:namedview
     id="base"
     pagecolor="#000000"
     bordercolor="#666666"
     borderopacity="1.0"
     inkscape:pageopacity="0"
     inkscape:pageshadow="2"
     inkscape:zoom="0.91846942"
     inkscape:cx="396.85039"
     inkscape:cy="556.87007"
     inkscape:document-units="mm"
     inkscape:current-layer="g5136"
     showgrid="false"
     inkscape:window-width="2560"
     inkscape:window-height="1385"
     inkscape:window-x="2560"
     inkscape:window-y="27"
     inkscape:window-maximized="1"
     showguides="true"
     inkscape:guide-bbox="true">
    <sodipodi:guide
       position="105.43356,205.96993"
       orientation="1,0"
       id="guide3815"
       inkscape:locked="false" />
    <sodipodi:guide
       position="92.758485,149.50825"
       orientation="0,1"
       id="guide3817"
       inkscape:locked="false" />
  </sodipodi:namedview>
  <metadata
     id="metadata5">
    <rdf:RDF>
      <cc:Work
         rdf:about="">
        <dc:format>image/svg+xml</dc:format>
        <dc:type
           rdf:resource="http://purl.org/dc/dcmitype/StillImage" />
        <dc:title></dc:title>
      </cc:Work>
    </rdf:RDF>
  </metadata>
  <g
     inkscape:label="Layer 1"
     inkscape:groupmode="layer"
     id="layer1">
    <g
       transform="matrix(0.35277777,0,0,-0.35277777,-70.777455,287.43463)"
       inkscape:label="1"
       id="g37">
      <g
         id="g39">
        <g
           id="g5136"
           transform="matrix(0.75000002,0,0,-0.75000002,342.50983,505.50165)"
           style="fill:#ffeeaa">
          <path
             style="fill:#ffeeaa;stroke-width:1.72916186"
             d="m 191.04244,375.12122 c -1.81016,-2.17466 -1.45566,-5.45505 2.10375,-19.46898 1.08707,-4.27968 2.38441,-10.70413 2.88291,-14.27654 0.49799,-3.57225 1.60219,-6.92519 2.45281,-7.45093 0.85094,-0.52548 1.54654,-4.02233 1.54654,-7.77035 0,-3.74812 0.77838,-6.81464 1.72922,-6.81464 0.95086,0 1.72916,-2.99958 1.72916,-6.6658 v -6.66589 l -12.53647,-1.23849 c -20.99441,-2.07416 -52.19374,-3.92994 -54.19967,-3.22394 -1.9875,0.69894 -7.40645,19.25614 -8.86044,30.34152 -0.46863,3.57226 -1.54781,6.92519 -2.39846,7.45089 -0.85093,0.52542 -1.54641,3.16089 -1.54641,5.85617 0,6.83369 -4.28415,7.86478 -11.0946,2.67016 -3.11242,-2.37392 -6.20438,-4.3163 -6.87121,-4.3163 -0.66662,0 -3.0528,-1.75077 -5.30248,-3.89057 -2.249663,-2.13992 -7.466556,-6.75622 -11.593184,-10.25866 -11.81609,-10.02882 -19.000326,-17.22057 -27.380632,-27.40983 -4.27542,-5.1981 -8.722316,-10.4522 -9.882015,-11.67559 -1.159832,-1.22343 -3.470896,-4.53043 -5.135874,-7.34894 -1.664961,-2.81849 -3.637433,-5.12454 -4.383454,-5.12454 -0.746004,0 -1.356371,-1.02036 -1.356371,-2.26759 0,-1.24727 -1.361734,-3.77627 -3.02602,-5.61988 -1.664269,-1.84352 -4.130136,-5.49198 -5.479638,-8.10724 -1.349486,-2.61537 -3.100339,-4.75531 -3.890649,-4.75531 -0.790152,0 -1.436984,-1.55622 -1.436984,-3.45833 0,-1.90198 -0.778336,-3.45826 -1.729168,-3.45826 -0.950868,0 -1.729167,-1.49135 -1.729167,-3.31422 0,-1.8229 -0.591118,-3.57353 -1.312816,-3.89056 -1.764865,-0.77446 -16.0111227,-29.3988 -15.9931179,-32.13366 0.00583,-1.18862 -0.7636651,-2.16141 -1.7148516,-2.16141 -0.9508752,0 -1.7291736,-1.21961 -1.7291736,-2.71015 0,-3.27043 5.3624021,-1.9973 12.3711301,2.93712 2.52444,1.7773 5.4236,3.2314 6.44253,3.2314 1.019019,0 4.400397,1.55338 7.51427,3.45177 3.113873,1.89867 7.023366,3.45491 8.687635,3.45844 1.664269,0.001 3.02602,0.59407 3.02602,1.31256 0,0.71853 2.528936,2.16875 5.619763,3.22314 8.441085,2.87958 36.080749,12.75197 41.499952,14.82301 3.665363,1.40059 4.755199,2.958 4.755199,6.79485 0,2.73777 -0.778404,4.97771 -1.729211,4.97771 -0.950895,0 -1.729167,2.33441 -1.729167,5.1874 0,2.85321 -0.77836,5.18756 -1.729178,5.18756 -0.950866,0 -1.729163,1.89933 -1.729163,4.22095 0,2.32134 -0.778368,4.70175 -1.729186,5.28946 -0.950879,0.58817 -1.729139,2.50302 -1.729139,4.25578 0,3.75754 7.885524,6.97905 17.117439,6.99337 3.424381,0 9.246271,0.848 12.937251,1.87312 7.89425,2.19172 9.59696,0.92048 12.94463,-9.66395 1.20314,-3.80409 2.81733,-8.47283 3.58706,-10.37506 0.76954,-1.90196 2.25788,-5.59804 3.30698,-8.2134 1.44929,-3.61327 3.07907,-4.75523 6.78616,-4.75523 2.68328,0 5.61781,0.69309 6.5214,1.54081 4.57157,4.28773 89.35021,5.8773 114.90273,2.15439 8.08387,-1.17784 18.58849,-2.56293 23.34368,-3.07778 4.75519,-0.51468 9.38503,-1.64261 10.2885,-2.50608 0.90383,-0.86364 4.9887,-1.56965 9.07815,-1.56965 4.08936,0 7.43541,-0.7784 7.43541,-1.72914 0,-0.95085 1.64856,-1.72912 3.66347,-1.72912 3.76943,0 24.25361,-6.12126 29.59927,-8.84518 1.65152,-0.84109 4.52354,-1.52977 6.38245,-1.52977 1.85874,0 3.86065,-0.77837 4.44831,-1.72916 0.58821,-0.95092 2.19858,-1.72907 3.57925,-1.72907 1.38095,0 5.80913,-1.47715 9.84065,-3.28231 4.03155,-1.80504 9.85903,-4.32933 12.94984,-5.60946 3.09093,-1.28028 5.61985,-2.9157 5.61985,-3.63469 0,-0.71854 1.01207,-1.30694 2.24895,-1.30694 3.18131,0 11.55471,-4.06679 11.57078,-5.61974 0,-0.71367 1.52382,-1.29696 3.36985,-1.29696 1.84591,0 3.83721,-0.77836 4.42492,-1.72916 0.58818,-0.95092 2.96811,-1.72907 5.2895,-1.72907 2.32153,0 4.22089,0.77837 4.22089,1.72907 0,0.95092 -0.77837,1.72916 -1.72919,1.72916 -0.95088,0 -1.72913,1.55625 -1.72913,3.45837 0,1.90209 -0.77837,3.45833 -1.72919,3.45833 -0.95092,0 -1.72919,1.10011 -1.72919,2.44474 0,2.98052 -10.58255,24.12837 -12.47714,24.93363 -0.74599,0.31662 -1.35613,2.06766 -1.35613,3.89056 0,1.82287 -0.77836,3.31422 -1.72919,3.31422 -0.95086,0 -1.72919,1.49143 -1.72919,3.31415 0,1.82288 -0.62931,3.57364 -1.3974,3.89067 -1.67645,0.69111 -12.43584,16.24484 -12.43584,17.97676 0,0.6686 -1.3985,2.4731 -3.10797,4.01136 -1.70947,1.53811 -4.97388,5.46433 -7.25412,8.72492 -7.98533,11.41791 -33.20828,38.16528 -35.99011,38.16528 -0.93229,0 -2.07795,0.99999 -2.54705,2.22205 -0.46856,1.22224 -4.2483,4.52266 -8.39854,7.33441 -4.15024,2.81182 -8.80428,6.48054 -10.34228,8.15286 -1.53812,1.67229 -4.06702,3.04053 -5.61985,3.04053 -1.55279,0 -2.82318,0.65978 -2.82318,1.46653 0,0.80682 -3.2264,2.92164 -7.16988,4.69995 -3.94361,1.77827 -8.03652,4.09936 -9.09525,5.15835 -1.05894,1.05889 -4.11862,2.47569 -6.79927,3.1485 l -4.874,1.22333 0.56854,-24.70762 0.56859,-24.70755 -9.51018,0.1363 c -8.62869,0.12245 -18.74022,1.02345 -39.21404,3.49075 -7.08696,0.85389 -7.25962,1.03491 -9.07807,9.51446 -1.01951,4.75391 -1.85366,17.22017 -1.85366,27.7027 0,13.8736 -0.64704,19.70671 -2.37954,21.43886 -2.97507,2.97495 -21.335,2.62968 -23.89815,-0.44901 z m 31.18913,-156.92506 c -0.46859,-0.46855 -4.9355,-1.62669 -9.92622,-2.57311 -18.2958,-3.46984 -31.29769,-13.00892 -31.29769,-22.96252 0,-3.91075 1.80495,-6.98936 6.98941,-11.92128 3.84422,-3.65685 8.12398,-6.64888 9.51043,-6.64888 1.38645,0 2.52095,-0.7784 2.52095,-1.72915 0,-0.95092 3.11248,-1.72921 6.91662,-1.72921 3.80415,0 6.91665,-0.82248 6.91665,-1.82795 0,-2.26004 38.97811,-1.22805 49.57097,1.3123 9.66196,2.31727 23.36112,9.64158 25.58045,13.67675 0.98789,1.79631 2.48519,3.76606 3.32705,4.37729 4.31222,3.13006 -7.0336,20.50311 -13.38985,20.50311 -1.56124,0 -2.83879,0.58819 -2.83879,1.30813 0,1.58204 -12.3947,5.60857 -17.26447,5.60857 -1.91689,0 -3.48549,0.77838 -3.48549,1.72917 0,1.73076 -31.44389,2.56302 -33.13002,0.87641 z M 78.912968,151.08391 C 67.690175,143.19133 64.106366,139.11822 57.671963,126.94294 46.175821,105.18989 42.210776,76.750975 46.887166,49.590925 47.460638,46.26238 48.823763,38.25127 49.917064,31.788678 c 1.093302,-6.462735 2.634531,-12.150114 3.424852,-12.638515 0.790131,-0.488193 1.436927,-2.74163 1.436927,-5.006926 0,-2.2654 0.624482,-4.5044232 1.386751,-4.9759646 0.762679,-0.4715205 2.4596,-4.7968701 3.770893,-9.61235992 1.311336,-4.81538728 3.021624,-8.75535898 3.800779,-8.75535898 0.779327,0 1.416529,-1.5562465 1.416529,-3.4584425 0,-1.90189 0.68327,-3.458135 1.519417,-3.458135 0.83519,0 2.486335,-2.334421 3.66809,-5.187538 1.181754,-2.853191 2.832527,-5.187614 3.668142,-5.187614 0.835203,0 1.519377,-1.384487 1.519377,-3.076516 0,-1.692209 1.556249,-4.19818 3.458381,-5.569153 1.901987,-1.371052 3.458228,-3.297763 3.458228,-4.281801 0,-2.667329 12.614039,-15.552548 18.80581,-19.209905 2.97135,-1.755341 5.40248,-3.707339 5.40248,-4.337982 0,-0.630332 2.33436,-2.113435 5.18744,-3.29522 2.85317,-1.181867 5.1875,-2.750849 5.1875,-3.486485 0,-0.736205 2.918,-1.778763 6.48438,-2.317743 3.56637,-0.539158 9.40415,-1.483982 12.97277,-2.100411 6.56439,-1.133646 22.04278,2.253443 22.04278,4.823817 0,0.743081 1.11164,1.351649 2.4702,1.351649 6.90642,0 26.07487,25.432242 29.34792,38.938197 4.03155,16.635797 4.98138,24.2768585 5.04674,40.603249 0.10395,25.91113 -4.96643,51.964482 -14.30147,73.489195 -0.82547,1.902119 -1.93504,4.8202 -2.46692,6.484483 -1.42003,4.442966 -6.25495,3.779974 -6.3061,-0.864642 -0.0215,-2.139741 -2.7991,-7.648019 -6.16783,-12.240469 -6.49505,-8.85458 -16.80117,-14.888779 -25.54328,-14.955762 -8.95706,-0.06856 -27.02929,12.331761 -27.03537,18.550434 -0.001,1.188764 -0.78035,2.161526 -1.73132,2.161526 -0.95091,0 -1.72906,1.899256 -1.72906,4.220813 0,2.321477 -0.77837,4.701765 -1.72917,5.289571 -0.95388,0.589173 -1.72921,8.341581 -1.72921,17.291621 0,8.94996 0.77548,16.70192 1.72921,17.29162 0.95087,0.58824 1.72917,2.79508 1.72917,4.90514 0,2.11019 1.36164,5.12199 3.02599,6.69306 5.07227,4.78773 7.3489,8.02892 7.3489,10.46209 0,5.04715 -4.22652,6.47032 -18.93431,6.37554 -13.761131,-0.0881 -15.327984,-0.47741 -22.639699,-5.6197 z M 282.1636,132.79666 c -8.10491,-1.48631 -19.88534,-6.84762 -19.88534,-9.04983 0,-0.84305 -1.20262,-1.53211 -2.67244,-1.53211 -2.36527,0 -11.16081,-7.28501 -11.16081,-9.24418 0,-0.41567 3.05862,-1.97925 6.79708,-3.47519 20.9856,-8.39667 33.15219,-38.297175 25.0508,-61.564871 -4.99687,-14.351578 -8.41883,-19.30431 -17.9927,-26.041788 -4.85299,-3.415312 -8.04197,-4.216331 -16.33704,-4.10359 -6.14688,0.08817 -10.57592,0.946977 -10.97337,2.13914 -0.3666,1.099407 -2.06696,1.998947 -3.77887,1.998947 -1.71183,0 -3.72211,1.750826 -4.46728,3.890768 -1.11445,3.200703 -1.47653,2.545862 -2.0418,-3.69344 -0.37738,-4.171125 0.14202,-8.411755 1.15325,-9.423835 1.0119,-1.011977 1.83994,-3.9539811 1.83994,-6.5376061 0,-2.5837064 0.58329,-4.957029 1.29686,-5.27388182 0.71367,-0.3166185 3.18737,-4.07809048 5.49787,-8.35773788 2.31048,-4.2796522 5.61759,-9.0396612 7.34892,-10.5776712 1.73141,-1.538116 3.14796,-3.650592 3.14796,-4.69452 0,-1.043645 1.49554,-2.698115 3.32351,-3.67637 1.82787,-0.978335 4.35677,-2.78044 5.61972,-4.004946 4.04023,-3.917147 15.35377,-9.900575 18.72009,-9.900575 1.79157,0 3.80187,-0.8813 4.46752,-1.957573 2.97061,-4.806778 43.95227,2.235883 43.95227,7.553109 0,0.726402 1.06274,1.321251 2.36155,1.321251 3.09377,0 20.28651,16.808151 23.43588,22.911356 1.34932,2.6153753 3.10011,4.7551091 3.89054,4.7551091 0.79012,0 1.43693,1.4913504 1.43693,3.314334 0,1.82270108 0.58525,3.5735293 1.30017,3.8905625 0.71468,0.3166449 3.1787,6.023138 5.47442,12.6804434 3.59661,10.429329 4.17375,15.283048 4.17209,35.076726 -0.001,15.172091 -0.68623,23.656314 -2.01603,24.986307 -1.10775,1.10766 -2.01391,3.463645 -2.01391,5.235455 0,4.185632 -10.26695,25.482607 -12.2849,25.482607 -0.85192,0 -1.57255,1.36168 -1.60195,3.02606 -0.0292,1.6643 -3.72537,5.74452 -8.21348,9.06711 -4.48805,3.32256 -8.54914,6.43505 -9.0246,6.91656 -6.87036,6.95777 -30.88635,11.6034 -45.82285,8.86387 z"
             id="path6497-5-2"
             inkscape:connector-curvature="0"
             sodipodi:nodetypes="ccccssscccccscsccccsssccssssccsscsccsccssssscscccccsccccssscscsscsscscsssssscssscsscscscsscccccccccscccccscsssscccsssscccccccsccsssssscscscsccssccccccccsscscscsccccssscccccscccscscsccscsscssccccsscscc" />
        </g>
      </g>
    </g>
  </g>
</svg>
