<?xml version="1.0" encoding="UTF-8" standalone="no"?>
<!-- Created with Inkscape (http://www.inkscape.org/) -->

<svg
   xmlns:dc="http://purl.org/dc/elements/1.1/"
   xmlns:cc="http://creativecommons.org/ns#"
   xmlns:rdf="http://www.w3.org/1999/02/22-rdf-syntax-ns#"
   xmlns:svg="http://www.w3.org/2000/svg"
   xmlns="http://www.w3.org/2000/svg"
   xmlns:sodipodi="http://sodipodi.sourceforge.net/DTD/sodipodi-0.dtd"
   xmlns:inkscape="http://www.inkscape.org/namespaces/inkscape"
   width="210mm"
   height="297mm"
   viewBox="0 0 210 297"
   version="1.1"
   id="svg8"
   inkscape:version="0.92.2 5c3e80d, 2017-08-06"
   sodipodi:docname="grin3.svg">
  <defs
     id="defs2">
    <clipPath
       id="clipPath45"
       clipPathUnits="userSpaceOnUse">
      <path
         inkscape:connector-curvature="0"
         id="path43"
         d="M 0,864 H 864 V 0 H 0 Z" />
    </clipPath>
    <clipPath
       id="clipPath3854"
       clipPathUnits="userSpaceOnUse">
      <path
         inkscape:connector-curvature="0"
         id="path3852"
         d="M 0,864 H 864 V 0 H 0 Z" />
    </clipPath>
    <clipPath
       id="clipPath4053"
       clipPathUnits="userSpaceOnUse">
      <path
         inkscape:connector-curvature="0"
         id="path4051"
         d="M 0,864 H 864 V 0 H 0 Z" />
    </clipPath>
    <clipPath
       id="clipPath4150"
       clipPathUnits="userSpaceOnUse">
      <path
         inkscape:connector-curvature="0"
         id="path4148"
         d="M 0,864 H 864 V 0 H 0 Z" />
    </clipPath>
    <clipPath
       id="clipPath4295"
       clipPathUnits="userSpaceOnUse">
      <path
         inkscape:connector-curvature="0"
         id="path4293"
         d="M 0,864 H 864 V 0 H 0 Z" />
    </clipPath>
    <clipPath
       id="clipPath4410"
       clipPathUnits="userSpaceOnUse">
      <path
         inkscape:connector-curvature="0"
         id="path4408"
         d="M 0,864 H 864 V 0 H 0 Z" />
    </clipPath>
    <clipPath
       id="clipPath4615"
       clipPathUnits="userSpaceOnUse">
      <path
         inkscape:connector-curvature="0"
         id="path4613"
         d="M 0,864 H 864 V 0 H 0 Z" />
    </clipPath>
    <clipPath
       id="clipPath4838"
       clipPathUnits="userSpaceOnUse">
      <path
         inkscape:connector-curvature="0"
         id="path4836"
         d="M 0,864 H 864 V 0 H 0 Z" />
    </clipPath>
    <clipPath
       id="clipPath5001"
       clipPathUnits="userSpaceOnUse">
      <path
         inkscape:connector-curvature="0"
         id="path4999"
         d="M 0,864 H 864 V 0 H 0 Z" />
    </clipPath>
    <inkscape:perspective
       id="perspective9"
       inkscape:persp3d-origin="372.04724 : 350.78739 : 1"
       inkscape:vp_z="744.09448 : 526.18109 : 1"
       inkscape:vp_y="0 : 1000 : 0"
       inkscape:vp_x="0 : 526.18109 : 1"
       sodipodi:type="inkscape:persp3d" />
  </defs>
  <sodipodi:namedview
     id="base"
     pagecolor="#000000"
     bordercolor="#666666"
     borderopacity="1.0"
     inkscape:pageopacity="0"
     inkscape:pageshadow="2"
     inkscape:zoom="0.91846942"
     inkscape:cx="396.85039"
     inkscape:cy="556.87007"
     inkscape:document-units="mm"
     inkscape:current-layer="g5136"
     showgrid="false"
     inkscape:window-width="2560"
     inkscape:window-height="1385"
     inkscape:window-x="2560"
     inkscape:window-y="27"
     inkscape:window-maximized="1"
     showguides="true"
     inkscape:guide-bbox="true">
    <sodipodi:guide
       position="105.43356,205.96993"
       orientation="1,0"
       id="guide3815"
       inkscape:locked="false" />
    <sodipodi:guide
       position="92.758485,149.50825"
       orientation="0,1"
       id="guide3817"
       inkscape:locked="false" />
  </sodipodi:namedview>
  <metadata
     id="metadata5">
    <rdf:RDF>
      <cc:Work
         rdf:about="">
        <dc:format>image/svg+xml</dc:format>
        <dc:type
           rdf:resource="http://purl.org/dc/dcmitype/StillImage" />
        <dc:title></dc:title>
      </cc:Work>
    </rdf:RDF>
  </metadata>
  <g
     inkscape:label="Layer 1"
     inkscape:groupmode="layer"
     id="layer1">
    <g
       transform="matrix(0.35277777,0,0,-0.35277777,-70.777455,287.43463)"
       inkscape:label="1"
       id="g37">
      <g
         id="g39">
        <g
           id="g5136"
           transform="matrix(0.75000002,0,0,-0.75000002,342.50983,505.50165)"
           style="fill:#ffeeaa">
          <path
             style="fill:#ffeeaa;stroke-width:1.77466667"
             d="m 177.90477,330.09171 c -4.13665,-4.58263 -9.32755,-10.38606 -11.53536,-12.8969 -20.90276,-23.77058 -22.07226,-24.71703 -30.54359,-24.71703 -4.4422,0 -8.07668,0.79885 -8.07668,1.77468 0,0.97592 -3.1944,1.77467 -7.09859,1.77467 -3.90431,0 -7.09871,0.79888 -7.09871,1.77468 0,0.97595 -3.1944,1.77468 -7.09873,1.77468 -3.90419,0 -7.098593,0.7113 -7.098593,1.5805 0,1.4813 -3.976258,2.45823 -19.828041,4.87219 -5.787822,0.88135 -7.229083,0.26061 -12.86632,-5.54447 -3.491612,-3.59524 -6.348361,-7.37297 -6.348361,-8.39489 0,-1.02159 -1.435404,-3.14933 -3.189875,-4.72782 -1.754258,-1.5786 -5.109816,-5.66529 -7.456688,-9.08154 -4.330489,-6.30378 -6.945983,-8.79703 -9.279758,-8.84624 -0.711314,-0.0213 -5.684701,4.36521 -11.053023,9.73354 -5.368403,5.3684 -10.776336,9.7332 -12.017573,9.6995 -1.241345,-0.0301 -7.3832441,-5.14054 -13.6486867,-11.34832 L -7.7255979,266.23188 30.285951,227.88952 c 20.906257,-21.08836 39.024493,-38.34236 40.262829,-38.34236 1.238308,0 7.46914,5.2177 13.846288,11.59474 l 11.594714,11.59479 -14.270665,14.28999 c -15.577199,15.59805 -15.569958,15.56804 -6.304893,26.05071 2.330551,2.63693 6.180928,7.16149 8.556364,10.05466 3.941648,4.80065 4.731935,5.07202 9.047544,3.10568 2.600796,-1.18509 6.29915,-2.1546 8.218618,-2.1546 1.91945,0 4.87662,-0.70024 6.57152,-1.55675 4.01194,-2.02681 13.10891,-4.68154 25.26493,-7.37269 5.3683,-1.1885 12.12834,-2.87818 15.02233,-3.75499 4.94352,-1.49779 5.85434,-0.92863 15.0667,9.41315 16.45484,18.47271 26.35214,28.11657 28.85534,28.11657 1.31197,0 3.53657,-1.5972 4.94363,-3.54926 1.40702,-1.95215 3.40517,-3.54935 4.44035,-3.54935 1.0353,0 5.89912,-3.83136 10.80865,-8.51402 4.90952,-4.68263 11.67258,-10.44623 15.02896,-12.80786 3.35648,-2.36174 7.18505,-5.34567 8.50799,-6.63087 2.95033,-2.8666 6.35326,-1.85718 20.40862,6.05314 5.99765,3.37542 12.30233,6.58248 14.01041,7.1267 1.70807,0.54431 3.10566,1.69498 3.10566,2.55712 0,0.86225 1.5972,1.56781 3.54936,1.56781 1.95215,0 3.55558,0.59866 3.56313,1.331 0.0213,1.82166 8.81655,5.76763 12.8589,5.76763 1.81048,0 5.8439,-2.39202 8.96322,-5.31577 3.11925,-2.92368 6.34928,-5.31943 7.17769,-5.32406 0.82803,0 3.62362,-2.21212 6.21132,-4.90569 2.58783,-2.69376 9.09736,-8.47988 14.46576,-12.85839 15.07373,-12.29416 14.67304,-11.7571 12.21047,-16.36457 -1.18611,-2.21918 -6.14501,-7.7231 -11.01973,-12.23081 l -8.86313,-8.19605 4.02172,-4.22656 c 2.21195,-2.32483 5.22795,-6.0236 6.7023,-8.21973 1.47426,-2.19615 3.59454,-3.99305 4.71151,-3.99305 1.11711,0 3.0285,-1.5972 4.24762,-3.54936 1.2191,-1.95206 3.41231,-3.54926 4.87378,-3.54926 1.46138,0 19.83217,17.17501 40.82385,38.16669 l 38.16679,38.16669 -11.5241,11.52398 c -6.33819,6.3382 -12.44207,11.5239 -13.56418,11.5239 -1.12211,0 -7.64151,-5.59013 -14.48768,-12.42264 -6.84596,-6.8325 -13.1409,-12.42265 -13.98864,-12.42265 -2.58804,0 -9.13902,4.19428 -13.86815,8.87903 -2.46648,2.44334 -7.53827,6.72173 -11.27084,9.50754 -3.73246,2.7857 -9.33368,7.5748 -12.4471,10.64222 -3.11339,3.06742 -8.44487,7.6717 -11.84765,10.23145 -3.40276,2.55973 -9.78018,7.95028 -14.17207,11.97895 -4.39187,4.02875 -9.07541,7.32479 -10.4079,7.32479 -2.85051,0 -20.37967,-9.1534 -21.2411,-11.09169 -0.32496,-0.73244 -2.12229,-1.33096 -3.99304,-1.33096 -1.87078,0 -3.40148,-0.79883 -3.40148,-1.77468 0,-0.97594 -1.53057,-1.77467 -3.40146,-1.77467 -1.87074,0 -3.66757,-0.59863 -3.99294,-1.331 -0.95278,-2.14381 -15.71906,-9.31698 -19.17929,-9.31698 -1.74217,0 -6.45923,3.1944 -10.48234,7.09863 -4.02305,3.9043 -7.91265,7.10966 -8.64359,7.12305 -0.73045,0.0213 -6.51991,4.79392 -12.86433,10.62361 -6.34444,5.82982 -12.35727,10.61045 -13.36186,10.62374 -1.00511,0.0213 -2.97779,1.62153 -4.38484,3.5736 -3.82634,5.30871 -7.1984,4.22623 -15.50705,-4.97805 z m 28.81709,-114.37924 c -12.61973,-4.38946 -21.62342,-9.18377 -26.17637,-13.93806 -5.16628,-5.39494 -5.60857,-6.61847 -3.5222,-9.74326 4.91576,-7.362 32.71641,-8.46218 51.64888,-2.0437 6.47263,2.1942 12.0345,4.58996 12.35988,5.32403 0.32496,0.73346 1.57233,1.3343 2.77101,1.3343 3.37954,0 9.78462,6.71961 10.99246,11.53194 2.0249,8.06789 -2.19786,9.78523 -23.54529,9.57524 -10.56245,-0.10472 -21.60019,-1.02201 -24.52837,-2.04049 z m -90.8291,-56.98206 c -5.05693,-1.10811 -9.78203,-2.61358 -10.50019,-3.3456 -0.71837,-0.73245 -2.99277,-1.331 -5.05479,-1.331 -2.061934,0 -4.900264,-1.5972 -6.307307,-3.54935 -1.406955,-1.95215 -3.380124,-3.55711 -4.384721,-3.56665 -1.005121,-0.0213 -4.621678,-3.27872 -8.037907,-7.26484 -3.416253,-3.98611 -8.008147,-9.13276 -10.204378,-11.43715 -2.19615,-2.3046 -3.992946,-5.00068 -3.992946,-5.9913 0,-0.991 -1.590865,-4.63384 -3.53519,-8.09556 C 55.483379,99.20753 48.678641,66.980107 50.164676,49.213604 51.625555,31.746433 54.772253,13.997629 57.496197,7.8590568 c 1.351923,-3.0464995 3.532048,-8.13470024 4.844731,-11.306872 1.312659,-3.1722788 2.990358,-5.7677288 3.728131,-5.7677288 0.737481,0 1.341462,-1.5972 1.341462,-3.549245 0,-1.952177 0.798839,-3.549377 1.774675,-3.549377 0.975916,0 1.774676,-1.124615 1.774676,-2.499059 0,-3.22267 12.958807,-16.340234 23.135787,-23.419425 8.913051,-6.199957 14.033251,-7.802695 28.883821,-9.04103 10.09723,-0.842097 26.06572,2.329969 26.06572,5.177563 0,0.762637 1.55532,1.387329 3.45628,1.387329 1.90093,0 8.49146,4.991197 14.64545,11.091648 13.46719,13.349665 17.39162,18.259909 17.39162,21.759854 0,1.452919 0.79883,2.641742 1.77456,2.641742 0.97596,0 1.77469,1.0479762 1.77469,2.3287442 0,1.2807681 1.51581,5.4734451 3.36845,9.3169738 10.01453,20.776777 13.03787,53.885965 7.28252,79.749633 -1.0861,4.880351 -2.41695,11.468754 -2.95756,14.64102 -0.54028,3.17218 -1.40652,5.767633 -1.92416,5.767633 -1.825,0 -5.65708,-6.249653 -5.7128,-9.316972 -0.0301,-1.708072 -0.85518,-3.105681 -1.83114,-3.105681 -0.97591,0 -1.77456,-1.044729 -1.77456,-2.321583 0,-1.276855 -3.17558,-4.670985 -7.05675,-7.542325 -3.88118,-2.871419 -7.07558,-5.819744 -7.09873,-6.551794 -0.0213,-0.732423 -1.63916,-1.330974 -3.59121,-1.330974 -1.95214,0 -3.54934,-0.798839 -3.54934,-1.774675 0,-1.035199 -5.91553,-1.774676 -14.19732,-1.774676 -8.28181,0 -14.19734,0.739477 -14.19734,1.774676 0,0.975916 -1.16427,1.774675 -2.58722,1.774675 -1.42294,0 -4.71562,3.631874 -7.31712,8.071025 -3.56527,6.083548 -4.48866,9.557139 -3.75038,14.106657 2.18204,13.446477 12.10463,27.332907 22.48012,31.460587 11.99395,4.77158 21.71499,6.45518 25.99911,4.50325 6.59111,-3.00314 8.83244,0.57748 3.68126,5.88139 -9.97218,10.26678 -19.35123,17.61177 -22.48897,17.61177 -1.86163,0 -3.80937,0.68717 -4.32833,1.52678 -0.51913,0.84011 -4.39556,2.00005 -8.61459,2.57815 -4.21914,0.57851 -8.83284,1.39689 -10.25277,1.81895 -1.42003,0.42155 -6.71932,-0.13975 -11.77621,-1.24728 z m 173.35108,-1.12364 c -3.41625,-0.87226 -8.4467,-2.12921 -11.1788,-2.79325 -8.34678,-2.0285 -5.38148,-6.79364 4.98598,-8.01214 16.3689,-1.92388 25.93472,-8.72641 29.13051,-20.71581 3.04913,-11.43948 -3.50045,-28.631792 -10.95863,-28.765794 -1.70817,-0.03014 -3.10568,-0.660022 -3.10568,-1.398221 0,-0.73846 -3.1818,-2.33566 -7.07075,-3.549351 -8.4661,-2.642326 -28.42261,-2.945794 -28.42261,-0.432623 0,0.975937 -1.56762,1.77467 -3.48346,1.77467 -3.29771,0 -17.81258,13.306439 -17.81258,16.329379 0,0.77976 -0.79884,1.41731 -1.77468,1.41731 -0.97591,0 -1.77467,-1.5972 -1.77467,-3.54936 0,-1.95215 -0.70527,-3.54935 -1.56771,-3.54935 -0.86225,0 -2.10319,-2.19613 -2.75747,-4.880327 -0.65396,-2.684198 -2.07347,-8.474083 -3.15385,-12.866352 -2.48136,-10.087862 -2.56445,-53.299283 -0.12272,-63.888 2.71933,-11.793033 8.14125,-27.4210225 9.74841,-28.0988475 0.77169,-0.324977 1.40293,-1.3793686 1.40293,-2.3423205 0,-2.580889 10.60258,-17.544869 16.80366,-23.715438 8.19577,-8.155835 16.16668,-13.313141 26.29971,-17.016943 9.77164,-3.571684 28.71068,-4.556065 30.54531,-1.587749 0.60268,0.975943 3.44542,1.774676 6.31608,1.774676 2.8705,0 5.21919,0.798866 5.21919,1.774675 0,0.975943 1.21919,1.774702 2.70935,1.774702 3.72693,0 19.65246,14.271675 28.01926,25.109369 3.99507,5.174954 11.86344,22.0323085 11.86344,25.416376 0,1.3776653 0.71435,2.9461949 1.58714,3.4856492 0.87331,0.5392948 2.02378,3.9807818 2.55743,7.6470478 0.53326,3.66648 1.87791,11.857027 2.98746,18.201452 2.16151,12.36097 1.18748,41.13522 -1.70485,50.361845 -0.95481,3.047111 -2.74146,9.333581 -3.96941,13.969858 -1.22797,4.636357 -2.85698,8.429677 -3.61991,8.429677 -0.76264,0 -1.38721,1.12244 -1.38721,2.49427 0,8.71501 -29.82412,43.64705 -37.26481,43.64705 -1.5635,0 -3.69485,0.85218 -4.73636,1.8937 -2.50956,2.50965 -26.44663,3.6676 -34.30948,1.65971 z"
             id="path6497-6-1"
             inkscape:connector-curvature="0"
             sodipodi:nodetypes="ccssssssccscscsccccsccccccsccccscssccccsscscccccccccscssccscsscsscscssscscccccccccccscccccsccscsccccssssscsscssscccscssccssssscscccscccccccccscssssssccccscscssscscccccsssccc" />
        </g>
      </g>
    </g>
  </g>
</svg>
