<?xml version="1.0" encoding="UTF-8" standalone="no"?>
<!-- Created with Inkscape (http://www.inkscape.org/) -->

<svg
   xmlns:dc="http://purl.org/dc/elements/1.1/"
   xmlns:cc="http://creativecommons.org/ns#"
   xmlns:rdf="http://www.w3.org/1999/02/22-rdf-syntax-ns#"
   xmlns:svg="http://www.w3.org/2000/svg"
   xmlns="http://www.w3.org/2000/svg"
   xmlns:sodipodi="http://sodipodi.sourceforge.net/DTD/sodipodi-0.dtd"
   xmlns:inkscape="http://www.inkscape.org/namespaces/inkscape"
   width="210mm"
   height="297mm"
   viewBox="0 0 210 297"
   version="1.1"
   id="svg8"
   inkscape:version="0.92.2 5c3e80d, 2017-08-06"
   sodipodi:docname="grin5.svg">
  <defs
     id="defs2">
    <clipPath
       id="clipPath45"
       clipPathUnits="userSpaceOnUse">
      <path
         inkscape:connector-curvature="0"
         id="path43"
         d="M 0,864 H 864 V 0 H 0 Z" />
    </clipPath>
    <clipPath
       id="clipPath3854"
       clipPathUnits="userSpaceOnUse">
      <path
         inkscape:connector-curvature="0"
         id="path3852"
         d="M 0,864 H 864 V 0 H 0 Z" />
    </clipPath>
    <clipPath
       id="clipPath4053"
       clipPathUnits="userSpaceOnUse">
      <path
         inkscape:connector-curvature="0"
         id="path4051"
         d="M 0,864 H 864 V 0 H 0 Z" />
    </clipPath>
    <clipPath
       id="clipPath4150"
       clipPathUnits="userSpaceOnUse">
      <path
         inkscape:connector-curvature="0"
         id="path4148"
         d="M 0,864 H 864 V 0 H 0 Z" />
    </clipPath>
    <clipPath
       id="clipPath4295"
       clipPathUnits="userSpaceOnUse">
      <path
         inkscape:connector-curvature="0"
         id="path4293"
         d="M 0,864 H 864 V 0 H 0 Z" />
    </clipPath>
    <clipPath
       id="clipPath4410"
       clipPathUnits="userSpaceOnUse">
      <path
         inkscape:connector-curvature="0"
         id="path4408"
         d="M 0,864 H 864 V 0 H 0 Z" />
    </clipPath>
    <clipPath
       id="clipPath4615"
       clipPathUnits="userSpaceOnUse">
      <path
         inkscape:connector-curvature="0"
         id="path4613"
         d="M 0,864 H 864 V 0 H 0 Z" />
    </clipPath>
    <clipPath
       id="clipPath4838"
       clipPathUnits="userSpaceOnUse">
      <path
         inkscape:connector-curvature="0"
         id="path4836"
         d="M 0,864 H 864 V 0 H 0 Z" />
    </clipPath>
    <clipPath
       id="clipPath5001"
       clipPathUnits="userSpaceOnUse">
      <path
         inkscape:connector-curvature="0"
         id="path4999"
         d="M 0,864 H 864 V 0 H 0 Z" />
    </clipPath>
    <inkscape:perspective
       id="perspective9"
       inkscape:persp3d-origin="372.04724 : 350.78739 : 1"
       inkscape:vp_z="744.09448 : 526.18109 : 1"
       inkscape:vp_y="0 : 1000 : 0"
       inkscape:vp_x="0 : 526.18109 : 1"
       sodipodi:type="inkscape:persp3d" />
  </defs>
  <sodipodi:namedview
     id="base"
     pagecolor="#000000"
     bordercolor="#666666"
     borderopacity="1.0"
     inkscape:pageopacity="0"
     inkscape:pageshadow="2"
     inkscape:zoom="0.91846942"
     inkscape:cx="396.85039"
     inkscape:cy="556.87007"
     inkscape:document-units="mm"
     inkscape:current-layer="g5136"
     showgrid="false"
     inkscape:window-width="2560"
     inkscape:window-height="1385"
     inkscape:window-x="2560"
     inkscape:window-y="27"
     inkscape:window-maximized="1"
     showguides="true"
     inkscape:guide-bbox="true">
    <sodipodi:guide
       position="105.43356,205.96993"
       orientation="1,0"
       id="guide3815"
       inkscape:locked="false" />
    <sodipodi:guide
       position="92.758485,149.50825"
       orientation="0,1"
       id="guide3817"
       inkscape:locked="false" />
  </sodipodi:namedview>
  <metadata
     id="metadata5">
    <rdf:RDF>
      <cc:Work
         rdf:about="">
        <dc:format>image/svg+xml</dc:format>
        <dc:type
           rdf:resource="http://purl.org/dc/dcmitype/StillImage" />
        <dc:title></dc:title>
      </cc:Work>
    </rdf:RDF>
  </metadata>
  <g
     inkscape:label="Layer 1"
     inkscape:groupmode="layer"
     id="layer1">
    <g
       transform="matrix(0.35277777,0,0,-0.35277777,-70.777455,287.43463)"
       inkscape:label="1"
       id="g37">
      <g
         id="g39">
        <g
           id="g5136"
           transform="matrix(0.75000002,0,0,-0.75000002,342.50983,505.50165)"
           style="fill:#ffeeaa">
          <path
             style="fill:#ffeeaa;stroke-width:1.72916186"
             d="m 167.68557,336.87037 c -3.04484,-1.10843 -6.09244,-2.57184 -6.77254,-3.25188 -0.68035,-0.68035 -2.61147,-1.23666 -4.29185,-1.23666 -3.10688,0 -20.96501,-10.16819 -22.01758,-12.53643 -0.31667,-0.71368 -1.65134,-1.29687 -2.96525,-1.29687 -1.31381,0 -3.22172,-1.55626 -4.23963,-3.45834 -1.018,-1.90209 -2.60411,-3.45833 -3.52484,-3.45833 -2.49428,0 -24.141756,-22.77894 -24.141756,-25.40359 0,-1.24475 -0.583275,-2.26841 -1.296834,-2.27475 -0.713669,0 -3.241238,-2.92457 -5.617502,-6.48438 -2.376352,-3.55995 -5.294414,-7.50076 -6.484352,-8.75749 -1.190132,-1.25677 -2.16377,-2.95204 -2.16377,-3.76716 0,-0.81464 -0.972465,-2.53413 -2.161484,-3.8197 -2.933584,-3.17268 -7.701621,-11.25165 -11.267503,-19.09166 -1.622103,-3.56639 -3.543841,-6.48438 -4.27054,-6.48438 -0.72642,0 -1.321244,-1.55624 -1.321244,-3.45836 0,-1.90198 -0.778409,-3.45821 -1.72921,-3.45821 -0.95089,0 -1.729131,-1.55627 -1.729131,-3.45838 0,-1.90211 -0.778375,-3.45833 -1.729117,-3.45833 -0.950889,0 -1.729146,-1.55627 -1.729146,-3.45835 0,-1.90209 -0.778389,-3.45833 -1.729175,-3.45833 -0.950918,0 -1.729176,-1.55627 -1.729176,-3.45825 0,-1.90211 -0.778345,-3.45835 -1.729175,-3.45835 -0.950918,0 -1.729175,-1.55624 -1.729175,-3.45835 0,-1.90211 -0.778375,-3.45835 -1.729147,-3.45835 -0.950931,0 -1.729209,-1.17776 -1.729209,-2.61715 0,-1.4395 -0.778376,-4.1629 -1.729141,-6.05205 -0.950926,-1.88925 -2.507258,-4.98058 -3.458265,-6.86971 -0.950893,-1.8892 -1.729172,-4.26117 -1.729172,-5.27104 0,-1.00991 -1.556252,-5.05726 -3.458343,-8.99409 -1.902078,-3.93685 -3.458331,-8.52202 -3.458331,-10.18937 0,-1.66729 -0.778406,-3.51234 -1.729202,-4.10013 -0.950903,-0.58821 -1.729149,-2.57901 -1.729149,-4.42503 0,-1.84593 -0.778371,-3.35621 -1.729099,-3.35621 -0.9509,0 -1.729165,-2.33443 -1.729165,-5.18754 0,-2.85309 -0.637196,-5.18751 -1.416666,-5.18751 -0.779327,0 -2.489361,-3.93987 -3.800636,-8.75536 -1.311397,-4.81537 -3.008216,-9.14101 -3.770961,-9.61244 -0.762692,-0.47154 -1.386779,-2.76694 -1.386779,-5.10138 0,-2.3344 -0.753834,-5.5954 -1.67466,-7.24686 -1.951796,-3.49949 -6.9710899,-18.777543 -6.9710899,-21.219222 0,-2.657693 4.5445279,-1.933171 7.0867669,1.130019 3.586357,4.321315 27.008567,19.680333 30.012072,19.680333 1.469573,0 2.67182,0.68725 2.67182,1.52754 0,0.8401 1.36175,1.95933 3.026036,2.48713 4.484729,1.42223 13.053164,6.85525 15.485314,9.81874 1.170774,1.42654 2.153357,5.8548 2.183638,9.84056 0.02928,3.98572 0.833272,7.72777 1.784179,8.31561 0.95088,0.58816 1.729155,4.36864 1.729155,8.40204 0,4.03328 0.702875,8.07245 1.561529,8.97602 0.858762,0.90383 1.997192,5.14423 2.529725,9.42397 2.140665,17.20375 4.081336,28.68576 5.333734,31.55713 1.784,4.08975 4.408309,3.83238 4.408309,-0.43233 0,-1.90212 0.778356,-3.45834 1.729162,-3.45834 0.950903,0 1.729184,-1.09367 1.729184,-2.43039 0,-1.33665 1.508771,-5.42183 3.352932,-9.07811 7.356679,-14.58559 17.396929,-36.24223 17.396929,-37.52468 0,-3.56371 5.53782,-6.62454 10.0082,-5.5316 5.39674,1.31938 16.45414,3.77254 28.89793,6.41105 11.40358,2.41793 86.90823,3.93966 89.59721,1.80581 1.12656,-0.89403 7.68975,-2.16145 14.58481,-2.81641 10.71581,-1.01787 12.5364,-0.79896 12.5364,1.50762 0,1.48419 0.77839,2.6985 1.7292,2.6985 0.95086,0 1.72915,1.021 1.72915,2.26895 0,2.20167 5.05096,14.05649 8.97915,21.07474 1.06473,1.90199 2.49511,4.62549 3.17847,6.05205 0.68331,1.42656 2.89644,5.97432 4.91757,10.106 2.02109,4.13187 3.67479,8.60608 3.67479,9.94276 0,1.33666 0.77839,2.43027 1.72916,2.43027 0.95091,0 1.72917,1.55623 1.72917,3.45835 0,1.9021 0.77838,3.45835 1.72916,3.45835 0.95094,0 1.72908,1.55624 1.72908,3.45835 0,1.902 0.77837,3.45824 1.72921,3.45824 0.95085,0 1.72915,-1.89937 1.72915,-4.22082 0,-2.32145 0.67739,-4.63965 1.50585,-5.15148 0.82837,-0.51169 1.98014,-4.64282 2.56018,-9.18008 0.99985,-7.82191 2.9975,-19.37894 6.35776,-36.78071 0.82638,-4.27966 2.28724,-11.95209 3.24657,-17.04982 2.09863,-11.15318 5.94775,-17.53347 10.57776,-17.53347 1.88012,0 3.41842,-0.58718 3.41842,-1.30607 0,-0.71855 2.91799,-2.33541 6.48437,-3.5936 15.88667,-5.60451 17.72397,-6.39517 17.72397,-7.62751 0,-0.7186 1.55624,-1.30611 3.45833,-1.30611 1.90201,0 3.45826,-0.68719 3.45826,-1.52744 0,-0.84011 1.36173,-1.97195 3.02602,-2.51507 4.71208,-1.53779 36.88157,-19.920587 38.47394,-21.985261 1.52377,-1.975808 8.9124,-5.407028 9.77824,-4.540999 0.45974,0.459771 -0.11749,2.662846 -1.28255,4.895297 -4.26271,8.165607 -5.03734,10.115634 -5.03734,12.681318 0,1.439493 -0.77841,2.617245 -1.72921,2.617245 -0.95089,0 -1.72914,1.18438 -1.72914,2.6321 0,1.44765 -3.1125,8.82254 -6.9167,16.38869 -3.80413,7.56604 -6.9166,14.87612 -6.9166,16.24457 0,1.3684 -0.61073,2.74733 -1.35597,3.06432 -0.746,0.31664 -4.25574,6.41235 -7.79966,13.54508 -7.97228,16.04469 -12.07025,23.17103 -13.75583,23.92012 -0.71367,0.31665 -1.29686,2.06776 -1.29686,3.89067 0,1.82277 -0.68325,3.31413 -1.51938,3.31413 -0.83523,0 -2.48619,2.3344 -3.66805,5.18749 -1.18177,2.85313 -2.8325,5.18756 -3.66813,5.18756 -0.83521,0 -1.51937,1.55622 -1.51937,3.45834 0,1.90197 -0.77836,3.45822 -1.72918,3.45822 -0.95089,0 -1.72916,1.0205 -1.72916,2.26777 0,1.24713 -1.36169,3.81569 -3.02593,5.70779 -1.66432,1.89207 -3.87725,4.95671 -4.91765,6.81042 -5.41054,9.64086 -6.93247,12.07665 -8.85517,14.17352 -1.15546,1.26021 -3.46302,4.59739 -5.12799,7.4159 -1.66496,2.81847 -3.63754,5.12455 -4.38335,5.12455 -0.74605,0 -1.35648,1.00522 -1.35648,2.23392 0,1.22866 -3.49824,6.09199 -7.77369,10.80727 -4.27562,4.71531 -7.7772,9.09336 -7.7813,9.7291 -10e-4,0.63528 -2.92548,4.23057 -6.49175,7.98848 -3.56646,3.75825 -9.98602,10.81665 -14.26569,15.68557 -4.27963,4.86881 -8.25472,8.86074 -8.8334,8.87066 -0.57835,0.0215 -5.23995,3.90877 -10.35834,8.66389 -5.1183,4.75521 -10.28625,8.64588 -11.48415,8.64588 -1.19794,0 -2.17816,0.72543 -2.17816,1.61261 0,0.88719 -1.55154,2.10512 -3.44799,2.70703 -1.8964,0.60192 -4.42542,2.01602 -5.61992,3.14257 -2.95219,2.7843 -16.71756,9.82942 -19.20568,9.82942 -2.52658,0 -6.30966,-11.84531 -6.30966,-19.75602 0,-3.28751 -0.77838,-6.45829 -1.72913,-7.04601 -0.95088,-0.58721 -1.72914,-3.70961 -1.72914,-6.93735 0,-6.32912 -3.10837,-14.67716 -5.46507,-14.67716 -0.79795,0 -1.45163,1.01206 -1.45163,2.24895 0,3.18128 -4.0668,11.55472 -5.61974,11.57079 -0.71367,0 -1.29685,1.56977 -1.29685,3.47189 0,1.90211 -0.58822,3.45836 -1.30606,3.45836 -0.7186,0 -2.19759,2.52881 -3.28717,5.61971 -7.83652,22.22926 -12.05168,29.02904 -17.8264,28.75718 -2.4103,-0.1135 -6.87355,-1.11325 -9.91835,-2.22177 z m -4.83905,-220.63465 c -0.58822,-0.95087 -2.29869,-1.72914 -3.80201,-1.72914 -1.50338,0 -3.76701,-1.36175 -5.03041,-3.02604 -2.68955,-3.54293 -3.19907,-14.265569 -0.6784,-14.265569 0.95088,0 1.72906,-1.556258 1.72906,-3.458384 0,-1.901963 0.77839,-3.458229 1.72918,-3.458229 0.95087,0 1.72917,-1.077745 1.72917,-2.394889 0,-1.317158 1.75085,-3.556565 3.89069,-4.976391 2.13981,-1.419753 6.28857,-4.892533 9.21952,-7.717176 5.30484,-5.112529 29.12273,-17.578695 40.31955,-21.103018 7.48428,-2.355759 33.02838,-2.449284 33.02838,-0.120467 0,0.950918 1.36578,1.729164 3.03514,1.729164 1.99292,0 3.73108,2.223077 5.06137,6.473329 1.78125,5.690893 1.57114,7.306432 -1.7383,13.365464 -3.80105,6.959329 -13.74293,18.143334 -16.24331,18.273034 -0.74501,0.03908 -4.04849,2.373022 -7.34123,5.187482 -3.29267,2.8145 -6.98874,5.11726 -8.21356,5.11726 -1.22469,0 -2.22678,0.77834 -2.22678,1.72916 0,0.9509 -1.55626,1.72907 -3.45828,1.72907 -1.90206,0 -3.45831,0.60777 -3.45831,1.35166 0,0.74305 -3.69606,2.3513 -8.21355,3.57302 -4.51736,1.2217 -9.56463,2.94782 -11.21606,3.83581 -4.02149,2.16242 -26.77238,2.0696 -28.12239,-0.11459 z M 101.89361,32.809617 c -3.090898,-0.991487 -5.61982,-2.468338 -5.61982,-3.281787 0,-0.813656 -1.184128,-1.479003 -2.631321,-1.479003 -3.845611,0 -21.576913,-18.3580047 -21.576913,-22.3394228 0,-1.8667187 -0.778355,-3.874794 -1.729155,-4.4625878 -0.970499,-0.59995865 -1.729169,-8.8370335 -1.729169,-18.7780724 0,-17.280159 2.208169,-27.002104 6.139584,-27.031334 2.822699,-0.02079 11.123384,4.157015 11.138485,5.606323 0.0036,0.713666 1.569793,1.296844 3.471898,1.296844 1.90201,0 3.458257,0.778382 3.458257,1.729169 0,0.950918 1.020481,1.729171 2.267716,1.729171 1.247257,0 3.938154,1.556351 5.979738,3.45834 2.04167,1.902124 4.91183,3.45837 6.37821,3.45837 3.0509,0 3.63931,7.054511 0.9997,11.986563 -2.08012,3.886828 0.99589,13.1159825 6.34538,19.0386399 3.10286,3.4352065 5.47208,4.2230804 12.69976,4.2230804 7.8323,0 9.45657,-0.6538587 13.70482,-5.520031 5.62601,-6.443684 7.5081,-6.7529878 12.54371,-2.06171235 2.04168,1.90212325 4.73257,3.45836915 5.9798,3.45836915 1.24716,0 2.26765,0.7783545 2.26765,1.729167 0,0.9508928 1.49144,1.7291703 3.31424,1.7291703 1.82281,0 3.57365,0.5832827 3.89059,1.2968472 0.72154,1.6233954 9.93192,7.2388224 13.97736,8.5217654 2.84106,0.900911 3.51472,2.242057 2.66851,5.311516 -0.48524,1.762008 -11.69462,5.561594 -16.5018,5.593755 -2.13982,0.01023 -3.89055,0.632304 -3.89055,1.373414 0,4.370327 -51.87736,7.156864 -63.54668,3.413446 z m 161.24428,-0.771511 c -5.70618,-1.419971 -13.29782,-2.980729 -16.87017,-3.468353 -3.57235,-0.487209 -6.92519,-1.582415 -7.45095,-2.43293 -0.52547,-0.850904 -2.4661,-1.546531 -4.31213,-1.546531 -2.20341,0 -3.35619,-1.187831 -3.35619,-3.45834 0,-2.3055 1.15278,-3.458341 3.45824,-3.458341 1.90211,0 3.45836,-0.778357 3.45836,-1.729168 0,-0.95092 1.02052,-1.729171 2.26767,-1.729171 1.24724,0 3.9382,-1.556247 5.97983,-3.458264 2.04176,-1.9020955 4.55529,-3.4583414 5.58581,-3.4583414 1.03053,0 3.54418,-1.5562448 5.58584,-3.4583406 2.04178,-1.9020925 4.73251,-3.45833835 5.97989,-3.45833835 1.24724,0 2.26752,-0.7783842 2.26752,-1.72906805 0,-3.4788567 5.656,-1.5935161 10.37504,3.4582361 4.16956,4.4636493 6.08715,5.1875109 13.7411,5.1875109 7.21465,0 9.72307,-0.828366 13.27709,-4.3818962 5.3766,-5.3766196 8.08215,-13.9000414 5.77856,-18.2043864 -2.25209,-4.207984 -2.12446,-11.996966 0.1972,-11.996966 1.02765,0 5.89099,-2.587935 10.80733,-5.751002 16.21412,-10.431592 18.29591,-11.540727 21.66162,-11.540727 3.85415,0 5.01368,2.340801 7.91591,15.978981 2.26297,10.63484 0.90675,23.1947783 -3.6349,33.6721717 -2.99987,6.9201063 -18.42842,22.9737763 -22.07921,22.9737763 -1.48822,0 -2.70595,0.6931 -2.70595,1.539983 0,4.463365 -42.59583,6.264595 -57.92693,2.449505 z"
             id="path6497-7"
             inkscape:connector-curvature="0"
             sodipodi:nodetypes="csccscsssscccsccssssssssssssccssscssssccscscssccccscccssscscscsssscccsssssssccccsscsssccccssscscccsscsssssccsssscccccssscsscssscsscccccscsssssscssccccsssscccccssscsccssscsccsccsssccccsccccssssscscsscsccscsccss" />
        </g>
      </g>
    </g>
  </g>
</svg>
