<?xml version="1.0" encoding="UTF-8" standalone="no"?>
<!-- Created with Inkscape (http://www.inkscape.org/) -->

<svg
   xmlns:dc="http://purl.org/dc/elements/1.1/"
   xmlns:cc="http://creativecommons.org/ns#"
   xmlns:rdf="http://www.w3.org/1999/02/22-rdf-syntax-ns#"
   xmlns:svg="http://www.w3.org/2000/svg"
   xmlns="http://www.w3.org/2000/svg"
   xmlns:sodipodi="http://sodipodi.sourceforge.net/DTD/sodipodi-0.dtd"
   xmlns:inkscape="http://www.inkscape.org/namespaces/inkscape"
   width="210mm"
   height="297mm"
   viewBox="0 0 210 297"
   version="1.1"
   id="svg8"
   inkscape:version="0.92.2 5c3e80d, 2017-08-06"
   sodipodi:docname="grin4.svg">
  <defs
     id="defs2">
    <clipPath
       id="clipPath45"
       clipPathUnits="userSpaceOnUse">
      <path
         inkscape:connector-curvature="0"
         id="path43"
         d="M 0,864 H 864 V 0 H 0 Z" />
    </clipPath>
    <clipPath
       id="clipPath3854"
       clipPathUnits="userSpaceOnUse">
      <path
         inkscape:connector-curvature="0"
         id="path3852"
         d="M 0,864 H 864 V 0 H 0 Z" />
    </clipPath>
    <clipPath
       id="clipPath4053"
       clipPathUnits="userSpaceOnUse">
      <path
         inkscape:connector-curvature="0"
         id="path4051"
         d="M 0,864 H 864 V 0 H 0 Z" />
    </clipPath>
    <clipPath
       id="clipPath4150"
       clipPathUnits="userSpaceOnUse">
      <path
         inkscape:connector-curvature="0"
         id="path4148"
         d="M 0,864 H 864 V 0 H 0 Z" />
    </clipPath>
    <clipPath
       id="clipPath4295"
       clipPathUnits="userSpaceOnUse">
      <path
         inkscape:connector-curvature="0"
         id="path4293"
         d="M 0,864 H 864 V 0 H 0 Z" />
    </clipPath>
    <clipPath
       id="clipPath4410"
       clipPathUnits="userSpaceOnUse">
      <path
         inkscape:connector-curvature="0"
         id="path4408"
         d="M 0,864 H 864 V 0 H 0 Z" />
    </clipPath>
    <clipPath
       id="clipPath4615"
       clipPathUnits="userSpaceOnUse">
      <path
         inkscape:connector-curvature="0"
         id="path4613"
         d="M 0,864 H 864 V 0 H 0 Z" />
    </clipPath>
    <clipPath
       id="clipPath4838"
       clipPathUnits="userSpaceOnUse">
      <path
         inkscape:connector-curvature="0"
         id="path4836"
         d="M 0,864 H 864 V 0 H 0 Z" />
    </clipPath>
    <clipPath
       id="clipPath5001"
       clipPathUnits="userSpaceOnUse">
      <path
         inkscape:connector-curvature="0"
         id="path4999"
         d="M 0,864 H 864 V 0 H 0 Z" />
    </clipPath>
    <inkscape:perspective
       id="perspective9"
       inkscape:persp3d-origin="372.04724 : 350.78739 : 1"
       inkscape:vp_z="744.09448 : 526.18109 : 1"
       inkscape:vp_y="0 : 1000 : 0"
       inkscape:vp_x="0 : 526.18109 : 1"
       sodipodi:type="inkscape:persp3d" />
  </defs>
  <sodipodi:namedview
     id="base"
     pagecolor="#000000"
     bordercolor="#666666"
     borderopacity="1.0"
     inkscape:pageopacity="0"
     inkscape:pageshadow="2"
     inkscape:zoom="0.91846942"
     inkscape:cx="396.85039"
     inkscape:cy="556.87007"
     inkscape:document-units="mm"
     inkscape:current-layer="g5136"
     showgrid="false"
     inkscape:window-width="2560"
     inkscape:window-height="1385"
     inkscape:window-x="2560"
     inkscape:window-y="27"
     inkscape:window-maximized="1"
     showguides="true"
     inkscape:guide-bbox="true">
    <sodipodi:guide
       position="105.43356,205.96993"
       orientation="1,0"
       id="guide3815"
       inkscape:locked="false" />
    <sodipodi:guide
       position="92.758485,149.50825"
       orientation="0,1"
       id="guide3817"
       inkscape:locked="false" />
  </sodipodi:namedview>
  <metadata
     id="metadata5">
    <rdf:RDF>
      <cc:Work
         rdf:about="">
        <dc:format>image/svg+xml</dc:format>
        <dc:type
           rdf:resource="http://purl.org/dc/dcmitype/StillImage" />
        <dc:title></dc:title>
      </cc:Work>
    </rdf:RDF>
  </metadata>
  <g
     inkscape:label="Layer 1"
     inkscape:groupmode="layer"
     id="layer1">
    <g
       transform="matrix(0.35277777,0,0,-0.35277777,-70.777455,287.43463)"
       inkscape:label="1"
       id="g37">
      <g
         id="g39">
        <g
           id="g5136"
           transform="matrix(0.75000002,0,0,-0.75000002,342.50983,505.50165)"
           style="fill:#ffeeaa">
          <path
             style="fill:#ffeeaa;stroke-width:1.72916186"
             d="m 214.60653,310.52334 c 0,-0.95096 -1.55624,-1.72909 -3.45833,-1.72909 -1.90212,0 -3.45837,-0.64702 -3.45837,-1.43697 0,-0.79013 -2.13981,-2.51731 -4.75519,-3.83774 -2.61537,-1.32056 -8.00789,-4.56441 -11.98344,-7.2089 -3.97545,-2.64449 -8.06063,-4.80813 -9.07808,-4.80813 -1.01747,0 -1.84983,-0.65289 -1.84983,-1.45156 0,-0.79798 -2.07191,-2.39558 -4.6042,-3.54941 -4.11669,-1.87563 -5.38267,-1.53877 -11.95457,3.18065 -4.04271,2.90338 -8.19578,5.27868 -9.22903,5.27868 -1.03337,0 -1.87876,0.77835 -1.87876,1.72915 0,2.84211 -7.74114,1.9573 -11.34586,-1.29685 -1.8437,-1.66438 -6.26478,-4.97136 -9.82463,-7.34892 -3.55989,-2.37763 -6.47786,-4.90645 -6.48438,-5.61975 -0.003,-0.71364 -1.03223,-1.29695 -2.27947,-1.29695 -1.24726,0 -3.81579,-1.36166 -5.70792,-3.02612 -6.13858,-5.39954 -11.68674,-8.01778 -12.40769,-5.8551 -0.35977,1.0805 -2.14628,1.96463 -3.96904,1.96463 -1.82282,0 -3.314277,0.58816 -3.314277,1.30706 0,0.71858 -2.386527,2.36335 -5.303364,3.6546 -4.994797,2.2109 -5.693269,2.03417 -12.002766,-3.0362 -3.684564,-2.96112 -7.523114,-5.3838 -8.529869,-5.3838 -1.006808,0 -1.830538,-0.64701 -1.830538,-1.43697 0,-0.79011 -2.139862,-2.54113 -4.755237,-3.89062 -2.615352,-1.34951 -6.263597,-3.81539 -8.107265,-5.47966 -4.210839,-3.80127 -4.815776,-3.78114 -13.075013,0.43231 -9.123458,4.65444 -11.408677,4.37444 -14.110432,-1.72917 -1.262911,-2.8531 -2.884331,-5.1875 -3.603213,-5.1875 -0.718563,0 -1.307022,-1.49134 -1.307022,-3.31423 0,-1.82281 -0.72937,-3.57356 -1.620393,-3.89059 -1.511249,-0.53721 -6.788764,-9.44483 -15.9654625,-26.94611 -2.1193458,-4.04192 -4.4763587,-7.34893 -5.2378964,-7.34893 -0.76169495,0 -1.38458315,-1.55626 -1.38458315,-3.45838 0,-1.90206 -0.7783578,-3.45833 -1.72917475,-3.45833 -0.950895,0 -1.7291934,-1.55624 -1.7291934,-3.45823 0,-1.90211 0.7783754,-3.45834 1.7291934,-3.45834 0.95087635,0 1.73104475,-0.97248 1.73318755,-2.16146 0.00187,-1.18883 2.33481595,-4.88491 5.18349145,-8.21359 2.8485941,-3.32852 5.1811318,-6.73885 5.1834108,-7.57828 0.0038,-1.84515 6.859223,-7.98417 8.914463,-7.98417 0.805813,0 1.464587,1.94534 1.464587,4.323 0,2.37753 0.637212,4.32287 1.416557,4.32287 0.779345,0 2.476057,3.89058 3.770963,8.64574 1.294816,4.75522 2.991705,8.64589 3.770873,8.64589 0.779345,0 1.416559,1.22277 1.416559,2.71723 0,3.12148 4.043081,7.65767 6.825219,7.65767 1.036573,0 6.998649,-5.11394 13.248987,-11.36432 7.295215,-7.29518 12.287644,-11.01009 13.942703,-10.37496 1.418127,0.54411 2.903789,0.98933 3.301492,0.98933 0.398049,0 0.724491,0.97248 0.727432,2.16151 0.0013,1.18881 2.360075,4.8849 5.239654,8.21354 2.879557,3.32865 8.519089,10.89069 12.532296,16.80451 l 7.296829,10.75258 8.820092,0.0586 c 4.85098,0.0293 11.07596,-0.66075 13.83326,-1.53433 2.75726,-0.8744 11.08372,-1.98424 18.50322,-2.46713 l 13.49007,-0.87836 9.38376,9.38373 c 5.1611,5.16117 10.12712,9.38384 11.03565,9.38384 2.11339,0 18.98828,-10.29211 23.38991,-14.2656 1.84362,-1.66436 4.17803,-3.04334 5.18746,-3.06451 1.00949,-0.0215 3.78078,-1.56011 6.15834,-3.41984 5.14163,-4.02185 9.78176,-4.31634 16.59365,-1.05317 5.10653,2.44619 15.35813,6.90346 23.17712,10.07703 2.37752,0.96464 5.67408,2.44196 7.32549,3.28201 1.65132,0.84013 4.18021,1.52743 5.61973,1.52743 1.43948,0 2.61723,0.68716 2.61723,1.5276 0,0.84013 1.75071,1.90732 3.89054,2.37126 2.13982,0.46368 5.10629,1.3602 6.59215,1.99118 1.86344,0.79114 3.47177,-0.346 5.18473,-3.66818 1.36578,-2.64863 2.89253,-5.20467 3.39287,-5.68023 0.49995,-0.47546 2.83597,-4.59474 5.19029,-9.15376 6.82587,-13.21837 10.08374,-15.51142 19.15793,-13.48442 9.99333,2.2323 35.90901,2.80372 37.87759,0.83524 0.84993,-0.8499 1.77731,-7.34713 2.06149,-14.43892 0.62056,-15.49871 0.0881,-15.20473 27.87452,-15.4606 18.6967,-0.17219 23.65246,-1.67296 23.65246,-7.16243 0,-1.12716 1.65408,-5.26792 3.6757,-9.20161 2.02169,-3.9336 4.35599,-8.50321 5.18751,-10.15464 0.8313,-1.65138 1.51174,-4.1803 1.51174,-5.61977 0,-1.4395 0.77835,-2.61722 1.72916,-2.61722 0.95091,0 1.72917,-1.16715 1.72917,-2.5937 0,-5.2038 2.95927,-2.40504 5.02793,4.7552 1.16763,4.04192 2.84849,9.73851 3.73507,12.65914 0.88622,2.92066 1.61195,7.0058 1.61195,9.0781 0,2.07239 0.58816,3.76796 1.30604,3.76796 0.71857,0 2.19896,2.85268 3.29037,6.33944 1.98891,6.35448 0.23132,14.41038 -3.14478,14.41038 -0.79792,0 -1.45163,1.13982 -1.45163,2.53296 0,1.39308 -1.55623,3.36579 -3.45826,4.38374 -1.90212,1.01796 -3.45835,2.99064 -3.45835,4.38373 0,1.39304 -0.58327,2.55382 -1.29684,2.57943 -0.71365,0.0291 -3.20406,3.13811 -5.53515,6.9166 -2.33097,3.77862 -4.85991,6.87011 -5.61975,6.87011 -0.75975,0 -1.3825,0.97249 -1.38369,2.16148 -0.001,1.18884 -1.94644,4.42229 -4.3229,7.1856 -2.37646,2.76333 -4.3208,5.64591 -4.3208,6.40576 0,0.75975 -1.94524,3.32676 -4.3229,5.70454 -2.37755,2.37753 -4.32387,4.94183 -4.32502,5.69824 -10e-4,0.75679 -1.84237,3.51534 -4.09177,6.13069 -3.84377,4.46931 -12.09605,6.58553 -13.48593,3.45832 -1.13149,-2.54588 -18.42676,-10.81547 -20.71929,-9.90682 -1.9662,0.77934 -9.20287,10.35025 -16.16947,21.38483 -0.95087,1.50643 -3.09091,4.00818 -4.75517,5.55987 -1.66439,1.55161 -3.02704,3.50772 -3.0282,4.34726 -10e-4,0.83912 -1.91523,3.75085 -4.2535,6.46985 -4.6142,5.36506 -7.92435,5.51553 -25.14009,1.14287 -4.27963,-1.0869 -10.11563,-2.42504 -12.96874,-2.97338 -2.85309,-0.54799 -5.64708,-1.70753 -6.20881,-2.57578 -1.16434,-1.79994 -10.21817,1.80024 -10.21817,4.06307 0,0.79798 -1.02054,1.45176 -2.26775,1.45176 -1.24715,0 -3.93813,1.55625 -5.97973,3.45836 -2.04169,1.90195 -4.72458,3.45822 -5.96216,3.45822 -1.23762,0 -3.222,1.55625 -4.40993,3.45828 -1.18781,1.90221 -3.1258,3.46029 -4.30651,3.46244 -1.18077,0 -4.87026,2.33483 -8.19882,5.1835 -3.32869,2.8485 -7.02474,5.18111 -8.21358,5.1834 -1.18882,0 -2.16144,0.78228 -2.16144,1.73312 0,0.95087 -0.77843,1.72924 -1.72919,1.72924 -0.95095,0 -1.72908,-0.77837 -1.72908,-1.72924 z M 183.48122,190.01636 c 1.9e-4,-3.98575 0.77836,-7.7278 1.72946,-8.3156 0.95093,-0.58818 1.72918,-3.31117 1.72918,-6.05201 0,-2.74088 0.69601,-5.41351 1.54653,-5.93914 0.85091,-0.52545 1.93552,-3.87862 2.41106,-7.45105 1.30551,-9.80754 6.51872,-31.98468 8.30183,-35.31644 0.86559,-1.61741 1.57386,-5.71544 1.57386,-9.10662 0,-5.0129 0.647,-6.1658 3.45832,-6.1658 2.71912,0 3.45837,1.1529 3.45837,5.39283 0,2.96601 1.49821,10.16369 3.32937,15.99475 4.01572,12.7876 9.51047,31.96508 12.20336,42.59147 1.08454,4.27963 2.69568,10.08305 3.58019,12.89659 0.93918,2.987 0.96858,5.75532 0.0687,6.65356 -0.84596,0.84603 -10.95547,1.65662 -22.4652,1.80131 l -20.92692,0.26273 4e-4,-7.24687 z m 104.61461,-31.65929 c -2.04622,-3.31089 1.11831,-5.18737 8.74791,-5.18737 4.22349,0 7.67918,-0.77838 7.67918,-1.72918 0,-0.95091 1.55627,-1.72917 3.45834,-1.72917 1.902,0 3.45824,-0.61075 3.45824,-1.35636 0,-0.74601 2.33442,-2.73525 5.18753,-4.42065 2.85311,-1.68545 5.1875,-4.18749 5.1875,-5.5603 0,-1.3728 0.77835,-2.49599 1.7292,-2.49599 0.95089,0 1.72906,-1.51037 1.72906,-3.35629 0,-1.84591 0.77836,-3.83713 1.72917,-4.42491 0.95092,-0.58822 1.72915,-6.08061 1.72915,-12.2062 0,-6.27223 -0.75485,-11.13749 -1.72915,-11.13749 -0.95092,0 -1.76076,-1.36179 -1.79938,-3.02605 -0.16457,-7.070706 -15.7139,-19.954746 -26.44684,-21.913301 -9.85776,-1.798747 -25.26588,0.584263 -28.54579,4.414832 -1.52242,1.778096 -3.57855,3.232866 -4.56928,3.232866 -0.99067,0 -3.72488,3.112491 -6.07596,6.916731 -2.35111,3.804069 -4.82226,6.916562 -5.4913,6.916562 -0.66957,0 -1.45813,2.91803 -1.75328,6.48438 -0.36176,4.37258 -1.38136,6.48439 -3.13041,6.48439 -3.24916,0 -5.55752,-16.466725 -4.24194,-30.260415 1.08071,-11.330902 4.45777,-24.208187 6.34861,-24.208187 0.74305,0 1.35164,-1.556246 1.35164,-3.458366 0,-1.902114 0.72545,-3.45836 1.61261,-3.45836 0.88721,0 2.10237,-1.542888 2.70097,-3.428733 2.2991,-7.244112 14.43457,-17.498553 29.31533,-24.771293 10.74621,-5.252015 33.43082,-4.672368 46.17623,1.180099 13.59507,6.242535 30.86123,23.685597 30.86123,31.177569 0,1.517497 0.60779,2.759084 1.35166,2.759084 4.99035,0 8.59535,49.536152 3.94346,54.188022 -1.01028,1.0102 -1.83678,3.23738 -1.83678,4.94931 0,1.71182 -0.7784,3.11249 -1.7292,3.11249 -0.95088,0 -1.72914,1.55624 -1.72914,3.45835 0,1.90199 -0.72543,3.45825 -1.61266,3.45825 -0.88715,0 -2.09402,1.51662 -2.68229,3.37029 -2.18756,6.8922 -18.18952,20.22709 -30.80193,25.66809 -5.84568,2.52185 -38.60359,2.8136 -40.12169,0.35784 z M 83.319019,145.64785 c -9.915401,-3.92929 -31.253731,-22.99861 -31.253731,-27.93036 0,-1.42418 -0.778375,-2.58943 -1.72919,-2.58943 -0.95089,0 -1.72917,-1.89934 -1.72917,-4.22081 0,-2.32149 -0.692101,-4.64861 -1.538117,-5.17144 -3.667325,-2.26661 -5.690207,-33.959879 -2.877,-45.076333 1.983166,-7.836711 8.300702,-21.614505 9.910874,-21.614505 0.781273,0 1.442505,-0.972473 1.468991,-2.161393 0.02928,-1.188817 2.360787,-4.430994 5.187407,-7.204897 2.826734,-2.773791 5.139479,-5.691778 5.139479,-6.484374 0,-0.792075 1.020491,-1.440955 2.267652,-1.440955 1.24724,0 3.776193,-1.386351 5.619868,-3.080818 3.595455,-3.304635 18.114494,-8.458714 28.260608,-10.0321288 8.42746,-1.3069375 24.82092,3.2619938 34.53985,9.6264668 10.89712,7.136087 19.22841,15.004451 19.22841,18.159975 0,1.439991 0.58329,2.62422 1.2969,2.631664 1.55287,0.02079 5.61979,8.389616 5.61979,11.570698 0,1.23696 0.67055,2.249032 1.49048,2.249032 3.94397,0 7.43106,38.327569 3.69706,40.635342 -0.95094,0.588169 -1.72918,3.311169 -1.72918,6.052006 0,2.74089 -0.77838,5.46427 -1.72917,6.05211 -0.95095,0.58814 -1.72919,2.96806 -1.72919,5.28955 0,2.32147 -0.65289,4.22081 -1.45163,4.22081 -1.84742,0 -5.46506,-7.85055 -5.46506,-11.8594 0,-1.678 -1.40098,-4.559332 -3.11325,-6.403009 -1.71244,-1.843669 -3.63328,-4.713838 -4.26871,-6.378129 -0.63525,-1.664243 -2.34685,-3.026015 -3.80328,-3.026015 -1.4565,0 -2.64805,-0.701889 -2.64805,-1.559972 0,-2.882431 -10.79088,-5.35673 -23.3616,-5.35673 -12.32813,0 -12.55734,0.08813 -20.059655,7.349024 -10.547275,10.213579 -11.911841,13.349801 -11.911841,27.376211 0,9.90124 0.745989,13.3541 3.833705,17.74735 4.938296,7.02603 6.403562,8.39559 12.160971,11.36636 2.61537,1.34949 4.75517,3.10034 4.75517,3.89064 0,2.69911 -14.681513,1.09765 -24.079391,-2.62654 z M 380.60601,64.981184 c 0,-2.853115 -0.77834,-5.187404 -1.72915,-5.187404 -0.95092,0 -1.7292,-2.181572 -1.7292,-4.848069 0,-7.0242 -7.6032,-21.204502 -15.91681,-29.685669 C 354.3116,18.2013 338.74177,9.6411983 327.8666,6.9166292 316.04766,3.955691 271.95722,6.4548932 269.60134,10.219606 c -0.6617,1.057158 -1.72681,1.398026 -2.36727,0.757763 -1.58602,-1.5860489 3.56119,-6.5166251 6.8029,-6.5166251 1.43841,0 3.09615,-0.7783556 3.68393,-1.7290658 0.58816,-0.9508928 2.96807,-1.7291703 5.28953,-1.7291703 2.32149,0 4.22085,-0.778382 4.22085,-1.7291681 0,-0.9509181 2.33432,-1.7291736 5.18754,-1.7291736 2.85306,0 5.18739,-0.6999476 5.18739,-1.5550788 0,-1.922298 11.4314,-3.586365 32.49198,-4.7298948 14.19313,-0.7705232 17.01359,-0.4176206 24.20823,3.0306301 9.67998,4.6393249 20.88054,16.0568244 22.2759,22.7073604 0.54895,2.615376 1.60017,4.755185 2.33659,4.755185 1.71643,0 3.40959,12.166563 4.51205,32.421781 0.58425,10.738228 0.26373,15.994763 -0.97736,15.994763 -1.01629,0 -1.84778,-2.334333 -1.84778,-5.187532 z M 27.856954,37.416669 c 0,-11.9 0.732311,-21.100601 1.729186,-21.716539 0.950885,-0.588182 1.729186,-3.35708 1.729186,-6.1540949 0,-2.7970371 0.778369,-5.0854716 1.729148,-5.0854716 0.950925,0 1.729173,-1.0433599 1.729173,-2.3186526 0,-3.3522533 14.7138,-18.4312359 17.984907,-18.4312359 1.520774,0 2.765099,-0.778358 2.765099,-1.729168 0,-0.950895 2.178741,-1.729171 4.841647,-1.729171 2.662803,0 5.689921,-0.847972 6.726677,-1.885133 2.096218,-2.09621 18.514874,-1.24951 32.52522,1.67732 4.755193,0.993327 11.184283,2.314317 14.286793,2.935443 3.10248,0.621512 6.06634,1.817773 6.58638,2.659184 0.51958,0.841098 3.23396,1.529864 6.0309,1.529864 2.797,0 5.08546,0.778383 5.08546,1.729095 0,0.950891 1.55625,1.7291694 3.45835,1.7291694 1.90199,0 3.45825,0.7783555 3.45825,1.7291687 0,0.950893 1.55624,1.7291711 3.45833,1.7291711 1.90211,0 3.45837,0.7783591 3.45837,1.7291734 0,2.3944103 -9.9344,2.1863937 -10.73815,-0.2246171 -0.92642,-2.779664 -57.124395,-2.8224097 -58.050475,-0.049029 -0.366624,1.0991189 -1.694842,1.9982677 -2.952318,1.9982677 -7.482003,0 -32.008736,19.4043078 -32.008736,25.3237238 0,1.288618 -0.778374,2.342844 -1.729156,2.342844 -0.950941,0 -1.729206,1.556247 -1.729206,3.458342 0,1.902191 -0.778343,3.458434 -1.729154,3.458434 -0.950895,0 -1.729188,1.899268 -1.729188,4.220746 0,2.321476 -0.77836,4.701845 -1.729173,5.289469 -0.950885,0.588192 -1.729148,4.524429 -1.729148,8.747985 0,4.223514 -0.778371,7.679087 -1.729186,7.679087 -1.056204,0 -1.729186,-8.035416 -1.729186,-20.647817 z"
             id="path6726-7-2"
             inkscape:connector-curvature="0"
             sodipodi:nodetypes="cssccssccsscccsccssccssscccssccssssscccssscsssscscsccccccssccccccsscccccccccsccsssccsscsscsccssssscccccccccccsscsccccssccccscccssscccccccccsssscssscsscccscscssssscscsscsssscsccssssccsccsscccscsscscsssccssscsccsscssccccscsssscccscsccccssssssccccssssssccsssssscsscc" />
        </g>
      </g>
    </g>
  </g>
</svg>
