<?xml version="1.0" encoding="UTF-8" standalone="no"?>
<!-- Created with Inkscape (http://www.inkscape.org/) -->

<svg
   xmlns:dc="http://purl.org/dc/elements/1.1/"
   xmlns:cc="http://creativecommons.org/ns#"
   xmlns:rdf="http://www.w3.org/1999/02/22-rdf-syntax-ns#"
   xmlns:svg="http://www.w3.org/2000/svg"
   xmlns="http://www.w3.org/2000/svg"
   xmlns:sodipodi="http://sodipodi.sourceforge.net/DTD/sodipodi-0.dtd"
   xmlns:inkscape="http://www.inkscape.org/namespaces/inkscape"
   width="210mm"
   height="297mm"
   viewBox="0 0 210 297"
   version="1.1"
   id="svg8"
   inkscape:version="0.92.2 5c3e80d, 2017-08-06"
   sodipodi:docname="grin1.svg">
  <defs
     id="defs2">
    <clipPath
       id="clipPath45"
       clipPathUnits="userSpaceOnUse">
      <path
         inkscape:connector-curvature="0"
         id="path43"
         d="M 0,864 H 864 V 0 H 0 Z" />
    </clipPath>
    <clipPath
       id="clipPath3854"
       clipPathUnits="userSpaceOnUse">
      <path
         inkscape:connector-curvature="0"
         id="path3852"
         d="M 0,864 H 864 V 0 H 0 Z" />
    </clipPath>
    <clipPath
       id="clipPath4053"
       clipPathUnits="userSpaceOnUse">
      <path
         inkscape:connector-curvature="0"
         id="path4051"
         d="M 0,864 H 864 V 0 H 0 Z" />
    </clipPath>
    <clipPath
       id="clipPath4150"
       clipPathUnits="userSpaceOnUse">
      <path
         inkscape:connector-curvature="0"
         id="path4148"
         d="M 0,864 H 864 V 0 H 0 Z" />
    </clipPath>
    <clipPath
       id="clipPath4295"
       clipPathUnits="userSpaceOnUse">
      <path
         inkscape:connector-curvature="0"
         id="path4293"
         d="M 0,864 H 864 V 0 H 0 Z" />
    </clipPath>
  </defs>
  <sodipodi:namedview
     id="base"
     pagecolor="#000000"
     bordercolor="#666666"
     borderopacity="1.0"
     inkscape:pageopacity="0"
     inkscape:pageshadow="2"
     inkscape:zoom="0.91846942"
     inkscape:cx="396.85039"
     inkscape:cy="561.25984"
     inkscape:document-units="mm"
     inkscape:current-layer="g39"
     showgrid="false"
     inkscape:window-width="2560"
     inkscape:window-height="1385"
     inkscape:window-x="2560"
     inkscape:window-y="27"
     inkscape:window-maximized="1"
     showguides="true"
     inkscape:guide-bbox="true">
    <sodipodi:guide
       position="105.43356,205.96993"
       orientation="1,0"
       id="guide3815"
       inkscape:locked="false" />
    <sodipodi:guide
       position="92.758485,149.50825"
       orientation="0,1"
       id="guide3817"
       inkscape:locked="false" />
  </sodipodi:namedview>
  <metadata
     id="metadata5">
    <rdf:RDF>
      <cc:Work
         rdf:about="">
        <dc:format>image/svg+xml</dc:format>
        <dc:type
           rdf:resource="http://purl.org/dc/dcmitype/StillImage" />
        <dc:title></dc:title>
      </cc:Work>
    </rdf:RDF>
  </metadata>
  <g
     inkscape:label="Layer 1"
     inkscape:groupmode="layer"
     id="layer1">
    <g
       transform="matrix(0.35277777,0,0,-0.35277777,-70.777455,287.43463)"
       inkscape:label="1"
       id="g37">
      <g
         id="g39">
        <g
           transform="matrix(0.75,0,0,0.75,176.22825,80.976211)"
           inkscape:label="5"
           id="g4287"
           style="fill:#ffeeaa">
          <g
             id="g4289"
             style="fill:#ffeeaa">
            <g
               clip-path="url(#clipPath4295)"
               id="g4291"
               style="fill:#ffeeaa">
              <g
                 transform="translate(256.939,672.0596)"
                 id="g4297"
                 style="fill:#ffeeaa">
                <path
                   inkscape:connector-curvature="0"
                   id="path4299"
                   style="fill:#ffeeaa;fill-opacity:1;fill-rule:nonzero;stroke:none"
                   d="m 0,0 c 27.353,-24.071 24.071,-48.142 29.542,-62.366 5.47,-14.224 42.67,-40.482 55.8,-51.423 13.13,-10.943 50.331,-35.014 67.837,-22.979 17.505,12.036 20.789,30.637 10.941,39.39 0,0 -33.918,6.564 -53.613,18.599 C 90.813,-66.743 77.684,-47.046 70.024,-20.79 62.365,5.47 38.295,31.729 13.13,32.824 -12.036,33.918 -55.8,-1.094 -74.401,-25.165 c -18.6,-24.071 -30.636,-62.365 -30.636,-62.365 0,0 77.684,111.601 105.037,87.53" />
              </g>
              <g
                 transform="translate(556.7305,532.0034)"
                 id="g4301"
                 style="fill:#ffeeaa">
                <path
                   inkscape:connector-curvature="0"
                   id="path4303"
                   style="fill:#ffeeaa;fill-opacity:1;fill-rule:nonzero;stroke:none"
                   d="m 0,0 c 25.164,-0.003 50.331,28.456 64.554,52.526 25.166,42.671 43.766,83.153 43.766,83.153 28.448,32.893 99.565,-49.225 99.565,-49.225 0,0 -40.484,50.319 -65.647,66.732 -25.165,16.413 -48.142,19.694 -62.366,9.845 C 65.647,153.186 65.648,132.398 39.389,91.914 13.129,51.431 -33.918,47.055 -33.918,47.055 -47.686,44.256 -60.177,35.02 -53.612,20.797 -47.049,6.569 -25.164,0.007 0,0" />
              </g>
              <g
                 transform="translate(685.8389,646.8945)"
                 id="g4305"
                 style="fill:#ffeeaa">
                <path
                   inkscape:connector-curvature="0"
                   id="path4307"
                   style="fill:#ffeeaa;fill-opacity:1;fill-rule:nonzero;stroke:none"
                   d="m 0,0 c -7.659,-4.375 -16.412,-21.881 -48.143,-80.966 -31.731,-59.083 -105.036,-55.8 -105.036,-55.8 0,0 21.883,-30.637 29.541,-37.201 7.659,-6.564 35.013,-29.542 78.779,-29.978 43.765,-0.437 87.529,22.318 111.6,47.485 24.072,25.164 16.413,86.437 -13.128,125.857 C 24.07,8.817 7.659,4.375 0,0" />
              </g>
              <g
                 transform="translate(742.7334,453.2319)"
                 id="g4309"
                 style="fill:#ffeeaa">
                <path
                   inkscape:connector-curvature="0"
                   id="path4311"
                   style="fill:#ffeeaa;fill-opacity:1;fill-rule:nonzero;stroke:none"
                   d="m 0,0 c -42.666,-32.091 -159.743,-38.292 -159.743,-38.292 l 49.976,-22.979 c 0,0 78.038,14.225 96.637,22.979 71.118,27.351 55.802,131.37 55.802,131.37 0,0 -2.74,-63.039 -42.672,-93.078" />
              </g>
              <g
                 transform="translate(302.8926,557.1763)"
                 id="g4313"
                 style="fill:#ffeeaa">
                <path
                   inkscape:connector-curvature="0"
                   id="path4315"
                   style="fill:#ffeeaa;fill-opacity:1;fill-rule:nonzero;stroke:none"
                   d="m 0,0 c -25.166,33.918 -44.86,54.706 -53.613,67.837 -8.752,13.128 -41.576,12.097 -55.8,-8.722 -14.224,-20.822 -56.895,-88.658 -22.977,-119.295 33.918,-30.633 56.894,-46.836 78.777,-54.053 21.884,-7.216 49.238,-7.009 73.308,0 24.07,7.007 73.591,43.004 73.306,66.091 0,0 -67.836,14.222 -93.001,48.142" />
              </g>
              <g
                 transform="translate(409.0234,442.9497)"
                 id="g4317"
                 style="fill:#ffeeaa">
                <path
                   inkscape:connector-curvature="0"
                   id="path4319"
                   style="fill:#ffeeaa;fill-opacity:1;fill-rule:nonzero;stroke:none"
                   d="m 0,0 c -20.789,-18.165 -19.694,-52.083 0,-50.989 19.694,1.096 26.259,34.93 26.259,34.93 0,0 -5.47,34.221 -26.259,16.059" />
              </g>
              <g
                 transform="translate(505.3066,420.0977)"
                 id="g4321"
                 style="fill:#ffeeaa">
                <path
                   inkscape:connector-curvature="0"
                   id="path4323"
                   style="fill:#ffeeaa;fill-opacity:1;fill-rule:nonzero;stroke:none"
                   d="m 0,0 c -3.282,16.721 -13.13,22.852 -13.13,22.852 0,0 -40.716,29.808 -28.016,-16.059 C -28.447,-39.076 3.282,-16.719 0,0" />
              </g>
              <g
                 transform="translate(226.3032,399.6777)"
                 id="g4325"
                 style="fill:#ffeeaa">
                <path
                   inkscape:connector-curvature="0"
                   id="path4327"
                   style="fill:#ffeeaa;fill-opacity:1;fill-rule:nonzero;stroke:none"
                   d="m 0,0 c 85.342,-16.471 111.602,-5.416 118.166,0 0,0 -40.481,8.697 -62.365,11.979 -21.883,3.283 -68.93,8.14 -94.095,25.952 -25.165,17.812 -45.954,42.979 -45.954,42.979 0,0 -1.094,-64.443 84.248,-80.91" />
              </g>
              <g
                 transform="translate(809.4766,420.0977)"
                 id="g4329"
                 style="fill:#ffeeaa">
                <path
                   inkscape:connector-curvature="0"
                   id="path4331"
                   style="fill:#ffeeaa;fill-opacity:1;fill-rule:nonzero;stroke:none"
                   d="m 0,0 -13.132,17.511 -19.693,-31.423 10.14,-15.188 -19.924,-40.613 -7.722,13.129 -25.165,-22.977 10.941,-17.505 -50.331,-37.202 -7.677,20.788 -37.15,-11.661 9.816,-25.539 c 0,0 -30.636,-20.787 -67.836,-27.351 -1.095,31.728 0,48.14 0,48.14 l -41.578,-4.377 5.471,-51.421 c 0,0 -44.86,-10.944 -80.966,-1.096 -1.093,29.541 -5.47,45.955 -5.47,45.955 l -47.048,5.469 4.389,-48.141 -72.225,14.223 10.941,33.918 c 0,0 -22.976,12.035 -45.953,15.318 -5.471,-21.883 -9.847,-37.201 -9.847,-37.201 l -66.195,18.599 9.3,28.45 -28.447,8.205 -9.848,-19.149 -50.33,32.826 8.753,22.977 -30.636,19.695 -9.847,-28.449 -31.729,36.108 12.035,32.824 -17.506,28.003 -9.847,-22.845 -16.413,32.375 12.036,22.644 -7.658,22.976 c 0,0 -25.166,-43.933 -25.166,-71.202 4.377,-18.516 8.753,-27.213 8.753,-27.213 l 8.754,20.42 7.659,-29.1 v -22.015 l 7.658,-26.258 7.659,27.355 27.353,-40.484 c 0,0 -3.282,-36.107 7.66,-48.143 10.941,-12.035 28.447,-12.035 28.447,-12.035 v 30.637 c 0,0 30.636,-30.637 47.048,-38.295 -1.095,-28.447 0,-42.668 0,-42.668 l 44.312,-14.226 -7.112,36.105 c 0,0 39.389,-29.541 62.366,-36.105 -2.19,-27.354 2.188,-32.825 20.788,-39.389 18.6,-6.566 30.636,-6.566 30.636,-6.566 0,0 -6.565,30.636 -5.472,33.919 30.637,-10.941 61.271,-15.316 77.684,-14.222 4.377,-26.26 4.389,-40.485 4.389,-40.485 l 45.942,7.659 -8.323,28.449 c 0,0 48.805,1.094 84.912,13.129 l 12.035,-24.071 38.295,10.942 5.47,29.541 44.891,25.162 6.533,-16.41 c 0,0 10.942,-4.375 24.072,3.283 13.129,7.658 17.505,16.412 17.505,16.412 l 5.471,29.541 42.671,36.108 8.753,-27.356 24.071,30.637 -11.972,31.73 25.102,33.918 8.752,-14.222 15.317,22.974 z" />
              </g>
            </g>
          </g>
        </g>
      </g>
    </g>
  </g>
</svg>
