<?xml version="1.0" encoding="UTF-8" standalone="no"?>
<!-- Created with Inkscape (http://www.inkscape.org/) -->

<svg
   xmlns:dc="http://purl.org/dc/elements/1.1/"
   xmlns:cc="http://creativecommons.org/ns#"
   xmlns:rdf="http://www.w3.org/1999/02/22-rdf-syntax-ns#"
   xmlns:svg="http://www.w3.org/2000/svg"
   xmlns="http://www.w3.org/2000/svg"
   xmlns:sodipodi="http://sodipodi.sourceforge.net/DTD/sodipodi-0.dtd"
   xmlns:inkscape="http://www.inkscape.org/namespaces/inkscape"
   width="210mm"
   height="297mm"
   viewBox="0 0 210 297"
   version="1.1"
   id="svg8"
   inkscape:version="0.92.2 5c3e80d, 2017-08-06"
   sodipodi:docname="grin2.svg">
  <defs
     id="defs2">
    <clipPath
       id="clipPath45"
       clipPathUnits="userSpaceOnUse">
      <path
         inkscape:connector-curvature="0"
         id="path43"
         d="M 0,864 H 864 V 0 H 0 Z" />
    </clipPath>
    <clipPath
       id="clipPath3854"
       clipPathUnits="userSpaceOnUse">
      <path
         inkscape:connector-curvature="0"
         id="path3852"
         d="M 0,864 H 864 V 0 H 0 Z" />
    </clipPath>
    <clipPath
       id="clipPath4053"
       clipPathUnits="userSpaceOnUse">
      <path
         inkscape:connector-curvature="0"
         id="path4051"
         d="M 0,864 H 864 V 0 H 0 Z" />
    </clipPath>
    <clipPath
       id="clipPath4150"
       clipPathUnits="userSpaceOnUse">
      <path
         inkscape:connector-curvature="0"
         id="path4148"
         d="M 0,864 H 864 V 0 H 0 Z" />
    </clipPath>
    <clipPath
       id="clipPath4295"
       clipPathUnits="userSpaceOnUse">
      <path
         inkscape:connector-curvature="0"
         id="path4293"
         d="M 0,864 H 864 V 0 H 0 Z" />
    </clipPath>
    <clipPath
       id="clipPath4410"
       clipPathUnits="userSpaceOnUse">
      <path
         inkscape:connector-curvature="0"
         id="path4408"
         d="M 0,864 H 864 V 0 H 0 Z" />
    </clipPath>
    <clipPath
       id="clipPath4615"
       clipPathUnits="userSpaceOnUse">
      <path
         inkscape:connector-curvature="0"
         id="path4613"
         d="M 0,864 H 864 V 0 H 0 Z" />
    </clipPath>
    <clipPath
       id="clipPath4838"
       clipPathUnits="userSpaceOnUse">
      <path
         inkscape:connector-curvature="0"
         id="path4836"
         d="M 0,864 H 864 V 0 H 0 Z" />
    </clipPath>
    <clipPath
       id="clipPath5001"
       clipPathUnits="userSpaceOnUse">
      <path
         inkscape:connector-curvature="0"
         id="path4999"
         d="M 0,864 H 864 V 0 H 0 Z" />
    </clipPath>
    <inkscape:perspective
       id="perspective9"
       inkscape:persp3d-origin="372.04724 : 350.78739 : 1"
       inkscape:vp_z="744.09448 : 526.18109 : 1"
       inkscape:vp_y="0 : 1000 : 0"
       inkscape:vp_x="0 : 526.18109 : 1"
       sodipodi:type="inkscape:persp3d" />
  </defs>
  <sodipodi:namedview
     id="base"
     pagecolor="#000000"
     bordercolor="#666666"
     borderopacity="1.0"
     inkscape:pageopacity="0"
     inkscape:pageshadow="2"
     inkscape:zoom="0.91846942"
     inkscape:cx="396.85039"
     inkscape:cy="556.87007"
     inkscape:document-units="mm"
     inkscape:current-layer="g5136"
     showgrid="false"
     inkscape:window-width="2560"
     inkscape:window-height="1385"
     inkscape:window-x="2560"
     inkscape:window-y="27"
     inkscape:window-maximized="1"
     showguides="true"
     inkscape:guide-bbox="true">
    <sodipodi:guide
       position="105.43356,205.96993"
       orientation="1,0"
       id="guide3815"
       inkscape:locked="false" />
    <sodipodi:guide
       position="92.758485,149.50825"
       orientation="0,1"
       id="guide3817"
       inkscape:locked="false" />
  </sodipodi:namedview>
  <metadata
     id="metadata5">
    <rdf:RDF>
      <cc:Work
         rdf:about="">
        <dc:format>image/svg+xml</dc:format>
        <dc:type
           rdf:resource="http://purl.org/dc/dcmitype/StillImage" />
        <dc:title></dc:title>
      </cc:Work>
    </rdf:RDF>
  </metadata>
  <g
     inkscape:label="Layer 1"
     inkscape:groupmode="layer"
     id="layer1">
    <g
       transform="matrix(0.35277777,0,0,-0.35277777,-70.777455,287.43463)"
       inkscape:label="1"
       id="g37">
      <g
         id="g39">
        <g
           id="g5136"
           transform="matrix(0.75000002,0,0,-0.75000002,342.50983,505.50165)"
           style="fill:#ffeeaa">
          <path
             style="fill:#ffeeaa;stroke-width:1.72916186"
             d="m 176.5752,348.24541 c 0,-2.85312 0.77837,-5.18751 1.72918,-5.18751 0.9509,0 1.72906,-3.11249 1.72906,-6.91659 0,-3.80422 0.69312,-6.91672 1.54011,-6.91672 0.84701,0 2.01416,-2.72339 2.59369,-6.05204 0.57937,-3.32862 1.52793,-8.77545 2.10749,-12.10411 0.57939,-3.32864 1.74682,-6.05204 2.59379,-6.05204 0.84697,0 1.53999,-3.11248 1.53999,-6.91671 0,-6.67212 -0.20214,-6.91658 -5.70633,-6.91658 -3.13836,0 -6.44533,-0.69895 -7.3489,-1.55209 -0.90384,-0.85388 -4.75522,-1.95815 -8.5593,-2.45441 -3.80419,-0.4961 -9.13924,-1.46079 -11.85577,-2.14312 -5.63612,-1.41564 -7.96105,0.91465 -8.00311,8.0228 -0.004,2.45685 -0.58229,5.02285 -1.26167,5.70216 -0.67934,0.67936 -2.45466,6.0613 -3.94535,11.96003 -2.60232,10.29799 -2.94371,10.74736 -8.57476,11.28908 -3.22543,0.31076 -7.48049,-0.19505 -9.45561,-1.12236 -1.97514,-0.92739 -6.12003,-2.63763 -9.21093,-3.80001 -6.04803,-2.27451 -7.07789,-5.83685 -3.62053,-12.52455 4.3032,-8.32432 4.91737,-9.99244 4.91737,-13.35408 0,-1.91499 0.77837,-3.48179 1.72919,-3.48179 0.95092,0 1.72917,-2.33442 1.72917,-5.18754 0,-4.34709 -0.68327,-5.18753 -4.22083,-5.18753 -2.3215,0 -4.70178,-0.77836 -5.28957,-1.72905 -0.58723,-0.95092 -4.08929,-1.72915 -7.78122,-1.72915 -3.69188,0 -7.19344,-0.77839 -7.78123,-1.72919 -0.58819,-0.95091 -4.52423,-1.72917 -8.74781,-1.72917 -6.73671,0 -7.67919,0.46271 -7.67919,3.76781 0,2.07231 -0.71461,6.15747 -1.58847,9.07808 -0.87349,2.92067 -2.68323,9.97902 -4.02116,15.68529 -2.42187,10.32958 -2.45842,10.3731 -8.354018,9.94807 -13.225289,-0.95389 -14.121618,-1.60501 -13.197057,-9.59092 0.4627,-4.00067 1.791789,-10.38633 2.952501,-14.19054 1.160759,-3.80408 2.484678,-10.13022 2.942014,-14.05792 0.811698,-6.96955 0.693068,-7.16426 -4.945795,-8.09014 -18.732372,-3.07635 -35.15838,-7.02382 -36.315274,-8.72742 -1.871481,-2.75575 0.478428,-13.84713 3.642075,-17.18691 2.755367,-2.90925 3.747246,-2.94221 15.782536,-0.52449 11.761269,2.36216 21.907209,3.36374 29.701768,2.93225 1.78498,-0.0992 3.02595,-1.54405 3.02595,-3.52385 0,-1.84593 0.77836,-3.83718 1.72906,-4.42496 0.95093,-0.58819 1.72919,-3.74615 1.72919,-7.01875 0,-3.2725 0.77838,-5.95002 1.72917,-5.95002 0.95089,0 1.72916,-2.67741 1.72916,-5.94997 0,-3.27246 0.7784,-6.43095 1.72919,-7.01865 0.95091,-0.58815 1.72916,-3.35717 1.72916,-6.1541 0,-2.79704 0.77838,-5.08548 1.72919,-5.08548 0.95088,0 1.72916,-1.56849 1.72916,-3.48555 0,-6.1873 4.23251,-17.26444 6.59653,-17.26444 1.26294,0 3.48736,1.1911 4.94301,2.64689 2.78672,2.78672 2.61254,6.64533 -1.1296,25.01971 -2.74057,13.45654 -5.11968,27.21237 -6.3223,36.55455 l -1.0328,8.02338 7.55066,0.99068 c 4.15291,0.54505 12.60846,1.81375 18.79024,2.8197 19.9114,3.24 19.30519,3.35323 23.00556,-4.29466 1.84053,-3.80412 4.03136,-8.26776 4.86835,-9.91919 0.83717,-1.65143 1.52181,-4.56943 1.52181,-6.48439 0,-1.91495 0.6078,-3.48177 1.35168,-3.48177 0.74307,0 2.41135,-3.69606 3.70655,-8.21352 1.2952,-4.51742 3.7994,-11.27764 5.56495,-15.02271 1.76561,-3.74499 3.21012,-7.74692 3.21012,-8.89303 0,-2.9231 3.26797,-3.79056 10.80724,-2.86853 5.8063,0.70975 6.48439,1.313 6.48439,5.76636 0,5.17279 -2.9174,18.91405 -5.2883,24.90857 -0.75288,1.90201 -1.85038,5.79265 -2.4401,8.64574 -0.59014,2.85313 -1.88228,8.30005 -2.87251,12.1041 -0.99009,3.80422 -1.92797,9.25104 -2.08404,12.10422 -0.31176,5.69825 -1.80235,5.27508 31.15805,8.84608 l 8.96276,0.97146 2.01829,-7.50232 c 1.11003,-4.12623 2.71811,-9.28966 3.57361,-11.47427 0.85582,-2.18453 1.55549,-5.83473 1.55549,-8.1114 0,-2.27677 0.77835,-4.62039 1.72916,-5.20821 0.95092,-0.58816 1.75387,-3.16257 1.78408,-5.72177 0.0783,-6.32791 3.75566,-10.70519 9.00202,-10.70519 5.14616,0 9.13729,4.07345 7.12618,7.27307 -0.77346,1.23049 -1.97212,6.51697 -2.66372,11.74758 -2.21433,16.74691 -4.1088,26.75922 -5.48394,28.98443 -3.32729,5.38365 3.57038,7.5098 32.82643,10.11809 l 10.60159,0.94502 2.05894,-9.21651 c 1.13246,-5.06908 2.68436,-10.77286 3.44874,-12.67486 0.76463,-1.90206 2.26475,-5.63478 3.33413,-8.29489 1.06952,-2.66004 1.94444,-6.69933 1.94444,-8.97604 0,-2.27676 0.67352,-4.55548 1.49588,-5.06401 0.82247,-0.50878 1.91995,-4.08639 2.43831,-7.95111 1.30147,-9.70329 3.98166,-12.50573 10.60697,-11.09104 7.79842,1.66514 10.13144,4.11968 8.82316,9.28237 -0.61761,2.43552 -1.85265,9.09679 -2.74538,14.80316 -0.89309,5.70611 -2.44451,15.04358 -3.44826,20.74981 -1.00367,5.70636 -1.97066,13.4493 -2.14883,17.20662 -0.30589,6.45165 0.004,6.91848 5.72816,8.39289 3.3286,0.85875 9.94267,1.9413 14.69787,2.40584 4.75521,0.46471 9.38507,1.55107 10.28849,2.41445 0.90386,0.86366 4.21057,1.56977 7.34893,1.56977 5.35003,0 5.70628,0.37153 5.70628,5.95 0,3.27244 -0.77837,6.43094 -1.72916,7.01866 -0.9509,0.58815 -1.75389,3.55164 -1.78419,6.58643 -0.0292,3.03472 -1.14878,6.96163 -2.48567,8.7264 -2.6334,3.47639 -8.58211,3.3424 -25.99052,-0.58524 -4.75518,-1.07283 -11.17466,-2.38177 -14.2656,-2.90845 l -5.61973,-0.95777 v 9.59741 c 0,5.2787 -0.77839,10.07851 -1.72915,10.66619 -0.95093,0.58822 -1.7292,4.08936 -1.7292,7.78123 0,3.69198 -0.75191,7.17747 -1.67155,7.74577 -0.9195,0.56857 -8.76899,0.49699 -17.44355,-0.15783 l -15.77202,-1.19059 1.13987,-4.49575 c 0.62742,-2.47255 1.55861,-7.02454 2.07034,-10.1153 0.51169,-3.09097 1.6234,-5.61985 2.47038,-5.61985 0.84701,0 1.53997,-2.28845 1.53997,-5.08536 0,-2.79704 0.77836,-5.56635 1.72917,-6.15414 0.95089,-0.58819 1.72917,-2.86704 1.72917,-5.06486 0,-4.38102 -3.44684,-5.66741 -26.48921,-9.88556 -13.57176,-2.48441 -14.93945,-1.63284 -14.98419,9.33061 -0.004,3.56645 -0.71071,6.48437 -1.54779,6.48437 -0.83718,0 -1.99059,4.4742 -2.56422,9.94271 -1.69347,16.1469 -3.13119,23.63924 -4.97693,25.93748 -1.08539,1.35128 -6.19311,2.1614 -13.62839,2.1614 H 176.5752 Z m -1.26107,-195.1612 c -2.18747,-1.68597 -2.4446,-2.5913 -0.89993,-3.17017 1.18884,-0.446 2.16149,-2.64476 2.16149,-4.88692 0,-2.24226 0.77836,-4.55769 1.7292,-5.14549 0.95086,-0.58818 1.72902,-2.57901 1.72902,-4.42494 0,-1.846 0.7784,-3.35628 1.72921,-3.35628 0.9509,0 1.72917,-1.89936 1.72917,-4.22082 0,-2.32148 0.77838,-4.70177 1.72917,-5.28959 0.95089,-0.58817 1.72916,-2.57902 1.72916,-4.42494 0,-1.84591 0.77837,-3.35631 1.7292,-3.35631 0.9509,0 1.72919,-1.02096 1.72919,-2.26891 0,-1.2479 1.55623,-5.49005 3.45834,-9.42688 1.90198,-3.936816 3.45823,-8.279406 3.45823,-9.650186 0,-1.37075 1.23087,-2.96453 2.73517,-3.54186 3.95749,-1.51859 4.18152,-1.39507 4.18152,2.30667 0,1.84605 0.77835,3.83722 1.7292,4.42501 0.9509,0.58824 1.72912,2.57904 1.72912,4.424956 0,1.84592 0.77835,3.35628 1.72921,3.35628 0.95086,0 1.72902,1.53253 1.72902,3.40574 0,1.87316 1.55623,6.17645 3.45838,9.56292 1.90207,3.38651 3.45834,7.30075 3.45834,8.69836 0,1.3977 0.77838,2.54123 1.72917,2.54123 0.95091,0 1.72921,1.39174 1.72921,3.09269 0,1.70103 1.55623,6.14516 3.45833,9.87605 3.9414,7.73102 4.45727,12.926 1.29683,13.061 -26.53664,1.13303 -48.32505,0.45485 -50.97446,-1.58761 z m 142.18773,-19.25463 c -0.58822,-0.95092 -3.21095,-1.72917 -5.82932,-1.72917 -5.26822,0 -16.11099,-4.51008 -29.48949,-12.26644 -5.64973,-3.27551 -31.18753,-28.602996 -36.45015,-36.150106 -2.32113,-3.32863 -5.60298,-7.56042 -7.29325,-9.40414 -1.69015,-1.84366 -3.07297,-4.37256 -3.07297,-5.61969 0,-1.24728 -0.77837,-2.26776 -1.72918,-2.26776 -0.95088,0 -1.72916,-1.55624 -1.72916,-3.45836 0,-1.902 -0.63919,-3.45826 -1.42084,-3.45826 -1.56242,0 -8.9541,-15.4447 -8.9541,-18.70918 0,-1.12242 -0.77836,-2.04079 -1.72918,-2.04079 -0.9509,0 -1.72916,-1.89934 -1.72916,-4.22082 0,-2.32148 -0.7784,-4.70177 -1.72918,-5.28959 -0.9509,-0.58817 -1.72917,-2.81243 -1.72917,-4.9437 0,-2.13118 -0.83911,-4.71384 -1.86397,-5.73896 -1.08632,-1.08626 -1.98805,-10.4297197 -2.16149,-22.39267 -0.32154,-22.157902 2.4478,-35.921478 7.91611,-39.349149 1.66431,-1.043211 3.02604,-2.824249 3.02604,-3.957981 0,-1.133772 1.55624,-2.555201 3.45835,-3.158943 1.902,-0.603888 3.45824,-1.732549 3.45824,-2.508535 0,-0.776412 1.36175,-1.862934 3.02604,-2.41522 1.66437,-0.551898 6.13848,-2.187658 9.9427,-3.634017 7.21225,-2.742113 42.38162,-3.892339 42.34607,-1.384877 -0.004,0.71369 -2.79312,3.993199 -6.1844,7.288822 -8.07954,7.851609 -11.33545,15.85813 -11.67558,28.710908 -0.21073,7.968048 0.68615,12.369687 3.72749,18.283002 5.18367,10.0795503 11.22535,17.04516 14.78437,17.04516 1.5537,0 2.82487,0.77839 2.82487,1.72919 0,0.95088 1.51027,1.72918 3.35623,1.72918 1.84599,0 3.83724,0.77834 4.425,1.72907 2.5935,4.19653 30.19961,0.64502 30.24687,-3.89057 0.003,-0.71368 1.17382,-1.29687 2.59214,-1.29687 3.26855,0 12.82961,-9.8717197 15.07268,-15.56246 4.01978,-10.198364 6.20418,-21.636338 4.67698,-24.489942 -1.92504,-3.596846 -2.1016,-15.28081 -0.23133,-15.28081 0.74115,0 2.46913,1.556231 3.84008,3.458324 1.3709,1.902108 3.87706,3.458361 5.56915,3.458361 1.69214,0 3.07664,0.778381 3.07664,1.729163 0,0.950915 1.10561,1.729175 2.45694,1.729175 3.55265,0 27.7402,23.904397 31.98418,31.609799 1.98022,3.5952603 3.60046,8.0046103 3.60046,9.7985803 0,1.79391 0.83817,3.5408197 1.86153,3.8821297 2.89681,0.96562 2.922,40.28506 0.0292,50.67793 -1.32205,4.75522 -3.06716,9.38501 -3.87815,10.28848 -0.81069,0.90386 -1.47415,3.04337 -1.47415,4.75521 0,1.71189 -0.77838,3.11249 -1.72918,3.11249 -0.95092,0 -1.7292,1.55622 -1.7292,3.45832 0,1.90212 -0.77839,3.45835 -1.72906,3.45835 -0.95089,0 -1.7292,1.55625 -1.7292,3.45836 0,1.90202 -0.64699,3.45825 -1.43703,3.45825 -0.79008,0 -2.54107,2.1399 -3.89055,4.75519 -1.34951,2.615366 -5.25596,7.588786 -8.68102,11.051956 -3.42506,3.46326 -6.70761,7.54838 -7.29464,9.07807 -0.58718,1.52979 -2.19413,2.78143 -3.57126,2.78143 -1.37716,0 -2.76329,0.5833 -3.08033,1.29686 -1.24774,2.80762 -15.17477,9.07808 -20.16279,9.07808 -2.90524,0 -5.76327,0.77837 -6.35097,1.72917 -0.58815,0.95091 -4.08938,1.72916 -7.78121,1.72916 -3.69196,0 -7.19353,-0.77834 -7.78122,-1.72916 z M 107.4087,129.30132 c -5.95079,-0.98498 -17.29163,-4.51521 -17.29163,-5.3825 0,-1.79701 4.76628,-5.17112 8.69898,-6.15818 5.70987,-1.43313 13.69481,-9.38683 18.53534,-18.462916 9.35465,-17.53998 1.69704,-39.46514 -17.2424,-49.36823 -13.78347,-7.20723 -26.54148,-5.49406 -42.067999,5.64903 -3.508562,2.51793 -8.803319,11.75707 -11.151877,19.4595 -1.30486,4.27965 -2.580083,8.06838 -2.833575,8.41933 -0.970535,1.34389 -5.813131,-4.84627 -5.813131,-7.43128 0,-1.49449 -0.671529,-2.71721 -1.492946,-2.71721 -0.821509,0 -2.472346,-4.61553 -3.669501,-10.25676 -2.474619,-11.66097 -0.225428,-28.40794 5.458174,-40.64607 1.739389,-3.74499 3.162503,-7.83013 3.162503,-9.07809 0,-1.24791 0.594056,-2.2689 1.320927,-2.2689 0.72643,0 3.244687,-3.1124797 5.595743,-6.9167197 2.351112,-3.80410001 4.869145,-6.9165903 5.595725,-6.9165903 0.726422,0 1.320893,-0.99196 1.320893,-2.20442 0,-2.700151 14.320374,-17.657697 25.490244,-26.624124 4.52563,-3.632819 9.48678,-7.970023 11.02489,-9.638205 1.53814,-1.668209 4.06704,-3.03319 5.61973,-3.03319 1.55284,0 2.82332,-0.634261 2.82332,-1.408877 0,-3.073292 13.4689,-8.172193 31.19356,-11.80907 2.7168,-0.557783 7.99214,0.794074 13.83324,3.544213 10.44307,4.916687 15.19208,8.664903 18.68249,14.745018 7.494,13.054501 8.91547,16.113974 8.91547,19.189564 0,1.873201 0.77838,3.40582 1.72917,3.40582 0.95089,0 1.72916,2.956822 1.72916,6.570751 0,3.61402 0.83033,7.40143 1.84586,8.4166803 1.23125,1.23123999 1.56576,11.56588 1.00441,31.0384197 -0.88818,30.8014 -2.21357,43.29284 -4.76208,44.86801 -0.85088,0.52547 -1.54652,2.85513 -1.54652,5.17662 0,2.32146 -0.77839,4.22082 -1.72917,4.22082 -0.95092,0 -1.7292,1.19827 -1.7292,2.66266 0,8.31645 -21.97887,35.162086 -32.85406,40.128856 -4.8289,2.2054 -22.74148,3.92744 -29.39574,2.82604 z"
             id="path6497-6-9"
             inkscape:connector-curvature="0"
             sodipodi:nodetypes="ssssccsssccccscccccsssscscsscccccccccccscssscsssscsccccccssccscsccccccccsccscsccccccsccscccccccsscccsccscscccccsscsccsccscsccscssscssscscscssssssscccccscccssssssscscccscsccccccsssccsccscssscscccsssssscccscscscccsssccccssccsscsscssscccssscccssscc" />
        </g>
      </g>
    </g>
  </g>
</svg>
