<?xml version="1.0" encoding="UTF-8" standalone="no"?>
<!-- Created with Inkscape (http://www.inkscape.org/) -->

<svg
   xmlns:dc="http://purl.org/dc/elements/1.1/"
   xmlns:cc="http://creativecommons.org/ns#"
   xmlns:rdf="http://www.w3.org/1999/02/22-rdf-syntax-ns#"
   xmlns:svg="http://www.w3.org/2000/svg"
   xmlns="http://www.w3.org/2000/svg"
   xmlns:sodipodi="http://sodipodi.sourceforge.net/DTD/sodipodi-0.dtd"
   xmlns:inkscape="http://www.inkscape.org/namespaces/inkscape"
   width="210mm"
   height="297mm"
   viewBox="0 0 210 297"
   version="1.1"
   id="svg8"
   inkscape:version="0.92.2 5c3e80d, 2017-08-06"
   sodipodi:docname="grin8.svg">
  <defs
     id="defs2">
    <clipPath
       id="clipPath106"
       clipPathUnits="userSpaceOnUse">
      <path
         inkscape:connector-curvature="0"
         id="path104"
         d="M 0,864 H 864 V 0 H 0 Z" />
    </clipPath>
  </defs>
  <sodipodi:namedview
     id="base"
     pagecolor="#000000"
     bordercolor="#666666"
     borderopacity="1.0"
     inkscape:pageopacity="0"
     inkscape:pageshadow="2"
     inkscape:zoom="0.98994949"
     inkscape:cx="291.36527"
     inkscape:cy="554.28571"
     inkscape:document-units="mm"
     inkscape:current-layer="layer1"
     showgrid="false"
     showguides="true"
     inkscape:guide-bbox="true"
     inkscape:window-width="2560"
     inkscape:window-height="1385"
     inkscape:window-x="2560"
     inkscape:window-y="27"
     inkscape:window-maximized="1">
    <sodipodi:guide
       position="104.76965,149.1364"
       orientation="1,0"
       id="guide10"
       inkscape:locked="false" />
    <sodipodi:guide
       position="56.661139,148.86913"
       orientation="0,1"
       id="guide12"
       inkscape:locked="false" />
  </sodipodi:namedview>
  <metadata
     id="metadata5">
    <rdf:RDF>
      <cc:Work
         rdf:about="">
        <dc:format>image/svg+xml</dc:format>
        <dc:type
           rdf:resource="http://purl.org/dc/dcmitype/StillImage" />
        <dc:title></dc:title>
      </cc:Work>
    </rdf:RDF>
  </metadata>
  <g
     inkscape:label="Layer 1"
     inkscape:groupmode="layer"
     id="layer1">
    <g
       transform="matrix(0.18062222,0,0,-0.18062222,25.327705,232.28309)"
       clip-path="url(#clipPath106)"
       id="g102"
       style="fill:#ffeeaa">
      <g
         transform="translate(228.9312,47.7412)"
         id="g108"
         style="fill:#ffeeaa" />
      <g
         transform="translate(248.1992,56.2988)"
         id="g112"
         style="fill:#ffeeaa" />
      <g
         transform="translate(255.6704,46.6367)"
         id="g116"
         style="fill:#ffeeaa" />
      <g
         transform="translate(269.1631,60.8965)"
         id="g120"
         style="fill:#ffeeaa" />
      <g
         transform="translate(280.1299,55.9375)"
         id="g124"
         style="fill:#ffeeaa" />
      <g
         transform="translate(287.6968,46.1934)"
         id="g128"
         style="fill:#ffeeaa" />
      <g
         transform="translate(304.4712,56.2988)"
         id="g132"
         style="fill:#ffeeaa" />
      <g
         transform="translate(316.8799,56.2539)"
         id="g136"
         style="fill:#ffeeaa" />
      <g
         transform="translate(332.0713,46.043)"
         id="g140"
         style="fill:#ffeeaa" />
      <g
         transform="translate(341.8384,41.0615)"
         id="g144"
         style="fill:#ffeeaa" />
      <g
         transform="translate(360.4165,46.0176)"
         id="g148"
         style="fill:#ffeeaa" />
      <g
         transform="translate(380.6489,56.2988)"
         id="g152"
         style="fill:#ffeeaa" />
      <g
         transform="translate(392.0078,56.2988)"
         id="g156"
         style="fill:#ffeeaa" />
      <g
         transform="translate(412.9751,61.0596)"
         id="g160"
         style="fill:#ffeeaa" />
      <g
         transform="translate(431.9961,55.5762)"
         id="g164"
         style="fill:#ffeeaa" />
      <g
         transform="translate(442.5771,56.2988)"
         id="g168"
         style="fill:#ffeeaa" />
      <g
         transform="translate(458.0254,63.041)"
         id="g172"
         style="fill:#ffeeaa" />
      <g
         transform="translate(470.4346,47.7412)"
         id="g176"
         style="fill:#ffeeaa" />
      <g
         transform="translate(489.6992,56.2988)"
         id="g180"
         style="fill:#ffeeaa" />
      <g
         transform="translate(497.1729,46.6367)"
         id="g184"
         style="fill:#ffeeaa" />
      <g
         transform="translate(510.665,60.8965)"
         id="g188"
         style="fill:#ffeeaa" />
      <g
         transform="translate(521.6299,55.9375)"
         id="g192"
         style="fill:#ffeeaa" />
      <g
         transform="translate(529.1963,46.1934)"
         id="g196"
         style="fill:#ffeeaa" />
      <g
         transform="translate(542.7109,46.043)"
         id="g200"
         style="fill:#ffeeaa" />
      <g
         transform="translate(561.0107,51.4189)"
         id="g204"
         style="fill:#ffeeaa" />
      <g
         transform="translate(566.9707,60.1416)"
         id="g208"
         style="fill:#ffeeaa" />
      <g
         transform="translate(571.5342,56.8457)"
         id="g212"
         style="fill:#ffeeaa" />
      <g
         transform="translate(582.127,46.6367)"
         id="g216"
         style="fill:#ffeeaa" />
      <g
         transform="translate(593.5469,46.043)"
         id="g220"
         style="fill:#ffeeaa" />
      <g
         transform="translate(605.5596,54.3203)"
         id="g224"
         style="fill:#ffeeaa" />
      <g
         transform="translate(615.8857,51.4189)"
         id="g228"
         style="fill:#ffeeaa" />
      <g
         transform="translate(628.0156,45.543)"
         id="g232"
         style="fill:#ffeeaa" />
      <g
         transform="translate(283.4512,439.1152)"
         id="g236"
         style="fill:#ffeeaa" />
      <g
         transform="translate(571.5508,418.1895)"
         id="g240"
         style="fill:#ffeeaa" />
      <g
         transform="translate(418.6484,282.9922)"
         id="g244"
         style="fill:#ffeeaa">
        <path
           inkscape:connector-curvature="0"
           id="path246"
           style="fill:#ffeeaa;fill-opacity:1;fill-rule:nonzero;stroke:none"
           d="m 0,0 c 101.398,-3.219 151.295,62.77 43.457,117.492 0,0 -56.332,24.147 -98.18,-9.654 C -96.568,74.035 -101.398,3.219 0,0" />
      </g>
      <g
         transform="translate(730.8926,439.1152)"
         id="g248"
         style="fill:#ffeeaa" />
      <g
         transform="translate(172.3965,427.8477)"
         id="g252"
         style="fill:#ffeeaa" />
      <g
         transform="translate(470.1523,245.9707)"
         id="g256"
         style="fill:#ffeeaa">
        <g
           id="g350"
           style="fill:#ffeeaa">
          <path
             d="m 0,0 c 61.16,0 104.613,54.723 94.959,109.445 -22.531,3.219 -65.984,0 -64.377,38.627 1.607,38.629 61.158,53.114 61.158,53.114 0,0 -33.799,125.541 -101.398,104.619 C -77.256,284.881 -99.789,215.674 -107.836,148.072 -115.885,80.471 -61.158,0 0,0"
             style="fill:#ffeeaa;fill-opacity:1;fill-rule:nonzero;stroke:none"
             id="path238"
             inkscape:connector-curvature="0"
             transform="translate(-186.7011,193.1445)" />
          <path
             d="m 0,0 c 85.303,6.439 122.324,111.055 109.447,144.854 -49.896,3.222 -123.933,46.679 -40.238,88.525 0,0 -30.58,111.055 -123.932,98.18 -93.349,-12.877 -91.74,-90.133 -93.349,-169 C -149.684,83.695 -85.303,-6.437 0,0"
             style="fill:#ffeeaa;fill-opacity:1;fill-rule:nonzero;stroke:none"
             id="path242"
             inkscape:connector-curvature="0"
             transform="translate(101.3985,172.2188)" />
          <path
             d="M 0,0 C 0,0 57.939,19.314 77.256,-48.285 96.572,25.752 78.863,94.961 0,0"
             style="fill:#ffeeaa;fill-opacity:1;fill-rule:nonzero;stroke:none"
             id="path250"
             inkscape:connector-curvature="0"
             transform="translate(260.7403,193.1445)" />
          <path
             d="m 0,0 c 0,0 -48.283,45.066 -85.305,45.066 -37.019,0 -24.146,-75.644 4.826,-106.228 C -74.039,-4.826 -28.971,4.824 0,0"
             style="fill:#ffeeaa;fill-opacity:1;fill-rule:nonzero;stroke:none"
             id="path254"
             inkscape:connector-curvature="0"
             transform="translate(-297.7558,181.877)" />
          <path
             d="M 0,0 C -273.615,-8.047 -333.166,146.467 -333.166,146.467 -313.85,-25.748 -160.949,-91.738 -38.627,-88.518 239.816,-62.766 265.568,72.432 275.227,140.029 215.676,53.115 99.791,8.051 0,0"
             style="fill:#ffeeaa;fill-opacity:1;fill-rule:nonzero;stroke:none"
             id="path258"
             inkscape:connector-curvature="0" />
        </g>
      </g>
    </g>
  </g>
</svg>
