<?xml version="1.0" encoding="UTF-8" standalone="no"?>
<!-- Created with Inkscape (http://www.inkscape.org/) -->

<svg
   xmlns:dc="http://purl.org/dc/elements/1.1/"
   xmlns:cc="http://creativecommons.org/ns#"
   xmlns:rdf="http://www.w3.org/1999/02/22-rdf-syntax-ns#"
   xmlns:svg="http://www.w3.org/2000/svg"
   xmlns="http://www.w3.org/2000/svg"
   xmlns:sodipodi="http://sodipodi.sourceforge.net/DTD/sodipodi-0.dtd"
   xmlns:inkscape="http://www.inkscape.org/namespaces/inkscape"
   width="210mm"
   height="297mm"
   viewBox="0 0 210 297"
   version="1.1"
   id="svg8"
   inkscape:version="0.92.2 5c3e80d, 2017-08-06"
   sodipodi:docname="grin6.svg">
  <defs
     id="defs2">
    <clipPath
       id="clipPath45"
       clipPathUnits="userSpaceOnUse">
      <path
         inkscape:connector-curvature="0"
         id="path43"
         d="M 0,864 H 864 V 0 H 0 Z" />
    </clipPath>
    <clipPath
       id="clipPath3854"
       clipPathUnits="userSpaceOnUse">
      <path
         inkscape:connector-curvature="0"
         id="path3852"
         d="M 0,864 H 864 V 0 H 0 Z" />
    </clipPath>
    <clipPath
       id="clipPath4053"
       clipPathUnits="userSpaceOnUse">
      <path
         inkscape:connector-curvature="0"
         id="path4051"
         d="M 0,864 H 864 V 0 H 0 Z" />
    </clipPath>
    <clipPath
       id="clipPath4150"
       clipPathUnits="userSpaceOnUse">
      <path
         inkscape:connector-curvature="0"
         id="path4148"
         d="M 0,864 H 864 V 0 H 0 Z" />
    </clipPath>
    <clipPath
       id="clipPath4295"
       clipPathUnits="userSpaceOnUse">
      <path
         inkscape:connector-curvature="0"
         id="path4293"
         d="M 0,864 H 864 V 0 H 0 Z" />
    </clipPath>
    <clipPath
       id="clipPath4410"
       clipPathUnits="userSpaceOnUse">
      <path
         inkscape:connector-curvature="0"
         id="path4408"
         d="M 0,864 H 864 V 0 H 0 Z" />
    </clipPath>
    <clipPath
       id="clipPath4615"
       clipPathUnits="userSpaceOnUse">
      <path
         inkscape:connector-curvature="0"
         id="path4613"
         d="M 0,864 H 864 V 0 H 0 Z" />
    </clipPath>
    <clipPath
       id="clipPath4838"
       clipPathUnits="userSpaceOnUse">
      <path
         inkscape:connector-curvature="0"
         id="path4836"
         d="M 0,864 H 864 V 0 H 0 Z" />
    </clipPath>
    <clipPath
       id="clipPath5001"
       clipPathUnits="userSpaceOnUse">
      <path
         inkscape:connector-curvature="0"
         id="path4999"
         d="M 0,864 H 864 V 0 H 0 Z" />
    </clipPath>
    <inkscape:perspective
       id="perspective9"
       inkscape:persp3d-origin="372.04724 : 350.78739 : 1"
       inkscape:vp_z="744.09448 : 526.18109 : 1"
       inkscape:vp_y="0 : 1000 : 0"
       inkscape:vp_x="0 : 526.18109 : 1"
       sodipodi:type="inkscape:persp3d" />
  </defs>
  <sodipodi:namedview
     id="base"
     pagecolor="#000000"
     bordercolor="#666666"
     borderopacity="1.0"
     inkscape:pageopacity="0"
     inkscape:pageshadow="2"
     inkscape:zoom="0.91846942"
     inkscape:cx="396.85039"
     inkscape:cy="556.87007"
     inkscape:document-units="mm"
     inkscape:current-layer="g5136"
     showgrid="false"
     inkscape:window-width="2560"
     inkscape:window-height="1385"
     inkscape:window-x="2560"
     inkscape:window-y="27"
     inkscape:window-maximized="1"
     showguides="true"
     inkscape:guide-bbox="true">
    <sodipodi:guide
       position="105.43356,205.96993"
       orientation="1,0"
       id="guide3815"
       inkscape:locked="false" />
    <sodipodi:guide
       position="92.758485,149.50825"
       orientation="0,1"
       id="guide3817"
       inkscape:locked="false" />
  </sodipodi:namedview>
  <metadata
     id="metadata5">
    <rdf:RDF>
      <cc:Work
         rdf:about="">
        <dc:format>image/svg+xml</dc:format>
        <dc:type
           rdf:resource="http://purl.org/dc/dcmitype/StillImage" />
        <dc:title></dc:title>
      </cc:Work>
    </rdf:RDF>
  </metadata>
  <g
     inkscape:label="Layer 1"
     inkscape:groupmode="layer"
     id="layer1">
    <g
       transform="matrix(0.35277777,0,0,-0.35277777,-70.777455,287.43463)"
       inkscape:label="1"
       id="g37">
      <g
         id="g39">
        <g
           id="g5136"
           transform="matrix(0.75000002,0,0,-0.75000002,342.50983,505.50165)"
           style="fill:#ffeeaa">
          <path
             style="fill:#ffeeaa;stroke-width:1.72916186"
             d="m 195.35738,324.46521 c -9.75862,-9.91068 -18.3935,-18.01931 -19.18853,-18.01931 -2.23657,0 -8.13823,5.7061 -9.38923,9.07797 -0.6176,1.66449 -2.31423,3.02605 -3.77059,3.02605 -1.45644,0 -2.64802,1.19165 -2.64802,2.6482 0,1.45626 -1.17677,3.09932 -2.61488,3.65149 -2.50164,0.95969 -6.67198,-3.02577 -30.76238,-29.3988 -8.46293,-9.26495 -10.75551,-9.50734 -18.85444,-1.99269 -2.5738,2.38799 -5.72405,4.34189 -7.00037,4.34189 -1.276595,0 -8.859511,-7.00315 -16.851013,-15.56246 -7.991595,-8.55937 -15.650794,-15.56244 -17.020486,-15.56244 -1.369798,0 -4.769117,2.3844 -7.554172,5.29871 -4.072115,4.26092 -5.547681,4.89676 -7.536045,3.24658 -1.359886,-1.12872 -2.472572,-3.13456 -2.472572,-4.45744 0,-1.32305 -0.687175,-3.7567 -1.527437,-5.40822 -2.778565,-5.4623 -5.118974,-11.51661 -8.847498,-22.88796 -2.026987,-6.18175 -4.516498,-13.18479 -5.532376,-15.56245 -3.255431,-7.61921 -4.565004,-11.08798 -6.854232,-18.15605 -1.232192,-3.80422 -3.617936,-9.46933 -5.301824,-12.58906 -3.887636,-7.20306 -3.841487,-9.3076 0.397008,-18.0796 1.901985,-3.93683 3.45823,-8.17895 3.45823,-9.42689 0,-1.24797 0.778371,-2.26891 1.729167,-2.26891 0.950922,0 1.72922,-1.8994 1.72922,-4.22093 0,-2.32143 0.778353,-4.70169 1.72915,-5.2896 0.950904,-0.5872 1.729293,-2.57889 1.729293,-4.42483 0,-1.84615 0.778372,-3.3564 1.729152,-3.3564 0.950893,0 1.729092,-1.16716 1.729092,-2.59361 0,-1.42666 0.778359,-2.5938 1.729157,-2.5938 0.950877,0 1.729091,1.51031 1.729091,3.35638 0,1.84577 0.692085,3.78402 1.538103,4.30682 0.846015,0.52252 1.957687,3.48655 2.470377,6.5864 1.528503,9.23926 3.080808,15.79951 4.607266,19.46912 0.791099,1.90198 2.390015,7.15432 3.552774,11.67188 2.371739,9.21369 3.260976,9.79901 6.90285,4.54338 1.398714,-2.01869 3.396186,-4.56689 4.43864,-5.66277 1.042573,-1.09581 3.271106,-4.89109 4.952253,-8.43404 1.681252,-3.54286 3.746152,-6.44145 4.588836,-6.44145 0.843081,0 1.556963,-0.97245 1.587244,-2.1615 0.02915,-1.18859 1.158009,-3.61803 2.506232,-5.39833 2.214546,-2.92408 2.710392,-2.9779 5.132461,-0.55584 1.4747,1.47458 2.681227,3.39528 2.681227,4.26809 0,1.4819 11.817275,26.98837 15.591166,33.65214 0.935226,1.65143 1.700386,4.18034 1.700386,5.61961 0,1.43961 0.77836,2.61734 1.72913,2.61734 0.95094,0 1.72921,1.46109 1.72921,3.24662 0,4.69261 4.44366,7.77005 9.06886,6.28077 5.04994,-1.62605 21.93173,-4.28172 34.71273,-5.46048 9.15496,-0.84406 10.14802,-0.60188 11.00883,2.69011 0.52053,1.99001 1.63351,3.61792 2.47363,3.61792 0.84012,0 1.52744,1.55624 1.52744,3.45837 0,1.90208 0.77837,3.45832 1.72917,3.45832 0.95089,0 1.72914,1.19974 1.72914,2.66597 0,1.46636 1.55289,4.33288 3.451,6.37025 l 3.4509,3.70413 18.29618,-18.47429 c 16.87655,-17.04097 21.98956,-20.75537 23.50667,-17.07685 0.83326,2.02055 16.4212,12.43577 18.61182,12.43577 1.01744,0 1.85005,0.62148 1.85005,1.38155 0,0.75973 3.09139,3.28883 6.87002,5.61984 3.77869,2.33102 6.89116,4.82188 6.91659,5.53514 0.0291,0.71367 1.06706,1.29672 2.31429,1.29672 1.24729,0 3.93802,1.55628 5.97974,3.45834 5.27361,4.91318 8.31265,4.29977 10.70776,-2.16145 1.14578,-3.09074 2.79643,-6.97091 3.6682,-8.62215 0.87151,-1.65163 1.58475,-4.56952 1.58475,-6.48447 0,-1.91502 0.77839,-3.48188 1.72919,-3.48188 0.95094,0 1.72921,-1.89927 1.72921,-4.22072 0,-2.3215 0.77837,-4.70186 1.72929,-5.28958 0.95086,-0.58818 1.72915,-2.81251 1.72915,-4.94374 0,-6.63072 2.92954,-7.86275 16.22092,-6.82097 6.77065,0.53034 13.04946,1.64405 13.9529,2.47418 0.90386,0.83036 5.37762,1.5093 9.94262,1.5093 h 8.3001 v -20.40411 c 0,-13.56418 0.69602,-21.09987 2.07486,-22.47917 1.35291,-1.35291 8.45371,-2.075 20.40411,-2.075 19.4125,0 22.47923,-1.09472 22.47923,-8.02504 0,-2.13119 0.77838,-4.35579 1.72916,-4.94359 0.95089,-0.58821 1.72909,-3.20165 1.72909,-5.80826 0,-2.60696 0.63621,-5.47891 1.4135,-6.38241 0.77741,-0.90386 2.391,-5.92228 3.58542,-11.153 4.33522,-18.983571 7.64218,-23.679373 9.43785,-13.40109 1.27969,7.32557 3.95125,20.71919 6.29455,31.55719 3.49085,16.14538 3.96245,26.45081 1.57929,34.52182 -1.27351,4.31356 -2.92394,7.8427 -3.66733,7.8427 -0.74308,0 -1.35166,1.09374 -1.35166,2.43041 0,2.29263 -1.13226,4.88635 -10.14427,23.23806 -2.02883,4.13185 -3.68908,8.6062 -3.68908,9.94284 0,1.33654 -0.7784,2.43018 -1.7291,2.43018 -0.95093,0 -1.72917,1.55625 -1.72917,3.45836 0,1.90209 -0.77839,3.45833 -1.72909,3.45833 -0.95091,0 -1.72711,1.36163 -1.72447,3.02614 0.001,1.66425 -1.5185,6.1384 -3.38031,9.94261 -1.8618,3.80409 -5.92627,12.55811 -9.03228,19.45313 -3.10603,6.89501 -6.67966,12.53629 -7.9415,12.53629 -1.26195,0 -6.22864,-3.93418 -11.03697,-8.74262 -10.89408,-10.89408 -14.73723,-10.874 -18.60779,0.0981 -1.50996,4.27986 -3.32897,8.04065 -4.0422,8.35769 -0.71368,0.31664 -1.29694,1.53307 -1.29694,2.70248 0,1.16921 -1.83468,5.96766 -4.07743,10.66297 -4.45094,9.31932 -8.12876,17.55132 -11.73298,26.26108 -2.32735,5.62467 -8.55713,7.82965 -10.99153,3.89068 -0.58821,-0.9509 -2.57904,-1.72918 -4.42496,-1.72918 -1.846,0 -3.35628,-0.77833 -3.35628,-1.72917 0,-0.95089 -1.53255,-1.72918 -3.40582,-1.72918 -1.87309,0 -6.17645,-1.55626 -9.56284,-3.45825 -3.38659,-1.90208 -7.65458,-3.45834 -9.48452,-3.45834 -2.9446,0 -12.12998,7.3491 -12.12998,9.70517 0,0.49608 -2.52907,3.42018 -5.61983,6.49755 -3.09095,3.07736 -10.28859,10.77675 -15.99469,17.10937 -5.70637,6.33272 -11.54229,11.4822 -12.96882,11.44329 -1.42655,-0.039 -10.57808,-8.17946 -20.33681,-18.09021 z m -7.32979,-145.97827 c 0,-2.8532 0.77838,-5.18757 1.72917,-5.18757 0.95091,0 1.72915,-2.33438 1.72915,-5.18749 0,-2.85311 0.77842,-5.1874 1.72921,-5.1874 0.95091,0 1.72914,-1.56685 1.72914,-3.48189 0,-1.91483 0.68722,-4.83282 1.52737,-6.48435 2.53535,-4.98392 7.67053,-17.58712 9.48999,-23.29096 1.13423,-3.556 5.71608,-2.34806 7.05391,1.85977 0.50097,1.57642 2.69274,4.81155 4.8701,7.18908 2.17737,2.37767 5.8609,7.04642 8.18562,10.37497 2.32472,3.32865 5.60976,7.56065 7.29978,9.40421 1.6902,1.84365 3.07309,4.30771 3.07309,5.47562 0,1.16805 0.63821,2.38298 1.41849,2.7001 2.481,1.00805 10.56955,14.06306 9.64257,15.56314 -0.48921,0.79209 -14.07226,1.44016 -30.18389,1.44016 h -29.2937 z m -20.74996,-56.54109 c -4.27964,-0.33232 -9.33746,-1.25529 -11.23951,-2.05197 -1.90211,-0.79703 -6.57083,-2.38592 -10.37501,-3.53149 -8.03965,-2.42125 -13.12909,-4.51739 -21.84996,-8.99849 -3.45799,-1.77713 -7.54325,-3.23096 -9.07812,-3.23096 -1.53476,0 -2.79055,-0.68331 -2.79055,-1.51943 0,-0.83618 -2.33441,-2.48616 -5.18751,-3.668009 -2.85309,-1.181884 -5.18744,-2.707562 -5.18744,-3.390629 0,-0.683274 -1.884726,-2.100523 -4.188038,-3.149968 C 91.759964,89.843478 86.745371,85.7999 77.399875,76.291744 63.12673,61.770582 56.611383,53.957867 56.611383,51.364448 c 0,-1.410655 -0.689183,-2.564701 -1.532226,-2.564701 -0.843086,0 -2.872812,-2.917983 -4.511521,-6.484356 -1.638621,-3.566347 -4.061614,-8.743702 -5.38444,-11.505131 -1.322856,-2.761455 -2.405215,-6.068525 -2.405215,-7.348898 0,-1.280505 -0.778408,-2.328143 -1.729059,-2.328143 -0.950927,0 -1.729205,-1.899374 -1.729205,-4.220952 0,-2.321374 -0.778359,-4.701756 -1.729156,-5.289471 -0.95091,-0.588181 -1.729188,-3.3571581 -1.729188,-6.1540951 0,-2.7971196 -0.778377,-5.08547266 -1.729174,-5.08547266 -0.950909,0 -1.729148,-3.84457704 -1.729148,-8.54381354 0,-4.6989287 -0.778352,-9.0246417 -1.729203,-9.6123307 -0.950849,-0.588208 -1.729149,-7.636835 -1.729149,-15.66452 v -14.595869 h 8.109449 c 9.244248,0 27.597821,3.075347 32.070127,5.373583 1.651411,0.848958 5.097717,1.543123 7.65848,1.543123 4.19463,0 10.612555,1.626924 20.463822,5.187508 1.902076,0.687188 6.570813,2.237857 10.375043,3.445503 8.29344,2.632418 28.8745,12.597288 36.87056,17.851667 8.24458,5.4176 28.42546,25.410195 31.30198,31.009928 1.34354,2.615372 3.08947,4.755212 3.87979,4.755212 0.79012,0 1.43706,1.556246 1.43706,3.458341 0,1.901989 0.77836,3.458232 1.72906,3.458232 0.95091,0 1.72917,2.334419 1.72917,5.187512 0,2.853105 0.69306,5.187545 1.53997,5.187545 2.66987,0 4.10477,12.231334 4.05701,34.583177 -0.0492,23.502746 -1.59486,38.041534 -4.04189,38.041534 -0.85485,0 -1.55509,2.2512 -1.55509,5.00245 0,4.8156 -2.9357,7.4808 -7.49034,6.79964 -1.111,-0.16564 -5.52164,-0.57346 -9.80127,-0.9058 z m 58.3654,-23.360841 c -0.95677,-2.510354 0.91365,-16.869008 3.89599,-29.900285 1.08822,-4.755189 2.40096,-11.369203 2.91747,-14.69781 0.51666,-3.328653 1.49677,-6.830226 2.17837,-7.781229 0.68134,-0.950921 3.11827,-7.755771 5.41483,-15.121525 2.2966,-7.365784 4.75936,-13.396156 5.47252,-13.401162 0.71368,0 1.29686,-1.56478 1.29686,-3.466874 0,-1.902201 0.77837,-3.458446 1.72914,-3.458446 0.95093,0 1.72919,-1.556247 1.72919,-3.4581591 0,-1.9020925 0.77835,-3.4583384 1.72917,-3.4583384 0.95091,0 1.72917,-1.0204051 1.72917,-2.2676599 0,-1.24724706 1.38285,-3.7762527 3.073,-5.619732 1.69017,-1.8436564 4.98427,-6.0755796 7.32045,-9.4042346 6.21214,-8.852104 15.03665,-17.291624 18.08007,-17.291624 1.45834,0 2.65144,-0.588185 2.65144,-1.30704 0,-0.718571 2.52896,-2.326095 5.61973,-3.571585 3.09087,-1.245486 7.11695,-3.083077 8.94678,-4.083093 4.37213,-2.389693 37.67437,-2.264623 42.20215,0.158732 1.93858,1.037472 4.99421,1.886324 6.79014,1.886324 1.79612,0 8.08466,2.334394 13.97455,5.187512 5.8899,2.85309 11.67375,5.187408 12.85306,5.187408 4.22806,0 6.87131,10.046626 5.82658,22.1475225 -2.18343,25.2936085 -3.31924,33.1857115 -4.7752,33.1857115 -0.83716,0 -1.52144,1.233715 -1.52144,2.741743 0,3.607248 -10.63688,24.92484 -12.43671,24.92484 -0.76861,0 -1.39658,1.131736 -1.39658,2.515073 0,4.317694 -27.4753,28.609864 -32.35861,28.609864 -1.24933,0 -3.81724,0.778342 -5.70642,1.729169 -1.88915,0.950879 -4.98056,2.50723 -6.86964,3.458326 -1.88924,0.950903 -5.00174,1.729162 -6.91667,1.729162 -1.91505,0 -3.48178,0.699961 -3.48178,1.554976 0,2.49678 -14.2342,3.9072 -47.7716,4.733725 -24.58477,0.60585 -31.52802,0.29117 -32.19601,-1.461269 z"
             id="path6726-7-3"
             inkscape:connector-curvature="0"
             sodipodi:nodetypes="cscsscccsssccsccccccssscssssscccccccscccscssscccssssccccssccscccssscsccscscsscscccccsscssssscsscccscccssscsscccccsssssccccccsccscsscccssssccsscsssscssscscscsccccssssscsscsccccscsssssccsscccssscsssssccssccc" />
        </g>
      </g>
    </g>
  </g>
</svg>
