<?xml version="1.0" encoding="UTF-8" standalone="no"?>
<!-- Created with Inkscape (http://www.inkscape.org/) -->

<svg
   xmlns:dc="http://purl.org/dc/elements/1.1/"
   xmlns:cc="http://creativecommons.org/ns#"
   xmlns:rdf="http://www.w3.org/1999/02/22-rdf-syntax-ns#"
   xmlns:svg="http://www.w3.org/2000/svg"
   xmlns="http://www.w3.org/2000/svg"
   xmlns:sodipodi="http://sodipodi.sourceforge.net/DTD/sodipodi-0.dtd"
   xmlns:inkscape="http://www.inkscape.org/namespaces/inkscape"
   width="210mm"
   height="297mm"
   viewBox="0 0 210 297"
   version="1.1"
   id="svg8"
   inkscape:version="0.92.2 5c3e80d, 2017-08-06"
   sodipodi:docname="lightning.svg">
  <defs
     id="defs2">
    <clipPath
       id="clipPath45"
       clipPathUnits="userSpaceOnUse">
      <path
         inkscape:connector-curvature="0"
         id="path43"
         d="M 0,864 H 864 V 0 H 0 Z" />
    </clipPath>
    <clipPath
       id="clipPath3854"
       clipPathUnits="userSpaceOnUse">
      <path
         inkscape:connector-curvature="0"
         id="path3852"
         d="M 0,864 H 864 V 0 H 0 Z" />
    </clipPath>
    <clipPath
       id="clipPath4053"
       clipPathUnits="userSpaceOnUse">
      <path
         inkscape:connector-curvature="0"
         id="path4051"
         d="M 0,864 H 864 V 0 H 0 Z" />
    </clipPath>
    <clipPath
       id="clipPath4150"
       clipPathUnits="userSpaceOnUse">
      <path
         inkscape:connector-curvature="0"
         id="path4148"
         d="M 0,864 H 864 V 0 H 0 Z" />
    </clipPath>
    <clipPath
       id="clipPath4295"
       clipPathUnits="userSpaceOnUse">
      <path
         inkscape:connector-curvature="0"
         id="path4293"
         d="M 0,864 H 864 V 0 H 0 Z" />
    </clipPath>
    <clipPath
       id="clipPath4410"
       clipPathUnits="userSpaceOnUse">
      <path
         inkscape:connector-curvature="0"
         id="path4408"
         d="M 0,864 H 864 V 0 H 0 Z" />
    </clipPath>
    <clipPath
       id="clipPath4615"
       clipPathUnits="userSpaceOnUse">
      <path
         inkscape:connector-curvature="0"
         id="path4613"
         d="M 0,864 H 864 V 0 H 0 Z" />
    </clipPath>
    <clipPath
       id="clipPath4838"
       clipPathUnits="userSpaceOnUse">
      <path
         inkscape:connector-curvature="0"
         id="path4836"
         d="M 0,864 H 864 V 0 H 0 Z" />
    </clipPath>
    <clipPath
       id="clipPath5001"
       clipPathUnits="userSpaceOnUse">
      <path
         inkscape:connector-curvature="0"
         id="path4999"
         d="M 0,864 H 864 V 0 H 0 Z" />
    </clipPath>
    <inkscape:perspective
       id="perspective9"
       inkscape:persp3d-origin="372.04724 : 350.78739 : 1"
       inkscape:vp_z="744.09448 : 526.18109 : 1"
       inkscape:vp_y="0 : 1000 : 0"
       inkscape:vp_x="0 : 526.18109 : 1"
       sodipodi:type="inkscape:persp3d" />
  </defs>
  <sodipodi:namedview
     id="base"
     pagecolor="#000000"
     bordercolor="#666666"
     borderopacity="1.0"
     inkscape:pageopacity="0"
     inkscape:pageshadow="2"
     inkscape:zoom="0.91846942"
     inkscape:cx="396.85039"
     inkscape:cy="556.87007"
     inkscape:document-units="mm"
     inkscape:current-layer="g5136"
     showgrid="false"
     inkscape:window-width="2560"
     inkscape:window-height="1385"
     inkscape:window-x="2560"
     inkscape:window-y="27"
     inkscape:window-maximized="1"
     showguides="true"
     inkscape:guide-bbox="true">
    <sodipodi:guide
       position="105.43356,205.96993"
       orientation="1,0"
       id="guide3815"
       inkscape:locked="false" />
    <sodipodi:guide
       position="92.758485,149.50825"
       orientation="0,1"
       id="guide3817"
       inkscape:locked="false" />
  </sodipodi:namedview>
  <metadata
     id="metadata5">
    <rdf:RDF>
      <cc:Work
         rdf:about="">
        <dc:format>image/svg+xml</dc:format>
        <dc:type
           rdf:resource="http://purl.org/dc/dcmitype/StillImage" />
        <dc:title></dc:title>
      </cc:Work>
    </rdf:RDF>
  </metadata>
  <g
     inkscape:label="Layer 1"
     inkscape:groupmode="layer"
     id="layer1">
    <g
       transform="matrix(0.35277777,0,0,-0.35277777,-70.777455,287.43463)"
       inkscape:label="1"
       id="g37">
      <g
         id="g39">
        <g
           id="g5136"
           transform="matrix(0.75000002,0,0,-0.75000002,342.50983,505.50165)"
           style="fill:#ffeeaa">
          <path
             style="fill:#ffeeaa;stroke-width:1.72916186"
             d="m 165.65976,367.23992 c -5.70621,-1.37549 -12.32026,-2.91066 -14.69793,-3.41127 -2.37751,-0.50095 -5.87911,-1.56451 -7.78125,-2.36417 -1.90195,-0.79993 -7.15428,-2.46742 -11.67178,-3.70575 -4.51743,-1.23821 -8.2135,-2.85956 -8.2135,-3.60294 0,-0.74307 -1.55625,-1.35184 -3.45838,-1.35184 -1.90199,0 -3.45822,-0.77836 -3.45822,-1.729 0,-0.95089 -1.22283,-1.72924 -2.71733,-1.72924 -1.49447,0 -3.87427,-1.15708 -5.28849,-2.57116 -2.27559,-2.27573 -2.11227,-3.02586 1.42035,-6.52223 2.19543,-2.17278 6.71514,-5.84212 10.04369,-8.15393 3.32868,-2.31179 7.21935,-5.44397 8.6459,-6.96113 1.42657,-1.51679 5.31712,-4.62928 8.64572,-6.91646 3.32864,-2.28738 7.21932,-5.39987 8.64589,-6.91671 1.42654,-1.51682 5.3171,-4.62934 8.64579,-6.91649 3.32863,-2.28745 7.21928,-5.37161 8.64583,-6.85367 1.42655,-1.48232 5.47772,-4.84 9.00261,-7.46173 3.52493,-2.62147 10.13895,-8.2323 14.69792,-12.4681 4.55895,-4.23613 8.97583,-7.72387 9.81526,-7.75082 0.83917,-0.0291 2.7848,-1.41931 4.3229,-3.09417 1.5381,-1.67477 5.73239,-5.2295 9.3205,-7.89945 3.58821,-2.66979 8.25695,-6.56891 10.37503,-8.6642 2.11809,-2.09572 6.57437,-5.71298 9.90301,-8.03847 3.32863,-2.3256 7.15108,-5.2972 8.49399,-6.60367 4.0595,-3.94899 -0.86853,-5.55395 -17.13973,-5.58359 -21.03329,-0.0391 -30.66654,-0.63029 -32.00358,-1.96736 -1.35243,-1.35264 19.90446,-22.91379 33.76636,-34.24983 5.21222,-4.26254 10.64404,-8.93988 12.07048,-10.39416 1.42656,-1.45433 5.3172,-4.6869 8.64575,-7.18362 11.77376,-8.83087 35.00394,-32.46745 34.13498,-34.73181 -0.69308,-1.80601 -5.08437,-1.99844 -21.39412,-0.93814 -22.21703,1.445 -24.84493,1.12855 -24.84493,-2.99162 0,-3.79852 93.03896,-95.958622 96.87369,-95.958622 0.92832,0 1.68865,-1.468318 1.68865,-3.263188 0,-2.77653 -1.74034,-3.412845 -11.6719,-4.26798 -27.7396,-2.38754 -33.28631,-3.293562 -33.28631,-5.437003 0,-1.197559 2.91781,-5.212412 6.48434,-8.921723 3.56642,-3.709814 8.63269,-9.598646 11.25863,-13.0869684 2.62575,-3.4883508 10.21262,-11.9338365 16.85922,-18.7678026 6.64683,-6.83394 12.08518,-13.099696 12.08518,-13.923469 0,-3.749775 7.57781,-0.86854 14.25257,5.418303 4.0387,3.803982 8.31987,6.916472 9.51401,6.916472 1.19382,0 2.17069,0.761705 2.17069,1.693791 0,0.93131 4.08518,5.8327576 9.07825,10.8915664 11.69196,11.8466846 17.12894,18.3709586 20.17745,24.2129336 1.34948,2.585962 3.10042,4.701857 3.89066,4.701857 0.79014,0 1.45858,0.972475 1.48506,2.161394 0.0292,1.188737 2.36079,5.218113 5.1875,8.953599 2.82676,3.736057 5.13933,8.210198 5.13933,9.942904 0,1.732792 0.77834,3.150325 1.72912,3.150325 0.9509,0 1.7293,1.556251 1.7293,3.458277 0,1.902182 0.63721,3.458426 1.41656,3.458426 0.77936,0 2.48952,3.939891 3.80076,8.755155 1.31128,4.815605 3.00809,9.141128 3.77073,9.612466 0.76272,0.471513 1.3868,2.71043 1.3868,4.976051 0,2.26513 0.77837,4.599731 1.72918,5.187234 0.95091,0.588182 1.72912,2.812706 1.72912,4.943709 0,2.131476 0.7098,4.614248 1.57717,5.517898 2.201,2.292865 3.55767,17.461585 4.67049,52.220635 0.6137,19.1758 0.34309,29.82807 -0.75679,29.82807 -0.94117,0 -2.13816,4.08512 -2.65889,9.07807 -1.67005,16.01033 -3.1577,23.77343 -4.74335,24.75334 -0.85094,0.52546 -1.54656,2.80929 -1.54656,5.07469 0,2.26534 -0.77838,4.59975 -1.72913,5.18743 -0.95093,0.58818 -1.72914,2.26589 -1.72914,3.72931 0,6.10903 -22.03345,46.97499 -26.26908,48.72189 -0.76857,0.31764 -1.39755,1.56947 -1.39755,2.78342 0,4.9244 -32.98976,38.51442 -48.43564,49.31682 -3.31808,2.32043 -6.42191,4.6457 -6.89737,5.16706 -1.52721,1.67419 -11.14037,7.18176 -14.26571,8.17286 -1.66429,0.52741 -3.02594,1.64704 -3.02594,2.48714 0,0.84012 -1.55622,1.52742 -3.45843,1.52742 -1.90211,0 -3.45836,0.58819 -3.45836,1.30697 0,1.5335 -6.54874,4.51 -16.85932,7.66299 -4.04191,1.23568 -7.3488,2.83574 -7.3488,3.55519 0,0.71957 -1.51047,1.30804 -3.3564,1.30804 -1.84591,0 -3.837,0.77837 -4.42481,1.72928 -0.58818,0.95091 -4.00568,1.72925 -7.59519,1.72925 -3.5894,0 -7.09784,0.57156 -7.79632,1.2699 -5.58755,5.58741 -73.53627,7.61498 -93.54577,2.79116 z M 79.832494,330.727 c -2.249051,-1.53748 -4.47822,-3.26707 -4.953759,-3.84338 -0.475433,-0.57642 -3.587924,-2.94828 -6.916595,-5.27019 -6.995464,-4.88019 -27.666559,-25.16242 -27.666559,-27.14588 0,-0.73626 -3.112487,-4.6428 -6.916667,-8.68148 -3.804232,-4.03867 -6.916724,-8.33682 -6.916724,-9.55145 0,-1.21464 -1.556244,-3.33043 -3.458227,-4.70118 -1.902089,-1.37082 -3.458334,-3.81227 -3.458334,-5.42506 0,-1.61302 -0.611722,-3.19189 -1.358719,-3.50903 -2.043485,-0.86662 -15.9329094,-28.35563 -15.9329094,-31.53292 0,-1.51918 -0.7783754,-2.76212 -1.72919339,-2.76212 -0.9509159,0 -1.72913511,-2.28843 -1.72913511,-5.08525 0,-2.79716 -0.778382,-5.56641 -1.7292154,-6.15421 -0.950873,-0.58824 -1.7291681,-2.81244 -1.7291681,-4.94364 0,-2.1313 -0.7028824,-4.61435 -1.5614324,-5.51769 -1.8895316,-1.98787 -3.1203139,-11.32456 -5.6873702,-43.14275 -1.506665,-18.67495 -1.467051,-27.56761 0.17363,-38.90614 1.169308,-8.08395 2.5433046,-17.61571 3.0533702,-21.18208 0.5097466,-3.56635 1.6237914,-6.484397 2.4749032,-6.484397 0.8508984,0 1.5475009,-3.066517 1.5475009,-6.814722 0,-3.748012 0.7783787,-7.295479 1.729189,-7.883169 0.9508961,-0.588188 1.7291384,-2.589598 1.7291384,-4.44855 0,-1.858692 0.68431001,-4.730714 1.52029131,-6.382164 0.83623209,-1.6514 5.51307679,-11.019749 10.39326799,-20.81867 4.880291,-9.798623 10.421114,-19.477225 12.313141,-21.508331 1.891992,-2.030616 3.439876,-4.379068 3.439876,-5.218894 0,-0.840143 0.972463,-2.556862 2.161518,-3.816175 1.188822,-1.259015 4.106725,-4.799211 6.484365,-7.866806 8.852604,-11.42211316 30.623013,-32.291884 41.499812,-39.78282 6.181802,-4.25711 12.248548,-8.694016 13.481638,-9.859102 1.233298,-1.165393 5.123822,-3.370619 8.645912,-4.900589 3.521961,-1.530361 7.959941,-3.642237 9.862031,-4.693429 8.72794,-4.824027 16.48756,-8.172856 18.93716,-8.172856 1.47252,0 2.67734,-0.778384 2.67734,-1.729196 0,-0.950892 1.89935,-1.729169 4.22082,-1.729169 2.3215,0 4.64866,-0.692092 5.17147,-1.538089 0.52247,-0.846028 3.48666,-1.980741 6.58642,-2.521771 3.09965,-0.54113 9.91549,-1.885832 15.1462,-2.988483 5.23069,-1.102752 19.04235,-2.346661 30.69261,-2.764564 19.67611,-0.705838 21.18217,-0.534287 21.18217,2.415785 0,1.746419 -1.55626,4.29708 -3.45824,5.667949 -1.90208,1.370871 -3.46021,3.29356 -3.46246,4.272488 -0.001,0.97836 -2.33473,4.503076 -5.18344,7.831731 -2.84855,3.328547 -5.1811,6.959814 -5.18337,8.069443 -10e-4,1.109315 -0.64114,2.276476 -1.42087,2.593689 -0.77939,0.316646 -4.81038,5.634155 -8.95821,11.815823 -4.14763,6.181924 -8.17891,11.49915 -8.95816,11.816075 -0.77937,0.317634 -1.41674,1.781927 -1.41674,3.255433 0,1.4735075 -1.36705,3.9375103 -3.0379,5.475626 -1.67076,1.5381115 -4.13662,4.93646144 -5.47962,7.5519402 -1.34305,2.6152687 -3.08851,4.7551086 -3.87883,4.7551086 -0.79013,0 -1.43694,1.1584155 -1.43694,2.5740033 0,1.4156649 -1.36176,4.1601289 -3.02603,6.0987189 -1.66437,1.938561 -4.58227,6.108039 -6.48436,9.265118 -5.95325,9.881638 -10.21052,15.729704 -12.49498,17.163592 -1.21153,0.760713 -2.20292,2.511188 -2.20292,3.890566 0,1.379399 -0.77839,2.507936 -1.72922,2.507936 -0.95087,0 -1.72904,0.922471 -1.72904,2.049827 0,1.127464 -1.74595,3.908508 -3.8798,6.179817 -3.62643,3.860253 -3.68011,4.241576 -0.82151,5.841081 1.68193,0.94107 14.03287,2.021881 27.44649,2.401067 13.41372,0.379397 24.73113,1.032271 25.14984,1.450962 0.93915,0.93914 -2.76117,7.520578 -6.82742,12.143139 -1.66426,1.892117 -3.026,4.174853 -3.026,5.072803 0,0.897986 -1.39862,2.890932 -3.10807,4.429063 -1.70938,1.5381 -4.97951,5.520053 -7.26686,8.848765 -2.28739,3.328577 -5.37155,7.219217 -6.85376,8.645787 -1.48214,1.42655 -4.87932,5.52957 -7.54921,9.11778 -2.66985,3.58812 -6.56877,8.25687 -8.66426,10.37493 -2.09556,2.11807 -5.70149,6.57438 -8.01329,9.90294 -2.31179,3.32853 -5.60192,7.31047 -7.31135,8.84879 -1.70938,1.53811 -3.10809,3.48755 -3.10809,4.33209 0,0.84504 -3.17464,4.90605 -7.05473,9.02546 -3.88009,4.11932 -6.79808,7.64295 -6.48436,7.83022 3.63296,2.16993 14.55795,4.54657 20.89828,4.54657 10.55543,0 16.84913,2.51411 16.84913,6.72998 0,1.84629 -0.63719,3.61626 -1.41686,3.93349 -0.77931,0.31665 -4.80597,5.63404 -8.94829,11.8157 -4.14228,6.18194 -8.01646,11.62856 -8.60918,12.10429 -0.59308,0.47545 -2.96435,3.58783 -5.27025,6.91669 -2.30591,3.32855 -5.57543,7.56047 -7.2656,9.40413 -1.69026,1.84368 -3.07306,4.37251 -3.07306,5.61982 0,1.2471 -0.77836,2.26749 -1.72921,2.26749 -0.95087,0 -1.73269,0.97243 -1.73711,2.16168 -0.002,1.18862 -2.33885,4.64795 -5.18753,7.68729 -2.848672,3.03909 -5.179484,6.19951 -5.179484,7.02279 0,0.82343 -1.450911,3.05445 -3.224408,4.95791 -3.067361,3.2926 -7.15051,9.90452 -7.15051,11.57927 0,1.44055 11.114382,3.24372 25.072862,4.06747 7.6083,0.44903 14.57244,1.53816 15.47598,2.42005 1.0316,1.00686 0.87052,1.6034 -0.4323,1.6034 -1.14132,0 -2.07504,1.55624 -2.07504,3.45852 0,1.902 -0.65584,3.45825 -1.45733,3.45825 -0.80188,0 -3.31982,3.69606 -5.59638,8.21365 -2.2765,4.51717 -4.53876,8.60237 -5.02708,9.07775 -1.69609,1.65173 -7.15873,11.25715 -8.11282,14.26594 -0.52743,1.66406 -1.64704,3.02581 -2.48717,3.02581 -0.840124,0 -1.527393,1.02038 -1.527393,2.26765 0,1.24737 -1.361789,3.77625 -3.026067,5.61968 -1.664366,1.84388 -4.108093,5.4507 -5.430601,8.01589 -3.133709,6.07745 -5.789864,6.94324 -10.797945,3.51969 z"
             id="path6497-3-3"
             inkscape:connector-curvature="0"
             sodipodi:nodetypes="cccssssscccccccccccscccccccscccssscscssscssccsccssssccscsccsccscscscccssscsscsccccccscscscssscsccccsscscccsccccccssscccsscccccccsccsscccssscccccsccccsscsscsscccccssccscsccssssccsscccc" />
        </g>
      </g>
    </g>
  </g>
</svg>
