<?xml version="1.0" encoding="UTF-8" standalone="no"?>
<!-- Created with Inkscape (http://www.inkscape.org/) -->

<svg
   xmlns:dc="http://purl.org/dc/elements/1.1/"
   xmlns:cc="http://creativecommons.org/ns#"
   xmlns:rdf="http://www.w3.org/1999/02/22-rdf-syntax-ns#"
   xmlns:svg="http://www.w3.org/2000/svg"
   xmlns="http://www.w3.org/2000/svg"
   xmlns:sodipodi="http://sodipodi.sourceforge.net/DTD/sodipodi-0.dtd"
   xmlns:inkscape="http://www.inkscape.org/namespaces/inkscape"
   width="210mm"
   height="297mm"
   viewBox="0 0 210 297"
   version="1.1"
   id="svg8"
   inkscape:version="0.92.2 5c3e80d, 2017-08-06"
   sodipodi:docname="linus.svg">
  <defs
     id="defs2">
    <clipPath
       id="clipPath45"
       clipPathUnits="userSpaceOnUse">
      <path
         inkscape:connector-curvature="0"
         id="path43"
         d="M 0,864 H 864 V 0 H 0 Z" />
    </clipPath>
    <clipPath
       id="clipPath3854"
       clipPathUnits="userSpaceOnUse">
      <path
         inkscape:connector-curvature="0"
         id="path3852"
         d="M 0,864 H 864 V 0 H 0 Z" />
    </clipPath>
    <clipPath
       id="clipPath4053"
       clipPathUnits="userSpaceOnUse">
      <path
         inkscape:connector-curvature="0"
         id="path4051"
         d="M 0,864 H 864 V 0 H 0 Z" />
    </clipPath>
    <clipPath
       id="clipPath4150"
       clipPathUnits="userSpaceOnUse">
      <path
         inkscape:connector-curvature="0"
         id="path4148"
         d="M 0,864 H 864 V 0 H 0 Z" />
    </clipPath>
    <clipPath
       id="clipPath4295"
       clipPathUnits="userSpaceOnUse">
      <path
         inkscape:connector-curvature="0"
         id="path4293"
         d="M 0,864 H 864 V 0 H 0 Z" />
    </clipPath>
    <clipPath
       id="clipPath4410"
       clipPathUnits="userSpaceOnUse">
      <path
         inkscape:connector-curvature="0"
         id="path4408"
         d="M 0,864 H 864 V 0 H 0 Z" />
    </clipPath>
    <clipPath
       id="clipPath4615"
       clipPathUnits="userSpaceOnUse">
      <path
         inkscape:connector-curvature="0"
         id="path4613"
         d="M 0,864 H 864 V 0 H 0 Z" />
    </clipPath>
    <clipPath
       id="clipPath4838"
       clipPathUnits="userSpaceOnUse">
      <path
         inkscape:connector-curvature="0"
         id="path4836"
         d="M 0,864 H 864 V 0 H 0 Z" />
    </clipPath>
    <clipPath
       id="clipPath5001"
       clipPathUnits="userSpaceOnUse">
      <path
         inkscape:connector-curvature="0"
         id="path4999"
         d="M 0,864 H 864 V 0 H 0 Z" />
    </clipPath>
    <inkscape:perspective
       id="perspective9"
       inkscape:persp3d-origin="372.04724 : 350.78739 : 1"
       inkscape:vp_z="744.09448 : 526.18109 : 1"
       inkscape:vp_y="0 : 1000 : 0"
       inkscape:vp_x="0 : 526.18109 : 1"
       sodipodi:type="inkscape:persp3d" />
  </defs>
  <sodipodi:namedview
     id="base"
     pagecolor="#000000"
     bordercolor="#666666"
     borderopacity="1.0"
     inkscape:pageopacity="0"
     inkscape:pageshadow="2"
     inkscape:zoom="0.91846942"
     inkscape:cx="396.85039"
     inkscape:cy="556.87007"
     inkscape:document-units="mm"
     inkscape:current-layer="g5136"
     showgrid="false"
     inkscape:window-width="2560"
     inkscape:window-height="1385"
     inkscape:window-x="2560"
     inkscape:window-y="27"
     inkscape:window-maximized="1"
     showguides="true"
     inkscape:guide-bbox="true">
    <sodipodi:guide
       position="105.43356,205.96993"
       orientation="1,0"
       id="guide3815"
       inkscape:locked="false" />
    <sodipodi:guide
       position="92.758485,149.50825"
       orientation="0,1"
       id="guide3817"
       inkscape:locked="false" />
  </sodipodi:namedview>
  <metadata
     id="metadata5">
    <rdf:RDF>
      <cc:Work
         rdf:about="">
        <dc:format>image/svg+xml</dc:format>
        <dc:type
           rdf:resource="http://purl.org/dc/dcmitype/StillImage" />
        <dc:title></dc:title>
      </cc:Work>
    </rdf:RDF>
  </metadata>
  <g
     inkscape:label="Layer 1"
     inkscape:groupmode="layer"
     id="layer1">
    <g
       transform="matrix(0.35277777,0,0,-0.35277777,-70.777455,287.43463)"
       inkscape:label="1"
       id="g37">
      <g
         id="g39">
        <g
           id="g5136"
           transform="matrix(0.75000002,0,0,-0.75000002,342.50983,505.50165)"
           style="fill:#ffeeaa">
          <path
             style="fill:#ffeeaa;stroke-width:0.54000002"
             d="m 158.25714,450.34278 c -4.41138,-1.62321 -7.78832,-4.77643 -9.70044,-9.05789 -0.36477,-0.81672 -1.06893,-1.48497 -1.56482,-1.48497 -0.49585,0 -6.21531,1.18897 -12.70993,2.64216 -6.49458,1.45313 -12.08341,2.53654 -12.41959,2.40753 -0.8395,-0.32213 1.32731,-8.91724 2.43016,-9.6397 0.45336,-0.29696 1.43182,-0.70027 2.1743,-0.89608 1.07239,-0.28288 14.78108,-4.30649 21.58688,-6.33596 1.49906,-0.44697 1.46471,0.29511 0.52779,-11.39797 -1.02655,-12.8121 -0.50809,-36.41528 1.13276,-51.57 1.33098,-12.29254 2.73896,-21.17562 5.17827,-32.67001 9.13205,-43.03181 26.44033,-79.81014 51.96957,-110.43001 9.03847,-10.84076 25.37653,-27.20468 25.82334,-25.86416 0.0955,0.28654 -1.42623,2.94282 -3.38174,5.90265 -7.06869,10.69911 -11.97641,19.3645 -19.59454,34.59738 -24.42444,48.83803 -37.32949,101.36577 -37.33224,151.95416 -8.1e-4,15.12086 1.82844,39.08444 3.24612,42.52502 0.58053,1.40879 1.4459,1.48353 7.12878,0.61537 4.48112,-0.6845 3.58241,-0.29054 15.53501,-6.81016 1.63351,-0.891 4.30653,-2.349 5.94001,-3.24001 1.63351,-0.89099 4.36726,-2.3828 6.07501,-3.31513 1.70776,-0.93229 4.50225,-2.45584 6.20999,-3.38567 1.70776,-0.92982 3.76579,-2.07132 4.57339,-2.53667 0.80761,-0.4653 1.63076,-0.68361 1.8292,-0.48517 1.16606,1.16606 -19.01459,22.12591 -27.0576,28.10225 -5.82762,4.33019 -15.40958,9.22432 -20.24999,10.343 -4.38392,1.01321 -14.62954,1.03087 -17.34969,0.0306 z m -93.528055,-6.62789 c -1.32636,-1.41072 -3.5907,-3.8241 -5.03189,-5.36298 -1.44121,-1.53889 -7.60188,-6.58169 -13.69036,-11.20607 -6.08852,-4.62447 -12.34811,-9.39574 -13.91025,-10.60283 l -2.84026,-2.1947 2.06731,-3.87921 c 2.05173,-3.85004 2.06186,-3.89949 1.34788,-6.5792 -3.77659,-14.17412 -5.53257,-37.0591 -3.93343,-51.26343 1.00167,-8.8971 1.68204,-14.04828 2.14452,-16.23657 0.25104,-1.18802 0.75547,-3.61802 1.12088,-5.4 0.64529,-3.14683 1.65497,-7.20462 2.75457,-11.06999 0.29574,-1.03951 0.66718,-2.56121 0.82548,-3.38158 0.15828,-0.82044 0.50281,-1.62448 0.76557,-1.78693 0.26267,-0.16226 0.47774,-0.77022 0.47774,-1.35069 0,-0.58052 0.22409,-1.47742 0.49806,-1.99316 0.274,-0.5157 1.27811,-3.00314 2.23147,-5.52764 1.76297,-4.66836 8.51304,-18.80274 11.08897,-23.22003 0.77941,-1.33649 3.44884,-5.48762 5.93214,-9.22473 17.76286,-26.7313 43.443985,-49.54288 77.710685,-69.02736 11.01981,-6.26605 12.65948,-6.60535 5.45048,-1.12788 -9.62255,7.31126 -26.21568,23.35287 -34.45457,33.30934 -40.572845,49.03132 -57.083835,105.17332 -49.294085,167.61365 0.42906,3.4391 0.91653,6.60852 1.08329,7.04306 0.16684,0.43455 2.47628,2.20021 5.13227,3.92373 l 4.82909,3.13373 3.30026,10.24365 c 1.81515,5.63402 3.16012,10.609 2.9888,11.05542 -0.5662,1.47554 -4.88035,6.67742 -5.53785,6.67742 -0.35488,0 -1.7304,-1.15425 -3.05677,-2.56502 z M 266.86682,391.7399 c 0,-0.29697 0.18216,-0.5469 0.405,-0.55535 0.22287,-0.009 1.4985,-0.99952 2.83502,-2.20253 1.33649,-1.20296 3.61532,-3.20081 5.06405,-4.43966 1.44872,-1.23887 7.28072,-6.27744 12.95999,-11.19696 l 10.32594,-8.94445 0.62432,-11.03556 c 0.78231,-13.82854 0.91157,-74.59508 0.18124,-85.20543 -1.17329,-17.04575 -2.45379,-29.37686 -3.75902,-36.19877 -0.57733,-3.01746 -0.70441,-5.87459 -0.19471,-4.38128 0.15185,0.44549 0.75124,1.86333 1.33165,3.15077 1.4741,3.26985 8.16986,23.44388 10.15589,30.5992 0.90679,3.26703 1.86425,6.66903 2.12771,7.56003 1.76258,5.9609 5.3127,23.02475 6.51608,31.31997 0.34469,2.37604 0.74245,5.04902 0.88395,5.94001 1.81503,11.43106 2.37719,34.42151 1.1067,45.25929 -0.78007,6.65448 -1.06256,6.124 4.04071,7.58886 1.66889,0.47902 3.27005,1.17718 3.5581,1.5514 0.28807,0.3743 1.3278,2.74598 2.31054,5.27048 0.98271,2.52447 2.09009,4.92058 2.46077,5.32454 0.56241,0.61302 3.14839,-0.0872 15.62422,-4.23085 8.22266,-2.731 15.09585,-4.81986 15.27375,-4.64194 0.17787,0.17786 -2.33268,3.05401 -5.57913,6.39132 -3.24642,3.33738 -9.26734,9.54058 -13.37977,13.78498 l -7.47715,7.71707 -1.97284,-1.1847 c -3.7296,-2.23958 -11.15445,-6.57795 -12.50285,-7.30544 -1.70978,-0.92244 -2.13858,-0.91551 -6.44548,0.10439 -1.94948,0.46164 -5.54925,1.31217 -7.99951,1.89 -2.45024,0.57791 -6.45975,1.52475 -8.91001,2.10411 -5.10219,1.20642 -11.37973,2.66096 -18.76499,4.34799 -2.8215,0.64452 -5.83452,1.39389 -6.69557,1.66525 -2.06573,0.65102 -4.10445,0.62784 -4.10445,-0.0466 z M -9.883165,379.80619 c -6.237,-4.15829 -12.67651,-8.36683 -14.31002,-9.35245 -1.63347,-0.98554 -6.25049,-3.78841 -10.26,-6.22852 -4.00947,-2.44013 -8.50498,-5.10932 -9.98999,-5.93146 -1.485,-0.82208 -3.67198,-2.0492 -4.86,-2.72678 -8.15932,-4.65399 -19.56343,-9.61064 -26.05498,-11.32452 -1.26226,-0.33326 -2.28749,-0.77839 -2.2783,-0.9892 0.0214,-0.49071 4.00173,-3.46626 6.47274,-4.83878 3.76481,-2.09123 8.34421,-3.37457 12.04152,-3.37457 1.98495,0 3.60903,-0.14451 3.60903,-0.32142 0,-0.17664 -1.33649,-2.5048 -2.97001,-5.1734 -1.63351,-2.66864 -2.97,-4.93479 -2.97,-5.036 0,-0.10133 -1.22774,-2.30991 -2.72833,-4.90828 -2.70671,-4.68676 -14.57948,-28.29179 -17.35817,-34.51093 -0.79622,-1.78199 -2.05122,-4.5807 -2.78892,-6.21932 -0.73768,-1.63863 -1.86496,-4.31165 -2.50505,-5.94002 -0.64008,-1.62836 -1.5341,-3.81115 -1.9867,-4.85066 -0.45263,-1.03947 -1.00864,-2.376 -1.23562,-2.96997 -0.22716,-0.594 -0.66505,-1.68751 -0.97349,-2.43 -0.30844,-0.74252 -1.3361,-3.4155 -2.2837,-5.94 -0.9476,-2.52452 -1.9327,-5.07602 -2.18912,-5.67003 -0.57968,-1.34289 -6.435705,-19.17806 -7.978695,-24.3 -1.78714,-5.93239 -4.58727,-16.5383 -5.56018,-21.05997 -0.31952,-1.48501 -0.8009,-3.67203 -1.06972,-4.86 -1.41936,-6.27252 -3.4208,-17.68771 -4.30785,-24.57003 -2.90019,-22.50123 -2.67956,-45.52003 0.60941,-63.58499 1.96234,-10.77827 5.23007,-23.15099 7.5588,-28.61999 0.47886,-1.124617 0.76418,-1.827584 2.08228,-5.130027 0.71024,-1.779505 1.92101,-4.596928 3.42284,-7.964981 0.72841,-1.633511 1.78739,-4.059955 2.35328,-5.392105 1.616095,-3.804206 11.755085,-24.141605 14.272145,-28.627927 1.24973,-2.227484 3.0005,-5.352642 3.89057,-6.944795 0.89005,-1.592119 2.83828,-4.872646 4.32934,-7.290001 1.49109,-2.417356 3.16122,-5.186285 3.71141,-6.153174 1.2842,-2.256781 10.47425,-16.01469701 12.35233,-18.492028 0.78808,-1.039512 2.50682,-3.348002 3.81939,-5.1299817 5.1122,-6.9403003 12.14052,-15.5139503 19.65663,-23.9785603 5.08248,-5.72383 19.47246,-19.69283 26.47713,-25.70253 40.70907,-34.92645 88.49615,-56.00927 144.377945,-63.69691 5.3907,-0.74159 22.27857,-2.44384 24.30456,-2.4498 1.1034,-0.004 0.50654,2.21366 -2.35539,8.74855 l -2.48054,5.66404 -3.89327,0.68438 c -9.0547,1.59166 -23.32935,7.46875 -34.15051,14.06029 -8.64496,5.26598 -21.23224,14.75251 -29.412784,22.16726 -2.427003,2.19982 -2.428002,2.20224 -0.810018,1.96134 0.891,-0.13257 4.536009,-1.2705 8.100022,-2.52852 9.44973,-3.3356 15.12377,-4.8304 19.7856,-5.2124 3.81162,-0.31233 4.17149,-0.25225 4.72839,0.78822 0.89761,1.67717 3.1551,11.48806 4.09259,17.78607 0.97721,6.56469 1.14333,29.82326 0.24462,34.26697 -1.7369,8.58942 -2.93162,9.79375 -7.98403,8.04812 -5.70263,-1.97026 -9.00657,-2.46094 -11.55147,-1.71552 -5.41025,1.58474 -10.42503,6.21755 -11.839133,10.9373103 -0.575856,1.9220797 -0.527634,2.4282597 0.39348,4.1309297 1.056503,1.952878 4.444413,4.647865 6.449793,5.130625 4.11798,0.991341 8.16021,2.161359 8.4857,2.456172 0.21216,0.192258 0.0401,1.352628 -0.38243,2.578842 -1.68382,4.887315 -3.02967,11.038189 -3.87885,17.727452 -0.76575,6.031845 -0.7978,7.889856 -0.22624,13.112323 1.56087,14.261581 6.02218,22.993024 15.96168,31.239496 10.4984,8.710222 20.07693,14.432597 31.8801,19.04569 3.26699,1.27689 6.42601,2.51713 7.01999,2.75613 1.72954,0.69587 8.19997,2.56961 14.04002,4.06578 5.56018,1.42451 6.67931,1.67659 14.04,3.16266 9.39822,1.89747 14.38741,2.83947 19.305,3.64502 3.12597,0.51205 4.18498,0.89739 4.18498,1.52284 0,1.61618 -9.246,28.55751 -9.88443,28.80166 -1.92079,0.73455 -45.98249,-2.04898 -58.26049,-3.6805 -13.32591,-1.77081 -21.27703,-3.43038 -25.10365,-5.23968 -0.64819,-0.30647 -1.49872,-0.43269 -1.89,-0.28042 -0.39127,0.15215 -2.03476,2.61451 -3.6522,5.47176 -1.61741,2.85722 -3.19692,5.19443 -3.50999,5.19376 -1.12365,-0.002 -35.321895,-13.30235 -36.307355,-14.12021 -0.62684,-0.52022 -0.57016,-0.80981 0.35013,-1.78943 0.60389,-0.64281 1.098,-1.35859 1.098,-1.59059 0,-0.23205 0.49598,-1.11836 1.10218,-1.96968 2.31437,-3.25028 4.37424,-9.25721 4.43345,-12.92889 0.0659,-4.0782 -0.87648,-6.30278 -3.51007,-8.28655 -3.79382,-2.85775 -10.57099,-3.91773 -14.15992,-2.21466 -3.21592,1.52605 -4.60019,7.21199 -3.3306,13.68065 0.45241,2.30515 0.43043,2.36158 -0.81002,2.08051 -0.70125,-0.15889 -4.06951,-1.30839 -7.48501,-2.55439 -11.36649,-4.14648 -18.41807,-5.9844 -24.3,-6.33352 -4.13702,-0.24552 -4.73656,-0.15613 -6.07502,0.90698 -0.84359,0.66999 -1.485,1.71298 -1.485,2.41484 0,1.47909 2.18573,4.82813 4.52147,6.92799 3.08578,2.77413 11.96335,7.41818 14.18054,7.41818 0.40588,0 0.73799,0.21889 0.73799,0.48612 0,0.45563 -1.13006,0.76787 -8.235,2.2754 -8.7032,1.84665 -15.85018,5.21742 -18.07188,8.52332 -1.54394,2.29735 -1.54517,3.20834 -0.006,5.51028 2.43474,3.64461 7.28556,4.62182 14.16423,2.85345 6.16012,-1.58363 6.14503,-1.59787 1.89,1.78594 -5.16514,4.10757 -9.60658,8.96494 -10.93358,11.95747 -0.87918,1.98264 -0.93768,2.58546 -0.38115,3.929 1.03283,2.49348 3.51855,3.95311 6.70059,3.93456 3.33455,-0.0184 5.94803,-1.30894 10.18056,-5.02318 1.72504,-1.51381 3.22192,-2.75236 3.32641,-2.75236 0.10439,0 -0.64933,2.34826 -1.67514,5.21837 -1.20838,3.38094 -1.97357,6.66088 -2.17309,9.315 -0.27552,3.6644 -0.18338,4.25329 0.8729,5.58161 0.97258,1.22303 1.60736,1.485 3.59851,1.485 2.99168,0 4.69521,-0.86963 7.58436,-3.87168 2.24773,-2.33556 5.13549,-7.47699 5.80007,-10.32644 0.19348,-0.82946 0.70972,-1.64548 1.14727,-1.8134 0.43753,-0.16776 9.60354,1.44505 20.36889,3.58434 22.963455,4.56326 23.623395,4.7178 23.623395,5.5325 0,0.343 -0.63549,2.66273 -1.412233,5.15493 -0.789417,2.53303 -1.206162,4.73097 -0.944991,4.98402 0.427986,0.41471 8.522584,1.14877 21.932234,1.98897 3.89492,0.244 5.265,0.51947 5.265,1.05834 0,0.40064 -0.3037,0.73021 -0.67502,0.73241 -1.07844,0.006 -17.81907,8.57488 -25.78497,13.1978 -36.692125,21.29373 -66.635455,48.08688 -85.727125,76.70822 -5.31797991,7.97248 -6.27105991,9.60517 -10.5601399,18.09001 -10.3002301,20.37642 -15.2214901,39.51007 -15.8902301,61.78054 l -0.3066,10.21049 4.54718,4.36951 c 8.6704901,8.33161 13.8908501,14.66884 17.00464009,20.64273 1.78168991,3.41817 2.25448991,5.0845 1.42727001,5.03013 -0.22287,-0.0153 -5.50801,-3.42891 -11.7450001,-7.58711 z M 397.42186,345.29991 c -0.2639,-0.70612 -0.75379,-2.87394 -2.5629,-11.34001 -0.22195,-1.0395 -1.05481,-4.31999 -1.8504,-7.29 -10.08936,-37.66407 -25.83256,-71.67908 -43.36254,-93.68999 -7.01242,-8.80491 -17.63618,-19.01636 -24.72918,-23.76946 -1.48501,-0.99512 -2.8215,-1.97113 -2.97,-2.16896 -0.14848,-0.19776 -0.63452,-0.51937 -1.08001,-0.71456 -2.23004,-0.97702 4.2047,0.38004 8.47573,1.78753 21.6,7.11816 39.5757,20.6387 51.95212,39.07609 14.27383,21.26399 20.88848,51.23165 18.37753,83.25934 -0.67515,8.61183 -1.80222,16.04929 -2.25035,14.85002 z m 78.94446,-49.27501 c -0.80947,-3.43418 -2.35047,-6.91807 -4.41132,-9.97303 -1.92823,-2.85844 -4.37966,-3.63687 -9.83514,-3.12304 -3.60935,0.33996 -5.14066,0.63879 -10.30302,2.01052 -2.53175,0.67275 -11.39578,3.51959 -12.96001,4.16231 -4.9303,2.02583 -5.12999,2.05026 -5.12999,0.62695 0,-2.14559 -3.39704,-11.31452 -5.99471,-16.18028 -6.53638,-12.24336 -16.21535,-24.4475 -31.53217,-39.75844 -14.594,-14.58838 -31.09996,-28.73186 -48.69671,-41.72674 -3.91246,-2.88928 -7.13222,-5.50511 -7.155,-5.81294 -0.0215,-0.30782 2.20633,-1.94678 4.95358,-3.64216 2.74727,-1.69539 8.39702,-5.25284 12.555,-7.90547 4.15798,-2.65262 9.10897,-5.75026 11.00215,-6.88362 1.89319,-1.1334 3.55443,-2.35335 3.69168,-2.71098 0.13715,-0.35767 -1.10333,-2.90701 -2.75687,-5.66518 -2.39856,-4.00098 -2.87047,-5.15081 -2.33415,-5.68714 0.36973,-0.36973 3.70634,-1.91764 7.41473,-3.43981 14.36481,-5.89625 15.99042,-6.57256 18.12598,-7.54067 1.21192,-0.5494 3.52041,-1.51656 5.12998,-2.14924 3.5683,-1.40258 6.39276,-2.61135 7.64418,-3.27146 1.53343,-0.80885 2.31832,-0.59345 5.35307,1.469 6.33178,4.30315 11.87258,5.84103 15.25746,4.23476 2.19622,-1.04217 2.78345,-2.4751 2.28685,-5.58056 -0.40833,-2.55363 -1.28326,-4.30727 -4.34057,-8.69978 -1.33677,-1.92062 -2.33512,-3.58737 -2.21857,-3.70392 0.11664,-0.11664 0.92699,0.29726 1.80099,0.91958 4.87711,3.47284 10.95146,4.44852 13.40824,2.15362 3.46234,-3.23409 3.67325,-5.89957 0.73143,-9.24169 -2.81343,-3.19621 -10.00856,-6.63709 -17.16582,-8.20909 -2.10925,-0.46326 -1.91859,-0.89335 1.09155,-2.46221 3.68349,-1.91985 6.13293,-4.12655 8.47718,-7.63704 2.98967,-4.47708 2.81853,-6.93788 -0.48247,-6.93684 -2.05011,5.5e-4 -8.3818,1.40321 -13.10015,2.90186 -7.64975,2.42973 -8.33262,2.39219 -6.78792,-0.37279 2.05944,-3.68635 3.11867,-11.62258 2.20407,-16.514114 -1.01789,-5.444026 -4.30133,-4.040766 -14.74302,6.300794 l -7.29,7.22011 -0.38191,-3.36631 c -0.63466,-5.59375 -3.99314,-8.766975 -9.33809,-8.822938 -5.63758,-0.05905 -7.90774,2.992878 -6.52802,8.775918 1.32596,5.55767 5.55789,14.59577 9.57909,20.45802 1.86507,2.71899 2.5722,2.16072 -7.95286,6.27905 -4.13504,1.61796 -12.33075,4.83086 -18.21275,7.13972 l -10.69453,4.19797 -3.09112,-3.05885 c -1.70012,-1.68237 -3.3975,-3.05887 -3.77197,-3.05887 -0.37447,0 -1.59014,0.46389 -2.70146,1.03084 -4.18768,2.13638 -16.21702,5.75553 -25.36898,7.63248 -14.2419,2.92087 -38.69449,5.91968 -50.03094,6.13572 l -2.67354,0.0508 -2.05145,-8.63999 c -1.12832,-4.75199 -3.02346,-12.70321 -4.21147,-17.66931 -2.77931,-11.61827 -2.77983,-11.57158 0.135,-12.0145 22.80126,-3.46491 44.40621,-11.14047 58.9528,-20.943985 14.67362,-9.889177 26.33331,-24.768764 28.94255,-36.935296 l 0.57346,-2.673842 3.35309,-0.698706 c 12.42221,-2.58846 21.48852,-7.444726 26.60445,-14.25047 2.65009,-3.525411 3.20796,-5.54803 2.79287,-10.12579 C 373.61716,6.419037 369.98819,0.99040799 363.66113,-3.09916 358.9422,-6.1492697 358.1307,-6.5447797 352.9852,-8.30246 l -4.30836,-1.47175 -0.16654,-2.29325 c -0.18278,-2.51719 1.51084,-7.99391 3.29127,-10.64286 0.59887,-0.891 2.75304,-3.20322 4.78705,-5.13831 4.77497,-4.54268 4.85356,-5.76002 0.59645,-9.23976 -1.07,-0.87461 -1.06914,-0.89801 0.2146,-5.94 3.83302,-15.05428 3.9124,-30.09753 0.22624,-42.86193 -2.46689,-8.54219 -9.38028,-19.95735 -15.62361,-25.79725 -2.5387,-2.37464 -2.63357,-2.55276 -1.36018,-2.55276 0.75289,0 4.81272,0.98688 9.02188,2.19308 43.65935,12.51134 78.17028,29.86155 107.28292,53.93608 10.01225,8.27951 22.95491,21.48987 30.98017,31.62086 1.41162,1.78199 2.91823,3.67055 3.34803,4.19677 1.27795,1.56473 11.35115,16.68439 12.67389,19.02322 3.73015,6.595517 5.13328,9.243002 8.01369,15.120011 5.78525,11.804021 7.63848,16.363578 11.74231,28.890009 3.56848,10.892313 3.59879,10.994713 5.03799,17.01 2.02218,8.451808 3.04424,13.17576 3.76783,17.415 2.3326,13.66543 3.16852,20.60762 4.34033,36.045 1.45853,19.21484 0.0771,50.45109 -3.22361,72.9 -0.26205,1.78199 -0.74459,5.18399 -1.07238,7.55999 -0.32776,2.37603 -0.82824,5.59574 -1.11212,7.15502 -0.2838,1.55924 -0.74454,4.11075 -1.02374,5.66999 -1.16738,6.51966 -2.05408,10.96425 -3.20516,16.065 -0.76259,3.3795 -2.77192,11.92548 -3.1106,13.23001 -0.1543,0.59401 -0.48537,1.9305 -0.73582,2.97001 -1.1232,4.6618 -3.25284,12.35094 -4.86083,17.55 -0.64296,2.07898 -1.36251,4.50898 -1.59897,5.4 -0.5547,2.09 -4.2396,13.16985 -4.84898,14.58 -0.25686,0.59397 -1.01257,2.49671 -1.67968,4.22827 -1.3109,3.40262 -1.32985,2.94026 0.6635,16.19199 0.30461,2.02415 0.4147,3.81915 0.24491,3.98891 -0.1699,0.16991 -3.29267,-1.66779 -6.93976,-4.08341 -3.6471,-2.41564 -7.91512,-5.14444 -9.4844,-6.06403 -3.08777,-1.80932 -3.39767,-1.76353 -6.33667,0.93679 -2.41331,2.2174 -10.98705,9.37147 -11.23108,9.37147 -0.14359,0 -0.56192,-1.27576 -0.92945,-2.835 z M 303.58684,179.19585 c -21.51346,-3.73107 -56.02559,-6.14894 -87.84036,-6.154 -13.46105,-0.002 -41.04929,0.84189 -52.01963,1.59145 -3.71252,0.2538 -6.81512,0.39958 -6.89465,0.32427 -0.34729,-0.32883 6.53,-3.5878 11.35458,-5.38069 23.84287,-8.8603 54.8325,-10.28018 90.22701,-4.13404 6.98882,1.21357 6.7729,1.17019 13.85304,2.78377 15.18206,3.46005 37.41373,10.03777 38.34,11.34372 0.14848,0.20939 0.87749,0.49359 1.62001,0.63157 l 1.34999,0.25103 -1.34999,0.003 c -0.74252,0.002 -4.63052,-0.56526 -8.64,-1.26063 z M 192.88685,72.315379 c -2.52451,-0.368784 -5.805,-0.944298 -7.29,-1.278909 -1.48501,-0.334611 -3.49568,-0.759966 -4.46814,-0.945278 -0.97246,-0.185214 -1.89805,-0.54713 -2.05684,-0.804111 -0.15889,-0.256851 -0.75434,-0.4672 -1.3234,-0.4672 -1.04957,0 -6.57213,-2.326158 -10.51165,-4.427606 -10.80095,-5.761586 -19.59583,-16.428727 -23.75126,-28.807601 -1.56029,-4.648031 -4.05871,-15.416902 -4.05871,-17.494163 0,-2.445706 1.22575,-3.547055 3.88622,-3.4917 1.77991,0.03702 3.86146,0.847398 8.54831,3.327975 5.16378,2.733021 12.50678,5.551821 21.31545,8.182555 3.79772,1.134196 17.18514,4.195186 23.76,5.432607 1.78202,0.33538 4.33349,0.82172 5.67002,1.080775 1.33649,0.258997 4.374,0.743555 6.75,1.076733 2.37599,0.333145 5.53498,0.820457 7.01998,1.082913 7.0449,1.245075 29.2639,2.729838 40.73837,2.722272 9.98505,-0.0065 24.35214,-1.357706 28.65162,-2.694505 8.5965,-2.67283 13.09285,-3.790249 15.25156,-3.790249 2.5917,0 3.09175,0.792447 2.55551,4.049975 -0.63751,3.872732 -1.64247,5.527392 -5.81371,9.57211 -5.83513,5.658166 -16.87433,11.844525 -30.48836,17.085646 -0.66825,0.257159 -1.82249,0.738688 -2.56498,1.069808 -3.06534,1.367045 -19.40663,6.521739 -22.41,7.068999 -5.30856,0.967319 -13.67039,2.124744 -19.63223,2.717469 -7.33265,0.729017 -23.9764,0.57894 -29.77776,-0.26849 z M 279.30071,-2.31913 c -2.31603,-2.11003 -2.56216,-4.1705697 -0.85539,-7.16099 4.90841,-8.6001 6.51396,-15.86412 6.0275,-27.27001 -0.16471,-3.861 -0.45519,-7.68826 -0.64565,-8.50501 -1.19065,-5.10654 3.80102,4.05534 5.66353,10.395 0.30553,1.03951 0.81633,2.74049 1.13541,3.78 1.1257,3.66733 1.30322,12.91297 0.32116,16.7267 -1.39497,5.41715 -5.10783,10.9903 -8.48537,12.736899 -1.4377,0.74347199 -1.6179,0.70339499 -3.16119,-0.702589 z m -65.88902,-11.10049 c -5.66738,-1.86327 -9.18486,-6.28656 -9.18486,-11.55014 0,-4.55551 3.58467,-11.28093 9.08886,-17.05213 3.45848,-3.62631 4.31267,-4.1488 9.54761,-5.84002 2.57734,-0.83268 5.16332,-1.22181 8.35374,-1.25711 4.19078,-0.0465 4.95782,0.1148 8.24122,1.73077 3.96591,1.952 6.37945,4.48191 8.71478,9.13518 0.77758,1.54935 1.4138,2.9742 1.4138,3.16627 0,0.36535 -0.57346,0.27951 -6.75,-1.00975 -5.67164,-1.1839 -12.55411,-2.00357 -16.82319,-2.00357 -6.22895,0 -9.07906,2.7284 -9.02545,8.63999 0.0352,3.88617 1.20754,6.01584 4.36885,7.93667 2.49386,1.51528 3.30618,1.91911 9.00011,4.47413 l 2.64029,1.1848 -1.56032,1.02901 c -4.22494,2.78625 -11.9998,3.39698 -18.02544,1.4159 z m 108.82402,-8.53998 c 0.21521,-0.6777 1.71424,-4.28279 3.33144,-8.01136 8.39906,-19.36444 14.51761,-35.94759 17.24506,-46.73918 0.75062,-2.97 1.55618,-5.59955 1.79016,-5.84345 0.23388,-0.24399 0.9869,1.57859 1.67322,4.04998 1.01728,3.66336 1.25456,5.89007 1.28453,12.05347 0.0215,4.60625 -0.2596,8.93139 -0.72175,11.07 -1.23869,5.73232 -6.27576,16.58226 -9.23153,19.88494 -0.4455,0.49779 -1.90092,2.22327 -3.23426,3.8344 -2.36173,2.85373 -9.53482,9.32076 -11.53184,10.3967 -0.86978,0.46861 -0.94649,0.3804 -0.60503,-0.6955 z m -60.60639,-7.32524 c -1.40467,-1.84321 -1.51249,-2.34088 -1.51249,-6.98107 0,-5.45863 0.71337,-7.16693 3.69746,-8.85423 1.27336,-0.71998 1.59172,-0.71998 2.86508,0 2.69261,1.52248 3.66167,3.4869 3.88307,7.87137 0.32023,6.34102 -1.63152,9.94862 -5.38224,9.94862 -1.71378,0 -2.27926,-0.31606 -3.55088,-1.98469 z m -95.78477,-1.40313 c -6.28806,-4.23753 -5.4555,-10.33265 2.39081,-17.50378 3.03742,-2.77599 6.90026,-5.48936 11.15146,-7.83309 3.13591,-1.72888 8.5938,-3.7676 9.156,-3.42012 0.24002,0.14847 -2.15007,2.88538 -5.31141,6.08229 -8.4256,8.52039 -14.10459,17.59539 -14.10459,22.53905 0,1.69691 -0.9097,1.73451 -3.28227,0.13561 z m 27.14479,-5.80601 c -4.49762,-2.74211 -4.42264,-11.26035 0.1243,-14.1195 1.20368,-0.75688 2.30865,-0.98011 3.99928,-0.80797 3.18838,0.32469 5.26292,2.37502 6.07511,6.00423 0.55742,2.4909 0.49812,3.06852 -0.56979,5.551 -1.83468,4.26476 -5.85533,5.67289 -9.62886,3.37224 z m -51.83956,-23.94527 c -2.15092,-14.87665 1.63991,-27.21616 10.24317,-33.3422 1.39518,-0.99346 1.57038,-1.01192 1.88256,-0.19838 0.57805,1.50639 -0.19318,10.46763 -1.41322,16.41789 -1.35079,6.58868 -3.50799,12.44981 -6.34405,17.23679 -3.09528,5.22454 -3.59845,5.21142 -4.36846,-0.11419 z m 117.99655,-6.51382 c -2.4232,-3.83564 -7.97827,-8.68193 -11.43357,-9.97473 -4.77823,-1.78774 -10.33957,-1.32226 -15.38721,1.288 -3.11355,1.61006 -3.04929,0.47268 0.15063,-2.66803 4.66144,-4.57505 8.93854,-6.41043 15.56899,-6.68089 5.84085,-0.23819 8.02214,0.26236 11.96984,2.74801 5.0892,3.20417 6.5607,7.84501 4.12828,13.01978 -0.9025,1.91997 -2.88847,4.66395 -3.3726,4.65981 -0.0628,-5.2e-4 -0.7937,-1.07688 -1.62448,-2.39195 z m -84.06609,-0.17205 c 0.0377,-1.14221 4.13346,-5.79144 6.32804,-7.18318 3.05863,-1.93974 6.30195,-2.10283 9.64405,-0.48494 2.41037,1.16684 6.93349,5.62958 6.46843,6.38208 -0.15031,0.24308 -2.53011,0.0952 -5.28856,-0.32833 -5.46357,-0.83916 -12.11293,-0.28624 -15.09325,1.25485 -1.6772,0.86729 -2.07782,0.93728 -2.05871,0.35952 z m 26.23438,-17.18914 c -0.61296,-1.59727 -0.31799,-9.1245 0.47437,-12.10582 1.52018,-5.71994 4.38217,-10.54475 9.09412,-15.3312 2.42756,-2.4659 5.87171,-5.45409 7.65373,-6.64036 4.06841,-2.70834 11.84065,-6.59509 16.59591,-8.29926 9.41493,-3.37411 0.90324,-3.45847 -20.64592,-0.2048 l -2.43,0.36691 2.97001,-2.26312 c 4.46452,-3.402 11.01828,-6.79776 16.74757,-8.67756 8.75391,-2.87222 18.44442,-2.22753 25.04368,1.66614 1.8622,1.09871 1.88222,1.09899 3.93524,0.0545 4.87974,-2.4829 9.87233,-3.55201 16.64352,-3.56403 6.55493,-0.0122 8.46103,0.3493 13.2267,2.5046 3.01803,1.3649 7.02329,4.08748 7.02329,4.77407 0,0.28655 -2.20961,0.52451 -4.99501,0.5377 -5.45346,0.0245 -10.39498,1.28518 -10.39498,2.6492 0,0.47516 1.37966,1.27484 3.50997,2.03449 10.49883,3.74378 21.93105,10.76829 28.09491,17.26282 3.97163,4.18471 7.09499,8.80984 5.94928,8.80984 -0.32173,0 -5.13654,-2.26018 -10.69956,-5.02266 -19.84301,-9.8535 -34.90963,-14.92334 -44.40461,-14.94185 -9.60792,-0.0184 -25.35371,5.68646 -37.26002,13.50054 -8.67376,5.69259 -16.017,12.29977 -21.7379,19.559 -1.81395,2.30173 -3.471,4.18499 -3.68233,4.18499 -0.21124,0 -0.53171,-0.38437 -0.71197,-0.85418 z m -28.82572,-2.92583 c -2.64537,-14.99966 0.0456,-27.15701 7.70865,-34.82656 3.93389,-3.93721 9.53016,-6.83413 15.61421,-8.0827 2.35119,-0.48251 4.56338,-0.76661 4.91596,-0.63129 0.35276,0.13531 -2.07717,2.99936 -5.4031,6.36826 -12.72444,12.88891 -18.44819,23.02376 -21.75575,38.52228 l -0.46095,2.15998 z m -100.800565,-30.202 c 1.67778,-3.20869 6.86777,-8.98281 10.413623,-11.5857 10.975762,-8.05696 27.596812,-10.08916 46.524882,-5.68843 6.30836,1.46666 18.38868,5.41283 18.08321,5.90707 -0.3307,0.5351 -4.3484,1.09568 -13.49323,1.8827 -6.42353,0.55287 -25.58264,2.97357 -32.39999,4.09367 -13.309544,2.18681 -23.664575,4.81974 -28.219785,7.17532 -0.93312,0.48255 -1.8325,0.87735 -1.99858,0.87735 -0.16623,0 0.32433,-1.19787 1.08987,-2.66198 z m 235.948485,-19.25364 c -17.26384,-10.88505 -43.30861,-14.53402 -74.51998,-10.44048 -13.16434,1.72659 -28.43484,4.82094 -38.74499,7.85113 -3.78431,1.11221 4.16154,-4.25457 12.38757,-8.36686 6.94675,-3.47277 17.06633,-7.17626 23.92742,-8.75683 7.66034,-1.76471 12.1343,-2.251 20.79,-2.25982 8.71662,-0.009 11.11239,0.25225 20.52,2.23575 9.96008,2.10011 25.04669,9.52575 33.47817,16.47796 5.42466,4.47291 6.38639,5.9228 2.16181,3.25915 z"
             id="path6295"
             inkscape:connector-curvature="0" />
        </g>
      </g>
    </g>
  </g>
</svg>
