<?xml version="1.0" encoding="UTF-8" standalone="no"?>
<!-- Created with Inkscape (http://www.inkscape.org/) -->

<svg
   xmlns:dc="http://purl.org/dc/elements/1.1/"
   xmlns:cc="http://creativecommons.org/ns#"
   xmlns:rdf="http://www.w3.org/1999/02/22-rdf-syntax-ns#"
   xmlns:svg="http://www.w3.org/2000/svg"
   xmlns="http://www.w3.org/2000/svg"
   xmlns:sodipodi="http://sodipodi.sourceforge.net/DTD/sodipodi-0.dtd"
   xmlns:inkscape="http://www.inkscape.org/namespaces/inkscape"
   width="210mm"
   height="297mm"
   viewBox="0 0 210 297"
   version="1.1"
   id="svg8"
   inkscape:version="0.92.2 5c3e80d, 2017-08-06"
   sodipodi:docname="minion2.svg">
  <defs
     id="defs2">
    <clipPath
       id="clipPath45"
       clipPathUnits="userSpaceOnUse">
      <path
         inkscape:connector-curvature="0"
         id="path43"
         d="M 0,864 H 864 V 0 H 0 Z" />
    </clipPath>
    <clipPath
       id="clipPath3854"
       clipPathUnits="userSpaceOnUse">
      <path
         inkscape:connector-curvature="0"
         id="path3852"
         d="M 0,864 H 864 V 0 H 0 Z" />
    </clipPath>
    <clipPath
       id="clipPath4053"
       clipPathUnits="userSpaceOnUse">
      <path
         inkscape:connector-curvature="0"
         id="path4051"
         d="M 0,864 H 864 V 0 H 0 Z" />
    </clipPath>
    <clipPath
       id="clipPath4150"
       clipPathUnits="userSpaceOnUse">
      <path
         inkscape:connector-curvature="0"
         id="path4148"
         d="M 0,864 H 864 V 0 H 0 Z" />
    </clipPath>
    <clipPath
       id="clipPath4295"
       clipPathUnits="userSpaceOnUse">
      <path
         inkscape:connector-curvature="0"
         id="path4293"
         d="M 0,864 H 864 V 0 H 0 Z" />
    </clipPath>
    <clipPath
       id="clipPath4410"
       clipPathUnits="userSpaceOnUse">
      <path
         inkscape:connector-curvature="0"
         id="path4408"
         d="M 0,864 H 864 V 0 H 0 Z" />
    </clipPath>
    <clipPath
       id="clipPath4615"
       clipPathUnits="userSpaceOnUse">
      <path
         inkscape:connector-curvature="0"
         id="path4613"
         d="M 0,864 H 864 V 0 H 0 Z" />
    </clipPath>
    <clipPath
       id="clipPath4838"
       clipPathUnits="userSpaceOnUse">
      <path
         inkscape:connector-curvature="0"
         id="path4836"
         d="M 0,864 H 864 V 0 H 0 Z" />
    </clipPath>
  </defs>
  <sodipodi:namedview
     id="base"
     pagecolor="#000000"
     bordercolor="#666666"
     borderopacity="1.0"
     inkscape:pageopacity="0"
     inkscape:pageshadow="2"
     inkscape:zoom="0.91846942"
     inkscape:cx="396.85039"
     inkscape:cy="561.25984"
     inkscape:document-units="mm"
     inkscape:current-layer="g39"
     showgrid="false"
     inkscape:window-width="2560"
     inkscape:window-height="1385"
     inkscape:window-x="2560"
     inkscape:window-y="27"
     inkscape:window-maximized="1"
     showguides="true"
     inkscape:guide-bbox="true">
    <sodipodi:guide
       position="105.43356,205.96993"
       orientation="1,0"
       id="guide3815"
       inkscape:locked="false" />
    <sodipodi:guide
       position="92.758485,149.50825"
       orientation="0,1"
       id="guide3817"
       inkscape:locked="false" />
  </sodipodi:namedview>
  <metadata
     id="metadata5">
    <rdf:RDF>
      <cc:Work
         rdf:about="">
        <dc:format>image/svg+xml</dc:format>
        <dc:type
           rdf:resource="http://purl.org/dc/dcmitype/StillImage" />
        <dc:title></dc:title>
      </cc:Work>
    </rdf:RDF>
  </metadata>
  <g
     inkscape:label="Layer 1"
     inkscape:groupmode="layer"
     id="layer1">
    <g
       transform="matrix(0.35277777,0,0,-0.35277777,-70.777455,287.43463)"
       inkscape:label="1"
       id="g37">
      <g
         id="g39">
        <g
           transform="matrix(0.75,0,0,0.75,184.21793,75.179071)"
           inkscape:label="8"
           id="g4830"
           style="fill:#ffeeaa">
          <g
             id="g4832"
             style="fill:#ffeeaa">
            <g
               clip-path="url(#clipPath4838)"
               id="g4834"
               style="fill:#ffeeaa">
              <g
                 transform="translate(319.0845,703.0557)"
                 id="g4840"
                 style="fill:#ffeeaa">
                <path
                   inkscape:connector-curvature="0"
                   id="path4842"
                   style="fill:#ffeeaa;fill-opacity:1;fill-rule:evenodd;stroke:none"
                   d="m 0,0 c 90.091,-4.74 109.286,-82.978 109.286,-82.978 l 20.35,-1.072 c 0,0 -1.603,80.237 90.25,81.225 91.844,0.993 106.768,-103.249 106.768,-103.249 l 65.388,-3.44 c 0,0 -22.253,213.92 -279.848,220.189 -257.594,6.269 -302.025,-201.227 -302.025,-201.227 l 61.034,-3.212 c 0,0 38.701,98.514 128.797,93.764" />
              </g>
              <g
                 transform="translate(224.7842,378.6973)"
                 id="g4844"
                 style="fill:#ffeeaa">
                <path
                   inkscape:connector-curvature="0"
                   id="path4846"
                   style="fill:#ffeeaa;fill-opacity:1;fill-rule:evenodd;stroke:none"
                   d="m 0,0 c 255.372,-76.1 308.065,-16.213 406.687,30.334 1.646,-24.135 -64.665,-121.189 -118.118,-140.236 55.518,2.91 117.395,15.689 192.422,56.914 29.141,55.291 3.133,225.691 3.133,225.691 l -56.676,2.983 c 0,0 -8.021,-97.213 -98.664,-102.644 -90.627,-5.43 -107.601,87.267 -107.601,87.267 l -29.446,-5.733 c 0,0 0.914,-93.313 -98.211,-93.923 -99.114,-0.611 -128.48,105.85 -128.48,105.85 l -63.942,3.361 c 0,0 -20.108,-160.682 4.979,-265.466 88.948,-26.541 202.29,-32.498 202.29,-32.498 0,0 -94.841,80.76 -108.373,128.1" />
              </g>
              <g
                 transform="translate(587.334,557.7998)"
                 id="g4848"
                 style="fill:#ffeeaa">
                <path
                   inkscape:connector-curvature="0"
                   id="path4850"
                   style="fill:#ffeeaa;fill-opacity:1;fill-rule:evenodd;stroke:none"
                   d="m 0,0 c -0.965,-18.346 -16.934,-32.418 -35.658,-31.435 -18.733,0.988 -33.141,16.654 -32.17,35.001 0.965,18.342 16.93,32.413 35.658,31.43 C -13.438,34.008 0.961,18.342 0,0 m -40.299,101.935 c -38.931,2.046 -72.109,-27.193 -74.113,-65.317 -2.01,-38.123 27.916,-70.687 66.846,-72.733 38.925,-2.046 72.103,27.194 74.107,65.317 2.004,38.124 -27.92,70.687 -66.84,72.733" />
              </g>
              <g
                 transform="translate(336.2187,548.6357)"
                 id="g4852"
                 style="fill:#ffeeaa">
                <path
                   inkscape:connector-curvature="0"
                   id="path4854"
                   style="fill:#ffeeaa;fill-opacity:1;fill-rule:evenodd;stroke:none"
                   d="m 0,0 c -0.96,-18.346 -16.925,-32.418 -35.658,-31.43 -18.738,0.988 -33.132,16.65 -32.162,34.996 0.965,18.346 16.925,32.418 35.658,31.43 C -13.434,34.013 0.965,18.342 0,0 m -96.108,38.362 c -2,-38.119 27.915,-70.687 66.845,-72.734 38.926,-2.05 72.109,27.194 74.113,65.318 2.004,38.119 -27.921,70.686 -66.846,72.732 -38.925,2.051 -72.108,-27.193 -74.112,-65.316" />
              </g>
              <g
                 transform="translate(133.2344,245.0898)"
                 id="g4856"
                 style="fill:#ffeeaa">
                <path
                   inkscape:connector-curvature="0"
                   id="path4858"
                   style="fill:#ffeeaa;fill-opacity:1;fill-rule:evenodd;stroke:none"
                   d="m 0,0 19.507,-155.488 85.35,-39.471 c 0,0 -0.774,123.904 7.645,145.326 C 120.911,-28.229 0,0 0,0" />
              </g>
              <g
                 transform="translate(719.6133,284.1777)"
                 id="g4860"
                 style="fill:#ffeeaa">
                <path
                   inkscape:connector-curvature="0"
                   id="path4862"
                   style="fill:#ffeeaa;fill-opacity:1;fill-rule:evenodd;stroke:none"
                   d="m 0,0 c 0,0 -86.115,-30.447 -90.016,-49.186 -3.896,-18.736 15.293,-152.353 15.293,-152.353 0,0 81.151,19.055 73.698,98.853 C -8.482,-22.867 0,0 0,0" />
              </g>
              <g
                 transform="translate(438.9609,241.416)"
                 id="g4864"
                 style="fill:#ffeeaa">
                <path
                   inkscape:connector-curvature="0"
                   id="path4866"
                   style="fill:#ffeeaa;fill-opacity:1;fill-rule:evenodd;stroke:none"
                   d="m 0,0 c -51.795,0 -93.811,-42.006 -93.811,-93.801 0,-51.795 42.016,-93.803 93.811,-93.803 49.096,0 89.383,37.739 93.455,85.786 H 68.686 L 1.221,-169.285 -75.493,-92.59 1.221,-15.867 71.133,-85.783 H 30.768 C 27.211,-72.1 14.789,-61.994 0,-61.994 c -17.573,0 -31.818,-14.244 -31.818,-31.807 0,-17.564 14.245,-31.818 31.818,-31.818 15.037,0 27.641,10.451 30.949,24.473 H 3.262 v 9.787 h 28.453 61.74 v 5.576 C 89.383,-37.746 49.096,0 0,0" />
              </g>
            </g>
          </g>
        </g>
      </g>
    </g>
  </g>
</svg>
