<?xml version="1.0" encoding="UTF-8" standalone="no"?>
<!-- Created with Inkscape (http://www.inkscape.org/) -->

<svg
   xmlns:dc="http://purl.org/dc/elements/1.1/"
   xmlns:cc="http://creativecommons.org/ns#"
   xmlns:rdf="http://www.w3.org/1999/02/22-rdf-syntax-ns#"
   xmlns:svg="http://www.w3.org/2000/svg"
   xmlns="http://www.w3.org/2000/svg"
   xmlns:sodipodi="http://sodipodi.sourceforge.net/DTD/sodipodi-0.dtd"
   xmlns:inkscape="http://www.inkscape.org/namespaces/inkscape"
   width="210mm"
   height="297mm"
   viewBox="0 0 210 297"
   version="1.1"
   id="svg8"
   inkscape:version="0.92.2 5c3e80d, 2017-08-06"
   sodipodi:docname="minion1.svg">
  <defs
     id="defs2">
    <clipPath
       id="clipPath45"
       clipPathUnits="userSpaceOnUse">
      <path
         inkscape:connector-curvature="0"
         id="path43"
         d="M 0,864 H 864 V 0 H 0 Z" />
    </clipPath>
    <clipPath
       id="clipPath3854"
       clipPathUnits="userSpaceOnUse">
      <path
         inkscape:connector-curvature="0"
         id="path3852"
         d="M 0,864 H 864 V 0 H 0 Z" />
    </clipPath>
    <clipPath
       id="clipPath4053"
       clipPathUnits="userSpaceOnUse">
      <path
         inkscape:connector-curvature="0"
         id="path4051"
         d="M 0,864 H 864 V 0 H 0 Z" />
    </clipPath>
  </defs>
  <sodipodi:namedview
     id="base"
     pagecolor="#000000"
     bordercolor="#666666"
     borderopacity="1.0"
     inkscape:pageopacity="0"
     inkscape:pageshadow="2"
     inkscape:zoom="0.91846942"
     inkscape:cx="396.85039"
     inkscape:cy="561.25984"
     inkscape:document-units="mm"
     inkscape:current-layer="g39"
     showgrid="false"
     inkscape:window-width="2560"
     inkscape:window-height="1385"
     inkscape:window-x="2560"
     inkscape:window-y="27"
     inkscape:window-maximized="1"
     showguides="true"
     inkscape:guide-bbox="true">
    <sodipodi:guide
       position="105.43356,205.96993"
       orientation="1,0"
       id="guide3815"
       inkscape:locked="false" />
    <sodipodi:guide
       position="92.758485,149.50825"
       orientation="0,1"
       id="guide3817"
       inkscape:locked="false" />
  </sodipodi:namedview>
  <metadata
     id="metadata5">
    <rdf:RDF>
      <cc:Work
         rdf:about="">
        <dc:format>image/svg+xml</dc:format>
        <dc:type
           rdf:resource="http://purl.org/dc/dcmitype/StillImage" />
        <dc:title></dc:title>
      </cc:Work>
    </rdf:RDF>
  </metadata>
  <g
     inkscape:label="Layer 1"
     inkscape:groupmode="layer"
     id="layer1">
    <g
       transform="matrix(0.35277777,0,0,-0.35277777,-70.777455,287.43463)"
       inkscape:label="1"
       id="g37">
      <g
         id="g39">
        <g
           transform="matrix(0.75,0,0,0.75,176.1945,74.81557)"
           inkscape:label="4"
           id="g4045"
           style="fill:#ffeeaa">
          <g
             id="g4047"
             style="fill:#ffeeaa">
            <g
               clip-path="url(#clipPath4053)"
               id="g4049"
               style="fill:#ffeeaa">
              <g
                 transform="translate(311.5649,601.7617)"
                 id="g4055"
                 style="fill:#ffeeaa">
                <path
                   inkscape:connector-curvature="0"
                   id="path4057"
                   style="fill:#ffeeaa;fill-opacity:1;fill-rule:nonzero;stroke:none"
                   d="M 0,0 C 0.371,119.658 89.937,155.773 137.348,153.515 280.158,138.646 281.832,2.258 281.832,2.258 c 0,0 24.835,0 88.048,-2.258 C 356.331,178.355 193.292,215.436 146.371,216.369 -112.368,221.527 -120.018,22.576 -120.018,22.576 l 2.258,-20.318 z" />
              </g>
              <g
                 transform="translate(687.8594,316.1992)"
                 id="g4059"
                 style="fill:#ffeeaa">
                <path
                   inkscape:connector-curvature="0"
                   id="path4061"
                   style="fill:#ffeeaa;fill-opacity:1;fill-rule:nonzero;stroke:none"
                   d="m 0,0 v 244.92 c 0,0 -44.793,-4.506 -92.205,0 2.264,-42.896 -76.752,-103.846 -149.004,-103.846 -133.197,4.517 -135.456,103.846 -135.456,103.846 h -119.647 c 0,0 -3.349,-119.132 0,-260.097 35.885,-80.252 213.521,-87.021 213.521,-87.021 l -69.398,131.569 h 225.11 l -73.295,-126.97 c 0,0 13.403,-10.346 31.333,0 C -42.285,-93.26 0,0 0,0" />
              </g>
              <g
                 transform="translate(541.5625,594.5122)"
                 id="g4063"
                 style="fill:#ffeeaa">
                <path
                   inkscape:connector-curvature="0"
                   id="path4065"
                   style="fill:#ffeeaa;fill-opacity:1;fill-rule:nonzero;stroke:none"
                   d="m 0,0 c 0,50.306 -40.783,91.084 -91.09,91.084 -50.306,0 -91.084,-40.778 -91.084,-91.084 0,-38.895 24.418,-72.007 58.729,-85.066 -8.569,8.397 -13.894,20.074 -13.894,33.018 0,25.539 20.71,46.249 46.249,46.249 25.539,0 46.249,-20.71 46.249,-46.249 0,-12.944 -5.325,-24.621 -13.893,-33.018 C -24.424,-72.007 0,-38.895 0,0" />
              </g>
              <g
                 transform="translate(190.0605,238.127)"
                 id="g4067"
                 style="fill:#ffeeaa">
                <path
                   inkscape:connector-curvature="0"
                   id="path4069"
                   style="fill:#ffeeaa;fill-opacity:1;fill-rule:nonzero;stroke:none"
                   d="m 0,0 -23.552,-151.826 80.241,-32.523 21.696,143.138 c 0,0 -48.33,6.508 -78.385,41.211" />
              </g>
              <g
                 transform="translate(687.8594,255.8164)"
                 id="g4071"
                 style="fill:#ffeeaa">
                <path
                   inkscape:connector-curvature="0"
                   id="path4073"
                   style="fill:#ffeeaa;fill-opacity:1;fill-rule:nonzero;stroke:none"
                   d="m 0,0 c -29.513,-36.517 -72.424,-41.815 -72.424,-41.815 v -145.443 l 82.411,22.092 c 0,0 0,78.072 -9.987,165.166" />
              </g>
              <g
                 transform="translate(379.5713,118.3115)"
                 id="g4075"
                 style="fill:#ffeeaa">
                <path
                   inkscape:connector-curvature="0"
                   id="path4077"
                   style="fill:#ffeeaa;fill-opacity:1;fill-rule:nonzero;stroke:none"
                   d="M 0,0 56.919,-77.55 136.634,2.17 59.392,59.392 Z" />
              </g>
            </g>
          </g>
        </g>
      </g>
    </g>
  </g>
</svg>
