<?xml version="1.0" encoding="UTF-8" standalone="no"?>
<!-- Created with Inkscape (http://www.inkscape.org/) -->

<svg
   xmlns:dc="http://purl.org/dc/elements/1.1/"
   xmlns:cc="http://creativecommons.org/ns#"
   xmlns:rdf="http://www.w3.org/1999/02/22-rdf-syntax-ns#"
   xmlns:svg="http://www.w3.org/2000/svg"
   xmlns="http://www.w3.org/2000/svg"
   xmlns:sodipodi="http://sodipodi.sourceforge.net/DTD/sodipodi-0.dtd"
   xmlns:inkscape="http://www.inkscape.org/namespaces/inkscape"
   width="210mm"
   height="297mm"
   viewBox="0 0 210 297"
   version="1.1"
   id="svg8"
   inkscape:version="0.92.2 5c3e80d, 2017-08-06"
   sodipodi:docname="minion3.svg">
  <defs
     id="defs2">
    <clipPath
       id="clipPath45"
       clipPathUnits="userSpaceOnUse">
      <path
         inkscape:connector-curvature="0"
         id="path43"
         d="M 0,864 H 864 V 0 H 0 Z" />
    </clipPath>
    <clipPath
       id="clipPath3854"
       clipPathUnits="userSpaceOnUse">
      <path
         inkscape:connector-curvature="0"
         id="path3852"
         d="M 0,864 H 864 V 0 H 0 Z" />
    </clipPath>
    <clipPath
       id="clipPath4053"
       clipPathUnits="userSpaceOnUse">
      <path
         inkscape:connector-curvature="0"
         id="path4051"
         d="M 0,864 H 864 V 0 H 0 Z" />
    </clipPath>
    <clipPath
       id="clipPath4150"
       clipPathUnits="userSpaceOnUse">
      <path
         inkscape:connector-curvature="0"
         id="path4148"
         d="M 0,864 H 864 V 0 H 0 Z" />
    </clipPath>
    <clipPath
       id="clipPath4295"
       clipPathUnits="userSpaceOnUse">
      <path
         inkscape:connector-curvature="0"
         id="path4293"
         d="M 0,864 H 864 V 0 H 0 Z" />
    </clipPath>
    <clipPath
       id="clipPath4410"
       clipPathUnits="userSpaceOnUse">
      <path
         inkscape:connector-curvature="0"
         id="path4408"
         d="M 0,864 H 864 V 0 H 0 Z" />
    </clipPath>
    <clipPath
       id="clipPath4615"
       clipPathUnits="userSpaceOnUse">
      <path
         inkscape:connector-curvature="0"
         id="path4613"
         d="M 0,864 H 864 V 0 H 0 Z" />
    </clipPath>
    <clipPath
       id="clipPath4838"
       clipPathUnits="userSpaceOnUse">
      <path
         inkscape:connector-curvature="0"
         id="path4836"
         d="M 0,864 H 864 V 0 H 0 Z" />
    </clipPath>
    <clipPath
       id="clipPath5001"
       clipPathUnits="userSpaceOnUse">
      <path
         inkscape:connector-curvature="0"
         id="path4999"
         d="M 0,864 H 864 V 0 H 0 Z" />
    </clipPath>
    <inkscape:perspective
       id="perspective9"
       inkscape:persp3d-origin="372.04724 : 350.78739 : 1"
       inkscape:vp_z="744.09448 : 526.18109 : 1"
       inkscape:vp_y="0 : 1000 : 0"
       inkscape:vp_x="0 : 526.18109 : 1"
       sodipodi:type="inkscape:persp3d" />
  </defs>
  <sodipodi:namedview
     id="base"
     pagecolor="#000000"
     bordercolor="#666666"
     borderopacity="1.0"
     inkscape:pageopacity="0"
     inkscape:pageshadow="2"
     inkscape:zoom="0.91846942"
     inkscape:cx="396.85039"
     inkscape:cy="556.87007"
     inkscape:document-units="mm"
     inkscape:current-layer="g5136"
     showgrid="false"
     inkscape:window-width="2560"
     inkscape:window-height="1385"
     inkscape:window-x="2560"
     inkscape:window-y="27"
     inkscape:window-maximized="1"
     showguides="true"
     inkscape:guide-bbox="true">
    <sodipodi:guide
       position="105.43356,205.96993"
       orientation="1,0"
       id="guide3815"
       inkscape:locked="false" />
    <sodipodi:guide
       position="92.758485,149.50825"
       orientation="0,1"
       id="guide3817"
       inkscape:locked="false" />
  </sodipodi:namedview>
  <metadata
     id="metadata5">
    <rdf:RDF>
      <cc:Work
         rdf:about="">
        <dc:format>image/svg+xml</dc:format>
        <dc:type
           rdf:resource="http://purl.org/dc/dcmitype/StillImage" />
        <dc:title></dc:title>
      </cc:Work>
    </rdf:RDF>
  </metadata>
  <g
     inkscape:label="Layer 1"
     inkscape:groupmode="layer"
     id="layer1">
    <g
       transform="matrix(0.35277777,0,0,-0.35277777,-70.777455,287.43463)"
       inkscape:label="1"
       id="g37">
      <g
         id="g39">
        <g
           id="g5136"
           transform="matrix(0.75000002,0,0,-0.75000002,342.50983,505.50165)"
           style="fill:#ffeeaa">
          <path
             style="fill:#ffeeaa;stroke-width:0.43740004"
             d="m 89.940629,451.99603 c -0.481144,-0.20682 -1.366886,-0.39218 -1.9683,-0.412 -1.989052,-0.0657 -10.371419,-4.13512 -11.8098,-5.73347 -0.12027,-0.13365 -1.006011,-0.71022 -1.9683,-1.28124 -2.201051,-1.30608 -11.593339,-10.71675 -12.450666,-12.47499 -0.351898,-0.72172 -0.956764,-1.80428 -1.344171,-2.4057 -1.996073,-3.09884 -3.387339,-10.32867 -2.234749,-11.61297 0.205078,-0.22864 0.630722,-1.39968 0.945847,-2.60253 0.315105,-1.20285 0.934595,-2.70948 1.376681,-3.34803 0.442068,-0.63857 0.803762,-1.29709 0.803762,-1.46337 0,-0.70557 1.994636,-3.01513 3.622296,-4.19418 1.528195,-1.10703 2.134792,-1.27092 4.64459,-1.25499 1.857781,0.0124 3.382105,0.28463 4.276251,0.76544 1.484104,0.79801 5.160804,4.13878 7.425359,6.74694 0.758458,0.87352 2.013236,1.91616 2.788379,2.31704 1.328078,0.68675 1.495311,0.68247 2.900612,-0.0744 2.421698,-1.30417 10.209315,-9.56786 10.209315,-10.83342 0,-0.59145 0.180776,-1.18721 0.401993,-1.32384 1.289374,-0.79684 1.329147,-10.49419 0.04836,-11.77506 -0.247723,-0.24773 -0.454657,-0.95219 -0.460018,-1.56564 -0.0052,-0.61346 -0.394624,-1.60745 -0.865054,-2.20886 -0.470438,-0.60144 -0.859734,-1.44487 -0.865088,-1.87437 -0.0053,-0.42942 -0.341835,-1.28771 -0.747744,-1.90717 -0.890728,-1.35945 -1.171158,-4.74171 -0.439259,-5.29776 0.694476,-0.52766 10.720795,0.1959 14.006555,1.01097 1.40272,0.34787 3.76468,0.64109 5.24881,0.65157 1.48412,0.01 3.58414,0.21401 4.66671,0.45239 1.08258,0.2383 4.03501,0.71843 6.56101,1.06689 7.46085,1.02924 9.59541,1.74433 9.53157,3.1929 -0.0175,0.40494 0.21575,2.31092 0.51928,4.23547 1.20339,7.63279 2.16388,28.8571 1.34305,29.67793 -0.25241,0.25244 -0.4589,0.89082 -0.4589,1.41866 0,0.95198 -1.11738,2.28013 -3.9803,4.73131 -0.81796,0.70028 -2.57846,2.27492 -3.91222,3.49923 -2.91603,2.67656 -8.08995,7.27858 -9.60349,8.54193 -0.60142,0.502 -1.7824,1.50684 -2.62439,2.23297 -0.842,0.72612 -2.71187,2.24889 -4.15528,3.38399 -1.44345,1.1351 -2.69004,2.2114 -2.77021,2.39183 -0.0801,0.18053 -0.33938,0.32805 -0.57595,0.32805 -0.35902,0 -3.12616,1.87333 -3.87289,2.62191 -0.75174,0.75359 -5.950185,3.11283 -8.574525,3.8915 -3.341262,0.99133 -4.274065,1.07154 -5.639048,0.48499 z m 75.014081,-27.5678 c -2.21785,-0.50467 -5.36376,-1.71789 -6.12358,-2.36148 -0.36086,-0.30565 -1.00055,-0.67791 -1.42154,-0.82722 -1.00322,-0.35577 -0.9772,-1.59292 0.15821,-7.51601 0.78411,-4.09074 0.89018,-5.89238 0.70791,-12.02849 -0.15002,-5.04703 -0.4255,-7.80895 -0.91659,-9.1854 -0.38621,-1.08257 -0.70508,-2.70909 -0.70858,-3.61449 -0.004,-0.90539 -0.18623,-1.98794 -0.40628,-2.4057 -0.21995,-0.41775 -0.88946,-1.84208 -1.48776,-3.16521 -1.92287,-4.25244 -9.08049,-10.30196 -14.98962,-12.66894 l -3.0244,-1.21147 -0.54759,-4.76022 c -0.30119,-2.61814 -0.74404,-5.85468 -0.98415,-7.19231 -0.24005,-1.33761 -0.44596,-4.09323 -0.45745,-6.12359 -0.0124,-2.03037 -0.31993,-5.7583 -0.68543,-8.28427 -2.15913,-14.92204 -2.23816,-57.41969 -0.12324,-66.21687 0.45621,-1.89742 0.82946,-4.23165 0.82946,-5.18715 0,-1.57477 1.38448,-8.00998 2.18823,-10.17108 1.21761,-3.2739 4.35857,-8.7739 5.4165,-9.48459 0.24501,-0.16441 0.60241,-0.2021 0.79432,-0.0836 0.6106,0.37735 0.36576,5.03547 -0.52585,10.00554 -1.25961,7.02123 -1.25885,24.68966 0.002,31.18027 0.4804,2.47438 0.87346,5.4644 0.87346,6.64451 0,1.18014 0.19689,2.26734 0.4374,2.41602 0.24054,0.14853 0.43973,0.79999 0.44259,1.44735 0.004,0.64739 0.30945,2.25961 0.68129,3.58275 0.37184,1.32315 0.91079,3.27309 1.19766,4.33322 0.45618,1.68586 0.74008,2.00278 2.26426,2.52762 0.95847,0.33005 5.33317,0.80884 9.72156,1.06396 10.18817,0.59233 53.82913,0.26589 56.38895,-0.42183 0.99319,-0.2668 3.65039,-0.6704 5.9049,-0.89682 4.29737,-0.43164 10.04658,-1.53346 11.53489,-2.2106 0.48115,-0.21896 1.59258,-0.61711 2.46985,-0.88489 2.66353,-0.81299 2.74322,-1.36114 2.37662,-16.34448 -0.17755,-7.25531 -0.50601,-14.47088 -0.73,-16.0346 -0.22392,-1.5637 -0.59522,-5.79554 -0.82487,-9.4041 -0.22963,-3.60855 -0.63887,-7.64353 -0.90927,-8.96668 -0.27043,-1.32314 -0.65721,-3.88193 -0.85951,-5.68622 -0.39857,-3.55452 -1.51451,-8.87561 -2.15567,-10.27891 -0.21971,-0.48111 -0.63402,-1.66209 -0.92041,-2.62439 -0.28639,-0.96225 -0.69376,-1.93657 -0.90528,-2.16511 -0.21152,-0.22863 -0.38457,-0.8417 -0.38457,-1.36256 0,-0.52088 -0.39366,-1.44752 -0.87477,-2.05916 -0.48115,-0.61168 -0.87481,-1.33868 -0.87481,-1.61554 0,-0.52926 -2.60154,-4.06329 -3.17896,-4.31843 -0.18474,-0.0816 -0.60954,-0.42208 -0.94404,-0.75656 -1.53251,-1.53252 -5.70178,-2.5209 -15.77872,-3.74061 -5.40879,-0.65468 -31.03537,-0.20756 -38.70988,0.67543 -3.2477,0.37365 -7.38112,0.67998 -9.18541,0.6807 -1.80426,6.5e-4 -5.83928,0.29084 -8.96669,0.6447 -3.12741,0.35384 -7.55608,0.8393 -9.8415,1.07879 -6.41618,0.67235 -11.39769,1.34878 -13.55941,1.84118 -1.08255,0.24649 -3.24768,0.64184 -4.81138,0.87834 -7.23012,1.09346 -11.42294,1.84101 -14.62684,2.60788 -1.91022,0.45718 -3.80681,0.83125 -4.21464,0.83125 -0.40783,0 -1.30531,0.29405 -1.99438,0.65342 -0.68907,0.35936 -1.731032,0.65463 -2.315514,0.65609 -1.084514,0.004 -5.755395,1.37482 -8.124494,2.38659 -0.722674,0.30862 -2.002049,0.71056 -2.843084,0.89317 -0.841028,0.18251 -1.627554,0.4685 -1.747851,0.63531 -0.288218,0.39967 -4.091084,2.21121 -4.641835,2.21121 -0.454172,0 -1.53673,0.76237 -3.888121,2.73803 -1.632967,1.37199 -2.431394,1.25822 -3.181566,-0.45333 -0.287154,-0.65515 -1.115639,-2.26984 -1.841089,-3.58822 -0.72543,-1.31838 -1.318983,-2.83219 -1.318983,-3.36403 0,-0.53184 -0.169858,-1.07196 -0.377389,-1.20025 -0.207558,-0.12819 -0.622594,-1.17326 -0.922267,-2.32216 -0.299706,-1.14891 -0.854426,-2.77783 -1.232734,-3.61984 -0.524912,-1.16825 -0.694973,-3.13677 -0.717963,-8.31056 -0.03097,-6.94333 0.327033,-8.74801 1.73486,-8.74801 0.352371,0 0.640687,-0.17284 0.640687,-0.38433 0,-0.21129 0.590505,-0.62894 1.312215,-0.92789 0.721702,-0.29892 1.312206,-0.69258 1.312206,-0.8748 0,-0.18226 0.639697,-0.57183 1.421538,-0.86587 0.781868,-0.29403 1.8152,-0.70624 2.296344,-0.91602 1.497246,-0.6528 4.715365,-1.74454 6.998396,-2.37416 10.582178,-2.91844 10.424418,-2.90554 40.240804,-3.28753 14.91533,-0.19119 27.8077,-0.4669 28.64969,-0.61297 0.842,-0.14606 6.15643,-0.45062 11.8098,-0.67685 5.6534,-0.22615 10.96781,-0.62576 11.80981,-0.88788 0.84199,-0.26208 4.38493,-0.65671 7.8732,-0.87696 3.48826,-0.22019 9.39316,-0.80726 13.12201,-1.30452 3.72882,-0.49726 8.45274,-1.11261 10.49759,-1.36747 2.04484,-0.25485 4.36428,-0.74192 5.1543,-1.08236 0.79,-0.34045 2.02057,-0.61901 2.73457,-0.61901 1.97145,0 17.89005,-3.12613 20.32345,-3.99116 0.7217,-0.25657 2.49315,-0.7576 3.9366,-1.11341 1.44341,-0.35583 3.70694,-0.92023 5.03009,-1.25427 1.32312,-0.33404 3.58669,-0.90287 5.0301,-1.26407 1.4434,-0.3612 3.31331,-0.94269 4.15528,-1.29222 0.842,-0.34952 3.00714,-1.06879 4.81141,-1.59837 1.80429,-0.5296 3.9694,-1.22631 4.81141,-1.54828 0.84199,-0.32198 2.21979,-0.77871 3.06179,-1.01498 2.59649,-0.72864 4.81551,-1.62397 5.35033,-2.1588 0.28094,-0.28095 0.87785,-0.51084 1.32641,-0.51084 0.81495,0 4.76824,-1.46532 6.00787,-2.22688 0.36084,-0.22169 0.95133,-0.51762 1.31221,-0.65765 0.36085,-0.14011 1.73864,-0.7503 3.06179,-1.3562 1.32312,-0.60588 2.79936,-1.25543 3.28047,-1.44341 1.77943,-0.69527 14.87923,-7.14545 15.09032,-7.43026 0.12026,-0.16243 1.30127,-0.86743 2.62438,-1.56689 1.32315,-0.69947 3.29145,-1.86792 4.37401,-2.59655 1.08258,-0.72863 3.2477,-2.09486 4.81141,-3.03609 2.89948,-1.74528 3.3214,-2.03776 7.31357,-5.0703 1.25592,-0.954 2.44238,-1.73456 2.63654,-1.73456 0.19417,0 0.67821,-0.34445 1.07559,-0.76545 0.85722,-0.90812 1.37447,-1.32607 3.40757,-2.75323 0.8415,-0.59071 1.82565,-1.37483 2.18701,-1.74253 0.36135,-0.36765 1.49837,-1.32294 2.52664,-2.12286 1.02831,-0.79989 2.70848,-2.27056 3.73373,-3.2681 1.02526,-0.99756 2.34905,-2.22529 2.94178,-2.72831 1.20256,-1.02055 7.45046,-7.54088 10.48178,-10.9388 2.01928,-2.26349 2.20761,-2.49264 4.8174,-5.86131 0.8387,-1.08258 1.67252,-2.03392 1.85294,-2.11411 0.18053,-0.0801 0.32805,-0.41136 0.32805,-0.73597 0,-0.67379 1.52033,-1.27984 2.18309,-0.87023 0.24277,0.15002 0.44129,0.83998 0.44129,1.53329 0,0.69332 0.17137,1.36653 0.38093,1.49598 0.20954,0.12945 0.50293,0.84572 0.65215,1.59166 0.14926,0.74591 0.53634,1.98019 0.86036,2.74285 0.99074,2.33194 2.08737,5.62819 2.78955,8.38501 0.36765,1.44341 0.84217,2.8114 1.05454,3.03993 0.21225,0.22864 0.3861,0.92505 0.3861,1.54778 0,0.62272 0.39366,1.90438 0.8748,2.84809 0.48111,0.94374 0.87477,2.15474 0.87477,2.69108 0,0.53637 0.16863,1.07948 0.37492,1.20691 0.20632,0.12746 0.62924,1.46768 0.94004,2.97826 0.31083,1.51061 0.68261,2.94338 0.82626,3.18397 0.14358,0.24054 0.48345,1.42154 0.75516,2.62439 0.27173,1.20285 0.69718,2.77749 0.94551,3.49919 0.24829,0.72171 0.79075,2.29635 1.2055,3.4992 0.41474,1.20286 0.83999,2.7775 0.94496,3.4992 0.10489,0.7217 0.35946,1.70587 0.56553,2.18702 0.20606,0.48115 0.4967,1.46528 0.64585,2.18698 0.14928,0.72171 0.44881,2.00112 0.66581,2.84311 0.21698,0.842 0.71369,2.8103 1.10373,4.374 0.39007,1.56371 0.89262,3.03009 1.11679,3.25864 0.22417,0.22863 0.40757,0.85861 0.40757,1.40019 0,0.54158 0.31648,2.12607 0.70337,3.52107 0.38687,1.39503 0.85891,3.52055 1.04906,4.72339 0.1902,1.20286 0.65808,3.07274 1.03984,4.15533 0.38181,1.08256 0.69703,2.48552 0.70053,3.11771 0.005,0.63219 0.33489,1.91159 0.73636,2.84311 0.40155,0.93152 0.88578,2.77621 1.07619,4.09936 0.19044,1.32315 0.75924,4.27559 1.26407,6.56099 0.50485,2.28545 1.08682,5.57856 1.2933,7.3181 0.20657,1.73955 0.68701,3.78731 1.06774,4.55057 0.38081,0.76327 0.69448,2.29246 0.69705,3.3982 0.005,1.10574 0.30401,2.99459 0.66978,4.19745 0.36577,1.20284 0.85323,4.25371 1.08336,6.7797 0.23012,2.52598 0.71204,6.26575 1.07106,8.31061 0.35901,2.04481 0.65671,4.71186 0.66151,5.92674 0.005,1.2149 0.19467,2.39588 0.42164,2.62441 0.69817,0.70264 1.99282,20.01482 1.99248,29.72132 -3.1e-4,8.93246 -0.98447,21.35843 -1.93572,24.44075 -0.5386,1.74527 -1.79207,7.46443 -2.0728,9.45775 -0.11853,0.84201 -0.59372,2.36528 -1.05583,3.38508 -0.46212,1.0198 -0.84021,2.23838 -0.84021,2.70797 0,0.46954 -0.20309,0.97924 -0.45134,1.13268 -0.24824,0.15348 -0.85837,1.19837 -1.35578,2.32215 -0.49746,1.12377 -1.12381,2.53533 -1.39185,3.13673 -0.26809,0.60142 -0.8159,1.58558 -1.21742,2.18698 -0.82185,1.23119 -2.42595,4.01019 -3.31863,5.74956 -0.32657,0.63625 -0.8849,1.39845 -1.24072,1.69379 -0.35587,0.29533 -0.64704,0.70744 -0.64704,0.91583 0,0.33582 -0.50577,1.04135 -1.9683,2.74582 -0.24054,0.28033 -0.91719,1.19332 -1.50368,2.02882 -0.58641,0.83547 -1.42292,1.7763 -1.85894,2.09066 -0.43596,0.31435 -0.7927,0.78045 -0.7927,1.03581 0,0.82563 -11.84369,12.07102 -13.93065,13.22683 -0.39722,0.21995 -0.82065,0.52702 -0.94094,0.68225 -0.35743,0.46126 -7.79722,5.2593 -8.63362,5.56799 -0.42376,0.15646 -0.8689,0.41413 -0.9892,0.57273 -0.47484,0.62614 -11.32146,5.69691 -13.99678,6.5435 -1.56371,0.49477 -3.17896,1.08981 -3.58947,1.32221 -0.41046,0.23236 -1.53852,0.54925 -2.50677,0.70408 -0.96825,0.15474 -1.98509,0.5522 -2.25968,0.88304 -0.27455,0.33085 -0.83128,0.60151 -1.23716,0.60151 -0.40588,0 -2.30089,0.37055 -4.21108,0.82346 -4.70819,1.11622 -9.62361,2.11849 -12.00243,2.44729 -1.08258,0.14952 -2.85405,0.54585 -3.9366,0.88052 -1.08258,0.33465 -3.05088,0.8259 -4.374,1.09162 -1.32315,0.26578 -2.94658,0.59491 -3.60764,0.73147 -1.60438,0.33137 -3.92855,2.5843 -4.89198,4.74191 -0.42966,0.9623 -1.05498,2.32113 -1.3896,3.01965 -0.33462,0.69854 -0.60841,1.66247 -0.60841,2.14214 0,0.4796 -0.38361,1.97481 -0.85248,3.3226 -0.59692,1.7159 -0.93794,4.24872 -1.13742,8.44774 -0.17556,3.69418 -0.48034,6.15937 -0.79388,6.4196 -0.80671,0.66951 -12.71811,2.45668 -23.67889,3.5528 -2.4057,0.24055 -6.24388,0.66535 -8.52932,0.94398 -7.01622,0.85533 -19.38277,0.96223 -22.71156,0.19639 -1.58199,-0.36396 -4.0571,-0.79075 -5.50028,-0.94833 -1.44317,-0.15771 -3.16543,-0.56657 -3.82725,-0.90879 l -1.20329,-0.62229 v -5.18415 c 0,-3.5793 -0.19963,-5.66209 -0.64509,-6.72803 -0.6877,-1.6459 -2.5459,-3.37434 -3.62767,-3.37434 -1.20743,0 -2.72228,2.28305 -2.75711,4.15531 -0.0883,4.74212 0.10092,8.60333 0.56082,11.45549 0.49335,3.05892 0.47934,3.16744 -0.51198,3.9702 -0.58722,0.47544 -2.42905,1.05278 -4.34553,1.36205 -1.82951,0.29526 -5.0978,0.91278 -7.26295,1.37222 -4.26637,0.90544 -9.35785,1.65943 -14.87159,2.20238 -4.5093,0.44409 -20.9688,0.41909 -22.96352,-0.035 z M 403.7751,407.39129 c -1.32311,-0.14532 -3.19302,-0.69416 -4.15528,-1.21943 -1.73084,-0.94483 -4.15532,-2.90372 -4.15532,-3.35735 0,-0.20904 -0.64069,-1.05563 -1.9683,-2.60109 -0.70105,-0.8161 -2.28971,-4.27239 -2.83732,-6.1729 -0.27726,-0.96227 -0.66939,-2.14325 -0.87138,-2.62439 -0.20186,-0.48114 -0.47393,-1.21036 -0.60432,-1.6205 -0.13043,-0.41015 -0.98476,-1.12865 -1.89863,-1.59675 -2.92998,-1.50077 -10.19084,-7.62211 -10.19084,-8.59152 0,-0.27068 -0.36571,-0.88472 -0.81268,-1.3645 -0.7651,-0.82122 -0.96579,-1.49358 -1.64874,-5.52378 -0.15275,-0.90115 -0.0342,-2.5742 0.26333,-3.71791 0.60932,-2.34223 2.24476,-5.79734 2.74411,-5.79734 0.18078,0 0.32879,-0.25812 0.32879,-0.57361 0,-0.3155 0.39366,-0.99619 0.87481,-1.51262 0.48111,-0.51644 0.87477,-1.09494 0.87477,-1.2855 0,-1.17199 5.89286,-6.25933 9.55674,-8.25047 2.43429,-1.32293 7.70458,-2.54716 9.47017,-2.19982 2.43961,0.47991 6.34414,0.75836 7.13117,0.5086 1.69468,-0.53786 1.61578,-5.64672 -0.16243,-10.52488 -0.77271,-2.11952 -3.74076,-8.84118 -4.58453,-10.3823 -0.22864,-0.41776 -0.41583,-0.97786 -0.41583,-1.24471 0,-0.26682 -0.38059,-1.01964 -0.84572,-1.67283 -1.24917,-1.75431 -1.53038,-3.30025 -0.73197,-4.02391 1.13845,-1.03197 1.75361,-1.46866 2.8899,-2.05162 3.48037,-1.78547 4.84573,-3.00079 6.30555,-5.61274 1.28015,-2.29035 2.87692,-7.14585 2.88846,-8.78317 0.005,-0.67139 0.29311,-2.79536 0.64084,-4.71992 0.73247,-4.05397 0.83184,-13.06203 0.19293,-17.49601 -0.24251,-1.68398 -0.6275,-4.93168 -0.85527,-7.21709 -0.22788,-2.28541 -0.53647,-4.89342 -0.68592,-5.79555 -0.24228,-1.46289 -0.17185,-1.64025 0.65091,-1.64025 0.50745,0 0.92264,0.26474 0.92264,0.5883 0,0.32358 0.39366,0.94457 0.87481,1.38 0.48114,0.43542 0.8748,1.04775 0.8748,1.36074 0,0.31297 0.59048,1.57052 1.31219,2.79456 0.7217,1.22401 1.31656,2.46285 1.32193,2.75299 0.005,0.29012 0.39465,1.01959 0.86508,1.62101 0.4704,0.60141 0.8597,1.34737 0.86508,1.65766 0.005,0.31028 0.40338,1.33582 0.88451,2.27894 0.48114,0.94311 0.8748,2.07927 0.8748,2.52479 0,0.44554 0.39366,1.62486 0.87481,2.62073 0.48114,0.99584 0.8748,2.07841 0.8748,2.4057 0,0.32726 0.39366,1.40983 0.87478,2.40571 0.48115,0.99581 0.87481,2.20216 0.87481,2.68072 0,0.47858 0.17036,0.97537 0.3784,1.10397 0.20805,0.12869 0.48301,1.01414 0.61091,1.96782 0.12796,0.9537 0.54816,2.36654 0.93385,3.13969 0.38571,0.77312 0.70197,2.01512 0.70287,2.76001 0,0.74488 0.39457,1.99882 0.8748,2.78649 0.48025,0.78767 0.87317,1.79697 0.87317,2.24291 0,0.44596 0.32671,1.57297 0.72604,2.50449 0.39929,0.93149 0.87201,2.48099 1.05045,3.44327 0.37779,2.03758 1.66905,7.13797 2.04861,8.0919 0.72666,1.82636 1.96905,7.13101 2.30494,9.8415 0.20854,1.68399 0.68622,4.20319 1.0613,5.59818 0.37501,1.39501 0.68186,3.79659 0.68186,5.33682 0,1.54023 0.3127,3.94181 0.69485,5.33681 1.11695,4.07691 1.35057,16.47907 0.39801,21.12589 -0.41921,2.04483 -0.90172,4.89888 -1.07225,6.3423 -0.1706,1.44342 -0.63574,3.51014 -1.03376,4.5927 -0.39802,1.08256 -0.72657,2.2506 -0.73006,2.59566 -0.007,0.68033 -1.42301,3.95571 -2.47082,5.71494 -0.35822,0.60142 -0.76053,1.43795 -0.89404,1.85895 -0.13342,0.42098 -0.41663,0.76545 -0.62912,0.76545 -0.21252,0 -0.3864,0.26389 -0.3864,0.58643 0,0.84785 -6.52942,7.27329 -8.96037,8.81767 -3.71676,2.3613 -4.50198,2.77684 -7.30118,3.86421 -3.11131,1.20862 -6.00448,1.56507 -9.54506,1.17595 z M 97.019863,344.08565 c -1.117994,-1.15264 -2.369473,-2.5878 -2.781038,-3.18923 -0.411564,-0.60142 -0.873367,-1.19192 -1.026245,-1.31219 -0.152996,-0.12026 -0.945846,-1.64573 -1.762153,-3.38985 -0.816333,-1.74414 -1.637606,-3.17116 -1.825047,-3.17116 -0.187468,0 -0.340845,-0.24896 -0.340845,-0.55321 0,-0.30431 -0.39366,-1.28771 -0.874803,-2.18543 -0.481145,-0.89769 -0.874805,-1.90191 -0.874805,-2.23153 0,-0.56761 -1.137835,-3.66091 -2.459713,-6.687 -0.331146,-0.75812 -0.602082,-1.61407 -0.602082,-1.90222 0,-0.28818 -0.278699,-1.1441 -0.619293,-1.90222 -0.652892,-1.45302 -1.865811,-5.86876 -2.421049,-8.81408 -0.181516,-0.96229 -0.680618,-2.59901 -1.109367,-3.63712 -1.102025,-2.66837 -0.496641,-3.12107 2.48885,-1.86118 1.466817,0.61903 3.600893,1.05729 5.81615,1.1945 1.924557,0.11927 4.0405,0.42205 4.702045,0.67308 l 1.202855,0.45634 -0.0075,4.4303 c -0.0075,4.75767 1.262808,14.45503 2.651319,20.23831 0.470241,1.95845 0.854945,4.0628 0.854945,4.67624 0,0.61346 0.163664,1.21651 0.363505,1.34007 0.199868,0.1235 0.625271,1.66059 0.945204,3.41566 0.319968,1.75506 0.761984,3.42618 0.982304,3.71369 0.59442,0.77565 0.21772,2.5106 -0.578129,2.66206 -0.381061,0.0726 -1.607541,-0.81114 -2.725536,-1.96383 z M 67.419137,198.43098 c -0.233591,-0.67125 -0.723717,-1.7777 -1.089382,-2.45876 -0.365657,-0.68105 -0.66482,-1.68391 -0.66482,-2.22855 0,-0.54464 -0.39366,-1.34652 -0.874803,-1.78194 -0.481145,-0.43543 -0.874805,-1.12462 -0.874805,-1.53149 0,-0.4069 -0.273765,-1.31134 -0.608382,-2.00986 -0.767506,-1.60217 -1.75554,-3.9175 -2.455198,-5.75341 -0.297969,-0.78185 -0.71469,-1.42154 -0.926085,-1.42154 -0.211278,0 -0.388701,-0.34446 -0.39406,-0.76545 -0.0052,-0.42102 -0.394625,-1.25753 -0.865055,-1.85895 -0.470463,-0.60143 -0.859734,-1.34055 -0.865087,-1.6425 -0.0099,-0.51183 -3.463567,-7.49755 -3.946325,-7.9803 -0.120262,-0.12028 -0.767703,-1.30127 -1.438696,-2.6244 -0.671019,-1.32314 -1.783142,-3.38986 -2.471391,-4.59271 -0.688255,-1.20285 -1.783811,-3.15791 -2.434544,-4.3446 -1.075912,-1.96192 -2.72643,-4.50883 -3.278873,-5.05949 -0.120762,-0.12028 -0.498373,-0.75998 -0.839341,-1.42155 -0.340989,-0.66158 -0.783549,-1.20285 -0.983468,-1.20285 -0.199868,0 -0.36348,-0.26475 -0.36348,-0.58833 0,-0.32355 -0.39366,-0.94455 -0.87481,-1.37997 -0.481145,-0.43543 -0.874805,-0.95578 -0.874805,-1.15632 0,-0.3471 -0.893182,-1.54994 -2.077633,-2.79784 -0.300717,-0.31684 -0.546761,-0.71043 -0.546761,-0.87466 0,-0.16416 -0.78732,-1.23895 -1.749609,-2.38828 -0.962268,-1.14935 -1.749588,-2.28738 -1.749588,-2.52896 0,-0.70645 -1.183953,-0.97024 -4.354785,-0.97024 -2.801665,0 -3.111489,-0.10416 -5.435356,-1.82578 -1.920818,-1.42308 -2.567188,-2.20764 -2.930569,-3.55709 -0.256404,-0.95222 -0.682206,-2.07721 -0.946195,-2.49995 -0.361623,-0.57901 -0.295139,-1.35641 0.269474,-3.15145 0.871307,-2.77015 1.683624,-4.07061 3.489723,-5.58694 0.716376,-0.60142 2.801219,-2.3729 4.633012,-3.9366 1.831791,-1.5637 3.979278,-3.33517 4.772202,-3.9366 0.792897,-0.60142 1.989354,-1.58888 2.658734,-2.19436 0.669412,-0.60545 2.857242,-2.37694 4.861871,-3.9366 2.004602,-1.55966 4.181726,-3.32782 4.838042,-3.92924 0.65631,-0.60144 1.627377,-1.38876 2.157972,-1.7496 0.530568,-0.36086 1.186583,-0.859811 1.457821,-1.108801 0.271232,-0.24899 1.968176,-1.626813 3.770949,-3.061821 1.802805,-1.434977 3.574288,-2.928509 3.936599,-3.318942 0.362344,-0.390438 2.135015,-1.861769 3.939303,-3.269648 1.804269,-1.407879 3.696218,-2.958315 4.204315,-3.445437 0.508078,-0.487095 1.367707,-1.180908 1.910222,-1.541755 0.542549,-0.360855 2.882465,-2.207325 5.19981,-4.10329 2.317351,-1.895965 4.868143,-3.962666 5.668461,-4.592693 0.80031,-0.630027 1.882895,-1.544584 2.405702,-2.032355 0.522827,-0.487739 1.848923,-1.570322 2.946879,-2.405702 1.097958,-0.835373 2.967837,-2.339515 4.155291,-3.342548 5.167051,-4.364554 8.797278,-7.313055 9.810946,-7.968499 0.600004,-0.387978 1.97783,-1.540844 3.061791,-2.5619 1.08398,-1.021088 2.08838,-1.857629 2.232,-1.858967 0.14358,-0.0013 0.73411,-0.418086 1.31221,-0.926065 0.57808,-0.508 1.92875,-1.639785 3.00146,-2.515061 1.07272,-0.875277 2.27331,-1.886662 2.66801,-2.247517 2.56062,-2.341082 5.14668,-3.488956 7.84749,-3.483228 1.84679,0.0053 4.87714,1.314838 6.23024,2.69516 1.77032,1.806001 2.24186,3.260646 2.21878,6.844777 -0.0199,2.970715 -0.17755,3.643868 -1.23181,5.237082 -0.66542,1.005513 -1.3313,1.829063 -1.47977,1.830099 -0.14854,6.56e-4 -1.24583,0.886785 -2.43858,1.9683 -1.19276,1.081522 -2.29535,1.966417 -2.4502,1.966417 -0.15473,0 -0.8657,0.541282 -1.57971,1.202854 -0.714,0.661572 -1.78031,1.596508 -2.36958,2.077633 -2.39102,1.95233 -10.26962,8.291136 -10.67747,8.590711 -0.24054,0.176806 -1.32311,1.077625 -2.40568,2.002076 -1.08258,0.924452 -2.898377,2.42217 -4.035122,3.328271 -1.136739,0.9061 -2.317719,1.887133 -2.624387,2.180095 -0.463168,0.442435 -3.216432,2.620148 -4.931602,3.900666 -0.240533,0.179535 -1.323144,1.105049 -2.405702,2.056551 -1.082559,0.951483 -2.701118,2.184091 -3.596773,2.739107 -1.405327,0.870842 -1.630113,1.233927 -1.640257,2.64939 -0.0075,0.902131 0.137131,1.64025 0.318846,1.64025 0.181765,0 0.777898,1.03334 1.324579,2.29635 0.54669,1.26299 1.354868,3.08367 1.795937,4.04593 0.441095,0.96229 1.024578,2.24169 1.296637,2.84311 0.272078,0.60144 0.671565,1.38876 0.887749,1.74961 0.745284,1.24409 2.185298,4.60016 3.143599,7.32644 0.528488,1.50356 1.131359,2.73376 1.339684,2.73376 0.208299,0 0.378805,0.44828 0.378805,0.99617 0,0.54791 0.343226,1.48285 0.762696,2.07764 0.7199,1.02076 2.109448,4.40591 2.598479,6.33028 0.122251,0.48115 0.585175,1.66213 1.028679,2.62441 1.65828,3.59816 2.608539,5.90899 2.608539,6.34347 0,0.24649 0.182017,0.78987 0.404284,1.20762 0.22242,0.41773 0.6416,1.69444 0.93164,2.83715 0.29005,1.14271 0.69861,2.07766 0.90793,2.07766 0.20929,0 0.38054,0.60931 0.38054,1.35402 0,0.7447 0.3673,1.87649 0.81624,2.51505 0.44891,0.63856 0.9274,1.75152 1.06326,2.47323 0.53686,2.85155 1.77077,7.50766 2.3358,8.81409 0.32787,0.75808 0.59514,1.6438 0.59395,1.9683 -0.001,0.32451 0.27579,1.47574 0.61554,2.55831 2.0464,6.52076 3.92421,22.14972 2.82102,23.47899 -0.30933,0.37269 -2.6177,0.58395 -7.51723,0.68796 -6.999194,0.14854 -13.281561,0.83222 -15.818865,1.72141 -0.721704,0.25292 -2.394765,0.70782 -3.717908,1.01093 -1.323118,0.3031 -2.897758,0.75334 -3.499198,1.00054 -0.601413,0.24723 -2.164723,0.8833 -3.473978,1.41349 -1.30926,0.53017 -3.375975,1.69768 -4.592693,2.59447 -1.216737,0.89675 -2.656949,1.86706 -3.200507,2.15625 -0.892809,0.47495 -1.029297,0.40785 -1.412814,-0.69469 z M 221.92605,179.20176 c -0.66905,-0.26461 -0.76537,-6.31073 -0.11109,-6.96516 0.2398,-0.23979 0.64085,-1.60766 0.89144,-3.03992 0.25062,-1.43228 0.62468,-2.99781 0.83128,-3.47896 0.76311,-1.77734 2.21583,-6.23263 2.22525,-6.8246 0.004,-0.33615 0.39462,-1.10328 0.86509,-1.70469 0.47043,-0.60142 0.8597,-1.401 0.86504,-1.77679 0.004,-0.37581 0.40339,-1.4981 0.88454,-2.49393 0.48114,-0.99585 0.8748,-2.11539 0.8748,-2.48786 0,-0.37247 0.15722,-0.67722 0.34953,-0.67722 0.19217,0 0.61363,-0.73812 0.93645,-1.64025 0.32278,-0.90215 0.70946,-1.73868 0.85921,-1.85895 0.14977,-0.12026 0.6915,-1.10443 1.20381,-2.18701 2.73078,-5.77017 4.50149,-9.1873 4.98642,-9.62279 0.13391,-0.12026 0.50228,-0.85842 0.81852,-1.64025 0.31625,-0.78187 0.72499,-1.42155 0.90831,-1.42155 0.18325,0 0.4493,-0.34446 0.59108,-0.76545 0.45228,-1.34315 2.00703,-3.80928 2.74609,-4.3558 0.48851,-0.36121 1.76918,-0.44911 4.0459,-0.27758 3.89088,0.29311 12.32443,-0.82481 13.74877,-1.82247 0.51192,-0.35855 1.35798,-0.6519 1.88016,-0.6519 0.52215,0 1.05293,-0.26992 1.17953,-0.59983 0.12671,-0.32989 0.73089,-0.7255 1.34289,-0.8791 1.56025,-0.39159 6.27608,-3.18575 8.36202,-4.95457 0.9623,-0.81599 2.01912,-1.70025 2.3485,-1.96501 0.32938,-0.26476 2.19927,-0.63055 4.15529,-0.81286 1.95602,-0.18226 4.14691,-0.64349 4.86861,-1.02485 0.72171,-0.38136 1.53415,-0.69461 1.80541,-0.69608 0.27126,-0.002 0.73822,-0.29795 1.0377,-0.6588 0.29948,-0.36086 0.88752,-0.6561 1.30677,-0.6561 0.41923,0 1.26271,-0.39366 1.87437,-0.87481 0.61169,-0.48114 1.31952,-0.8748 1.57301,-0.8748 0.25345,0 2.0507,-1.08256 3.99385,-2.4057 1.94316,-1.32312 3.67301,-2.40659 3.84413,-2.40771 0.1711,-0.002 0.90854,-0.56204 1.63867,-1.2465 0.73014,-0.68444 1.8003,-1.49747 2.37815,-1.80674 1.12135,-0.60013 1.6778,-1.02049 3.20446,-2.420861 0.52969,-0.485882 2.14406,-1.795333 3.58747,-2.909909 1.44344,-1.114569 3.60856,-2.924788 4.81141,-4.022693 1.20285,-1.097937 2.33463,-2.002824 2.51506,-2.010855 0.18053,-0.0075 0.32804,-0.820773 0.32804,-1.806052 0,-1.637422 -1.27932,-4.27213 -2.28055,-4.696666 -0.18919,-0.08009 -0.34383,-0.340293 -0.34383,-0.578005 0,-0.933925 -3.64794,-3.648998 -7.75525,-5.772033 -3.5486,-1.834272 -8.02517,-3.10559 -12.58388,-3.573691 -2.71469,-0.27877 -2.93782,-0.368341 -1.9683,-0.790273 1.57452,-0.685152 12.68976,-0.485927 16.62121,0.297922 3.41817,0.681505 7.46457,1.759674 8.96669,2.389189 2.29665,0.962459 5.42096,2.591732 7.04882,3.675852 1.99204,1.326641 8.9163,7.817209 8.9163,8.357841 0,0.188217 0.80874,1.533228 1.79725,2.988864 2.20524,3.247354 4.32634,7.22641 4.32634,8.115944 0,0.363802 0.37268,1.377176 0.82818,2.251936 2.60989,5.01206 4.42631,15.7776 2.98988,17.72037 -0.74605,1.00905 -2.30638,1.05469 -11.90995,0.34836 -7.21569,-0.53068 -19.61409,-0.11406 -25.36921,0.85271 -1.44341,0.24252 -4.29061,0.70271 -6.3271,1.0228 -2.0365,0.32009 -3.77517,0.79932 -3.8637,1.06495 -0.0886,0.26563 -0.63254,0.48296 -1.20886,0.48296 -1.03509,0 -5.53037,1.28106 -8.50203,2.42289 -0.84199,0.3235 -2.00014,0.71967 -2.57363,0.88033 -0.57352,0.16069 -2.18126,0.95939 -3.57279,1.77495 -1.39155,0.81555 -2.63697,1.48283 -2.76763,1.48283 -0.13069,0 -1.83204,1.08573 -3.78084,2.41269 -4.93709,3.36179 -6.16647,4.24668 -7.19036,5.1756 -0.4902,0.44472 -2.00725,1.67428 -3.37124,2.73234 -1.36401,1.05806 -3.04518,2.46566 -3.73597,3.12799 -0.69077,0.66234 -3.39769,3.17258 -6.01539,5.57828 -2.6177,2.4057 -5.99083,5.65338 -7.49586,7.21709 -6.94899,7.22 -8.84201,9.25189 -9.82945,10.55055 -1.67903,2.20829 -4.32612,5.16432 -7.40362,8.26783 -3.71155,3.74283 -6.69372,5.54082 -8.20129,4.94456 z M 10.249063,111.71433 c -1.4064883,-0.33464 -4.0621705,-2.47896 -4.0802461,-3.29459 -0.00522,-0.24128 -0.3946311,-0.93091 -0.8650881,-1.53231 -0.6390801,-0.81703 -0.8577918,-1.78937 -0.8650611,-3.84572 -0.00522,-1.51372 0.1899468,-2.98993 0.4338333,-3.280508 1.1061909,-1.317487 2.6182395,-3.906668 2.6182395,-4.483387 0,-0.349642 -0.6889185,-1.956988 -1.5308991,-3.571854 -0.8419923,-1.614885 -1.5309162,-3.101024 -1.5309162,-3.302578 0,-0.2016 -0.39366,-1.181203 -0.8747847,-2.177045 -0.4811454,-0.995842 -0.8748054,-2.063644 -0.8748054,-2.372871 0,-0.309246 -0.3782799,-1.404035 -0.8406603,-2.432904 -1.41127106,-3.140428 -2.11009046,-4.881456 -2.41866716,-6.025937 -0.1621746,-0.601441 -0.45912514,-1.487156 -0.65988544,-1.9683 -0.2008647,-0.481144 -0.5954175,-2.003211 -0.8770158,-3.382399 -0.2815713,-1.379162 -0.6954453,-2.620969 -0.9196614,-2.759563 -0.2241702,-0.138621 -0.4077198,-0.937095 -0.4077198,-1.774482 0,-0.837387 -0.39366,-2.294138 -0.8747847,-3.237263 -0.4811454,-0.943124 -0.8748054,-2.205066 -0.8748054,-2.804321 0,-0.599282 -0.3031965,-2.230983 -0.673749,-3.62599 -0.7888023,-2.969522 -1.3167927,-6.24827 -2.1693546,-13.471381 -0.3407391,-2.886846 -0.8184654,-5.839309 -1.0616031,-6.561012 -0.6620436,-1.965131 -1.0175194,-20.646037 -0.5118687,-26.9000868 0.2430126,-3.0071428 0.8476479,-8.02630157 1.3433769,-11.1537062 0.4957236,-3.1274127 1.0851372,-6.8671953 1.3097988,-8.310603 0.2246688,-1.443413 0.7111926,-3.608556 1.0812006,-4.811403 0.3700008,-1.202856 0.6748578,-2.746449 0.6774624,-3.430216 0.00261,-0.683762 0.3983967,-1.743658 0.8795421,-2.35534 0.4811247,-0.61165 0.8747847,-1.491539 0.8747847,-1.955303 0,-1.796999 2.75616364,-9.412207 5.2720389,-14.566536 0.4696884,-0.962294 0.8534547,-1.899366 0.8527851,-2.082425 -0.00261,-0.662311 1.9544634,-4.498775 2.7169362,-5.326489 0.4295691,-0.466371 0.7810479,-1.106069 0.7810479,-1.421565 0,-0.315504 0.1968957,-0.573621 0.4374018,-0.573621 0.2405403,0 0.4417659,-0.34446 0.4471263,-0.76545 0.00522,-0.421005 0.3946239,-1.257525 0.86508,-1.858943 0.4704381,-0.601439 0.8597088,-1.413844 0.865062,-1.805397 0.00531,-0.391531 0.30861,-0.95994 0.6739002,-1.263117 0.3652902,-0.303169 0.9614944,-1.163797 1.3248754,-1.912504 1.186485,-2.444507 9.385426,-13.69403 11.917053,-16.350984 0.551518,-0.57885 1.116755,-1.622325 1.256064,-2.318868 0.235081,-1.175958 0.101177,-1.332661 -1.877587,-2.19418 -7.552197,-3.288195 -19.1224806,-3.750939 -25.3130739,-1.012383 -2.5131969,1.111773 -7.5244961,4.819913 -10.1640131,7.520923 -2.576833,2.636849 -3.754387,2.85107 -3.963354,0.72107 -0.08878,-0.905637 0.155728,-1.590111 0.765442,-2.141859 0.492804,-0.445978 0.902108,-1.026416 0.909522,-1.289844 0.01735,-0.579344 4.771389,-5.27028 7.2035968,-7.106514 3.2298228,-2.438352 7.0753437,-4.160934 11.1537063,-4.996188 1.0825587,-0.221688 3.2477013,-0.721629 4.8114054,-1.110933 3.0104875,-0.749475 7.7600755,-0.618489 11.0934765,0.305928 0.929162,0.25767 2.602197,0.630801 3.717888,0.829161 1.115685,0.198378 3.406327,0.778113 5.090326,1.288341 1.683999,0.51021 3.469142,0.829809 3.967003,0.710181 1.11938,-0.268929 5.874498,-4.886721 5.874498,-5.704812 0,-0.813429 -1.218523,-1.971423 -2.074457,-1.971423 -0.384856,0 -1.0105,-0.266958 -1.390296,-0.593253 -0.891869,-0.766215 -5.088666,-1.858995 -11.406844,-2.970171 -7.297275,-1.283364 -14.3069021,-0.756999 -21.51553216,1.61568 -1.2775194,0.420498 -2.42117374,0.901962 -2.54146954,1.06992 -0.231111,0.322812 -1.7070345,1.132641 -4.5926928,2.520162 -0.962289,0.462699 -2.2416903,1.361637 -2.8431054,1.997613 -0.6014331,0.635985 -1.2426261,1.159722 -1.4248841,1.163889 -0.182265,0.0045 -1.629818,1.286946 -3.216779,2.85066 -1.95434,1.925685 -3.22794,2.8431 -3.946995,2.8431 -1.604763,0 -1.688853,-1.05759 -0.250179,-3.147102 3.92829,-5.705433 14.1346603,-13.572639 18.89902904,-14.567598 0.84199946,-0.175824 1.72774076,-0.471078 1.96829996,-0.6561 0.2405331,-0.184977 1.1263005,-0.476847 1.9683,-0.648522 0.8419995,-0.171603 2.0229795,-0.63387 2.6244135,-1.027089 0.9340497,-0.610668 2.5923815,-0.714285 11.3723975,-0.710622 7.958827,0.0036 10.525641,0.141588 11.372128,0.612927 0.60129,0.334764 2.274325,0.856125 3.717909,1.158606 1.443559,0.302472 4.002459,0.96903 5.686465,1.481256 6.631734,2.017116 6.115823,1.973673 8.292395,0.698148 2.628828,-1.54062 3.064893,-3.058722 1.287459,-4.48222 -0.698097,-0.55909 -1.900597,-1.31762 -2.672223,-1.68561 -0.771646,-0.368 -1.512003,-0.84552 -1.645263,-1.06113 -0.133411,-0.21574 -0.830537,-0.52125 -1.549491,-0.67915 -0.718954,-0.15797 -1.307175,-0.41944 -1.307175,-0.58117 0,-0.69816 -7.693422,-4.00975 -9.316495,-4.01022 -0.432935,-1e-4 -1.373853,-0.30361 -2.090945,-0.67441 -3.034194,-1.56906 -16.794939,-1.6179 -19.866675,-0.0704 -0.72171,0.36355 -2.0995065,0.85507 -3.0617955,1.09226 -1.9605123,0.48321 -4.6969416,1.49531 -5.0300964,1.86043 -0.1202697,0.13192 -1.86677456,1.19809 -3.8811006,2.36949 -2.8344042,1.64829 -3.8233044,2.0285 -4.3740009,1.68174 -1.0855836,-0.68356 -1.0929519,-1.75934 -0.017379,-2.63077 0.5328189,-0.43194 1.2847545,-1.08059 1.6709481,-1.44145 2.2103217,-2.06527 11.5211619,-7.05128 14.3454173,-7.68203 0.672908,-0.15027 1.912361,-0.59177 2.754334,-0.98106 2.255035,-1.04261 20.052384,-1.04261 22.307413,0 0.841999,0.38929 2.121375,0.8363 2.843104,0.99334 2.035878,0.44295 8.049842,2.7966 10.716284,4.19396 6.014562,3.15196 6.836175,3.62403 7.724843,4.43843 0.519829,0.47636 1.307149,0.79667 1.749609,0.71177 0.74405,-0.14284 0.82397,-0.90945 1.064279,-10.20913 0.202348,-7.82896 0.457643,-10.92621 1.153358,-13.99138 1.137265,-5.01045 2.209161,-8.4186 2.753489,-8.75503 0.234338,-0.14482 0.426019,-0.66417 0.426019,-1.15412 0,-0.48995 0.351557,-1.41325 0.781224,-2.05181 0.429661,-0.63857 1.053421,-1.70232 1.38613,-2.3639 0.332681,-0.66155 0.768443,-1.20284 0.968364,-1.20284 0.199868,0 0.363506,-0.37726 0.363506,-0.83835 0,-0.4611 0.147542,-0.90396 0.328043,-0.98415 0.180525,-0.0801 1.209376,-1.22836 2.286554,-2.5515 2.230064,-2.73925 4.980698,-5.48163 6.835598,-6.81506 4.971795,-3.57408 6.869275,-4.65927 10.569706,-6.04493 2.54734,-0.95386 2.725118,-0.90672 2.723359,0.72214 -0.0013,1.28692 -0.239548,1.54516 -2.515062,2.72687 -1.382435,0.7179 -3.325344,1.94106 -4.317616,2.71808 -2.996055,2.34621 -8.912187,8.43327 -8.912187,9.16972 0,0.16367 -0.326954,0.6587 -0.726618,1.1003 -0.802915,0.88722 -1.60251,2.19361 -2.361736,3.85868 -1.721863,3.77614 -2.160433,4.92543 -2.160433,5.66144 0,0.45467 -0.167377,0.89227 -0.37166,0.97246 -0.204337,0.0801 -0.729518,1.72044 -1.166875,3.645 -1.023864,4.50531 -1.34469,13.87559 -0.611104,17.84869 0.657405,3.56069 1.50357,4.31699 3.364022,3.00677 0.655227,-0.46146 1.639435,-0.97816 2.187116,-1.14825 1.596809,-0.4959 2.361191,-2.1797 2.741461,-6.03893 0.447794,-4.54446 1.599066,-10.80666 2.169998,-11.80341 0.239298,-0.41773 0.435053,-1.05249 0.435053,-1.41057 0,-1.20325 4.813734,-11.23543 5.923645,-12.34535 0.350534,-0.35054 0.637342,-0.80604 0.637342,-1.01225 0,-0.20632 0.252512,-0.63503 0.561142,-0.9529 0.30863,-0.31791 1.040405,-1.2669 1.626171,-2.1089 0.96757,-1.39087 1.728855,-2.1708 5.904578,-6.04936 3.71228,-3.44809 12.712407,-8.3492 15.422967,-8.39876 0.41845,-0.007 1.14291,-0.3029 1.6099,-0.65609 0.55348,-0.41865 1.88575,-0.64219 3.82724,-0.64219 2.88514,0 2.9782,0.0343 2.9782,1.09349 0,0.75331 -0.24003,1.09351 -0.77194,1.09351 -0.42456,0 -1.5064,0.39366 -2.40409,0.87479 -0.89772,0.48115 -1.83534,0.87481 -2.08364,0.87481 -0.24826,0 -1.90315,0.6889 -3.67748,1.53089 -1.77434,0.84201 -3.42537,1.5309 -3.66901,1.5309 -0.24351,0 -0.50855,0.14754 -0.58875,0.32806 -0.12225,0.27506 -1.87245,1.70218 -4.679133,3.81535 -1.765775,1.32947 -6.061151,6.02363 -6.989538,7.63849 -1.191203,2.07198 -2.183671,3.86624 -2.583204,4.67003 -0.225659,0.45395 -0.637795,1.26825 -0.915922,1.80953 -1.043999,2.03179 -1.276993,2.55392 -1.805455,4.04595 -0.298211,0.842 -0.733606,2.41664 -0.967545,3.4992 -0.23384,1.08257 -0.619989,2.65721 -0.857844,3.4992 -0.549143,1.9438 -1.150609,8.21077 -0.832827,8.6777 0.548375,0.80586 1.772106,0.83421 3.190443,0.0739 0.830249,-0.44495 2.294664,-1.02046 3.254276,-1.27883 1.837736,-0.49488 2.762063,-1.74969 2.762063,-3.74975 0,-0.57591 0.171354,-1.15302 0.380866,-1.28249 0.209539,-0.12944 0.472392,-1.18771 0.584231,-2.35165 0.111832,-1.16394 0.530935,-2.77293 0.931321,-3.57552 0.400378,-0.8026 0.727975,-1.78108 0.727975,-2.1744 0,-0.3933 0.39366,-1.48725 0.874805,-2.43096 0.481144,-0.94375 0.879174,-2.01871 0.884527,-2.38884 0.0052,-0.37013 0.394625,-1.16504 0.865062,-1.76648 0.470457,-0.60142 0.859727,-1.32315 0.86508,-1.60381 0.0052,-0.28065 0.168875,-0.57588 0.363238,-0.65608 0.194409,-0.0801 1.002641,-1.09734 1.795981,-2.26032 4.85467,-7.1165 14.52649,-12.77743 22.35999,-13.08737 2.16558,-0.0856 2.8059,0.0444 3.19788,0.65012 0.71007,1.09709 -0.3679,1.99706 -3.31327,2.76621 -1.33574,0.3488 -2.9914,0.9277 -3.6792,1.28644 -0.68783,0.35872 -1.48257,0.65343 -1.7661,0.65493 -0.28353,0.002 -0.77562,0.2531 -1.0935,0.55916 -0.31789,0.30607 -1.67042,1.2746 -3.0056,2.15234 -2.956,1.9432 -7.14588,7.15189 -8.57127,10.65546 -0.5663,1.3919 -1.02962,2.78777 -1.02962,3.10196 0,0.31416 -0.39291,1.21568 -0.87316,2.00334 -0.54396,0.89216 -0.8738,2.20571 -0.87481,3.48395 -6.6e-4,1.12851 -0.19838,2.17351 -0.43904,2.32219 -0.24054,0.14877 -0.43737,0.84918 -0.43737,1.55671 0,1.20461 0.10885,1.28636 1.71313,1.28636 0.94223,0 1.78494,-0.21549 1.8727,-0.47863 0.0878,-0.26325 0.9407,-0.64385 1.89539,-0.84578 0.95473,-0.20184 3.40892,-0.78253 5.45376,-1.29028 2.04486,-0.50773 5.05846,-1.18232 6.69693,-1.49903 1.63848,-0.31674 3.20327,-0.80012 3.47734,-1.07418 0.27405,-0.27407 0.91509,-0.49828 1.42453,-0.49828 0.50944,0 2.38917,-0.38903 4.17719,-0.86452 3.55492,-0.94535 6.094,-1.13188 6.094,-0.44769 0,0.24054 -0.23062,0.4374 -0.51231,0.4374 -0.28175,0 -0.82302,0.25532 -1.20285,0.56737 -0.3798,0.31204 -1.87152,1.01468 -3.31493,1.56138 -1.44341,0.5467 -3.27078,1.27555 -4.06079,1.61965 -0.79002,0.34408 -1.69483,0.6256 -2.01072,0.6256 -0.31587,0 -1.02823,0.39366 -1.583,0.87482 -0.55475,0.48111 -1.21164,0.87477 -1.45973,0.87477 -0.99919,0 -11.66226,5.28064 -11.66226,5.77549 0,0.19144 -0.28484,0.34812 -0.63295,0.34812 -0.77636,0 -3.87475,1.62486 -6.58058,3.45102 -1.10865,0.74822 -2.153488,1.36171 -2.321836,1.36335 -0.250479,0.004 -4.191646,2.42957 -7.085834,4.36383 -0.360849,0.24128 -1.64025,1.06879 -2.843104,1.83917 -1.202855,0.77039 -2.87589,1.95957 -3.71789,2.64268 -2.132778,1.73026 -2.324733,1.87367 -3.124552,2.33443 -1.875533,1.08043 -11.616899,9.541569 -14.770942,12.829746 -3.101123,3.232998 -6.263794,6.733683 -7.911116,8.756604 -0.842,1.033983 -1.776937,2.139804 -2.077633,2.457405 -0.300717,0.31761 -0.546761,0.688257 -0.546761,0.823635 0,0.209781 -1.835039,2.768335 -3.637097,5.071254 -0.285023,0.364225 -0.813131,1.249968 -1.173612,1.9683 -0.360455,0.718357 -0.754115,1.404499 -0.874804,1.524768 -0.230869,0.230129 -0.969933,1.519171 -1.818276,3.17115 -0.277957,0.541283 -0.671198,1.279403 -0.873867,1.640258 -1.04432,1.859493 -2.994736,6.045152 -2.994736,6.426816 0,0.240529 -0.283192,1.008709 -0.629284,1.707229 -1.772277,3.576862 -3.25135,8.481012 -3.746955,12.423757 -0.19664,1.563712 -0.583207,3.532012 -0.859228,4.374 -1.838964,5.609765 -1.725911,30.4919821 0.165894,36.5228992 0.377317,1.2028545 0.689693,3.17115453 0.694128,4.3740027 0.0052,1.2028545 0.398719,3.4663926 0.876195,5.0300952 0.477451,1.5637025 0.869621,3.3450339 0.871458,3.9584749 0.002,0.613466 0.171105,1.302365 0.376254,1.530897 0.205078,0.228632 0.629312,1.399691 0.942678,2.602546 0.313367,1.202847 0.708732,2.383827 0.87857,2.624387 0.169865,0.240539 0.423198,1.181577 0.562928,2.091121 0.139611,0.909552 0.560722,2.268401 0.935487,3.019668 0.374784,0.751241 0.682154,1.778549 0.683046,2.282854 6.56e-4,0.504331 0.394579,1.561426 0.874804,2.349068 0.480252,0.787667 0.873171,1.716626 0.873171,2.064365 0,0.347707 0.39366,1.333083 0.874804,2.189715 0.481144,0.85663 0.874804,1.769422 0.874804,2.028431 0,0.431897 2.105478,5.243309 3.084038,7.047623 0.228388,0.421007 0.599282,1.109912 0.82437,1.530898 0.22516,0.421006 1.258393,2.582455 2.296344,4.803222 2.492891,5.333865 3.93137,5.790037 7.611515,2.413786 0.983289,-0.902084 3.604711,-3.116376 5.825347,-4.920638 2.220662,-1.804289 4.565439,-3.738051 5.210621,-4.297285 0.645183,-0.559227 2.649286,-2.167151 4.453555,-3.573193 1.804261,-1.406042 4.067826,-3.257471 5.030089,-4.114298 0.962295,-0.856827 1.868048,-1.561616 2.01279,-1.566254 0.144814,-0.0052 0.848049,-0.549662 1.562909,-1.211234 3.466938,-3.208519 8.815878,-6.996709 10.458562,-7.406837 2.140526,-0.534433 6.577956,0.205576 7.341196,1.224158 0.272,0.363033 0.839,0.789301 1.26001,0.947258 0.42098,0.157962 0.76545,0.498458 0.76545,0.756621 0,0.258194 0.39366,0.891967 0.8748,1.408423 0.73002,0.783581 0.87478,1.543574 0.87478,4.592123 0,3.775514 -0.65584,5.471939 -2.71225,7.015408 -0.40915,0.307114 -0.99965,0.800934 -1.31218,1.09736 -0.31255,0.296432 -1.65082,1.421118 -2.97396,2.499288 -1.32314,1.078169 -2.50412,2.066525 -2.62439,2.196341 -0.12027,0.129691 -1.104436,0.914755 -2.18702,1.744301 -1.082558,0.82958 -2.066695,1.620987 -2.186984,1.758716 -0.120269,0.137623 -1.399698,1.15675 -2.843104,2.264502 -1.443414,1.107754 -3.018054,2.379741 -3.499198,2.826617 -0.481151,0.446902 -1.760546,1.49789 -2.843111,2.335572 -1.082559,0.837688 -2.36196,1.884043 -2.843105,2.32529 -0.481118,0.441221 -2.252601,1.918751 -3.9366,3.283433 -1.683972,1.364655 -3.16019,2.585139 -3.28048,2.7122 -0.12027,0.126961 -1.104433,0.9148 -2.187018,1.750579 -1.999169,1.543443 -3.638186,2.916233 -5.600456,4.690741 -0.59854,0.541302 -1.208209,0.984163 -1.35484,0.984163 -0.146553,0 -1.087689,0.738119 -2.091318,1.64025 -1.00363,0.902131 -2.085119,1.838806 -2.403321,2.081523 -3.583389,2.733083 -5.457433,4.249967 -7.899536,6.393983 -1.478101,1.297681 -1.562141,1.365699 -4.270129,3.455528 -1.082558,0.835452 -2.066695,1.627784 -2.186984,1.760724 -0.120269,0.132912 -2.088596,1.744058 -4.374002,3.580258 -2.285413,1.836182 -5.533115,4.47272 -7.217113,5.858999 -1.683973,1.386255 -3.258613,2.682269 -3.499198,2.880056 -9.521264,7.827569 -15.157012,12.265309 -16.249885,12.795549 -1.440067,0.6987 -5.052416,0.81829 -7.45447,0.24673 z M 182.23201,63.55973 c -0.96226,-0.19912 -2.63533,-0.372606 -3.71788,-0.385721 -1.8306,-0.02231 -5.81615,-0.956239 -10.49759,-2.460335 -1.08259,-0.347806 -2.24199,-0.631419 -2.57651,-0.630224 -0.69397,0.0026 -2.05519,-0.593482 -9.59207,-4.199329 -2.96386,-1.418022 -5.70078,-2.922657 -6.08205,-3.343643 -0.38124,-0.421012 -0.93379,-0.765452 -1.22792,-0.765452 -0.29412,0 -0.77978,-0.295239 -1.07926,-0.656113 -0.69622,-0.838903 -3.07982,-0.846835 -4.18105,-0.01489 -0.50702,0.383464 -1.81821,0.642623 -3.25475,0.643272 -2.05385,6.56e-4 -2.61363,-0.187966 -3.82727,-1.292122 -0.78183,-0.711265 -1.42154,-1.405944 -1.42154,-1.543744 0,-0.342006 -2.76241,-3.881253 -3.17114,-4.06292 -0.18052,-0.08009 -0.32805,-0.424634 -0.32805,-0.765445 0,-0.340792 -0.1969,-0.61964 -0.43741,-0.61964 -0.24053,0 -0.4374,-0.210039 -0.4374,-0.466915 0,-0.256778 -0.83652,-1.525045 -1.85894,-2.81833 -1.02242,-1.293317 -3.03993,-4.027214 -4.48336,-6.075361 -1.44341,-2.048147 -2.77201,-3.732343 -2.95244,-3.742657 -0.18052,-0.0099 -0.32805,-0.283488 -0.32805,-0.607044 0,-0.323581 -0.39366,-0.94456 -0.8748,-1.380001 -0.48114,-0.43542 -0.87572,-1.007205 -0.87684,-1.270648 -0.002,-0.263424 -0.55149,-1.069443 -1.22308,-1.791147 -0.67159,-0.72171 -1.88788,-2.29635 -2.70285,-3.499198 -0.815,-1.202854 -1.5932,-2.285413 -1.72935,-2.405702 -0.13614,-0.12027 -0.92666,-1.191445 -1.75663,-2.380363 -1.18966,-1.704108 -1.54769,-2.695358 -1.69146,-4.682954 l -0.18227,-2.5212609 2.08191,-1.9947343 c 1.14504,-1.0971102 2.59509,-2.1170047 3.22233,-2.2664384 0.62725,-0.149525 1.38648,-0.46547 1.6872,-0.7023149 0.61974,-0.4881384 0.70884,-4.75784097 0.15845,-7.5979728 -0.56541,-2.9181168 0.51489,-18.4738737 1.39942,-20.1507007 0.40611,-0.769887 0.73839,-1.969843 0.73839,-2.666549 0,-0.696687 0.30665,-1.881386 0.68141,-2.632627 0.37479,-0.751262 0.79576,-2.110117 0.93551,-3.019661 0.13986,-0.909552 0.39791,-1.850564 0.57376,-2.09112 0.17583,-0.24054 0.5657,-1.200473 0.86635,-2.133111 0.30062,-0.932632 1.11361,-2.535812 1.80659,-3.562623 0.69299,-1.026819 1.25999,-2.201676 1.25999,-2.610783 0,-0.409107 0.34444,-1.267148 0.76546,-1.90675 0.42098,-0.639582 0.96226,-1.480213 1.20284,-1.868041 1.48495,-2.393978 5.11977,-7.388168 6.28249,-8.632101 0.75459,-0.807286 1.372,-1.630562 1.372,-1.829482 0,-0.198879 0.39366,-0.486599 0.8748,-0.639309 0.48115,-0.152749 0.87481,-0.559629 0.87481,-0.904284 0,-0.344638 0.14854,-0.626616 0.32984,-0.626616 0.18151,0 1.55941,-1.18098 3.06222,-2.624416 1.50279,-1.443412 2.87979,-2.629649 3.06,-2.636064 0.18028,-0.0073 1.15872,-0.773558 2.17446,-1.704734 1.01576,-0.931144 2.72208,-2.116708 3.79185,-2.634582 1.06977,-0.517865 2.1819,-1.226971 2.47139,-1.575782 0.28948,-0.348826 0.78344,-0.634222 1.09765,-0.634222 0.31421,0 0.83138,-0.248338 1.14929,-0.551869 0.64193,-0.61287 2.79359,-1.635147 3.44167,-1.635147 0.75676,0 0.4333,1.544613 -0.45798,2.187016 -0.48113,0.346769 -0.87479,0.851804 -0.87479,1.122263 0,0.270468 -0.39366,0.847998 -0.87481,1.283445 -0.48114,0.435416 -0.8748,1.075243 -0.8748,1.421818 0,0.346566 -0.38017,1.164035 -0.84483,1.816587 -1.41832,1.99183 -3.52836,6.307753 -3.54309,7.247135 -0.007,0.487765 -0.29481,1.257873 -0.63813,1.711368 -0.34335,0.453478 -0.75558,1.732873 -0.91608,2.843083 -0.16044,1.110239 -0.43538,2.215431 -0.61088,2.455994 -1.17646,1.612877 -1.87421,7.833725 -1.8643,16.621207 0.01,9.647654 0.87947,17.714699 1.90729,17.714699 0.21252,0 0.38643,0.572946 0.38643,1.273227 0,0.700275 0.39111,2.520959 0.86915,4.045953 0.47803,1.5249982 0.87169,3.1111663 0.8748,3.524863 0.004,0.4136715 0.3993,1.4530059 0.88044,2.3096628 0.48114,0.8566308 0.8748,1.8097929 0.8748,2.1181275 0,0.5258574 1.26222,3.5065134 2.20304,5.202387 0.23185,0.4177125 0.42576,1.008216 0.43108,1.3121802 0.005,0.3039975 0.39465,1.0447677 0.86508,1.6461809 0.47043,0.6014404 0.85974,1.4008594 0.86506,1.7764961 0.004,0.3756302 0.40341,1.1054961 0.88454,1.6219513 0.48114,0.5164292 0.8748,1.2424502 0.8748,1.6133762 0,0.37092 0.16366,0.674392 0.36348,0.674392 0.19986,0 0.63678,0.541276 0.97079,1.202848 0.334,0.661572 1.15457,2.025637 1.82351,3.031267 0.66892,1.005618 1.21622,1.938297 1.21622,2.072653 0,0.134402 0.28383,0.590923 0.63072,1.014685 0.3469,0.423742 1.89322,2.345072 3.43626,4.269656 4.44729,5.546801 7.34708,8.360696 13.64772,13.243489 1.92456,1.491474 3.7227,2.897515 3.99586,3.124533 0.27315,0.227148 2.33987,1.336462 4.59269,2.465413 2.25284,1.128958 4.19448,2.177472 4.31475,2.330002 0.36197,0.459027 4.98907,2.237452 5.82142,2.237452 0.42595,0 1.54608,0.39366 2.48918,0.874805 0.94312,0.481143 2.38744,0.874803 3.20966,0.874803 0.82221,0 2.20151,0.295239 3.06516,0.656094 1.88828,0.788953 11.79265,0.919858 13.70775,0.181018 0.67722,-0.261213 2.11707,-0.640741 3.19963,-0.843383 3.56235,-0.666828 10.80038,-3.49853 11.42482,-4.469695 0.14903,-0.23186 0.60473,-0.353068 1.0125,-0.269258 0.66754,0.137132 0.65424,0.239549 -0.13391,1.027191 -2.0834,2.08239 -8.55154,7.217107 -9.09131,7.217107 -0.17208,0 -0.72589,0.38813 -1.23084,0.862529 -1.27372,1.196601 -8.92029,5.065656 -13.13505,6.646123 -1.92458,0.721683 -5.07386,1.68117 -6.99842,2.132213 -1.92456,0.451016 -4.28652,1.015433 -5.24878,1.254233 -4.67154,1.159355 -14.71535,1.645709 -18.37082,0.889606 z m 41.12908,-33.989458 c 0.84416,-0.601636 4.68675,-6.001911 5.36405,-7.538457 0.59538,-1.350746 1.55715,-3.587253 2.72734,-6.342302 0.20434,-0.481125 0.72055,-2.252608 1.14708,-3.9366 1.15262,-4.5505397 1.12827,-19.0912113 -0.0407,-24.275694 -1.33865,-5.93716 -4.16556,-8.482671 -4.19092,-3.773683 -0.005,1.115094 -0.33678,2.22349 -0.86508,2.89888 -0.47044,0.601433 -0.85973,1.347839 -0.86507,1.658725 -0.0223,1.281559 -5.30819,5.777072 -6.79309,5.777072 -0.55933,0 -1.09924,0.2459844 -1.19984,0.5467536 -0.28915,0.8643663 -5.81991,0.6283737 -8.63802,-0.3685905 -2.64274,-0.9349092 -6.75374,-3.5123391 -8.63613,-5.4145031 -1.758,-1.776419 -3.61107,-4.013298 -3.61107,-4.358952 0,-0.164897 -0.35148,-0.681505 -0.78104,-1.147873 -1.08454,-1.177384 -2.71816,-4.786086 -2.71816,-6.004489 0,-0.555934 -0.19986,-1.210709 -0.44429,-1.455067 -1.21867,-1.218693 -1.24575,-12.562449 -0.0365,-15.258385 0.21573,-0.481119 0.62789,-1.502207 0.91572,-2.269042 0.82538,-2.199036 5.1063,-6.260244 6.59897,-6.260244 0.40279,0 1.43901,-0.295238 2.30265,-0.656093 0.86365,-0.360855 2.4554,-0.656121 3.53724,-0.656121 1.5193,0 2.07352,-0.19912 2.43514,-0.874779 0.2575,-0.481147 0.29504,-0.874807 0.0833,-0.874807 -0.21151,0 -0.95666,-0.491827 -1.65563,-1.092975 -0.69898,-0.601112 -1.42052,-1.093194 -1.60343,-1.093486 -0.18299,-3.06e-4 -1.30322,-0.682823 -2.48961,-1.51671 -1.1864,-0.83392 -2.66062,-1.642575 -3.27602,-1.797034 -0.61542,-0.154491 -1.11894,-0.432985 -1.11894,-0.61897 0,-0.347708 -2.63704,-1.365003 -6.14377,-2.370068 -1.09364,-0.313462 -2.47146,-0.843242 -3.0618,-1.177262 -0.80271,-0.454232 -2.97038,-0.60494 -8.59822,-0.597788 -7.15442,0.0099 -7.49063,-0.02827 -6.82848,-0.759999 1.22963,-1.358726 7.12224,-3.973843 10.34878,-4.592732 5.44298,-1.044049 9.36935,-1.151723 13.84611,-0.379728 4.73702,0.816853 7.07418,1.624682 12.0285,4.157544 7.06519,3.612025 10.28433,6.211177 16.71275,13.494024 3.18149,3.604336 4.93855,5.941947 4.93855,6.570287 0,0.213006 0.39366,0.743573 0.8748,1.178997 0.48114,0.435417 0.8748,1.154838 0.8748,1.59869 0,0.443851 0.17384,0.80701 0.38605,0.80701 0.37454,0 1.81956,2.767021 3.31211,6.342307 0.40171,0.962267 1.11233,2.536907 1.57912,3.499195 0.46681,0.962263 0.8482,2.070022 0.84753,2.461621 -6.6e-4,0.391626 0.32985,1.474185 0.73448,2.405702 0.40464,0.931519 0.88282,2.776229 1.06262,4.099373 0.17978,1.323144 0.63208,4.078764 1.00514,6.123611 0.8695,4.7662525 0.86477,10.5445837 -0.0124,15.5276893 -0.38128,2.1651426 -0.83799,4.8223415 -1.01489,5.9049 -0.28892,1.7680324 -1.232,4.3277267 -2.25611,6.1236107 -0.20582,0.360855 -1.00709,1.886274 -1.78067,3.389839 -0.77359,1.503572 -1.56546,2.733753 -1.75978,2.733753 -0.19441,0 -0.35326,0.222929 -0.35326,0.495453 0,0.272472 -0.34842,0.813781 -0.77425,1.202848 -0.42583,0.389074 -1.34011,1.396299 -2.03169,2.238298 -1.32044,1.607596 -5.27017,4.6527 -7.59274,5.853744 -1.35255,0.699435 -3.37392,1.001694 -2.49113,0.372507 z M 259.20644,8.8969095 c -0.153,-0.2477239 -0.33339,-4.3318933 -0.40069,-9.07605517 -0.0675,-4.74415383 -0.27129,-9.06620583 -0.45323,-9.60458223 -0.42723,-1.2640021 0.79545,-1.8205061 1.86775,-0.8500811 1.10048,0.9959126 10.23265,5.5459337 11.13201,5.546426 0.42098,2.232e-4 0.76544,0.1688733 0.76544,0.3749607 0,0.382428 4.16053,1.5754338 8.09189,2.3203314 1.20284,0.2278827 4.94263,0.428571 8.3106,0.4459302 5.65529,0.029268 7.87133,-0.2425203 13.3407,-1.6349481 0.91511,-0.2330991 0.7724,0.00991 -0.87477,1.4962554 -1.0826,0.9760797 -3.00383,2.32374873 -4.26943,2.99484183 -1.2656,0.67107147 -3.33232,1.77457947 -4.59269,2.45222547 -2.84304,1.5285618 -6.13084,2.7761758 -8.37452,3.17782 -0.93989,0.1683755 -2.21928,0.5722245 -2.84307,0.8977416 -0.62381,0.325518 -1.74915,0.5930553 -2.50075,0.5945449 -0.75163,0.0013 -2.20339,0.2979415 -3.22617,0.6587965 -2.22148,0.7837973 -15.51005,0.9549997 -15.97307,0.2058186 z m 40.07291,-34.1842935 c 0.28105,-0.525162 1.1921,-1.902887 2.02456,-3.061599 2.03796,-2.836681 4.931,-8.596098 4.931,-9.816502 0,-0.542894 0.17904,-1.097736 0.39793,-1.233002 0.21896,-0.135397 0.62161,-1.672318 0.89496,-3.415657 0.27338,-1.743359 0.71098,-4.469775 0.97247,-6.058696 0.7126,-4.330231 -0.72514,-20.486462 -1.88696,-21.204519 -0.20806,-0.128709 -0.38465,-0.665099 -0.39231,-1.19219 -0.007,-0.527067 -0.29673,-1.332004 -0.64242,-1.788691 -0.94821,-1.252697 -1.96558,-0.179293 -1.97777,2.086747 -0.005,1.115127 -0.33678,2.223498 -0.8651,2.898917 -0.47043,0.601425 -0.85972,1.401689 -0.86505,1.778363 -0.0149,1.097663 -3.77182,4.551285 -6.39178,5.876866 -2.27873,1.152954 -2.63408,1.205296 -6.58139,0.969789 -2.90253,-0.173073 -4.40431,-0.458598 -4.93378,-0.937786 -0.41864,-0.378861 -0.97808,-0.688848 -1.24315,-0.688848 -2.21621,0 -10.3461,-7.920091 -11.33692,-11.044326 -0.1334,-0.421006 -0.3953,-0.765474 -0.58171,-0.765474 -0.18648,0 -0.47392,-0.541275 -0.63882,-1.20285 -0.1649,-0.661552 -0.5552,-1.793322 -0.86729,-2.515032 -2.13291,-4.932198 -2.01464,-14.325579 0.23682,-18.8082 1.2238,-2.436543 3.88841,-5.336586 5.91124,-6.433476 1.21121,-0.65682 2.84093,-0.99854 5.63593,-1.18186 3.19171,-0.20928 3.9581,-0.39494 4.07083,-0.98595 0.0815,-0.42847 -0.23137,-0.84559 -0.76085,-1.01363 -0.49482,-0.15698 -0.89967,-0.45305 -0.89967,-0.65779 0,-0.20482 -0.73812,-0.82078 -1.64025,-1.36899 -0.90213,-0.54821 -1.73866,-1.12982 -1.85895,-1.29247 -0.38838,-0.52518 -8.98055,-4.78053 -9.65258,-4.78053 -0.35771,0 -1.03863,-0.2706 -1.51315,-0.60129 -0.47452,-0.3307 -1.7485,-0.74558 -2.83109,-0.92197 -1.08256,-0.17631 -3.14632,-0.61793 -4.58616,-0.98124 -2.59461,-0.6547 -4.73331,-0.60396 -10.17607,0.24128 -1.26298,0.19614 -2.29128,0.24425 -2.28507,0.10712 0.0149,-0.33861 3.73659,-2.77377 5.89362,-3.85671 3.98742,-2.00191 6.67196,-2.49353 13.35742,-2.44606 7.23638,0.0514 9.06347,0.45127 15.94837,3.49079 4.15609,1.83482 10.67973,6.17155 13.75521,9.14409 4.68556,4.52876 10.0831,11.145676 10.0831,12.361054 0,0.227889 0.29116,0.656019 0.64703,0.951354 0.35587,0.295371 0.91014,1.057563 1.23174,1.693818 0.32158,0.636255 0.79955,1.550493 1.06215,2.031633 1.58024,2.89539 3.79406,7.62588 4.09396,8.748009 0.19292,0.72171 0.7794,2.788398 1.30335,4.592691 0.52396,1.804257 1.1091,4.559879 1.30031,6.123592 0.1912,1.563697 0.65668,3.728844 1.03441,4.8114 1.01889,2.920374 0.92943,10.116155 -0.17532,14.102902 -0.48115,1.736243 -0.87481,3.738164 -0.87481,4.44869 0,2.255104 -3.83535,11.990279 -4.89738,12.430901 -0.19319,0.08009 -0.35166,0.375458 -0.35195,0.656123 -3e-4,0.280649 -0.44316,1.025316 -0.98415,1.654807 -0.54099,0.629477 -1.47569,1.792415 -2.07712,2.584318 -1.31534,1.731907 -1.77865,2.193532 -3.06179,3.050859 -0.54009,0.360855 -1.2039,0.857693 -1.47517,1.104084 -1.11278,1.010841 -4.83996,3.269917 -5.3949,3.269917 -0.47763,0 -0.49466,-0.190197 -0.0856,-0.954802 z m -83.36752,-52.311177 c -1.20285,-0.654678 -2.28541,-1.31148 -2.40571,-1.459611 -0.35496,-0.437076 -3.70473,-2.059254 -5.75486,-2.786904 -5.66271,-2.009817 -8.35017,-2.848716 -9.12595,-2.848716 -0.61161,0 -0.86559,-0.295155 -0.86559,-1.006002 0,-0.553311 0.17211,-1.193013 0.38243,-1.421541 0.21029,-0.228645 0.81802,-1.793358 1.35043,-3.477357 1.31807,-4.168953 5.2952,-12.053008 7.07497,-14.024978 0.44824,-0.49665 0.81496,-1.13634 0.81496,-1.42155 0,-0.28521 0.15448,-0.51855 0.34311,-0.51855 0.1887,0 0.71927,-0.63972 1.17903,-1.42155 1.20204,-2.04406 7.42323,-8.13958 11.38119,-11.15123 2.34323,-1.78301 8.16236,-5.36062 8.71923,-5.36062 0.56288,0 0.17061,1.04769 -1.06476,2.84309 -0.7217,1.04897 -1.31217,2.21622 -1.31217,2.59386 0,0.37766 -0.1592,0.68665 -0.35372,0.68665 -0.50661,0 -3.14551,5.0437 -3.14551,6.012 0,0.44628 -0.16788,0.99841 -0.37291,1.22697 -0.20506,0.22863 -0.62575,1.35553 -0.93478,2.50445 -0.30905,1.14889 -0.73173,2.19388 -0.9393,2.32216 -0.20756,0.1282 -0.3774,0.97812 -0.3774,1.88856 0,0.9104 -0.39999,2.81788 -0.88887,4.23882 -0.79485,2.31035 -0.88576,3.62408 -0.85972,12.425036 0.0362,12.222198 0.0607,11.37474 -0.32907,11.359863 -0.18051,-0.0072 -1.31218,-0.548199 -2.51503,-1.20285 z"
             id="path5689"
             inkscape:connector-curvature="0" />
        </g>
      </g>
    </g>
  </g>
</svg>
