<?xml version="1.0" encoding="UTF-8" standalone="no"?>
<!-- Created with Inkscape (http://www.inkscape.org/) -->

<svg
   xmlns:dc="http://purl.org/dc/elements/1.1/"
   xmlns:cc="http://creativecommons.org/ns#"
   xmlns:rdf="http://www.w3.org/1999/02/22-rdf-syntax-ns#"
   xmlns:svg="http://www.w3.org/2000/svg"
   xmlns="http://www.w3.org/2000/svg"
   xmlns:sodipodi="http://sodipodi.sourceforge.net/DTD/sodipodi-0.dtd"
   xmlns:inkscape="http://www.inkscape.org/namespaces/inkscape"
   width="210mm"
   height="297mm"
   viewBox="0 0 210 297"
   version="1.1"
   id="svg8"
   inkscape:version="0.92.2 5c3e80d, 2017-08-06"
   sodipodi:docname="minnie.svg">
  <defs
     id="defs2">
    <clipPath
       id="clipPath45"
       clipPathUnits="userSpaceOnUse">
      <path
         inkscape:connector-curvature="0"
         id="path43"
         d="M 0,864 H 864 V 0 H 0 Z" />
    </clipPath>
    <clipPath
       id="clipPath3854"
       clipPathUnits="userSpaceOnUse">
      <path
         inkscape:connector-curvature="0"
         id="path3852"
         d="M 0,864 H 864 V 0 H 0 Z" />
    </clipPath>
    <clipPath
       id="clipPath4053"
       clipPathUnits="userSpaceOnUse">
      <path
         inkscape:connector-curvature="0"
         id="path4051"
         d="M 0,864 H 864 V 0 H 0 Z" />
    </clipPath>
    <clipPath
       id="clipPath4150"
       clipPathUnits="userSpaceOnUse">
      <path
         inkscape:connector-curvature="0"
         id="path4148"
         d="M 0,864 H 864 V 0 H 0 Z" />
    </clipPath>
    <clipPath
       id="clipPath4295"
       clipPathUnits="userSpaceOnUse">
      <path
         inkscape:connector-curvature="0"
         id="path4293"
         d="M 0,864 H 864 V 0 H 0 Z" />
    </clipPath>
    <clipPath
       id="clipPath4410"
       clipPathUnits="userSpaceOnUse">
      <path
         inkscape:connector-curvature="0"
         id="path4408"
         d="M 0,864 H 864 V 0 H 0 Z" />
    </clipPath>
    <clipPath
       id="clipPath4615"
       clipPathUnits="userSpaceOnUse">
      <path
         inkscape:connector-curvature="0"
         id="path4613"
         d="M 0,864 H 864 V 0 H 0 Z" />
    </clipPath>
    <clipPath
       id="clipPath4838"
       clipPathUnits="userSpaceOnUse">
      <path
         inkscape:connector-curvature="0"
         id="path4836"
         d="M 0,864 H 864 V 0 H 0 Z" />
    </clipPath>
    <clipPath
       id="clipPath5001"
       clipPathUnits="userSpaceOnUse">
      <path
         inkscape:connector-curvature="0"
         id="path4999"
         d="M 0,864 H 864 V 0 H 0 Z" />
    </clipPath>
    <inkscape:perspective
       id="perspective9"
       inkscape:persp3d-origin="372.04724 : 350.78739 : 1"
       inkscape:vp_z="744.09448 : 526.18109 : 1"
       inkscape:vp_y="0 : 1000 : 0"
       inkscape:vp_x="0 : 526.18109 : 1"
       sodipodi:type="inkscape:persp3d" />
  </defs>
  <sodipodi:namedview
     id="base"
     pagecolor="#000000"
     bordercolor="#666666"
     borderopacity="1.0"
     inkscape:pageopacity="0"
     inkscape:pageshadow="2"
     inkscape:zoom="0.91846942"
     inkscape:cx="396.85039"
     inkscape:cy="556.87007"
     inkscape:document-units="mm"
     inkscape:current-layer="g5136"
     showgrid="false"
     inkscape:window-width="2560"
     inkscape:window-height="1385"
     inkscape:window-x="2560"
     inkscape:window-y="27"
     inkscape:window-maximized="1"
     showguides="true"
     inkscape:guide-bbox="true">
    <sodipodi:guide
       position="105.43356,205.96993"
       orientation="1,0"
       id="guide3815"
       inkscape:locked="false" />
    <sodipodi:guide
       position="92.758485,149.50825"
       orientation="0,1"
       id="guide3817"
       inkscape:locked="false" />
  </sodipodi:namedview>
  <metadata
     id="metadata5">
    <rdf:RDF>
      <cc:Work
         rdf:about="">
        <dc:format>image/svg+xml</dc:format>
        <dc:type
           rdf:resource="http://purl.org/dc/dcmitype/StillImage" />
        <dc:title></dc:title>
      </cc:Work>
    </rdf:RDF>
  </metadata>
  <g
     inkscape:label="Layer 1"
     inkscape:groupmode="layer"
     id="layer1">
    <g
       transform="matrix(0.35277777,0,0,-0.35277777,-70.777455,287.43463)"
       inkscape:label="1"
       id="g37">
      <g
         id="g39">
        <g
           id="g5136"
           transform="matrix(0.75000002,0,0,-0.75000002,342.50983,505.50165)"
           style="fill:#ffeeaa">
          <path
             style="fill:#ffeeaa;stroke-width:0.60000002"
             d="m 197.54478,423.6565 c -30.34746,-3.09985 -52.2867,-9.08945 -77.40002,-21.13105 -30.861081,-14.7976 -58.201001,-36.26416 -78.694676,-61.78896 -9.500697,-11.83309 -14.004999,-19.80305 -16.96545,-30.01887 -3.003633,-10.36497 -1.585719,-24.37184 2.79279,-27.58854 1.370322,-1.00673 1.877877,-1.08772 3.158838,-0.50408 2.608398,1.18848 3.029958,3.08435 1.559556,7.01429 -3.468726,9.27106 -1.435401,20.19137 6.177528,33.17692 3.91743,6.68205 14.445162,19.5861 22.863825,28.02462 28.566665,28.63402 64.322379,49.35117 102.007569,59.10407 8.19637,2.12115 9.40604,2.35738 23.40001,4.56851 9.52071,1.50432 11.51869,1.61344 30.00003,1.63793 20.79852,0.0272 22.47229,-0.1313 39.89999,-3.78673 5.50963,-1.15565 19.63165,-5.73078 20.66998,-6.69648 0.31362,-0.29152 0.92849,-0.5301 1.36661,-0.5301 1.37863,0 13.97327,-5.98228 21.16341,-10.05237 27.97036,-15.833 54.41731,-40.40724 74.73985,-69.44761 8.34597,-11.92616 10.51403,-15.88022 13.19511,-24.06481 1.86396,-5.69026 2.06313,-6.95785 2.04544,-13.0196 -0.017,-5.26972 -0.28506,-7.42611 -1.25253,-10.01559 -2.05714,-5.50593 -2.08724,-6.83023 -0.18913,-8.32336 3.07833,-2.4214 5.51076,-0.64636 7.53371,5.4977 1.25157,3.80129 1.41665,5.38027 1.36182,13.02565 -0.0544,7.57106 -0.26839,9.38349 -1.65071,13.96724 -2.25066,7.46347 -5.50968,13.93626 -11.597,23.03275 -32.1063,47.97768 -76.08537,81.44152 -122.78205,93.42537 -9.12255,2.34113 -12.74608,2.99682 -23.50458,4.25299 -8.54347,0.99755 -31.15247,1.13364 -39.9,0.24015 z m 2.09999,-22.78289 c -12.7191,-1.83559 -24.86609,-4.61686 -33,-7.55588 -2.31001,-0.83465 -5.27999,-1.90642 -6.60002,-2.38172 -5.68875,-2.04826 -19.75716,-9.44767 -26.39999,-13.88533 -11.05464,-7.38489 -23.19996,-18.18543 -31.59899,-28.10021 -6.698899,-7.90781 -13.661641,-18.69195 -18.578341,-28.77467 -3.022542,-6.19838 -3.882834,-7.47196 -5.596785,-8.28528 -2.382057,-1.13034 -4.088043,-0.67293 -6.280461,1.68385 -0.844199,0.90751 -2.103092,1.562 -3.000023,1.55972 -3.052467,-0.007 -7.232697,-4.06975 -7.241436,-7.0366 -0.0072,-2.40712 2.935764,-4.89779 6.596028,-5.58249 7.333793,-1.37189 12.758759,1.41811 14.867702,7.64623 2.556999,7.55142 21.005496,28.51669 35.690546,40.55945 18.08423,14.83033 38.13444,24.75776 61.34175,30.37206 13.08705,3.16601 20.23709,3.93585 36.60003,3.94069 16.95892,0.004 20.44088,-0.41278 35.39998,-4.24769 14.58027,-3.73778 28.76773,-9.94171 41.39999,-18.10355 14.46408,-9.34535 30.79871,-26.33955 39.06634,-40.64369 0.95352,-1.64972 2.21408,-3.80972 2.80122,-4.79999 1.20161,-2.02652 4.212,-8.21355 6.91058,-14.20273 2.47263,-5.48776 5.28621,-7.39774 10.89749,-7.39774 8.27402,0 12.30036,4.09603 8.90182,9.05591 -2.56159,3.73843 -6.5164,4.92153 -8.63303,2.58267 -0.62786,-0.69378 -1.89821,-1.65269 -2.82296,-2.13091 -3.36029,-1.73769 -5.86429,0.38135 -7.98571,6.75805 -2.52187,7.5802 -6.57304,16.31711 -11.2169,24.19074 -17.7738,30.13536 -46.91156,51.29928 -83.81885,60.88101 -15.41451,4.00185 -35.56874,5.64886 -47.69998,3.8981 z m 9.89998,-43.14493 c -13.81186,-2.31787 -20.9007,-5.05427 -28.83699,-11.13155 -13.29686,-10.18217 -14.98751,-26.14512 -3.97634,-37.54407 6.27182,-6.49272 14.44887,-10.71057 26.21336,-13.52129 6.31573,-1.50894 22.34395,-1.46359 29.06563,0.0824 6.14454,1.41308 13.61712,4.35846 18.34677,7.2316 10.89538,6.61859 17.06594,17.86284 15.02503,27.37925 -2.74214,12.78611 -14.65898,22.37865 -32.73743,26.35227 -6.20081,1.36291 -18.25871,1.964 -23.10003,1.15157 z m -38.3863,-71.96505 c -0.95846,-1.79089 -0.10238,-2.68173 4.08213,-4.24734 11.6126,-4.34483 24.32133,-6.56395 40.02799,-6.98945 11.21476,-0.30376 13.52521,-0.19389 20.69999,0.98339 13.03772,2.13956 27.67034,6.45759 28.99396,8.55595 1.03789,1.64544 -0.65973,3.0606 -3.19285,2.66163 -18.97347,-2.98835 -30.27732,-3.97463 -45.62492,-3.98093 -16.12904,-0.007 -29.69625,1.24798 -42.39467,3.92032 -1.56133,0.32859 -2.01727,0.16974 -2.59163,-0.90357 z M 76.944769,268.47931 c -9.405008,-4.77176 -18.854999,-9.34561 -20.999996,-10.16414 -7.341003,-2.80123 -14.550579,-1.14715 -17.615601,4.04159 -0.59976,1.01526 -1.39185,1.74548 -1.760247,1.62268 -1.239255,-0.41308 -5.480649,-19.08106 -6.984486,-30.74139 -5.269374,-40.85744 3.401613,-79.89528 24.257277,-109.20929 5.50548,-7.73832 15.532443,-17.35576 29.291165,-28.09487 l 5.888124,-4.595832 h 4.997043 c 5.611644,0 14.705622,-1.648035 21.105512,-3.824802 3.71969,-1.265148 31.67829,-15.138333 45.52121,-22.587813 9.66921,-5.203458 21.04373,-11.591001 22.6817,-12.73734 1.90137,-1.330659 2.25334,-1.294668 10.61828,1.085346 5.25172,1.494207 6.573,1.623132 16.8,1.639116 11.43995,0.01701 14.16107,-0.349272 22.66283,-3.057876 l 3.76282,-1.198791 5.23717,2.712321 c 2.88045,1.491759 8.20718,4.26186 11.83721,6.155757 3.62998,1.893897 10.10998,5.273496 14.39999,7.510203 4.28999,2.236671 10.63498,5.554395 14.1,7.372674 16.97821,8.909442 23.45239,12.046815 27.30175,13.230459 5.42633,1.668474 9.9391,2.50074 13.56008,2.50074 2.72764,0 3.25234,0.285048 8.92566,4.848462 10.22905,8.227936 21.49156,19.805776 26.2175,26.951536 14.78579,22.35664 24.08366,45.16805 28.00186,68.7 3.15574,18.95259 2.51693,35.59983 -2.10665,54.89999 -1.57957,6.59344 -2.24083,7.32965 -4.40348,4.90246 -2.38175,-2.67314 -5.34877,-3.91147 -8.25733,-3.44638 -2.63666,0.42162 -11.6408,5.4831 -29.69554,16.69275 -6.81911,4.23377 -11.92256,7.03425 -12.45,6.83183 -1.34618,-0.51657 -1.09728,-2.29903 1.12449,-8.05327 3.52648,-9.13319 6.56899,-20.13327 8.17905,-29.57084 2.52655,-14.80953 2.60867,-15.87206 2.63977,-34.15654 0.0306,-18.90466 0.0102,-19.153 -2.87706,-32.45776 -2.80548,-12.92836 -9.37899,-28.60595 -16.87956,-40.2573 -9.63306,-14.96383 -24.04233,-28.792695 -39.58056,-37.986231 -10.89613,-6.446898 -22.37454,-10.950723 -31.35,-12.300804 -8.28478,-1.246239 -18.24728,0.940734 -25.54171,5.606946 -5.3284,3.408552 -11.49579,9.673911 -15.21107,15.452811 -2.08539,3.243708 -3.83099,5.342348 -4.44365,5.342348 -0.55496,0 -2.03012,-1.2825 -3.27816,-2.850014 -8.31511,-10.443582 -15.14112,-15.320178 -25.89092,-18.496917 -10.64026,-3.144339 -24.41639,-1.649997 -35.80756,3.884229 -13.38703,6.503913 -28.76501,18.682332 -37.96072,30.062672 -0.93329,1.15501 -1.86202,2.23501 -2.06387,2.40002 -0.968769,0.79196 -8.665713,12.69434 -11.00538,17.01845 -5.423814,10.0242 -10.347966,27.48667 -12.627738,44.78153 -2.214729,16.80167 -0.632655,43.12013 3.498588,58.20003 0.497241,1.81497 1.311651,4.78499 1.80981,6.59997 1.913319,6.97078 5.524326,16.22143 9.602712,24.60002 3.563244,7.32029 3.806217,8.11283 2.619684,8.54441 -0.412506,0.15001 -8.445015,-3.63138 -17.849997,-8.40315 z m 78.159031,-3.79986 c -1.60483,-0.59364 -2.59778,-2.48808 -4.52933,-8.64139 -4.01433,-12.78822 -5.77506,-23.73504 -6.22464,-38.70003 -0.46456,-15.46247 0.6997,-28.20368 3.4814,-38.09998 1.2808,-4.55668 3.6953,-11.40708 4.80265,-13.6261 0.611,-1.22436 1.11089,-2.60628 1.11089,-3.07094 0,-0.46462 -1.76797,-1.87876 -3.92882,-3.14244 -4.76173,-2.78477 -9.2712,-7.40163 -9.2712,-9.49196 0,-1.65623 1.18491,-3.09247 3.03598,-3.67999 0.86362,-0.27417 2.1865,0.2694 4.45052,1.82878 2.76517,1.90444 8.25324,3.84001 10.98232,3.87328 1.46322,0.017 1.43074,-1.74018 -0.0688,-3.71129 -3.68186,-4.84038 -6.78206,-13.91435 -7.07725,-20.71437 -0.16021,-3.69513 1.10167,-5.56497 3.75616,-5.56497 2.11973,0 3.10125,1.51108 4.09217,6.29998 0.40971,1.98003 1.58588,5.32826 2.61373,7.44054 1.91485,3.93514 7.14416,10.25945 8.48309,10.25945 0.57051,0 0.68562,-1.74184 0.48574,-7.34998 -0.29662,-8.31876 0.7246,-13.79634 2.908,-15.6 1.62277,-1.34052 2.4687,-1.32246 4.21303,0.0902 1.32708,1.07459 1.41107,1.54778 1.4641,8.25001 0.0728,9.18822 1.25787,14.36243 5.11437,22.32854 3.57254,7.37962 9.48475,20.7509 10.91304,24.68142 5.78226,15.9123 8.58782,39.13736 7.06673,58.50002 -0.38887,4.95 -0.98614,9.27 -1.32729,9.59999 -0.41839,0.40475 -0.9434,0.11701 -1.61306,-0.88441 -3.96545,-5.92922 -8.49707,-9.7763 -13.27019,-11.26558 -6.60654,-2.06135 -14.16406,0.18335 -19.37561,5.75489 -4.69672,5.0212 -6.9102,10.74649 -7.27614,18.82013 -0.23844,5.25788 -1.75705,7.02041 -5.01181,5.81639 z m 111.23395,-4.63866 c -0.54616,-0.60347 -0.99299,-2.07519 -0.99299,-3.27048 0,-3.66165 -1.21838,-8.32576 -3.34675,-12.81162 -3.6009,-7.58946 -11.0214,-12.82064 -18.18624,-12.82064 -7.14687,0 -14.26634,4.46879 -18.09178,11.35592 -2.15732,3.88392 -2.75876,3.71626 -3.5005,-0.97587 -3.39854,-21.49768 -2.20299,-44.83936 3.26674,-63.78004 2.07346,-7.18011 3.04206,-9.53285 9.89473,-24.03438 5.24456,-11.09838 6.15472,-14.77973 6.21601,-25.14215 l 0.0476,-8.07651 1.64999,-0.92349 c 1.48299,-0.83001 1.81702,-0.83039 3.30001,-0.004 2.57462,1.43499 3.84068,7.2973 3.59162,16.63038 -0.14014,5.25413 6.1e-4,7.34998 0.49408,7.34998 1.37145,0 6.71229,-6.41082 8.50768,-10.21207 1.00996,-2.13837 2.17241,-5.50793 2.58325,-7.48792 1.0147,-4.89049 1.96111,-6.29999 4.23007,-6.29999 2.6667,0 3.54332,1.21405 3.54332,4.90734 0,6.69114 -2.68779,15.34445 -6.34905,20.44062 -2.65652,3.69771 -2.65108,4.65202 0.0272,4.65202 2.95567,0 7.97966,-2.04408 11.05693,-4.49865 2.97468,-2.3727 3.45957,-2.47887 5.33207,-1.16731 0.97924,0.68589 1.33352,1.53828 1.33352,3.20867 0,1.99005 -0.43571,2.69023 -3.48236,5.59627 -1.91533,1.82688 -4.88531,4.03253 -6.60001,4.90143 -1.71471,0.86889 -3.11765,1.97219 -3.11765,2.45175 0,0.47959 0.77556,2.43254 1.72348,4.3399 10.39239,20.91152 12.75148,58.13785 5.48453,86.54609 -1.5019,5.87133 -2.74974,9.08609 -3.7813,9.74164 -1.30103,0.82682 -3.81779,0.50558 -4.8337,-0.61701 z M 408.14478,111.40853 c -10.24378,-1.04047 -17.0055,-2.31796 -26.70002,-5.04436 -3.58863,-1.00924 -10.99378,-3.50712 -11.88955,-4.01055 -0.5046,-0.2837 -4.58444,-4.000908 -9.06629,-8.260734 -4.48188,-4.259826 -8.6878,-8.122653 -9.34651,-8.584002 -1.7511,-1.226547 -1.48281,-2.244123 1.13898,-4.320648 3.42423,-2.712042 8.69967,-9.893997 11.12774,-15.149259 3.46655,-7.502886 4.70993,-13.790358 4.72646,-23.900922 0.007,-4.784991 -0.32315,-10.32 -0.73549,-12.299991 -1.16177,-5.578587 -5.56766,-24.3730349 -9.12594,-38.9288789 -1.28118,-5.2408801 -2.32941,-10.3091581 -2.32941,-11.2628521 0,-0.953703 0.65042,-2.740725 1.44536,-3.971142 3.18201,-4.925169 23.4856,-40.909144 25.29888,-44.83714 2.8666,-6.209685 6.43068,-18.761904 6.9849,-24.599988 l 0.17075,-1.800009 10.2,0.06804 c 12.14359,0.08091 17.60856,0.907839 33,4.992453 6.90374,1.832157 23.06479,9.543798 30.48203,14.545305 11.38697,7.678269 24.32129,19.559088 29.93219,27.494145 8.582,12.136855 15.50281,29.360083 18.84356,46.8944951 1.52585,8.00883 1.34111,26.0173799 -0.35271,34.3825379 -4.20063,20.745141 -13.09738,37.413168 -28.7928,53.943324 -14.28875,15.048736 -31.1143,22.812456 -54.04404,24.937286 -8.21443,0.7612 -11.02624,0.72269 -20.96823,-0.2871 z M -5.2552368,106.57552 C -45.100263,98.842105 -71.512106,78.598918 -83.848631,46.338049 c -4.512087,-11.79942 -6.308523,-21.61293 -6.260526,-34.200015 0.160551,-42.1083 21.358145,-76.631323 58.865204,-95.869336 14.110077,-7.237332 26.2645842,-11.178909 40.3887081,-13.097664 7.9825769,-1.084455 24.9857549,-1.671705 29.6999999,-1.025811 l 3.600018,0.493227 0.165996,3.599784 c 1.002177,21.716163 8.691507,43.376544 23.697144,66.753562 2.941884,4.583079 3.493107,5.841459 3.154005,7.199973 -0.225864,0.905472 -2.408148,5.604777 -4.849146,10.4429701 -6.718689,13.316724 -11.564469,26.4173489 -14.116473,38.1640769 -1.771569,8.154459 -2.234934,22.873542 -0.899406,28.571253 1.760859,7.512444 6.837876,15.865758 13.468743,22.160475 2.023461,1.92087 3.679002,3.725271 3.679002,4.009806 0,0.284715 -1.276272,1.547928 -2.836098,2.807532 -3.126762,2.524851 -3.636864,2.953755 -10.864494,9.135027 -7.618131,6.515241 -9.763398,7.361621 -25.299414,9.981441 -5.002155,0.84352 -30.0359744,1.68644 -33.0000047,1.11117 z M 83.837752,75.17935 C 76.108561,72.426385 69.951203,67.235311 66.33791,60.425668 59.417684,47.383687 64.2203,23.247679 79.771993,-7.0884859 l 4.07277,-7.9445791 v -5.810022 c 0,-5.440752 -0.114291,-5.985855 -1.800009,-8.576766 -6.468777,-9.943011 -9.333144,-14.75181 -12.414563,-20.842096 -10.621179,-20.992248 -14.149899,-39.175191 -10.747476,-55.379681 2.879433,-13.71376 9.699147,-21.36642 22.862051,-25.65441 6.407955,-2.08744 18.230328,-2.1118 26.100014,-0.0537 7.5937,1.9859 17.50045,6.98139 23.99997,12.10202 22.71157,17.89317 43.13612,41.625648 53.54266,62.214426 2.71157,5.364594 6.75737,15.72538 6.75737,17.304664 0,1.075446 -3.89045,7.662798 -5.13618,8.696637 -0.56184,0.46629 -1.39825,0.324171 -3.06812,-0.521496 -2.36512,-1.197657 -12.36601,-4.677813 -18.19574,-6.331761 -7.5288,-2.136051 -22.57238,-4.106313 -30.16132,-3.950244 -4.97929,0.102384 -15.23408,1.032786 -16.78867,1.52316 -1.66671,0.525744 -1.22328,1.368108 0.90002,1.70973 1.07248,0.172458 5.59497,0.877977 10.04998,1.567611 14.70392,2.276136 28.24569,5.343093 37.36263,8.461935 7.64065,2.613834 14.24627,6.705693 14.2294,8.814393 -0.004,0.548199 -0.8989,3.561687 -1.98788,6.696684 l -1.97992,5.6999881 -7.58357,0.300015 c -4.60427,0.182322 -7.85884,0.575883 -8.28434,1.00224 -0.5349,0.535986 0.98527,1.53027 6.42147,4.199994 l 7.12221,3.497769 -0.18267,9.5999939 c -0.18742,9.861093 0.548,16.247349 2.52214,21.899988 1.2114,3.468717 1.19633,4.402692 -0.0895,5.554491 -2.5603,2.293173 -23.72554,13.674915 -50.85001,27.344853 -17.61209,8.875971 -22.21531,10.319634 -32.699978,10.255311 -5.012046,-0.0306 -7.722801,-0.335403 -9.90702,-1.113336 z M 319.04478,74.886472 c -4.0755,-0.941283 -9.92121,-3.051378 -12.60001,-4.548204 -0.99,-0.553203 -5.58002,-2.97495 -10.2,-5.381739 -4.62002,-2.406753 -10.83001,-5.655861 -13.80002,-7.220178 -2.96999,-1.564353 -9.585,-5.013414 -14.69997,-7.664571 -18.96671,-9.830646 -18.31398,-9.423927 -18.1786,-11.32704 0.0667,-0.938625 0.33675,-6.16164 0.6,-11.606613 l 0.47857,-9.900009 4.19999,-0.749025 c 2.31001,-0.411966 5.62543,-0.923049 7.36761,-1.135755 5.72312,-0.698751 4.70918,-1.795176 -3.4676,-3.749652 -3.13499,-0.74934 -6.1709,-1.493361 -6.74645,-1.6533089 -1.97273,-0.548334 -2.85354,-2.039103 -2.85354,-4.82976 0,-1.502469 -0.59252,-5.65640995 -1.31671,-9.230922 -1.30512,-6.4420021 -1.30645,-6.5105731 -0.15002,-7.7952151 3.75487,-4.171077 23.95835,-14.239161 36.69456,-18.286119 1.72031,-0.546633 3.44086,-1.371033 3.82347,-1.832049 0.57766,-0.696033 0.24696,-0.838188 -1.9491,-0.838188 -2.87963,0 -14.50983,1.993635 -19.55219,3.351645 -1.73252,0.466587 -4.56752,1.23273 -6.30002,1.702557 -1.73249,0.469791 -5.84999,1.849428 -9.15,3.065868 -9.0722,3.344193 -8.79837,3.354534 -10.96817,-0.414954 -1.01469,-1.762803 -2.67384,-4.150125 -3.68697,-5.305131 -1.01312,-1.155006 -1.84266,-2.290383 -1.84344,-2.523087 -0.003,-0.762021 4.73866,-11.215467 8.63993,-19.049332 10.02543,-20.13147 21.11476,-35.931924 34.79293,-49.57424 13.24996,-13.21519 26.81843,-21.63916 42.60718,-26.45256 9.81742,-2.99301 22.71493,-3.94789 32.23523,-2.38665 10.37181,1.7009 18.86091,10.40743 21.51186,22.06279 1.02323,4.49889 0.47449,15.65806 -1.05843,21.52309 -1.68756,6.456735 -4.50439,13.372848 -7.69769,18.9 -1.52527,2.639997 -3.31246,5.744988 -3.97155,6.899994 -0.65905,1.155006 -5.75736,10.083663 -11.32959,19.841458 -5.57219,9.757791 -10.13128,18.173493 -10.13128,18.701523 0,0.528057 0.38852,2.534409 0.86342,4.458546 1.04541,4.235841 3.69594,15.3519481 4.83996,20.2984831 0.45796,1.979991 1.79862,7.650009 2.97927,12.5999819 1.18066,4.95 2.53152,10.621656 3.00192,12.603645 3.15316,13.285194 2.18034,25.1907 -2.83201,34.658781 -2.423,4.576923 -8.944,10.733841 -12.82655,12.110427 -3.91757,1.388961 -12.74639,1.733166 -17.32599,0.675513 z M 199.64477,39.691405 c -5.80462,-1.272597 -10.60462,-3.215508 -11.65665,-4.718328 -2.60646,-3.723399 -4.84337,-13.896927 -4.84337,-22.02795 0,-12.15699285 4.64509,-27.977337 11.44511,-38.980008 1.53346,-2.481174 2.02499,-2.653299 9.97141,-3.491847 15.84103,-1.671642 25.74717,1.951443 29.89936,10.935414 2.33117,5.043852 3.71147,9.0119611 4.4279,12.7294381 0.34979,1.814985 0.91053,4.730778 1.2461,6.47952305 1.6112,8.39627995 -0.007,31.85078385 -2.3312,33.77325585 -1.39631,1.155339 -9.7071,3.979944 -15.05847,5.117901 -4.33394,0.921654 -19.19349,1.039113 -23.10019,0.182664 z"
             id="path6093"
             inkscape:connector-curvature="0"
             inkscape:transform-center-x="5.9630461"
             inkscape:transform-center-y="4.407469" />
        </g>
      </g>
    </g>
  </g>
</svg>
