<?xml version="1.0" encoding="UTF-8" standalone="no"?>
<!-- Created with Inkscape (http://www.inkscape.org/) -->

<svg
   xmlns:dc="http://purl.org/dc/elements/1.1/"
   xmlns:cc="http://creativecommons.org/ns#"
   xmlns:rdf="http://www.w3.org/1999/02/22-rdf-syntax-ns#"
   xmlns:svg="http://www.w3.org/2000/svg"
   xmlns="http://www.w3.org/2000/svg"
   xmlns:sodipodi="http://sodipodi.sourceforge.net/DTD/sodipodi-0.dtd"
   xmlns:inkscape="http://www.inkscape.org/namespaces/inkscape"
   width="210mm"
   height="297mm"
   viewBox="0 0 210 297"
   version="1.1"
   id="svg8"
   inkscape:version="0.92.2 5c3e80d, 2017-08-06"
   sodipodi:docname="monstersinc.svg">
  <defs
     id="defs2">
    <clipPath
       id="clipPath106"
       clipPathUnits="userSpaceOnUse">
      <path
         inkscape:connector-curvature="0"
         id="path104"
         d="M 0,864 H 864 V 0 H 0 Z" />
    </clipPath>
  </defs>
  <sodipodi:namedview
     id="base"
     pagecolor="#000000"
     bordercolor="#666666"
     borderopacity="1.0"
     inkscape:pageopacity="0"
     inkscape:pageshadow="2"
     inkscape:zoom="0.98994949"
     inkscape:cx="291.36527"
     inkscape:cy="554.28571"
     inkscape:document-units="mm"
     inkscape:current-layer="layer1"
     showgrid="false"
     showguides="true"
     inkscape:guide-bbox="true"
     inkscape:window-width="2560"
     inkscape:window-height="1385"
     inkscape:window-x="2560"
     inkscape:window-y="27"
     inkscape:window-maximized="1">
    <sodipodi:guide
       position="104.76965,149.1364"
       orientation="1,0"
       id="guide10"
       inkscape:locked="false" />
    <sodipodi:guide
       position="56.661139,148.86913"
       orientation="0,1"
       id="guide12"
       inkscape:locked="false" />
  </sodipodi:namedview>
  <metadata
     id="metadata5">
    <rdf:RDF>
      <cc:Work
         rdf:about="">
        <dc:format>image/svg+xml</dc:format>
        <dc:type
           rdf:resource="http://purl.org/dc/dcmitype/StillImage" />
        <dc:title></dc:title>
      </cc:Work>
    </rdf:RDF>
  </metadata>
  <g
     inkscape:label="Layer 1"
     inkscape:groupmode="layer"
     id="layer1">
    <g
       transform="matrix(0.18748057,0,0,-0.18748057,80.393109,117.78)"
       id="g1123"
       style="fill:#ffeeaa">
      <path
         inkscape:connector-curvature="0"
         id="path1125"
         style="fill:#ffeeaa;fill-opacity:1;fill-rule:nonzero;stroke:none"
         d="m 0,0 c -17.992,-59.597 29.233,-164.171 165.296,-157.425 136.061,6.745 143.931,98.95 136.061,138.309 C 293.485,20.242 256.378,73.087 202.403,88.833 227.14,25.861 213.647,-24.739 163.047,-25.861 112.448,-26.987 59.597,34.854 83.211,83.209 83.211,83.209 17.992,59.597 0,0" />
    </g>
    <g
       transform="matrix(0.18748057,0,0,-0.18748057,113.70139,113.98498)"
       id="g1127"
       style="fill:#ffeeaa">
      <path
         inkscape:connector-curvature="0"
         id="path1129"
         style="fill:#ffeeaa;fill-opacity:1;fill-rule:nonzero;stroke:none"
         d="m 0,0 c 17.994,4.496 20.241,68.59 -32.605,61.845 0,0 -31.488,-2.252 -26.992,-39.358 C -55.096,-14.619 -17.989,-4.498 0,0" />
    </g>
    <g
       transform="matrix(0.18748057,0,0,-0.18748057,134.99455,176.17591)"
       id="g1131"
       style="fill:#ffeeaa">
      <path
         inkscape:connector-curvature="0"
         id="path1133"
         style="fill:#ffeeaa;fill-opacity:1;fill-rule:nonzero;stroke:none"
         d="m 0,0 c 15.74,31.487 41.604,43.853 57.347,29.236 0,29.236 -8.996,53.974 24.735,56.226 8.997,26.986 -2.244,39.353 -2.244,39.353 0,0 -2.252,-24.738 -28.116,-7.87 C 49.478,91.081 31.483,73.091 6.745,93.333 -2.252,60.72 -21.366,47.229 -39.358,68.594 -56.226,43.853 -88.835,23.612 -113.575,61.845 c -17.987,-23.614 -61.843,-30.361 -74.212,6.749 -16.868,-15.745 -53.974,-38.234 -76.462,14.616 -21.368,-5.623 -46.106,0 -55.1,40.48 0,0 -12.371,-13.494 -32.612,-13.494 12.371,-20.241 44.98,-37.105 41.609,-68.592 C -266.5,31.487 -266.5,17.991 -262,-3.374 c 22.486,6.746 47.226,11.246 71.963,-25.861 15.743,17.99 26.987,43.854 61.847,-4.5 28.113,22.49 47.227,35.984 65.219,10.123 C -40.485,6.748 -32.612,22.491 0,0" />
    </g>
    <g
       transform="matrix(0.18748057,0,0,-0.18748057,94.306868,194.51696)"
       id="g1135"
       style="fill:#ffeeaa">
      <path
         inkscape:connector-curvature="0"
         id="path1137"
         style="fill:#ffeeaa;fill-opacity:1;fill-rule:nonzero;stroke:none"
         d="m 0,0 -25.864,-85.461 c 86.9,-40.768 184.416,-5.619 184.416,-5.619 0,0 -2.959,4.506 15.033,84.345 C 111.739,-14.607 0,0 0,0" />
    </g>
    <g
       transform="matrix(0.18748057,0,0,-0.18748057,53.353423,145.11024)"
       id="g1139"
       style="fill:#ffeeaa">
      <path
         inkscape:connector-curvature="0"
         id="path1141"
         style="fill:#ffeeaa;fill-opacity:1;fill-rule:nonzero;stroke:none"
         d="m 0,0 c 0.746,16.44 3.16,32.819 7.041,49.073 5.668,23.755 13.815,44.565 23.538,62.971 H -6.452 c -26.987,0 -33.735,-34.86 -47.226,-84.336 C -63.889,-9.729 -21.331,-4.676 0,0" />
    </g>
    <g
       transform="matrix(0.18748057,0,0,-0.18748057,45.186675,117.9911)"
       id="g1143"
       style="fill:#ffeeaa">
      <path
         inkscape:connector-curvature="0"
         id="path1145"
         style="fill:#ffeeaa;fill-opacity:1;fill-rule:nonzero;stroke:none"
         d="m 0,0 c 0.356,6.069 0.352,25.562 1.481,43.129 -5.365,-8.01 -11.053,-17.374 -17.224,-28.51 -21.701,-39.185 -26.58,-89.371 -17.611,-147.593 5.318,16.682 15.785,35.258 20.142,47.361 C -0.707,-50.875 -1.122,-19.115 0,0" />
    </g>
    <g
       transform="matrix(0.18748057,0,0,-0.18748057,53.364784,149.27215)"
       id="g1147"
       style="fill:#ffeeaa">
      <path
         inkscape:connector-curvature="0"
         id="path1149"
         style="fill:#ffeeaa;fill-opacity:1;fill-rule:nonzero;stroke:none"
         d="m 0,0 c -9.262,-1.675 -25.838,-3.52 -54.053,-3.52 -6.992,0 -12.27,1.092 -16.233,2.992 9.544,-41.2 25.085,-85.773 45.784,-132.85 57.345,-130.443 168.668,-170.92 168.668,-170.92 0,0 5.621,38.231 13.495,78.714 C 47.144,-153.624 3.907,-76.437 0,0" />
    </g>
    <g
       transform="matrix(0.18748057,0,0,-0.18748057,170.62188,126.84498)"
       id="g1151"
       style="fill:#ffeeaa">
      <path
         inkscape:connector-curvature="0"
         id="path1153"
         style="fill:#ffeeaa;fill-opacity:1;fill-rule:nonzero;stroke:none"
         d="m 0,0 c -19.117,59.597 -50.6,102.328 -84.332,132.687 -33.732,30.358 -97.83,76.463 -166.42,85.461 -68.594,8.993 -128.192,17.991 -179.916,7.871 -51.724,-10.123 -116.945,-39.358 -155.177,-66.346 -25.461,-17.972 -42.944,-23.002 -63.738,-45.923 l 1.894,-40.66 c 0,0 14.618,20.239 21.363,39.355 6.745,19.116 17.99,22.49 17.99,16.867 0,-5.623 -3.373,-28.112 -23.613,-65.218 17.994,16.867 55.098,42.732 56.223,32.609 1.122,-10.122 -5.623,-15.742 -5.623,-15.742 l -55.099,-44.981 51.999,-3.353 c 30.243,47.454 70.796,76.826 102.057,98.937 -4.499,16.868 8.992,64.093 8.992,64.093 -2.245,-25.861 29.238,-34.858 29.238,-34.858 0,0 38.233,17.988 58.473,29.233 20.238,11.245 50.599,12.371 85.456,6.749 34.859,-5.624 76.463,-30.362 76.463,-30.362 0,0 15.743,11.245 17.993,28.112 14.618,-7.87 16.869,-38.232 16.869,-38.232 0,0 14.616,-12.371 28.111,-24.738 13.494,-12.368 33.734,-33.735 66.345,-84.335 C -69.947,9.2 -56.237,-26.295 -51.895,-78.34 -32.517,-84.766 -10.396,-96.126 4.687,-107.881 8.332,-66.952 8.384,-26.128 0,0" />
    </g>
    <g
       transform="matrix(0.18748057,0,0,-0.18748057,163.66551,170.69464)"
       id="g1155"
       style="fill:#ffeeaa">
      <path
         inkscape:connector-curvature="0"
         id="path1157"
         style="fill:#ffeeaa;fill-opacity:1;fill-rule:nonzero;stroke:none"
         d="m 0,0 c -17.994,0 -23.615,10.122 -10.122,34.858 19.117,33.733 32.61,50.6 29.236,68.593 -5.217,16.17 -19.373,29.663 -33.051,39.495 0.725,-13.794 0.869,-28.729 0.442,-45.117 -2.248,-86.585 -52.85,-147.307 -66.343,-161.924 -13.498,-14.619 -66.509,-62.758 -66.509,-62.758 l -38.068,-87.921 c 0,0 77.586,37.11 130.439,83.212 52.846,46.103 62.971,91.081 74.215,130.436 3.955,13.852 9.579,39.691 14.378,69.94 C 14.747,45.692 -5.626,22.489 -5.626,22.489 -5.626,22.489 6.745,8.995 0,0" />
    </g>
  </g>
</svg>
