<?xml version="1.0" encoding="UTF-8" standalone="no"?>
<!-- Created with Inkscape (http://www.inkscape.org/) -->

<svg
   xmlns:dc="http://purl.org/dc/elements/1.1/"
   xmlns:cc="http://creativecommons.org/ns#"
   xmlns:rdf="http://www.w3.org/1999/02/22-rdf-syntax-ns#"
   xmlns:svg="http://www.w3.org/2000/svg"
   xmlns="http://www.w3.org/2000/svg"
   xmlns:sodipodi="http://sodipodi.sourceforge.net/DTD/sodipodi-0.dtd"
   xmlns:inkscape="http://www.inkscape.org/namespaces/inkscape"
   width="210mm"
   height="297mm"
   viewBox="0 0 210 297"
   version="1.1"
   id="svg8"
   inkscape:version="0.92.2 5c3e80d, 2017-08-06"
   sodipodi:docname="moon.svg">
  <defs
     id="defs2">
    <clipPath
       id="clipPath45"
       clipPathUnits="userSpaceOnUse">
      <path
         inkscape:connector-curvature="0"
         id="path43"
         d="M 0,864 H 864 V 0 H 0 Z" />
    </clipPath>
    <clipPath
       id="clipPath3854"
       clipPathUnits="userSpaceOnUse">
      <path
         inkscape:connector-curvature="0"
         id="path3852"
         d="M 0,864 H 864 V 0 H 0 Z" />
    </clipPath>
    <clipPath
       id="clipPath4053"
       clipPathUnits="userSpaceOnUse">
      <path
         inkscape:connector-curvature="0"
         id="path4051"
         d="M 0,864 H 864 V 0 H 0 Z" />
    </clipPath>
    <clipPath
       id="clipPath4150"
       clipPathUnits="userSpaceOnUse">
      <path
         inkscape:connector-curvature="0"
         id="path4148"
         d="M 0,864 H 864 V 0 H 0 Z" />
    </clipPath>
    <clipPath
       id="clipPath4295"
       clipPathUnits="userSpaceOnUse">
      <path
         inkscape:connector-curvature="0"
         id="path4293"
         d="M 0,864 H 864 V 0 H 0 Z" />
    </clipPath>
    <clipPath
       id="clipPath4410"
       clipPathUnits="userSpaceOnUse">
      <path
         inkscape:connector-curvature="0"
         id="path4408"
         d="M 0,864 H 864 V 0 H 0 Z" />
    </clipPath>
    <clipPath
       id="clipPath4615"
       clipPathUnits="userSpaceOnUse">
      <path
         inkscape:connector-curvature="0"
         id="path4613"
         d="M 0,864 H 864 V 0 H 0 Z" />
    </clipPath>
    <clipPath
       id="clipPath4838"
       clipPathUnits="userSpaceOnUse">
      <path
         inkscape:connector-curvature="0"
         id="path4836"
         d="M 0,864 H 864 V 0 H 0 Z" />
    </clipPath>
    <clipPath
       id="clipPath5001"
       clipPathUnits="userSpaceOnUse">
      <path
         inkscape:connector-curvature="0"
         id="path4999"
         d="M 0,864 H 864 V 0 H 0 Z" />
    </clipPath>
    <inkscape:perspective
       id="perspective9"
       inkscape:persp3d-origin="372.04724 : 350.78739 : 1"
       inkscape:vp_z="744.09448 : 526.18109 : 1"
       inkscape:vp_y="0 : 1000 : 0"
       inkscape:vp_x="0 : 526.18109 : 1"
       sodipodi:type="inkscape:persp3d" />
  </defs>
  <sodipodi:namedview
     id="base"
     pagecolor="#000000"
     bordercolor="#666666"
     borderopacity="1.0"
     inkscape:pageopacity="0"
     inkscape:pageshadow="2"
     inkscape:zoom="0.91846942"
     inkscape:cx="396.85039"
     inkscape:cy="556.87007"
     inkscape:document-units="mm"
     inkscape:current-layer="g5136"
     showgrid="false"
     inkscape:window-width="2560"
     inkscape:window-height="1385"
     inkscape:window-x="2560"
     inkscape:window-y="27"
     inkscape:window-maximized="1"
     showguides="true"
     inkscape:guide-bbox="true">
    <sodipodi:guide
       position="105.43356,205.96993"
       orientation="1,0"
       id="guide3815"
       inkscape:locked="false" />
    <sodipodi:guide
       position="92.758485,149.50825"
       orientation="0,1"
       id="guide3817"
       inkscape:locked="false" />
  </sodipodi:namedview>
  <metadata
     id="metadata5">
    <rdf:RDF>
      <cc:Work
         rdf:about="">
        <dc:format>image/svg+xml</dc:format>
        <dc:type
           rdf:resource="http://purl.org/dc/dcmitype/StillImage" />
        <dc:title></dc:title>
      </cc:Work>
    </rdf:RDF>
  </metadata>
  <g
     inkscape:label="Layer 1"
     inkscape:groupmode="layer"
     id="layer1">
    <g
       transform="matrix(0.35277777,0,0,-0.35277777,-70.777455,287.43463)"
       inkscape:label="1"
       id="g37">
      <g
         id="g39">
        <g
           id="g5136"
           transform="matrix(0.75000002,0,0,-0.75000002,342.50983,505.50165)"
           style="fill:#ffeeaa">
          <path
             style="fill:#ffeeaa;stroke-width:1.57196534"
             d="m 154.82716,339.0355 c -4.09308,-4.33664 -13.08584,-6.76103 -13.11935,-3.53695 -0.0195,1.41183 -7.62689,5.10892 -10.51889,5.10892 -2.85201,0 -2.56095,-2.12895 1.20889,-8.8407 3.11108,-5.53903 3.16533,-13.16684 0.0936,-13.16684 -1.88352,0 -11.20684,-9.16567 -11.20684,-11.01738 0,-1.99771 4.06509,-1.98262 11.01407,0.0448 6.05495,1.76297 12.56529,-0.43579 12.56529,-4.24365 0,-1.16267 0.65592,-3.34201 1.45739,-4.84338 0.80117,-1.50121 1.86275,-4.02625 2.35867,-5.61133 1.32914,-4.24805 4.75953,-2.2993 5.2864,3.00297 0.95536,9.61506 3.35089,12.93397 10.29773,14.26762 3.59553,0.68979 7.77532,1.10349 9.28829,0.91849 1.51303,-0.1855 2.75094,0.41261 2.75094,1.32912 0,2.19393 -4.02099,6.15709 -6.24699,6.15709 -0.96574,0 -3.60498,1.84922 -5.86514,4.10935 -3.73295,3.73295 -3.94237,4.57102 -2.28642,9.15043 4.27895,11.83315 0.72187,15.43937 -7.07761,7.17571 z M 53.001784,298.55734 c -0.552507,-4.10672 -1.396385,-11.58138 -1.87516,-16.61057 -0.478542,-5.02911 -1.689353,-9.36672 -2.690422,-9.6393 -7.912629,-2.155 -15.744585,-4.06544 -23.434541,-5.71613 -4.971319,-1.0672 -9.038735,-2.42121 -9.038735,-3.00894 0,-1.3701 7.302268,-4.71716 10.291673,-4.71716 1.256248,0 2.289565,-0.53027 2.296261,-1.17897 0.01948,-1.41165 7.626912,-5.10882 10.518921,-5.10882 1.124507,0 2.044576,-0.70764 2.044576,-1.57199 0,-0.86445 1.49721,-1.572 3.327168,-1.572 2.865483,0 3.164716,-0.59978 2.156602,-4.32288 -1.549777,-5.72316 -2.841906,-30.26028 -1.593438,-30.26028 0.537394,0 5.928014,5.0199 11.97895,11.15544 l 11.001621,11.15549 7.000129,-2.06686 c 3.850055,-1.13681 7.00006,-2.61985 7.00006,-3.29575 0,-0.67551 1.414768,-1.22868 3.143931,-1.22868 1.729211,0 3.143979,-0.70761 3.143979,-1.57195 0,-0.86444 1.414765,-1.572 3.143844,-1.572 1.729189,0 3.143943,-0.70759 3.143943,-1.57198 0,-0.86446 1.414787,-1.57195 3.143954,-1.57195 1.729167,0 3.14393,0.33237 3.14393,0.73789 0,0.40551 -1.414763,3.23549 -3.14393,6.2878 -1.729167,3.05237 -4.625368,8.20248 -6.436012,11.44462 -1.810655,3.24215 -3.932765,6.56685 -4.715901,7.38826 -3.23035,3.38803 -0.847581,7.87297 9.723079,18.29734 7.358034,7.25646 10.834824,11.80626 10.228814,13.38544 -0.53913,1.4047 -1.71011,1.90272 -2.83657,1.20657 -2.28611,-1.41287 -13.351835,-3.66849 -23.442813,-4.77838 -6.6829,-0.7352 -7.52855,-0.42419 -10.610721,3.9048 -1.842104,2.58677 -3.349195,5.47841 -3.349195,6.42566 0,0.94725 -0.70764,1.72222 -1.571965,1.72222 -0.864498,0 -1.571981,1.41476 -1.571981,3.14395 0,1.72921 -0.53475,3.14397 -1.18822,3.14397 -0.653267,0 -2.127573,2.12213 -3.275691,4.71586 -2.938331,6.63828 -4.494464,5.88142 -5.65614,-2.75097 z M 232.89409,273.08421 c -1.2969,-0.87781 -5.67629,-1.6059 -9.73203,-1.61919 -4.05572,-0.0195 -7.81121,-0.7317 -8.34558,-1.59598 -0.53472,-0.86443 -2.70591,-1.57197 -4.82582,-1.57197 -2.1198,0 -7.20662,-1.49708 -11.30397,-3.3269 -4.09731,-1.8298 -9.74869,-4.30561 -12.55859,-5.50186 -11.86358,-5.05079 -16.1126,-7.32975 -16.1126,-8.64197 0,-0.76645 -1.41475,-1.39288 -3.14394,-1.39288 -1.72918,0 -3.14393,-0.55521 -3.14393,-1.23303 0,-0.67819 -2.19521,-2.52977 -4.87813,-4.11466 -6.31756,-3.73178 -30.05734,-27.47164 -33.78925,-33.78913 -1.58487,-2.68302 -3.43643,-4.87824 -4.11463,-4.87824 -0.67819,0 -1.23304,-1.09058 -1.23304,-2.42358 0,-1.333 -1.41478,-3.94228 -3.14387,-5.79834 -1.72919,-1.85601 -3.14396,-4.30225 -3.14396,-5.43609 0,-1.13391 -0.70761,-2.06159 -1.57196,-2.06159 -0.86445,0 -1.57197,-1.35577 -1.57197,-3.01289 0,-1.65716 -0.54632,-3.24876 -1.21347,-3.53693 -1.42548,-0.61584 -10.67365,-29.12711 -12.40736,-38.25117 -1.775675,-9.34505 -1.299617,-52.37649 0.669295,-60.520664 0.94072,-3.890586 2.520397,-9.903377 3.510225,-13.36172 0.99002,-3.458283 2.18689,-7.87939 2.65978,-9.824779 0.4732,-1.945293 1.48477,-3.536888 2.24865,-3.536888 0.76374,0 1.38864,-1.138928 1.38864,-2.530897 0,-3.107132 9.16014,-20.701953 12.95387,-24.88191 1.52116,-1.67609 2.76579,-3.62781 2.76579,-4.337197 0,-0.709392 1.9453,-3.345175 4.32291,-5.857262 2.37764,-2.512014 7.50618,-8.461258 11.39678,-13.220587 3.89058,-4.7592347 8.84231,-9.5944893 11.00371,-10.7449331 2.16151,-1.1505345 5.55375,-3.6833973 7.53835,-5.6287736 1.98458,-1.9452823 4.23308,-3.5368763 4.99656,-3.5368763 0.76376,0 2.34552,-0.957325 3.51559,-2.127267 1.80267,-1.802721 7.30321,-4.8146 25.19231,-13.79416 1.50128,-0.753954 3.80023,-1.370204 5.10887,-1.370204 1.30861,0 2.3793,-0.630066 2.3793,-1.399985 0,-0.769985 2.29902,-1.779967 5.10887,-2.244365 2.80989,-0.464326 8.29205,-1.666905 12.18276,-2.672261 9.38592,-2.425457 37.70166,-4.561122 41.60106,-3.137696 2.70915,0.988944 2.42011,1.417878 -2.35801,3.497824 -14.41629,6.275798 -23.96507,11.652082 -24.83348,13.982207 -0.28781,0.773548 -1.49029,1.406116 -2.67138,1.406116 -2.81674,0 -29.16984,26.0386946 -33.01213,32.618196 -1.64086,2.809942 -3.53827,5.108939 -4.2165,5.108939 -0.67819,0 -1.23307,1.355775 -1.23307,3.012941 0,1.657095 -0.53379,3.248662 -1.18581,3.536874 -1.39936,0.618491 -10.37543,18.889288 -12.61376,25.675462 -5.46897,16.581455 -5.84578,19.625054 -5.69998,46.051311 0.10087,18.270545 0.74501,27.783135 1.9649,29.002785 0.99833,0.99825 1.81511,4.14932 1.81511,7.00247 0,2.85316 0.61849,5.18747 1.37545,5.18747 0.75664,0 1.78291,2.03735 2.28091,4.52745 1.22797,6.13987 6.23515,17.48013 7.71816,17.48013 0.66042,0 1.20119,1.41477 1.20119,3.14387 0,1.72916 0.58818,3.14391 1.3063,3.14391 0.7183,0 2.31006,1.94266 3.53689,4.31694 2.75956,5.34067 4.95593,7.96175 17.45828,20.83452 10.63723,10.95239 14.63675,14.36305 20.41018,17.40507 2.01376,1.06105 4.01501,2.35381 4.44723,2.87284 1.26397,1.51756 9.97209,6.56142 12.96881,7.51176 1.51301,0.47948 2.75085,1.49729 2.75085,2.26103 0,0.76378 1.42441,1.38859 3.16526,1.38859 1.74104,0 4.39358,0.68534 5.89487,1.52242 12.27317,6.84528 48.82518,11.21088 67.29094,8.03697 5.99116,-1.02978 13.55017,-2.26185 16.79774,-2.73791 3.2477,-0.47594 6.29572,-1.49836 6.77368,-2.27156 0.47769,-0.77358 2.94924,-1.40595 5.49198,-1.40595 2.54274,0 4.62861,-0.53027 4.63539,-1.17897 0.0195,-1.41174 7.62691,-5.10894 10.51903,-5.10894 1.12446,0 2.04457,0.4385 2.04457,0.97496 0,1.85371 -23.66461,24.17656 -25.62955,24.17656 -1.08462,0 -2.99166,1.41477 -4.23789,3.14386 -1.24626,1.72918 -3.20054,3.14393 -4.3427,3.14393 -1.14216,0 -3.59526,1.41479 -5.45116,3.14399 -1.85609,1.72916 -4.3024,3.14391 -5.43629,3.14391 -1.13385,0 -2.06149,0.70761 -2.06149,1.572 0,0.86446 -1.7267,1.57188 -3.83714,1.57188 -2.11045,0 -4.27433,0.70761 -4.80866,1.57197 -0.53477,0.86447 -2.3446,1.57199 -4.02269,1.57199 -1.67811,0 -3.05117,0.70758 -3.05117,1.57195 0,0.86448 -1.72665,1.572 -3.83714,1.572 -2.11043,0 -4.22593,0.62915 -4.70131,1.39825 -0.47502,0.76913 -3.16976,1.80067 -5.98764,2.29251 -2.81785,0.49196 -9.01406,1.69177 -13.76929,2.66674 -12.06812,2.47396 -44.2406,3.54748 -47.159,1.57356 z m 47.15902,-73.27093 c 0,-4.81208 0.74505,-10.14069 1.65496,-11.84156 2.01296,-3.76105 -1.16788,-13.99253 -4.34997,-13.99253 -1.13495,0 -3.46881,-0.7076 -5.18613,-1.57195 -1.7175,-0.86444 -4.52779,-2.27939 -6.2452,-3.14398 -1.71744,-0.86444 -4.11766,-1.57193 -5.33381,-1.57193 -1.78772,0 -4.11924,-3.09334 -4.11924,-5.46533 0,-0.46166 2.51571,-0.9038 19.22933,-3.38047 8.622,-1.27772 10.5149,-4.03775 10.64369,-15.51971 0.0625,-5.18746 1.03334,-11.10513 2.16747,-13.15033 l 2.06169,-3.7185 3.7774,6.06793 c 2.07757,3.33745 5.20938,8.90141 6.95942,12.36442 2.86385,5.66645 3.72886,6.26546 8.64584,5.98713 8.96602,-0.50708 17.90502,-2.31319 20.07109,-4.05478 1.407,-1.13125 2.5396,-1.1254 3.68399,0.0195 1.15527,1.15528 -0.0447,3.53385 -3.99654,7.90518 -3.10701,3.43902 -5.64894,6.88105 -5.64894,7.64902 0,0.76821 -1.41475,2.27985 -3.14402,3.35967 -1.72919,1.07994 -3.14394,3.27292 -3.14394,4.87326 0,3.57448 9.45342,22.21501 11.26608,22.21501 0.7201,0 1.30962,1.41477 1.30962,3.14392 0,1.7292 -0.70764,3.14398 -1.57189,3.14398 -0.86445,0 -1.57185,-0.70762 -1.57185,-1.57198 0,-0.86446 -1.04994,-1.572 -2.33309,-1.572 -1.28305,0 -6.71372,-2.12218 -12.06828,-4.71593 -5.35447,-2.59358 -10.28515,-4.71576 -10.95728,-4.71576 -1.5005,0 -9.20846,7.57724 -9.26716,9.11029 -0.0536,1.29283 -10.63825,12.89706 -11.76846,12.89706 -0.42065,0 -0.76466,-3.9371 -0.76466,-8.7491 z m 107.09404,-48.36477 c -1.18643,-1.44187 -3.13183,-2.62162 -4.3228,-2.62162 -1.19111,0 -2.16543,-0.69067 -2.16543,-1.5357 0,-0.84485 -1.72588,-2.66654 -3.83527,-4.04857 -3.52661,-2.31081 -4.28545,-2.29931 -9.43183,0.14289 -3.078,1.46064 -5.5966,3.20008 -5.5966,3.86533 0,0.6657 -1.6864,1.53199 -3.74755,1.92606 -3.53484,0.67551 -3.66166,0.44025 -2.23084,-4.1397 0.83414,-2.67078 1.92825,-6.27075 2.43089,-7.99995 0.50264,-1.72918 1.68322,-3.67481 2.62377,-4.3236 1.07301,-0.74061 -1.36334,-4.04896 -6.54306,-8.88511 -4.539,-4.23801 -8.25286,-8.1283 -8.25286,-8.6451 0,-0.51687 5.2492,-0.93969 11.66491,-0.93969 h 11.66491 l 1.03565,-4.71592 c 0.56943,-2.59371 1.68693,-4.71585 2.48285,-4.71585 0.79584,0 1.44706,-1.41477 1.44706,-3.14395 0,-3.730614 3.96685,-4.219542 5.33368,-0.6577 0.52491,1.36753 0.95429,4.60131 0.95429,7.18614 0,6.25376 3.26248,9.19096 10.20868,9.19096 6.12308,0 11.79872,2.29518 11.79872,4.77116 0,0.83419 -1.09064,1.51664 -2.42364,1.51664 -1.33295,0 -3.94216,1.41477 -5.79826,3.14397 -1.85607,1.72917 -4.30234,3.14392 -5.4362,3.14392 -2.48767,0 -2.72891,6.81952 -0.39568,11.17979 0.91653,1.71225 1.44695,5.3213 1.17895,8.0201 -0.43757,4.40564 -0.7076,4.63913 -2.64451,2.28527 z M 240.11014,110.35099 c -5.07187,-5.07178 -13.50391,-7.73074 -13.50391,-4.2583 0,1.66012 -11.12564,6.98106 -12.24872,5.858 -0.77089,-0.7709 0.57125,-4.36205 4.57228,-12.22639 2.29677,-4.515038 1.66644,-6.031591 -4.89927,-11.786849 -3.45835,-3.031445 -6.28789,-6.13386 -6.28789,-6.894314 0,-0.760189 4.46185,-1.382797 9.91526,-1.382797 h 9.91522 l 2.66046,-6.030058 c 1.46334,-3.316509 2.66052,-6.853459 2.66052,-7.859775 0,-2.442878 1.31921,-2.307141 4.04219,0.416158 1.23527,1.235114 2.26813,4.241472 2.29568,6.680831 0.0801,6.981157 3.17246,9.68245 11.71857,10.232077 4.2442,0.272668 7.917,1.347184 8.26981,2.418759 0.35022,1.065413 -2.58294,3.490907 -6.558,5.422099 -6.88546,3.34519 -7.19255,3.783041 -7.19255,10.254949 0,3.71832 0.7076,6.76059 1.57198,6.76059 1.9943,0 2.06837,5.79558 0.09,7.0184 -0.81545,0.50356 -3.97493,-1.5765 -7.02155,-4.62314 z"
             id="path6497-3-6"
             inkscape:connector-curvature="0"
             sodipodi:nodetypes="ccscsscscccccssscccccccsscssscscccsssssssssccccccssssccccccsscsssccsscssscccccsscsccccsccsscccccscssccccsscssscscccssccccscssscscssscssscccccccsccssccccccccccscsssssscscscccssccscccccssccsscsssscscccccssccssccscccccssccc" />
        </g>
      </g>
    </g>
  </g>
</svg>
