<?xml version="1.0" encoding="UTF-8" standalone="no"?>
<!-- Created with Inkscape (http://www.inkscape.org/) -->

<svg
   xmlns:dc="http://purl.org/dc/elements/1.1/"
   xmlns:cc="http://creativecommons.org/ns#"
   xmlns:rdf="http://www.w3.org/1999/02/22-rdf-syntax-ns#"
   xmlns:svg="http://www.w3.org/2000/svg"
   xmlns="http://www.w3.org/2000/svg"
   xmlns:sodipodi="http://sodipodi.sourceforge.net/DTD/sodipodi-0.dtd"
   xmlns:inkscape="http://www.inkscape.org/namespaces/inkscape"
   width="210mm"
   height="297mm"
   viewBox="0 0 210 297"
   version="1.1"
   id="svg8"
   inkscape:version="0.92.2 5c3e80d, 2017-08-06"
   sodipodi:docname="moon-bats.svg">
  <defs
     id="defs2">
    <clipPath
       id="clipPath45"
       clipPathUnits="userSpaceOnUse">
      <path
         inkscape:connector-curvature="0"
         id="path43"
         d="M 0,864 H 864 V 0 H 0 Z" />
    </clipPath>
    <clipPath
       id="clipPath3854"
       clipPathUnits="userSpaceOnUse">
      <path
         inkscape:connector-curvature="0"
         id="path3852"
         d="M 0,864 H 864 V 0 H 0 Z" />
    </clipPath>
    <clipPath
       id="clipPath4053"
       clipPathUnits="userSpaceOnUse">
      <path
         inkscape:connector-curvature="0"
         id="path4051"
         d="M 0,864 H 864 V 0 H 0 Z" />
    </clipPath>
    <clipPath
       id="clipPath4150"
       clipPathUnits="userSpaceOnUse">
      <path
         inkscape:connector-curvature="0"
         id="path4148"
         d="M 0,864 H 864 V 0 H 0 Z" />
    </clipPath>
    <clipPath
       id="clipPath4295"
       clipPathUnits="userSpaceOnUse">
      <path
         inkscape:connector-curvature="0"
         id="path4293"
         d="M 0,864 H 864 V 0 H 0 Z" />
    </clipPath>
    <clipPath
       id="clipPath4410"
       clipPathUnits="userSpaceOnUse">
      <path
         inkscape:connector-curvature="0"
         id="path4408"
         d="M 0,864 H 864 V 0 H 0 Z" />
    </clipPath>
    <clipPath
       id="clipPath4615"
       clipPathUnits="userSpaceOnUse">
      <path
         inkscape:connector-curvature="0"
         id="path4613"
         d="M 0,864 H 864 V 0 H 0 Z" />
    </clipPath>
    <clipPath
       id="clipPath4838"
       clipPathUnits="userSpaceOnUse">
      <path
         inkscape:connector-curvature="0"
         id="path4836"
         d="M 0,864 H 864 V 0 H 0 Z" />
    </clipPath>
    <clipPath
       id="clipPath5001"
       clipPathUnits="userSpaceOnUse">
      <path
         inkscape:connector-curvature="0"
         id="path4999"
         d="M 0,864 H 864 V 0 H 0 Z" />
    </clipPath>
    <inkscape:perspective
       id="perspective9"
       inkscape:persp3d-origin="372.04724 : 350.78739 : 1"
       inkscape:vp_z="744.09448 : 526.18109 : 1"
       inkscape:vp_y="0 : 1000 : 0"
       inkscape:vp_x="0 : 526.18109 : 1"
       sodipodi:type="inkscape:persp3d" />
  </defs>
  <sodipodi:namedview
     id="base"
     pagecolor="#000000"
     bordercolor="#666666"
     borderopacity="1.0"
     inkscape:pageopacity="0"
     inkscape:pageshadow="2"
     inkscape:zoom="0.91846942"
     inkscape:cx="396.85039"
     inkscape:cy="556.87007"
     inkscape:document-units="mm"
     inkscape:current-layer="g5136"
     showgrid="false"
     inkscape:window-width="2560"
     inkscape:window-height="1385"
     inkscape:window-x="2560"
     inkscape:window-y="27"
     inkscape:window-maximized="1"
     showguides="true"
     inkscape:guide-bbox="true">
    <sodipodi:guide
       position="105.43356,205.96993"
       orientation="1,0"
       id="guide3815"
       inkscape:locked="false" />
    <sodipodi:guide
       position="92.758485,149.50825"
       orientation="0,1"
       id="guide3817"
       inkscape:locked="false" />
  </sodipodi:namedview>
  <metadata
     id="metadata5">
    <rdf:RDF>
      <cc:Work
         rdf:about="">
        <dc:format>image/svg+xml</dc:format>
        <dc:type
           rdf:resource="http://purl.org/dc/dcmitype/StillImage" />
        <dc:title></dc:title>
      </cc:Work>
    </rdf:RDF>
  </metadata>
  <g
     inkscape:label="Layer 1"
     inkscape:groupmode="layer"
     id="layer1">
    <g
       transform="matrix(0.35277777,0,0,-0.35277777,-70.777455,287.43463)"
       inkscape:label="1"
       id="g37">
      <g
         id="g39">
        <g
           id="g5136"
           transform="matrix(0.75000002,0,0,-0.75000002,342.50983,505.50165)"
           style="fill:#ffeeaa">
          <path
             style="fill:#ffeeaa;stroke-width:1.72916186"
             d="m 160.55266,358.62716 c 0,-1.90211 0.63722,-3.45836 1.41664,-3.45836 0.77939,0 2.48944,-3.93999 3.80072,-8.75536 1.31131,-4.81553 3.00815,-9.14109 3.77095,-9.61246 0.76266,-0.47152 1.38676,-2.75642 1.38676,-5.07794 0,-2.32144 0.77833,-4.22082 1.72915,-4.22082 0.9509,0 1.72906,-1.56683 1.72906,-3.48177 0,-1.91505 0.7784,-5.02752 1.72919,-6.91668 0.95088,-1.88918 2.50732,-4.98055 3.45836,-6.86969 0.95088,-1.88924 1.72918,-5.00172 1.72918,-6.91662 0,-1.91514 0.77837,-3.48189 1.72914,-3.48189 0.95094,0 1.72919,-2.00079 1.72919,-4.44641 0,-2.44546 1.219,-5.66542 2.70899,-7.15539 2.81339,-2.81339 3.32512,-2.74352 22.48658,3.07319 2.92056,0.8862 7.3489,1.61202 9.84067,1.61202 2.49178,0 5.0113,0.77839 5.59909,1.72913 0.58818,0.95095 4.13524,1.7292 7.88315,1.7292 6.1853,0 6.81465,-0.41467 6.81465,-4.49373 0,-2.76338 -1.99746,-6.35966 -5.18741,-9.33953 -6.206,-5.79727 -7.21051,-13.83339 -1.72916,-13.83339 1.90198,0 3.45821,0.77835 3.45821,1.72921 0,0.95084 1.49144,1.72904 3.31435,1.72904 1.82265,0 3.59444,0.84015 3.93676,1.86811 1.03352,3.10063 9.12649,-1.58285 12.44631,-7.20277 3.09329,-5.23666 7.13806,-6.61867 8.42449,-2.87878 0.40883,1.18883 0.40685,6.48514 0,11.76955 -0.55874,7.18628 -0.0784,10.15904 1.88633,11.7938 2.21749,1.84035 4.08603,0.80289 11.82006,-6.56403 5.05231,-4.81269 9.73947,-8.75836 10.41619,-8.76794 0.67639,-0.004 4.31137,-3.13043 8.07775,-6.93443 3.76647,-3.80421 8.31737,-6.9167 10.11348,-6.9167 1.79606,0 9.65308,6.14333 17.45985,13.65172 7.80682,7.50844 17.5388,16.39221 21.62631,19.74187 9.5733,7.84453 20.16931,18.4459 20.16931,20.1796 0,1.4237 -11.18979,-1.93671 -13.22469,-3.97154 -0.65193,-0.65192 -2.95478,-1.1851 -5.11762,-1.1851 -2.16299,0 -4.41367,-0.77837 -5.00137,-1.7292 -0.58818,-0.95088 -2.96811,-1.72925 -5.28958,-1.72925 -3.53715,0 -4.22081,0.84014 -4.22081,5.18761 0,2.85313 0.77836,5.18753 1.72918,5.18753 0.9509,0 1.72915,2.33432 1.72915,5.18732 0,6.45122 -0.87345,6.46907 -6.78611,0.14011 -5.66857,-6.06375 -16.23445,-12.24372 -20.937,-12.24372 -3.92421,0 -4.59063,5.06627 -1.34913,10.2566 1.45939,2.33698 1.54461,4.44049 0.29311,7.24411 l -1.76286,3.95098 -4.1844,-4.82482 c -4.82417,-5.5629 -15.90264,-10.8674 -16.83774,-8.06225 -0.33231,0.9957 -2.09491,1.81025 -3.91759,1.81025 -2.16887,0 -3.31427,1.20323 -3.31427,3.48185 0,1.91501 -0.68718,4.83283 -1.52745,6.48427 -0.84008,1.65147 -2.59094,5.33701 -3.89054,8.1902 -5.58179,12.25213 -10.26507,12.4355 -22.08211,0.86466 -4.85639,-4.75519 -10.34543,-8.64577 -12.19805,-8.64577 -5.67784,0 -12.17671,3.83958 -12.17671,7.19419 0,1.7493 -0.77841,3.18077 -1.72917,3.18077 -0.95093,0 -1.72921,2.33417 -1.72921,5.18749 0,2.85312 -0.44407,5.18746 -0.98803,5.18746 -2.33677,0 -5.92855,-5.23805 -5.92855,-8.6459 0,-2.03788 -1.25363,-4.95876 -2.78575,-6.49103 -2.56156,-2.56159 -3.23915,-2.2613 -8.41872,3.73243 -3.09824,3.5851 -6.65123,9.75755 -7.89555,13.71664 -1.2443,3.95898 -2.59546,7.83963 -3.0023,8.62387 -1.24964,2.40725 -5.56423,-7.56698 -5.56423,-12.86295 0,-7.67322 -4.15702,-6.23478 -15.56247,5.38525 -5.60087,5.70622 -10.61558,10.37496 -11.14375,10.37496 -0.52842,0 -0.96073,-1.55625 -0.96073,-3.45827 z M 135.47982,248.62603 c -8.77673,-0.69206 -19.99305,-3.05081 -29.39575,-6.18121 -7.932465,-2.64106 -27.593196,-12.2787 -28.242942,-13.84463 -0.316645,-0.76469 -1.34402,-1.38944 -2.282187,-1.38944 -6.050113,0 -46.42249,-36.9809 -46.42249,-42.52279 0,-1.33943 -0.687205,-2.43531 -1.527528,-2.43531 -0.840111,0 -1.959312,-1.36175 -2.487149,-3.026 -1.28293,-4.04561 -6.898351,-13.25589 -8.521739,-13.9774 -0.713691,-0.31663 -1.296854,-2.02192 -1.296854,-3.78862 0,-1.76663 -0.632324,-3.60265 -1.40421,-4.07998 C 12.623896,156.59249 8.4028568,144.20108 3.2282544,126.05488 -0.00577968,114.71381 2.6488987,46.914209 6.4444751,43.919733 7.0473697,43.444299 8.6136498,39.942724 9.9252733,36.138505 13.332444,26.257247 19.127096,14.025591 21.603365,11.487771 22.768839,10.293246 24.214861,7.7643471 24.816818,5.8679339 25.41874,3.9715185 26.63685,2.4198915 27.523744,2.4198915 c 0.88718,0 1.612707,-1.2170609 1.612707,-2.70459975 0,-2.79104975 31.449278,-35.33701675 34.146332,-35.33701675 0.832288,0 3.055444,-1.361636 4.939487,-3.026017 4.347485,-3.840476 12.750834,-9.004954 16.679631,-10.250938 1.664283,-0.527411 3.026041,-1.506342 3.026041,-2.174517 0,-0.668586 3.890545,-2.274424 8.645724,-3.569221 4.755224,-1.294897 8.645864,-2.991801 8.645864,-3.770965 0,-0.779341 2.33435,-1.416546 5.18744,-1.416546 2.85317,0 5.18749,-0.705834 5.18749,-1.569186 0,-3.964485 49.21771,-5.512301 67.43735,-2.120826 6.1818,1.150712 13.76841,2.53686 16.85931,3.080248 3.09096,0.543105 5.61973,1.681136 5.61973,2.528121 0,0.846988 1.20582,1.539987 2.67973,1.539987 1.47376,0 5.10865,1.256068 8.07766,2.791328 7.32878,3.789978 4.30385,5.11567 -15.08026,6.609172 -8.55932,0.659742 -16.30157,1.926605 -17.20516,2.815843 -0.90386,0.889159 -4.21043,1.616939 -7.34887,1.616939 -3.13849,0 -5.70622,0.778357 -5.70622,1.729172 0,0.950888 -1.25283,1.729167 -2.78401,1.729167 -3.11663,0 -23.696,10.47758 -24.59448,12.52181 -0.31664,0.72153 -1.66522,1.311478 -2.99609,1.311478 -1.33085,0 -4.86571,2.13981 -7.85508,4.755183 -10.22902,8.949086 -20.56193,19.0712955 -20.56193,20.14277245 0,0.5891688 -2.33431,3.51363875 -5.18741,6.49908605 -2.85311,2.9855287 -5.1875,6.4800505 -5.1875,7.7655365 0,1.285486 -0.62546,2.337274 -1.38895,2.337274 -0.763626,0 -3.292757,3.878499 -5.619697,8.618911 -2.327006,4.7404 -4.814513,8.631037 -5.527775,8.645848 -0.713706,0.02079 -1.296866,1.593706 -1.296866,3.508642 0,1.914937 -0.687207,4.832944 -1.527431,6.484379 -6.417526,12.615441 -7.572616,19.905228 -7.599684,47.960761 -0.02928,31.460893 1.926417,40.252643 14.431853,64.843533 3.143668,6.1818 6.737786,12.26776 7.98669,13.52449 1.24912,1.25677 2.27103,3.09938 2.27103,4.09478 0,2.85303 34.18502,35.9846 37.12881,35.9846 1.45301,0 2.64794,0.58327 2.65536,1.29694 0.0214,1.55294 8.38965,5.61986 11.57086,5.61986 1.23693,0 2.24901,0.77838 2.24901,1.72916 0,0.95092 1.55625,1.72918 3.45822,1.72918 1.90213,0 3.45838,0.77835 3.45838,1.72919 0,0.95089 1.51035,1.72907 3.35627,1.72907 1.84596,0 3.78637,0.69604 4.31211,1.54656 1.21859,1.97176 11.92472,3.66214 29.50856,4.6589 16.77147,0.95091 22.07938,2.01867 20.74722,4.17399 -1.24932,2.02148 -9.97662,6.01186 -18.58571,8.49805 -3.56638,1.02976 -9.06555,2.64947 -12.22028,3.59918 -6.36762,1.91701 -42.17892,3.45941 -55.64939,2.39683 z M 416.46861,214.8792 c -9.504,-11.67747 -18.27898,-21.46469 -20.5127,-22.87902 -1.29617,-0.82049 -3.82505,-2.96032 -5.61976,-4.75519 -6.95853,-6.95837 -8.79051,-4.05415 -11.30356,17.919 -1.09991,9.61727 -2.83302,10.40222 -5.72748,2.59386 -1.14568,-3.09094 -2.79632,-6.97104 -3.66807,-8.62233 -0.87148,-1.65144 -1.58491,-3.84571 -1.58491,-4.87598 0,-1.93095 -9.43091,-16.3826 -13.1952,-20.22045 -4.18636,-4.26765 -7.15417,-2.1587 -10.95051,7.78122 -2.08847,5.4685 -4.51324,11.29393 -5.38816,12.94534 -0.87541,1.65142 -1.59104,4.18014 -1.59104,5.61973 0,1.4395 -0.77836,2.61726 -1.72917,2.61726 -0.95094,0 -1.72919,-3.28384 -1.72919,-7.29738 0,-10.81859 -6.39522,-22.86347 -14.42899,-27.17582 -3.65628,-1.96266 -7.58636,-3.56848 -8.73322,-3.56848 -3.51317,0 -11.3932,4.21564 -11.40752,6.10259 -0.0391,5.75339 -24.9246,23.47117 -29.22685,20.81226 -3.03278,-1.87436 -12.28651,-22.19215 -12.28651,-26.97663 0,-12.31461 -11.39397,-19.51625 -23.92955,-15.12465 -7.15459,2.50636 -17.57032,11.98743 -17.57032,15.99348 0,1.45825 -1.08403,2.65139 -2.40873,2.65139 -2.93203,0 -5.00467,-4.6764 -2.70322,-6.09872 0.90975,-0.56172 1.65364,-6.8964 1.65364,-14.07614 v -13.05413 l -4.75524,1.17031 c -4.96864,1.22282 -17.48444,8.02603 -21.60215,11.74225 -1.31645,1.18806 -5.63688,5.22218 -9.60088,8.96448 -3.964,3.74232 -7.68213,6.32961 -8.26238,5.74925 -1.20878,-1.20879 1.78454,-11.33993 7.69295,-26.03593 1.06941,-2.66005 1.94443,-5.18899 1.94443,-5.61971 0,-1.55887 -6.73946,-0.73915 -7.78125,0.946 -0.58818,0.95087 -3.74615,1.72917 -7.01866,1.72917 -3.27255,0 -5.94997,0.77836 -5.94997,1.72914 0,0.95095 -1.79919,1.72918 -3.99818,1.72918 -2.19898,0 -7.06222,1.4496 -10.80728,3.22142 -8.87279,4.1977 -16.31954,5.93901 -16.31954,3.81615 0,-0.92051 2.86848,-3.85352 6.37445,-6.51731 3.5059,-2.66372 13.08738,-11.45717 21.29221,-19.54104 8.2047,-8.08384 17.59171,-16.74069 20.85986,-19.237469 3.26817,-2.496747 12.82496,-11.238286 21.23727,-19.425615 17.31839,-16.855225 16.14759,-16.724358 29.89532,-3.341616 4.68164,4.557361 12.76946,11.782461 17.97325,16.055939 5.20348,4.273373 12.40907,10.692851 16.01218,14.265601 3.60316,3.57264 7.59395,6.49573 8.86832,6.49573 3.65688,0 6.72364,-9.49687 5.432,-16.820587 -4.89038,-27.730077 -2.39804,-30.547178 12.75809,-14.420353 l 10.06249,10.706835 8.42431,-3.707548 c 4.63328,-2.039146 9.7755,-4.422075 11.42684,-5.295441 5.18505,-2.741936 6.50787,-1.779657 6.50787,4.733932 0,5.092716 -1.34475,7.640057 -6.91663,13.101892 -6.05484,5.93518 -6.91664,7.75647 -6.91664,14.61721 v 7.8374 l 5.61976,-0.97149 c 3.0909,-0.53425 8.3432,-1.45067 11.67189,-2.03613 3.32862,-0.58523 7.60827,-1.7309 9.51038,-2.54556 4.06162,-1.73945 11.27026,-3.39098 20.32856,-4.65725 3.57221,-0.49899 6.92521,-1.60385 7.45094,-2.45442 0.52544,-0.8509 3.19817,-1.54653 5.93909,-1.54653 2.7409,0 5.4644,-0.77835 6.05211,-1.72917 1.9515,-3.1576 5.43838,-1.79097 7.72034,3.02604 3.29177,6.94865 4.61032,10.41786 8.70662,22.9113 2.02701,6.18181 4.3339,12.79586 5.12646,14.69796 0.79307,1.9021 2.37644,6.18174 3.51941,9.51041 1.14293,3.32866 2.7386,7.6083 3.54579,9.51038 0.8068,1.902 2.73015,7.3489 4.27348,12.10413 2.80381,8.63868 6.63014,18.08859 9.61774,23.75245 0.87052,1.65144 1.58381,4.56945 1.58381,6.48437 0,1.91496 0.77838,3.48179 1.72916,3.48179 0.95092,0 1.72906,1.55627 1.72906,3.45834 0,4.78383 -1.85863,4.25798 -6.91662,-1.95671 z"
             id="path6497-5"
             inkscape:connector-curvature="0"
             sodipodi:nodetypes="csccsssccsssscscsscsssccccccccsscscscsssscscccccsscccssssssccccscscccccsssccscscccssssccscsssscsscccssscscscssscsccscsscssssscccccccccsccscccssscsccscsscscccsccscssscsccsscccscccccscsccccccsccccscccssscc" />
        </g>
      </g>
    </g>
  </g>
</svg>
