<?xml version="1.0" encoding="UTF-8" standalone="no"?>
<!-- Created with Inkscape (http://www.inkscape.org/) -->

<svg
   xmlns:dc="http://purl.org/dc/elements/1.1/"
   xmlns:cc="http://creativecommons.org/ns#"
   xmlns:rdf="http://www.w3.org/1999/02/22-rdf-syntax-ns#"
   xmlns:svg="http://www.w3.org/2000/svg"
   xmlns="http://www.w3.org/2000/svg"
   xmlns:sodipodi="http://sodipodi.sourceforge.net/DTD/sodipodi-0.dtd"
   xmlns:inkscape="http://www.inkscape.org/namespaces/inkscape"
   width="210mm"
   height="297mm"
   viewBox="0 0 210 297"
   version="1.1"
   id="svg8"
   inkscape:version="0.92.2 5c3e80d, 2017-08-06"
   sodipodi:docname="mummy.svg">
  <defs
     id="defs2">
    <clipPath
       id="clipPath45"
       clipPathUnits="userSpaceOnUse">
      <path
         inkscape:connector-curvature="0"
         id="path43"
         d="M 0,864 H 864 V 0 H 0 Z" />
    </clipPath>
    <clipPath
       id="clipPath3854"
       clipPathUnits="userSpaceOnUse">
      <path
         inkscape:connector-curvature="0"
         id="path3852"
         d="M 0,864 H 864 V 0 H 0 Z" />
    </clipPath>
    <clipPath
       id="clipPath4053"
       clipPathUnits="userSpaceOnUse">
      <path
         inkscape:connector-curvature="0"
         id="path4051"
         d="M 0,864 H 864 V 0 H 0 Z" />
    </clipPath>
    <clipPath
       id="clipPath4150"
       clipPathUnits="userSpaceOnUse">
      <path
         inkscape:connector-curvature="0"
         id="path4148"
         d="M 0,864 H 864 V 0 H 0 Z" />
    </clipPath>
  </defs>
  <sodipodi:namedview
     id="base"
     pagecolor="#000000"
     bordercolor="#666666"
     borderopacity="1.0"
     inkscape:pageopacity="0"
     inkscape:pageshadow="2"
     inkscape:zoom="0.91846942"
     inkscape:cx="396.85039"
     inkscape:cy="561.25984"
     inkscape:document-units="mm"
     inkscape:current-layer="g39"
     showgrid="false"
     inkscape:window-width="2560"
     inkscape:window-height="1385"
     inkscape:window-x="2560"
     inkscape:window-y="27"
     inkscape:window-maximized="1"
     showguides="true"
     inkscape:guide-bbox="true">
    <sodipodi:guide
       position="105.43356,205.96993"
       orientation="1,0"
       id="guide3815"
       inkscape:locked="false" />
    <sodipodi:guide
       position="92.758485,149.50825"
       orientation="0,1"
       id="guide3817"
       inkscape:locked="false" />
  </sodipodi:namedview>
  <metadata
     id="metadata5">
    <rdf:RDF>
      <cc:Work
         rdf:about="">
        <dc:format>image/svg+xml</dc:format>
        <dc:type
           rdf:resource="http://purl.org/dc/dcmitype/StillImage" />
        <dc:title></dc:title>
      </cc:Work>
    </rdf:RDF>
  </metadata>
  <g
     inkscape:label="Layer 1"
     inkscape:groupmode="layer"
     id="layer1">
    <g
       transform="matrix(0.35277777,0,0,-0.35277777,-70.777455,287.43463)"
       inkscape:label="1"
       id="g37">
      <g
         id="g39">
        <g
           transform="matrix(0.75,0,0,0.75,171.11858,70.053286)"
           inkscape:label="4 (3)"
           id="g4142"
           style="fill:#ffeeaa"
           inkscape:transform-center-x="-112.92338"
           inkscape:transform-center-y="70.865179">
          <g
             id="g4144"
             style="fill:#ffeeaa">
            <g
               clip-path="url(#clipPath4150)"
               id="g4146"
               style="fill:#ffeeaa">
              <g
                 transform="translate(354.9932,747.0605)"
                 id="g4152"
                 style="fill:#ffeeaa">
                <path
                   inkscape:connector-curvature="0"
                   id="path4154"
                   style="fill:#ffeeaa;fill-opacity:1;fill-rule:nonzero;stroke:none"
                   d="m 0,0 c 22.376,-5.597 32.448,-0.003 49.232,4.474 16.784,4.476 39.162,-1.12 52.588,-3.357 13.427,-2.237 40.284,6.714 53.711,6.714 13.427,0 34.687,5.594 34.687,5.594 0,0 -60.424,42.519 -127.559,32.449 C -4.476,35.803 -53.034,-7.144 -53.034,-7.144 c 0,0 30.655,12.737 53.034,7.144" />
              </g>
              <g
                 transform="translate(406.9043,696.9004)"
                 id="g4156"
                 style="fill:#ffeeaa">
                <path
                   inkscape:connector-curvature="0"
                   id="path4158"
                   style="fill:#ffeeaa;fill-opacity:1;fill-rule:nonzero;stroke:none"
                   d="m 0,0 c 35.109,-0.197 63.368,5.338 81.351,0 17.983,-5.338 33.417,-15.613 56.956,-10.476 23.536,5.138 26.962,11.133 39.806,17.128 12.846,5.994 16.272,16.292 5.139,27.841 0,0 -3.404,10.692 -44.945,8.125 C 96.763,40.047 90.768,42.6 74.499,38.753 c -16.269,-3.843 -28.823,-2.149 -56.37,0 -27.548,2.15 -50.67,-8.124 -68.653,-10.694 -17.98,-2.57 -49.665,3.422 -59.085,-3.426 -9.419,-6.851 -30.828,-24.83 -30.828,-24.83 l -6.85,-42.819 c 0,0 61.657,28.261 83.063,31.686 C -42.816,-7.905 -35.11,0.197 0,0" />
              </g>
              <g
                 transform="translate(229.6455,477.4849)"
                 id="g4160"
                 style="fill:#ffeeaa">
                <path
                   inkscape:connector-curvature="0"
                   id="path4162"
                   style="fill:#ffeeaa;fill-opacity:1;fill-rule:nonzero;stroke:none"
                   d="m 0,0 c 9.421,0.856 31.685,14.556 44.53,21.406 12.845,6.853 74.499,112.177 165.268,114.747 90.768,2.57 133.588,1.714 163.557,6.85 29.97,5.139 32.541,10.278 32.541,22.268 0,11.986 -5.997,35.961 -15.417,36.819 0,0 -35.962,-17.125 -63.364,-16.27 -27.402,0.856 -90.476,14.525 -131.727,8.12 C 154.138,187.532 95.909,148.142 82.207,131.872 68.507,115.604 43.674,87.344 34.255,81.349 24.834,75.357 0,66.791 0,66.791 0,66.791 -9.42,-0.856 0,0" />
              </g>
              <g
                 transform="translate(281.0269,605.501)"
                 id="g4164"
                 style="fill:#ffeeaa">
                <path
                   inkscape:connector-curvature="0"
                   id="path4166"
                   style="fill:#ffeeaa;fill-opacity:1;fill-rule:nonzero;stroke:none"
                   d="m 0,0 c 11.131,13.276 27.401,21.836 41.102,31.259 13.701,9.42 26.546,18.839 31.684,26.545 5.138,7.706 14.557,16.27 14.557,16.27 0,0 -82.206,-23.976 -119.028,-47.098 0,0 -14.558,-47.3 -14.558,-55.858 0,-8.559 35.11,15.608 46.243,28.882" />
              </g>
              <g
                 transform="translate(565.3193,592.2305)"
                 id="g4168"
                 style="fill:#ffeeaa">
                <path
                   inkscape:connector-curvature="0"
                   id="path4170"
                   style="fill:#ffeeaa;fill-opacity:1;fill-rule:nonzero;stroke:none"
                   d="M 0,0 C -32.538,3.427 -91.623,6.85 -91.623,6.85 -30.878,-4.005 7.708,-43.671 25.69,-65.937 43.673,-88.201 50.523,-86.486 65.081,-87.344 79.638,-88.199 84.778,-75.354 83.063,-30.826 81.351,13.701 76.214,1.714 60.802,0 45.39,-1.711 32.54,-3.427 0,0" />
              </g>
              <g
                 transform="translate(386.3501,397.8486)"
                 id="g4172"
                 style="fill:#ffeeaa">
                <path
                   inkscape:connector-curvature="0"
                   id="path4174"
                   style="fill:#ffeeaa;fill-opacity:1;fill-rule:nonzero;stroke:none"
                   d="m 0,0 c 66.793,31.682 95.908,49.665 95.908,49.665 0,0 -32.244,0 -57.225,-6.851 -24.981,-6.851 -75.502,-4.28 -100.336,6.851 -24.835,11.132 -92.29,21.902 -99.237,9.668 0,0 15.318,-78.175 29.875,-84.17 C -97.619,-25.692 -66.793,-31.683 0,0" />
              </g>
              <g
                 transform="translate(591.0098,477.4756)"
                 id="g4176"
                 style="fill:#ffeeaa">
                <path
                   inkscape:connector-curvature="0"
                   id="path4178"
                   style="fill:#ffeeaa;fill-opacity:1;fill-rule:nonzero;stroke:none"
                   d="m 0,0 c -26.545,-5.144 -133.586,-60.169 -133.586,-60.169 0,0 85.634,-3.188 93.342,0 7.704,3.19 52.235,15.649 84.775,15.649 C 53.096,-41.095 52.236,0 52.236,0 52.236,0 26.545,5.146 0,0" />
              </g>
              <g
                 transform="translate(368.3696,362.7393)"
                 id="g4180"
                 style="fill:#ffeeaa">
                <path
                   inkscape:connector-curvature="0"
                   id="path4182"
                   style="fill:#ffeeaa;fill-opacity:1;fill-rule:nonzero;stroke:none"
                   d="m 0,0 c -71.929,-26.547 -108.752,-15.414 -108.752,-15.414 0,0 5.993,-17.983 18.839,-36.823 12.845,-18.838 31.682,-19.696 47.096,-19.696 15.414,0 72.787,21.411 99.481,32.541 26.693,11.133 124.874,26.545 164.264,21.408 15.416,15.416 33.396,59.085 33.396,59.085 C 207.226,53.092 71.929,26.543 0,0" />
              </g>
              <g
                 transform="translate(391.4893,298.7988)"
                 id="g4184"
                 style="fill:#ffeeaa">
                <path
                   inkscape:connector-curvature="0"
                   id="path4186"
                   style="fill:#ffeeaa;fill-opacity:1;fill-rule:nonzero;stroke:none"
                   d="m 0,0 c 0,0 23.977,-14.842 33.544,-19.979 9.568,-5.137 71.785,-5.994 116.311,-5.137 23.979,16.268 36.821,50.522 36.821,50.522 C 89.912,46.814 0,0 0,0" />
              </g>
              <g
                 transform="translate(378.644,273.3916)"
                 id="g4188"
                 style="fill:#ffeeaa">
                <path
                   inkscape:connector-curvature="0"
                   id="path4190"
                   style="fill:#ffeeaa;fill-opacity:1;fill-rule:nonzero;stroke:none"
                   d="m 0,0 c -12.845,2.861 -55.66,7.419 -70.218,0 0,0 36.822,-40.813 71.074,-50.232 34.253,-9.421 76.211,-12.846 125.88,9.419 23.975,11.989 32.54,23.977 32.54,23.977 0,0 -59.835,0.857 -89.433,0.857 C 40.247,-15.979 12.844,-2.858 0,0" />
              </g>
              <g
                 transform="translate(489.1094,174.3486)"
                 id="g4192"
                 style="fill:#ffeeaa">
                <path
                   inkscape:connector-curvature="0"
                   id="path4194"
                   style="fill:#ffeeaa;fill-opacity:1;fill-rule:nonzero;stroke:none"
                   d="m 0,0 c 26.545,14.558 33.396,41.53 33.396,41.53 0,0 -27.4,-4.71 -48.809,-14.985 -21.409,-10.274 -56.517,-8.563 -82.207,0.858 -25.69,9.42 -66.793,25.687 -69.361,14.127 l -4.282,-19.264 c 0,0 48.809,-14.558 60.798,-22.266 C -98.476,-7.706 -30.828,-18.839 0,0" />
              </g>
              <g
                 transform="translate(505.3799,163.9873)"
                 id="g4196"
                 style="fill:#ffeeaa">
                <path
                   inkscape:connector-curvature="0"
                   id="path4198"
                   style="fill:#ffeeaa;fill-opacity:1;fill-rule:nonzero;stroke:none"
                   d="m 0,0 c -12.846,3.343 -17.983,-11.902 -31.684,-22.179 -13.702,-10.272 -29.972,-18.839 -68.505,-13.7 -38.534,5.138 -87.345,54.805 -87.345,54.805 l -35.109,-29.116 c 0,0 23.977,-25.689 85.633,-64.224 61.655,-38.536 113.031,17.128 122.452,26.548 9.42,9.419 41.103,10.451 41.103,10.451 L 32.54,0 C 32.54,0 12.846,-3.339 0,0" />
              </g>
              <g
                 transform="translate(444.582,516.877)"
                 id="g4200"
                 style="fill:#ffeeaa">
                <path
                   inkscape:connector-curvature="0"
                   id="path4202"
                   style="fill:#ffeeaa;fill-opacity:1;fill-rule:nonzero;stroke:none"
                   d="m 0,0 c 4.282,-30.828 31.683,-54.598 54.803,-54.275 23.12,0.327 51.402,30.624 50.964,57.007 -0.442,26.381 -23.562,48.645 -23.562,48.645 0,0 -15.412,-48.807 -34.253,-25.689 C 29.115,48.809 33.395,59.742 33.395,59.742 33.395,59.742 -4.282,30.826 0,0" />
              </g>
              <g
                 transform="translate(317.8462,509.1685)"
                 id="g4204"
                 style="fill:#ffeeaa">
                <path
                   inkscape:connector-curvature="0"
                   id="path4206"
                   style="fill:#ffeeaa;fill-opacity:1;fill-rule:nonzero;stroke:none"
                   d="m 0,0 c -0.856,-32.538 41.104,-52.598 58.231,-51.987 17.126,0.61 50.815,17.735 48.956,51.987 -1.859,34.253 -12.991,52.236 -24.124,58.231 0,0 3.425,-53.092 -20.553,-52.235 C 38.534,6.851 44.53,53.094 44.53,53.094 44.53,53.094 0.855,32.541 0,0" />
              </g>
            </g>
          </g>
        </g>
      </g>
    </g>
  </g>
</svg>
