<?xml version="1.0" encoding="UTF-8" standalone="no"?>
<!-- Created with Inkscape (http://www.inkscape.org/) -->

<svg
   xmlns:dc="http://purl.org/dc/elements/1.1/"
   xmlns:cc="http://creativecommons.org/ns#"
   xmlns:rdf="http://www.w3.org/1999/02/22-rdf-syntax-ns#"
   xmlns:svg="http://www.w3.org/2000/svg"
   xmlns="http://www.w3.org/2000/svg"
   xmlns:sodipodi="http://sodipodi.sourceforge.net/DTD/sodipodi-0.dtd"
   xmlns:inkscape="http://www.inkscape.org/namespaces/inkscape"
   width="210mm"
   height="297mm"
   viewBox="0 0 210 297"
   version="1.1"
   id="svg8"
   inkscape:version="0.92.2 5c3e80d, 2017-08-06"
   sodipodi:docname="mummy2.svg">
  <defs
     id="defs2">
    <clipPath
       id="clipPath45"
       clipPathUnits="userSpaceOnUse">
      <path
         inkscape:connector-curvature="0"
         id="path43"
         d="M 0,864 H 864 V 0 H 0 Z" />
    </clipPath>
    <clipPath
       id="clipPath3854"
       clipPathUnits="userSpaceOnUse">
      <path
         inkscape:connector-curvature="0"
         id="path3852"
         d="M 0,864 H 864 V 0 H 0 Z" />
    </clipPath>
    <clipPath
       id="clipPath4053"
       clipPathUnits="userSpaceOnUse">
      <path
         inkscape:connector-curvature="0"
         id="path4051"
         d="M 0,864 H 864 V 0 H 0 Z" />
    </clipPath>
    <clipPath
       id="clipPath4150"
       clipPathUnits="userSpaceOnUse">
      <path
         inkscape:connector-curvature="0"
         id="path4148"
         d="M 0,864 H 864 V 0 H 0 Z" />
    </clipPath>
    <clipPath
       id="clipPath4295"
       clipPathUnits="userSpaceOnUse">
      <path
         inkscape:connector-curvature="0"
         id="path4293"
         d="M 0,864 H 864 V 0 H 0 Z" />
    </clipPath>
    <clipPath
       id="clipPath4410"
       clipPathUnits="userSpaceOnUse">
      <path
         inkscape:connector-curvature="0"
         id="path4408"
         d="M 0,864 H 864 V 0 H 0 Z" />
    </clipPath>
    <clipPath
       id="clipPath4615"
       clipPathUnits="userSpaceOnUse">
      <path
         inkscape:connector-curvature="0"
         id="path4613"
         d="M 0,864 H 864 V 0 H 0 Z" />
    </clipPath>
    <clipPath
       id="clipPath4838"
       clipPathUnits="userSpaceOnUse">
      <path
         inkscape:connector-curvature="0"
         id="path4836"
         d="M 0,864 H 864 V 0 H 0 Z" />
    </clipPath>
    <clipPath
       id="clipPath5001"
       clipPathUnits="userSpaceOnUse">
      <path
         inkscape:connector-curvature="0"
         id="path4999"
         d="M 0,864 H 864 V 0 H 0 Z" />
    </clipPath>
    <inkscape:perspective
       id="perspective9"
       inkscape:persp3d-origin="372.04724 : 350.78739 : 1"
       inkscape:vp_z="744.09448 : 526.18109 : 1"
       inkscape:vp_y="0 : 1000 : 0"
       inkscape:vp_x="0 : 526.18109 : 1"
       sodipodi:type="inkscape:persp3d" />
  </defs>
  <sodipodi:namedview
     id="base"
     pagecolor="#000000"
     bordercolor="#666666"
     borderopacity="1.0"
     inkscape:pageopacity="0"
     inkscape:pageshadow="2"
     inkscape:zoom="0.91846942"
     inkscape:cx="396.85039"
     inkscape:cy="556.87007"
     inkscape:document-units="mm"
     inkscape:current-layer="g5136"
     showgrid="false"
     inkscape:window-width="2560"
     inkscape:window-height="1385"
     inkscape:window-x="2560"
     inkscape:window-y="27"
     inkscape:window-maximized="1"
     showguides="true"
     inkscape:guide-bbox="true">
    <sodipodi:guide
       position="105.43356,205.96993"
       orientation="1,0"
       id="guide3815"
       inkscape:locked="false" />
    <sodipodi:guide
       position="92.758485,149.50825"
       orientation="0,1"
       id="guide3817"
       inkscape:locked="false" />
  </sodipodi:namedview>
  <metadata
     id="metadata5">
    <rdf:RDF>
      <cc:Work
         rdf:about="">
        <dc:format>image/svg+xml</dc:format>
        <dc:type
           rdf:resource="http://purl.org/dc/dcmitype/StillImage" />
        <dc:title></dc:title>
      </cc:Work>
    </rdf:RDF>
  </metadata>
  <g
     inkscape:label="Layer 1"
     inkscape:groupmode="layer"
     id="layer1">
    <g
       transform="matrix(0.35277777,0,0,-0.35277777,-70.777455,287.43463)"
       inkscape:label="1"
       id="g37">
      <g
         id="g39">
        <g
           id="g5136"
           transform="matrix(0.75000002,0,0,-0.75000002,342.50983,505.50165)"
           style="fill:#ffeeaa">
          <path
             style="fill:#ffeeaa;stroke-width:1.72916186"
             d="m 89.153966,346.42975 c -1.188842,-2.55966 -2.161428,-5.66609 -2.161428,-6.90316 0,-1.23684 -0.778345,-2.24889 -1.729175,-2.24889 -0.950891,0 -1.72915,-1.55625 -1.72915,-3.45838 0,-1.90208 -0.778357,-3.45833 -1.729163,-3.45833 -0.950927,0 -1.729187,-1.51018 -1.729187,-3.35631 0,-1.8458 -0.802871,-3.85233 -1.784217,-4.45891 -1.845847,-1.1407 -7.526169,-12.78095 -9.350664,-19.16161 -1.029607,-3.60078 -0.588182,-3.65085 49.573908,-5.63471 112.7262,-4.45818 226.23663,-7.26718 229.09211,-5.66926 1.66311,0.93032 -1.58051,5.31771 -11.5689,15.64714 -7.6337,7.89467 -13.88464,14.85528 -13.89063,15.46766 0,0.61269 -5.76489,7.14445 -12.79698,14.51499 l -12.78587,13.40098 -102.6246,-0.0214 -102.624576,-0.0195 -2.161478,-4.65422 z m -26.36971,-54.567 c 0,-0.25108 -1.55625,-4.7143 -3.458351,-9.9182 -1.902027,-5.20397 -3.458276,-11.2233 -3.458276,-13.37662 0,-2.15318 -0.588175,-3.91498 -1.308219,-3.91498 -1.427921,0 -5.608454,-12.19982 -5.608454,-16.36692 0,-3.24427 3.512947,-3.97831 25.072862,-5.23926 20.100927,-1.17542 53.829612,-3.49436 88.187222,-6.06328 13.31457,-0.99538 35.8801,-2.54909 50.14569,-3.45231 14.26559,-0.90288 36.05301,-2.4273 48.41654,-3.3866 12.36352,-0.95973 32.98377,-2.50511 45.82284,-3.43467 12.83897,-0.92928 28.79049,-2.09731 35.44776,-2.59474 6.65724,-0.49801 19.69086,-1.19834 28.96344,-1.55714 16.74931,-0.64802 16.85932,-0.62544 16.85932,3.42962 0,2.24513 -0.62548,4.082 -1.38885,4.082 -0.76364,0 -3.29282,3.87856 -5.61983,8.61903 -2.32704,4.74025 -4.81449,8.63094 -5.52776,8.64574 -0.71366,0.0215 -1.29684,1.58313 -1.29684,3.48523 0,1.90196 -0.68328,3.45819 -1.51936,3.45819 -0.83623,0 -2.48625,2.33449 -3.66807,5.18759 -1.18196,2.85311 -2.83239,5.18752 -3.66813,5.18752 -0.83524,0 -1.51938,1.22145 -1.51938,2.71438 0,1.49301 -2.37176,6.16174 -5.27045,10.37504 l -5.27078,7.66038 -40.98438,0.0491 c -22.54151,0.0291 -50.97611,0.78136 -63.18813,1.67451 -12.21211,0.89306 -47.80019,1.70537 -79.08474,1.80446 -32.874,0.10384 -57.29933,0.85682 -57.87214,1.7836 -0.83622,1.35322 -49.203534,2.48064 -49.203534,1.14724 z M 21.28439,207.86953 v -32.82918 l 28.098886,-1.10571 c 15.45434,-0.60778 47.162789,-1.84599 70.463244,-2.75075 23.30056,-0.90481 61.42855,-2.39655 84.72898,-3.3153 23.30047,-0.91853 62.59568,-2.41943 87.32268,-3.33484 24.72701,-0.9156 56.78499,-2.20187 71.23988,-2.85906 21.62822,-0.98297 26.71891,-0.7578 28.74981,1.2734 2.33518,2.33531 3.0438,5.34554 5.62511,23.89259 0.59508,4.27966 1.78136,8.52032 2.63487,9.42392 0.85387,0.90387 1.55208,4.89507 1.55208,8.87026 v 7.22756 l -10.80726,1.10262 c -5.94395,0.60684 -21.70098,1.90398 -35.0155,2.88361 -13.31458,0.97934 -33.93475,2.53264 -45.82281,3.45137 -22.8455,1.76525 -48.82722,3.60962 -94.23928,6.68918 -15.2166,1.03185 -36.61507,2.68406 -47.55197,3.67144 -10.93695,0.98746 -30.77907,2.5546 -44.0936,3.4829 -13.31458,0.9283 -35.102015,2.44692 -48.416523,3.37526 -13.314595,0.92835 -31.016862,2.13621 -39.338465,2.684 l -15.130132,0.99579 z m 0,-66.14068 v -26.09091 l 9.942637,0.90974 c 5.46845,0.49992 18.891095,1.66219 29.828054,2.58214 10.936939,0.91952 21.247073,2.21922 22.911465,2.88729 3.371677,1.35343 3.921743,3.5453 1.296817,5.16763 -0.950891,0.58818 -1.72915,2.96811 -1.72915,5.28956 0,2.3216 -0.778357,4.22083 -1.729163,4.22083 -0.950927,0 -1.729187,1.55624 -1.729187,3.45836 0,1.90208 -0.778369,3.45834 -1.729138,3.45834 -0.950963,0 -1.729187,1.17556 -1.729187,2.61243 0,3.42092 -7.066984,18.6391 -9.414043,20.27247 -1.004026,0.69896 -11.746592,1.28233 -23.872234,1.29685 l -22.046871,0.0292 z m 108.55681,15.82253 c -7.79433,-3.8945 -11.72375,-7.62163 -11.72375,-11.12056 0,-1.43834 -0.85087,-3.14121 -1.89149,-3.78411 -1.83837,-1.13619 -1.40822,-8.71968 1.03169,-18.18712 1.13803,-4.41611 1.02502,-4.47144 -13.26176,-6.45185 -17.96022,-2.49 -27.310895,-3.57557 -48.128261,-5.58708 -35.708394,-3.45072 -35.673245,-3.43753 -31.468499,-11.59615 3.180696,-6.171518 5.380285,-11.161025 8.770376,-19.895041 0.830315,-2.139796 3.097962,-7.392121 5.038688,-11.671873 1.940748,-4.279643 4.568149,-10.382876 5.838857,-13.562599 l 2.310179,-5.781285 24.208251,1.099617 c 29.834179,1.355287 73.535569,3.702068 112.395509,6.035776 58.81342,3.531777 87.00734,5.266811 114.12468,7.022959 15.21664,0.985308 41.67281,2.495352 58.7915,3.355375 17.11868,0.859754 31.26395,1.623918 31.43371,1.697048 0.16955,0.06875 1.54331,1.367807 3.05229,2.876838 2.39922,2.399 2.60245,7.012267 1.61823,36.744525 -0.6578,19.85821 -1.89811,34.97572 -2.9827,36.34417 -1.3788,1.73989 -4.54614,2.06583 -12.30174,1.2659 -5.74464,-0.59208 -17.83699,-1.8573 -26.87185,-2.81075 -9.03482,-0.95385 -24.59729,-2.48511 -34.58325,-3.40382 -26.42522,-2.43109 -46.64208,-4.72251 -54.00568,-6.12135 -5.42346,-1.03035 -6.61699,-0.70782 -7.47674,2.02134 -0.5627,1.78606 -2.18062,5.19263 -3.59559,7.5702 -1.4148,2.37767 -2.96868,5.49015 -3.45288,6.91669 -1.54889,4.56374 -15.46449,10.37489 -24.84384,10.37489 -9.00359,0 -24.06942,-6.0328 -24.16076,-9.67454 -0.0291,-1.0415 -1.60369,-3.30192 -3.50581,-5.02324 -2.55184,-2.30931 -3.45834,-5.32582 -3.45834,-11.5076 v -8.37773 h -8.64573 -8.64589 v 8.3802 c 0,9.29265 -4.09762,19.28637 -7.90786,19.28637 -1.35687,0 -2.46708,0.58821 -2.46708,1.30812 0,2.04544 -13.07805,5.6159 -20.29041,5.53967 -3.58136,-0.0391 -9.40619,-1.51517 -12.94405,-3.28299 z M 350.68968,58.882281 c -1.9021,-0.817566 -15.94715,-1.54085 -31.21139,-1.607593 -15.26418,-0.06878 -28.49228,-0.844069 -29.39576,-1.726368 -0.90386,-0.882265 -16.03798,-2.03608 -33.63215,-2.563322 C 209.06772,51.565325 105.25392,45.99656 84.39877,43.755782 70.600486,42.273124 71.454497,44.363574 75.236559,21.329968 76.555847,13.294833 78.244359,8.3906095 79.977647,7.5596013 81.458203,6.8498505 134.02569,5.6766213 196.79429,4.9528631 259.56286,4.2293909 316.75488,3.5529701 323.88764,3.4507218 c 16.31691,-0.2342142 22.47913,1.9140517 22.47913,7.8367092 0,2.401182 0.77836,4.36584 1.72917,4.36584 0.95091,0 1.72917,1.020403 1.72917,2.267657 0,1.247253 1.55624,3.938113 3.45837,5.979699 1.90199,2.04169 3.45826,4.756274 3.45826,6.032343 0,1.276174 0.7254,3.059468 1.6132,3.962822 2.67497,2.724396 12.22006,21.702823 12.22006,24.297423 0,2.755291 -13.95202,3.238765 -19.88532,0.689165 z M 115.09146,-1.0698833 c -6.41675,-1.334014 -4.39327,-4.0267343 3.02599,-4.0267343 3.80412,0 6.91662,-0.7783542 6.91662,-1.7291698 0,-0.9508942 1.89933,-1.729067 4.22081,-1.729067 2.32149,0 4.70178,-0.7783797 5.28959,-1.7291706 0.58817,-0.950915 3.35718,-1.72917 6.1541,-1.72917 2.79702,0 5.08546,-0.778382 5.08546,-1.729193 0,-0.950896 1.76171,-1.729174 3.91497,-1.729174 2.15327,0 8.17278,-1.556246 13.37666,-3.458342 5.20381,-1.902093 11.22331,-3.458339 13.37657,-3.458339 2.15325,0 3.91505,-0.778356 3.91505,-1.729065 0,-0.950917 1.89939,-1.729171 4.22086,-1.729171 2.3215,0 4.70175,-0.778382 5.28955,-1.729172 0.58818,-0.950917 2.92213,-1.729192 5.18742,-1.729192 2.2654,0 4.59975,-0.778357 5.1875,-1.729175 0.58821,-0.950889 2.92213,-1.729171 5.18754,-1.729171 2.26532,0 4.59975,-0.778354 5.18743,-1.729169 0.58818,-0.950893 3.31121,-1.729169 6.05205,-1.729169 2.74092,0 5.46433,-0.778355 6.05207,-1.729171 0.58817,-0.950894 3.31116,-1.729065 6.05215,-1.729065 2.74081,0 5.46422,-0.778381 6.05202,-1.729171 0.58819,-0.950917 3.35722,-1.729171 6.15403,-1.729171 2.79713,0 5.08548,-0.588209 5.08548,-1.308154 0,-1.729845 12.59206,-5.608555 18.20765,-5.608555 4.78986,0 7.869,2.684683 19.83392,17.293702 4.27966,5.225354 11.48664,13.24479 16.01537,17.820876 6.9311,7.0038598 7.86301,8.691373 5.88892,10.6655243 -1.90652,1.906604 -18.7427,2.3844 -90.04999,2.5565489 -48.23793,0.1156881 -89.79407,0.4921092 -92.34714,0.834251 -2.55317,0.3421154 -6.39285,0.2588553 -8.53265,-0.1862399 z"
             id="path6497-5-6"
             inkscape:connector-curvature="0"
             sodipodi:nodetypes="csssssccscccccccccccssscccccccssccsscssccccccccccccccccccscccccccscccccccccssssscccccsccccccccccccccccccccccccsccscccssscccccccccccssscscscccssscssscssscscscscscsssccscscc" />
        </g>
      </g>
    </g>
  </g>
</svg>
