<?xml version="1.0" encoding="UTF-8" standalone="no"?>
<!-- Created with Inkscape (http://www.inkscape.org/) -->

<svg
   xmlns:dc="http://purl.org/dc/elements/1.1/"
   xmlns:cc="http://creativecommons.org/ns#"
   xmlns:rdf="http://www.w3.org/1999/02/22-rdf-syntax-ns#"
   xmlns:svg="http://www.w3.org/2000/svg"
   xmlns="http://www.w3.org/2000/svg"
   xmlns:sodipodi="http://sodipodi.sourceforge.net/DTD/sodipodi-0.dtd"
   xmlns:inkscape="http://www.inkscape.org/namespaces/inkscape"
   width="210mm"
   height="297mm"
   viewBox="0 0 210 297"
   version="1.1"
   id="svg8"
   inkscape:version="0.92.2 5c3e80d, 2017-08-06"
   sodipodi:docname="pikachu2.svg">
  <defs
     id="defs2">
    <clipPath
       id="clipPath106"
       clipPathUnits="userSpaceOnUse">
      <path
         inkscape:connector-curvature="0"
         id="path104"
         d="M 0,864 H 864 V 0 H 0 Z" />
    </clipPath>
  </defs>
  <sodipodi:namedview
     id="base"
     pagecolor="#000000"
     bordercolor="#666666"
     borderopacity="1.0"
     inkscape:pageopacity="0"
     inkscape:pageshadow="2"
     inkscape:zoom="0.98994949"
     inkscape:cx="291.36527"
     inkscape:cy="554.28571"
     inkscape:document-units="mm"
     inkscape:current-layer="layer1"
     showgrid="false"
     showguides="true"
     inkscape:guide-bbox="true"
     inkscape:window-width="2560"
     inkscape:window-height="1385"
     inkscape:window-x="2560"
     inkscape:window-y="27"
     inkscape:window-maximized="1">
    <sodipodi:guide
       position="104.76965,149.1364"
       orientation="1,0"
       id="guide10"
       inkscape:locked="false" />
    <sodipodi:guide
       position="56.661139,148.86913"
       orientation="0,1"
       id="guide12"
       inkscape:locked="false" />
  </sodipodi:namedview>
  <metadata
     id="metadata5">
    <rdf:RDF>
      <cc:Work
         rdf:about="">
        <dc:format>image/svg+xml</dc:format>
        <dc:type
           rdf:resource="http://purl.org/dc/dcmitype/StillImage" />
        <dc:title></dc:title>
      </cc:Work>
    </rdf:RDF>
  </metadata>
  <g
     inkscape:label="Layer 1"
     inkscape:groupmode="layer"
     id="layer1">
    <g
       transform="matrix(0.18748057,0,0,-0.18748057,63.409431,98.711578)"
       id="g1523"
       style="fill:#ffeeaa">
      <path
         inkscape:connector-curvature="0"
         id="path1525"
         style="fill:#ffeeaa;fill-opacity:1;fill-rule:nonzero;stroke:none"
         d="m 0,0 c 0,0 -103.51,-43.613 -150.65,-147.068 -47.143,-103.455 -28.934,-209.975 9.976,-290.092 38.91,-80.117 135.688,-128.801 135.688,-128.801 0,0 -55.873,64.893 -27.936,128.801 27.936,63.908 29.932,55.879 27.936,80.18 -1.998,24.3 -2.994,55.742 4.986,64.871 7.982,9.129 -38.221,50.716 -44.416,82.834 -6.195,32.115 -3.096,69.269 -3.096,69.269 0,0 24.776,4.41 40.881,37.156 16.108,32.746 67.522,49.121 79.91,44.082 21.682,24.559 66.285,49.524 102.213,58.768 35.926,9.244 55.475,20.285 55.475,20.285 0,0 -86.301,33.977 -230.967,-20.285" />
    </g>
    <g
       transform="matrix(0.18748057,0,0,-0.18748057,114.47372,96.239909)"
       id="g1527"
       style="fill:#ffeeaa">
      <path
         inkscape:connector-curvature="0"
         id="path1529"
         style="fill:#ffeeaa;fill-opacity:1;fill-rule:nonzero;stroke:none"
         d="m 0,0 c 0,0 -75.822,-65.926 -118.725,-80.125 28.932,-13.186 37.911,-43.613 37.911,-43.613 0,0 52.878,21.299 127.705,-9.129 74.828,-30.428 78.818,-50.713 78.818,-50.713 0,0 -137.682,-18.258 -187.566,-6.086 26.939,-65.93 32.923,-107.512 36.914,-135.914 3.992,-28.399 17.957,-55.779 28.435,-75.053 10.475,-19.273 18.455,-95.344 0,-114.613 22.445,17.242 28.434,30.428 28.434,30.428 0,0 2.992,-30.426 -3.99,-43.614 25.941,41.584 44.197,120.698 44.197,120.698 0,0 43.597,-34.489 53.576,-54.772 10.975,66.942 19.957,142.361 -4.986,181.736 47.888,27.204 75.82,34.303 75.82,34.303 0,0 0,166.342 -196.543,246.467" />
    </g>
    <g
       transform="matrix(0.18748057,0,0,-0.18748057,81.806337,126.83658)"
       id="g1531"
       style="fill:#ffeeaa">
      <path
         inkscape:connector-curvature="0"
         id="path1533"
         style="fill:#ffeeaa;fill-opacity:1;fill-rule:nonzero;stroke:none"
         d="m 0,0 c 0,0 -32.977,23.053 -47.404,-18.857 -4.123,-9.08 14.429,-37.02 43.97,-20.956 11.68,8.383 11.68,25.145 11.68,25.145 l -16.49,-4.516 z" />
    </g>
    <g
       transform="matrix(0.18748057,0,0,-0.18748057,65.705712,118.97999)"
       id="g1535"
       style="fill:#ffeeaa">
      <path
         inkscape:connector-curvature="0"
         id="path1537"
         style="fill:#ffeeaa;fill-opacity:1;fill-rule:nonzero;stroke:none"
         d="m 0,0 c 0,0 -22.67,-4.889 -24.732,-25.141 3.435,-6.986 17.175,-5.593 26.793,12.569 2.75,2.793 -8.932,-1.946 -8.932,-1.946 z" />
    </g>
    <g
       transform="matrix(0.18748057,0,0,-0.18748057,61.068867,127.49131)"
       id="g1539"
       style="fill:#ffeeaa">
      <path
         inkscape:connector-curvature="0"
         id="path1541"
         style="fill:#ffeeaa;fill-opacity:1;fill-rule:nonzero;stroke:none"
         d="M 0,0 C 0,0 -0.002,-9.779 18.549,-10.477 15.801,-2.094 15.115,-1.396 0,0" />
    </g>
    <g
       transform="matrix(0.18748057,0,0,-0.18748057,69.956608,137.44317)"
       id="g1543"
       style="fill:#ffeeaa">
      <path
         inkscape:connector-curvature="0"
         id="path1545"
         style="fill:#ffeeaa;fill-opacity:1;fill-rule:nonzero;stroke:none"
         d="M 0,0 C 0,0 7.557,-27.24 40.535,-24.447 46.031,-23.051 47.404,-2.096 24.73,8.383 2.061,18.859 -5.859,10.873 0,0" />
    </g>
    <g
       transform="matrix(0.18748057,0,0,-0.18748057,59.522883,129.45547)"
       id="g1547"
       style="fill:#ffeeaa">
      <path
         inkscape:connector-curvature="0"
         id="path1549"
         style="fill:#ffeeaa;fill-opacity:1;fill-rule:nonzero;stroke:none"
         d="m 0,0 c 0,0 -5.494,10.48 -12.365,15.365 0,0 -8.932,-6.285 -6.182,-26.541 C -6.869,-6.986 0,0 0,0" />
    </g>
    <g
       transform="matrix(0.18748057,0,0,-0.18748057,121.76826,202.53663)"
       id="g1551"
       style="fill:#ffeeaa">
      <path
         inkscape:connector-curvature="0"
         id="path1553"
         style="fill:#ffeeaa;fill-opacity:1;fill-rule:nonzero;stroke:none"
         d="M 0,0 50.885,89.258 89.793,20.287 53.877,67.959 Z" />
    </g>
    <g
       transform="matrix(0.18748057,0,0,-0.18748057,141.40869,192.45808)"
       id="g1555"
       style="fill:#ffeeaa">
      <path
         inkscape:connector-curvature="0"
         id="path1557"
         style="fill:#ffeeaa;fill-opacity:1;fill-rule:nonzero;stroke:none"
         d="m 0,0 c 0,0 37.91,67.957 47.889,96.355 25.941,3.043 75.824,-27.384 75.824,-27.384 0,0 -40.908,13.892 -61.858,12.172 C 38.91,38.543 0,0 0,0" />
    </g>
    <g
       transform="matrix(0.18748057,0,0,-0.18748057,158.42986,142.06427)"
       id="g1559"
       style="fill:#ffeeaa">
      <path
         inkscape:connector-curvature="0"
         id="path1561"
         style="fill:#ffeeaa;fill-opacity:1;fill-rule:nonzero;stroke:none"
         d="m 0,0 c 0,0 91.789,-9.145 121.721,-26.387 -10.977,-51.728 -64.854,-158.222 -64.854,-158.222 0,0 54.631,129.66 48.887,148.261 C 78.818,-25.371 78.818,-15.197 0,0" />
    </g>
    <g
       transform="matrix(0.18748057,0,0,-0.18748057,98.013153,206.52976)"
       id="g1563"
       style="fill:#ffeeaa">
      <path
         inkscape:connector-curvature="0"
         id="path1565"
         style="fill:#ffeeaa;fill-opacity:1;fill-rule:nonzero;stroke:none"
         d="M 0,0 C 0,0 60.363,36.514 75.826,54.77 91.789,37.527 103.762,43.611 103.762,43.611 103.762,43.611 50.885,5.072 0,0" />
    </g>
    <g
       transform="matrix(0.18748057,0,0,-0.18748057,85.667986,162.22354)"
       id="g1567"
       style="fill:#ffeeaa">
      <path
         inkscape:connector-curvature="0"
         id="path1569"
         style="fill:#ffeeaa;fill-opacity:1;fill-rule:nonzero;stroke:none"
         d="m 0,0 c 0,0 27.937,40.57 58.865,43.613 30.928,3.043 42.903,0 42.903,0 L 112.242,15.225 C 112.242,15.225 67.846,30.43 0,0" />
    </g>
    <g
       transform="matrix(0.18748057,0,0,-0.18748057,82.488522,176.67494)"
       id="g1571"
       style="fill:#ffeeaa">
      <path
         inkscape:connector-curvature="0"
         id="path1573"
         style="fill:#ffeeaa;fill-opacity:1;fill-rule:nonzero;stroke:none"
         d="m 0,0 c 0,0 54.875,35.5 98.77,31.441 l 43.9,-4.06 3.992,-45.641 c 0,0 -84.805,-1.017 -105.76,0 C 19.955,-17.244 0,0 0,0" />
    </g>
  </g>
</svg>
