<?xml version="1.0" encoding="UTF-8" standalone="no"?>
<!-- Created with Inkscape (http://www.inkscape.org/) -->

<svg
   xmlns:dc="http://purl.org/dc/elements/1.1/"
   xmlns:cc="http://creativecommons.org/ns#"
   xmlns:rdf="http://www.w3.org/1999/02/22-rdf-syntax-ns#"
   xmlns:svg="http://www.w3.org/2000/svg"
   xmlns="http://www.w3.org/2000/svg"
   xmlns:sodipodi="http://sodipodi.sourceforge.net/DTD/sodipodi-0.dtd"
   xmlns:inkscape="http://www.inkscape.org/namespaces/inkscape"
   width="210mm"
   height="297mm"
   viewBox="0 0 210 297"
   version="1.1"
   id="svg8"
   inkscape:version="0.92.2 5c3e80d, 2017-08-06"
   sodipodi:docname="pikachu.svg">
  <defs
     id="defs2">
    <clipPath
       id="clipPath45"
       clipPathUnits="userSpaceOnUse">
      <path
         inkscape:connector-curvature="0"
         id="path43"
         d="M 0,864 H 864 V 0 H 0 Z" />
    </clipPath>
    <clipPath
       id="clipPath3854"
       clipPathUnits="userSpaceOnUse">
      <path
         inkscape:connector-curvature="0"
         id="path3852"
         d="M 0,864 H 864 V 0 H 0 Z" />
    </clipPath>
    <clipPath
       id="clipPath4053"
       clipPathUnits="userSpaceOnUse">
      <path
         inkscape:connector-curvature="0"
         id="path4051"
         d="M 0,864 H 864 V 0 H 0 Z" />
    </clipPath>
    <clipPath
       id="clipPath4150"
       clipPathUnits="userSpaceOnUse">
      <path
         inkscape:connector-curvature="0"
         id="path4148"
         d="M 0,864 H 864 V 0 H 0 Z" />
    </clipPath>
    <clipPath
       id="clipPath4295"
       clipPathUnits="userSpaceOnUse">
      <path
         inkscape:connector-curvature="0"
         id="path4293"
         d="M 0,864 H 864 V 0 H 0 Z" />
    </clipPath>
    <clipPath
       id="clipPath4410"
       clipPathUnits="userSpaceOnUse">
      <path
         inkscape:connector-curvature="0"
         id="path4408"
         d="M 0,864 H 864 V 0 H 0 Z" />
    </clipPath>
    <clipPath
       id="clipPath4615"
       clipPathUnits="userSpaceOnUse">
      <path
         inkscape:connector-curvature="0"
         id="path4613"
         d="M 0,864 H 864 V 0 H 0 Z" />
    </clipPath>
    <clipPath
       id="clipPath4838"
       clipPathUnits="userSpaceOnUse">
      <path
         inkscape:connector-curvature="0"
         id="path4836"
         d="M 0,864 H 864 V 0 H 0 Z" />
    </clipPath>
    <clipPath
       id="clipPath5001"
       clipPathUnits="userSpaceOnUse">
      <path
         inkscape:connector-curvature="0"
         id="path4999"
         d="M 0,864 H 864 V 0 H 0 Z" />
    </clipPath>
    <inkscape:perspective
       id="perspective9"
       inkscape:persp3d-origin="372.04724 : 350.78739 : 1"
       inkscape:vp_z="744.09448 : 526.18109 : 1"
       inkscape:vp_y="0 : 1000 : 0"
       inkscape:vp_x="0 : 526.18109 : 1"
       sodipodi:type="inkscape:persp3d" />
  </defs>
  <sodipodi:namedview
     id="base"
     pagecolor="#000000"
     bordercolor="#666666"
     borderopacity="1.0"
     inkscape:pageopacity="0"
     inkscape:pageshadow="2"
     inkscape:zoom="0.91846942"
     inkscape:cx="396.85039"
     inkscape:cy="556.87007"
     inkscape:document-units="mm"
     inkscape:current-layer="g5136"
     showgrid="false"
     inkscape:window-width="2560"
     inkscape:window-height="1385"
     inkscape:window-x="2560"
     inkscape:window-y="27"
     inkscape:window-maximized="1"
     showguides="true"
     inkscape:guide-bbox="true">
    <sodipodi:guide
       position="105.43356,205.96993"
       orientation="1,0"
       id="guide3815"
       inkscape:locked="false" />
    <sodipodi:guide
       position="92.758485,149.50825"
       orientation="0,1"
       id="guide3817"
       inkscape:locked="false" />
  </sodipodi:namedview>
  <metadata
     id="metadata5">
    <rdf:RDF>
      <cc:Work
         rdf:about="">
        <dc:format>image/svg+xml</dc:format>
        <dc:type
           rdf:resource="http://purl.org/dc/dcmitype/StillImage" />
        <dc:title></dc:title>
      </cc:Work>
    </rdf:RDF>
  </metadata>
  <g
     inkscape:label="Layer 1"
     inkscape:groupmode="layer"
     id="layer1">
    <g
       transform="matrix(0.35277777,0,0,-0.35277777,-70.777455,287.43463)"
       inkscape:label="1"
       id="g37">
      <g
         id="g39">
        <g
           id="g5136"
           transform="matrix(0.75000002,0,0,-0.75000002,342.50983,505.50165)"
           style="fill:#ffeeaa">
          <path
             style="fill:#ffeeaa;stroke-width:0.66666675"
             d="m 199.1718,462.77323 c -0.22677,-0.36661 -1.14433,-0.66667 -2.03936,-0.66667 -0.89503,0 -1.62731,-0.30009 -1.62731,-0.66667 0,-0.36661 -0.47592,-0.66667 -1.05759,-0.66667 -1.27102,0 -8.27573,-7.12925 -8.27573,-8.42283 0,-0.50078 -0.3001,-0.91048 -0.66667,-0.91048 -0.36662,0 -0.66667,-0.58232 -0.66667,-1.294 0,-0.71169 -0.3001,-1.47938 -0.66667,-1.706 -0.36662,-0.22678 -0.66667,-1.14433 -0.66667,-2.03936 0,-0.89503 -0.26722,-1.62732 -0.59373,-1.62732 -0.5585,0 -0.93445,-1.53686 -1.8356,-7.50417 -0.20788,-1.3773 -0.64649,-2.67001 -0.9744,-2.87267 -0.32807,-0.20258 -0.59626,-1.79082 -0.59626,-3.52917 0,-1.73836 -0.27817,-3.44565 -0.61822,-3.794 -0.81222,-0.83203 -1.3025,-8.49495 -1.76799,-27.63334 -0.45301,-18.62672 -0.30349,-18.24809 -7.49314,-18.95528 -2.4497,-0.24113 -6.70401,-0.711 -9.45399,-1.04454 -12.99413,-1.57599 -17.07636,-1.95149 -18,-1.6557 -1.03374,0.33108 -2.66669,3.2632 -2.66669,4.78843 0,0.4769 -0.30009,0.8671 -0.66663,0.8671 -0.36661,0 -0.66667,0.45407 -0.66667,1.00906 0,1.75691 -2.37691,5.33885 -5.77647,8.70505 -2.20267,2.18105 -6.32659,3.26589 -9.59894,2.52514 -2.18544,-0.49471 -7.29128,-3.11237 -7.29128,-3.73811 0,-0.27553 -0.39341,-0.50113 -0.87428,-0.50113 -0.48087,0 -1.45587,-0.53317 -2.16665,-1.1848 -0.71082,-0.65163 -2.33832,-1.92257 -3.61667,-2.82429 -1.27835,-0.90172 -3.78376,-3.06856 -5.56754,-4.81523 -1.78379,-1.74664 -3.662864,-3.17568 -4.175704,-3.17568 -0.51285,0 -0.93249,-0.22677 -0.93249,-0.50434 0,-0.96684 -5.34357,-2.16234 -9.66519,-2.16234 -2.39411,0 -4.87382,-0.28006 -5.51052,-0.62245 -0.6367,-0.34242 -2.58262,-1.00785 -4.32427,-1.47889 -1.74168,-0.47101 -3.16668,-1.09092 -3.16668,-1.37752 0,-0.28649 -0.6,-0.52113 -1.33334,-0.52113 -0.73334,0 -1.33334,-0.22941 -1.33334,-0.5094 0,-0.28006 -1.16062,-1.01223 -2.57915,-1.62679 -1.41853,-0.61455 -3.0051,-1.51029 -3.52577,-1.9906 -0.52063,-0.48026 -1.53502,-1.20136 -2.25418,-1.60248 -4.01205,-2.23759 -4.72124,-2.70572 -5.71197,-3.77072 -0.5969,-0.64169 -1.35012,-1.16704 -1.67376,-1.1675 -0.32353,-4.5e-4 -1.46015,-0.75046 -2.52552,-1.66665 -1.06537,-0.91624 -2.17553,-1.66587 -2.46705,-1.66587 -0.78089,0 -17.262574,-16.46022 -17.262574,-17.24009 0,-0.36548 -0.389291,-1.0611 -0.865058,-1.54564 -1.424693,-1.45092 -5.134942,-7.07149 -5.134942,-7.77883 0,-0.3617 -0.224882,-0.75764 -0.499994,-0.87987 -0.720151,-0.32013 -3.500031,-5.84157 -3.500031,-6.95192 0,-0.51533 -0.22488,-0.93849 -0.49999,-0.9403 -0.27515,-0.002 -1.20514,-2.32687 -2.06703,-5.16669 -0.86188,-2.83983 -1.81428,-5.76333 -2.11646,-6.49667 -0.30198,-0.73331 -0.73542,-2.23332 -0.96279,-3.33332 -0.22753,-1.09999 -0.72439,-3.20001 -1.1045,-4.66666 -0.3801,-1.46668 -0.84839,-3.79355 -1.04058,-5.17084 -0.19237,-1.3773 -0.6178,-2.67001 -0.94571,-2.87267 -0.32806,-0.20258 -0.59626,-1.53313 -0.59626,-2.9565 0,-1.42337 -0.30009,-2.77338 -0.66667,-3 -0.36661,-0.22677 -0.66667,-1.07108 -0.66667,-1.87661 0,-1.02879 -0.64467,-1.72433 -2.16665,-2.33764 -1.19169,-0.48019 -2.6875803,-1.15343 -3.3242803,-1.49609 -0.6367,-0.3428 -1.894,-0.62298 -2.79402,-0.62298 -0.89998,0 -1.82177,-0.30009 -2.04839,-0.66667 -0.22677,-0.36661 -1.02992,-0.66667 -1.78515,-0.66667 -1.72024997,0 -10.1368,-2.82142 -10.43705,-3.49871 -0.12208,-0.27552 -0.79721,-0.50131 -1.50002,-0.50131 -0.7027597,0 -1.2777797,-0.3001 -1.2777797,-0.66664 0,-0.36661 -0.39016,-0.66667 -0.86706,-0.66667 -1.2265,0 -4.45482,-1.56797 -4.46105,-2.16669 -0.003,-0.27515 -0.60522,-0.49999 -1.33852,-0.49999 -0.73334,0 -1.33334,-0.3001 -1.33334,-0.66667 0,-0.36662 -0.39345,-0.66667 -0.87432,-0.66667 -0.48083,0 -1.4561,-0.52498 -2.16718,-1.16667 -0.71112,-0.64165 -2.48259,-2.05644 -3.93665,-3.14392 -3.24986,-2.43069 -9.02188,-8.26424 -9.02188,-9.11815 0,-0.34469 -0.6,-1.27102 -1.3333,-2.05818 -0.73335,-0.78712 -1.33335,-1.82457 -1.33335,-2.30544 0,-0.48086 -0.30009,-0.87431 -0.66667,-0.87431 -0.36661,0 -0.66667,-0.6 -0.66667,-1.33331 0,-0.73334 -0.30009,-1.33334 -0.66667,-1.33334 -0.36661,0 -0.66667,-0.84 -0.66667,-1.86667 0,-1.02667 -0.2555,-2.15169 -0.56795,-2.50001 -1.08257,-1.20722 -2.27841,-12.05185 -1.49117,-13.52284 0.39919,-0.74589 0.72578,-2.1809 0.72578,-3.18894 0,-1.96623 2.43723,-9.50786 3.41098,-10.55486 0.32391,-0.34847 0.58904,-1.17336 0.58904,-1.83334 0,-0.66002 0.3001,-1.2 0.66667,-1.2 0.36662,0 0.66668,-0.6 0.66668,-1.33334 0,-0.73334 0.24944,-1.33334 0.554,-1.33334 0.30463,0 0.97924,-0.825 1.49892,-1.83334 0.51972,-1.00834 1.10986,-1.98334 1.31146,-2.16665 0.20145,-0.18331 1.08563,-1.36191 1.96452,-2.61902 3.8812,-5.55137 13.14271,-14.81851 18.67888,-18.69037 1.27903,-0.8945 2.47552,-1.79131 2.6588597,-1.99291 0.18331,-0.20145 1.15835,-0.79173 2.16669,-1.31142 1.0083,-0.51972 1.83334,-1.19425 1.83334,-1.49896 0,-0.30463 0.39341,-0.554 0.87428,-0.554 0.48087,0 1.46861,-0.52502 2.195,-1.16667 1.67792,-1.48225 4.57084,-3.22511 7.76401,-4.67746 1.37503,-0.62537 2.50001,-1.3663 2.50001,-1.64648 0,-0.28006 0.57502,-0.50941 1.27778,-0.50941 0.70277,0 1.3777903,-0.22828 1.5000203,-0.50694 0.31899,-0.72802 11.1425,-6.15973 12.27406,-6.15973 0.52149,0 0.94817,-0.30009 0.94817,-0.66663 0,-0.36661 0.6,-0.66667 1.3333,-0.66667 0.73334,0 1.333342,-0.30009 1.333342,-0.66667 0,-0.36662 0.366236,-0.66667 0.813429,-0.66667 0.447383,0 2.242092,-0.67499 3.988234,-1.50002 2.933556,-1.38599 3.175672,-1.68575 3.186557,-3.94443 0.0076,-1.34445 -0.213165,-2.54445 -0.488201,-2.66668 -0.471232,-0.20939 -1.152681,-1.0145 -6.378709,-7.53608 -4.067752,-5.07617 -15.508722,-16.10203 -21.8045823,-21.01349 -1.64089,-1.28005 -3.56497,-2.85502 -4.27575,-3.5 -0.71080997,-0.64493 -1.61959997,-1.17263 -2.01950997,-1.17263 -0.39991003,0 -1.15956003,-0.6 -1.68813003,-1.33334 -0.52856,-0.73334 -1.4948,-1.33334 -2.14718,-1.33334 -0.65239,0 -1.18613,-0.26344 -1.18613,-0.58579 0,-0.32202 -0.90002,-0.95857 -2.00002,-1.41419 -1.09999,-0.45566 -2.00001,-1.09206 -2.00001,-1.41422 0,-0.3224 -0.3934097,-0.58579 -0.8742797,-0.58579 -0.48087,0 -1.51831,-0.6 -2.30547,-1.33334 -0.78713,-0.73335 -1.8937,-1.33335 -2.45904,-1.33335 -0.5653,0 -1.02788,-0.26494 -1.02788,-0.58888 0,-0.32391 -0.52498,-0.75542 -1.16666,-0.95891 -1.20492,-0.38215 -4.91124,-2.50548 -5.50001,-3.15099 -0.18331,-0.20107 -1.38331,-1.08684 -2.66665,-1.9686 -2.80898,-1.92995 -5.3314,-4.68892 -5.33253,-5.83261 -4.5e-4,-0.45834 -0.24718,-0.83335 -0.54864,-0.83335 -0.30123,0 -1.20128,-1.44589 -2.00001,-3.213156 -1.11156,-2.45953 -1.45217,-4.49224 -1.45217,-8.66665 0,-3.19121 0.27666,-5.45352 0.66667,-5.45352 0.36661,0 0.66667,-0.62094 0.66667,-1.37986 0,-2.6425 6.38321,-10.61723 8.50001,-10.61931 0.45834,-4.5e-4 0.83569,-0.22601 0.83852,-0.50082 0.008,-0.59872 3.23456,-2.16665 4.46106,-2.16665 0.4769,0 0.8671,-0.3001 0.8671,-0.66667 0,-0.36662 0.89998,-0.66667 1.99997,-0.66667 1.10003,0 2.00001,-0.3001 2.00001,-0.66668 0,-0.36661 0.99001,-0.66667 2.19999,-0.66667 1.21002,0 2.5214,-0.32126 2.9142,-0.71418 0.9670297,-0.96703 28.33376,-0.96151 30.14174,0.008 0.72771,0.38956 2.56252,0.70817 4.07743,0.70817 1.51487,0 3.34828,0.31786 4.074214,0.7064 0.725972,0.38853 2.966438,0.76354 4.978847,0.83334 3.987858,0.13834 4.918448,-0.53521 4.936708,-3.57305 0.004,-0.93501 0.27968,-1.985 0.60858,-2.33336 0.32919,-0.34848 0.76214,-1.8333 0.96227,-3.29999 0.62823,-4.60433 1.17705,-7.28738 1.77271,-8.66668 0.31672,-0.7333 0.74623,-2.30831 0.95455,-3.49999 0.20826,-1.19165 0.54921,-3.14166 0.75754,-4.33334 0.20825,-1.19165 0.64263,-2.76666 0.96517,-3.5 0.9927,-2.25702 1.43853,-7.48558 1.74796,-20.49902 0.29291,-12.3158901 0.27477,-12.5224101 -1.23069,-14.0922701 -1.77109,-1.84687 -3.72677,-2.31013 -12.861204,-3.04649 -7.388675,-0.59565 -20.186945,-0.13833 -20.730215,0.7406 -0.19163,0.3103 -1.1344603,0.56387 -2.0951503,0.56387 -1.78514,0 -5.59033,1.03339 -7.6656,2.08183 -0.63668997,0.32164 -1.61169997,0.58481 -2.16664997,0.58481 -0.55498003,0 -1.00906003,0.3001 -1.00906003,0.66667 0,0.36662 -0.6,0.66667 -1.33334,0.66667 -0.73334,0 -1.33334,0.3001 -1.33334,0.66667 0,0.36662 -0.39341,0.66667 -0.87428,0.66667 -0.48087,0 -1.51831,0.6 -2.30547,1.3333501 -0.78713,0.7333 -1.73825,1.3333 -2.11355,1.3333 -1.0851097,0 -11.1449197,10.23009 -11.6620397,11.8594 -0.25738,0.81067 -0.74763,1.47394 -1.08956,1.47394 -0.34205,0 -0.62177,0.73229 -0.62177,1.62732 0,0.89503 -0.30009,1.81273 -0.66663,2.03935 -0.86763,0.5362 -0.86763,6.13047 0,6.66667 0.36661,0.22678 0.66663,0.85221 0.66663,1.39023 0,1.29384 5.68131,6.9431 6.98245,6.9431 0.55967,0 1.01756,0.3001 1.01756,0.66667 0,0.36662 0.68999,0.66667 1.53336,0.66667 0.84332,0 1.86157,0.32807 2.26276,0.72945 0.75863,0.75863 6.8564797,0.50948 10.53720973,-0.43052 2.69434997,-0.6881 7.00002997,-3.59184 7.00002997,-4.72086 0,-0.50128 0.30009,-0.91139 0.66663,-0.91139 0.36661,0 0.66667,-1.14773 0.66667,-2.55047 0,-3.03953 -1.91943,-5.16661 -5.57246,-6.17529 -2.79937997,-0.77292 -3.23085,-1.9409 -0.71705,-1.9409 0.9408,0 2.28389,-0.3069 2.98465,-0.68194 0.78826,-0.42184 1.72494,-0.45151 2.45617,-0.0779 0.65011,0.33222 1.98176,0.97629 2.95922,1.43115 0.9774603,0.45487 1.9416903,1.3149 2.1427203,1.91112 0.20107,0.59622 0.82182,2.28405 1.37946,3.75073 0.55766,1.46668 1.01843,3.33252 1.02395,4.14641 0.0265,4.15392 -7.4036803,12.18693 -11.2749403,12.18693 -0.71664,0 -1.48842,0.3001 -1.71504,0.66667 -0.54900997,0.88831 -14.9999997,0.88831 -14.9999997,0 0,-0.36661 -0.72166,-0.66667 -1.60369,-0.66667 -0.88199,0 -2.88793,-0.67502 -4.45761,-1.50002 -3.51572,-1.84777 -11.27203,-9.23372 -11.27203,-10.73378 0,-0.60476 -0.30009,-1.09954 -0.66667,-1.09954 -0.36661,0 -0.66667,-0.68999 -0.66667,-1.53332 0,-0.84336 -0.33108,-1.86425 -0.73538,-2.2687 -0.44156,-0.4416 -0.5938,-2.02631 -0.38101,-3.96669 0.59402,-5.41753 1.17025,-7.28878 2.84436,-9.23705 0.88293,-1.02758 1.60535,-2.10799 1.60535,-2.40094 0,-0.29292 0.75001,-1.2827 1.6667,-2.19935 0.91664,-0.91668 1.66665,-1.93583 1.66665,-2.26477 0,-0.32881 0.89999,-1.53985 2.00002,-2.69091 1.09999,-1.15105 1.99997,-2.3593701 1.99997,-2.6851601 0,-0.3258 1.2,-1.82884 2.66669,-3.34016 1.46664,-1.51128 2.66664,-2.98446 2.66664,-3.27371 0,-0.28914 1.2,-1.85192998 2.66668,-3.47256 1.46665,-1.62066 2.66665,-3.20719 2.66665,-3.52562 0,-0.31823 1.13469,-1.68041 2.5215097,-3.02668 1.38682,-1.34623 3.24733,-3.4977299 4.13454,-4.7810599 0.88717,-1.2833 1.77751,-2.4833 1.97851,-2.66665 0.78697,-0.71781 2.03214003,-3.36745 2.03214003,-4.32431 0,-0.55495 0.26721,-1.00902 0.59372,-1.00902 0.84223,0 1.54926997,-4.25945 1.54926997,-9.33335 0,-5.07391 -0.70703997,-9.33332 -1.54926997,-9.33332 -0.32655,0 -0.59372,-0.42164 -0.59372,-0.93702 0,-1.32329 -2.77331003,-6.52014 -4.16667003,-7.80786 -0.64169,-0.59301 -1.16666,-1.44352 -1.16666,-1.89003 0,-1.17725 -16.4610597,-17.36512 -17.6581797,-17.36512 -0.55469,0 -1.00849,-0.24944 -1.00849,-0.554 0,-0.30463 -0.82504,-0.97969 -1.83334,-1.49998 -1.00834,-0.52029 -2.41493,-1.47099 -3.12571,-2.11268 -0.71081,-0.64165 -1.66083,-1.16666 -2.11113,-1.16666 -0.45029,0 -0.91873,-0.22488 -1.04095,-0.5 -0.27818,-0.62589 -3.82916,-2.79088 -5.38889,-3.2855 -0.64165,-0.20334 -1.16667,-0.635 -1.16667,-0.95891 0,-0.3239 -0.6,-0.58892 -1.33334,-0.58892 -0.73334,0 -1.33334,-0.3001 -1.33334,-0.66667 0,-0.36662 -0.6,-0.66667 -1.33331,-0.66667 -0.73334,0 -1.33334,-0.3001 -1.33334,-0.66664 0,-0.36661 -0.6,-0.66667 -1.33334,-0.66667 -0.73334,0 -1.33334,-0.30009 -1.33334,-0.66667 0,-0.36661 -0.6,-0.66667 -1.3333,-0.66667 -0.73335,0 -1.33335,-0.30009 -1.33335,-0.66667 0,-0.36661 -0.6,-0.66667 -1.33334,-0.66667 -0.73334,0 -1.33334,-0.3001 -1.33334,-0.66667 0,-0.36662 -0.6,-0.66667 -1.33334,-0.66667 -0.73331,0 -1.33331,-0.3001 -1.33331,-0.66667 0,-0.36662 -0.3911,-0.66667 -0.8691,-0.66667 -0.47803,0 -2.47045,-0.79798 -4.42768,-1.77328 -3.33758,-1.66362 -3.48026,-1.83336 -2.29757,-2.73459 2.02507,-1.54314 30.52384,-0.29934 40.59435,1.7715 1.83334,0.3772 4.38331,0.86729 5.66665,1.08949 1.28334,0.22224 2.93333,0.66096 3.66667,0.97504 0.73334,0.31408 2.23332,0.75704 3.3333597,0.98442 1.09999,0.22753 3.05,0.68625 4.3333,1.01971 5.37241003,1.39612 8.45832,2.11764 10.50002,2.45511 1.19165,0.19691 2.16665,0.62529 2.16665,0.95184 0,0.32655 0.88229,0.59372 1.96067,0.59372 1.0783703,0 2.1460503,0.3001 2.3726703,0.66667 0.22677,0.36662 1.1266,0.66664 2.00001,0.66664 0.87338,0 1.7734,0.30009 1.99998,0.66667 0.22677,0.36661 0.9984,0.66667 1.71507,0.66667 0.71668,0 1.82397,0.26494 2.46066,0.58889 0.6367,0.3239 1.90761,0.89457 2.82429,1.26818 3.919299,1.59742 11.128333,4.94302 12.666676,5.87837 0.916649,0.55741 2.191673,1.17993 2.833323,1.38342 0.64165,0.20334 1.16666,0.635 1.16666,0.95891 0,0.3239 0.6,0.58888 1.33335,0.58888 0.73334,0 1.33334,0.26344 1.33334,0.58579 0,0.32202 0.89998,0.95861 1.99997,1.41423 1.1,0.45562 2.00002,1.09202 2.00002,1.41422 0,0.32202 0.46253,0.58579 1.02788,0.58579 0.5653,0 1.67187,0.6 2.45903,1.33334 0.78713,0.73331 1.82461,1.33331 2.30544,1.33331 0.48087,0 0.87432,0.30009 0.87432,0.66667 0,0.36661 0.39341,0.66667 0.87428,0.66667 0.48087,0 1.51831,0.6 2.30547,1.33334 0.78713,0.73334 1.86871,1.33334 2.40348,1.33334 0.53476,0 1.07233,0.22488 1.19456,0.49999 0.31407,0.70674 5.83181,3.5 6.91377,3.5 1.20159,0 5.70565,-2.64182 7.05328,-4.13707 0.59301,-0.65794 1.37352,-1.19626 1.73446,-1.19626 0.36095,0 1.59803,-0.90002 2.74908,-2.00001 1.15106,-1.1 2.35106,-1.99998 2.66665,-1.99998 0.31559,0 1.51562,-0.90002 2.66668,-2.00001 1.15106,-1.09999 2.33896,-2.00001 2.63985,-2.00001 0.30085,0 1.12857,-0.53314 1.83938,-1.18477 0.71082,-0.65163 2.3424,-1.91218 3.6257,-2.80124 1.28334,-0.88902 2.48334,-1.78087 2.66669,-1.98187 0.58877,-0.64546 4.29505,-2.76884 5.5,-3.15095 0.641654,-0.20372 1.166674,-0.63504 1.166674,-0.9589 0,-0.32391 0.42164,-0.58893 0.93698,-0.58893 0.80772,0 2.93042,-0.91956 7.88731,-3.41681 0.6367,-0.32088 1.74398,-0.58318 2.46066,-0.58318 0.71667,0 1.48841,-0.30009 1.71503,-0.66667 0.22678,-0.36661 1.12664,-0.66667 2.00002,-0.66667 0.87337,0 1.7529,-0.26683 1.95447,-0.59301 0.20145,-0.32617 1.34426,-0.76191 2.53935,-0.96839 1.19505,-0.20636 3.22284,-0.56001 4.50618,-0.78572 1.28334,-0.22564 2.93333,-0.67136 3.66667,-0.99032 0.73334,-0.31899 2.38333,-0.73598 3.66667,-0.92681 1.28334,-0.19087 3.98331,-0.67786 5.99999,-1.08242 16.28973,-3.26763 44.04828,-3.90323 57.33332,-1.31278 2.01668,0.39326 4.64167,0.88532 5.83332,1.09349 1.19168,0.20825 2.16669,0.64566 2.16669,0.97221 0,0.32655 0.73228,0.59373 1.62731,0.59373 0.89503,0 1.81274,0.30009 2.03936,0.66667 0.22677,0.36661 0.99432,0.66667 1.706,0.66667 0.71169,0 1.294,0.30009 1.294,0.66667 0,0.36661 0.37493,0.66417 0.83331,0.66115 1.05437,-0.008 12.09014,5.48561 12.38891,6.16604 0.12208,0.27855 0.79722,0.50615 1.49998,0.50615 0.70281,0 1.2778,0.30009 1.2778,0.66667 0,0.36661 0.6,0.66667 1.33334,0.66667 0.73334,0 1.33568,0.22488 1.33852,0.5 0.008,0.78678 3.41873,2.16884 5.2944,2.14544 2.05277,-0.0265 3.23395,-0.90141 5.36579,-3.97878 0.88902,-1.28334 2.37801,-3.08334 3.30887,-3.99999 0.93082,-0.91668 2.89005,-3.15583 4.35386,-4.9759 3.59036,-4.46422 17.43682,-18.312534 20.33855,-20.341264 1.28334,-0.89723 3.08334,-2.4045 4.00002,-3.34953 0.91665,-0.945 2.71665,-2.44237 3.99999,-3.32746 1.28334,-0.88509 2.78332,-2.08774 3.33332,-2.67254 0.54999,-0.58477 2.05001,-1.79086 3.33335,-2.68018 1.28334,-0.88929 2.91489,-2.15006 3.6257,-2.80169 0.71082,-0.65163 1.68582,-1.18481 2.16665,-1.18481 0.48087,0 0.87432,-0.23546 0.87432,-0.52289 0,-0.28762 0.88906,-1.04814 1.97571,-1.69006 1.08669,-0.64187 2.37328,-1.53157 2.85914,-1.97707 0.48586,-0.44549 1.54677,-1.18495 2.35759,-1.6433 0.81083,-0.45834 2.13396,-1.20831 2.94029,-1.66666 0.80632,-0.45834 2.06286,-1.35832 2.79235,-2.00001 0.72949,-0.64165 1.71976,-1.16666 2.20063,-1.16666 0.48083,0 0.87428,-0.3001 0.87428,-0.66667 0,-0.36662 0.6,-0.66668 1.33334,-0.66668 0.73334,0 1.33334,-0.24113 1.33334,-0.53548 0,-0.29442 1.49534,-1.2695 3.32296,-2.16665 1.82763,-0.89715 3.32761,-1.85616 3.33332,-2.1312 0.008,-0.27515 0.58537,-0.49999 1.28814,-0.49999 0.7028,0 1.37779,-0.24908 1.50002,-0.55363 0.29027,-0.72268 13.82933,-7.44635 14.99448,-7.44635 0.49194,0 0.89439,-0.30009 0.89439,-0.66667 0,-0.36661 0.6,-0.66667 1.33334,-0.66667 0.73334,0 1.33334,-0.3001 1.33334,-0.66667 0,-0.36662 0.45407,-0.66667 1.00906,-0.66667 0.55495,0 1.60497,-0.3001 2.33333,-0.66667 0.72835,-0.36662 1.92019,-0.96666 2.64858,-1.33335 0.72835,-0.36661 1.77834,-0.66667 2.33333,-0.66667 0.55494,0 1.00902,-0.24567 1.00902,-0.54614 0,-0.30047 1.50002,-0.95459 3.33335,-1.45383 1.83334,-0.49924 3.33332,-1.09924 3.33332,-1.33334 0,-0.23396 1.51903,-0.83928 3.37561,-1.34483 1.85654,-0.50555 3.52426,-1.15979 3.70598,-1.45384 0.18179,-0.29404 1.06272,-0.53465 1.95775,-0.53465 0.89503,0 1.62735,-0.30009 1.62735,-0.66667 0,-0.36661 0.89999,-0.66667 1.99998,-0.66667 1.09999,0 2.00001,-0.3001 2.00001,-0.66667 0,-0.36662 0.73228,-0.66667 1.62731,-0.66667 0.89503,0 1.81274,-0.3001 2.03936,-0.66667 0.22677,-0.36662 1.04803,-0.66667 1.82533,-0.66667 1.33183,0 4.51555,-0.86597 7.50799,-2.04216 1.63143,-0.64123 4.50977,-1.28341 7.83753,-1.7486 1.3773,-0.19275 2.67001,-0.6184 2.87267,-0.94632 0.20258,-0.32806 1.49079,-0.59625 2.8625,-0.59625 1.37166,0 2.77897,-0.27364 3.12729,-0.60802 1.36736,-1.31266 24.96669,-2.66445 24.96669,-1.43009 0,0.38762 -0.6,0.70476 -1.33334,0.70476 -0.73334,0 -1.33568,0.22489 -1.33852,0.50004 -0.008,0.59867 -3.23456,2.16665 -4.46105,2.16665 -0.4769,0 -0.8671,0.30009 -0.8671,0.66667 0,0.36661 -0.6,0.66667 -1.33334,0.66667 -0.73331,0 -1.33331,0.30009 -1.33331,0.66667 0,0.36661 -0.6,0.66663 -1.33334,0.66663 -0.73334,0 -1.33334,0.3001 -1.33334,0.66667 0,0.36662 -0.6,0.66668 -1.33334,0.66668 -0.73334,0 -1.33334,0.30009 -1.33334,0.66667 0,0.36661 -0.6,0.66667 -1.33331,0.66667 -0.73334,0 -1.33334,0.26494 -1.33334,0.58892 0,0.32391 -0.52501,0.75538 -1.16666,0.95891 -1.14437,0.36283 -4.84339,2.46119 -5.50001,3.11988 -0.18331,0.18407 -1.15835,0.75961 -2.16665,1.27934 -1.00834,0.51972 -1.83334,1.19421 -1.83334,1.49892 0,0.30463 -0.32088,0.55404 -0.71323,0.55404 -0.66981,0 -6.56103,3.76331 -7.28678,4.65479 -0.18331,0.22526 -1.38334,1.13053 -2.66668,2.01188 -1.2833,0.88131 -2.4833,1.78133 -2.66665,1.99998 -0.18331,0.21883 -1.38334,1.11889 -2.66668,2.0005 -1.28334,0.88161 -2.78332,2.08139 -3.33332,2.66619 -0.55,0.58477 -2.05001,1.79717 -3.33335,2.6942 -3.02816,2.11665 -19.18916,18.27761 -21.30577,21.3058 -0.89703,1.2833 -2.10943,2.78332 -2.69423,3.33332 -0.58477,0.55 -1.78454,2.05001 -2.66616,3.33332 -0.88161,1.28333 -1.78182,2.48333 -2.0005,2.66668 -0.21884,0.18331 -1.12498,1.38334 -2.014,2.66668 -0.88902,1.2833 -2.14957,2.91489 -2.80119,3.6257 -0.65163,0.71078 -1.18481,1.685794 -1.18481,2.166654 0,0.48087 -0.3001,0.87429 -0.66667,0.87429 -0.36662,0 -0.66667,0.6 -0.66667,1.33334 0,0.73334 -0.3001,1.33334 -0.66664,1.33334 -0.36661,0 -0.66667,0.6 -0.66667,1.33334 0,0.73334 -0.30009,1.33334 -0.66667,1.33334 -0.36661,0 -0.66667,0.73229 -0.66667,1.62732 0,0.89503 -0.24075,1.776 -0.53465,1.95775 -0.29405,0.1818 -0.95346,1.86845 -1.46536,3.74824 -0.51186,1.87982 -1.17128,3.56655 -1.46536,3.74827 -0.29405,0.18179 -0.53462,1.04504 -0.53462,1.91841 0,0.87337 -0.30009,1.77339 -0.66667,2.00001 -1.11118,0.68674 -0.74774,5.56282 0.6107,8.19322 1.53245,2.96735 4.86312,6.60756 8.05595,8.8046 1.28334,0.88305 2.81854,2.14481 3.41155,2.80388 0.59301,0.65904 1.2548,1.1983 1.47065,1.1983 0.21581,0 1.91887,0.89998 3.78448,1.99998 1.86561,1.09999 3.97879,2.00001 4.69599,2.00001 0.7172,0 1.30401,0.30009 1.30401,0.66667 0,0.36661 0.8823,0.66667 1.96063,0.66667 1.07838,0 2.14609,0.30009 2.37271,0.66667 0.2264,0.36662 1.42659,0.66667 2.66665,0.66667 1.24006,0 2.44006,0.3001 2.66668,0.66664 0.2264,0.36661 1.14429,0.66667 2.03932,0.66667 0.89503,0 1.62735,0.30009 1.62735,0.66667 0,0.36661 0.32089,0.66667 0.7132,0.66667 2.23087,0 12.62011,9.14283 12.62011,11.10606 0,0.49164 0.24945,0.89394 0.55404,0.89394 0.30463,0 0.9792,0.82499 1.49892,1.83333 0.51972,1.00834 1.09947,1.98335 1.28833,2.16666 0.18898,0.1833 1.08933,1.81443 2.00103,3.62464 2.10705,4.18352 2.12073,9.5763 0.0302,11.82039 -0.75485,0.81018 -1.37239,1.75102 -1.37239,2.09076 0,0.90301 -4.77675,5.1308999 -5.79696,5.1308999 -0.47834,0 -0.86971,0.3001 -0.86971,0.66667 0,1.0323 -8.20751,0.79049 -10.86565,-0.32012 -3.32704,-1.39015 -9.13436,-7.1132299 -9.13436,-9.0018899 0,-1.43585 2.20566,-4.01129 3.43533,-4.01129 0.31067,0 0.56466,1.35001 0.56466,3 0,2.9407 0.32353,3.49655 3.59078,6.16668 1.31777,1.07701 7.33224,1.07701 9.22582,0 2.23499,-1.27117 3.18342,-2.29977 3.18342,-3.45241 0,-0.57619 0.3001,-1.04761 0.66667,-1.04761 0.36662,0 0.66668,-0.42165 0.66668,-0.93699 0,-1.11035 -2.77989,-6.63182 -3.50004,-6.95191 -0.27515,-0.12208 -0.49999,-0.58858 -0.49999,-1.03638 0,-1.40436 -4.20102,-5.36134 -7.40296,-6.97289 -2.87101,-1.44499 -3.62593,-1.52228 -11.66668,-1.19392 -4.72834,0.19314 -11.147,0.67329 -14.26368,1.06715 -3.11667,0.39387 -8.06668,1.01844 -11.00001,1.38792 -6.12839,0.77201 -12.51296,1.63257 -19.66666,2.65081 -2.75002,0.39141 -6.95002,0.87273 -9.33335,1.06953 -2.38333,0.19692 -4.61832,0.6336 -4.96664,0.97062 -0.34847,0.33714 -2.35563,0.61274 -4.46068,0.61274 -2.105,0 -4.01272,0.30009 -4.23934,0.66663 -0.22677,0.36662 -1.69202,0.66667 -3.25648,0.66667 -2.17822,0 -3.21415,0.39357 -4.42299,1.68031 -1.42454,1.51638 -1.50093,1.8949 -0.78285,3.88066 0.43759,1.21021 0.79566,2.98636 0.79566,3.94704 0,0.96064 0.3001,1.93206 0.66667,2.15868 0.36662,0.22677 0.66667,1.42662 0.66667,2.66668 0,1.2400299 0.3001,2.4400299 0.66667,2.6666499 0.36662,0.22677 0.66664,1.42662 0.66664,2.66668 0,1.24003 0.26834,2.42045 0.59626,2.62314 0.32806,0.20259 0.75855,1.49537002 0.9569,2.87267002 0.19842,1.37729998 0.69346,4.00417998 1.10025,5.83751998 0.4068,1.83334 0.89662,4.2333401 1.08855,5.3333301 0.192,1.09999 0.60986,2.60001 0.92882,3.33332 0.31899,0.73334 0.73183,2.38333 0.91755,3.66667 0.18558,1.28333 0.65556,3.83334 1.0441,5.66668 1.51177,7.13322 3.24309,18.36348 5.39584,35.00001 0.40331,3.11664 1.00592,7.76667 1.33912,10.33331 0.33336,2.56667 0.92591,7.36667 1.31705,10.66669 2.6256,22.151206 2.59756,22.071006 7.50033,21.429886 5.92698,-0.77507 8.19344,-1.19929 9.48192,-1.77476 1.91464,-0.855146 7.81217,-1.369546 19.99998,-1.744466 10.21776,-0.31446 13.77596,0.0631 17.15762,1.820966 0.6367,0.33109 1.5129,0.6017 1.94713,0.6017 1.06935,0 7.89525,7.28289 7.89525,8.42385 0,0.50022 0.30009,0.90947 0.66667,0.90947 0.36661,0 0.66667,0.60408 0.66667,1.34237 0,0.73833 0.30009,1.93833 0.66667,2.66669 0.36661,0.72835 0.96665,1.92022 1.33334,2.64858 0.36662,0.72835 0.66667,2.22833 0.66667,3.33331 0,1.10499 0.3001,2.00905 0.66667,2.00905 0.41666,0 0.66668,4.00002 0.66668,10.66666 0,6.66667 -0.24983,10.66669 -0.66668,10.66669 -0.36661,0 -0.66667,0.76449 -0.66667,1.69886 0,0.93438 -0.6,2.94074 -1.33334,4.45856 -0.73334,1.51782 -1.33334,3.12832 -1.33334,3.57891 0,0.45056 -0.22488,0.91922 -0.49999,1.04145 -0.27515,0.12208 -1.22763,1.57221 -2.11696,3.2222 -0.88932,1.65003 -1.80377,3.15001 -2.0321,3.33335 -0.22828,0.18331 -1.14822,1.38331 -2.04415,2.66665 -2.07357,2.97018 -11.57813,12.49345 -14.64012,14.66895 -1.28333,0.91181 -3.45868,2.74953 -4.83409,4.08382 -1.37541,1.33432 -3.78296,3.41034 -5.35011,4.6134 -3.50449,2.69031 -6.51103,6.45037 -6.07215,7.59406 0.17991,0.46877 1.13616,1.22951 2.12504,1.6905 0.98888,0.46099 2.31889,1.10317 2.95559,1.42708 0.6367,0.3239 2.04397,0.58889 3.12733,0.58889 1.08333,0 2.15509,0.30009 2.38171,0.66667 0.22677,0.36661 1.57663,0.66663 3,0.66663 1.42341,0 2.7538,0.26835 2.9565,0.59626 0.20258,0.32806 1.49537,0.76641 2.87267,0.97444 1.37729,0.20787 3.70416,0.55827 5.17084,0.77843 1.46665,0.21997 3.26665,0.66459 3.99999,0.9877 2.36602,1.04255 7.07879,1.46653 19.60411,1.76375 8.01906,0.19012 12.5119,0.0503 12.96669,-0.40467 0.38271,-0.38275 1.53588,-0.69589 2.56255,-0.69589 1.02668,0 1.86668,-0.30009 1.86668,-0.66667 0,-0.36661 0.42164,-0.66667 0.93698,-0.66667 1.11035,0 6.63182,-2.77984 6.95187,-3.49999 0.12208,-0.27515 0.66006,-0.49999 1.1952,-0.49999 1.23164,0 11.33076,-10.15631 11.9082,-11.97559 0.23697,-0.74676 0.7107,-1.35776 1.05267,-1.35776 0.34205,0 0.62173,-0.6 0.62173,-1.33334 0,-0.73334 0.3001,-1.33334 0.66667,-1.33334 0.36662,0 0.66668,-0.6 0.66668,-1.3333 0,-0.73335 0.30009,-1.33335 0.66663,-1.33335 0.36661,0 0.66667,-0.58231 0.66667,-1.29399 0,-0.71169 0.30009,-1.47939 0.66667,-1.70601 0.36661,-0.22677 0.66667,-1.27661 0.66667,-2.33333 0,-1.05671 0.2589,-2.08134 0.57543,-2.27693 0.31635,-0.19541 0.75444,-4.03832 0.97323,-8.53936 0.39991,-8.22678 -0.19615,-18.0887 -1.54254,-25.51706 -0.39874,-2.19999 -0.89491,-5.12689 -1.10264,-6.50419 -0.20787,-1.3773 -0.64595,-2.66997 -0.9739,-2.87267 -0.32807,-0.20258 -0.59622,-1.4008 -0.59622,-2.66248 0,-1.26169 -0.3001,-2.29399 -0.66668,-2.29399 -0.36661,0 -0.66667,-0.73228 -0.66667,-1.62731 0,-0.89503 -0.24075,-1.77604 -0.53465,-1.95776 -0.29405,-0.1818 -0.94828,-1.84944 -1.45383,-3.70602 -0.50559,-1.85658 -1.16496,-3.37557 -1.46536,-3.37557 -0.30047,0 -0.54618,-0.4645 -0.54618,-1.03222 0,-0.56769 -0.6,-2.27407 -1.33331,-3.79189 -0.73334,-1.51782 -1.33334,-3.15334 -1.33334,-3.63447 0,-0.4811 -0.30009,-0.87477 -0.66667,-0.87477 -0.36661,0 -0.66667,-0.6 -0.66667,-1.33334 0,-0.73331 -0.30009,-1.33331 -0.66667,-1.33331 -0.36661,0 -0.66667,-0.6 -0.66667,-1.333336 0,-0.73334 -0.3001,-1.33334 -0.66667,-1.33334 -0.36662,0 -0.66663,-0.6 -0.66663,-1.33334 0,-0.73331 -0.3001,-1.33331 -0.66668,-1.33331 -0.36661,0 -0.66667,-0.6 -0.66667,-1.33334 0,-0.73334 -0.30009,-1.33334 -0.66667,-1.33334 -0.36661,0 -0.66667,-0.6 -0.66667,-1.33334 0,-0.73334 -0.30009,-1.33334 -0.66667,-1.33334 -0.36661,0 -0.66667,-0.6 -0.66667,-1.33331 0,-0.73334 -0.26494,-1.33334 -0.58889,-1.33334 -0.3239,0 -0.75541,-0.52501 -0.9589,-1.16666 -0.36284,-1.14437 -2.46123,-4.84339 -3.11993,-5.50001 -0.18406,-0.18331 -0.75961,-1.15835 -1.27933,-2.16665 -0.51968,-1.00834 -1.19422,-1.83334 -1.49892,-1.83334 -0.30463,0 -0.554,-0.6 -0.554,-1.33334 0,-0.73334 -0.24945,-1.33334 -0.55405,-1.33334 -0.30463,0 -0.97969,-0.825 -1.49998,-1.83334 -0.52029,-1.00834 -1.621,-2.52196 -2.44599,-3.36363 -0.825,-0.84166 -1.49998,-1.80302 -1.49998,-2.13637 0,-0.33336 -0.68157,-1.29468 -1.51454,-2.13634 -0.83297,-0.84167 -2.25097,-2.58032 -3.15114,-3.86366 -2.14367,-3.0562 -17.00372,-17.90355 -20.001,-19.98388 -1.28333,-0.89076 -2.81854,-2.15875 -3.41155,-2.81782 -0.59301,-0.65908 -1.34302,-1.19898 -1.66666,-1.19985 -0.32352,-6.8e-4 -1.63846,-0.90017 -2.9218,-1.99843 -1.28334,-1.09829 -2.70833,-1.99759 -3.16668,-1.99846 -0.4583,-8.3e-4 -0.83331,-0.30161 -0.83331,-0.66822 0,-0.36662 -0.39344,-0.66667 -0.87431,-0.66667 -0.48084,0 -1.45584,-0.52498 -2.16666,-1.16667 -1.65033,-1.48977 -6.29469,-4.04534 -14.29235,-7.86432 -3.48337,-1.66334 -6.85429,-3.31182 -7.49099,-3.66331 -0.63666,-0.3515 -1.61167,-0.63904 -2.16665,-0.63904 -0.55499,0 -1.00906,-0.3001 -1.00906,-0.66668 0,-0.36661 -0.57498,-0.66663 -1.27778,-0.66663 -0.70277,0 -1.37775,-0.22488 -1.49998,-0.50003 -0.32013,-0.72015 -5.84157,-3.49999 -6.95192,-3.49999 -0.51533,0 -0.93698,-0.33487 -0.93698,-0.74434 0,-0.72427 1.56915,-0.66414 11.66668,0.44711 1.83334,0.20183 3.93332,0.6367 4.66666,0.96654 0.73334,0.32996 2.83333,0.75099 4.66666,0.93589 1.83334,0.18482 5.20834,0.64936 7.50002,1.03215 10.69893,1.78711 12.69706,2.10319 15.49999,2.45197 1.64999,0.20523 3.28498,0.64422 3.63334,0.97531 0.34847,0.33108 1.60562,0.60204 2.79398,0.60204 1.18836,0 2.34606,0.30009 2.57268,0.66667 0.22678,0.36661 1.59432,0.66667 3.03935,0.66667 1.44503,0 2.6273,0.30009 2.6273,0.66667 0,0.36661 1.0323,0.66667 2.29398,0.66667 1.26172,0 2.47941,0.3001 2.70603,0.66667 0.22677,0.36662 1.14837,0.66663 2.04839,0.66663 0.90002,0 2.15728,0.26722 2.79398,0.59377 0.6367,0.32655 5.05761,1.83893 9.82432,3.36083 4.76666,1.52186 9.34163,3.05469 10.16666,3.40622 3.55729,1.51586 4.64602,1.93078 7.16666,2.73124 1.46665,0.46575 2.95166,1.08556 3.29999,1.37737 0.34847,0.29178 1.32332,0.53057 2.16669,0.53057 0.84332,0 1.53331,0.3001 1.53331,0.66668 0,0.36661 1.50002,0.66667 3.33332,0.66667 h 3.33335 v -4.29396 c 0,-2.36172 -0.30009,-4.47942 -0.66667,-4.70604 -0.36661,-0.22678 -0.66667,-1.04803 -0.66667,-1.82533 0,-1.50107 -1.10876,-5.40619 -2.08184,-7.33228 -0.32164,-0.6367 -0.5848,-1.76576 -0.5848,-2.50904 0,-0.74328 -0.27062,-1.87238 -0.60171,-2.50908 -0.33108,-0.63666 -0.96018,-2.5076 -1.39831,-4.1575901 -0.43816,-1.64999 -1.06737,-3.52093 -1.39831,-4.15763 -0.33109,-0.6367 -0.6017,-1.894 -0.6017,-2.79398 0,-0.90002 -0.30009,-1.82176998 -0.66667,-2.04838998 -0.36661,-0.22677 -0.66667,-1.12664 -0.66667,-2.00001002 0,-0.87338 -0.3001,-1.7734 -0.66663,-2.00002 -0.36662,-0.22639 -0.66668,-1.1266 -0.66668,-1.99997 0,-0.87341 -0.30009,-1.77339 -0.66667,-2.00001 -0.36661,-0.22677 -0.66667,-1.14433 -0.66667,-2.03936 0,-0.8950299 -0.30009,-1.6273099 -0.66667,-1.6273099 -0.36661,0 -0.66667,-0.75406 -0.66667,-1.6757 0,-0.92163 -0.26494,-2.19666 -0.58889,-2.83336 -0.3239,-0.6367 -0.95886,-2.05761 -1.41112,-3.1576 -0.45222,-1.1 -1.08722,-2.52095 -1.41109,-3.15761 -0.3239,-0.6367 -0.58889,-1.76171 -0.58889,-2.50001 0,-0.73833 -0.30009,-1.34237 -0.66667,-1.34237 -0.36661,0 -0.66667,-0.60408 -0.66667,-1.34241 0,-0.7383 -0.27553,-1.86331 -0.61221,-2.49997 -1.15026,-2.17512 -3.38778,-7.47545 -3.38778,-8.02515 0,-0.3016 -0.6,-1.79059 -1.33334,-3.30841 -0.73334,-1.51782 -1.33334,-3.07823 -1.33334,-3.4676 0,-0.38933 -0.26494,-1.22884 -0.58889,-1.86554 -0.3239,-0.63666 -0.89397,-1.9076 -1.26689,-2.82429 -0.37304,-0.91665 -1.30791,-3.08836 -2.07776,-4.82604 -0.76989,-1.73767 -1.39979,-3.6127 -1.39979,-4.16666 0,-0.55401 -0.30009,-1.00728 -0.66667,-1.00728 -0.36661,0 -0.66667,-0.73229 -0.66667,-1.62732 0,-0.89503 -0.30009,-1.81274 -0.66667,-2.03936 -0.36661,-0.22677 -0.66667,-0.99431 -0.66667,-1.706 0,-0.71168 -0.3001,-1.294 -0.66663,-1.294 -0.36662,0 -0.66668,-0.73228 -0.66668,-1.62731 0,-0.89503 -0.30009,-1.81274 -0.66667,-2.03936 -0.36661,-0.22677 -0.66667,-0.99431 -0.66667,-1.706 0,-0.71168 -0.30009,-1.29399 -0.66667,-1.29399 -0.36661,0 -0.66667,-0.45325 -0.66667,-1.00725 0,-0.554 -0.6299,-2.42899 -1.39978,-4.16666 -0.76986,-1.73768 -1.66988,-3.83441 -1.99998,-4.65941 -1.5668,-3.91547 -2.13373,-5.25437 -2.67802,-6.32428 -0.32391,-0.6367 -0.58889,-1.76171 -0.58889,-2.50001 0,-0.73833 -0.30009,-1.34237 -0.66667,-1.34237 -0.36662,0 -0.66667,-0.6 -0.66667,-1.33334 0,-0.73334 -0.3001,-1.33334 -0.66663,-1.33334 -0.36662,0 -0.66668,-0.58228 -0.66668,-1.294 0,-0.71169 -0.30009,-1.47938 -0.66667,-1.706 -0.36661,-0.22678 -0.66667,-1.14433 -0.66667,-2.039364 0,-0.89503 -0.23433,-1.62731 -0.52112,-1.62731 -0.28649,0 -0.93573,-1.425 -1.44246,-3.16668 -0.50675,-1.74165 -1.09723,-3.31665 -1.31221,-3.5 -0.68372,-0.58306 -2.63244,-6.5362 -2.26114,-6.9075 0.51783,-0.51787 3.45797,1.50966 6.63307,4.57418 1.5196,1.46668 4.93327,4.61665 7.58593,6.99998 7.10959,6.387824 11.79114,11.075644 16.65127,16.673584 2.38334,2.74518 5.39297,6.04161 6.68814,7.32548 1.29513,1.28387 3.08357,3.3843 3.97425,4.66764 0.89069,1.28334 2.39259,3.08334 3.33759,3.99999 0.94503,0.91668 2.44237,2.71668 3.3275,3.99998 0.88509,1.28334 2.14851,2.81855 2.80754,3.41156 0.65908,0.593 1.1983,1.37351 1.1983,1.73446 0,0.36094 0.90002,1.59802 2.00001,2.74904 1.1,1.15105 2.0007,2.32055 2.00157,2.59888 6.8e-4,0.27855 0.90013,1.55607 1.99842,2.8394 1.09829,1.28334 1.9976,2.70834 1.99843,3.16668 6.8e-4,0.45835 0.23093,0.83335 0.51088,0.83335 0.28006,0 1.25091,1.2 2.15735,2.66665 0.90644,1.46668 1.87729,2.66668 2.15739,2.66668 0.28006,0 0.50929,0.39341 0.50929,0.87428 0,0.48087 0.52502,1.46861 1.16667,2.195 1.48067,1.67614 3.47183,4.91599 3.95217,6.43071 0.20334,0.64165 0.59861,1.16667 0.87803,1.16667 0.2793,0 0.88082,0.89998 1.33648,2.00001 0.45562,1.09999 1.09201,1.99997 1.41418,1.99997 0.32202,0 0.58579,0.6 0.58579,1.33335 0,0.73334 0.30009,1.33334 0.66667,1.33334 0.36661,0 0.66667,0.6 0.66667,1.33334 0,0.7333 0.24114,1.3333 0.53549,1.3333 0.29442,0 1.2695,1.49534 2.16665,3.323 0.89718,1.82763 1.8562,3.32761 2.1312,3.33332 0.27515,0.008 0.49999,0.61036 0.49999,1.3437 0,0.73334 0.3001,1.33334 0.66667,1.33334 0.36662,0 0.66667,0.6 0.66667,1.33334 0,0.7333 0.3001,1.3333 0.66667,1.3333 0.36662,0 0.66667,0.6 0.66667,1.33335 0,0.73334 0.3001,1.3333399 0.66668,1.3333399 0.36661,0 0.66667,0.6 0.66667,1.33334 0,0.73334 0.30009,1.33334 0.66667,1.33334 0.36661,0 0.66663,0.6 0.66663,1.33331 0,0.73334 0.30009,1.33334 0.66667,1.33334 0.36662,0 0.66667,0.6 0.66667,1.33334 0,0.73334 0.3001,1.33334 0.66667,1.33334 0.36662,0 0.66667,0.6 0.66667,1.33330002 0,0.73335 0.3001,1.33335 0.66667,1.33335 0.36662,0 0.66668,0.39366998 0.66668,0.87476998 0,0.48113 0.6,2.11665 1.33334,3.63447 0.7333,1.51782 1.3333,3.2242 1.3333,3.79188 0,0.56773 0.3001,1.0322301 0.66667,1.0322301 0.36662,0 0.66667,0.45407 0.66667,1.00902 0,0.55499 0.26495,1.52999 0.58889,2.16669 0.32391,0.6367 0.9589,2.05761 1.41113,3.15761 0.45222,1.09999 1.08721,2.52094 1.41108,3.1576 0.32391,0.6367 0.58889,1.76172 0.58889,2.50001 0,0.73833 0.22488,1.34389 0.50003,1.34574 0.27515,0.002 1.22226,2.32683 2.10505,5.16665 0.88278,2.83982 1.85779,5.44834 2.16669,5.79666 0.30878,0.34847 0.5616,1.1774 0.5616,1.84241 0,0.66497 0.27061,1.72996 0.60166,2.36666 0.33109,0.63666 0.96019,2.50761 1.39831,4.1576 0.43816,1.65002 1.06738,3.52093 1.39831,4.15763 0.33109,0.6367 0.6017,2.04397 0.6017,3.12733 0,1.08333 0.26684,2.1346 0.59301,2.3362 0.32618,0.20145 0.75447,1.34427 0.95184,2.53932 0.19729,1.19508 0.68046,3.44787 1.07365,5.00621 0.39315,1.55833 1.0365,4.10831 1.42968,5.66664 0.39315,1.55834 0.86177,3.88335 1.04134,5.16669 0.17952,1.28334 0.59085,2.93333 0.91396,3.66667 0.32315,0.73331 0.74582,2.53331 0.93929,3.99999 0.19351,1.46665 0.66051,4.54167 1.03786,6.83335 2.95982,17.976336 3.94469,26.644006 5.07526,44.666636 0.45113,7.19109 0.0635,8.15577 -2.21057,5.50001 -0.62789,-0.73334 -1.3813,-1.33334 -1.67422,-1.33334 -0.29291,0 -5.55125,-5.02832 -11.6852,-11.17402 -6.13391,-6.1457 -12.20258,-11.91923 -13.48588,-12.83006 -1.28334,-0.91079 -3.49452,-2.78249 -4.91373,-4.1593 -1.41921,-1.3768 -2.928,-2.50329 -3.35286,-2.50329 -0.42481,0 -1.20487,-0.6 -1.73344,-1.33334 -0.52857,-0.73331 -1.28821,-1.33331 -1.68812,-1.33331 -0.39992,0 -1.3087,-0.52501 -2.01948,-1.166656 -0.71082,-0.64169 -2.11741,-1.59239 -3.12571,-2.11268 -1.00834,-0.52029 -1.83333,-1.19528 -1.83333,-1.49998 0,-0.30463 -0.6,-0.55401 -1.33335,-0.55401 -0.73334,0 -1.33334,-0.22828 -1.33334,-0.50706 0,-0.27893 -2.02499,-1.55384 -4.49998,-2.83332 -2.47502,-1.27948 -4.60002,-2.5513 -4.72225,-2.82629 -0.12208,-0.27515 -0.79722,-0.5 -1.49999,-0.5 -0.70276,0 -1.27778,-0.30009 -1.27778,-0.66667 0,-0.36661 -1.53282,-0.66667 -3.40626,-0.66667 h -3.40626 l 0.42573,2.50001 c 1.0295,6.04565 1.23352,6.86592 1.7938,7.21217 0.32617,0.20145 0.593,1.2311 0.593,2.28782 0,1.056716 0.3001,2.106706 0.66668,2.333326 0.36661,0.22677 0.66663,1.27661 0.66663,2.33333 0,1.05672 0.30009,2.10671 0.66667,2.33333 0.36661,0.22677 0.66667,1.44434 0.66667,2.70603 0,1.26168 0.26721,2.29398 0.59373,2.29398 0.32655,0 0.74865,0.97501 0.93796,2.16665 0.18936,1.19169 0.69305,3.36669 1.11935,4.83334 0.42629,1.46668 0.92681,3.41669 1.11224,4.33334 0.18557,0.91669 0.59414,2.26666 0.90818,3 0.5585,1.30409 1.04504,3.64108 1.73484,8.33333 0.1886,1.28334 0.60144,2.93333 0.91725,3.66667 1.22778,2.85094 1.60676,7.8353 1.57134,20.66668 -0.0431,15.64124 -0.34469,17.99199 -2.97267,23.15762 -0.32391,0.6367 -0.58889,1.58121 -0.58889,2.09896 0,0.85293 -2.27437,5.52979 -4.71651,9.69869 -1.80068,3.07385 -5.64643,7.34823 -9.6381,10.71235 -2.47718,2.0877 -9.80474,5.99906 -11.23869,5.99906 -0.59036,0 -1.07335,0.23433 -1.07335,0.52112 0,0.28648 -1.42499,0.90648 -3.16667,1.37752 -1.74169,0.47104 -3.68761,1.1365 -4.32427,1.47889 -0.6367,0.34243 -2.00172,0.62245 -3.03334,0.62245 -1.03166,0 -2.18997,0.31408 -2.57405,0.69831 -0.90852,0.90852 -34.11031,0.3964 -40.56835,-0.62578 -7.39952,-1.1712 -11.75887,-1.94834 -15.16668,-2.70383 -1.74164,-0.38612 -4.59163,-1.0187 -6.33331,-1.40569 -7.17997,-1.59549 -7.49726,-1.58997 -7.52924,0.13078 -0.0151,0.86509 -0.12094,6.6729 -0.2332,12.90625 -0.11225,6.23335 -0.55763,15.24737 -0.98985,20.03119 -0.77949,8.62776 -0.39205,17.9658 1.27109,30.63549 0.33676,2.56664 0.97289,7.51665 1.41332,10.99998 1.03067,8.1524 1.05762,36.08062 0.0416,43.00003 -0.43075,2.93332 -0.96926,6.68333 -1.19664,8.33332 -0.22752,1.64999 -0.68273,3.28502 -1.01185,3.63334 -0.3292,0.34847 -0.59838,1.75563 -0.59838,3.12733 0,1.37167 -0.30009,2.67938 -0.66667,2.90601 -0.36661,0.22677 -0.66667,1.02058 -0.66667,1.76439 0,1.72177 -4.15396,14.16163 -4.82778,14.45783 -0.27817,0.12208 -0.50555,0.65129 -0.50555,1.1757 0,0.52441 -0.34696,1.62444 -0.77076,2.44444 -1.61726,3.12843 -1.89592,3.83619 -1.89592,4.81524 0,0.55498 -0.30009,1.00905 -0.66667,1.00905 -0.36661,0 -0.66667,0.6 -0.66667,1.33335 0,0.73334 -0.22488,1.33568 -0.49999,1.33852 -0.27515,0.003 -0.83025,0.67785 -1.23391,1.50001 -1.85964,3.78766 -4.00293,7.56923 -4.7224,8.33209 -0.43431,0.46049 -0.97954,1.4355 -1.21161,2.16665 -0.23206,0.73115 -0.7017,1.32937 -1.04368,1.32937 -0.34204,0 -0.62173,0.40551 -0.62173,0.90115 0,0.49561 -0.82828,1.7706 -1.84059,2.83333 -1.01231,1.06272 -2.58429,2.9822 -3.49323,4.26553 -2.12836,3.00503 -8.99448,9.87119 -11.99951,11.99951 -1.28334,0.90894 -3.20284,2.48092 -4.26553,3.49323 -1.06273,1.01235 -2.33772,1.84059 -2.83333,1.84059 -0.49564,0 -0.90115,0.3001 -0.90115,0.66667 0,0.36662 -0.6,0.66668 -1.33334,0.66668 -0.73331,0 -1.33331,0.30009 -1.33331,0.66667 0,0.36661 -0.45407,0.66667 -1.00905,0.66667 -0.55499,0 -1.52999,0.26305 -2.16666,0.5848 -3.20844,1.62093 -6.75949,2.08184 -16.03831,2.08184 -9.67487,0 -10.11931,0.0586 -10.11931,1.33334 0,0.73335 0.3001,1.33335 0.66664,1.33335 0.36661,0 0.66667,0.40633 0.66667,0.903 0,0.49667 2.70603,3.66369 6.01338,7.03782 7.47583,7.62686 9.65975,11.46954 9.00393,15.84287 -0.32353,2.15687 -1.03321,3.62446 -2.33341,4.82468 -3.03273,2.79961 -3.90353,3.39164 -4.98909,3.39164 -0.56549,0 -1.02814,0.30009 -1.02814,0.66667 0,0.36661 -0.6,0.66663 -1.33334,0.66663 -0.73331,0 -1.33331,0.3001 -1.33331,0.66667 0,0.36662 -0.6,0.66667 -1.33334,0.66667 -0.73334,0 -1.33334,0.3001 -1.33334,0.66668 0,0.36661 -0.45407,0.66667 -1.00906,0.66667 -0.55495,0 -1.52995,0.26494 -2.16665,0.58888 -4.60093,2.34052 -7.98346,3.21173 -15.99868,4.12079 -3.76255,0.42674 -7.00524,1.04163 -7.20597,1.36645 -0.50494,0.81698 -12.11093,0.74698 -12.61965,-0.076 z m 21.66667,-192 c 0,-0.36661 0.4179,-0.66667 0.92867,-0.66667 1.34619,0 1.85552,-1.86811 0.96366,-3.53454 -0.93211,-1.7416 -2.26779,-3.13156 -3.01137,-3.13372 -0.30123,-8.3e-4 -1.59765,-0.90013 -2.88095,-1.99842 -1.28334,-1.09826 -2.70833,-1.99756 -3.16668,-1.99843 -0.45834,-6.8e-4 -0.83334,-0.25096 -0.83334,-0.55559 0,-0.30463 -0.825,-0.97969 -1.83334,-1.49998 -1.0083,-0.52029 -2.41489,-1.47099 -3.12571,-2.11268 -0.71078,-0.64165 -1.68578,-1.16666 -2.16665,-1.16666 -0.48087,0 -0.87428,-0.3001 -0.87428,-0.66664 0,-0.36661 -0.6,-0.66667 -1.33334,-0.66667 -0.88891,0 -1.33334,-0.44447 -1.33334,-1.33334 0,-0.73334 0.22488,-1.33568 0.49999,-1.33856 0.58481,-0.008 2.16669,-3.22254 2.16669,-4.40545 0,-0.44636 0.35301,-0.92927 0.78474,-1.07316 0.80058,-0.26684 1.0314,-17.25181 0.26797,-19.70661 -0.1954,-0.62861 -0.0854,-1.57349 0.24492,-2.09975 0.62063,-0.98895 1.04012,-0.92119 8.53836,1.37945 1.19313,0.36623 2.73574,0.48582 3.42804,0.26608 1.97026,-0.62533 2.27259,-2.01963 3.78009,-17.43519 l 0.39897,-4.07985 5.95643,0.33978 c 5.099,0.29065 6.14676,0.16743 7.2785,-0.85682 0.72714,-0.65801 1.32204,-1.59995 1.32204,-2.0931 0,-0.49315 0.22942,-0.89669 0.50941,-0.89669 0.28006,0 1.02107,-1.12498 1.64647,-2.49997 1.14603,-2.51966 3.22613,-6.21627 3.84518,-6.83335 0.18406,-0.18331 0.75961,-1.15835 1.27933,-2.16665 0.51972,-1.00834 1.19422,-1.83334 1.49892,-1.83334 0.30463,0 0.55405,-0.6 0.55405,-1.33334 0,-0.73334 0.30009,-1.33334 0.66667,-1.33334 0.36661,0 0.66667,-0.39345 0.66667,-0.87428 0,-0.48087 0.6,-1.51831 1.3333,-2.30548 0.73334,-0.78712 1.33334,-1.70921 1.33334,-2.04903 0,-0.91623 3.08705,-2.77122 4.61186,-2.77122 0.72896,0 2.16453,0.33751 3.19011,0.74967 3.57044,1.43546 4.54976,1.76999 7.53139,2.57264 1.64999,0.44421 3.52089,1.07842 4.15759,1.40935 0.6367,0.33109 1.91169,0.6017 2.83336,0.6017 0.92164,0 1.67569,0.3001 1.67569,0.66664 0,0.36661 0.65371,0.66667 1.45267,0.66667 1.53445,0 5.42653,1.0992 7.37162,2.08184 0.6367,0.32163 1.91169,0.58484 2.83333,0.58484 0.92163,0 1.67573,0.30009 1.67573,0.66667 0,0.36662 0.6537,0.66667 1.45266,0.66667 1.53441,0 5.42653,1.09916 7.37163,2.08184 0.6367,0.32164 1.74398,0.58481 2.46066,0.58481 0.71667,0 1.48841,0.30009 1.71503,0.66667 0.22678,0.36661 2.06306,0.66667 4.08099,0.66667 h 3.66893 l 18.01081,-18.09449 c 9.90592,-9.95195 18.27878,-18.79937 18.60635,-19.66087 0.32769,-0.86151 0.4486,-1.944 0.26911,-2.40552 -0.35641,-0.91586 -3.38234,-2.50579 -4.76894,-2.50579 -0.4769,0 -0.8671,-0.3001 -0.8671,-0.66667 0,-0.36662 -0.45407,-0.66667 -1.00902,-0.66667 -0.55498,0 -1.60497,-0.3001 -2.33336,-0.66667 -0.72836,-0.36662 -1.92019,-0.96666 -2.64854,-1.33331 -0.72839,-0.36661 -1.77839,-0.66667 -2.33333,-0.66667 -0.55499,0 -1.00906,-0.30009 -1.00906,-0.66667 0,-0.36661 -0.90002,-0.66667 -2.00001,-0.66667 -1.1,0 -1.99998,-0.3001 -1.99998,-0.66667 0,-0.36662 -0.70001,-0.66667 -1.55558,-0.66667 -0.85557,0 -1.7588,-0.20334 -2.00723,-0.45166 -0.74354,-0.74358 -9.32024,-3.51258 -10.9372,-3.53113 -0.82499,-0.008 -1.50001,-0.31711 -1.50001,-0.68387 0,-0.36662 -0.8823,-0.66667 -1.96063,-0.66667 -1.07838,0 -2.12652,-0.26835 -2.32918,-0.59626 -0.20258,-0.32806 -1.49537,-0.76641 -2.87266,-0.9744 -5.96731,-0.90119 -7.50418,-1.2771 -7.50418,-1.8356 0,-0.32655 -1.44,-0.59373 -3.20001,-0.59373 -1.76002,0 -3.48499,-0.26948 -3.83335,-0.59837 -0.34847,-0.3292 -1.83334,-0.77042 -3.29998,-0.98064 -1.46669,-0.21014 -4.61669,-0.69018 -7.00003,-1.06658 -8.78135,-1.38679 -14.48606,-2.10271 -20.66664,-2.59359 -3.48333,-0.27666 -6.85833,-0.74313 -7.50002,-1.03657 -1.16157,-0.53125 -1.66779,-3.0576 -0.61263,-3.0576 0.30463,0 0.9792,-0.825 1.49893,-1.83334 0.51972,-1.00834 1.13011,-1.98331 1.35643,-2.16665 2.0236,-1.63918 4.15922,-9.33336 2.5906,-9.33336 -0.36661,0 -0.66667,-0.6 -0.66667,-1.3333 0,-0.73334 -0.26683,-1.33334 -0.59323,-1.33334 -0.32618,0 -1.24819,-1.39332 -2.0487,-3.0963 -2.05417,-4.370116 -2.97978,-5.137286 -5.54917,-4.599386 -1.17823,0.24681 -3.41723,0.6093 -4.97556,0.80587 -1.55834,0.19654 -2.83333,0.59698 -2.83333,0.889816 0,0.29291 -1.27498,0.69498 -2.83332,0.89367 -1.55834,0.1988 -4.48335,0.69418 -6.49999,1.10101 -2.01668,0.40687 -4.79359,0.90618 -6.17088,1.1096 -1.3773,0.20333 -2.66998,0.63821 -2.87267,0.96612 -0.20259,0.32806 -1.58483,0.59626 -3.07147,0.59626 -2.69515,0 -2.70172,-0.008 -2.26402,-2.16666 1.96895,-9.717726 3.46031,-20.041506 4.7912,-33.166666 0.20447,-2.01668 0.64539,-3.95169 0.9798,-4.30001 0.33449,-0.34847 0.60801,-1.45561 0.60801,-2.46066 0,-1.00501 0.3001,-2.01271 0.66668,-2.23933 0.36661,-0.22677 0.66667,-1.14433 0.66667,-2.03936 0,-0.89503 0.30009,-1.62731 0.66667,-1.62731 0.36661,0 0.66667,-0.6 0.66667,-1.33335 0,-0.73334 0.30009,-1.33334 0.66663,-1.33334 0.36662,0 0.66667,-0.6 0.66667,-1.3333 0,-0.73334 0.3001,-1.33334 0.66667,-1.33334 0.36663,0 0.66668,-0.57502 0.66668,-1.27779 0,-0.70276 0.22489,-1.37778 0.5,-1.50001 0.7065,-0.31408 3.27337,-5.74666 4.12108,-8.72221 0.39175,-1.37499 1.01227,-3.49629 1.37892,-4.71401 0.36662,-1.21769 0.66668,-2.86768 0.66668,-3.66668 0,-0.79895 0.26985,-1.45266 0.59954,-1.45266 0.32958,0 0.76585,-1.27498 0.96911,-2.83332 0.77019,-5.90453 1.19894,-8.20811 1.76818,-9.49999 0.32315,-0.73335 0.76346,-2.68336 0.97852,-4.33335 0.21505,-1.64999 0.69078,-5.0999801 1.05709,-7.6666501 2.57137,-18.0165199 2.02594,-49.2743899 -1.01499,-58.1666699 -0.61028,-1.78454 -2.22418,-1.97465 -2.82973,-0.33335 -0.2366,0.64168 -0.60235,1.31667 -0.81245,1.50002 -0.64327,0.56137 -2.77531,4.26345 -3.16747,5.5 -0.20334,0.64165 -0.635,1.16667 -0.9589,1.16667 -0.32391,0 -0.58889,0.6 -0.58889,1.3333 0,0.73334 -0.22488,1.33569 -0.50003,1.33856 -0.59868,0.008 -2.16666,3.23456 -2.16666,4.46105 0,0.47686 -0.30009,0.86706 -0.66668,0.86706 -0.36661,0 -0.66667,0.6 -0.66667,1.33334 0,0.73334 -0.30009,1.33334 -0.66667,1.33334 -0.36661,0 -0.66663,0.6 -0.66663,1.33335 0,0.7333 -0.22677,1.3333 -0.50355,1.3333 -0.27704,0 -0.87696,1.05003 -1.33334,2.33337 -0.45638,1.2833 -1.20321,3.38332 -1.65959,4.66666 -0.45638,1.28333 -1.05638,2.33332 -1.33334,2.33332 -0.27704,0 -0.50355,0.70001 -0.50355,1.55554 0,0.85558 -0.20334,1.75885 -0.45165,2.00724 -0.74355,0.74358 -3.51258,9.3202399 -3.53114,10.9372299 -0.008,0.825 -0.28422,1.49998 -0.61092,1.49998 -0.32655,0 -0.75489,0.97501 -0.95184,2.16669 -0.19691,1.19165 -0.69619,3.51666002 -1.10937,5.16665 -2.06173,8.23268 -3.9877,20.0289301 -5.08856,31.1666701 -0.2264,2.29168 -0.53095,4.16666 -0.67654,4.16666 -0.37379,0 -3.17873,-1.5922 -3.57997,-2.0321 -0.1833,-0.20107 -1.38334,-1.08654 -2.66668,-1.96788 -1.2833,-0.88135 -2.4833,-1.7808 -2.66665,-1.99884 -0.70578,-0.83936 -11.2583,-6.00118 -12.26846,-6.00118 -0.58567,0 -1.06488,-0.30009 -1.06488,-0.66667 0,-0.36661 -0.89998,-0.66667 -2.00001,-0.66667 -1.09999,0 -1.99997,-0.26721 -1.99997,-0.59372 0,-0.57718 -0.65742,-0.74041 -7.66965,-1.90466 -1.83496,-0.30463 -3.73134,-0.79805 -4.21417,-1.09644 -0.48284,-0.29858 -6.48148,-0.66996 -13.33036,-0.82564 -13.26523,-0.3016 -17.4525,-0.698 -17.4525,-1.65245 0,-0.32655 -0.37493,-0.59444 -0.83334,-0.59531 -0.4583,-6.8e-4 -1.88333,-0.90013 -3.16663,-1.99842 -1.28334,-1.0983 -2.59816,-1.9976 -2.92181,-1.99843 -0.32352,-6.8e-4 -1.07368,-0.54081 -1.66669,-1.19989 -0.59301,-0.65903 -2.12818,-1.9241501 -3.41152,-2.8113601 -1.28333,-0.88721 -2.71925,-1.98746 -3.19094,-2.44501 -0.47165,-0.45755 -1.74667,-1.35712 -2.83332,-1.99903 -1.08665,-0.64192 -1.97575,-1.4024 -1.97575,-1.69002 0,-0.28762 -0.37493,-0.52365 -0.83331,-0.52448 -0.45834,-6.8e-4 -1.88334,-0.90017 -3.16668,-1.99846998 -1.28333,-1.09825 -2.57087,-1.99755002 -2.86121,-1.99842002 -0.29027,-6.8e-4 -1.17188,-0.60155 -1.95904,-1.33489 -0.78713,-0.73335 -1.82461,-1.33335 -2.30544,-1.33335 -0.48087,0 -0.87432,-0.27968 -0.87432,-0.62173 0,-0.34205 -0.59822,-0.81161 -1.32937,-1.04368 -0.73115,-0.23206 -1.7153,-0.77729 -2.18695,-1.2116 -1.20465,-1.10925 -4.594434,-3.1345899 -5.983674,-3.5751699 -0.64165,-0.20334 -1.16667,-0.635 -1.16667,-0.9589 0,-0.32391 -0.6,-0.58893 -1.33334,-0.58893 -0.73334,0 -1.33334,-0.30009 -1.33334,-0.66663 0,-0.36662 -0.6,-0.66667 -1.3333,-0.66667 -0.73335,0 -1.33335,-0.3001 -1.33335,-0.66667 0,-0.36662 -0.6,-0.66667 -1.33334,-0.66667 -0.73334,0 -1.33334,-0.3001 -1.33334,-0.66668 0,-0.36661 -0.6,-0.66667 -1.33334,-0.66667 -0.73331,0 -1.33331,-0.30009 -1.33331,-0.66667 0,-0.36661 -0.6,-0.66667 -1.33334,-0.66667 -0.73334,0 -1.33334,-0.24567 -1.33334,-0.54614 0,-0.30047 -1.49998,-0.95463 -3.33332,-1.45383 -1.83333,-0.49924 -3.33335,-1.15348 -3.33335,-1.45387 0,-0.30048 -0.58227,-0.54615 -1.29396,-0.54615 -0.71172,0 -1.47942,-0.30009 -1.70604,-0.66667 -0.22677,-0.36661 -0.99836,-0.66667 -1.71504,-0.66667 -0.71667,0 -1.82396,-0.26532 -2.46066,-0.58983 -2.03444,-1.03661 -9.94994,-3.41015 -11.37245,-3.41015 -0.75526,0 -1.53395,-0.26004 -1.73053,-0.57823 -0.19653,-0.31824 -1.63925,-0.7674 -3.20602,-0.99856 -1.56673,-0.2313 -4.34861,-0.64595 -6.18195,-0.92178 -4.85911,-0.73097 -7.00002,-0.35452 -7.00002,1.23133 0,1.3014 29.40204,31.1151499 35.00001,35.4900999 1.46669,1.14626 3.41666,2.85162 4.33334,3.7897001 0.91665,0.93808 2.71665,2.43586 3.99999,3.3284 1.28334,0.89254 2.91492,2.15596 3.6257,2.80758 0.71082,0.65163 1.68582,1.18477 2.16669,1.18477 0.48083,0 0.87428,0.24945 0.87428,0.55404 0,0.30463 0.825,0.97969 1.83334,1.49998 1.00834,0.52029 2.41489,1.471 3.1257,2.11265 0.71082,0.64169 1.68582,1.16666 2.16666,1.16666 0.48087,0 0.87431,0.3001 0.87431,0.66667 0,0.36662 0.57498,0.66667 1.27779,0.66667 0.70276,0 1.37775,0.22489 1.49998,0.5 0.32012,0.72015 5.841564,3.50003 6.951914,3.50003 0.51534,0 0.93698,0.30009 0.93698,0.66663 0,0.36662 0.6,0.66667 1.33334,0.66667 0.73335,0 1.33335,0.3001 1.33335,0.66667 0,0.36662 0.6,0.66667 1.3333,0.66667 0.73334,0 1.33334,0.24416 1.33334,0.54225 0,0.29821 1.03752,0.94931 2.30559,1.44688 3.0294,1.18863 3.28369,2.11159 1.61798,5.87271 -0.76437,1.72599 -1.61726,3.73818 -1.89532,4.47152 -0.27818,0.7333 -1.14819,2.63667 -1.93357,4.22967 -0.78542,1.59296 -1.42802,3.31797 -1.42802,3.83331 0,0.51537 -0.30009,0.93702 -0.66667,0.93702 -0.36661,0 -0.66663,0.6 -0.66663,1.3333 0,0.73334 -0.3001,1.33334 -0.66667,1.33334 -0.36662,0 -0.66668,0.6 -0.66668,1.33335 0,0.73334 -0.30009,1.33334 -0.66667,1.33334 -0.36661,0 -0.66667,0.57498 -0.66667,1.27778 0,0.70277 -0.23546,1.37775 -0.52286,1.49998 -0.73039,0.3103 -4.81047,8.46391 -4.81047,9.61304 0,0.5184 -0.30009,0.94254 -0.66667,0.94254 -0.366614,0 -0.666674,0.6 -0.666674,1.3333 0,0.73335 -0.30009,1.33335 -0.66667,1.33335 -0.36661,0 -0.66667,0.58231 -0.66667,1.29399 0,0.71169 -0.30009,1.47939 -0.66667,1.70601 -0.36661,0.22677 -0.66663,1.23431 -0.66663,2.23933 0,1.00505 -0.3224,2.1496 -0.71615,2.54347 -1.15472,1.15472 -0.0113,16.67947 1.3649,18.550526 0.26986,0.36661 0.89987,2.09166 1.39986,3.83334 0.50003,1.74165 1.143614,3.16668 1.430254,3.16668 0.28649,0 0.52112,0.6 0.52112,1.3333 0,0.73335 0.3001,1.33335 0.66667,1.33335 0.36662,0 0.66668,0.57501 0.66668,1.27778 0,0.70276 0.37492,1.40398 0.83331,1.55826 1.7687,0.59528 -0.92924,2.49729 -3.542294,2.49729 -1.40013,0 -2.73109,0.30009 -2.95771,0.66667 -0.22677,0.36661 -1.19803,0.66667 -2.15868,0.66667 -0.96064,0 -2.66796,0.27968 -3.794,0.6215 -1.12603,0.34167 -3.3973,0.99557 -5.04733,1.45282 -1.64999,0.4572 -4.15355,1.39819 -5.56347,2.09109 -3.04331,1.4956 -8.43651,6.70587 -8.43651,8.15037 0,0.55967 -0.26721,1.01756 -0.59372,1.01756 -0.74831,0 -1.52497,4.07437 -1.52497,8.00001 0,3.92561 0.77666,7.99998 1.52497,7.99998 0.32655,0 0.59372,0.6 0.59372,1.33334 0,0.73334 0.27969,1.33334 0.62174,1.33334 0.34204,0 0.82197,0.63088 1.06669,1.40194 0.56463,1.77895 6.80576,7.93138 8.04575,7.93138 0.51288,0 0.93248,0.30009 0.93248,0.66667 0,0.36661 0.44773,0.66667 0.99493,0.66667 0.5472,0 1.7472,0.65408 2.66668,1.45357 1.38845,1.20725 1.67172,2.04778 1.67172,4.96063 0,1.92892 -0.30009,3.69252 -0.66667,3.91914 -0.36661,0.22677 -0.66667,1.1266 -0.66667,1.99998 0,0.87341 -0.30009,1.77339 -0.66667,2.00001 -0.36662,0.22677 -0.66667,1.08431 -0.66667,1.90601 0,0.82171 -0.24567,1.77899 -0.54614,2.12731 -0.30048,0.34847 -1.53627,3.78335 -2.74644,7.63336 -1.21016,3.84998 -2.44826,7.59999 -2.75138,8.33333 -0.30312,0.73334 -1.48331,4.18333 -2.62269,7.66666 -1.13937,3.48332 -2.32127,6.93335 -2.62647,7.66666 -0.30538,0.73334 -0.92326,2.68335 -1.37352,4.33334 -0.45025,1.64999 -1.06586,3.6 -1.368,4.33334 -0.5266,1.27816 -0.78583,2.76646 -1.72176,9.88471 -0.39772,3.02502 0.35074,7.11047 1.82139,9.93959 0.33109,0.63666 0.6017,1.58669 0.6017,2.1111 0,0.52441 0.22489,1.0535 0.5,1.17569 0.27515,0.12208 1.05018,1.21115 1.72263,2.41985 0.97028,1.74406 1.05664,2.39758 0.41836,3.16664 -0.44236,0.53302 -1.21754,0.9691 -1.72264,0.9691 -0.50509,0 -0.91835,0.3001 -0.91835,0.66664 0,0.36661 -0.6,0.66667 -1.33334,0.66667 -0.73334,0 -1.33334,0.30009 -1.33334,0.66667 0,0.36661 -0.6,0.66667 -1.33334,0.66667 -0.73331,0 -1.33331,0.30009 -1.33331,0.66667 0,0.36662 -0.48,0.66667 -1.06669,0.66667 -1.20578,0 -4.97205,3.55775 -6.18977,5.84712 -0.99417,1.86901 -0.63258,2.49328 2.23113,3.85221 2.3901,1.13416 5.92687,1.07652 20.02534,-0.32655 11.86824,-1.18103 13.98931,-1.48558 14.63331,-2.10097 0.34847,-0.33297 1.14497,-0.60521 1.77033,-0.60521 1.08771,0 6.567794,-2.56555 7.263004,-3.40022 0.8589,-1.03117 3.46401,-1.93311 5.5835,-1.93311 1.28579,0 2.50072,-0.26343 2.69983,-0.58579 1.24478,-2.01407 27.24464,-2.03131 29.34998,-0.0189 0.34848,0.33298 1.60566,0.60522 2.79402,0.60522 1.18836,0 2.32649,0.26834 2.52915,0.59626 0.3462,0.56031 2.0626,0.91324 8.87686,1.82539 1.55834,0.20863 2.83332,0.64906 2.83332,0.97879 0,0.32995 0.95369,0.59954 2.11933,0.59954 2.10588,0 5.82309,0.96273 8.0383,2.08184 0.6367,0.32164 1.91169,0.58485 2.83333,0.58485 0.92163,0 1.67573,0.30009 1.67573,0.66667 0,0.36661 0.89998,0.66667 1.99997,0.66667 1.10003,0 2.00001,0.24567 2.00001,0.54614 0,0.30047 1.50002,0.9546 3.33332,1.45383 1.83334,0.49924 3.33335,1.12067 3.33335,1.38093 0,0.26041 0.97501,0.63462 2.16666,0.83191 3.61742,0.59891 6.09823,1.19161 7.50002,1.79195 1.38156,0.59169 4.07913,1.14199 8.66664,1.76791 1.46668,0.20032 2.9517,0.63315 3.30002,0.96227 0.34847,0.3292 1.75563,0.59838 3.12733,0.59838 1.37167,0 2.67939,0.30009 2.90601,0.66667 0.22677,0.36661 2.19431,0.66667 4.37268,0.66667 2.19598,0 3.96064,-0.29707 3.96064,-0.66667 z m -20.86095,-64.84218 c -0.65685,-0.82015 -1.30477,-2.09117 -1.43989,-2.82451 -0.5311,-2.88288 -1.72089,-20.27721 -1.71035,-25.0046 0.0113,-4.80922 0.0975,-5.08392 2.22395,-7.03544 1.21701,-1.11693 3.242,-2.75063 4.49998,-3.63039 1.25798,-0.8798 2.73725,-2.0781 3.28725,-2.6629 0.54999,-0.58477 2.05001,-1.78477 3.33335,-2.66665 1.28334,-0.88188 2.78332,-2.07099 3.33332,-2.64242 0.54999,-0.57146 2.05001,-1.82714 3.33335,-2.79039 1.2833,-0.96325 3.23331,-2.53458 4.3333,-3.49183 1.10004,-0.95724 2.23503,-1.74077 2.52223,-1.74122 0.28725,-4.6e-4 1.57225,-1.05083 2.8556,-2.33416 3.17412,-3.17413 3.83221,-3.01146 3.37111,0.83334 -0.20901,1.74165 -0.55351,4.66666 -0.76581,6.5 -0.21241,1.83333 -0.65336,3.93331 -0.98007,4.66666 -0.55449,1.24456 -0.78296,2.5895 -1.75551,10.33334 -0.20712,1.64999 -0.6477,3.28501 -0.97883,3.63333 -0.33109,0.34848 -0.60204,1.61643 -0.60204,2.81798 0,3.18357 -2.23953,4.47322 -6.81627,3.92519 -1.93436,-0.23168 -5.35449,-0.58499 -7.60025,-0.78531 l -4.08318,-0.36435 -0.28951,1.97201 c -0.26079,1.77695 0.0469,6.92141 1.21376,20.30105 l 0.3925,4.49998 -3.24189,-0.008 c -2.5494,-0.008 -3.497,-0.32731 -4.43618,-1.49999 z M 12.505127,258.77323 c 0.22677,-0.36661 1.46574,-0.66667 2.75365,-0.66667 2.4906,0 4.24634,-1.22449 4.24634,-2.96145 0,-0.58114 0.27061,-1.57757 0.6011,-2.21427 0.3307,-0.6367 1.35647,-2.93235 2.27977,-5.10146 0.9233,-2.1691 2.15282,-4.49752 2.73226,-5.17428 0.57944,-0.67677 1.053542,-1.6108 1.053542,-2.07564 0,-0.46489 0.6,-1.27767 1.333341,-1.80624 0.733342,-0.52857 1.337537,-1.26981 1.342677,-1.64719 0.01134,-0.97123 7.862669,-9.08516 10.657319,-11.01638 3.9557,-2.73358 8.68872,-7.94672 9.10511,-10.02871 0.21733,-1.0859 0.65738,-1.97439 0.97822,-1.97439 0.32088,0 0.58333,-0.95369 0.58333,-2.11933 0,-2.16288 0.18331,-2.91001 2.61082,-10.63484 1.52319,-4.84728 1.69512,-6.66743 0.79548,-8.42154 -0.32655,-0.6367 -1.30152,-2.65761 -2.16665,-4.49095 -1.72063,-3.64622 -5.30154,-7.66666 -6.82851,-7.66666 -0.53167,0 -1.08102,-0.34318 -1.22079,-0.76229 -0.19049,-0.57192 -0.60975,-0.57192 -1.67837,0 -0.78339,0.41926 -1.98422,0.76229 -2.66858,0.76229 -1.52466,0 -4.831064,1.48067 -4.838207,2.16665 -0.0026,0.27515 -0.605178,0.5 -1.33852,0.5 -0.733341,0 -1.333341,0.30009 -1.333341,0.66667 0,0.36661 -0.6,0.66667 -1.333304,0.66667 -0.733342,0 -1.333342,0.26494 -1.333342,0.58893 0,0.3239 -0.525014,0.75537 -1.166665,0.95886 -1.144365,0.36284 -4.84339,2.46123 -5.50001,3.11993 -0.1833,0.18406 -1.15835,0.75961 -2.16669,1.27933 -1.0083,0.51972 -1.83329,1.19422 -1.83329,1.49892 0,0.30463 -0.48983,0.55404 -1.08847,0.55404 -0.59868,0 -1.57368,0.52702 -2.16669,1.1712 -0.59301,0.64418 -1.90318,1.59485 -2.91152,2.11264 -1.00834,0.5178 -1.83334,1.19074 -1.83334,1.49545 0,0.30463 -0.4055003,0.55404 -0.9011103,0.55404 -0.49565,0 -1.77063,0.82825 -2.83336,1.84059 -1.06269,1.01231 -2.9822,2.58426 -4.26554,3.49319 -3.04092997,2.15381 -9.9024,9.02926 -11.97517,11.99955 -0.8955197,1.28334 -2.0924597,2.78415 -2.6598797,3.33517 -1.23292,1.19732 -3.301,4.5374 -3.81713,6.16482 -0.20334,0.64165 -0.635,1.16667 -0.95891,1.16667 -0.3239,0 -0.58888,0.6 -0.58888,1.33334 0,0.73334 -0.26722,1.33334 -0.59377,1.33334 -1.15377,0 -2.50091,10.50531 -1.47825,11.52798 0.40627,0.40626 0.74533,1.35367 0.75349,2.10535 0.008,0.75167 0.60147,2.11664 1.31853,3.03333 0.71701,0.91665 1.31032,1.9053 1.31848,2.19696 0.034,1.17427 3.29609,3.73939 7.5148397,5.9071 3.24642,1.66814 3.86135,1.89593 5.11827,1.89593 0.71668,0 1.48846,0.30009 1.71504,0.66667 0.22677,0.36661 1.04803,0.66667 1.82536003,0.66667 1.35283997,0 3.13772997,0.445 7.50798997,1.87185 2.70535,0.88327 4.8350003,0.93445 5.3333303,0.12812 z"
             id="path7561"
             inkscape:connector-curvature="0" />
        </g>
      </g>
    </g>
  </g>
</svg>
