<?xml version="1.0" encoding="UTF-8" standalone="no"?>
<!-- Created with Inkscape (http://www.inkscape.org/) -->

<svg
   xmlns:dc="http://purl.org/dc/elements/1.1/"
   xmlns:cc="http://creativecommons.org/ns#"
   xmlns:rdf="http://www.w3.org/1999/02/22-rdf-syntax-ns#"
   xmlns:svg="http://www.w3.org/2000/svg"
   xmlns="http://www.w3.org/2000/svg"
   xmlns:sodipodi="http://sodipodi.sourceforge.net/DTD/sodipodi-0.dtd"
   xmlns:inkscape="http://www.inkscape.org/namespaces/inkscape"
   width="210mm"
   height="297mm"
   viewBox="0 0 210 297"
   version="1.1"
   id="svg8"
   inkscape:version="0.92.2 5c3e80d, 2017-08-06"
   sodipodi:docname="princess-frog.svg">
  <defs
     id="defs2">
    <clipPath
       id="clipPath45"
       clipPathUnits="userSpaceOnUse">
      <path
         inkscape:connector-curvature="0"
         id="path43"
         d="M 0,864 H 864 V 0 H 0 Z" />
    </clipPath>
    <clipPath
       id="clipPath3854"
       clipPathUnits="userSpaceOnUse">
      <path
         inkscape:connector-curvature="0"
         id="path3852"
         d="M 0,864 H 864 V 0 H 0 Z" />
    </clipPath>
    <clipPath
       id="clipPath4053"
       clipPathUnits="userSpaceOnUse">
      <path
         inkscape:connector-curvature="0"
         id="path4051"
         d="M 0,864 H 864 V 0 H 0 Z" />
    </clipPath>
    <clipPath
       id="clipPath4150"
       clipPathUnits="userSpaceOnUse">
      <path
         inkscape:connector-curvature="0"
         id="path4148"
         d="M 0,864 H 864 V 0 H 0 Z" />
    </clipPath>
    <clipPath
       id="clipPath4295"
       clipPathUnits="userSpaceOnUse">
      <path
         inkscape:connector-curvature="0"
         id="path4293"
         d="M 0,864 H 864 V 0 H 0 Z" />
    </clipPath>
    <clipPath
       id="clipPath4410"
       clipPathUnits="userSpaceOnUse">
      <path
         inkscape:connector-curvature="0"
         id="path4408"
         d="M 0,864 H 864 V 0 H 0 Z" />
    </clipPath>
    <clipPath
       id="clipPath4615"
       clipPathUnits="userSpaceOnUse">
      <path
         inkscape:connector-curvature="0"
         id="path4613"
         d="M 0,864 H 864 V 0 H 0 Z" />
    </clipPath>
    <clipPath
       id="clipPath4838"
       clipPathUnits="userSpaceOnUse">
      <path
         inkscape:connector-curvature="0"
         id="path4836"
         d="M 0,864 H 864 V 0 H 0 Z" />
    </clipPath>
    <clipPath
       id="clipPath5001"
       clipPathUnits="userSpaceOnUse">
      <path
         inkscape:connector-curvature="0"
         id="path4999"
         d="M 0,864 H 864 V 0 H 0 Z" />
    </clipPath>
    <inkscape:perspective
       id="perspective9"
       inkscape:persp3d-origin="372.04724 : 350.78739 : 1"
       inkscape:vp_z="744.09448 : 526.18109 : 1"
       inkscape:vp_y="0 : 1000 : 0"
       inkscape:vp_x="0 : 526.18109 : 1"
       sodipodi:type="inkscape:persp3d" />
  </defs>
  <sodipodi:namedview
     id="base"
     pagecolor="#000000"
     bordercolor="#666666"
     borderopacity="1.0"
     inkscape:pageopacity="0"
     inkscape:pageshadow="2"
     inkscape:zoom="0.91846942"
     inkscape:cx="396.85039"
     inkscape:cy="556.87007"
     inkscape:document-units="mm"
     inkscape:current-layer="g5136"
     showgrid="false"
     inkscape:window-width="2560"
     inkscape:window-height="1385"
     inkscape:window-x="2560"
     inkscape:window-y="27"
     inkscape:window-maximized="1"
     showguides="true"
     inkscape:guide-bbox="true">
    <sodipodi:guide
       position="105.43356,205.96993"
       orientation="1,0"
       id="guide3815"
       inkscape:locked="false" />
    <sodipodi:guide
       position="92.758485,149.50825"
       orientation="0,1"
       id="guide3817"
       inkscape:locked="false" />
  </sodipodi:namedview>
  <metadata
     id="metadata5">
    <rdf:RDF>
      <cc:Work
         rdf:about="">
        <dc:format>image/svg+xml</dc:format>
        <dc:type
           rdf:resource="http://purl.org/dc/dcmitype/StillImage" />
        <dc:title></dc:title>
      </cc:Work>
    </rdf:RDF>
  </metadata>
  <g
     inkscape:label="Layer 1"
     inkscape:groupmode="layer"
     id="layer1">
    <g
       transform="matrix(0.35277777,0,0,-0.35277777,-70.777455,287.43463)"
       inkscape:label="1"
       id="g37">
      <g
         id="g39">
        <g
           id="g5136"
           transform="matrix(0.75000002,0,0,-0.75000002,342.50983,505.50165)"
           style="fill:#ffeeaa">
          <path
             style="fill:#ffeeaa;stroke-width:0.48600003"
             d="m 165.02849,436.28466 c -0.93556,-0.22015 -4.3254,-0.88387 -7.53301,-1.47466 -27.72815,-5.10734 -61.538688,-18.09894 -85.554408,-32.87407 -0.52448,-0.3227 -1.93774,-1.17454 -3.14058,-1.89307 -6.37328,-3.80693 -19.52539,-12.9347 -25.19424,-17.4852 -1.51292,-1.21447 -3.08219,-2.46801 -3.48727,-2.7856 -1.33788,-1.049 -6.06287,-4.93336 -6.31049,-5.1878 -0.13363,-0.13722 -2.10195,-1.87569 -4.374,-3.86299 -5.23221,-4.57651 -18.59618,-17.94789 -23.3467399,-23.35969 -1.99444,-2.27206 -3.74352,-4.24034 -3.88679,-4.374 -0.79195,-0.7386 -6.78354,-8.3675 -10.8783501,-13.85099 -2.59492,-3.4749 -4.97746,-6.66333 -5.29457,-7.08541 -0.3171,-0.42209 -0.79526,-1.11104 -1.06257,-1.53103 -0.26726,-0.41998 -2.07154,-3.10296 -4.00949,-5.96214 -1.93792,-2.85921 -3.52348,-5.30197 -3.52348,-5.42842 0,-0.12647 -0.65612,-1.18349 -1.45801,-2.349 -0.80189,-1.16555 -1.45801,-2.25903 -1.45801,-2.43003 0,-0.17082 -0.65608,-1.26446 -1.45798,-2.42998 -0.80192,-1.16551 -1.45801,-2.24771 -1.45801,-2.40485 0,-0.15706 -0.84044,-1.66909 -1.86762,-3.3599 -1.73511,-2.85604 -10.7425,-20.77175 -12.37318,-24.61027 -0.39742,-0.93555 -1.16363,-2.68515 -1.70268,-3.88799 -3.34739,-7.46955 -7.41508,-18.69573 -11.97468,-33.04798 -1.51824,-4.77897 -3.60208,-13.04187 -3.65068,-14.47562 -0.0166,-0.46246 0.21712,-0.49708 0.89655,-0.13335 0.50476,0.27001 2.74642,0.81492 4.9815,1.21067 9.18954,1.62715 10.02177,1.86788 13.54079,3.91714 0.66824,0.38912 2.30849,1.21968 3.64499,1.84565 1.3365,0.626 3.0861,1.47983 3.888,1.89745 4.60622,2.39877 11.16522,4.60316 15.08624,5.07025 2.18189,0.25983 8.68896,-0.2543 22.3357601,-1.7654 8.1658699,-0.90414 23.3069899,-1.93385 28.4869699,-1.93729 4.48641,-0.004 5.32589,0.12784 6.43949,1.00384 0.70431,0.55401 1.28054,1.29119 1.28054,1.63822 0,0.54473 0.90885,2.83638 3.67311,9.26149 0.34502,0.80193 1.07169,3.09826 1.61487,5.10302 0.54318,2.00474 1.3222,4.56891 1.73117,5.69815 0.40896,1.12926 0.98823,3.6443 1.28729,5.589 0.29903,1.94473 0.84204,4.41065 1.20667,5.47986 0.69907,2.04981 2.81349,12.40376 3.37447,16.524 0.18185,1.3365 0.84755,5.0848 1.47909,8.32955 1.06422,5.46785 1.48782,8.02833 3.40602,20.58745 0.38783,2.53935 1.02691,6.25723 1.42019,8.262 0.39327,2.00474 1.03687,5.72265 1.43022,8.26199 0.8791,5.67513 2.93354,16.32182 3.84507,19.92599 0.37182,1.47016 0.94315,4.09456 1.26963,5.83201 0.3265,1.73745 0.98914,4.03381 1.47255,5.10299 0.48342,1.06921 1.20505,3.05064 1.60366,4.40313 0.39861,1.35253 1.37292,3.75824 2.16517,5.346 0.79224,1.58782 1.83758,3.98039 2.32298,5.31688 0.48543,1.33651 1.14298,2.75807 1.46126,3.15901 0.3183,0.40095 1.6117,2.58795 2.87428,4.86 2.24343,4.03726 5.67838,9.37367 7.41869,11.52548 6.55273,8.10225 11.42856,12.26534 18.366608,15.68168 3.00198,1.47821 3.85917,1.67722 7.29001,1.69254 3.36896,0.0138 4.40701,-0.20499 7.776,-1.64759 2.13839,-0.91566 4.21604,-1.91848 4.61699,-2.22845 0.40094,-0.30999 1.42398,-0.83826 2.27338,-1.17405 0.8494,-0.33573 1.9221,-1.02783 2.38381,-1.53805 0.46169,-0.51014 1.04736,-0.92756 1.30148,-0.92756 0.25403,0 1.1497,-0.56229 1.99019,-1.24952 0.84046,-0.68724 2.25316,-1.83542 3.13925,-2.5515 7.69116,-6.21546 13.69843,-12.55959 20.10084,-21.22799 5.27315,-7.13949 5.19777,-7.047 5.74337,-7.047 0.42553,0 1.45335,2.99275 1.45897,4.24823 0.002,0.33179 0.63633,2.08139 1.41074,3.88799 0.77439,1.8066 1.68344,4.01419 2.02011,4.90569 0.33664,0.89147 0.86515,1.87563 1.17449,2.187 0.3093,0.31135 1.15816,1.87829 1.88635,3.48208 0.72815,1.60382 1.53732,3.24406 1.79813,3.64501 1.01767,1.56459 3.3769,6.75585 3.3769,7.4306 0,0.39183 0.32804,0.98465 0.72899,1.3174 0.40095,0.33277 0.72901,0.7817 0.72901,0.99761 0,0.21601 0.63149,1.77472 1.40331,3.46399 0.7718,1.68928 1.55986,3.61817 1.75124,4.2864 0.19149,0.66827 0.85331,2.41787 1.47099,3.888 1.08374,2.57946 3.15046,10.73147 3.15046,12.42668 0,0.93134 -1.90147,2.88497 -4.22441,4.34033 -0.85328,0.53461 -3.30779,2.33887 -5.45442,4.00951 -4.06473,3.16335 -4.75074,3.37292 -8.30317,2.53656 z m 116.90255,-7.72944 c -0.37798,-0.61165 0.40708,-3.96707 2.16881,-9.26967 0.80115,-2.41144 1.45663,-4.60897 1.45663,-4.88347 0,-0.27441 0.62914,-1.85677 1.39809,-3.51627 0.76894,-1.65947 1.56405,-3.56398 1.76696,-4.23221 0.20278,-0.66827 1.4078,-3.40202 2.67757,-6.075 1.2698,-2.673 2.47305,-5.40676 2.67391,-6.07502 0.20086,-0.66824 0.7725,-1.73658 1.27035,-2.37407 0.49783,-0.63743 0.90513,-1.40758 0.90513,-1.71144 0,-0.30384 1.11424,-2.72744 2.47609,-5.38581 1.36185,-2.65838 2.82548,-5.71543 3.25246,-6.79354 0.42702,-1.0781 1.38737,-3.00342 2.13413,-4.27854 0.74679,-1.27513 1.50516,-2.91538 1.68529,-3.64501 0.1802,-0.72962 0.78462,-2.09205 1.34328,-3.02757 0.55866,-0.93556 1.36733,-2.46648 1.79705,-3.40202 0.42971,-0.93553 1.54767,-3.34124 2.48432,-5.34598 0.93666,-2.00477 1.97182,-4.41045 2.30038,-5.34601 0.32854,-0.93556 1.20725,-3.0132 1.95272,-4.61701 2.78793,-5.99801 5.94294,-14.02009 7.07219,-17.98202 1.1439,-4.01338 2.17955,-7.13189 2.69683,-8.12051 0.23889,-0.45677 0.78336,-2.53443 1.20965,-4.61698 1.12503,-5.49587 2.13812,-6.01094 3.09029,-1.57119 0.81203,3.78635 0.69006,4.79312 -0.64204,5.2996 -2.43709,0.92657 -2.73953,5.28385 -0.77712,11.19608 0.48799,1.47017 1.25023,4.64132 1.69391,7.04702 0.44366,2.4057 1.43093,6.9984 2.19395,10.206 1.30451,5.48402 1.78534,7.85488 2.90759,14.337 0.25458,1.47016 1.12026,5.84416 1.92387,9.72 2.12468,10.24743 2.35166,11.38557 3.3926,17.01297 0.51947,2.8083 1.17807,5.72031 1.46354,6.47113 0.8448,2.22199 0.6589,5.84162 -0.33146,6.45385 -11.66931,7.21374 -34.67679,17.45483 -51.07647,22.73523 -7.33496,2.36172 -8.10756,2.52332 -8.5605,1.79046 z m 110.06631,-70.38015 c 0.003,-4.20995 0.21382,-11.26304 0.46647,-15.67349 0.74211,-12.9484 0.76517,-22.45087 0.0573,-23.57249 -0.33793,-0.53541 -1.6344,-1.63184 -2.88099,-2.43652 -1.74634,-1.12724 -2.2549,-1.74039 -2.2158,-2.67152 0.0717,-1.70262 1.44928,-14.07615 2.87122,-25.78626 1.5446,-12.72036 1.6019,-21.83022 0.18956,-30.14561 -1.18449,-6.97418 -3.12147,-14.07616 -4.02959,-14.77462 -0.34755,-0.26725 -1.0797,-1.49935 -1.62707,-2.73791 -1.28928,-2.91737 -7.04083,-8.95447 -11.23843,-11.79641 -1.81375,-1.22798 -3.52455,-2.23265 -3.80179,-2.23265 -0.27721,0 -1.24533,-0.49716 -2.15135,-1.10481 -1.70739,-1.14504 -3.47399,-1.76776 -12.09632,-4.26382 -2.80666,-0.81251 -5.86846,-1.69899 -6.80401,-1.96994 -0.93556,-0.27084 -2.46644,-0.69427 -3.402,-0.94068 -2.46449,-0.64914 -9.93894,-4.55579 -11.51826,-6.02022 -0.74294,-0.68891 -1.48361,-1.25255 -1.64592,-1.25255 -0.16229,0 -0.74781,-0.38273 -1.3011,-0.8505 -0.55332,-0.46776 -2.16374,-1.7253 -3.57877,-2.79451 -1.41503,-1.06919 -3.52124,-2.81879 -4.68047,-3.888 -1.15923,-1.06918 -3.06329,-2.81878 -4.2312,-3.888 -6.90992,-6.32586 -16.78428,-16.69614 -16.78428,-17.62725 0,-0.27167 -0.30735,-0.61171 -0.68303,-0.75582 -0.37566,-0.1441 -1.36295,-1.25041 -2.19403,-2.4583 -1.37094,-1.99261 -1.48322,-2.43491 -1.21113,-4.77142 0.4836,-4.1533 -0.75258,-7.96354 -3.39776,-10.47269 -1.79062,-1.69853 -2.51137,-2.06552 -4.05686,-2.06552 -2.31769,0 -3.4182,-0.76952 -4.7096,-3.29313 -0.93668,-1.83041 -5.00118,-9.37218 -8.06849,-14.97134 -1.73023,-3.15837 -1.30628,-4.06905 1.20463,-2.58757 1.00136,0.59082 3.05827,1.36549 4.57095,1.72152 3.22141,0.75824 12.68063,0.85447 18.47732,0.18792 5.33036,-0.61286 6.87199,0.035 6.87199,2.88829 0,1.04657 -0.19728,2.02478 -0.43845,2.1738 -0.52686,0.32566 -2.1166,5.70475 -2.8813,9.74941 -0.44346,2.34549 -0.41643,3.36252 0.13804,5.19825 1.02455,3.39179 1.47093,4.01721 4.01694,5.6282 2.74213,1.7351 5.51554,2.27812 9.29443,1.81983 2.52841,-0.30663 2.95432,-0.54852 5.30082,-3.01058 2.28112,-2.39345 2.55149,-2.90243 2.55149,-4.80299 0,-1.68486 -0.31291,-2.48229 -1.50834,-3.84381 -2.28272,-2.59988 -3.64366,-2.37331 -7.54494,1.25605 l -3.19678,2.97396 -1.00179,-1.00177 c -1.85973,-1.85972 -0.83551,-5.59092 2.95175,-10.75301 0.87235,-1.18903 2.27884,-3.56901 3.1255,-5.28885 1.83499,-3.72743 1.95058,-6.6886 0.42048,-10.77429 -1.24361,-3.32074 -5.33855,-7.84383 -8.32984,-9.20074 -2.67874,-1.21514 -7.20602,-1.30204 -11.64601,-0.22346 -9.80825,2.38243 -11.51112,2.53874 -15.26208,1.40084 -2.71978,-0.82509 -5.63591,-2.8573 -5.63591,-3.92764 0,-0.63769 0.84239,-2.37591 2.76621,-5.70792 0.3186,-0.55174 1.10514,-1.56091 1.74795,-2.2426 0.64278,-0.68165 1.53028,-1.9393 1.97226,-2.79473 0.44194,-0.85543 1.14616,-1.74707 1.56488,-1.9814 0.41875,-0.23448 1.1468,-1.01367 1.6179,-1.7318 0.77461,-1.18083 6.90122,-7.69992 19.56643,-20.819913 2.49776,-2.587454 5.96293,-6.305369 7.70038,-8.261997 1.73745,-1.956659 3.83137,-4.217448 4.65319,-5.02397 0.82182,-0.806522 1.9115,-2.118722 2.42156,-2.915992 0.51003,-0.797264 1.31512,-1.736238 1.78909,-2.086595 0.47393,-0.350335 1.16972,-1.225135 1.5462,-1.943988 0.37645,-0.718852 1.48451,-2.181787 2.46233,-3.251004 0.97783,-1.06921 1.98162,-2.38141 2.23065,-2.915993 0.24908,-0.534605 1.20289,-1.956163 2.11963,-3.159005 0.91673,-1.202843 1.68132,-2.443594 1.69907,-2.757202 0.0165,-0.313631 0.54375,-1.188431 1.16887,-1.94401 0.62515,-0.755579 1.96525,-3.123386 2.97807,-5.261783 1.01278,-2.13842 2.25996,-4.76282 2.7715,-5.832007 0.51157,-1.06921 1.12569,-2.709453 1.36475,-3.645008 0.23915,-0.935555 0.86978,-3.308012 1.40166,-5.272164 2.68705,-9.923098 2.48696,-19.78743 -0.65336,-32.20994671 -1.81611,-7.18418599 -1.85028,-7.12685099 2.88858,-4.84374499 11.06149,5.32931 27.16464,5.937121 37.79328,1.426543 1.94476,-0.825315 3.64527,-1.663389 3.77892,-1.862348 0.13363,-0.198929 1.11782,-0.813163 2.187,-1.364878 2.75545,-1.421804 7.64967,-6.2775933 9.45005,-9.3758433 0.84077,-1.446825 1.72413,-2.958669 1.96305,-3.359619 0.23888,-0.40095 0.99452,-2.26454 1.67914,-4.141318 1.03268,-2.830885 1.24476,-4.260754 1.24476,-8.391827 0,-5.249682 -0.56756,-7.433896 -5.33069,-20.514849 -3.55651,-9.767194 -4.16038,-12.332384 -3.49171,-14.832724 0.21299,-0.79655 0.70645,-1.50977 1.09652,-1.58494 0.66972,-0.12894 13.48297,12.473495 15.10593,14.857523 0.41668,0.612081 1.76975,2.181879 3.00681,3.488427 1.23701,1.306548 2.24916,2.571912 2.24916,2.811924 0,0.239994 0.5704,0.966555 1.26756,1.614564 2.83995,2.639718 23.03242,30.97291 23.03242,32.318061 0,0.165038 0.41178,0.880639 0.91508,1.590152 0.50331,0.709507 1.37811,2.110127 1.94402,3.112524 0.5659,1.0023683 1.49945,2.6426113 2.07457,3.6449783 2.77469,4.83603399 4.56691,8.236076 7.87742,14.9445077 1.97863,4.009508 3.97361,8.164793 4.43328,9.234003 0.45968,1.069209 1.36044,3.025758 2.00173,4.347909 0.64121,1.322173 1.16589,2.582081 1.16589,2.799798 0,0.217672 0.4592,1.432332 1.02048,2.6991 0.56122,1.266761 1.21733,2.795277 1.45798,3.396702 0.24052,0.601418 0.63492,1.585575 0.87617,2.187 0.24137,0.601418 0.9187,2.405686 1.50537,4.0095 0.58672,1.603793 1.25432,3.353394 1.48358,3.887998 0.22925,0.534583 1.11066,3.158983 1.95862,5.831986 0.84802,2.673002 1.70773,5.297402 1.91042,5.832007 0.20279,0.534605 0.63757,1.956162 0.96636,3.159005 0.32879,1.202842 0.76575,2.733757 0.97105,3.401995 1.14277,3.719759 2.87171,10.311428 3.888,14.822997 0.30107,1.336505 0.73593,3.195462 0.96641,4.13101 0.23061,0.935555 0.67267,3.013198 0.98257,4.61699 0.30992,1.603822 0.66563,3.353422 0.79045,3.887998 0.12482,0.534605 0.45043,2.393562 0.72356,4.13101 0.27305,1.737454 0.70774,4.471217 0.9658,6.074997 2.43059,15.10451 3.59189,30.61436 3.58438,47.87101 -0.011,22.918 -2.0523,42.73081 -6.60014,64.03048 -1.82509,8.54748 -4.39625,18.70839 -6.05686,23.93552 -4.55963,14.35227 -8.62735,25.57844 -11.97471,33.04799 -0.53904,1.20284 -1.30525,2.95244 -1.7027,3.888 -1.63063,3.8385 -10.63806,21.75423 -12.37312,24.61025 -1.02722,1.69081 -1.86766,3.20278 -1.86766,3.3599 0,0.15706 -0.65609,1.23935 -1.45801,2.40486 -0.80189,1.16551 -1.45798,2.25903 -1.45798,2.42999 0,0.1711 -0.65611,1.26448 -1.45801,2.43001 -0.8019,1.16551 -1.45801,2.22257 -1.45801,2.34902 0,0.12647 -1.58556,2.5692 -3.52347,5.42841 -1.93795,2.85918 -3.74222,5.54216 -4.0095,5.96214 -0.26728,0.42 -0.74603,1.10895 -1.06387,1.53102 -0.3178,0.42209 -2.93408,3.93856 -5.81391,7.81441 -2.87985,3.87584 -5.35661,7.15636 -5.50385,7.28999 -0.14713,0.13364 -1.24588,1.44585 -2.44137,2.91601 -1.19552,1.47013 -2.286,2.78233 -2.42335,2.916 -0.13721,0.13363 -1.88403,2.10194 -3.88158,4.374 -5.34033,6.07417 -17.66374,18.468 -18.36308,18.468 -0.45606,0 -0.60233,-1.87474 -0.59715,-7.65452 z M 119.31927,325.12708 c -0.80063,-2.19648 -2.47345,-5.82062 -5.68529,-12.31709 -1.67061,-3.37914 -3.0375,-6.32274 -3.0375,-6.5413 0,-0.21851 -0.39943,-0.84896 -0.88761,-1.40079 -0.48821,-0.55183 -1.60211,-2.64358 -2.47536,-4.64831 -0.87325,-2.00477 -1.87052,-3.97306 -2.21615,-4.374 -0.57239,-0.66394 -1.5935,-2.45174 -4.99656,-8.748 -0.65013,-1.20284 -1.76239,-3.21775 -2.471678,-4.47752 -0.70929,-1.25979 -2.13484,-3.88419 -3.16787,-5.83201 -1.03307,-1.94781 -2.15427,-3.86954 -2.49164,-4.27049 -0.33735,-0.40094 -1.07692,-1.71314 -1.64349,-2.91598 -0.56656,-1.20284 -1.66247,-3.19494 -2.43533,-4.42685 -0.77289,-1.23188 -1.56497,-2.7628 -1.76023,-3.402 -0.19536,-0.63919 -0.63854,-1.49022 -0.98504,-1.89116 -0.34651,-0.40095 -1.22137,-2.25991 -1.94416,-4.13102 -0.72276,-1.87108 -1.58756,-3.94875 -1.92177,-4.61698 -0.33422,-0.66827 -1.10338,-2.63655 -1.70926,-4.374 -0.60589,-1.73745 -1.84248,-5.23665 -2.748,-7.77599 -0.90553,-2.53935 -2.08767,-6.14791 -2.62702,-8.01902 -0.53932,-1.8711 -1.29972,-4.09114 -1.68973,-4.93346 -0.39001,-0.84228 -0.7091,-1.85432 -0.7091,-2.24896 0,-0.39467 -0.31399,-0.97815 -0.69774,-1.29666 -0.38379,-0.31848 -0.83904,-1.22227 -1.01172,-2.00838 -0.37424,-1.70397 -1.57529,-4.27605 -2.50013,-5.35402 -0.57101,-0.6656 -0.51785,-0.96294 0.37491,-2.0979 0.5721,-0.7273 1.04017,-1.84165 1.04017,-2.4763 0,-1.47857 -1.89218,-3.83 -3.76649,-4.68063 -1.66812,-0.75704 -1.77919,-1.41359 -0.36179,-2.13865 0.54292,-0.27776 1.28382,-0.74307 1.64646,-1.03402 0.36263,-0.291 1.20607,-0.69326 1.87433,-0.89396 0.66825,-0.20058 2.72933,-1.37563 4.58018,-2.61097 l 3.36519,-2.24608 6.11184,-0.0275 c 6.10555,-0.0275 7.39045,-0.30831 9.39229,-2.05449 1.27978,-1.1163 1.11859,-4.83992 -0.33416,-7.7198 -1.05839,-2.09813 -2.61952,-3.73215 -7.91863,-8.2883 -1.39271,-1.19745 -6.45394,-3.99022 -9.12171,-5.03334 -4.26068,-1.66595 -11.32517,-2.3821 -18.13304,-1.83816 -4.38486,0.35034 -9.89108,1.92018 -11.42111,3.25619 -0.76536,0.66829 -0.93872,0.67599 -1.32907,0.0589 -0.57695,-0.91214 -0.57171,-1.10169 0.0758,-2.74354 0.29673,-0.75246 0.85258,-2.68032 1.23519,-4.28411 0.38259,-1.60382 1.29074,-3.68146 2.01804,-4.61702 0.72735,-0.93555 1.64598,-2.33224 2.04142,-3.1038 0.66711,-1.30156 5.00958,-4.67219 6.01933,-4.67219 0.24495,0 1.66509,-1.14819 3.15571,-2.55153 2.46118,-2.31708 5.9585,-7.05472 8.5432,-11.57307 2.05507,-3.59252 2.98179,-4.99966 4.57788,-6.95114 l 1.64333,-2.00929 h 3.78809 c 4.46104,0 5.66626,-0.667 7.9655,-4.40833 2.11011,-3.43356 2.32196,-7.7456 0.54751,-11.14365 -0.69791,-1.33651 -1.9584,-3.24919 -2.80113,-4.25038 -1.42762,-1.69614 -1.48583,-1.90697 -0.85297,-3.08945 0.41191,-0.76967 0.66587,-2.63526 0.64534,-4.74066 -0.04,-4.09378 -1.12371,-6.61827 -3.88045,-9.03873 -1.66683,-1.463488 -2.01317,-1.570178 -4.4436,-1.368631 -2.16714,0.179648 -2.82988,0.461924 -3.72686,1.586851 -0.95218,1.19411 -1.33356,1.3354 -2.99656,1.11024 -1.79358,-0.24302 -4.39556,-1.22858 -6.03654,-2.286824 -0.40097,-0.258446 -1.88703,-1.024333 -3.30241,-1.70172 -2.4674,-1.180877 -3.50444,-1.927891 -8.91955,-6.425136 -4.99088,-4.144897 -9.95089,-5.943099 -12.55256,-4.550724 -0.49314,0.263957 -1.3817,1.264728 -1.97457,2.224005 -1.04362,1.688625 -1.14947,1.734778 -3.32394,1.449412 -2.78481,-0.365434 -5.02664,0.852405 -6.23547,3.387313 -0.87868,1.842613 -0.71541,3.732516 1.06696,12.350024 l 0.74657,3.60958 -1.40081,2.99346 c -0.77043,1.64639 -2.1398,4.0947 -3.04301,5.44071 -3.44958,5.14065 -6.1735,10.18576 -6.99748,12.96043 -0.39586,1.333 -0.71974,4.32488 -0.71974,6.64859 v 4.22494 l -2.12262,2.12635 c -2.97707,2.98225 -5.7395399,4.89857 -11.55180989,8.01349 -8.20136001,4.39525 -9.51526011,5.20583 -11.33364011,6.99185 -1.97663,1.94145 -5.12393,6.58087 -5.12393,7.55315 0,1.98448 -1.17759,0.59076 -3.61081,-4.27354 -3.29933,-6.59581 -4.69006,-8.59432 -8.76841,-12.60046 -4.97134,-4.88332 -6.21836,-5.92825 -8.09735,-6.78533 -0.97109,-0.44294 -1.84815,-1.05304 -1.94908,-1.35576 -0.17385,-0.52168 -5.67942,-3.16997 -9.89334,-4.75892 -4.27049,-1.61026 -7.93492,-2.20562 -14.06116,-2.28456 l -6.28517,-0.081 0.12812,-5.55623 c 0.0706,-3.0559 0.21739,-5.70045 0.32631,-5.87676 0.10883,-0.17633 0.42765,-2.58698 0.70818,-5.35708 0.79157,-7.81578 1.39555,-12.18849 2.87736,-20.831534 1.11247,-6.488646 1.99392,-10.747807 3.92258,-18.954014 0.61159,-2.602246 2.65278,-10.157792 3.87326,-14.336988 0.2342,-0.8019 0.56817,-2.004743 0.74216,-2.67301 0.17413,-0.668231 0.48892,-1.652388 0.69979,-2.187 0.21077,-0.534605 1.07726,-3.159005 1.92524,-5.832007 0.84799,-2.673002 1.72938,-5.297402 1.95865,-5.831978 0.22923,-0.534605 0.89684,-2.284205 1.48358,-3.887998 0.58671,-1.603822 1.26412,-3.408082 1.50537,-4.009507 0.24136,-0.601418 0.63553,-1.585575 0.87618,-2.187 0.24081,-0.601418 0.89676,-2.129934 1.45801,-3.396703 0.56125,-1.266768 1.02044,-2.503634 1.02044,-2.748578 0,-0.244944 0.43156,-1.286167 0.95903,-2.313802 0.52747,-1.027635 1.53127,-3.180635 2.23069,-4.784427 2.65322,-6.084059 8.44398,-17.4776727 12.28859,-24.1785027 0.57513,-1.002375 1.50868,-2.642618 2.07458,-3.6449863 0.56588,-1.002396 1.44068,-2.40301 1.94399,-3.112524 0.5033,-0.709513 0.91511,-1.425085 0.91511,-1.590152 0,-0.608256 10.96626,-16.733998 15.01566,-22.080371 2.2997201,-3.036285 4.6187201,-6.13646 5.1533401,-6.889283 1.26182,-1.776906 3.2484,-4.140378 6.561,-7.805727 1.47016,-1.626678 2.84779,-3.324429 3.06144,-3.772773 0.55289,-1.160217 23.7619299,-24.008781 28.0827799,-27.646621 1.98262,-1.6692 4.69827,-3.91495 6.03478,-4.99049 1.3365,-1.07557 3.30479,-2.6662 4.374,-3.53472 1.06917,-0.86851 2.92813,-2.29296 4.13097,-3.16548 1.20288,-0.87248 3.67322,-2.6729 5.48973,-4.00085 1.8165,-1.327994 3.47755,-2.414534 3.69118,-2.414534 0.21354,0 0.7843,-0.4374 1.26813,-0.97199 0.48379,-0.53461 1.13987,-0.97201 1.45798,-0.97201 0.31809,0 0.9742,-0.4374 1.45801,-0.972 0.48379,-0.5346 1.07433,-0.972 1.31228,-0.972 0.23778,0 2.05311,-1.09349 4.03372,-2.43 1.98061,-1.33649 3.74123,-2.43 3.91252,-2.43 0.17137,0 0.89194,-0.41178 1.60144,-0.91509 1.29766,-0.92051 2.7218,-1.75475 8.09405,-4.74133 4.84087,-2.69119 17.851828,-9.02852 23.570988,-11.48088 0.93556,-0.40116 2.5758,-1.10569 3.64499,-1.5656 1.06921,-0.45991 2.43607,-1.03258 3.03752,-1.27266 0.60142,-0.23998 1.58555,-0.63305 2.187,-0.87339 0.60142,-0.24027 1.85893,-0.69979 2.79449,-1.02105 0.93555,-0.32124 2.13839,-0.7703 2.673,-0.99792 1.25712,-0.5352 11.98233,-4.02211 14.823,-4.81916 1.20284,-0.33752 2.73375,-0.78162 3.40199,-0.98692 0.66826,-0.20525 2.19915,-0.64269 3.40202,-0.972 1.20284,-0.32931 2.73373,-0.76864 3.40199,-0.97633 0.66824,-0.20774 2.5272,-0.64313 4.13099,-0.96766 1.60382,-0.32454 3.46274,-0.76717 4.13101,-0.98366 0.66824,-0.21656 2.0898,-0.5419 3.15901,-0.72318 1.06918,-0.18128 3.0375,-0.53606 4.374,-0.78844 17.41074,-3.28756 31.07305,-4.53834 49.57198,-4.53834 18.49894,0 32.16125,1.25078 49.57201,4.53833 1.3365,0.25239 3.30481,0.60715 4.374,0.78844 1.06921,0.1813 2.49076,0.5067 3.159,0.72318 0.66824,0.21658 2.5272,0.65912 4.13102,0.98366 1.60378,0.32452 3.46274,0.75996 4.13098,0.96765 0.66826,0.20775 2.19915,0.64703 3.40199,0.97635 1.20287,0.3293 2.73376,0.7667 3.40203,0.972 0.66823,0.20526 2.19914,0.64938 3.40199,0.98691 2.85961,0.80237 13.57416,4.287 14.823,4.82085 0.5346,0.22841 2.2842,0.89552 3.88799,1.48223 4.72279,1.72774 8.19138,3.18169 15.309,6.41715 7.60241,3.45586 11.63705,5.52415 11.65699,5.97586 0.011,0.26726 -1.56736,2.02003 -3.50928,3.89496 -4.94542,4.77489 -9.95494,11.32602 -12.1007,15.824464 -2.03904,4.27478 -3.78167,8.8009 -4.75751,12.35658 -0.58685,2.1384 -1.36992,4.87215 -1.74017,6.075 -1.09762,3.56599 -1.76104,9.04203 -1.97212,16.27852 -0.10911,3.740849 -0.38249,6.862904 -0.60749,6.937892 -0.22482,0.07488 -1.00129,-0.412515 -1.72515,-1.083375 -2.10748,-1.953126 -12.88756,-7.088407 -17.32058,-8.250937 -0.66823,-0.17524 -2.41783,-0.65218 -3.88799,-1.05981 -6.76101,-1.87475 -10.80471,-2.27457 -23.55841,-2.32929 l -12.62343,-0.0543 -0.36199,-2.12054 c -0.21657,-1.26814 -0.15871,-2.5002 0.14355,-3.065 0.37232,-0.69564 0.32306,-1.22398 -0.18708,-2.0054 -0.38087,-0.58348 -0.82036,-1.717 -0.97667,-2.51889 -0.9417,-4.83146 -1.31035,-5.80769 -2.72888,-7.22589 -1.33033,-1.33008 -1.81966,-1.50956 -3.87832,-1.42246 -1.29572,0.0548 -3.2814,0.46997 -4.41261,0.92258 -1.55678,0.62291 -2.14418,0.6814 -2.41654,0.24054 -0.19783,-0.32023 -0.60376,-2.81306 -0.90188,-5.53957 -0.29812,-2.72654 -0.85512,-6.26955 -1.23781,-7.873344 -0.38265,-1.60379 -0.9569,-4.22819 -1.2761,-5.83201 -1.29537,-6.50826 -2.00413,-8.99739 -3.40566,-11.95991 -0.80815,-1.70834 -1.46959,-3.47795 -1.46978,-3.93244 -2.2e-4,-0.45447 -0.27902,-1.00123 -0.61955,-1.21499 -0.34055,-0.21381 -1.00168,-0.99008 -1.46923,-1.72516 -0.46751,-0.73508 -1.19397,-1.3365 -1.61434,-1.3365 -1.25312,0 -3.26354,1.42283 -4.55926,3.22673 -0.66826,0.93035 -1.89017,2.53127 -2.71536,3.55764 -0.82517,1.02634 -1.7812,2.54414 -2.12445,3.37287 -0.34328,0.82873 -0.81083,1.50677 -1.03901,1.50677 -0.22814,0 -0.86522,1.03883 -1.41561,2.30848 -0.55042,1.2697 -1.21678,2.63656 -1.48085,3.03751 -0.26395,0.40096 -1.36298,2.58796 -2.44205,4.86 -1.07909,2.27205 -2.20662,4.56841 -2.50562,5.10301 -1.04643,1.870894 -1.75831,3.419704 -2.56885,5.589004 -0.44945,1.20284 -1.33138,3.38984 -1.95986,4.86 -0.62848,1.47014 -1.27707,3.16508 -1.44129,3.7665 -0.32847,1.20306 -1.42247,1.45167 -2.03142,0.46162 -0.83024,-1.34985 -3.28968,-2.65474 -4.29351,-2.27798 -1.49178,0.55987 -2.03893,1.43577 -3.35983,5.37851 -1.72497,5.14875 -2.5183,9.44836 -3.17615,17.21435 -0.68368,8.070705 -0.83818,8.991 -1.50933,8.991 -0.28089,0 -1.4249,0.62613 -2.54225,1.391409 -1.11737,0.765279 -2.51245,1.541934 -3.10021,1.725876 -0.58775,0.18405 -1.19376,0.705987 -1.34669,1.160082 -0.15292,0.454095 -1.01793,1.372383 -1.92221,2.040633 -0.90429,0.668241 -2.02219,1.915641 -2.48422,2.772 -0.46203,0.856341 -1.22962,1.975158 -1.70576,2.486232 -0.98187,1.053891 -2.89348,5.043585 -2.89348,6.038897 0,0.362159 -0.22979,0.888383 -0.51091,1.169389 -0.63751,0.637494 -1.90558,5.314385 -1.91333,7.056598 -0.004,0.875156 -0.6873,1.983658 -2.09742,3.402016 -2.48901,2.503508 -7.14233,8.439387 -7.14233,9.110905 0,0.260647 -0.74617,1.746982 -1.6581,3.302997 -0.91196,1.556013 -2.12919,4.356139 -2.705,6.2225403 -0.5758,1.866371 -1.37603,4.37758 -1.77836,5.58042299 -1.65603,4.95131601 -2.22422,9.48856071 -2.25189,17.98200171 -0.0275,8.131893 0.91201,16.27252 2.04448,17.7345 0.20912,0.269744 0.76537,2.240092 1.23648,4.378491 1.18931,5.398689 2.6904,10.577279 3.27345,11.293325 0.2692,0.330718 0.35326,0.956768 0.18655,1.391245 -0.24964,0.650326 -0.43457,0.680828 -1.04696,0.172481 -0.48608,-0.403399 -0.90902,-0.452169 -1.22041,-0.140791 -0.67517,0.675148 0.68355,3.719263 2.07198,4.642279 0.97596,0.648759 1.11777,1.142008 1.11096,3.863918 -0.005,2.770893 -0.20554,3.417115 -1.77404,5.771829 -2.95561,4.437124 -4.8799,6.068028 -8.55263,7.248607 -1.13982,0.366396 -2.29475,0.934039 -2.56645,1.261448 -0.27167,0.327386 -1.75431,1.06657 -3.29468,1.642618 -4.03664,1.509614 -7.55906,5.007764 -8.34613,8.288694 -0.32967,1.374245 -0.59787,3.523199 -0.59597,4.775446 0.005,2.964894 1.34906,7.518177 2.53777,8.593947 0.85212,0.77117 0.87342,0.97055 0.23558,2.20395 -0.91811,1.77544 -3.00132,3.3859 -4.37982,3.3859 -0.60392,0 -1.77729,0.63451 -2.60746,1.40999 -1.40028,1.30809 -1.50939,1.64721 -1.50939,4.69162 0,3.53362 1.48622,7.56492 3.57305,9.69161 1.5004,1.52909 3.99173,3.16079 4.82597,3.16079 1.50661,0 1.78528,1.15851 0.80523,3.34755 -0.54774,1.22345 -0.94225,3.17929 -0.94225,4.67146 0,2.11454 0.28523,2.98077 1.61873,4.91577 1.81197,2.62936 2.63426,2.98537 7.05579,3.05477 2.7823,0.0438 3.22146,0.19398 4.4692,1.5297 0.92015,0.98504 1.49707,2.24682 1.72212,3.7665 0.50639,3.41951 1.33011,5.41879 3.52152,8.54714 1.9244,2.74714 2.64382,3.31316 7.48317,5.88724 2.87595,1.52977 8.66044,2.37681 13.22893,1.93724 4.46839,-0.42997 9.52322,-1.48243 11.80826,-2.45856 1.0028,-0.42837 3.12673,-1.20249 4.71983,-1.72023 3.15843,-1.02645 11.58321,-5.11991 13.83003,-6.71979 0.77302,-0.55045 1.53523,-1.0008 1.69383,-1.0008 0.35157,0 5.20174,-3.42106 5.8796,-4.14712 0.26725,-0.28637 1.44164,-1.15849 2.60962,-1.93812 l 2.12364,-1.41751 1.18429,1.44288 c 0.65134,0.79358 1.77338,2.51207 2.49336,3.81889 0.71999,1.30681 1.5288,2.72834 1.79732,3.15898 2.14413,3.4386 6.04966,10.39741 6.78269,12.0853 0.49402,1.13758 1.15937,2.28504 1.47857,2.54995 0.3192,0.26478 1.19474,1.9586 1.94564,3.76371 0.75087,1.80513 1.76811,3.73355 2.26056,4.28537 1.10051,1.23332 1.15956,3.48815 0.12123,4.63536 -0.42566,0.47036 -1.13644,1.57531 -1.57949,2.45543 -0.9118,1.81123 -3.83289,3.95999 -6.44885,4.74376 -2.48001,0.74301 -4.98212,0.65938 -13.31069,-0.44487 -11.04402,-1.4643 -16.92427,-1.21822 -22.86129,0.95665 -3.20887,1.17549 -8.12831,4.47047 -10.84231,7.26209 -2.62297,2.69799 -5.90542,6.98049 -5.90542,7.70462 0,0.28934 -0.51275,1.14427 -1.13947,1.89985 -0.62671,0.75558 -1.53914,2.4673 -2.02769,3.8038 -0.48851,1.3365 -1.04945,2.6487 -1.24656,2.91599 -0.59074,0.80116 -2.32094,6.51275 -3.38613,11.17802 -2.37286,10.39262 -3.20554,15.06771 -4.58761,25.75799 -1.24203,9.60687 -1.68702,12.60666 -2.16282,14.58001 -0.25788,1.06919 -0.60439,2.99843 -0.77021,4.28721 -0.19397,1.50675 -0.65774,2.6344 -1.29952,3.15898 -7.91354,6.4685 -14.13222,12.47735 -16.37521,15.82267 -0.69728,1.03997 -1.62511,2.42538 -2.06186,3.07872 -1.37122,2.05121 -3.32027,11.63558 -3.33919,16.42042 -0.005,1.3365 0.35168,4.99677 0.7933,8.13393 l 0.80288,5.70395 -2.04031,2.31506 c -2.42968,2.75687 -2.08973,2.40515 -5.2705,5.45302 -2.91448,2.79269 -4.27785,3.09657 -5.00031,1.11454 z M -66.043128,189.2813 c -1.3435,-4.36306 -3.89056,-41.54404 -3.00418,-43.85393 0.25926,-0.67562 0.50253,-0.57334 1.52415,0.6408 0.66861,0.7946 1.21564,1.65975 1.21564,1.92255 0,0.26285 0.31607,0.74014 0.70236,1.06075 0.38633,0.32061 1.05313,1.71424 1.48185,3.097 2.12612,6.85748 3.79502,11.79665 4.13379,12.23409 0.20693,0.26727 0.98144,2.01692 1.72093,3.888 2.21989,5.61692 7.51652,12.64119 12.49459,16.57001 4.43831,3.50284 4.1521,3.61344 -4.98151,1.92489 -4.6776,-0.86477 -7.96646,-0.47303 -11.42101,1.36031 -3.08799,1.63883 -3.6647,1.81118 -3.86661,1.15553 z M 209.74049,-61.758796 c 0,-1.03202 0.94203,-2.05097 4.35312,-4.70867 1.3723,-1.06917 3.22365,-2.54437 4.11406,-3.27822 2.02377,-1.66782 4.21702,-2.82434 4.74148,-2.50019 0.2196,0.13584 0.39935,1.84026 0.39935,3.78779 0,3.80862 -0.72147,5.14963 -2.77046,5.14963 -0.54609,0 -3.14825,0.54676 -5.78258,1.21499 -2.63431,0.66827 -4.84936,1.21503 -4.92232,1.21503 -0.073,0 -0.13253,-0.39618 -0.13253,-0.88036 z m -22.35329,-1.91415 c 0.005,-2.09825 0.91734,-4.85758 1.70777,-5.16088 0.56849,-0.21821 0.71951,0.17496 0.71951,1.87276 0,2.46774 -0.82969,4.62462 -1.779,4.62462 -0.38684,0 -0.64988,-0.54231 -0.64828,-1.3365 z m 7.29167,0.85324 c -0.54916,-0.33943 -0.56211,-0.76283 -0.0734,-2.39453 0.79512,-2.65392 2.56105,-2.62496 3.23318,0.0529 0.27498,1.0959 0.10745,1.40917 -1.0837,2.02515 -0.85516,0.44222 -1.67135,0.56656 -2.07624,0.31636 z m 8.90452,-3.52624 c -0.24411,-0.33413 -0.72948,-1.2636 -1.07827,-2.06549 -0.34882,-0.8019 -0.93389,-2.00474 -1.30025,-2.67301 -0.36634,-0.66823 -1.14396,-2.12313 -1.72802,-3.23306 l -1.06194,-2.01805 1.04579,-2.00642 c 0.57519,-1.10351 1.04579,-2.24936 1.04579,-2.54632 0,-1.01453 4.40589,-11.68145 5.11981,-12.39537 0.39171,-0.39171 0.71218,-1.03866 0.71218,-1.43762 0,-0.71513 1.96012,-5.075574 2.91971,-6.495154 0.27112,-0.40095 0.8246,-1.49447 1.23015,-2.43003 0.40555,-0.93552 1.59061,-3.01319 2.63352,-4.61698 1.0429,-1.60379 1.91158,-3.30411 1.9304,-3.77852 0.0275,-0.66906 1.71163,-1.81047 2.67283,-1.81047 0.43644,0 1.80603,4.80459 2.70147,9.47699 0.56351,2.94029 1.22037,6.22081 1.45969,7.289984 0.23943,1.06922 0.55806,3.58427 0.70824,5.58903 0.72951,9.73682 0.72825,10.16232 -0.0328,10.92346 -0.40729,0.40728 -0.91282,0.74053 -1.12342,0.74053 -0.21051,0 -1.34315,0.76333 -2.51678,1.69629 -1.17365,0.93296 -2.31755,1.6984 -2.54205,1.701 -0.46747,0.005 -7.96887,6.58954 -9.06886,7.9599 -2.26338,2.81978 -2.93982,3.20624 -3.72708,2.12931 z m 27.77955,0.0418 c -0.14438,-0.37629 -0.20251,-2.95409 -0.12895,-5.7285 l 0.13364,-5.04435 1.52639,-0.8522 c 1.84408,-1.0296 3.12666,-1.27986 3.94112,-0.76901 0.93192,0.58454 0.72174,2.17234 -0.3645,2.75369 -1.29988,0.69568 -1.23172,1.12839 0.486,3.08475 1.11035,1.26461 1.45799,2.13329 1.45799,3.64316 0,1.88482 -0.0912,2.00719 -1.84899,2.48048 -3.92654,1.05732 -4.93062,1.1407 -5.20256,0.43198 z m -42.33258,-5.9638 c -0.31965,-0.833 0.0247,-4.53802 0.46362,-4.97608 0.13612,-0.1361 0.70114,-0.10304 1.25589,0.073 0.74497,0.2364 1.00667,0.72444 1.00119,1.86686 -0.008,1.66028 -0.24798,2.14738 -1.56633,3.18098 -0.72532,0.56864 -0.88851,0.54821 -1.15437,-0.14464 z"
             id="path6194"
             inkscape:connector-curvature="0" />
        </g>
      </g>
    </g>
  </g>
</svg>
