<?xml version="1.0" encoding="UTF-8" standalone="no"?>
<!-- Created with Inkscape (http://www.inkscape.org/) -->

<svg
   xmlns:dc="http://purl.org/dc/elements/1.1/"
   xmlns:cc="http://creativecommons.org/ns#"
   xmlns:rdf="http://www.w3.org/1999/02/22-rdf-syntax-ns#"
   xmlns:svg="http://www.w3.org/2000/svg"
   xmlns="http://www.w3.org/2000/svg"
   xmlns:sodipodi="http://sodipodi.sourceforge.net/DTD/sodipodi-0.dtd"
   xmlns:inkscape="http://www.inkscape.org/namespaces/inkscape"
   width="210mm"
   height="297mm"
   viewBox="0 0 210 297"
   version="1.1"
   id="svg8"
   inkscape:version="0.92.2 5c3e80d, 2017-08-06"
   sodipodi:docname="rip.svg">
  <defs
     id="defs2">
    <clipPath
       id="clipPath45"
       clipPathUnits="userSpaceOnUse">
      <path
         inkscape:connector-curvature="0"
         id="path43"
         d="M 0,864 H 864 V 0 H 0 Z" />
    </clipPath>
    <clipPath
       id="clipPath3854"
       clipPathUnits="userSpaceOnUse">
      <path
         inkscape:connector-curvature="0"
         id="path3852"
         d="M 0,864 H 864 V 0 H 0 Z" />
    </clipPath>
    <clipPath
       id="clipPath4053"
       clipPathUnits="userSpaceOnUse">
      <path
         inkscape:connector-curvature="0"
         id="path4051"
         d="M 0,864 H 864 V 0 H 0 Z" />
    </clipPath>
    <clipPath
       id="clipPath4150"
       clipPathUnits="userSpaceOnUse">
      <path
         inkscape:connector-curvature="0"
         id="path4148"
         d="M 0,864 H 864 V 0 H 0 Z" />
    </clipPath>
    <clipPath
       id="clipPath4295"
       clipPathUnits="userSpaceOnUse">
      <path
         inkscape:connector-curvature="0"
         id="path4293"
         d="M 0,864 H 864 V 0 H 0 Z" />
    </clipPath>
    <clipPath
       id="clipPath4410"
       clipPathUnits="userSpaceOnUse">
      <path
         inkscape:connector-curvature="0"
         id="path4408"
         d="M 0,864 H 864 V 0 H 0 Z" />
    </clipPath>
    <clipPath
       id="clipPath4615"
       clipPathUnits="userSpaceOnUse">
      <path
         inkscape:connector-curvature="0"
         id="path4613"
         d="M 0,864 H 864 V 0 H 0 Z" />
    </clipPath>
    <clipPath
       id="clipPath4838"
       clipPathUnits="userSpaceOnUse">
      <path
         inkscape:connector-curvature="0"
         id="path4836"
         d="M 0,864 H 864 V 0 H 0 Z" />
    </clipPath>
    <clipPath
       id="clipPath5001"
       clipPathUnits="userSpaceOnUse">
      <path
         inkscape:connector-curvature="0"
         id="path4999"
         d="M 0,864 H 864 V 0 H 0 Z" />
    </clipPath>
    <inkscape:perspective
       id="perspective9"
       inkscape:persp3d-origin="372.04724 : 350.78739 : 1"
       inkscape:vp_z="744.09448 : 526.18109 : 1"
       inkscape:vp_y="0 : 1000 : 0"
       inkscape:vp_x="0 : 526.18109 : 1"
       sodipodi:type="inkscape:persp3d" />
  </defs>
  <sodipodi:namedview
     id="base"
     pagecolor="#000000"
     bordercolor="#666666"
     borderopacity="1.0"
     inkscape:pageopacity="0"
     inkscape:pageshadow="2"
     inkscape:zoom="0.91846942"
     inkscape:cx="396.85039"
     inkscape:cy="556.87007"
     inkscape:document-units="mm"
     inkscape:current-layer="g5136"
     showgrid="false"
     inkscape:window-width="2560"
     inkscape:window-height="1385"
     inkscape:window-x="2560"
     inkscape:window-y="27"
     inkscape:window-maximized="1"
     showguides="true"
     inkscape:guide-bbox="true">
    <sodipodi:guide
       position="105.43356,205.96993"
       orientation="1,0"
       id="guide3815"
       inkscape:locked="false" />
    <sodipodi:guide
       position="92.758485,149.50825"
       orientation="0,1"
       id="guide3817"
       inkscape:locked="false" />
  </sodipodi:namedview>
  <metadata
     id="metadata5">
    <rdf:RDF>
      <cc:Work
         rdf:about="">
        <dc:format>image/svg+xml</dc:format>
        <dc:type
           rdf:resource="http://purl.org/dc/dcmitype/StillImage" />
        <dc:title></dc:title>
      </cc:Work>
    </rdf:RDF>
  </metadata>
  <g
     inkscape:label="Layer 1"
     inkscape:groupmode="layer"
     id="layer1">
    <g
       transform="matrix(0.35277777,0,0,-0.35277777,-70.777455,287.43463)"
       inkscape:label="1"
       id="g37">
      <g
         id="g39">
        <g
           id="g5136"
           transform="matrix(0.75000002,0,0,-0.75000002,342.50983,505.50165)"
           style="fill:#ffeeaa">
          <path
             style="fill:#ffeeaa;stroke-width:1.72916186"
             d="m 33.438134,343.49071 c -0.497035,-1.90214 -1.591739,-3.4584 -2.431848,-3.4584 -0.840127,0 -1.52744,-1.02038 -1.52744,-2.26763 0,-1.24715 -1.556245,-3.93811 -3.458351,-5.97969 -1.902092,-2.04173 -3.458337,-4.3767 -3.458337,-5.18891 0,-1.34979 -4.805872,-11.38062 -8.474793,-17.68868 -2.446083,-4.20539 -8.4670525,-19.33819 -10.6638416,-26.80198 -1.1197153,-3.80411 -2.71840357,-8.26779 -3.55272607,-9.91911 -0.8342455,-1.65152 -1.51686153,-5.69069 -1.51686153,-8.97614 0,-3.28537 -0.680317,-6.39408 -1.5123999,-6.90816 -0.8323161,-0.51366 -2.1209265,-5.42336 -2.8647982,-10.90929 -2.0018768,-14.76595 -1.572109,-84.44513 0.5950472,-96.4327 3.3098395,-18.31059 4.1505541,-21.63806 5.71091073,-22.60242 0.84112597,-0.51956 1.52978537,-3.18785 1.52978537,-5.9288 0,-2.74085 0.7783545,-5.46424 1.7291923,-6.05207 0.9508961,-0.58819 1.7291362,-2.96806 1.7291362,-5.28944 0,-2.32158 0.6078226,-4.22095 1.3516888,-4.22095 0.7430654,0 2.4428338,-3.69606 3.7765537,-8.213432 2.624668,-8.890166 8.774447,-21.69343 10.866554,-22.623145 0.713656,-0.317641 1.296854,-1.711328 1.296854,-3.098266 0,-1.38715 1.556246,-4.192628 3.458335,-6.234211 1.902088,-2.0416 3.458336,-4.73257 3.458336,-5.979827 0,-1.247236 0.778388,-2.267546 1.729078,-2.267546 0.950908,0 1.729187,-1.00205 1.729187,-2.226877 0,-1.224671 2.302722,-4.920892 5.117202,-8.213444 2.814495,-3.292679 5.148898,-6.574648 5.187516,-7.29333 0.0781,-1.435373 17.581521,-20.633403 23.958053,-26.276295 2.201407,-1.948056 7.110628,-6.4431928 10.909531,-9.9890758 3.798807,-3.5457994 9.195334,-7.7986792 11.992237,-9.450893 2.796926,-1.6522151 5.085289,-3.5198142 5.085289,-4.1504562 0,-0.63033 2.33442,-2.113432 5.187506,-3.295298 2.85312,-1.181865 5.1875,-2.832343 5.1875,-3.668045 0,-0.835239 1.49132,-1.51939 3.31423,-1.51939 1.82281,0 3.57357,-0.58328 3.89059,-1.296947 0.83029,-1.86778 15.15151,-9.078073 18.03139,-9.078073 1.33672,0 2.43037,-0.778381 2.43037,-1.729196 0,-0.950893 1.89937,-1.729169 4.22083,-1.729169 2.32149,0 4.64432,-0.685215 5.16193,-1.522607 0.51763,-0.83718 2.70339,-1.95052 4.85722,-2.473418 2.15398,-0.522509 7.02871,-1.825841 10.83287,-2.895368 24.34663,-6.845018 82.69286,-7.932108 96.8331,-1.804157 1.90198,0.824448 6.04931,1.943749 9.21611,2.487738 3.16675,0.544061 8.2246,2.072088 11.23958,3.395701 3.01489,1.323716 8.20511,3.411887 11.53374,4.640594 3.32863,1.228526 7.99737,3.548448 10.37494,5.155271 2.37766,1.607134 7.27529,3.974391 10.8838,5.260654 3.60844,1.286548 7.93066,3.53195 9.6047,4.98997 1.67416,1.458124 4.27035,3.429135 5.76925,4.380234 16.51806,10.4807193 55.01283,46.96243 55.01283,52.135934 0,1.283052 0.77839,2.332558 1.72921,2.332558 0.95091,0 1.73102,0.972482 1.73317,2.161508 10e-4,1.188795 2.33482,4.884876 5.18353,8.213548 2.8486,3.328641 5.18113,7.024714 5.1834,8.21353 10e-4,1.188717 0.78227,2.161393 1.73315,2.161393 0.95094,0 1.72921,1.49146 1.72921,3.314359 0,1.822655 0.58325,3.573427 1.29686,3.890536 1.86787,0.83033 9.07808,15.15141 9.07808,18.031374 0,1.336686 0.77833,2.430271 1.72917,2.430271 0.95091,0 1.72913,1.510286 1.72913,3.356335 0,1.845911 0.77839,3.83723 1.72921,4.424894 0.9509,0.588214 1.72917,2.968104 1.72917,5.289584 0,2.32157 0.77838,4.22085 1.72916,4.22085 0.95091,0 1.72919,1.89936 1.72919,4.22092 0,2.32135 0.69211,4.64863 1.53808,5.17134 0.84603,0.52248 1.95693,3.48666 2.46884,6.58641 0.51174,3.09965 1.83301,9.13738 2.93586,13.41703 5.45817,21.18124 8.37068,70.23683 5.2871,89.05188 -1.09098,6.65727 -2.81939,17.16188 -3.84077,23.34369 -2.01326,12.18538 -15.30002,54.10595 -17.44661,55.04489 -0.72445,0.31762 -1.31753,2.06788 -1.31753,3.89059 0,1.82288 -0.77837,3.31433 -1.72905,3.31433 -0.95094,0 -1.72919,1.55624 -1.72919,3.45833 0,1.90199 -0.77839,3.45824 -1.7292,3.45824 -0.95089,0 -1.74647,1.36178 -1.76762,3.02613 -0.0215,1.66425 -1.56014,4.97129 -3.41988,7.34891 -1.85978,2.37756 -3.39872,5.25544 -3.41984,6.39528 -0.0391,2.20718 -7.46902,10.89637 -9.31489,10.89637 -0.60389,0 -1.09856,-3.50156 -1.09856,-7.78124 v -7.78122 h -12.8273 c -17.57825,0 -18.29761,-0.4147 -18.29761,-10.56007 v -8.46073 h -24.45312 -24.45315 l 1.1536,-18.58847 c 0.63427,-10.22372 1.9363,-26.75882 2.89299,-36.74465 0.95677,-9.98598 2.48471,-25.93753 3.39542,-35.44792 0.91067,-9.51039 2.39158,-24.29467 3.29072,-32.85407 0.89893,-8.55928 2.41194,-25.678 3.36159,-38.04152 0.94993,-12.36348 2.58509,-30.60719 3.63441,-40.54157 2.29216,-21.700993 1.42525,-26.753909 -5.26801,-30.707782 -2.77989,-1.642005 -5.05428,-3.595983 -5.05428,-4.342004 0,-0.74602 -1.22288,-1.356372 -2.71734,-1.356372 -4.46983,0 -7.6577,-4.559401 -7.6577,-10.952614 0,-6.001114 -6.29908,-20.17229 -8.96662,-20.17229 -0.77445,0 -1.40833,-1.074806 -1.40833,-2.388418 0,-1.313638 -2.918,-4.580716 -6.48437,-7.260098 -3.56638,-2.679283 -7.7428,-6.273225 -9.28093,-7.986414 -1.53807,-1.713273 -4.067,-3.114934 -5.61973,-3.114934 -1.55279,0 -2.82317,-0.778382 -2.82317,-1.729168 0,-0.950922 -1.55625,-1.729171 -3.45837,-1.729171 -1.90212,0 -3.45834,-0.607796 -3.45834,-1.351653 0,-0.743078 -3.69608,-2.342176 -8.21358,-3.552753 -4.51734,-1.210605 -10.93696,-2.989574 -14.26557,-3.9530173 -6.33448,-1.833777 -46.16077,-1.0855856 -57.49463,1.0802143 -3.5664,0.681298 -6.48437,1.932001 -6.48437,2.778883 0,0.84699 -1.51172,1.539981 -3.35944,1.539981 -3.67299,0 -14.56781,5.899033 -19.87795,10.762843 -1.84369,1.688889 -4.01881,3.070421 -4.83382,3.070421 -5.76788,0 -20.93596,24.051681 -23.11128,36.64722 -0.84891,4.91637 -2.19052,6.765797 -5.8265,8.033367 -6.13172,2.137549 -13.56368,9.628818 -14.92218,15.04121 -0.589171,2.346664 -0.60093,7.182452 -0.02915,10.746287 0.574464,3.563732 1.80926,15.038962 2.74459,25.500472 0.93522,10.46137 2.48006,27.58006 3.43276,38.0415 0.95285,10.46137 2.5139,27.96917 3.46962,38.90614 0.95582,10.93694 2.57921,27.66653 3.60782,37.17692 2.68731,24.84517 5.05138,48.37214 6.21157,61.81755 l 1.00714,11.67188 H 95.380098 70.976679 v 8.6127 c 0,9.91821 -0.308805,10.09401 -19.020776,10.83032 l -11.23947,0.44209 -0.531355,7.34894 c -0.571473,7.90227 -5.027706,10.4711 -6.748456,3.89066 z m 100.195346,-186.31718 0.45975,-47.98419 15.63962,-0.4921 c 10.86658,-0.34216 17.50756,0.28822 21.76087,2.0651 7.5491,3.15434 17.06812,11.82561 17.06812,15.54815 0,1.52048 0.77836,2.76455 1.72915,2.76455 0.95094,0 1.7292,4.23365 1.7292,9.40839 0,5.17447 -0.77837,9.8893 -1.7292,10.47699 -0.95089,0.58818 -1.72915,2.26674 -1.72915,3.73112 0,1.46452 -2.3343,4.84327 -5.18741,7.50841 -5.01853,4.68799 -7.30481,13.83333 -3.45839,13.83333 0.95093,0 1.72922,1.1435 1.72922,2.54114 0,1.39776 1.55624,5.31179 3.45835,8.69843 1.90199,3.38648 3.45823,7.64386 3.45823,9.46085 0,1.81703 0.77836,3.78462 1.72915,4.37238 0.95094,0.58819 1.7292,2.18995 1.7292,3.56032 0,1.86837 -2.3862,2.49178 -9.53834,2.49178 -9.33637,0 -9.60186,-0.13631 -12.53645,-6.48438 -1.64895,-3.56636 -3.58164,-6.74379 -4.29493,-7.06069 -0.71364,-0.31764 -1.29687,-2.02192 -1.29687,-3.78866 0,-1.76658 -0.77832,-3.6931 -1.72918,-4.2808 -0.95087,-0.58816 -1.72915,-2.63457 -1.72915,-4.54849 0,-3.22684 -3.65656,-8.42025 -5.92851,-8.42025 -0.54313,0 -0.98807,7.78121 -0.98807,17.29166 v 17.29161 H 143.57629 133.174 Z m 66.53144,46.90703 c -0.67544,-0.67547 -1.22824,-21.38544 -1.22824,-46.02187 0,-36.51559 0.45683,-45.25005 2.47021,-47.26371 2.85624,-2.8562 15.80724,-3.34276 17.46757,-0.65582 0.61661,0.99774 1.06521,22.59063 0.99686,47.98421 l -0.12444,46.17016 -9.17699,0.5078 c -5.04734,0.27937 -9.7297,-0.0493 -10.40522,-0.72055 z m 33.35491,-46.28973 c 0,-36.30115 0.50486,-47.5595 2.16152,-48.19131 1.18877,-0.45296 8.93355,-0.95583 17.21055,-1.11657 14.33763,-0.27846 15.45773,-0.0215 23.69483,5.3946 4.7551,3.12773 9.55107,7.63205 10.65773,10.00962 1.10669,2.37763 2.69939,5.67405 3.53952,7.32546 2.46861,4.85265 1.77623,11.20349 -2.12638,19.50617 -4.73043,10.06345 -11.68445,15.78792 -20.92671,17.22621 -14.28876,2.22366 -13.46107,0.9917 -13.46107,20.03772 v 17.17504 h -10.37496 -10.37503 z"
             id="path6726-7"
             inkscape:connector-curvature="0"
             sodipodi:nodetypes="csscscccsccccscssccssssscccsssssscssscccccccccccsscccsscssscsssccccccsssscccsscsscccccsccscsssssccsssscccsscsccccccccscccscccccccccssscsssscscssccscssscccccscccccccscccccccscccs" />
        </g>
      </g>
    </g>
  </g>
</svg>
