<?xml version="1.0" encoding="UTF-8" standalone="no"?>
<!-- Created with Inkscape (http://www.inkscape.org/) -->

<svg
   xmlns:dc="http://purl.org/dc/elements/1.1/"
   xmlns:cc="http://creativecommons.org/ns#"
   xmlns:rdf="http://www.w3.org/1999/02/22-rdf-syntax-ns#"
   xmlns:svg="http://www.w3.org/2000/svg"
   xmlns="http://www.w3.org/2000/svg"
   xmlns:sodipodi="http://sodipodi.sourceforge.net/DTD/sodipodi-0.dtd"
   xmlns:inkscape="http://www.inkscape.org/namespaces/inkscape"
   width="210mm"
   height="297mm"
   viewBox="0 0 210 297"
   version="1.1"
   id="svg8"
   inkscape:version="0.92.2 5c3e80d, 2017-08-06"
   sodipodi:docname="skeletor.svg">
  <defs
     id="defs2" />
  <sodipodi:namedview
     id="base"
     pagecolor="#000000"
     bordercolor="#666666"
     borderopacity="1.0"
     inkscape:pageopacity="0"
     inkscape:pageshadow="2"
     inkscape:zoom="0.7"
     inkscape:cx="236.3661"
     inkscape:cy="554.28571"
     inkscape:document-units="mm"
     inkscape:current-layer="layer1"
     showgrid="false"
     showguides="true"
     inkscape:guide-bbox="true"
     inkscape:window-width="2560"
     inkscape:window-height="1385"
     inkscape:window-x="2560"
     inkscape:window-y="27"
     inkscape:window-maximized="1">
    <sodipodi:guide
       position="105.07738,357.94346"
       orientation="1,0"
       id="guide77"
       inkscape:locked="false" />
    <sodipodi:guide
       position="91.558755,153.13078"
       orientation="0,1"
       id="guide79"
       inkscape:locked="false" />
  </sodipodi:namedview>
  <metadata
     id="metadata5">
    <rdf:RDF>
      <cc:Work
         rdf:about="">
        <dc:format>image/svg+xml</dc:format>
        <dc:type
           rdf:resource="http://purl.org/dc/dcmitype/StillImage" />
        <dc:title></dc:title>
      </cc:Work>
    </rdf:RDF>
  </metadata>
  <g
     inkscape:label="Layer 1"
     inkscape:groupmode="layer"
     id="layer1">
    <path
       style="fill:#ffeeaa;stroke-width:0.343732"
       d="m 95.558215,204.47945 c -4.653052,-0.53763 -9.403204,-2.1571 -18.072793,-6.16167 -1.43073,-0.66084 -2.652009,-1.20159 -2.713977,-1.20159 -0.06197,0 -1.404092,-0.60187 -2.982552,-1.33751 -1.578442,-0.73558 -4.803411,-2.13411 -7.166561,-3.10775 -2.363151,-0.97369 -4.606007,-1.90013 -4.984117,-2.05871 -0.797202,-0.33442 -2.807595,-1.10802 -4.905136,-1.88758 -0.807295,-0.30001 -1.928723,-0.54549 -2.492056,-0.54549 -0.563337,0 -1.024248,-0.13615 -1.024248,-0.30212 0,-0.16618 1.205477,-1.82899 2.678843,-3.6951 6.452378,-8.17252 7.451954,-9.99361 6.100791,-11.11497 -0.564232,-0.46828 -0.928605,-0.15688 -3.623641,3.09715 -1.731862,2.09104 -3.070205,3.42176 -3.441355,3.42176 -0.374953,0 0.101519,-2.02876 1.897191,-8.07772 0.89795,-3.02483 1.761836,-6.04107 1.919781,-6.70279 0.759552,-3.18212 2.692267,-13.02355 3.341484,-17.01472 1.29728,-7.97552 5.043883,-22.81125 6.597243,-26.12364 0.177335,-0.3781 0.632672,-1.49678 1.011894,-2.48591 1.100362,-2.87011 6.330892,-12.87682 6.832277,-13.07109 0.250976,-0.0971 0.68887,0.0559 0.97313,0.34002 0.45992,0.4599 0.43554,0.90964 -0.221608,4.08585 -0.406111,1.96295 -1.365737,5.73456 -2.13248,8.38128 -2.196592,7.58239 -2.412549,8.57896 -4.431982,20.45208 -2.32531,13.67144 -2.422998,14.61661 -2.291344,22.17071 0.107569,6.174 0.202123,7.10233 0.927376,9.10889 1.990826,5.50801 9.953226,15.24164 17.204421,21.03156 7.389945,5.90066 13.613149,8.60233 23.201914,10.07258 3.83408,0.58787 5.67157,1.0868 5.67157,1.54003 0,0.67078 -14.186843,1.6125 -17.874065,1.18645 z m 28.123715,-9.06579 c -1.45212,-0.15044 -3.07627,-0.38004 -3.60916,-0.51035 -2.94619,-0.72026 -4.57743,-1.31911 -4.57233,-1.67849 0.002,-0.2229 1.43395,-1.25599 3.1795,-2.29579 4.06444,-2.42103 7.20353,-4.54494 9.32152,-6.30698 1.44084,-1.19867 2.50114,-2.37206 5.61064,-6.20886 0.89551,-1.10498 3.11137,-5.42098 3.8098,-7.42065 2.1493,-6.15374 2.20863,-7.00653 1.81718,-26.12359 -0.31667,-15.46535 -0.54177,-18.07942 -2.04232,-23.71754 -1.97649,-7.42632 -3.65458,-14.50335 -3.46659,-14.61954 0.43634,-0.26969 1.29261,1.03012 3.51691,5.33877 2.86554,5.55075 5.73806,12.86016 7.63223,19.42086 0.32749,1.13433 0.80482,2.75848 1.06076,3.6092 1.71037,5.68561 3.22126,16.61499 4.26516,30.85269 0.55204,7.52959 2.26143,12.7862 5.56412,17.11044 2.9075,3.80685 3.72302,5.05469 3.72302,5.69658 0,0.78296 -0.11628,0.79003 -2.26555,0.13808 -0.92805,-0.28154 -2.7402,-0.51356 -4.02701,-0.51561 -2.73648,-0.002 -5.17492,0.90462 -13.04958,4.86457 l -4.89096,2.45954 -4.46849,0.0902 c -2.45771,0.0495 -5.65667,-0.033 -7.10885,-0.18338 z M 84.128909,167.74874 c -1.827311,-0.48238 -2.823047,-1.24601 -3.610582,-2.76892 -0.428777,-0.82918 -0.544725,-2.54024 -0.594026,-8.76597 -0.07036,-8.89681 0.07658,-9.50975 2.717738,-11.32689 2.621959,-1.80395 2.813617,-1.63725 3.041889,2.64588 0.225369,4.22889 0.54416,5.31223 1.806617,6.13947 1.000996,0.65584 0.96101,0.66974 5.833405,-2.02829 3.313152,-1.83466 8.78549,-3.14056 12.20249,-2.91197 3.15808,0.21125 5.31327,0.91948 8.28118,2.72136 5.92736,3.59857 7.18762,3.08345 8.54053,-3.49088 1.36655,-6.64068 1.69634,-7.27238 3.34787,-6.41332 1.30216,0.67732 2.34221,1.87936 2.7929,3.2278 0.34738,1.03939 0.0161,8.32978 -0.82383,18.06326 -0.28292,3.28314 -0.88292,4.1808 -3.11221,4.65625 -2.78431,0.59387 -4.83727,-0.21797 -10.26126,-4.0578 -1.32337,-0.93687 -3.54927,-2.12403 -4.94648,-2.63815 -5.01033,-1.84362 -8.30131,-1.06317 -15.781924,3.7426 -5.446646,3.49913 -6.703999,3.92633 -9.434307,3.20557 z m 7.734187,-20.70134 c -0.236323,-0.0954 -0.429673,-0.45601 -0.429673,-0.80151 0,-0.73284 2.819249,-2.24325 3.616234,-1.93743 0.878599,0.33716 0.600264,1.57614 -0.436707,1.94406 -0.519897,0.18454 -1.213857,0.48996 -1.542137,0.67895 -0.328261,0.18902 -0.637622,0.33136 -0.687448,0.31643 -0.0499,-0.0161 -0.28395,-0.10516 -0.520269,-0.2005 z m 21.225444,-1.02867 c -0.85073,-0.43943 -1.81746,-0.80057 -2.14831,-0.80253 -0.41155,-10e-4 -0.60155,-0.27497 -0.60155,-0.86287 0,-0.66425 0.17556,-0.85763 0.77343,-0.85179 1.28881,0.0133 3.61086,1.24795 3.8679,2.05778 0.37526,1.18238 -0.21447,1.32564 -1.89147,0.45941 z m -15.811654,-1.96821 c 0,-0.98116 0.769171,-2.21635 1.502753,-2.41322 1.644771,-0.4414 2.627741,-0.22552 3.034081,0.66633 0.55625,1.22085 -0.10384,1.74591 -2.560394,2.03689 -1.644382,0.19488 -1.97644,0.14612 -1.97644,-0.29 z m 8.190254,0.24285 c -0.59261,-0.15654 -1.41605,-1.95931 -1.05839,-2.31694 0.11059,-0.11048 1.02311,-0.20107 2.02778,-0.20107 1.66135,0 1.84621,0.0777 2.04217,0.85855 0.33935,1.35211 -0.0452,1.89609 -1.30875,1.85142 -0.62035,-0.0219 -1.38663,-0.10835 -1.70281,-0.19196 z m 9.20561,-4.53912 c -0.8,-0.88397 -0.61267,-2.27557 0.30634,-2.27557 0.76709,0 1.1328,1.4629 0.60258,2.41033 -0.26495,0.47347 -0.37298,0.45746 -0.90892,-0.13484 z m -23.759888,-0.4007 c -0.301602,-0.95028 0.399488,-1.75868 0.878189,-1.01265 0.181037,0.28199 0.290514,0.73193 0.243474,0.99983 -0.140496,0.80046 -0.869032,0.80879 -1.121663,0.0146 z m 2.740383,-1.16123 c -0.498774,-0.76119 -0.498696,-0.92442 0.001,-1.8905 0.633449,-1.22499 0.649936,-1.23123 1.363906,-0.51724 0.63924,0.63922 0.711692,2.24441 0.127657,2.82843 -0.595896,0.5959 -0.878636,0.51622 -1.492502,-0.42069 z m -15.182337,0.21433 c -0.601667,-0.38235 -1.681179,-3.01611 -2.190086,-5.34325 -0.355094,-1.62382 -0.356069,-2.41494 -0.0058,-4.12478 0.718454,-3.49967 1.246535,-4.06952 4.485713,-4.84077 1.530932,-0.36451 2.970683,-0.88825 3.199423,-1.16387 1.295372,-1.56083 3.782049,-2.43483 8.481031,-2.9809 2.802588,-0.32568 4.673238,-1.35394 7.289683,-4.00697 1.687968,-1.71157 2.418768,-2.25336 2.556278,-1.89509 0.10582,0.27594 -0.35957,1.27016 -1.03435,2.20936 -1.508013,2.09907 -1.561374,2.98174 -0.22211,3.6743 0.972,0.50263 1.03358,0.48529 1.89053,-0.53316 0.4872,-0.57898 0.88581,-1.19551 0.88581,-1.37006 0,-0.61501 1.05311,-0.30581 2.48071,0.72837 1.80374,1.3066 2.80843,1.23963 2.9492,-0.1966 0.0697,-0.7122 -0.22703,-1.52709 -0.93902,-2.57799 -1.07,-1.57934 -1.35136,-2.73964 -0.66427,-2.73964 0.21411,0 1.27999,0.97204 2.36866,2.16012 2.85212,3.11261 5.05975,4.13579 9.209,4.26823 3.11236,0.0994 3.98833,0.31629 4.93504,1.22236 1.34737,1.28948 3.45446,2.7036 5.13748,3.44795 2.42953,1.07444 3.39672,2.27673 3.39672,4.22244 0,1.34154 -0.72905,5.14658 -1.24234,6.48425 -0.58989,1.53719 -3.59832,-0.24525 -6.15294,-3.64549 -2.60245,-3.46389 -8.24134,-8.8791 -9.24588,-8.8791 -0.46675,0 -0.93226,0.13542 -1.03452,0.30078 -0.22378,0.36208 1.48579,2.78687 3.30195,4.68332 2.69522,2.81442 3.38707,5.98992 1.78838,8.20832 -1.26517,1.75562 -3.22527,1.63067 -3.22806,-0.20578 -0.001,-1.55271 -1.04615,-2.70025 -4.29492,-4.72173 -7.10259,-4.41935 -8.24695,-4.44306 -16.782783,-0.34777 -4.318533,2.07192 -5.044217,2.66892 -5.044217,4.14973 0,1.01949 -0.947153,2.03196 -1.665021,1.77986 -1.961969,-0.68899 -3.141821,-3.35871 -2.433227,-5.50571 0.224842,-0.68129 1.523994,-2.49216 2.887005,-4.02411 2.842047,-3.1944 3.344212,-3.99027 2.935254,-4.65199 -0.405509,-0.65609 -1.457036,0.0774 -5.617666,3.91893 -3.628956,3.35058 -4.67725,4.81562 -5.525605,7.72224 -0.439455,1.50572 -2.081755,4.86512 -2.368062,4.84403 -0.03936,-0.001 -0.258769,-0.12431 -0.487743,-0.26983 z m 32.769792,-0.94074 c -0.31533,-0.82172 0.12737,-2.22148 0.70281,-2.22148 0.36506,0 0.47043,0.339 0.39241,1.26241 -0.11326,1.34109 -0.73855,1.88855 -1.09522,0.95907 z m -14.0784,-1.07569 c -0.286324,-0.28633 -0.29905,-1.93859 -0.02046,-2.66448 0.573464,-1.49443 2.139027,0.33525 1.718967,2.00894 -0.210891,0.84021 -1.150936,1.20302 -1.698446,0.65554 z m 11.8093,-0.44623 c -0.3094,-0.19563 -0.5078,-0.85692 -0.5078,-1.69258 0,-1.54958 0.23389,-1.93249 1.00077,-1.63824 0.3808,0.14627 0.53038,0.69134 0.53038,1.93301 0,1.77032 -0.13748,1.95808 -1.02335,1.39781 z m -7.88571,-1.01531 c -0.95619,-0.95622 -0.93697,-2.58369 0.0386,-3.26699 0.6815,-0.47735 0.81369,-0.47412 1.37492,0.0337 0.82561,0.74713 0.80441,2.58889 -0.0386,3.35178 -0.62822,0.56851 -0.69344,0.56288 -1.37494,-0.1187 z m 3.63853,0.0865 c -0.12605,-0.12605 -0.22917,-0.97134 -0.22917,-1.87845 0,-1.31913 0.1432,-1.72594 0.71567,-2.03229 0.5813,-0.31109 0.80504,-0.26497 1.1921,0.24573 0.67777,0.89429 0.64673,3.41994 -0.0454,3.68552 -0.71086,0.27282 -1.34795,0.26479 -1.63323,-0.0205 z M 79.616695,121.56045 c -0.327695,-0.53607 1.1582,-10.31376 1.792118,-11.79262 0.866945,-2.02248 2.656083,-4.05678 4.097587,-4.6591 1.033813,-0.43194 1.327465,-0.3941 3.44268,0.44396 1.271871,0.5039 3.507809,1.51286 4.968783,2.24208 3.481364,1.73775 4.615843,1.74743 4.168184,0.0354 -0.132701,-0.5075 -1.45608,-1.36733 -4.451938,-2.89245 -4.817481,-2.4525 -4.977297,-2.69993 -3.164483,-4.89917 1.385713,-1.681105 5.87548,-5.026737 8.257342,-6.153138 3.861102,-1.825866 7.585392,-1.770025 11.611712,0.174155 3.98276,1.923121 9.28078,5.744136 9.28078,6.693403 0,0.72075 -1.10213,1.6035 -4.10133,3.28503 -4.15533,2.32974 -5.8725,4.26743 -4.31229,4.86612 0.6436,0.24697 3.37473,-0.94146 6.35124,-2.76367 4.14899,-2.54001 5.54723,-2.61894 7.9923,-0.45143 2.00723,1.77936 2.46837,2.84828 3.70486,8.58749 0.5906,2.74129 1.1357,5.21616 1.21137,5.49974 0.0758,0.28358 0.004,0.7235 -0.15268,0.97768 -0.24,0.38204 -0.47182,0.36818 -1.33845,-0.08 -1.31113,-0.67802 -1.92295,-2.37381 -1.6098,-4.46204 0.42641,-2.84349 -1.36257,-7.08743 -3.40081,-8.06755 -1.29298,-0.62178 -2.05125,-0.3737 -5.23431,1.71253 -4.70488,3.08364 -6.56649,3.1657 -9.7705,0.43084 -0.97354,-0.83103 -1.99072,-1.51093 -2.26039,-1.51093 -0.26969,0 -0.73788,0.6187 -1.04046,1.37493 -0.30256,0.75618 -0.70121,1.37492 -0.88586,1.37492 -0.18474,0 -0.81507,-0.54138 -1.40085,-1.20306 -0.58584,-0.6617 -1.24311,-1.20305 -1.46066,-1.20305 -0.42774,0 -1.60696,1.23843 -2.844507,2.98731 -1.390561,1.96514 -1.797432,1.88621 -8.06024,-1.56404 -3.061628,-1.68667 -4.915053,-1.9277 -6.396332,-0.83186 -1.479019,1.09421 -1.88131,2.36394 -2.045198,6.45508 -0.08341,2.0796 -0.284141,4.03547 -0.446293,4.34643 -0.321344,0.61624 -2.267042,1.43047 -2.501571,1.04681 z M 125.14397,96.660396 c -0.94582,-0.803451 -3.00112,-2.552388 -4.56733,-3.88651 -4.88327,-4.159524 -8.57047,-6.463153 -12.30983,-7.690713 -5.69416,-1.869301 -10.26032,-0.06924 -19.39373,7.645568 -2.97273,2.511016 -4.314284,3.309022 -4.314284,2.566289 0,-0.530367 5.389646,-5.784417 7.56689,-7.376539 1.042445,-0.762256 3.285283,-2.060252 4.984117,-2.884424 2.864975,-1.389899 3.328227,-1.508286 6.393097,-1.633973 3.69197,-0.151387 5.92889,0.334423 9.35077,2.030817 4.05082,2.008204 12.72117,8.919956 14.73209,11.744076 0.67157,0.943118 0.67147,0.946297 -0.0241,0.946297 -0.3839,0 -1.47184,-0.657415 -2.41765,-1.460888 z"
       id="path75"
       inkscape:connector-curvature="0"
       sodipodi:nodetypes="ccsccccsscccscccccccccsccscscccccscscsccccscsccccccccsccccscscscccccsccscccccccscccscccscssccccsccccccccccccccccccccsccccsccssccccsccsccscscsccccccccccsccccccccscsccccccccscccccccccccccccsccscccccccccscscssccccccccccscccccsc" />
  </g>
</svg>
