<?xml version="1.0" encoding="UTF-8" standalone="no"?>
<!-- Created with Inkscape (http://www.inkscape.org/) -->

<svg
   xmlns:dc="http://purl.org/dc/elements/1.1/"
   xmlns:cc="http://creativecommons.org/ns#"
   xmlns:rdf="http://www.w3.org/1999/02/22-rdf-syntax-ns#"
   xmlns:svg="http://www.w3.org/2000/svg"
   xmlns="http://www.w3.org/2000/svg"
   xmlns:sodipodi="http://sodipodi.sourceforge.net/DTD/sodipodi-0.dtd"
   xmlns:inkscape="http://www.inkscape.org/namespaces/inkscape"
   width="210mm"
   height="297mm"
   viewBox="0 0 210 297"
   version="1.1"
   id="svg8"
   inkscape:version="0.92.2 5c3e80d, 2017-08-06"
   sodipodi:docname="skull3.svg">
  <defs
     id="defs2">
    <clipPath
       id="clipPath45"
       clipPathUnits="userSpaceOnUse">
      <path
         inkscape:connector-curvature="0"
         id="path43"
         d="M 0,864 H 864 V 0 H 0 Z" />
    </clipPath>
    <clipPath
       id="clipPath3854"
       clipPathUnits="userSpaceOnUse">
      <path
         inkscape:connector-curvature="0"
         id="path3852"
         d="M 0,864 H 864 V 0 H 0 Z" />
    </clipPath>
    <clipPath
       id="clipPath4053"
       clipPathUnits="userSpaceOnUse">
      <path
         inkscape:connector-curvature="0"
         id="path4051"
         d="M 0,864 H 864 V 0 H 0 Z" />
    </clipPath>
    <clipPath
       id="clipPath4150"
       clipPathUnits="userSpaceOnUse">
      <path
         inkscape:connector-curvature="0"
         id="path4148"
         d="M 0,864 H 864 V 0 H 0 Z" />
    </clipPath>
    <clipPath
       id="clipPath4295"
       clipPathUnits="userSpaceOnUse">
      <path
         inkscape:connector-curvature="0"
         id="path4293"
         d="M 0,864 H 864 V 0 H 0 Z" />
    </clipPath>
    <clipPath
       id="clipPath4410"
       clipPathUnits="userSpaceOnUse">
      <path
         inkscape:connector-curvature="0"
         id="path4408"
         d="M 0,864 H 864 V 0 H 0 Z" />
    </clipPath>
    <clipPath
       id="clipPath4615"
       clipPathUnits="userSpaceOnUse">
      <path
         inkscape:connector-curvature="0"
         id="path4613"
         d="M 0,864 H 864 V 0 H 0 Z" />
    </clipPath>
    <clipPath
       id="clipPath4838"
       clipPathUnits="userSpaceOnUse">
      <path
         inkscape:connector-curvature="0"
         id="path4836"
         d="M 0,864 H 864 V 0 H 0 Z" />
    </clipPath>
    <clipPath
       id="clipPath5001"
       clipPathUnits="userSpaceOnUse">
      <path
         inkscape:connector-curvature="0"
         id="path4999"
         d="M 0,864 H 864 V 0 H 0 Z" />
    </clipPath>
    <inkscape:perspective
       id="perspective9"
       inkscape:persp3d-origin="372.04724 : 350.78739 : 1"
       inkscape:vp_z="744.09448 : 526.18109 : 1"
       inkscape:vp_y="0 : 1000 : 0"
       inkscape:vp_x="0 : 526.18109 : 1"
       sodipodi:type="inkscape:persp3d" />
  </defs>
  <sodipodi:namedview
     id="base"
     pagecolor="#000000"
     bordercolor="#666666"
     borderopacity="1.0"
     inkscape:pageopacity="0"
     inkscape:pageshadow="2"
     inkscape:zoom="0.91846942"
     inkscape:cx="396.85039"
     inkscape:cy="556.87007"
     inkscape:document-units="mm"
     inkscape:current-layer="g5136"
     showgrid="false"
     inkscape:window-width="2560"
     inkscape:window-height="1385"
     inkscape:window-x="2560"
     inkscape:window-y="27"
     inkscape:window-maximized="1"
     showguides="true"
     inkscape:guide-bbox="true">
    <sodipodi:guide
       position="105.43356,205.96993"
       orientation="1,0"
       id="guide3815"
       inkscape:locked="false" />
    <sodipodi:guide
       position="92.758485,149.50825"
       orientation="0,1"
       id="guide3817"
       inkscape:locked="false" />
  </sodipodi:namedview>
  <metadata
     id="metadata5">
    <rdf:RDF>
      <cc:Work
         rdf:about="">
        <dc:format>image/svg+xml</dc:format>
        <dc:type
           rdf:resource="http://purl.org/dc/dcmitype/StillImage" />
        <dc:title></dc:title>
      </cc:Work>
    </rdf:RDF>
  </metadata>
  <g
     inkscape:label="Layer 1"
     inkscape:groupmode="layer"
     id="layer1">
    <g
       transform="matrix(0.35277777,0,0,-0.35277777,-70.777455,287.43463)"
       inkscape:label="1"
       id="g37">
      <g
         id="g39">
        <g
           id="g5136"
           transform="matrix(0.75000002,0,0,-0.75000002,342.50983,505.50165)"
           style="fill:#ffeeaa">
          <path
             style="fill:#ffeeaa;stroke-width:1.90207803"
             d="m 76.123151,334.40569 c -2.092293,-2.11929 -10.235643,-9.98138 -18.09622,-17.47112 -15.121027,-14.40763 -20.935,-20.88365 -28.447416,-31.68721 -2.54607,-3.66177 -5.099704,-7.0855 -5.674894,-7.60852 -0.574748,-0.52297 -2.258917,-3.30465 -3.741679,-6.1818 -1.482814,-2.87677 -3.407314,-5.2306 -4.276672,-5.2306 -0.869164,0 -1.580623,-1.71186 -1.580623,-3.80404 0,-2.09244 -0.647013,-3.80432 -1.437763,-3.80432 -0.790439,0 -2.589846,-2.78158 -3.997949,-6.18156 -1.40822,-3.40006 -4.1849478,-9.81017 -6.1706337,-14.24506 -1.98564518,-4.43454 -3.61031108,-9.35623 -3.61031108,-10.93686 0,-1.58066 -0.73867972,-2.87391 -1.64218122,-2.87391 -0.9036588,0 -2.6722575,-5.34965 -3.9312284,-11.88788 -1.2590391,-6.53841 -3.2393493,-15.66927 -4.4005746,-20.29075 -3.06143,-12.18332 -3.07114,-77.26502 -0.0085,-80.32698 1.3076958,-1.30898 2.3776042,-5.63227 2.3776042,-9.60783 0,-3.975211 0.8562147,-7.227796 1.9020936,-7.227796 1.0460131,0 1.9021442,-2.945261 1.9021442,-6.545034 0,-3.599823 0.8561872,-7.074032 1.9019286,-7.720622 1.0459933,-0.647 1.92798102,-3.050804 1.95947402,-5.342944 0.075229,-5.636389 13.54389438,-32.241393 16.85505738,-33.2999 1.937964,-0.618983 2.357238,0.366638 1.565635,3.681684 -6.183138,25.89512 -7.363478,34.12977 -6.374853,44.471528 2.688859,28.125994 3.748513,35.188624 5.279675,35.188624 0.900448,0 1.637895,2.56786 1.637895,5.70627 0,3.13841 0.856216,5.70627 1.902089,5.70627 1.046003,0 1.902108,1.66104 1.902108,3.69192 0,2.03017 0.856195,4.22083 1.902055,4.86741 1.046018,0.64701 1.902107,3.2648 1.902107,5.81833 0,2.55381 0.856214,4.64289 1.902109,4.64289 1.045999,0 1.902123,1.71186 1.902123,3.8043 0,2.09217 0.711636,3.80406 1.580606,3.80406 0.869132,0 2.789359,2.35382 4.266632,5.2306 1.477352,2.87715 4.189821,6.6152 6.027671,8.30714 1.837931,1.69194 3.341664,3.97156 3.341664,5.06606 0,1.09443 7.578386,9.55357 16.840898,18.79767 l 16.84104,16.80772 1.437238,27.58025 c 3.99922,76.74686 4.226869,93.38052 1.274046,93.07841 -0.663177,-0.0649 -2.916717,-1.85714 -5.008997,-3.9764 z M 336.80718,323.76434 c -0.74408,-8.10762 -2.08791,-22.01663 -2.98736,-30.90884 -4.04151,-39.95283 -5.40184,-53.14533 -6.70695,-65.04203 l -1.39713,-12.73457 17.384,-17.26883 c 9.56131,-9.49739 17.38403,-18.13945 17.38403,-19.2043 0,-1.06436 1.61062,-3.66477 3.57898,-5.77756 4.38537,-4.70728 14.34832,-24.65977 17.47271,-34.99203 1.26522,-4.18438 2.98465,-9.32 3.82096,-11.4124 4.01115,-10.03531 7.33274,-61.817667 3.96517,-61.817667 -1.00389,0 -2.30018,-3.637464 -2.88,-8.083697 -2.08586,-15.990101 -3.57775,-22.349392 -5.243,-22.349392 -0.93171,0 -1.69397,-1.711882 -1.69397,-3.804305 0,-2.092219 -0.8562,-3.804089 -1.90213,-3.804089 -1.04597,0 -1.9021,-1.11326 -1.9021,-2.473937 0,-3.499323 -4.47347,-12.7101 -6.18182,-12.727788 -0.78502,0 -1.4265,-1.726648 -1.4265,-3.8191945 0,-2.092189 -0.79796,-3.8040585 -1.77375,-3.8040585 -0.97593,0 -2.34654,-1.8034291 -3.04614,-4.00777188 -0.69984,-2.20454632 -8.88854,-11.75641112 -18.19789,-21.22642012 -9.30924,-9.470122 -16.92577,-17.429716 -16.92577,-17.687866 0,-1.834698 8.07808,2.314875 13.4587,6.913271 3.58223,3.061624 7.17033,5.568769 7.97359,5.571252 2.23807,0 36.15661,34.3130099 41.37697,41.850097 2.5362,3.661606 6.13221,8.316499 7.99142,10.344756 1.85914,2.027735 3.38026,4.809526 3.38026,6.181615 0,1.372056 0.85624,2.494439 1.90207,2.494439 1.04604,0 1.90212,1.640566 1.90212,3.645767 0,2.004842 0.64161,3.930743 1.42658,4.2796 1.99866,0.888546 9.9857,16.625996 9.9857,19.675994 0,1.383175 0.64381,2.800034 1.43048,3.148978 1.95645,0.867021 9.9821,24.898837 9.9821,29.89039 0,2.216333 0.77319,4.02976 1.71842,4.02976 2.51428,0 4.08686,15.814227 5.17943,52.083637 0.64701,21.4723 0.2944,32.78459 -1.06323,34.14245 -1.1168,1.1167 -2.03068,5.66022 -2.03068,10.09713 0,4.43663 -0.85616,8.59561 -1.90185,9.24206 -1.046,0.64703 -1.90209,3.6423 -1.90209,6.6575 0,3.01493 -0.85622,6.01068 -1.90208,6.65714 -1.046,0.647 -1.90219,2.84854 -1.90219,4.8934 0,2.04456 -0.85624,5.4178 -1.9021,7.49599 -1.04599,2.07799 -2.75802,5.47852 -3.8042,7.55652 -1.04601,2.07817 -1.90209,5.07394 -1.90209,6.65746 0,1.58342 -0.85621,2.87872 -1.90211,2.87872 -1.04596,0 -1.90184,1.29563 -1.90184,2.87909 0,2.64034 -3.43433,10.0658 -5.70629,12.33779 -0.88095,0.88201 -3.19036,4.80605 -8.38077,14.24497 -1.14435,2.08112 -3.40518,5.07684 -5.024,6.65752 -1.6188,1.58031 -5.03477,5.86918 -7.5909,9.53061 -5.33079,7.63607 -31.4712,34.23307 -33.65843,34.24622 -0.80121,0 -4.19258,2.57263 -7.53566,5.70617 -3.34329,3.13357 -6.44052,5.69742 -6.88275,5.69742 -0.44211,0 -1.41242,-6.63354 -2.15592,-14.74097 z M 219.73004,316.83761 V 300.46385 H 208.3176 196.90506 v 8.6951 c 0,9.85963 -3.10952,14.12988 -10.28933,14.12988 -5.49847,0 -8.09288,-6.11909 -6.04833,-14.26566 1.17412,-4.6776 1.00718,-4.75526 -10.25513,-4.75526 h -11.4488 v 11.41242 11.41256 h -5.70618 c -5.56031,0 -5.70626,-0.23735 -5.70626,-9.27753 0,-5.87375 -1.03412,-10.13512 -2.8173,-11.61561 -2.54445,-2.1116 -12.22514,-2.05164 -20.00765,0.12272 -3.73851,1.04492 -5.15404,-9.53944 -1.5788,-11.80624 1.39139,-0.88208 6.22873,-1.61687 10.74957,-1.63283 12.04263,-0.0429 13.65418,-2.62838 13.65418,-21.90653 0,-14.63454 0.36663,-16.37294 3.32863,-15.8068 2.8172,0.53921 3.41328,3.20376 3.87945,17.34355 l 0.55104,16.70698 12.76371,-0.56074 12.76382,-0.56075 2.1941,-10.46122 c 1.20687,-5.75394 2.27682,-14.0077 2.37762,-18.34187 0.12618,-5.43548 1.1531,-8.25236 3.3088,-9.07942 1.71898,-0.65993 3.42473,-0.90044 3.79072,-0.53379 1.35782,1.35782 4.49633,21.11846 4.49633,28.30983 v 7.44372 l 10.93702,-0.57043 10.93689,-0.57043 0.55533,-14.74129 c 0.4971,-13.17823 0.94999,-14.74087 4.27973,-14.74087 3.34277,0 3.72407,1.36325 3.72407,13.3143 v 13.31464 h 11.20904 c 13.35648,0 13.4604,-0.15622 14.92255,-22.34951 0.80444,-12.21505 1.66551,-15.69198 3.8846,-15.69198 5.43821,0 7.903,6.32776 7.96499,20.44727 l 0.0648,13.79015 h 13.3145 13.31467 v 7.51922 c 0,7.06827 -0.42704,7.63744 -7.13282,9.49944 -3.92302,1.08954 -9.17497,1.98575 -11.67102,1.99147 -4.24749,0.0321 -4.46686,0.53161 -3.4244,8.1373 1.39934,10.20928 -0.1187,12.64937 -8.73963,14.0482 -6.21486,1.00824 -7.00324,0.64269 -8.10907,-3.76332 -0.67396,-2.68446 -0.70526,-5.72126 -0.0756,-6.74833 0.63512,-1.02767 0.14993,-4.07144 -1.07726,-6.76534 -1.79908,-3.94849 -3.55464,-4.89203 -9.05905,-4.86862 -11.00304,0.0429 -11.92538,1.48737 -11.32229,17.68105 0.29655,7.95313 0.14348,14.85591 -0.34074,15.33923 -0.48308,0.4831 -3.23092,1.46901 -6.10568,2.19067 l -5.22684,1.31177 V 316.83719 Z M 191.19889,211.06629 c -1.56933,-1.01474 -5.53017,-1.85712 -8.80198,-1.87309 -3.27191,-0.0322 -7.06899,-1.37858 -8.4378,-3.02798 -2.73307,-3.29308 -0.41195,-9.00278 10.10701,-24.85691 2.87691,-4.33644 5.23066,-9.06898 5.23066,-10.51714 0,-1.44825 1.71189,-3.86689 3.80411,-5.3747 2.0923,-1.50818 3.80417,-4.26485 3.80417,-6.12632 0,-1.86131 0.85618,-3.38427 1.90207,-3.38427 1.046,0 1.90212,-1.71187 1.90212,-3.80406 0,-2.0922 0.96184,-3.80407 2.13653,-3.80407 2.10072,0 1.33561,29.78738 -1.40467,54.68451 -1.13756,10.33571 -3.66777,12.3329 -10.24222,8.08403 z m 25.51101,-5.54788 c -1.4349,-1.45025 -0.80875,-57.22123 0.64271,-57.19134 0.78499,0.0321 3.52088,4.29623 6.08055,9.51034 2.55964,5.21462 5.34148,9.4809 6.1817,9.4809 0.84006,0 1.52779,1.54064 1.52779,3.42374 0,1.88302 0.79798,4.2369 1.77448,5.23097 2.85996,2.91236 13.44212,23.83493 13.44212,26.57674 0,1.80251 -4.06557,2.68592 -14.43255,3.13559 -7.93787,0.34399 -14.78533,0.26848 -15.21657,-0.1683 z m 64.83764,-47.71045 c -0.64696,-1.04597 -3.05095,-1.90553 -5.34295,-1.91005 -4.02891,0 -24.36216,-13.89046 -25.79632,-17.61237 -0.38824,-1.00718 -2.31414,-3.20915 -4.27966,-4.89222 -1.9655,-1.68274 -3.57361,-4.08196 -3.57361,-5.33164 0,-1.2494 -0.6438,-2.55723 -1.43031,-2.90584 -3.06026,-1.35665 -9.98224,-26.388788 -9.98224,-36.099073 0,-10.130005 4.72643,-26.363089 9.76064,-33.523851 2.92692,-4.163024 11.87503,-11.594246 18.27625,-15.178015 5.12498,-2.869338 36.63384,-3.278254 36.63384,-0.475529 0,1.045987 1.71186,1.902206 3.80409,1.902206 2.09232,0 3.80417,0.856196 3.80417,1.901856 0,1.046005 1.33993,1.902198 2.97728,1.902198 4.76918,0 22.43356,19.107288 27.25589,29.482327 2.43135,5.230665 5.18283,10.996547 6.11458,12.813109 0.93169,1.816575 1.69382,10.428978 1.69382,19.138972 0,12.26389 -0.91556,17.7407 -4.05959,24.27749 -5.14192,10.69146 -17.70008,23.04434 -26.50862,26.07521 -8.1664,2.81027 -27.70041,3.10015 -29.34726,0.43563 z m -163.57872,-8.02941 c -3.13842,-1.11273 -7.97812,-3.61293 -10.75496,-5.55618 -2.77684,-1.94328 -5.5198,-3.53311 -6.09537,-3.53311 -0.57584,0 -3.011247,-2.02283 -5.412624,-4.49525 -4.141038,-4.26432 -5.974881,-6.95968 -11.49885,-16.90306 -1.307756,-2.35379 -2.901338,-4.70738 -3.541465,-5.23059 -3.76846,-3.07945 -7.258613,-49.453927 -3.721875,-49.453927 1.117931,0 2.03257,-2.089399 2.03257,-4.643244 0,-2.553501 0.856184,-5.171837 1.902084,-5.818285 1.045996,-0.647032 1.902108,-2.83694 1.902108,-4.867434 0,-2.030533 0.85622,-3.691922 1.902059,-3.691922 1.045997,0 1.902096,-1.302209 1.902096,-2.893966 0,-7.340482 29.802757,-31.343454 38.916777,-31.343454 1.61094,0 2.92888,-0.856193 2.92888,-1.902204 0,-2.6192001 20.7937,-2.400937 28.72286,0.3019434 6.11723,2.0847746 21.28351,11.4495286 25.54898,15.7754026 4.52428,4.588461 10.3988,14.207413 10.3988,17.027164 0,1.66939 0.85618,3.035114 1.90209,3.035114 1.04599,0 1.90208,2.089378 1.90208,4.642906 0,2.553529 0.85618,5.171852 1.90207,5.818631 1.06002,0.655628 1.90212,9.492658 1.90212,19.971573 0,10.479234 -0.84108,19.31646 -1.90212,19.972093 -1.04599,0.645931 -1.90207,2.75583 -1.90207,4.687679 0,3.73384 -6.65836,17.50732 -11.41242,23.60719 -6.71669,8.61842 -20.37152,20.20783 -23.80884,20.20783 -1.55122,0 -2.82033,0.64701 -2.82033,1.43916 0,5.05224 -29.63142,7.83911 -40.89465,3.84594 z"
             id="path6497-0"
             inkscape:connector-curvature="0"
             sodipodi:nodetypes="cccccssscssscccssscccccsssscssssscscccccccccccscccscsssscssccsccccssscscssccscscsccssscsscccsccccccsscscccssccscscccccccccsccccsscscsccccsccccccccccccccccccscsssscccccsscsccccccsscsccssssccscccscsscccsscsssssccssscscscss" />
        </g>
      </g>
    </g>
  </g>
</svg>
