<?xml version="1.0" encoding="UTF-8" standalone="no"?>
<!-- Created with Inkscape (http://www.inkscape.org/) -->

<svg
   xmlns:dc="http://purl.org/dc/elements/1.1/"
   xmlns:cc="http://creativecommons.org/ns#"
   xmlns:rdf="http://www.w3.org/1999/02/22-rdf-syntax-ns#"
   xmlns:svg="http://www.w3.org/2000/svg"
   xmlns="http://www.w3.org/2000/svg"
   xmlns:sodipodi="http://sodipodi.sourceforge.net/DTD/sodipodi-0.dtd"
   xmlns:inkscape="http://www.inkscape.org/namespaces/inkscape"
   width="210mm"
   height="297mm"
   viewBox="0 0 210 297"
   version="1.1"
   id="svg8"
   inkscape:version="0.92.2 5c3e80d, 2017-08-06"
   sodipodi:docname="skull2.svg">
  <defs
     id="defs2">
    <clipPath
       id="clipPath45"
       clipPathUnits="userSpaceOnUse">
      <path
         inkscape:connector-curvature="0"
         id="path43"
         d="M 0,864 H 864 V 0 H 0 Z" />
    </clipPath>
    <clipPath
       id="clipPath3854"
       clipPathUnits="userSpaceOnUse">
      <path
         inkscape:connector-curvature="0"
         id="path3852"
         d="M 0,864 H 864 V 0 H 0 Z" />
    </clipPath>
    <clipPath
       id="clipPath4053"
       clipPathUnits="userSpaceOnUse">
      <path
         inkscape:connector-curvature="0"
         id="path4051"
         d="M 0,864 H 864 V 0 H 0 Z" />
    </clipPath>
    <clipPath
       id="clipPath4150"
       clipPathUnits="userSpaceOnUse">
      <path
         inkscape:connector-curvature="0"
         id="path4148"
         d="M 0,864 H 864 V 0 H 0 Z" />
    </clipPath>
    <clipPath
       id="clipPath4295"
       clipPathUnits="userSpaceOnUse">
      <path
         inkscape:connector-curvature="0"
         id="path4293"
         d="M 0,864 H 864 V 0 H 0 Z" />
    </clipPath>
    <clipPath
       id="clipPath4410"
       clipPathUnits="userSpaceOnUse">
      <path
         inkscape:connector-curvature="0"
         id="path4408"
         d="M 0,864 H 864 V 0 H 0 Z" />
    </clipPath>
    <clipPath
       id="clipPath4615"
       clipPathUnits="userSpaceOnUse">
      <path
         inkscape:connector-curvature="0"
         id="path4613"
         d="M 0,864 H 864 V 0 H 0 Z" />
    </clipPath>
    <clipPath
       id="clipPath4838"
       clipPathUnits="userSpaceOnUse">
      <path
         inkscape:connector-curvature="0"
         id="path4836"
         d="M 0,864 H 864 V 0 H 0 Z" />
    </clipPath>
    <clipPath
       id="clipPath5001"
       clipPathUnits="userSpaceOnUse">
      <path
         inkscape:connector-curvature="0"
         id="path4999"
         d="M 0,864 H 864 V 0 H 0 Z" />
    </clipPath>
    <inkscape:perspective
       id="perspective9"
       inkscape:persp3d-origin="372.04724 : 350.78739 : 1"
       inkscape:vp_z="744.09448 : 526.18109 : 1"
       inkscape:vp_y="0 : 1000 : 0"
       inkscape:vp_x="0 : 526.18109 : 1"
       sodipodi:type="inkscape:persp3d" />
  </defs>
  <sodipodi:namedview
     id="base"
     pagecolor="#000000"
     bordercolor="#666666"
     borderopacity="1.0"
     inkscape:pageopacity="0"
     inkscape:pageshadow="2"
     inkscape:zoom="0.91846942"
     inkscape:cx="396.85039"
     inkscape:cy="556.87007"
     inkscape:document-units="mm"
     inkscape:current-layer="g5136"
     showgrid="false"
     inkscape:window-width="2560"
     inkscape:window-height="1385"
     inkscape:window-x="2560"
     inkscape:window-y="27"
     inkscape:window-maximized="1"
     showguides="true"
     inkscape:guide-bbox="true">
    <sodipodi:guide
       position="105.43356,205.96993"
       orientation="1,0"
       id="guide3815"
       inkscape:locked="false" />
    <sodipodi:guide
       position="92.758485,149.50825"
       orientation="0,1"
       id="guide3817"
       inkscape:locked="false" />
  </sodipodi:namedview>
  <metadata
     id="metadata5">
    <rdf:RDF>
      <cc:Work
         rdf:about="">
        <dc:format>image/svg+xml</dc:format>
        <dc:type
           rdf:resource="http://purl.org/dc/dcmitype/StillImage" />
        <dc:title></dc:title>
      </cc:Work>
    </rdf:RDF>
  </metadata>
  <g
     inkscape:label="Layer 1"
     inkscape:groupmode="layer"
     id="layer1">
    <g
       transform="matrix(0.35277777,0,0,-0.35277777,-70.777455,287.43463)"
       inkscape:label="1"
       id="g37">
      <g
         id="g39">
        <g
           id="g5136"
           transform="matrix(0.75000002,0,0,-0.75000002,342.50983,505.50165)"
           style="fill:#ffeeaa">
          <path
             style="fill:#ffeeaa;stroke-width:1.07367337"
             d="m 149.34656,352.52063 c -14.01445,-3.8455 -24.47734,-7.83685 -39.18906,-14.94971 -13.59262,-6.57179 -31.30124,-17.09153 -35.04856,-20.82047 -0.800988,-0.79703 -2.266003,-1.90106 -3.25555,-2.45329 -7.007377,-3.91074 -33.809034,-30.4579 -40.578587,-40.19323 -1.437139,-2.06681 -2.916811,-3.99942 -3.288113,-4.2947 -1.006361,-0.80031 -11.239171,-16.18573 -14.363241,-21.5957 -5.17727,-8.96568 -13.76591999,-27.27138 -15.81059,-33.69849 -0.75145,-2.36206 -1.7508,-4.75368 -2.22077,-5.31466 -0.46992,-0.56122 -0.85449,-2.10274 -0.85449,-3.42605 0,-1.32336 -0.4833,-2.70472 -1.07368,-3.06966 -0.59043,-0.36521 -1.07368,-2.05599 -1.07368,-3.75784 0,-1.70192 -0.48331,-3.39295 -1.07367,-3.75791 -0.59045,-0.36522 -1.07364,-2.29752 -1.07364,-4.29467 0,-1.99712 -0.4206,-3.89115 -0.93495,-4.20896 -0.51435,-0.31773 -1.23918,-2.88283 -1.61111,-5.70013 -0.37191,-2.81729 -1.2458,-8.50441 -1.94198,-12.63806 -1.61218,-9.57316 -1.63667,-53.37825 -0.0365,-63.3467 1.50872,-9.392059 2.99485,-16.993714 4.40805,-22.547154 0.60079,-2.36204 1.39246,-5.744143 1.75866,-7.515704 0.36642,-1.771544 1.06376,-4.187342 1.55023,-5.368393 0.48634,-1.180987 1.46507,-3.838378 2.1748,-5.905145 0.70975,-2.066831 1.72481,-4.844992 2.25571,-6.173647 0.5308,-1.328671 1.44846001,-3.623632 2.03902001,-5.099971 0.59044,-1.476274 1.49762999,-3.771234 2.01587999,-5.099905 1.6002,-4.102855 8.10407,-17.416764 8.7852,-17.984066 0.35426,-0.295222 1.32769,-2.107063 2.16264,-4.026291 0.835,-1.919148 1.88343,-3.489412 2.32978,-3.489412 0.44618,0 0.81157,-0.505216 0.81157,-1.122188 0,-1.108497 10.081181,-16.5702458 12.283393,-18.8391638 0.625618,-0.644609 2.345416,-2.76147899 3.821691,-4.704124 8.439764,-11.1056102 22.013337,-24.7845572 34.61031,-34.8788152 16.942587,-13.576678 41.686847,-28.634238 46.689847,-28.412128 1.47352,0.065 1.54883,0.22643 0.32991,0.70554 -6.25065,2.45615 -33.83952,28.032298 -40.830277,37.851431 -2.066831,2.903058 -4.120215,5.300898 -4.563106,5.328535 -0.443132,0.03045 -0.805238,0.775057 -0.805238,1.660823 0,0.88578 -0.483299,1.610494 -1.07368,1.610494 -0.590429,0 -1.073678,0.724712 -1.073678,1.610493 0,0.885828 -0.483313,1.610543 -1.073679,1.610543 -0.590445,0 -1.073679,0.724714 -1.073679,1.610494 0,0.885781 -0.426703,1.610493 -0.948477,1.610493 -0.521644,0 -1.216547,0.845534 -1.544319,1.878982 -0.592264,1.868095 -3.984223,7.8322812 -5.0374,8.8577562 -0.625973,0.609546 -5.145308,10.0352808 -6.563571,13.6893508 -1.910948,4.923378 -3.36123,8.371463 -4.28394,10.185317 -0.52166,1.025411 -0.948413,2.808713 -0.948413,3.962917 0,1.154205 -0.427316,2.362714 -0.949879,2.685638 -0.522257,0.322602 -1.217449,1.921645 -1.544447,3.552769 -0.326868,1.631189 -1.141174,5.139959 -1.809229,7.797285 -3.855659,15.336902 -5.829967,39.732247 -4.312302,53.285253 1.656811,14.796013 2.323626,18.616743 3.360908,19.257753 0.52836,0.32627 0.960218,1.98594 0.960218,3.6878 0,1.70185 0.483313,3.39287 1.073679,3.75785 0.590445,0.36521 1.073696,2.05599 1.073696,3.75785 0,1.70185 0.427299,3.35848 0.949862,3.68133 0.522257,0.32322 1.207415,1.92166 1.522172,3.55284 0.314695,1.63112 1.095165,4.77754 1.734294,6.99204 0.639131,2.21444 1.68548,5.83807 2.325224,8.0525 3.670562,12.70515 4.15125,21.75695 2.597302,48.90538 -0.847065,14.79875 -0.365829,18.95432 3.072337,26.52018 2.644119,5.81884 6.317659,7.5157 16.270644,7.5157 6.699998,0 6.894968,0.081 8.429298,3.48948 4.87962,10.84075 5.9194,45.95049 1.83034,61.80499 -0.65702,2.5475 -0.91911,5.07761 -0.58252,5.6224 0.89918,1.45486 30.81516,20.93649 47.20803,30.74241 14.03837,8.39747 21.21252,12.3814 30.83469,17.12271 6.59254,3.24855 9.95299,5.44808 9.12618,5.97338 -2.16025,1.37268 -10.52674,0.79272 -17.95058,-1.24437 z m 100.92532,1.18807 c 0,-0.67463 0.36217,-1.22696 0.80523,-1.22732 1.09133,-9.3e-4 31.35598,-16.79297 39.77467,-22.06859 15.98419,-10.01661 36.81087,-23.46612 39.40873,-25.44964 0.59044,-0.45101 2.37039,-1.79072 3.95521,-2.97744 2.49069,-1.86503 2.79815,-2.70077 2.26677,-6.16195 -0.33781,-2.20233 -0.98092,-4.48737 -1.42843,-5.07793 -3.22974,-4.26155 -1.101,-56.36781 2.30282,-56.36781 0.52592,0 0.95619,-0.88467 0.95619,-1.96589 0,-2.83083 3.77771,-4.29369 12.24796,-4.74293 6.85613,-0.36399 7.63899,-0.65987 10.36107,-3.92055 1.61947,-1.93989 3.30815,-5.05267 3.75249,-6.91716 0.82197,-3.44929 0.97258,-21.17395 0.39383,-46.33703 -0.18445,-8.01446 0.19782,-16.01505 0.89771,-18.7893 0.67028,-2.65732 1.69624,-6.76414 2.27974,-9.1262 0.58373,-2.3621 1.61603,-6.22732 2.29442,-8.58938 0.67839,-2.3621 1.49096,-5.62928 1.80568,-7.26047 0.31472,-1.63112 0.99973,-3.22992 1.52218,-3.55278 0.52225,-0.3226 0.94987,-1.77301 0.94987,-3.22244 0,-1.44949 0.4407,-3.47437 0.97884,-4.49973 0.53871,-1.02541 1.5047,-4.64252 2.14736,-8.03803 0.64268,-3.39548 1.70808,-8.7444 2.36753,-11.886494 1.55225,-7.395849 -0.076,-39.336594 -2.2541,-44.212929 -0.52776,-1.180987 -1.23068,-3.959149 -1.56254,-6.173584 -1.35058,-9.011931 -1.95928,-11.589649 -2.86941,-12.152151 -0.5253,-0.324421 -0.95504,-1.741107 -0.95504,-3.147678 0,-1.406651 -0.4833,-2.856078 -1.07368,-3.221052 -0.59043,-0.365215 -1.07369,-1.607933 -1.07369,-2.762138 0,-1.15422 -0.42667,-2.937505 -0.94839,-3.962916 -0.52165,-1.025349 -1.43003,-3.072225 -2.01869,-4.548484 -2.30008,-5.768315 -10.47804,-22.0296498 -11.24913,-22.3682128 -0.44863,-0.196611 -0.81518,-0.834516 -0.81518,-1.4171032 0,-1.013478 -6.12592,-10.530092 -7.49657,-11.645952 -0.36278,-0.295223 -1.83529,-2.227835 -3.27247,-4.294666 -7.04502,-10.131573 -23.39593,-26.467107 -35.40316,-35.369897 -4.82411,-3.57683 -8.23402,-6.50338 -7.57766,-6.50338 3.79839,0 27.06941,13.60693 40.32895,23.58091 10.4416,7.854313 11.25322,8.577819 24.15765,21.534179 6.79099,6.818367 14.52021,15.2800512 17.17603,18.8037342 2.65587,3.523733 5.10788,6.648363 5.44899,6.943634 0.95796,0.8293 9.12814,13.2180988 9.91293,15.0314048 0.38347,0.885781 2.14688,4.02629 3.91885,6.978887 3.17344,5.287627 6.79514,12.523213 11.01705,22.010293 1.18257,2.657326 2.58038,5.670493 3.10629,6.695905 0.52594,1.025411 0.95615,2.808714 0.95615,3.962918 0,1.154219 0.48331,2.397115 1.07366,2.762088 0.59045,0.365216 1.07369,1.814465 1.07369,3.221036 0,1.406588 0.48331,2.856079 1.07368,3.221052 0.59045,0.365216 1.07371,1.814401 1.07371,3.220972 0,1.406636 0.43213,2.824528 0.96024,3.150915 0.52837,0.326274 1.21351,2.408373 1.52309,4.626528 0.30923,2.218156 1.09792,6.207179 1.7519,8.864504 6.26537,25.458077 6.34589,67.972667 0.1808,95.556907 -0.59411,2.65734 -1.38376,6.28104 -1.75519,8.05256 -0.37131,1.77156 -1.05882,4.18731 -1.52733,5.36836 -0.46871,1.18105 -1.90647,5.52939 -3.19532,9.66306 -1.28883,4.13365 -2.73705,8.48201 -3.21823,9.66306 -0.48087,1.18105 -1.37108,3.35525 -1.97754,4.83153 -1.91542,4.66254 -10.95179,22.88845 -13.77991,27.79329 -3.19169,5.53541 -13.22655,20.54082 -14.86686,22.23091 -0.62568,0.64462 -2.34544,2.77354 -3.82178,4.7308 -8.67916,11.50704 -24.93216,27.37522 -38.49227,37.58094 -1.96152,1.47626 -4.12867,3.16728 -4.81582,3.75783 -0.68715,0.59046 -3.42356,2.4779 -6.08089,4.19425 -2.65732,1.71627 -6.22264,4.07192 -7.92286,5.23467 -7.67621,5.24957 -34.48747,17.54726 -47.65548,21.85844 -15.05032,4.92743 -27.09447,7.07609 -27.09447,4.83364 z m -45.99411,-33.13454 c -1.86718,-0.90427 -3.39488,-2.30854 -3.39488,-3.12055 0,-0.81206 -0.48331,-1.47644 -1.07368,-1.47644 -0.59044,0 -1.07368,-0.93775 -1.07368,-2.08394 0,-1.14623 -0.48331,-2.38263 -1.07369,-2.74759 -0.59043,-0.3646 -1.07368,-1.53491 -1.07368,-2.59986 0,-1.65282 -1.3082,-2.04248 -8.93322,-2.66116 -9.329,-0.75698 -12.54024,-0.24714 -12.54024,1.98995 0,2.87932 -3.55423,8.21983 -6.4761,9.73074 -3.99872,2.0678 -4.3072,2.03337 -7.48163,-0.83581 -3.32354,-3.00391 -4.60533,-5.32005 -6.45808,-11.66938 l -1.45076,-4.9719 -17.478,-8.72998 c -17.21182,-8.5971 -27.22317,-15.78577 -27.22317,-19.54757 0,-0.88658 -0.57218,-2.18399 -1.27114,-2.88314 -0.78693,-0.78692 -1.3896,-5.87903 -1.58207,-13.36724 -0.17104,-6.65281 -0.63267,-17.77308 -1.02596,-24.71175 -0.51799,-9.14248 -0.378,-12.61559 0.50826,-12.61559 0.67292,0 1.22349,-0.51739 1.22349,-1.15039 0,-2.48761 5.81292,-6.36537 9.54193,-6.36537 8.38187,0 10.52241,5.85899 11.55403,31.62525 0.6529,16.30779 0.0486,15.38196 14.74933,22.68596 10.55846,5.24677 12.2499,5.61472 13.15546,2.86192 2.67504,-8.13178 6.19806,-12.07882 10.78123,-12.07882 4.57229,0 11.02649,11.04993 11.06429,18.94283 0.0182,3.95636 0.80926,4.36941 10.20082,5.33163 6.81869,0.69853 6.95546,0.66135 8.03907,-2.18875 0.60626,-1.59467 1.10235,-4.53046 1.10235,-6.524 0,-1.99355 0.4833,-3.92318 1.07368,-4.28815 0.59043,-0.36522 1.07368,-1.52973 1.07368,-2.5883 0,-2.5727 5.94977,-8.68526 8.45393,-8.68526 2.86655,0 7.36074,3.86018 9.13369,7.84527 0.8389,1.88554 2.15612,6.44797 2.92704,10.13874 l 1.40177,6.71045 7.02582,-0.0181 c 8.20083,-0.0181 9.19704,-0.49669 10.0481,-4.81508 1.60041,-8.12086 2.48832,-10.97182 4.40247,-14.13467 2.01978,-3.33748 5.65984,-5.72825 8.72153,-5.72825 2.77553,0 7.55525,6.19269 9.06831,11.74904 0.8132,2.98634 2.0088,5.4297 2.65683,5.4297 1.88478,0 15.60231,-6.83553 22.19459,-11.05965 l 6.0454,-3.87375 0.6591,-7.29632 c 0.3628,-4.01296 0.96585,-12.36939 1.34072,-18.56987 0.75198,-12.43738 2.21382,-15.83866 8.11997,-18.89287 4.08245,-2.11112 7.97824,-1.22091 11.34006,2.59134 2.46134,2.79113 2.52354,3.31423 2.00183,16.83838 -1.44242,37.39297 -6.13852,44.74524 -38.23669,59.86363 -6.20049,2.92048 -11.99832,5.673 -12.88409,6.11667 -0.88578,0.44374 -1.75142,1.96531 -1.92355,3.38126 -0.63615,5.23111 -4.57188,12.66568 -8.12531,15.34877 -2.31098,1.74496 -3.14685,1.85177 -5.82139,0.74394 -3.06894,-1.27119 -7.75053,-8.26835 -7.75053,-11.58405 0,-1.37291 -1.35466,-1.50987 -8.85781,-0.89534 -11.23247,0.91999 -12.61567,1.33677 -12.61567,3.80177 0,1.10636 -0.4833,2.31016 -1.07368,2.67514 -0.59043,0.36522 -1.07368,1.3809 -1.07368,2.2576 0,1.85493 -4.05709,6.29379 -6.53656,7.15157 -0.93782,0.32444 -3.23278,-0.14977 -5.09996,-1.0543 z M 185.31462,229.8304 c -5.8699,-2.10865 -10.40877,-9.97454 -6.97888,-12.09433 0.59044,-0.36522 1.07367,-1.39428 1.07367,-2.28741 0,-0.89309 0.60383,-2.2601 1.34212,-3.03783 2.98194,-3.14172 5.09989,-6.02592 5.09989,-6.94478 0,-0.53447 0.39079,-1.13299 0.86776,-1.32985 0.47723,-0.1966 2.50771,-2.77364 4.51209,-5.72625 2.00437,-2.95258 4.15039,-5.89576 4.76902,-6.54043 0.61862,-0.64461 2.33259,-2.807 3.80892,-4.80524 9.38836,-12.70771 9.88517,-12.50799 24.88254,10.00355 15.86934,23.82038 15.26879,22.63647 13.35706,26.33333 -2.08398,4.02992 -5.0145,5.33146 -14.96492,6.64617 -10.74211,1.41929 -33.57956,1.28812 -37.76927,-0.21669 z m -66.49061,-60.40689 c -4.09118,-0.85161 -10.13061,-2.85588 -13.42091,-4.45393 -6.44343,-3.1295 -14.0349,-10.25984 -14.0349,-13.18237 0,-0.98993 -0.53323,-2.3329 -1.18434,-2.98425 -1.85056,-1.85056 -0.21792,-23.91065 2.20878,-29.84483 0.4833,-1.181 1.5148,-4.3215 2.29284,-6.97884 2.2378,-7.64248 7.16326,-16.105134 9.37355,-16.105134 4.83306,0 58.15916,24.554404 77.49774,35.684424 8.99459,5.17665 9.95858,7.04012 6.93658,13.40848 -4.72834,9.96426 -18.15035,19.22233 -33.77838,23.29945 -9.70294,2.53128 -26.66245,3.078 -35.89096,1.157 z m 148.62661,-0.003 c -19.48127,-3.93892 -32.3401,-11.6547 -38.38379,-23.03167 -3.71019,-6.98425 -3.25471,-9.17884 2.68416,-12.93266 11.53881,-7.29354 58.92592,-29.96243 74.10123,-35.44838 6.48613,-2.344753 6.80478,-2.362889 8.8578,-0.505213 1.17127,1.059993 2.12959,2.577103 2.12959,3.371333 0,0.79422 0.4833,1.44413 1.07369,1.44413 0.59043,0 1.07365,0.73129 1.07365,1.62503 0,0.89382 0.42671,2.46407 0.94842,3.48948 2.42717,4.77133 3.60101,8.57672 6.45845,20.93746 1.47639,6.38676 1.54697,19.76402 0.1089,20.65278 -0.59043,0.36522 -1.07366,1.3543 -1.07366,2.19843 0,3.49125 -7.40334,10.4095 -14.97625,13.99516 -11.48598,5.43832 -28.61484,7.11285 -43.00211,4.20388 z"
             id="path5434"
             inkscape:connector-curvature="0"
             sodipodi:nodetypes="cscccccccscscscscccccccccccsscccccccssssssccccsccsccscsccccscsccccccccccsccccsscccccccccscsscccscscccscccscccccccsscscsccscccscccccccccccccssscscscccccscccssscccscccscssccccccscscccssccsccccssscscccccscscsccsccccccscccscscccscccssscccsccc" />
        </g>
      </g>
    </g>
  </g>
</svg>
