<?xml version="1.0" encoding="UTF-8" standalone="no"?>
<!-- Created with Inkscape (http://www.inkscape.org/) -->

<svg
   xmlns:dc="http://purl.org/dc/elements/1.1/"
   xmlns:cc="http://creativecommons.org/ns#"
   xmlns:rdf="http://www.w3.org/1999/02/22-rdf-syntax-ns#"
   xmlns:svg="http://www.w3.org/2000/svg"
   xmlns="http://www.w3.org/2000/svg"
   xmlns:sodipodi="http://sodipodi.sourceforge.net/DTD/sodipodi-0.dtd"
   xmlns:inkscape="http://www.inkscape.org/namespaces/inkscape"
   width="210mm"
   height="297mm"
   viewBox="0 0 210 297"
   version="1.1"
   id="svg8"
   inkscape:version="0.92.2 5c3e80d, 2017-08-06"
   sodipodi:docname="skull-flames.svg">
  <defs
     id="defs2">
    <clipPath
       id="clipPath45"
       clipPathUnits="userSpaceOnUse">
      <path
         inkscape:connector-curvature="0"
         id="path43"
         d="M 0,864 H 864 V 0 H 0 Z" />
    </clipPath>
    <clipPath
       id="clipPath3854"
       clipPathUnits="userSpaceOnUse">
      <path
         inkscape:connector-curvature="0"
         id="path3852"
         d="M 0,864 H 864 V 0 H 0 Z" />
    </clipPath>
    <clipPath
       id="clipPath4053"
       clipPathUnits="userSpaceOnUse">
      <path
         inkscape:connector-curvature="0"
         id="path4051"
         d="M 0,864 H 864 V 0 H 0 Z" />
    </clipPath>
    <clipPath
       id="clipPath4150"
       clipPathUnits="userSpaceOnUse">
      <path
         inkscape:connector-curvature="0"
         id="path4148"
         d="M 0,864 H 864 V 0 H 0 Z" />
    </clipPath>
    <clipPath
       id="clipPath4295"
       clipPathUnits="userSpaceOnUse">
      <path
         inkscape:connector-curvature="0"
         id="path4293"
         d="M 0,864 H 864 V 0 H 0 Z" />
    </clipPath>
    <clipPath
       id="clipPath4410"
       clipPathUnits="userSpaceOnUse">
      <path
         inkscape:connector-curvature="0"
         id="path4408"
         d="M 0,864 H 864 V 0 H 0 Z" />
    </clipPath>
    <clipPath
       id="clipPath4615"
       clipPathUnits="userSpaceOnUse">
      <path
         inkscape:connector-curvature="0"
         id="path4613"
         d="M 0,864 H 864 V 0 H 0 Z" />
    </clipPath>
    <clipPath
       id="clipPath4838"
       clipPathUnits="userSpaceOnUse">
      <path
         inkscape:connector-curvature="0"
         id="path4836"
         d="M 0,864 H 864 V 0 H 0 Z" />
    </clipPath>
    <clipPath
       id="clipPath5001"
       clipPathUnits="userSpaceOnUse">
      <path
         inkscape:connector-curvature="0"
         id="path4999"
         d="M 0,864 H 864 V 0 H 0 Z" />
    </clipPath>
  </defs>
  <sodipodi:namedview
     id="base"
     pagecolor="#000000"
     bordercolor="#666666"
     borderopacity="1.0"
     inkscape:pageopacity="0"
     inkscape:pageshadow="2"
     inkscape:zoom="0.91846942"
     inkscape:cx="396.85039"
     inkscape:cy="561.25984"
     inkscape:document-units="mm"
     inkscape:current-layer="g39"
     showgrid="false"
     inkscape:window-width="2560"
     inkscape:window-height="1385"
     inkscape:window-x="2560"
     inkscape:window-y="27"
     inkscape:window-maximized="1"
     showguides="true"
     inkscape:guide-bbox="true">
    <sodipodi:guide
       position="105.43356,205.96993"
       orientation="1,0"
       id="guide3815"
       inkscape:locked="false" />
    <sodipodi:guide
       position="92.758485,149.50825"
       orientation="0,1"
       id="guide3817"
       inkscape:locked="false" />
  </sodipodi:namedview>
  <metadata
     id="metadata5">
    <rdf:RDF>
      <cc:Work
         rdf:about="">
        <dc:format>image/svg+xml</dc:format>
        <dc:type
           rdf:resource="http://purl.org/dc/dcmitype/StillImage" />
        <dc:title></dc:title>
      </cc:Work>
    </rdf:RDF>
  </metadata>
  <g
     inkscape:label="Layer 1"
     inkscape:groupmode="layer"
     id="layer1">
    <g
       transform="matrix(0.35277777,0,0,-0.35277777,-70.777455,287.43463)"
       inkscape:label="1"
       id="g37">
      <g
         id="g39">
        <g
           transform="matrix(0.75,0,0,0.75,175.28213,60.662896)"
           inkscape:label="8 (2)"
           id="g4993"
           style="fill:#ffeeaa">
          <g
             id="g4995"
             style="fill:#ffeeaa">
            <g
               clip-path="url(#clipPath5001)"
               id="g4997"
               style="fill:#ffeeaa">
              <g
                 transform="translate(347.7979,789.5171)"
                 id="g5003"
                 style="fill:#ffeeaa">
                <path
                   inkscape:connector-curvature="0"
                   id="path5005"
                   style="fill:#ffeeaa;fill-opacity:1;fill-rule:nonzero;stroke:none"
                   d="m 0,0 c 0,0 -36.42,-50.988 -18.21,-112.172 8.74,-28.407 5.826,-72.838 -10.927,-73.569 -16.752,-0.729 -13.111,22.581 -6.555,36.42 6.555,13.839 19.667,45.891 -11.654,67.741 8.012,-27.678 6.555,-48.076 -8.013,-68.47 -14.568,-20.395 -13.111,-56.085 -5.099,-81.578 2.187,-11.656 -21.851,-34.235 -24.765,-5.828 -2.914,28.407 2.914,45.888 0,58.999 -4.369,-12.382 -14.567,-27.678 -18.938,-42.245 -4.37,-14.568 -20.394,-24.037 -14.568,-6.557 5.827,17.481 29.137,54.628 22.581,85.221 -11.654,-20.394 -66.284,-86.679 -47.346,-128.925 18.937,-42.246 54.629,-66.284 39.333,-79.396 -15.296,-13.109 -28.406,-3.64 -29.863,17.484 -5.829,-7.284 -15.296,-56.816 13.111,-96.148 14.566,-10.926 34.65,-21.852 47.189,-24.037 -10.042,30.592 -30.437,152.233 78.823,198.122 0,26.95 0,55.357 18.209,81.58 4.37,8.741 3.642,36.422 -11.654,55.358 C 1.457,-102.704 -19.667,-64.1 0,0" />
              </g>
              <g
                 transform="translate(407.5259,772.7646)"
                 id="g5007"
                 style="fill:#ffeeaa">
                <path
                   inkscape:connector-curvature="0"
                   id="path5009"
                   style="fill:#ffeeaa;fill-opacity:1;fill-rule:nonzero;stroke:none"
                   d="m 0,0 c 0,0 2.912,-26.951 -22.581,-64.099 -7.283,-7.283 -13.011,-56.814 11.34,-93.233 3.956,-12.382 -4.784,-52.445 -14.254,-66.286 0,0 95.422,17.481 154.42,-36.419 10.926,22.58 24.037,40.789 43.703,50.26 19.667,9.468 24.766,58.27 21.124,79.758 -3.641,21.49 2.185,50.624 15.296,65.191 -21.124,-13.837 -32.048,-39.33 -33.506,-80.122 0,-7.283 -35.691,-22.581 -22.58,14.931 13.111,37.514 41.52,56.451 32.05,103.797 -13.111,-23.308 -26.222,-48.803 -49.531,-67.74 -23.308,-18.938 -20.395,-45.161 -18.21,-88.137 0.729,-10.197 -17.48,-34.964 -42.975,-27.678 -25.495,7.283 -30.591,43.703 -11.654,91.049 C 81.58,-71.382 51.715,-29.135 43.703,-13.111 35.69,2.914 40.061,25.493 37.147,42.975 21.852,4.371 20.395,-23.31 32.048,-71.382 39.333,-93.235 5.099,-119.457 6.556,-75.025 4.369,-60.455 22.581,-26.951 0,0" />
              </g>
              <g
                 transform="translate(616.5742,612.5186)"
                 id="g5011"
                 style="fill:#ffeeaa">
                <path
                   inkscape:connector-curvature="0"
                   id="path5013"
                   style="fill:#ffeeaa;fill-opacity:1;fill-rule:nonzero;stroke:none"
                   d="m 0,0 c 0,0 0.191,-0.737 0.483,-2.096 3.08,-14.275 17.228,-97.154 -64.582,-114.446 9.468,-26.952 36.419,-88.137 20.394,-165.348 24.037,4.373 60.456,32.051 72.11,79.397 11.655,47.343 11.655,69.196 11.655,69.196 0,0 -34.236,-40.059 -46.617,-32.049 -12.382,8.012 -1.456,30.594 21.853,42.976 23.308,12.382 34.231,32.778 31.319,76.479 -2.912,43.706 -40.061,91.053 -40.061,91.053 0,0 4.37,-34.234 10.197,-54.63 5.828,-20.398 8.742,-42.977 3.644,-45.161 C 15.296,-56.814 10.199,-13.111 0,0" />
              </g>
              <g
                 transform="translate(220.3257,321.1602)"
                 id="g5015"
                 style="fill:#ffeeaa">
                <path
                   inkscape:connector-curvature="0"
                   id="path5017"
                   style="fill:#ffeeaa;fill-opacity:1;fill-rule:nonzero;stroke:none"
                   d="m 0,0 c 0,0 26.221,-36.418 34.963,-56.088 8.742,-19.664 13.84,-26.949 13.84,-26.949 0,0 -10.928,-1.457 -24.402,12.383 -13.474,13.838 -19.302,17.48 -19.302,17.48 0,0 16.754,-44.431 32.05,-72.111 15.296,-27.678 24.767,-55.358 44.432,-68.469 19.666,-13.111 42.246,-16.023 42.246,-16.023 0,0 -18.937,16.754 -20.394,38.605 -1.457,21.852 -5.828,56.086 -10.927,85.223 -5.098,29.133 -12.553,40.06 -25.943,42.972 -13.391,2.914 -22.129,7.284 -27.228,17.483 C 34.237,-15.297 21.122,-2.184 0,0" />
              </g>
              <g
                 transform="translate(608.0635,304.4062)"
                 id="g5019"
                 style="fill:#ffeeaa">
                <path
                   inkscape:connector-curvature="0"
                   id="path5021"
                   style="fill:#ffeeaa;fill-opacity:1;fill-rule:nonzero;stroke:none"
                   d="m 0,0 c 0,0 -33.737,-8.74 -38.835,-20.395 -5.1,-11.656 -8.744,-14.566 -21.853,-19.664 -13.11,-5.101 -15.294,-18.939 -24.764,-29.867 -9.47,-10.926 -20.125,-39.332 -24.995,-51.715 -4.871,-12.382 -7.057,-42.976 -9.97,-53.173 -2.912,-10.198 -18.937,-19.666 -32.049,-26.221 -13.11,-6.557 -8.011,-21.125 5.828,-19.668 13.839,1.457 40.062,11.654 59.729,34.236 19.667,22.578 31.319,58.998 40.789,79.393 9.47,20.396 10e-4,35.691 15.297,56.088 C -15.527,-30.592 0,0 0,0" />
              </g>
              <g
                 transform="translate(408.7246,277.459)"
                 id="g5023"
                 style="fill:#ffeeaa">
                <path
                   inkscape:connector-curvature="0"
                   id="path5025"
                   style="fill:#ffeeaa;fill-opacity:1;fill-rule:nonzero;stroke:none"
                   d="m 0,0 c 0,0 -23.778,-10.928 -25.962,4.369 -2.185,15.295 11.653,39.33 19.666,54.629 C 1.717,74.295 15.556,88.133 27.21,67.01 38.864,45.887 39.594,24.764 35.223,10.924 30.852,-2.914 14.826,-6.838 12.642,-3.783 10.457,-0.73 0,0 0,0" />
              </g>
              <g
                 transform="translate(326.2632,431.877)"
                 id="g5027"
                 style="fill:#ffeeaa">
                <path
                   inkscape:connector-curvature="0"
                   id="path5029"
                   style="fill:#ffeeaa;fill-opacity:1;fill-rule:nonzero;stroke:none"
                   d="M 0,0 C 0,0 78.56,18.208 82.461,-22.58 86.363,-63.369 60.868,-80.852 28.819,-88.865 -3.229,-96.877 -39.649,-83.854 -36.007,-52.854 -32.366,-21.852 -18.622,-10.199 0,0" />
              </g>
              <g
                 transform="translate(478.1816,435.9277)"
                 id="g5031"
                 style="fill:#ffeeaa">
                <path
                   inkscape:connector-curvature="0"
                   id="path5033"
                   style="fill:#ffeeaa;fill-opacity:1;fill-rule:nonzero;stroke:none"
                   d="m 0,0 c 0,0 63.369,1.332 77.209,-47.613 13.841,-48.944 -35.904,-60.6 -64.205,-51.858 -28.301,8.741 -62.533,33.508 -47.966,64.826 C -20.396,-3.322 -7.177,0.29 0,0" />
              </g>
              <g
                 transform="translate(489.1055,255.6055)"
                 id="g5035"
                 style="fill:#ffeeaa">
                <path
                   inkscape:connector-curvature="0"
                   id="path5037"
                   style="fill:#ffeeaa;fill-opacity:1;fill-rule:nonzero;stroke:none"
                   d="m 0,0 c -12.382,-7.283 -9.47,-48.803 -9.47,-48.803 l -3.552,0.297 2.141,-14.101 h -11.642 v 14.892 l -4.429,0.369 -14.154,8.012 -4.055,-22.266 h -11.655 l 2.915,22.266 -24.766,5.1 v -22.58 L -96.877,-59 v 22.58 l -23.309,-2.914 V -61.6 h -13.111 v 17.897 h -6.487 c 0,0 -1.526,5.098 -0.069,24.764 1.457,19.668 -21.123,31.32 -21.123,31.32 -8.013,-85.949 12.383,-115.086 12.383,-115.086 l 3.64,12.385 12.386,-0.729 -2.914,-24.764 19.803,-6.558 v 25.494 h 10.788 l 0.73,-25.494 h 21.122 l -1.456,21.125 h 10.198 l 3.641,-21.125 h 13.839 l 2.186,24.039 h 13.524 v -17.481 l 12.697,-2.914 v 19.664 l 8.742,0.731 4.369,-24.039 c 0,0 5.828,9.471 5.828,8.014 C 3.642,-95.42 3.642,-19.668 0,0" />
              </g>
            </g>
          </g>
        </g>
      </g>
    </g>
  </g>
</svg>
