<?xml version="1.0" encoding="UTF-8" standalone="no"?>
<!-- Created with Inkscape (http://www.inkscape.org/) -->

<svg
   xmlns:dc="http://purl.org/dc/elements/1.1/"
   xmlns:cc="http://creativecommons.org/ns#"
   xmlns:rdf="http://www.w3.org/1999/02/22-rdf-syntax-ns#"
   xmlns:svg="http://www.w3.org/2000/svg"
   xmlns="http://www.w3.org/2000/svg"
   xmlns:sodipodi="http://sodipodi.sourceforge.net/DTD/sodipodi-0.dtd"
   xmlns:inkscape="http://www.inkscape.org/namespaces/inkscape"
   width="210mm"
   height="297mm"
   viewBox="0 0 210 297"
   version="1.1"
   id="svg8"
   inkscape:version="0.92.2 5c3e80d, 2017-08-06"
   sodipodi:docname="skull.svg">
  <defs
     id="defs2">
    <clipPath
       id="clipPath45"
       clipPathUnits="userSpaceOnUse">
      <path
         inkscape:connector-curvature="0"
         id="path43"
         d="M 0,864 H 864 V 0 H 0 Z" />
    </clipPath>
    <clipPath
       id="clipPath3854"
       clipPathUnits="userSpaceOnUse">
      <path
         inkscape:connector-curvature="0"
         id="path3852"
         d="M 0,864 H 864 V 0 H 0 Z" />
    </clipPath>
    <clipPath
       id="clipPath4053"
       clipPathUnits="userSpaceOnUse">
      <path
         inkscape:connector-curvature="0"
         id="path4051"
         d="M 0,864 H 864 V 0 H 0 Z" />
    </clipPath>
    <clipPath
       id="clipPath4150"
       clipPathUnits="userSpaceOnUse">
      <path
         inkscape:connector-curvature="0"
         id="path4148"
         d="M 0,864 H 864 V 0 H 0 Z" />
    </clipPath>
    <clipPath
       id="clipPath4295"
       clipPathUnits="userSpaceOnUse">
      <path
         inkscape:connector-curvature="0"
         id="path4293"
         d="M 0,864 H 864 V 0 H 0 Z" />
    </clipPath>
    <clipPath
       id="clipPath4410"
       clipPathUnits="userSpaceOnUse">
      <path
         inkscape:connector-curvature="0"
         id="path4408"
         d="M 0,864 H 864 V 0 H 0 Z" />
    </clipPath>
    <clipPath
       id="clipPath4615"
       clipPathUnits="userSpaceOnUse">
      <path
         inkscape:connector-curvature="0"
         id="path4613"
         d="M 0,864 H 864 V 0 H 0 Z" />
    </clipPath>
    <clipPath
       id="clipPath4838"
       clipPathUnits="userSpaceOnUse">
      <path
         inkscape:connector-curvature="0"
         id="path4836"
         d="M 0,864 H 864 V 0 H 0 Z" />
    </clipPath>
    <clipPath
       id="clipPath5001"
       clipPathUnits="userSpaceOnUse">
      <path
         inkscape:connector-curvature="0"
         id="path4999"
         d="M 0,864 H 864 V 0 H 0 Z" />
    </clipPath>
    <inkscape:perspective
       id="perspective9"
       inkscape:persp3d-origin="372.04724 : 350.78739 : 1"
       inkscape:vp_z="744.09448 : 526.18109 : 1"
       inkscape:vp_y="0 : 1000 : 0"
       inkscape:vp_x="0 : 526.18109 : 1"
       sodipodi:type="inkscape:persp3d" />
  </defs>
  <sodipodi:namedview
     id="base"
     pagecolor="#000000"
     bordercolor="#666666"
     borderopacity="1.0"
     inkscape:pageopacity="0"
     inkscape:pageshadow="2"
     inkscape:zoom="0.91846942"
     inkscape:cx="396.85039"
     inkscape:cy="515.06733"
     inkscape:document-units="mm"
     inkscape:current-layer="g5136"
     showgrid="false"
     inkscape:window-width="2560"
     inkscape:window-height="1385"
     inkscape:window-x="2560"
     inkscape:window-y="27"
     inkscape:window-maximized="1"
     showguides="true"
     inkscape:guide-bbox="true">
    <sodipodi:guide
       position="105.43356,205.96993"
       orientation="1,0"
       id="guide3815"
       inkscape:locked="false" />
    <sodipodi:guide
       position="92.758485,149.50825"
       orientation="0,1"
       id="guide3817"
       inkscape:locked="false" />
  </sodipodi:namedview>
  <metadata
     id="metadata5">
    <rdf:RDF>
      <cc:Work
         rdf:about="">
        <dc:format>image/svg+xml</dc:format>
        <dc:type
           rdf:resource="http://purl.org/dc/dcmitype/StillImage" />
        <dc:title></dc:title>
      </cc:Work>
    </rdf:RDF>
  </metadata>
  <g
     inkscape:label="Layer 1"
     inkscape:groupmode="layer"
     id="layer1">
    <g
       transform="matrix(0.35277777,0,0,-0.35277777,-70.777455,287.43463)"
       inkscape:label="1"
       id="g37">
      <g
         id="g39">
        <g
           id="g5136"
           transform="matrix(0.75000002,0,0,-0.75000002,342.50983,505.50165)"
           style="fill:#ffeeaa">
          <path
             id="path2386"
             d="m 195.82253,475.08882 c -6.48374,-2.09418 -64.65354,-31.73099 -73.81,-37.60532 -10.85723,-6.96543 -21.07814,-17.94955 -28.803889,-30.95472 -6.178113,-10.39996 -6.891118,-12.30063 -6.891118,-18.36994 0,-4.54608 1.207265,-10.04407 3.675411,-16.73803 l 3.675419,-9.96828 -1.860419,-20.42274 c -1.02322,-11.23251 -1.860408,-24.1091 -1.860408,-28.61465 0,-10.11231 2.834909,-20.22049 6.171836,-22.00636 5.413578,-2.89725 11.978168,6.0514 11.978168,16.32826 0,26.72617 11.54075,75.87972 15.96121,67.98082 0.74451,-1.33037 0.45776,-5.04772 -0.83897,-10.8763 -1.08355,-4.87031 -1.79844,-11.2553 -1.58866,-14.18885 0.37517,-5.24637 0.45835,-5.34003 5.07837,-5.71877 2.58332,-0.21178 5.30582,0.22557 6.05,0.97189 0.84902,0.85146 1.35305,6.84532 1.35305,16.09046 0,16.11498 0.26925,16.64538 7.52569,14.82413 3.04688,-0.76473 3.08727,-0.92104 2.38924,-9.2471 -0.61633,-7.35162 -0.39925,-8.78001 1.64502,-10.82429 2.72964,-2.72964 7.50073,-3.08764 9.47329,-0.71084 0.75052,0.90431 2.39105,4.6277 3.64562,8.27418 4.31313,12.53636 7.07539,14.72274 9.64003,7.63036 1.62573,-4.49588 4.52777,-5.94636 10.48536,-5.24072 3.85053,0.45606 4.51092,1.44949 7.33891,11.03987 2.22033,7.52964 4.60001,9.7092 9.92917,9.0942 2.65195,-0.30604 3.32787,-1.06108 3.58717,-4.00709 1.25551,-14.26403 2.11664,-15.1218 10.41476,-10.37411 7.68734,4.39826 7.9653,4.72227 10.44074,12.17198 1.36489,4.10754 2.50668,5.56018 4.60409,5.8575 3.80046,0.53876 5.61725,-1.25448 7.43488,-7.3385 0.84735,-2.83629 2.58005,-7.19875 3.85043,-9.69437 2.08976,-4.10527 2.7721,-4.5375 7.16316,-4.5375 3.24981,0 5.08918,0.61446 5.56704,1.85976 0.92706,2.41588 7.04589,5.56776 9.20237,4.74025 1.0666,-0.4093 1.49216,-1.89052 1.17127,-4.07687 -0.41353,-2.81746 0.28706,-4.03736 3.90218,-6.79475 2.67477,-2.04014 4.84264,-2.92433 5.51687,-2.25009 0.61088,0.61087 2.52519,5.99183 4.25402,11.95768 1.72883,5.96585 3.3876,11.09126 3.68613,11.38979 0.95169,0.9517 7.84096,-6.37208 8.51306,-9.04999 0.35563,-1.41695 -0.25846,-5.68956 -1.36463,-9.49469 -2.13411,-7.34108 -1.68154,-11.97552 1.51594,-15.52359 2.36134,-2.62027 8.32846,-2.7551 10.83867,-0.24488 1.02993,1.02994 2.01023,1.71056 2.17844,1.5125 0.1682,-0.19807 2.89268,-9.34437 6.05438,-20.32512 6.52474,-22.66075 10.4278,-31.91057 14.62558,-34.66106 6.57771,-4.30989 9.11105,1.70814 6.13699,14.5786 -2.55698,11.06553 -6.03849,59.8023 -5.28102,73.92746 0.83344,15.54168 -1.62509,26.03715 -7.62354,32.54469 -7.21448,7.82678 -41.1075,30.57357 -62.59478,42.00952 -6.4936,3.45604 -13.64043,7.63777 -15.88187,9.29276 -9.61771,7.10135 -26.36054,9.63101 -38.27466,5.78286 z m 15.73,-122.33018 c -0.6655,-0.24437 -3.47146,-1.02494 -6.23545,-1.7346 -4.79716,-1.23168 -5.09052,-1.57816 -6.45815,-7.62767 -2.49474,-11.03513 -2.16832,-10.57238 -7.45805,-10.57238 -4.28038,0 -5.026,0.43032 -6.21815,3.58869 -1.69883,4.50072 -6.25342,5.69169 -12.22486,3.19666 -4.99928,-2.08884 -4.69292,-0.40212 -4.85873,-26.75035 l -0.10659,-16.94 h -3.025 c -2.49511,0 -2.97567,0.52989 -2.74335,3.025 1.0007,10.74769 0.58448,14.25453 -2.47728,20.8725 l -3.21886,6.9575 h -5.9577 c -5.12909,0 -6.38087,-0.50292 -9.00034,-3.61598 -2.61263,-3.10496 -4.72406,-9.74866 -5.93307,-18.66876 -0.61106,-4.50851 -3.15543,-3.33546 -4.19776,1.93534 -1.17465,5.93975 -3.78133,7.23971 -7.35372,3.66731 -1.65328,-1.65327 -2.54459,-4.8594 -3.13222,-11.26688 -1.31656,-14.35594 -4.04379,-25.37418 -7.08733,-28.63348 -3.97583,-4.25766 -11.21988,-8.13684 -20.940397,-11.21356 l -8.517018,-2.69577 -8.775446,3.85157 c -5.744947,2.52147 -9.665165,3.56919 -11.351809,3.03387 -1.416994,-0.44974 -6.295012,-4.51431 -10.840027,-9.03236 -9.448103,-9.39204 -9.252204,-8.51103 -6.448682,-29.0013 2.607562,-19.05804 2.276203,-33.3862 -1.153239,-49.86805 -1.621969,-7.79518 -3.556021,-15.30721 -4.297872,-16.69338 -0.741863,-1.38618 -3.256824,-7.80405 -5.588796,-14.26195 C 33.620638,137.85272 27.968171,123.55209 23.391588,112.53143 14.76689,91.762714 6.6913863,63.232197 4.122399,44.453934 2.4693454,32.370789 2.4604519,-4.2059987 4.108121,-14.360936 6.5442866,-29.375765 19.981675,-73.933356 26.017276,-87.0104 c 6.446324,-13.96694 11.089602,-21.15114 19.059146,-29.48881 6.865867,-7.18301 27.219785,-23.31538 33.540479,-26.58394 1.909247,-0.9873 4.559075,-3.00323 5.888502,-4.47982 4.196473,-4.66102 12.002666,-9.40485 31.694697,-19.26089 35.18712,-17.61149 68.80208,-24.45516 106.96013,-21.77606 22.60926,1.58744 55.29863,6.51063 68.25232,10.27917 15.08751,4.38933 34.27339,14.01661 44.78464,22.47248 16.84449,13.55069 24.3625,22.91247 35.9086,44.71504 5.78229,10.91872 12.20221,24.141768 14.26649,29.384552 2.06428,5.242781 4.53555,11.045131 5.49171,12.89412 0.95614,1.848977 3.06502,7.90493 4.68638,13.457668 1.62136,5.552727 4.34315,14.87596 6.04845,20.718288 7.4508,25.5265347 13.65311,75.960267 12.37411,100.619166 -0.62702,12.088977 -1.33922,15.932711 -4.3718,23.595 -1.99252,5.034386 -9.14789,24.127176 -15.90084,42.428426 l -12.27808,33.275 -0.12983,24.805 c -0.11192,21.37926 0.18927,25.77791 2.18075,31.84974 2.06096,6.2837 2.14989,7.91762 0.8232,15.125 -0.81807,4.44413 -3.08792,11.43551 -5.04413,15.53639 -3.23247,6.77635 -4.38329,7.94801 -12.62272,12.85143 -9.8139,5.84041 -8.7376,5.63615 -40.34338,7.65616 -14.88578,0.95139 -15.92403,1.61071 -23.49319,14.91906 -4.94171,8.68867 -5.49744,9.20649 -15.92783,14.8408 -5.9441,3.21091 -11.07337,6.10393 -11.39841,6.42895 -0.32501,0.32502 -0.99678,6.27696 -1.49281,13.22653 -1.06372,14.90338 -1.67299,17.23868 -4.7525,18.21607 -4.81531,1.52832 -6.81836,-0.92929 -12.57829,-15.43263 -1.44093,-3.62823 -2.43653,-4.5375 -4.96832,-4.5375 -7.26565,0 -7.8472,1.21058 -7.8472,16.335 0,12.43479 -0.23609,13.95619 -2.34046,15.08243 -3.06451,1.64006 -11.8139,1.61308 -12.83533,-0.0396 -0.43923,-0.71068 -1.09409,-4.55085 -1.45524,-8.53369 -0.65172,-7.18731 -0.68365,-7.23879 -4.26432,-6.87533 -3.25556,0.33045 -3.90157,1.16337 -6.61854,8.53369 -1.65596,4.49212 -3.3574,8.12451 -3.78097,8.07197 -0.42359,-0.0525 -1.31464,-0.29546 -1.98014,-0.53982 z m -3.63458,-119.27962 5.38635,-4.96496 -0.74165,-7.09572 c -0.83756,-8.01327 1.34315,-17.88254 4.19294,-18.97611 2.68022,-1.02849 4.6537,2.51438 6.32012,11.34614 0.91023,4.82406 2.59743,9.21231 4.33666,11.27925 3.17901,3.77804 15.61393,8.95707 20.01117,8.33446 3.38785,-0.47967 5.73386,-6.39109 6.75116,-17.01144 0.9105,-9.50549 -1.4171,-16.85078 -8.12758,-25.64846 -10.57506,-13.86428 -15.64251,-22.20805 -21.21377,-34.92942 -5.92956,-13.53947 -7.97943,-15.4344 -14.15608,-13.08604 -2.35131,0.89396 -3.25188,2.77194 -5.07806,10.58947 -2.46617,10.55708 -4.38882,14.80124 -12.98977,28.67435 -3.23648,5.22035 -6.38973,11.75435 -7.00723,14.52 -2.51575,11.2676 -5.15687,28.2407 -4.74213,30.47501 0.4537,2.44408 15.30223,11.05352 19.52697,11.3221 1.1795,0.075 4.56839,-2.09789 7.5309,-4.82863 z m 114.58728,-58.96339 c 4.45648,-2.01976 13.01232,-7.11127 19.01297,-11.31447 10.30904,-7.22104 10.95448,-7.93116 11.71241,-12.88618 0.44117,-2.88421 0.37676,-9.41821 -0.14314,-14.52 -0.5199,-5.1018 -0.81755,-16.68931 -0.66144,-25.75003 0.28241,-16.392518 0.26844,-16.486136 -2.82042,-18.915828 -1.9814,-1.558565 -6.64477,-2.959491 -12.89263,-3.873041 -5.38362,-0.78719 -13.14025,-2.502038 -17.23697,-3.810774 -11.30596,-3.611826 -23.58806,-4.298815 -31.63029,-1.769226 -3.65833,1.150698 -7.89164,3.060369 -9.40735,4.243725 -3.7326,2.914127 -12.55072,7.324178 -14.64507,7.324178 -0.93534,0 -5.59856,1.95006 -10.36272,4.333453 -7.57488,3.789573 -9.04275,5.084683 -11.69497,10.318583 l -3.03287,5.98512 2.43635,10.25839 c 1.34,5.64212 3.55695,12.45493 4.92655,15.13957 2.2741,4.45762 30.1359,32.88569 34.86484,35.57346 4.62776,2.63023 14.63531,4.22562 23.79205,3.79286 7.53293,-0.35602 11.47721,-1.27202 17.7827,-4.12979 z M 159.1622,168.74247 c 6.49587,-3.35915 13.33971,-12.85655 17.83399,-24.74874 1.36869,-3.62162 4.97605,-9.85174 8.01635,-13.84474 4.97968,-6.54006 5.46495,-7.74903 4.89349,-12.19145 -0.83318,-6.47704 -6.64182,-20.810786 -10.95649,-27.036853 -1.88564,-2.720987 -5.12238,-5.992489 -7.19273,-7.269994 -2.11381,-1.304308 -13.3139,-4.279395 -25.54428,-6.785342 -19.96156,-4.09003 -22.83548,-4.396305 -34.42168,-3.668345 -13.243194,0.832069 -21.371501,2.724182 -30.070831,6.999899 -11.48806,5.64638 -13.687816,15.897732 -7.761018,36.168055 5.292521,18.10096 6.308522,24.00947 6.308522,36.68679 v 11.28864 l 3.78148,1.56634 c 2.996843,1.24133 4.817095,1.26716 8.772504,0.12444 2.74505,-0.79304 8.348663,-2.01184 12.452433,-2.70844 6.88767,-1.16914 8.0865,-1.01646 15.59043,1.98558 12.09967,4.84063 13.57723,5.15854 24.50074,5.27167 7.02176,0.0727 11.17194,-0.48 13.79709,-1.83751 z"
             style="fill:#ffeeaa;stroke-width:1.21000004"
             inkscape:connector-curvature="0" />
        </g>
      </g>
    </g>
  </g>
</svg>
