<?xml version="1.0" encoding="UTF-8" standalone="no"?>
<!-- Created with Inkscape (http://www.inkscape.org/) -->

<svg
   xmlns:dc="http://purl.org/dc/elements/1.1/"
   xmlns:cc="http://creativecommons.org/ns#"
   xmlns:rdf="http://www.w3.org/1999/02/22-rdf-syntax-ns#"
   xmlns:svg="http://www.w3.org/2000/svg"
   xmlns="http://www.w3.org/2000/svg"
   xmlns:sodipodi="http://sodipodi.sourceforge.net/DTD/sodipodi-0.dtd"
   xmlns:inkscape="http://www.inkscape.org/namespaces/inkscape"
   width="210mm"
   height="297mm"
   viewBox="0 0 210 297"
   version="1.1"
   id="svg8"
   inkscape:version="0.92.2 5c3e80d, 2017-08-06"
   sodipodi:docname="spider2.svg">
  <defs
     id="defs2">
    <clipPath
       id="clipPath106"
       clipPathUnits="userSpaceOnUse">
      <path
         inkscape:connector-curvature="0"
         id="path104"
         d="M 0,864 H 864 V 0 H 0 Z" />
    </clipPath>
  </defs>
  <sodipodi:namedview
     id="base"
     pagecolor="#000000"
     bordercolor="#666666"
     borderopacity="1.0"
     inkscape:pageopacity="0"
     inkscape:pageshadow="2"
     inkscape:zoom="0.98994949"
     inkscape:cx="291.36527"
     inkscape:cy="554.28571"
     inkscape:document-units="mm"
     inkscape:current-layer="layer1"
     showgrid="false"
     showguides="true"
     inkscape:guide-bbox="true"
     inkscape:window-width="2560"
     inkscape:window-height="1385"
     inkscape:window-x="2560"
     inkscape:window-y="27"
     inkscape:window-maximized="1">
    <sodipodi:guide
       position="104.76965,149.1364"
       orientation="1,0"
       id="guide10"
       inkscape:locked="false" />
    <sodipodi:guide
       position="56.661139,148.86913"
       orientation="0,1"
       id="guide12"
       inkscape:locked="false" />
  </sodipodi:namedview>
  <metadata
     id="metadata5">
    <rdf:RDF>
      <cc:Work
         rdf:about="">
        <dc:format>image/svg+xml</dc:format>
        <dc:type
           rdf:resource="http://purl.org/dc/dcmitype/StillImage" />
        <dc:title></dc:title>
      </cc:Work>
    </rdf:RDF>
  </metadata>
  <g
     inkscape:label="Layer 1"
     inkscape:groupmode="layer"
     id="layer1">
    <g
       transform="matrix(0.16873251,0,0,-0.16873251,103.29023,85.865319)"
       id="g2033"
       style="display:inline;fill:#ffeeaa">
      <path
         inkscape:connector-curvature="0"
         id="path2035"
         style="fill:#ffeeaa;fill-opacity:1;fill-rule:nonzero;stroke:none"
         d="m 0,0 c 0,0 -294.348,23.865 -339.996,-232.049 99.164,55.754 212.498,131.311 212.498,131.311 0,0 18.889,-130.645 73.98,-171.574 0,37.777 -9.443,59.833 -9.443,59.833 l 47.221,-59.833 -1.576,107.035 33.205,-66.772 c 0,0 9.58,105.031 -0.008,142.569 C 6.293,-51.941 0,0 0,0" />
    </g>
    <g
       transform="matrix(0.16873251,0,0,-0.16873251,44.328101,138.18789)"
       id="g2037"
       style="display:inline;fill:#ffeeaa">
      <path
         inkscape:connector-curvature="0"
         id="path2039"
         style="fill:#ffeeaa;fill-opacity:1;fill-rule:nonzero;stroke:none"
         d="m 0,0 c 0,0 58.242,51.947 75.555,67.688 17.314,15.74 39.351,35.515 39.351,35.515 V 88.152 l 36.201,44.073 v -29.022 l 28.336,43.19 34.629,-68.35 L 196.756,85 214.072,56.668 189.516,58.24 251.852,0 c 0,0 -23.93,-15.74 -62.336,-6.293 C 151.107,3.152 118.051,7.875 73.979,-18.885 29.908,-45.645 0,-69.703 0,-69.703 Z" />
    </g>
    <g
       transform="matrix(0.16873251,0,0,-0.16873251,44.328101,157.57564)"
       id="g2041"
       style="display:inline;fill:#ffeeaa">
      <path
         inkscape:connector-curvature="0"
         id="path2043"
         style="fill:#ffeeaa;fill-opacity:1;fill-rule:nonzero;stroke:none"
         d="m 0,0 c 0,0 22.037,-86.576 45.648,-132.221 23.61,-45.65 83.43,-116.482 136.944,-146.39 -25.186,51.945 -72.406,154.257 -72.406,188.89 0,34.625 16.585,61.881 52.744,75.16 36.158,13.28 53.131,25.827 53.131,25.827 h -26.545 l 19.902,9.595 -19.902,8.114 V 47.42 c 0,0 -29.536,14.023 -36.176,20.662 -6.643,6.645 -17.709,-11.068 -17.709,-11.068 0,0 4.426,20.658 -6.643,28.777 C 117.922,93.908 100.945,78.412 95.045,63.656 81.764,75.459 72.91,51.113 67.744,34.877 52.248,42.994 27.443,40.387 0,0" />
    </g>
    <g
       transform="matrix(0.16873251,0,0,-0.16873251,92.582313,136.66435)"
       id="g2045"
       style="display:inline;fill:#ffeeaa">
      <path
         inkscape:connector-curvature="0"
         id="path2047"
         style="fill:#ffeeaa;fill-opacity:1;fill-rule:nonzero;stroke:none"
         d="m 0,0 c 0,0 51.803,-34.537 72.707,-35.902 20.906,-1.366 21.816,24.994 21.816,24.994 0,0 -29.556,-8.881 -94.523,10.908" />
    </g>
    <g
       transform="matrix(0.16873251,0,0,-0.16873251,110.3714,139.69759)"
       id="g2049"
       style="display:inline;fill:#ffeeaa">
      <path
         inkscape:connector-curvature="0"
         id="path2051"
         style="fill:#ffeeaa;fill-opacity:1;fill-rule:nonzero;stroke:none"
         d="M 0,0 C 0,0 -4.545,-23.939 29.992,-17.979 64.529,-12.018 81.799,17.977 81.799,17.977 81.799,17.977 36.428,-5.172 0,0" />
    </g>
    <g
       transform="matrix(0.16873251,0,0,-0.16873251,96.032441,160.43521)"
       id="g2053"
       style="display:inline;fill:#ffeeaa">
      <path
         inkscape:connector-curvature="0"
         id="path2055"
         style="fill:#ffeeaa;fill-opacity:1;fill-rule:nonzero;stroke:none"
         d="M 0,0 C 0,0 37.719,66.352 107.703,43.625 177.686,20.906 181.32,-4.543 181.32,-4.543 181.32,-4.543 102.244,55.443 0,0" />
    </g>
    <g
       transform="matrix(0.16873251,0,0,-0.16873251,111.32975,85.765463)"
       id="g2057"
       style="display:inline;fill:#ffeeaa">
      <path
         inkscape:connector-curvature="0"
         id="path2059"
         style="fill:#ffeeaa;fill-opacity:1;fill-rule:nonzero;stroke:none"
         d="m 0,0 c 0,0 5.236,-206.221 8.873,-235.305 3.637,-29.086 10.908,-32.722 10.908,-32.722 l 21.811,67.259 -6.471,-72.136 6.471,15.783 4.545,-27.266 18.177,55.44 11.805,-50.895 c 0,0 72.721,90.885 91.807,111.791 19.084,20.905 33.627,46.354 33.627,46.354 0,0 67.256,-81.801 109.974,-112.701 C 273.357,-159.871 225.617,-4.639 0,0" />
    </g>
    <g
       transform="matrix(0.16873251,0,0,-0.16873251,132.46022,138.0442)"
       id="g2061"
       style="display:inline;fill:#ffeeaa">
      <path
         inkscape:connector-curvature="0"
         id="path2063"
         style="fill:#ffeeaa;fill-opacity:1;fill-rule:nonzero;stroke:none"
         d="M 0,0 C 0,0 38.15,29.992 55.42,31.811 L 36.334,44.535 c 0,0 23.629,15.451 43.625,19.084 -10.908,9.088 -17.268,19.086 -17.268,19.086 l 41.807,29.086 17.268,-49.988 10.908,17.269 13.631,-37.265 9.091,19.996 c 0,0 34.538,-39.987 41.809,-61.803 7.27,-21.816 0,-53.621 0,-53.621 0,0 -16.363,23.629 -38.176,49.988 -21.81,26.356 -45.824,35.447 -58.812,23.629 C 87.23,8.178 61.779,-5.453 39.969,-4.543 18.156,-3.633 0,0 0,0" />
    </g>
    <g
       transform="matrix(0.16873251,0,0,-0.16873251,143.80778,147.09181)"
       id="g2065"
       style="display:inline;fill:#ffeeaa">
      <path
         inkscape:connector-curvature="0"
         id="path2067"
         style="fill:#ffeeaa;fill-opacity:1;fill-rule:nonzero;stroke:none"
         d="M 0,0 32.965,9.996 28.178,31.812 56.35,24.893 v 18.929 c 0,0 24.539,4.278 22.722,-37.947 l 12.725,15.939 c 0,0 20.906,-12.724 9.998,-43.623 l 20.902,5.454 c 0,0 13.635,-44.536 -9.088,-107.252 -22.722,-62.709 -70.886,-118.151 -105.427,-153.598 7.271,70.893 17.267,105.43 41.806,137.24 24.541,31.811 36.356,55.442 39.082,66.346 2.727,10.908 -3.638,12.906 -39.992,16.451 -36.353,3.545 -57.258,5.736 -57.258,26.457 l 22.723,1.627 c 0,0 8.18,22.715 -14.543,29.084" />
    </g>
    <g
       transform="matrix(0.16873251,0,0,-0.16873251,86.29669,166.77091)"
       id="g2069"
       style="display:inline;fill:#ffeeaa">
      <path
         inkscape:connector-curvature="0"
         id="path2071"
         style="fill:#ffeeaa;fill-opacity:1;fill-rule:nonzero;stroke:none"
         d="m 0,0 c 0,0 -59.08,-9.697 -88.162,-22.422 13.635,-31.814 13.635,-39.99 13.635,-39.99 h -18.18 c 0,0 18.176,-29.994 53.623,-30.904 -15.453,-16.358 -41.809,-9.088 -41.809,-9.088 0,0 46.352,-91.795 77.256,-125.426 30.903,-33.627 90.885,-32.717 176.321,-19.996 85.435,12.728 113.607,46.355 126.332,71.805 12.724,25.449 11.814,54.533 11.814,54.533 l -29.082,2.722 c 0,0 38.203,29.993 50.914,41.811 12.709,11.814 13.615,24.539 13.615,24.539 0,0 -32.715,-24.539 -60.892,-24.539 35.443,30.904 64.531,57.566 74.527,76.955 -35.445,4.844 -51.805,4.844 -51.805,4.844 0,0 6.362,-38.559 -13.634,-45.637 C 293.562,-14.244 289.93,0 289.93,0 c 0,0 -3.639,-49.691 -30.905,-67.867 -1.816,23.629 -10.904,38.17 -10.904,38.17 0,0 -0.91,-23.629 -15.451,-37.26 -8.182,17.266 -17.268,39.99 -17.268,39.99 l -16.826,-89.068 -15.096,70.89 c 0,0 -27.158,-20.902 -21.705,-43.628 -10.904,20.906 -8.187,51.81 -8.187,51.81 0,0 -22.711,-33.627 -19.984,-49.078 -13.635,10.904 -17.002,65.436 -17.002,65.436 0,0 -27.534,-54.53 -25.717,-72.711 -15.451,33.627 -12.725,71.804 -12.725,71.804 0,0 -46.465,-34.537 -75.037,-48.172 C 25.445,-31.51 28.172,0 28.172,0 c 0,0 -50.791,-31.895 -60.84,-40.793 C -1.82,-5.154 0,0 0,0" />
    </g>
    <g
       transform="matrix(0.16873251,0,0,-0.16873251,119.12439,146.6868)"
       id="g2073"
       style="display:inline;fill:#ffeeaa">
      <path
         inkscape:connector-curvature="0"
         id="path2075"
         style="fill:#ffeeaa;fill-opacity:1;fill-rule:nonzero;stroke:none"
         d="m 0,0 c -0.389,-2.742 -2.686,-4.857 -5.498,-4.857 -2.268,0 -4.215,1.382 -5.084,3.359 -9.576,-0.793 -19.824,-0.145 -30.385,2.822 0,0 10.901,-20.613 38.17,-16.262 27.27,4.352 51.809,37.43 51.809,37.43 C 49.012,22.492 28.658,5.621 0,0" />
    </g>
    <g
       transform="matrix(0.16873251,0,0,-0.16873251,99.499351,146.60111)"
       id="g2077"
       style="display:inline;fill:#ffeeaa">
      <path
         inkscape:connector-curvature="0"
         id="path2079"
         style="fill:#ffeeaa;fill-opacity:1;fill-rule:nonzero;stroke:none"
         d="m 0,0 c -0.164,-2.986 -2.609,-5.365 -5.633,-5.365 -3.129,0 -5.664,2.537 -5.664,5.664 0,0.269 0.041,0.529 0.078,0.789 -14.101,1.912 -31.828,6.334 -51.592,15.99 0,0 0.665,-1.324 2.102,-3.443 6.283,-9.248 27.326,-33.543 72.428,-28.365 9.996,10.904 9.996,15.546 9.996,15.546 0,0 -8.147,-1.572 -21.715,-0.816" />
    </g>
  </g>
</svg>
