<?xml version="1.0" encoding="UTF-8" standalone="no"?>
<!-- Created with Inkscape (http://www.inkscape.org/) -->

<svg
   xmlns:dc="http://purl.org/dc/elements/1.1/"
   xmlns:cc="http://creativecommons.org/ns#"
   xmlns:rdf="http://www.w3.org/1999/02/22-rdf-syntax-ns#"
   xmlns:svg="http://www.w3.org/2000/svg"
   xmlns="http://www.w3.org/2000/svg"
   xmlns:sodipodi="http://sodipodi.sourceforge.net/DTD/sodipodi-0.dtd"
   xmlns:inkscape="http://www.inkscape.org/namespaces/inkscape"
   width="210mm"
   height="297mm"
   viewBox="0 0 210 297"
   version="1.1"
   id="svg8"
   inkscape:version="0.92.2 5c3e80d, 2017-08-06"
   sodipodi:docname="spiderman.svg">
  <defs
     id="defs2">
    <clipPath
       id="clipPath45"
       clipPathUnits="userSpaceOnUse">
      <path
         inkscape:connector-curvature="0"
         id="path43"
         d="M 0,864 H 864 V 0 H 0 Z" />
    </clipPath>
    <clipPath
       id="clipPath3854"
       clipPathUnits="userSpaceOnUse">
      <path
         inkscape:connector-curvature="0"
         id="path3852"
         d="M 0,864 H 864 V 0 H 0 Z" />
    </clipPath>
    <clipPath
       id="clipPath4053"
       clipPathUnits="userSpaceOnUse">
      <path
         inkscape:connector-curvature="0"
         id="path4051"
         d="M 0,864 H 864 V 0 H 0 Z" />
    </clipPath>
    <clipPath
       id="clipPath4150"
       clipPathUnits="userSpaceOnUse">
      <path
         inkscape:connector-curvature="0"
         id="path4148"
         d="M 0,864 H 864 V 0 H 0 Z" />
    </clipPath>
    <clipPath
       id="clipPath4295"
       clipPathUnits="userSpaceOnUse">
      <path
         inkscape:connector-curvature="0"
         id="path4293"
         d="M 0,864 H 864 V 0 H 0 Z" />
    </clipPath>
    <clipPath
       id="clipPath4410"
       clipPathUnits="userSpaceOnUse">
      <path
         inkscape:connector-curvature="0"
         id="path4408"
         d="M 0,864 H 864 V 0 H 0 Z" />
    </clipPath>
    <clipPath
       id="clipPath4615"
       clipPathUnits="userSpaceOnUse">
      <path
         inkscape:connector-curvature="0"
         id="path4613"
         d="M 0,864 H 864 V 0 H 0 Z" />
    </clipPath>
    <clipPath
       id="clipPath4838"
       clipPathUnits="userSpaceOnUse">
      <path
         inkscape:connector-curvature="0"
         id="path4836"
         d="M 0,864 H 864 V 0 H 0 Z" />
    </clipPath>
    <clipPath
       id="clipPath5001"
       clipPathUnits="userSpaceOnUse">
      <path
         inkscape:connector-curvature="0"
         id="path4999"
         d="M 0,864 H 864 V 0 H 0 Z" />
    </clipPath>
    <inkscape:perspective
       id="perspective9"
       inkscape:persp3d-origin="372.04724 : 350.78739 : 1"
       inkscape:vp_z="744.09448 : 526.18109 : 1"
       inkscape:vp_y="0 : 1000 : 0"
       inkscape:vp_x="0 : 526.18109 : 1"
       sodipodi:type="inkscape:persp3d" />
  </defs>
  <sodipodi:namedview
     id="base"
     pagecolor="#000000"
     bordercolor="#666666"
     borderopacity="1.0"
     inkscape:pageopacity="0"
     inkscape:pageshadow="2"
     inkscape:zoom="0.91846942"
     inkscape:cx="396.85039"
     inkscape:cy="556.87007"
     inkscape:document-units="mm"
     inkscape:current-layer="g5136"
     showgrid="false"
     inkscape:window-width="2560"
     inkscape:window-height="1385"
     inkscape:window-x="2560"
     inkscape:window-y="27"
     inkscape:window-maximized="1"
     showguides="true"
     inkscape:guide-bbox="true">
    <sodipodi:guide
       position="105.43356,205.96993"
       orientation="1,0"
       id="guide3815"
       inkscape:locked="false" />
    <sodipodi:guide
       position="92.758485,149.50825"
       orientation="0,1"
       id="guide3817"
       inkscape:locked="false" />
  </sodipodi:namedview>
  <metadata
     id="metadata5">
    <rdf:RDF>
      <cc:Work
         rdf:about="">
        <dc:format>image/svg+xml</dc:format>
        <dc:type
           rdf:resource="http://purl.org/dc/dcmitype/StillImage" />
        <dc:title></dc:title>
      </cc:Work>
    </rdf:RDF>
  </metadata>
  <g
     inkscape:label="Layer 1"
     inkscape:groupmode="layer"
     id="layer1">
    <g
       transform="matrix(0.35277777,0,0,-0.35277777,-70.777455,287.43463)"
       inkscape:label="1"
       id="g37">
      <g
         id="g39">
        <g
           id="g5136"
           transform="matrix(0.75000002,0,0,-0.75000002,342.50983,505.50165)"
           style="fill:#ffeeaa">
          <path
             style="fill:#ffeeaa;stroke-width:0.54000002"
             d="m 192.982,480.61793 c -1.18798,-0.27155 -3.37499,-0.74255 -4.86,-1.04679 -11.91136,-2.44034 -26.89415,-8.69918 -36.27458,-15.15311 -1.24299,-0.85517 -2.48231,-1.55492 -2.75402,-1.55492 -0.27185,0 -0.93382,-0.486 -1.47137,-1.08001 -0.53759,-0.59397 -1.1897,-1.07997 -1.44919,-1.07997 -0.48881,0 -4.78392,-3.22554 -11.78082,-8.84722 -2.22752,-1.78964 -7.77597,-6.90992 -12.32996,-11.37837 -9.11763,-8.94634 -8.49098,-7.76256 -7.15918,-13.52443 0.66865,-2.89276 5.1749,-20.0617 6.51962,-24.84 0.25074,-0.89099 0.85178,-3.07797 1.33561,-4.86 0.4838,-1.78199 1.36034,-4.941 1.94786,-7.01998 0.58752,-2.07901 1.33441,-4.75203 1.65975,-5.94001 0.32536,-1.18801 0.77818,-2.76749 1.00628,-3.51001 0.22808,-0.74248 0.73107,-2.4435 1.1177,-3.77999 0.38663,-1.33649 0.76005,-2.51198 0.82986,-2.61221 0.2691,-0.38626 8.90502,-2.36767 16.95244,-3.8895 28.8775,-5.46102 56.62952,-6.7285 81.27001,-3.71178 4.51091,0.55231 6.85375,0.95498 14.03999,2.41318 2.37603,0.48218 5.10125,1.00204 6.05611,1.15535 0.95482,0.15338 1.94641,0.55685 2.20348,0.89682 0.25716,0.34 0.76884,2.68363 1.13728,5.20814 0.36841,2.52451 0.87535,5.805 1.12652,7.29 0.76933,4.54848 2.37232,16.31815 4.26568,31.31998 1.14812,9.09698 2.38237,20.52834 3.26503,30.24001 0.29696,3.26702 0.82135,8.96401 1.16539,12.66003 l 0.62551,6.72 -1.49541,1.19243 c -3.63534,2.89869 -18.73719,9.6103 -26.98957,11.99477 -3.59984,1.04016 -5.50462,1.47842 -12.05621,2.77398 -3.46873,0.68598 -24.86479,0.65806 -27.90381,-0.0361 z m 85.05,-28.46888 c 0,-0.45729 -3.92994,-25.88108 -5.93976,-38.42594 -0.59476,-3.71249 -1.56095,-9.78751 -2.14706,-13.5 -0.5861,-3.71248 -1.56974,-9.54448 -2.18585,-12.95999 -0.61611,-3.41549 -1.26124,-7.58153 -1.43357,-9.25781 l -0.31337,-3.04782 5.01234,-7.48187 c 15.77815,-23.55181 36.56793,-43.32991 59.3873,-56.49732 3.30064,-1.90459 10.31486,-5.38298 10.44605,-5.18029 0.1843,0.28441 7.05112,8.24612 7.38747,8.56511 0.15675,0.14848 1.61489,1.8495 3.24061,3.78 1.62573,1.93049 3.07886,3.63151 3.22921,3.77999 0.15032,0.14849 1.60834,1.84864 3.24003,3.77807 1.63163,1.92945 3.51337,4.11399 4.18161,4.85448 0.66828,0.74057 1.21502,1.54452 1.21502,1.78656 0,1.83728 -14.98399,31.1265 -21.14953,41.34107 -1.13875,1.8866 -2.07047,3.54381 -2.07047,3.6827 0,0.13899 -0.72901,1.3121 -1.62001,2.60713 -0.891,1.29501 -1.62,2.49546 -1.62,2.6676 0,0.45787 -7.3648,11.76013 -12.68863,19.47239 -9.41145,13.63379 -20.71444,27.09808 -32.22051,38.38164 -10.62994,10.42437 -13.95088,13.19862 -13.95088,11.6543 z M 102.22457,418.48166 c -3.239926,-3.68172 -8.439931,-10.86209 -16.452695,-22.71857 -6.841044,-10.1226 -11.509129,-17.6762 -16.599439,-26.85995 -0.74076,-1.33653 -2.11972,-3.76653 -3.06436,-5.40001 -2.16484,-3.74366 -15.45375,-30.3122 -16.61078,-33.21001 -0.47434,-1.18802 -1.73608,-4.04428 -2.80386,-6.34727 -1.0678,-2.30303 -1.94144,-4.30169 -1.94144,-4.4415 0,-0.1399 -0.72898,-1.84588 -1.61997,-3.79123 -0.89104,-1.94535 -1.62002,-3.65509 -1.62002,-3.79937 0,-0.30278 -2.00838,-4.92701 -2.74413,-6.31831 -0.98391,-1.86054 -0.45263,-2.86582 2.74634,-5.19641 1.77718,-1.29478 6.45246,-4.75733 10.38951,-7.69463 3.93706,-2.93728 7.51935,-5.27728 7.96069,-5.19998 1.55961,0.27309 18.409676,21.20776 29.224628,36.30869 7.760076,10.83549 20.789506,30.84421 26.620706,40.8804 l 1.476,2.54036 -2.9802,11.22961 c -1.63911,6.17632 -4.57657,17.54764 -6.5277,25.26964 -4.34759,17.20662 -4.03474,16.3605 -5.45328,14.74854 z M 136.552,349.7949 c 0,-0.4515 0.23022,-1.37916 0.5119,-2.06134 0.28165,-0.68224 1.26923,-3.79193 2.19489,-6.91045 0.92561,-3.11848 1.89079,-6.2775 2.14479,-7.01999 0.2541,-0.74251 1.24233,-3.90149 2.19623,-7.02001 0.95394,-3.11848 2.39562,-7.7355 3.20374,-10.26 0.80813,-2.52448 2.51561,-7.87048 3.79445,-11.87999 1.27881,-4.00951 3.95042,-12.27151 5.93689,-18.35998 1.98646,-6.08852 3.92816,-12.0946 4.31487,-13.34684 0.52075,-1.68632 0.8985,-2.16748 1.45642,-1.85525 0.97922,0.54799 7.33628,8.16596 8.60108,10.3071 0.53768,0.91024 1.26489,1.65496 1.616,1.65496 0.35111,0 2.30347,-1.01387 4.33858,-2.25305 7.40446,-4.50861 17.70102,-8.87833 25.84016,-10.96626 2.72812,-0.69984 6.77513,-1.44283 13.27425,-2.43699 5.1415,-0.78651 14.27325,-0.70627 14.94444,0.13133 0.29757,0.37127 1.67557,6.50702 3.06236,13.63501 1.38679,7.12799 2.7329,13.93199 2.99134,15.12 0.25838,1.18801 0.72537,3.49651 1.03758,5.12999 0.3122,1.63351 0.79957,4.18502 1.083,5.67002 0.28349,1.485 0.79511,4.2795 1.13705,6.20999 0.34192,1.9305 0.82792,4.60352 1.08,5.94001 0.25195,1.33649 0.73807,4.00951 1.08001,5.94 0.34192,1.93051 0.82792,4.60349 1.08,5.93998 0.25196,1.33653 0.73919,4.00951 1.08249,5.94001 0.34331,1.9305 0.8477,4.67619 1.12084,6.10156 0.27309,1.42539 0.49666,3.3809 0.49666,4.34561 v 1.75401 l -3.64501,-0.18643 c -2.00475,-0.10256 -5.27103,-0.41786 -7.25844,-0.70062 -1.98738,-0.28287 -4.99776,-0.51412 -6.68972,-0.51412 -1.69198,0 -5.77644,-0.24063 -9.07658,-0.53466 -14.60357,-1.30124 -36.12543,-1.80861 -48.17719,-1.13574 -15.2371,0.8508 -27.8218,2.40042 -33.82808,4.16545 -0.60738,0.17848 -0.945,-0.0153 -0.945,-0.54328 z m 124.89383,-0.46739 c -0.28471,-0.37092 -1.07517,-3.71191 -1.75683,-7.4244 -3.25716,-17.73953 -9.69241,-49.33951 -12.97642,-63.72 -1.11614,-4.8873 -1.60251,-7.75802 -1.35618,-8.00437 0.14817,-0.14818 1.58196,0.0453 3.18595,0.43005 l 2.91641,0.69964 6.0439,-5.48888 c 5.78388,-5.25276 24.66171,-20.67286 26.57598,-21.70827 1.0438,-0.56455 1.24389,-0.39002 7.45339,6.50181 2.22749,2.47228 4.74281,5.24341 5.5896,6.15811 2.03921,2.20272 8.64556,9.50364 9.89313,10.93329 0.78026,0.89412 6.51297,7.25902 9.62953,10.69142 0.29818,0.32846 2.36375,2.65483 4.59002,5.1697 2.22622,2.51486 4.59448,5.18539 5.26273,5.93449 0.66824,0.7491 1.21127,1.48595 1.20671,1.63749 -0.0184,0.56725 -0.88337,1.43678 -3.77173,3.78553 -1.63351,1.32832 -3.09151,2.54635 -3.23999,2.70673 -0.14848,0.16041 -1.84949,1.6217 -3.78003,3.2474 -1.93049,1.62574 -3.63148,3.07889 -3.77998,3.22924 -0.14848,0.15033 -1.8495,1.60681 -3.78,3.23662 -1.93049,1.62985 -3.63148,3.09096 -3.77999,3.24697 -0.14848,0.15613 -2.09251,1.85859 -4.32,3.78337 -2.22751,1.9248 -4.17151,3.62116 -4.31999,3.76967 -0.14848,0.14848 -2.33553,2.09181 -4.86,4.31844 -2.52451,2.2267 -5.805,5.16412 -7.29,6.52767 -1.485,1.36356 -3.915,3.55122 -5.40001,4.86153 -1.485,1.31029 -3.0645,2.74685 -3.51,3.19235 -0.4455,0.4455 -3.75722,3.54347 -7.35938,6.88443 -4.84454,4.49321 -6.68405,5.89883 -7.06682,5.39997 z M 121.40212,328.55556 c -4.62954,-6.55272 -10.51814,-14.45101 -11.72327,-15.72421 -0.37576,-0.39695 -1.34638,-1.61196 -2.15693,-2.69999 -0.81056,-1.08806 -1.60301,-2.09973 -1.76098,-2.24825 -0.15797,-0.14848 -1.61735,-1.84829 -3.24305,-3.77736 -7.899534,-9.37344 -20.594343,-20.8769 -26.985873,-24.45337 -1.336501,-0.74787 -2.487131,-1.68813 -2.556931,-2.08951 -0.0698,-0.40136 3.809164,-3.76726 8.619979,-7.47975 4.810797,-3.71249 13.227062,-10.33424 18.702805,-14.71501 5.47574,-4.38073 10.40961,-7.96498 10.96419,-7.96498 2.11216,0 13.86798,2.80788 19.32431,4.61564 6.03446,1.99929 17.28017,7.28234 18.41684,8.65194 0.50911,0.61344 0.53431,1.24495 0.10164,2.54896 -0.3163,0.95339 -2.32481,6.83645 -4.46336,13.07344 -2.13853,6.23699 -4.59053,13.58777 -5.44889,16.33502 -0.85836,2.74723 -2.31198,7.36424 -3.23032,10.25997 -0.91831,2.89577 -3.45953,11.18802 -5.64715,18.4272 -2.18763,7.23918 -4.07662,13.26126 -4.19775,13.38237 -0.12123,0.12124 -2.24305,-2.64279 -4.71532,-6.14211 z m 243.99677,-15.13743 c -2.18154,-2.59875 -4.68877,-5.61461 -5.57166,-6.70197 -0.88285,-1.08729 -2.54063,-3.08584 -3.68395,-4.44119 l -2.07877,-2.46425 0.63806,-5.81881 c 3.0605,-27.91033 11.4201,-57.68669 23.46448,-83.57878 2.1421,-4.60493 3.17343,-6.07581 7.00468,-9.99001 14.09329,-14.3984 24.14448,-31.15121 32.47275,-54.12409 1.18774,-3.2763 1.81497,-2.89004 1.26168,0.77696 -0.73382,4.86349 -2.30954,14.12682 -3.14979,18.51713 -0.28411,1.48501 -0.792,4.15799 -1.12842,5.94001 -0.98379,5.2112 -1.50878,7.78362 -2.70014,13.23 -0.61718,2.8215 -1.34873,6.2235 -1.62571,7.55999 -0.50987,2.46034 -1.09944,4.98497 -2.08068,8.91001 -0.29696,1.18799 -0.78302,3.13199 -1.08002,4.32 -0.29695,1.18799 -0.78301,3.13199 -1.08,4.32 -0.29695,1.18798 -0.7941,3.19275 -1.10467,4.455 -1.23266,5.00974 -1.59421,6.41979 -2.1115,8.235 -0.29635,1.0395 -1.05818,3.83399 -1.69321,6.20999 -0.63503,2.376 -1.38079,5.10976 -1.6573,6.07498 -0.27644,0.96527 -0.72565,2.54478 -0.99817,3.51001 -0.27246,0.96527 -1.02105,3.45601 -1.66342,5.53501 -0.64239,2.07901 -1.29021,4.266 -1.43961,4.86 -0.1494,0.59401 -0.46542,1.56601 -0.70225,2.15999 -0.23696,0.594 -0.97929,2.90249 -1.64986,5.13001 -1.69187,5.61997 -3.21575,10.32987 -3.75642,11.61 -0.25104,0.59401 -1.2217,3.3885 -2.15738,6.20999 -0.93567,2.8215 -1.90494,5.61603 -2.1539,6.21 -0.24889,0.594 -0.74474,1.93049 -1.10168,2.97 -0.35696,1.03951 -0.84379,2.376 -1.08187,2.97 -0.23818,0.59401 -0.96622,2.53801 -1.61814,4.32 -0.65191,1.78203 -1.38257,3.72603 -1.62369,4.32 -0.24124,0.594 -1.57467,3.996 -2.96339,7.56001 -2.56537,6.58375 -3.03999,7.73318 -5.07007,12.27911 -0.62857,1.40752 -1.14283,2.80478 -1.14283,3.10501 0,1.30411 -1.25677,0.24797 -4.97315,-4.17911 z M 32.495406,288.8481 c -0.27981,-0.37122 -0.83942,-1.76848 -1.2434,-3.10497 -0.40398,-1.33652 -0.88998,-2.67301 -1.08001,-2.97001 -0.19011,-0.29695 -0.67599,-1.63351 -1.08,-2.97 -0.40399,-1.33649 -0.88849,-2.67302 -1.0767,-2.97 -0.18827,-0.29695 -1.87442,-5.2785 -3.74717,-11.07 -1.87274,-5.79149 -3.59255,-11.01602 -3.82173,-11.60999 -0.46845,-1.21401 -2.03094,-6.1769 -2.72016,-8.64003 -0.2492,-0.891 -0.69632,-2.47047 -0.99333,-3.50997 -0.29697,-1.0395 -0.783,-2.74052 -1.08001,-3.78003 -0.29696,-1.03947 -0.78299,-2.74048 -1.07998,-3.77999 -0.29695,-1.03951 -0.78301,-2.74049 -1.08001,-3.77999 -1.22468,-4.28638 -1.77648,-6.30808 -2.2108,-8.09999 -0.25196,-1.03951 -1.4587699,-5.778 -2.6818699,-10.53002 -1.2231,-4.75199 -2.47068,-9.7335 -2.77241,-11.06999 -0.30186,-1.33649 -0.75523,-3.2805 -1.00776,-4.32 -1.56071,-6.42454 -5.61650001,-26.15657 -7.04806,-34.28999 -0.91502,-5.19862 -1.55437,-8.66381 -2.12481,-11.51619 -0.31636,-1.58193 -0.55874,-3.64744 -0.53865,-4.59001 0.0453,-2.12925 0.41883,-1.34017 2.12775,4.4962 11.70799,39.98607 32.7142999,68.07981 60.5050499,80.91917 9.24295,4.27025 21.458711,7.55922 31.316837,8.4318 3.704527,0.32787 6.014493,0.98225 5.358183,1.5179 -6.93567,5.66033 -22.97581,18.48089 -34.08744,27.24542 -4.05518,3.19864 -9.6442,7.57527 -12.41999,9.72588 -2.77582,2.15058 -7.07289,5.49185 -9.54905,7.42502 -2.47614,1.93312 -4.69413,3.5148 -4.92888,3.5148 -0.23481,0 -0.65573,-0.30369 -0.9356,-0.67502 z M 326.35303,267.56227 c -4.43245,-4.99903 -9.18111,-10.30417 -10.55262,-11.78916 -1.37152,-1.48501 -3.56573,-3.90073 -4.87602,-5.36834 -1.31031,-1.46759 -4.49458,-4.87976 -7.07618,-7.58256 -2.58164,-2.70281 -5.19621,-5.55283 -5.81018,-6.33337 l -1.11634,-1.41921 1.428,-1.12326 c 1.25671,-0.98854 2.1666,-1.12324 7.58643,-1.12324 14.00314,0 29.57596,-2.95767 42.83591,-8.13556 2.82149,-1.10178 5.23163,-1.90865 5.35579,-1.793 0.12429,0.11571 -0.0334,0.75655 -0.34992,1.42438 -0.31667,0.66778 -0.96505,2.12541 -1.44082,3.23915 -0.47577,1.11378 -1.25433,2.93627 -1.7301,4.05002 -1.24731,2.91979 -1.92477,4.57565 -2.37496,5.80499 -0.21766,0.59401 -0.70351,1.80899 -1.08,2.70002 -0.85549,2.02468 -1.24165,3.02925 -2.59486,6.75 -0.5941,1.63348 -1.4892,4.05993 -1.98913,5.39208 -1.25885,3.35445 -3.17959,9.23378 -4.58933,14.04792 -0.6523,2.22749 -1.40663,4.60817 -1.67635,5.29041 -0.26971,0.68221 -0.49031,1.66854 -0.49031,2.19179 0,0.52326 -0.31502,1.38216 -0.70006,1.90873 -0.63099,0.86295 -1.49462,0.0612 -8.75895,-8.13179 z m -154.4521,-4.63414 c -1.4088,-1.26225 -3.07387,-2.64956 -3.70018,-3.0829 -2.46463,-1.70531 -2.46799,-1.59222 0.29788,-10.03748 1.45442,-4.44104 2.87041,-8.56064 3.14668,-9.15465 0.27613,-0.59397 1.53125,-4.23899 2.78888,-8.09999 1.25763,-3.86099 2.48422,-7.28978 2.72577,-7.61952 0.24155,-0.32974 2.59345,-1.49248 5.22648,-2.58388 l 4.78732,-1.98431 16.40418,-1.25433 c 9.25356,-0.70755 16.62892,-1.05125 16.91978,-0.78852 0.28348,0.25624 0.93847,2.46936 1.4553,4.91816 0.51686,2.44883 1.43871,6.76089 2.04858,9.58242 2.8552,13.2095 3.21596,15.17379 2.92565,15.93033 -0.21828,0.56867 -1.10637,0.80965 -2.98378,0.80965 -1.47022,0 -3.69198,0.2241 -4.93725,0.49806 -1.24526,0.27401 -4.08662,0.79702 -6.31411,1.16236 -3.43928,0.56414 -8.47908,1.74134 -15.92999,3.72101 -5.82964,1.54889 -14.74822,5.54824 -18.69381,8.38287 -1.4513,1.04266 -2.8563,1.89571 -3.12225,1.89571 -0.26603,0 -1.6362,-1.03273 -3.04504,-2.29499 z m -20.34492,-15.25501 c -1.09268,-0.74249 -2.13807,-1.35 -2.32304,-1.35 -0.18491,0 -1.35216,-0.68762 -2.59366,-1.52804 -3.0436,-2.06033 -11.03213,-6.03197 -12.13267,-6.03197 -0.77402,0 -0.78608,-0.0915 -0.0952,-0.72424 0.43487,-0.39832 4.44673,-1.6164 8.91521,-2.70684 4.46847,-1.09045 10.23974,-2.67571 12.82501,-3.52284 2.75062,-0.90128 4.70047,-1.29981 4.70047,-0.96067 0,0.92837 -6.62892,18.17459 -6.98576,18.17459 -0.17787,0 -1.21755,-0.60747 -2.31023,-1.34999 z m 88.19987,-0.2492 c -0.24217,-0.16011 -0.98897,-2.47782 -1.65945,-5.15083 -1.45534,-5.80188 -3.95505,-14.8645 -5.42627,-19.67277 -0.58443,-1.91001 -0.98302,-3.55235 -0.88579,-3.64957 0.0974,-0.0974 2.82749,0.82089 6.06724,2.04028 7.51948,2.83026 20.32995,6.48166 28.30041,8.06656 4.81935,0.95832 6.54256,1.54081 7.695,2.60119 0.81675,0.75152 1.48457,1.62467 1.48403,1.94033 -5.3e-4,0.31569 -1.12943,1.28693 -2.50866,2.15834 -2.33702,1.47651 -8.7638,6.12124 -9.37039,6.77206 -0.14847,0.1592 -1.16021,0.95292 -2.24824,1.76347 -1.08802,0.81057 -2.31617,1.81171 -2.72922,2.22473 -0.55917,0.55917 -2.98914,0.80791 -9.51461,0.97399 -4.82002,0.12277 -8.96184,0.0922 -9.20405,-0.0676 z m 77.42615,-29.80005 c -17.30485,-4.06661 -32.26269,-13.35338 -50.74128,-31.50345 l -5.9213,-5.81602 16.77115,-16.53567 c 9.22414,-9.09458 37.76821,-37.04942 63.43131,-62.12185 25.66307,-25.072395 51.96939,-50.786128 58.45853,-57.141599 6.48909,-6.35547 11.93539,-11.418381 12.10288,-11.250921 0.2939,0.293892 -0.4801,8.985197 -1.49437,16.778734 -0.27063,2.079011 -0.75819,6.088486 -1.08364,8.909984 -0.32546,2.821521 -0.72072,5.858997 -0.87836,6.750029 -0.15766,0.890992 -0.49644,3.199484 -0.75287,5.129982 -0.72757,5.477211 -2.86306,17.952613 -4.25206,24.840002 -0.2694,1.336489 -0.75491,3.766489 -1.07863,5.399999 -0.32371,1.63349 -0.80768,3.94201 -1.07551,5.12999 -0.26786,1.18801 -0.77894,3.49651 -1.13584,5.13002 -0.35693,1.63348 -0.85631,3.8205 -1.10979,4.86001 -0.25349,1.03949 -0.69575,2.86198 -0.98281,4.04997 -0.58574,2.42388 -2.5925,9.94413 -3.31426,12.42001 -0.25961,0.891 -0.69935,2.47051 -0.97693,3.51002 -0.62765,2.35071 -5.36559,16.62101 -6.00613,18.08997 -0.25901,0.59401 -1.12116,2.78102 -1.91593,4.86 -2.97616,7.78531 -9.47264,21.13792 -13.39309,27.52766 -8.87388,14.46311 -20.76762,25.27524 -32.14592,29.2226 -6.5072,2.25749 -16.92312,3.07229 -22.50515,1.76053 z M 94.432007,217.35783 c -10.687526,-0.89087 -21.675141,-6.6669 -31.625361,-16.62505 -10.19366,-10.20178 -17.30965,-21.29939 -26.86045,-41.88969 -1.70838,-3.68306 -5.60717,-13.47939 -6.66225,-16.74001 -0.43249,-1.33649 -1.00405,-2.916 -1.27015,-3.50997 -0.62539,-1.3961 -4.90516,-14.56329 -5.96756,-18.36003 -0.2495,-0.89099 -0.72375,-2.59197 -1.05423,-3.77999 -0.33048,-1.18798 -0.84636,-3.01051 -1.14635,-4.05001 -0.30002,-1.03947 -0.7494,-2.74049 -0.99869,-3.78 -0.2492,-1.0395 -1.04523,-4.19849 -1.76877,-7.01998 -0.72353,-2.82152 -1.62294,-6.588017 -1.99864,-8.370009 -0.37573,-1.781984 -0.87995,-3.847492 -1.12048,-4.590011 -0.24063,-0.742486 -0.57714,-2.200486 -0.748,-3.239991 -0.17083,-1.039506 -0.5562,-2.983506 -0.85628,-4.319998 -0.64722,-2.882717 -1.56025,-7.425254 -2.17076,-10.800005 -0.2418499,-1.336492 -0.7258899,-4.009508 -1.0758099,-5.940006 -0.99976,-5.515419 -1.61888,-9.370938 -3.29521,-20.519981 -0.29023,-1.930497 -0.67521,-5.203391 -0.8554,-7.273127 l -0.32763,-3.763096 2.916,2.388642 c 1.60381,1.313777 4.0228499,3.371663 5.3756699,4.573111 1.3528,1.201457 4.51181,3.924774 7.02001,6.051842 2.50819,2.127044 14.1867,12.09006 25.95224,22.13999 20.0788,17.151004 50.80389,43.382919 87.086704,74.351289 8.64676,7.38025 17.13623,14.64659 18.86544,16.14745 1.72923,1.50083 4.1968,3.60292 5.48349,4.67133 5.95865,4.94783 11.5873,9.81879 11.86464,10.26753 0.40123,0.6492 -15.22516,16.72376 -20.91147,21.51117 -5.61874,4.73057 -14.53059,11.47386 -15.16363,11.47386 -0.13011,0 -1.78027,0.92602 -3.66688,2.0578 -4.61768,2.77017 -9.07213,4.7927 -14.2302,6.46126 -6.45153,2.08695 -14.27572,3.01866 -20.789993,2.47568 z m 134.903873,-9.11087 c -0.15185,-0.15184 -4.14112,-0.52537 -8.86501,-0.82997 -4.72386,-0.30461 -11.99084,-0.80512 -16.14885,-1.11226 -4.15799,-0.30715 -10.21362,-0.72341 -13.45692,-0.92503 -3.54931,-0.22072 -5.97608,-0.60625 -6.09566,-0.96857 -0.10929,-0.33106 2.32969,-2.94331 5.42,-5.805 l 5.61872,-5.20303 h 9.9807 9.98071 l 7.23622,5.71022 c 3.97993,3.14065 8.20824,6.52951 9.39622,7.5308 l 2.16002,1.82057 -2.47501,0.0306 c -1.36126,0.0153 -2.59926,-0.0949 -2.75114,-0.24706 z m -8.50655,-26.18387 c -0.0275,-3.41551 -0.2042,-11.28628 -0.39547,-17.49064 l -0.3475,-11.28062 1.83782,0.3448 c 1.01083,0.18951 4.1452,1.07417 6.96531,1.96565 2.82012,0.89146 5.40638,1.6208 5.74723,1.6208 0.34086,0 0.74916,0.33728 0.90735,0.7495 0.25073,0.65355 -12.79575,27.69885 -13.70511,28.4105 -0.18981,0.14848 -0.48377,0.63452 -0.65334,1.08001 -0.16961,0.4455 -0.3299,-1.9845 -0.35629,-5.4 z m -12.19102,4.43658 c -0.65977,-0.46907 -14.30628,-27.35249 -14.30628,-28.18311 0,-0.32304 0.30369,-0.68496 0.67498,-0.80423 0.37126,-0.1194 3.22652,-0.97479 6.34501,-1.90115 3.1185,-0.92638 6.22493,-1.91317 6.90321,-2.19292 0.89892,-0.37073 1.3075,-0.31498 1.50732,0.20573 0.53318,1.38942 -0.55736,33.27871 -1.12424,32.87564 z m 40.50372,-36.17745 c -0.59401,-0.1295 -1.32299,-0.42391 -1.62001,-0.65438 -0.88653,-0.68792 -9.44849,-2.62458 -13.36499,-3.02306 -2.00477,-0.20388 -3.64501,-0.60768 -3.64501,-0.89714 0,-0.28961 1.08401,-1.96837 2.4089,-3.73089 5.1892,-6.90316 23.51111,-35.67405 23.51111,-36.9195 0,-0.10807 0.82511,-1.60657 1.83357,-3.33024 8.9619,-15.317555 25.7028,-49.913166 38.21968,-78.98224 3.25597,-7.561575 6.09458,-14.060448 6.30809,-14.441928 0.26022,-0.465 1.77935,1.01076 4.6096,4.478082 10.18794,12.481034 25.69699,28.588926 33.80907,35.114456 4.7433,3.815602 10.49785,7.767706 11.31034,7.767706 0.92829,0 0.64926,1.694066 -0.43426,2.636679 -1.32501,1.152711 -9.56583,8.604695 -11.41608,10.323313 -1.60755,1.493202 -9.88127,8.983208 -11.33356,10.260002 -0.93327,0.820522 -8.09702,7.320951 -14.56089,13.212615 -1.94455,1.772442 -4.50757,4.101785 -5.69555,5.176375 -1.9433,1.75771 -5.67844,5.15867 -11.88002,10.81703 -4.90347,4.47401 -44.38468,40.16744 -45.62999,41.25238 -0.76836,0.66938 -1.81534,1.07471 -2.43,0.94074 z m -77.76001,-6.50658 c -6.98367,-8.24519 -25.23137,-29.44217 -25.64736,-29.79255 -0.17633,-0.14848 -4.06929,-4.64399 -8.65114,-9.98999 -4.58184,-5.346 -8.58056,-9.990357 -8.88606,-10.320772 -0.30553,-0.330391 -1.88375,-2.127352 -3.50723,-3.993187 -1.62347,-1.865843 -3.20297,-3.666878 -3.51,-4.002258 -0.307,-0.335405 -1.89472,-2.183307 -3.52823,-4.10649 -3.29525,-3.879584 -5.3895,-6.310653 -6.21765,-7.21757 -0.30124,-0.329832 -1.88068,-2.17924 -3.51,-4.109737 -1.62928,-1.930497 -3.0841,-3.631481 -3.23291,-3.779995 -0.14879,-0.148473 -1.84984,-2.092141 -3.78003,-4.319228 C 98.981242,59.956777 97.159002,57.870727 96.862007,57.548201 96.565053,57.225683 95.228496,55.666377 93.892004,54.083078 91.36184,51.085705 91.18905,50.886251 89.117637,48.57136 l -1.264404,-1.413029 9.924843,-9.902614 C 106.56781,28.485679 109.04853,25.8273 114.57766,19.253089 c 0.74935,-0.890991 1.48883,-1.494063 1.64328,-1.3401 0.15461,0.153981 3.23369,6.957919 6.84271,15.119965 13.86831,31.36404 29.3486,62.243727 41.14256,82.070136 6.91847,11.63036 17.6469,27.88578 20.56373,31.15752 1.53055,1.71678 0.87014,2.65217 -2.13494,3.02395 -1.43712,0.17787 -3.34197,0.45449 -4.233,0.61488 -1.51797,0.27339 -1.96007,-0.1099 -7.01998,-6.0838 z m 16.17574,-3.13364 c -3.46299,-7.26428 -4.26324,-8.97222 -7.68364,-16.39891 -0.8891,-1.9305 -2.49895,-5.39403 -3.57742,-7.69671 -1.07848,-2.30271 -2.59054,-5.5832 -3.36015,-7.29 -0.76958,-1.7068 -2.0772,-4.5613 -2.90581,-6.34329 -0.82863,-1.78198 -2.04304,-4.455 -2.69873,-5.94 -0.65569,-1.485001 -1.87068,-4.157993 -2.69998,-5.94001 -0.82931,-1.781991 -1.99143,-4.3335 -2.58243,-5.669991 -0.59101,-1.336492 -1.58826,-3.584242 -2.21607,-4.995011 -0.62784,-1.410729 -1.65274,-3.719253 -2.27761,-5.129981 -0.62483,-1.410761 -1.81459,-4.023011 -2.64389,-5.805003 -0.82931,-1.782016 -2.04678,-4.455 -2.70544,-5.940005 -2.8113,-6.338202 -3.42196,-7.706932 -4.64506,-10.410995 -0.70924,-1.568055 -1.28953,-2.95812 -1.28953,-3.089 0,-0.131026 -0.58026,-1.520937 -1.28953,-3.089 -0.70923,-1.568055 -1.82993,-4.065989 -2.49046,-5.550995 -0.6605,-1.484997 -1.78123,-3.982964 -2.49046,-5.551016 -0.70925,-1.56803 -1.28954,-2.958096 -1.28954,-3.089 0,-0.130726 -0.58028,-1.520945 -1.28953,-3.088967 -3.01466,-6.66511 -3.56949,-7.938538 -4.62123,-10.606867 -0.82601,-2.095605 -0.93601,-2.857338 -0.4332,-2.999817 3.68984,-1.045602 5.34402,-1.394325 6.61395,-1.394325 0.82212,0 2.3734,-0.22716 3.44737,-0.504486 1.07394,-0.277371 3.77516,-0.790128 6.00265,-1.139247 2.22748,-0.349128 4.77899,-0.823212 5.66998,-1.053495 0.89103,-0.23022 3.07802,-0.728991 4.86,-1.108233 2.6702,-0.568234 11.83459,-2.833164 19.44,-4.804474 2.76853,-0.7175897 14.39062,-4.6911597 18.36003,-6.27721969 8.24204,-3.29335001 18.56407,-8.98557001 22.34975,-12.32508031 l 1.28981,-1.13777 -0.34808,11.6099903 c -0.94264,31.4402627 -1.01092,33.4181847 -1.97624,57.2399907 -0.67893,16.755198 -1.0001,23.61146 -1.36585,29.16 -0.29328,4.448852 -1.03093,17.843747 -1.59099,28.890007 -0.15062,2.97002 -0.4068,6.85802 -0.56939,8.64 -0.16256,1.78199 -0.50728,6.83801 -0.766,11.23556 l -0.47042,7.99556 -2.55031,2.26444 c -1.40268,1.24545 -2.82416,2.42792 -3.15886,2.62774 -0.33468,0.19991 -3.43329,0.62618 -6.8858,0.94747 -3.45249,0.32127 -7.02305,0.7333 -7.93456,0.91562 l -1.65729,0.33146 z m 29.67034,4.25607 c 3.73504,-12.21979 7.63481,-33.597 10.07267,-55.214984 3.05318,-27.074712 6.43029,-77.479287 6.44667,-96.2198237 0.002,-2.87645 0.23696,-5.8413403 0.52121,-6.5886603 l 0.51661,-1.35881 4.02993,2.07292 c 16.468,8.4709003 34.71977,14.0390203 46.10182,14.0644303 2.45027,0.006 4.45501,0.22317 4.45501,0.484 0,0.53563 -1.11399,3.30021 -3.02493,7.5069697 -0.71227,1.568022 -1.29507,2.95809 -1.29507,3.089004 0,0.131022 -0.6075,1.581678 -1.34999,3.22398 -0.74252,1.642284 -1.9575,4.329693 -2.70001,5.971986 -0.74249,1.642302 -1.35,3.093108 -1.35,3.224012 0,0.131034 -0.60751,1.581687 -1.34999,3.223978 -0.74252,1.642332 -1.95751,4.329734 -2.70003,5.972033 -0.74247,1.642299 -1.34998,3.093096 -1.34998,3.223975 0,0.131026 -0.5803,1.52097 -1.28954,3.089 -0.70924,1.568055 -1.77507,3.944514 -2.36849,5.281006 -1.51497,3.411922 -3.04734,6.85938 -4.38046,9.855011 -1.45329,3.265579 -3.02334,6.798184 -4.32,9.72 -2.46083,5.544992 -3.50777,7.881923 -4.77783,10.664994 -0.74549,1.633511 -1.78214,3.942003 -2.30368,5.129989 -0.52155,1.188011 -1.58542,3.557277 -2.36413,5.265025 -0.77873,1.707747 -2.02338,4.441473 -2.76586,6.074984 -0.74252,1.63351 -1.9575,4.306491 -2.70002,5.940001 -0.74248,1.63349 -1.92942,4.24576 -2.63762,5.80501 -0.70823,1.55924 -2.04473,4.47524 -2.97001,6.48001 -0.92532,2.00474 -2.41136,5.22449 -3.30235,7.15498 -0.89102,1.93051 -2.31991,5.02875 -3.17533,6.88501 -1.54185,3.34571 -3.28307,7.084 -7.54563,16.19999 l -2.20936,4.72502 h -4.10124 c -3.65597,0 -4.06987,-0.10256 -3.81237,-0.94504 z m 202.36918,-3.37499 c 0,-0.74249 0.12245,-1.04624 0.27245,-0.67498 0.14971,0.37125 0.14971,0.97873 0,1.34999 -0.14969,0.37126 -0.27245,0.0676 -0.27245,-0.67501 z M 356.05177,45.122153 C 341.36658,31.858965 324.40186,9.905512 313.89296,-9.4340177 l -2.09048,-3.8471303 0.88058,-2.63288 c 0.48431,-1.44808 2.74542,-7.37137 5.02464,-13.16287 5.89538,-14.98 14.89318,-39.18908 21.57549,-58.05001 7.40664,-20.905312 7.34342,-20.735282 7.81893,-21.029152 0.22286,-0.13776 1.08407,1.01406 1.91406,2.55944 2.18796,4.07379 3.69093,6.739062 5.6953,10.099712 1.76234,2.95475 2.74092,4.64395 4.92564,8.50231 0.6298,1.11228 1.84478,3.03929 2.69999,4.28229 0.85521,1.24299 1.55492,2.40428 1.55492,2.58062 0,0.38022 10.34824,15.92781 12.41635,18.65478 0.78834,1.0395 2.50892,3.34242 3.82348,5.11761 3.38674,4.5734 3.59078,4.82696 7.79016,9.68213 11.24057,12.99584 20.38276,19.58285 29.10557,20.97068 l 4.02888,0.64103 0.53709,2.17927 c 0.58905,2.39008 1.47864,8.05196 2.00281,12.74717 l 0.33584,3.0078603 -3.1551,2.9874 c -1.73529,1.64303 -4.24856,3.93450001 -5.58509,5.09211001 -1.33649,1.15761999 -2.79449,2.47283999 -3.23999,2.92273999 -0.4455,0.44987 -3.11797,2.8798697 -5.93879,5.4000097 -2.82085,2.520087 -5.49383,4.950087 -5.94,5.399997 -0.44617,0.449874 -3.11919,2.879874 -5.94,5.399973 -2.82087,2.520126 -5.49385,4.950124 -5.94002,5.399998 -0.44616,0.449906 -3.11046,2.879906 -5.92063,5.400002 -2.81019,2.520105 -5.62244,5.068025 -6.24942,5.662027 -0.62701,0.593981 -3.17,2.902506 -5.65113,5.12999 -2.48116,2.227491 -5.02581,4.536008 -5.65477,5.129989 -3.63238,3.43035 -2.85039,3.581123 -8.6655,-1.670925 z M 73.911996,31.070559 c -1.33649,-1.639027 -2.79657,-3.388991 -3.24461,-3.888769 -0.44803,-0.49977 -2.14902,-2.487859 -3.77999,-4.41799 -1.63098,-1.930104 -3.32988,-3.87441 -3.7754,-4.320702 -0.4455,-0.446292 -2.14012,-2.390625 -3.76585,-4.320729 -1.62573,-1.930095 -3.09007,-3.63078 -3.25414,-3.779257 -0.16409,-0.14848 -1.62842,-1.84953 -3.25413,-3.78002 -1.62573,-1.9304997 -3.08462,-3.6314897 -3.24198,-3.7799997 -0.15735,-0.14849 -3.31487,-3.79349 -7.0167,-8.09999 -3.70184,-4.3065 -6.85997,-7.9515103 -7.01806,-8.1000203 -0.15797,-0.14848 -1.61753,-1.84165 -3.24327,-3.76261 -1.62573,-1.92091 -3.71279,-4.35091 -4.63795,-5.4 -3.30106,-3.74319 -13.48435,-15.48241 -16.12982,-18.59434 l -2.6918999,-3.16655 2.4017199,-1.95325 c 18.85203,-15.33178 35.9335,-32.30348 46.80402,-46.50323 3.02207,-3.94764 7.65847,-10.848842 8.79753,-13.095002 0.41418,-0.81675 1.01572,-1.48136 1.3368,-1.47692 0.32106,0.004 2.13161,4.43918 4.02343,9.854982 9.062842,25.94459 19.278605,53.42682 29.020404,78.06997 3.67946,9.30765 6.6899,17.2916803 6.6899,17.7422903 0,0.85456001 -1.49553,2.90305 -6.42809,8.8046697 -3.032668,3.628482 -8.756816,10.324905 -9.231881,10.800006 -0.148482,0.148482 -2.089906,2.335491 -4.314243,4.86 -6.227478,7.067894 -10.397151,11.342645 -11.035701,11.313768 -0.319032,-0.01531 -1.673559,-1.367256 -3.010089,-3.006307 z m 52.110014,-44.457937 c -6.76916,-0.4765 -7.39555,-0.6927 -8.28064,-2.8582 -0.39594,-0.96872 -0.91775,-2.24732 -1.15958,-2.84133 -0.24185,-0.594 -0.80998,-1.93049 -1.26259,-2.97 -0.45263,-1.03951 -1.34683,-3.22649 -1.98719,-4.86 -0.64033,-1.63349 -1.53457,-3.82049 -1.98717,-4.86 -1.30484,-2.99671 -2.68183,-6.37388 -3.41284,-8.37001 -0.21766,-0.59398 -0.67099,-1.74823 -1.00773,-2.56498 -0.33675,-0.81675 -0.85526,-2.09251 -1.15225,-2.835 -0.29696,-0.7425 -0.7588,-1.89675 -1.02618,-2.565 -0.26757,-0.66825 -0.9964,-2.3666 -1.62001,-3.77411 -0.62359,-1.40753 -1.1338,-2.75914 -1.1338,-3.0036 0,-0.2446 -0.486,-1.45035 -1.08001,-2.67977 -0.59401,-1.22944 -1.08001,-2.49337 -1.08001,-2.80876 0,-0.3154 -0.214602,-0.99536 -0.476993,-1.51109 -0.658854,-1.29516 -1.304505,-2.90351 -3.302994,-8.22768 -2.104761,-5.60729 -2.405019,-6.38771 -3.116313,-8.09999 -0.646817,-1.55709 -3.510435,-9.15213 -5.090001,-13.5 -0.593424,-1.6335 -1.280988,-3.456 -1.527921,-4.05 -0.40635,-0.97751 -1.908522,-5.191802 -4.108212,-11.525302 -1.001448,-2.88342 -0.680643,-3.86173 1.270485,-3.87464 0.826065,-0.006 3.567447,-0.38617 6.091946,-0.84594 2.524511,-0.45978 5.926511,-1.0441 7.560022,-1.29846 2.654799,-0.41339 22.193311,-4.32927 26.999981,-5.41127 1.03951,-0.23389 3.10501,-0.68591 4.59002,-1.00424 3.87095,-0.82974 19.14399,-4.76711 23.21999,-5.98608 13.35795,-3.99484 15.21638,-4.59237 21.59998,-6.94489 12.47112,-4.59589 22.72632,-9.19551 29.35021,-13.16406 1.8866,-1.1303 3.56848,-2.05513 3.73747,-2.05513 0.16899,0 0.75335,-0.40368 1.29853,-0.89706 0.54518,-0.49338 1.44928,-1.16162 2.00906,-1.485 0.55981,-0.32337 2.11323,-1.37255 3.45205,-2.33154 l 2.43423,-1.74363 0.57974,4.44361 c 0.63349,4.85587 1.35743,13.98379 2.23679,28.20362 0.92097,14.89278 1.03161,18.65235 1.39053,47.250012 l 0.34223,27.27 -1.82059,1.62 c -4.28142,3.80972 -14.90574,11.15906 -21.16535,14.64105 -3.15525,1.75515 -14.35842,7.26802 -16.95989,8.34565 -0.66824,0.27674 -1.76175,0.73326 -2.43,1.0143 -1.60886,0.67666 -10.33127,3.49332 -13.23001,4.27226 -6.7705,1.81941 -7.47319,1.96179 -14.71497,2.98195 -7.22795,1.0182 -17.12233,1.39056 -24.03002,0.90431 z m 156.60001,-3.8564 c -1.485,-0.25624 -4.401,-0.74123 -6.48,-1.07747 -3.94443,-0.63797 -9.94267,-2.13114 -14.58001,-3.62946 -5.34661,-1.72754 -14.31999,-5.88827 -17.91728,-8.30789 -1.24153,-0.83507 -2.4056,-1.51831 -2.58687,-1.51831 -0.40043,0 -3.34132,-2.06291 -4.85553,-3.40595 -1.09397,-0.97032 -1.1003,-1.30463 -1.1003,-57.91491 0,-45.800922 0.1347,-56.938972 0.68881,-56.939032 0.37886,-7e-5 2.93037,1.05965 5.67003,2.35491 2.73963,1.29525 6.80366,3.14633 9.03115,4.1135 2.22752,0.96716 5.02201,2.19317 6.20999,2.72445 1.18802,0.5313 5.07602,2.10426 8.64002,3.49546 3.56399,1.39119 6.96599,2.74251 7.55999,3.00291 0.97564,0.42771 15.47593,5.20702 19.44,6.40743 13.76098,4.16714 29.38233,6.24786 38.68628,5.15294 3.07654,-0.36207 6.01899,-0.83582 6.53872,-1.05279 1.29125,-0.53899 1.21784,0.0275 -0.71639,5.52708 -0.91381,2.5982 -2.10969,6.06051 -2.65757,7.69399 -0.54786,1.63352 -1.76591,5.03552 -2.70677,7.56002 -0.94087,2.5245 -1.90341,5.197492 -2.13899,5.940002 -0.41519,1.30872 -1.82166,5.0882 -2.71284,7.29 -0.24032,0.59398 -0.97053,2.53798 -1.62243,4.32 -0.65192,1.78199 -1.38177,3.72599 -1.62194,4.32 -0.24002,0.594 -1.45426,3.75299 -2.69806,7.01998 -1.24379,3.26702 -2.51412,6.54752 -2.82296,7.29 -0.30883,0.74252 -0.80038,1.95751 -1.09231,2.70002 -0.29175,0.74248 -0.7454,1.77194 -1.00773,2.28767 -0.26237,0.51573 -0.477,1.19569 -0.477,1.51109 0,0.31539 -0.486,1.57932 -1.08001,2.80876 -0.594,1.22942 -1.08,2.44441 -1.08,2.69998 0,0.25563 -0.486,1.47058 -1.08002,2.70002 -0.59397,1.22943 -1.07997,2.44441 -1.07997,2.69999 0,0.25562 -0.486,1.47055 -1.08,2.70001 -0.59401,1.22943 -1.08001,2.43532 -1.08001,2.67978 0,0.24461 -0.51022,1.59607 -1.13383,3.00359 -0.62357,1.40749 -1.3278,3.0451 -1.56494,3.63911 -0.23694,0.594 -0.8008,1.9305 -1.25266,2.97 -0.45184,1.0395 -1.58971,3.834 -2.52859,6.21 -1.69354,4.28591 -2.27861,5.68394 -4.01124,9.58498 l -0.89942,2.02501 -6.04966,-0.0603 c -3.3273,-0.0334 -7.26466,-0.27001 -8.74966,-0.52647 z m 129.67153,-23.19881 c -23.55591,-24.58248 -41.19311,-57.03715 -50.82993,-93.533532 -2.20223,-8.34015 -2.30672,-9.30095 -0.93146,-8.56493 2.82204,1.51029 16.99894,16.70086 22.48638,24.09416 1.1022,1.48499 2.30292,3.06999 2.6683,3.52219 6.12033,7.57486 16.56935,27.146542 21.9041,41.027802 0.9702,2.5245 1.9708,5.07598 2.22354,5.66999 0.86834,2.04067 4.69019,14.20614 6.44646,20.52001 0.24798,0.89099 0.74359,2.9565 1.10168,4.59 0.35807,1.63349 0.86666,3.52817 1.13021,4.21041 0.61979,1.6043 0.61863,4.42959 -0.002,4.42959 -0.2645,0 -3.05339,-2.68455 -6.19752,-5.96569 z M 0.47199609,-56.572498 c 0,-0.29359 0.21185,-1.09179 0.47094,-1.77399 0.25900001,-0.68224 0.76110001,-2.21243 1.11570001,-3.40041 0.35461,-1.18801 0.85946,-2.64601 1.12186,-3.24 0.26237,-0.594 0.83188,-2.17351 1.26547,-3.51 0.85526,-2.63628 2.63833,-7.25292 3.96266,-10.26 3.5672299,-8.09993 7.2778499,-15.69488 9.3657599,-19.17001 0.89223,-1.48501 1.77909,-3.064492 1.97082,-3.509992 0.19165,-0.44549 1.03672,-1.82579 1.87772,-3.06729 0.84098,-1.24153 1.52909,-2.38716 1.52909,-2.54588 0,-0.15888 0.73567,-1.32994 1.6348,-2.60272 0.89914,-1.27275 2.64265,-3.77212 3.87447,-5.55411 1.23182,-1.78199 2.38081,-3.3615 2.55325,-3.51001 0.17236,-0.14849 0.9768,-1.16021 1.78738,-2.24825 0.81057,-1.08805 1.78119,-2.30895 2.15692,-2.71315 0.37576,-0.40416 2.50568,-2.7906 4.73316,-5.30313 4.96887,-5.60469 7.27883,-7.92179 12.29291,-12.33091 l 3.89547,-3.42548 0.59101,1.53546 c 2.07717,5.39651 2.18413,6.08218 1.60183,10.26866 -1.99287,14.32811 -10.32984,31.01673 -22.79195,45.623882 -6.78401,7.9517 -19.04593,19.49238 -27.4474099,25.83292 -0.98386,0.74251 -2.66249,2.04122 -3.73031,2.88604 -2.56476,2.02914 -3.83155001,2.69645 -3.83155001,2.01837 z M 73.817216,-136.34054 c -1.22321,-0.22042 -1.5837,-0.73165 -2.35043,-3.33336 -0.49806,-1.69015 -1.09547,-3.6805 -1.32755,-4.42301 -0.23205,-0.74249 -0.71845,-2.44351 -1.08084,-3.78 -0.36237,-1.33649 -0.89706,-3.03319 -1.1882,-3.77041 -0.45314,-1.14754 -0.30907,-1.52284 1.00124,-2.60793 4.78773,-3.96481 21.437825,-12.93425 31.365574,-16.8967 0.66824,-0.26665 1.88326,-0.76045 2.70001,-1.09722 3.40476,-1.40373 9.07246,-3.47685 11.47499,-4.19725 1.03951,-0.31172 3.348,-1.02555 5.12999,-1.58631 3.17108,-0.99784 5.37138,-1.60792 9.72,-2.69506 1.18801,-0.29695 3.13201,-0.79896 4.32003,-1.11548 1.18798,-0.31652 4.71149,-1.06645 7.82997,-1.66652 3.11852,-0.60006 6.88501,-1.32458 8.37001,-1.61003 1.485,-0.28532 3.79349,-0.65848 5.13002,-0.8289 1.33649,-0.17053 4.25249,-0.55752 6.47997,-0.86018 9.39886,-1.27691 13.91706,-1.59799 41.32213,-2.93647 l 7.57208,-0.36982 0.59722,1.27416 c 0.32846,0.70075 0.83007,2.56167 1.11472,4.13533 0.50312,2.78176 0.47308,2.89855 -1.08196,4.20706 -4.88403,4.10962 -22.70066,14.87721 -33.91833,20.49867 -15.59514,7.81519 -34.67769,14.96874 -48.81583,18.2998 -2.07901,0.48984 -4.75203,1.12029 -5.94001,1.401 -3.50998,0.8294 -10.90177,2.08587 -17.55001,2.9832 -6.010784,0.8113 -27.940637,1.50411 -30.874794,0.97543 z m 256.864804,-8.11178 c -31.68193,-2.07907 -58.26391,-8.88193 -79.97671,-20.46771 -5.79315,-3.09118 -15.33673,-9.15306 -16.00001,-10.16287 -0.53636,-0.81654 -0.52433,-13.16165 0.0122,-13.4938 0.2345,-0.14481 2.23927,-0.0493 4.455,0.21245 2.2157,0.26176 6.45858,0.74469 9.42858,1.07294 8.43736,0.9325 12.59817,1.56007 21.73499,3.27814 5.5455,1.04277 15.95012,3.43727 18.49501,4.25638 0.74249,0.23909 2.4435,0.74239 3.77999,1.1187 4.88584,1.37565 13.90858,4.4838 20.11676,6.92989 6.43057,2.53365 22.31406,10.57434 25.86662,13.0944 0.78835,0.55924 1.57048,1.01677 1.73802,1.01677 0.40005,0 6.80187,4.39604 7.09683,4.87328 0.12522,0.20267 -0.006,1.07233 -0.29511,1.93258 -0.28747,0.86029 -0.86244,2.65765 -1.27744,3.99414 l -0.75458,2.43 -5.86053,0.0459 c -3.22328,0.0245 -7.0755,-0.034 -8.56049,-0.13133 z"
             id="path6396"
             inkscape:connector-curvature="0" />
        </g>
      </g>
    </g>
  </g>
</svg>
