<?xml version="1.0" encoding="UTF-8" standalone="no"?>
<!-- Created with Inkscape (http://www.inkscape.org/) -->

<svg
   xmlns:dc="http://purl.org/dc/elements/1.1/"
   xmlns:cc="http://creativecommons.org/ns#"
   xmlns:rdf="http://www.w3.org/1999/02/22-rdf-syntax-ns#"
   xmlns:svg="http://www.w3.org/2000/svg"
   xmlns="http://www.w3.org/2000/svg"
   xmlns:sodipodi="http://sodipodi.sourceforge.net/DTD/sodipodi-0.dtd"
   xmlns:inkscape="http://www.inkscape.org/namespaces/inkscape"
   width="210mm"
   height="297mm"
   viewBox="0 0 210 297"
   version="1.1"
   id="svg8"
   inkscape:version="0.92.2 5c3e80d, 2017-08-06"
   sodipodi:docname="spider.svg">
  <defs
     id="defs2">
    <clipPath
       id="clipPath45"
       clipPathUnits="userSpaceOnUse">
      <path
         inkscape:connector-curvature="0"
         id="path43"
         d="M 0,864 H 864 V 0 H 0 Z" />
    </clipPath>
    <clipPath
       id="clipPath3854"
       clipPathUnits="userSpaceOnUse">
      <path
         inkscape:connector-curvature="0"
         id="path3852"
         d="M 0,864 H 864 V 0 H 0 Z" />
    </clipPath>
    <clipPath
       id="clipPath4053"
       clipPathUnits="userSpaceOnUse">
      <path
         inkscape:connector-curvature="0"
         id="path4051"
         d="M 0,864 H 864 V 0 H 0 Z" />
    </clipPath>
    <clipPath
       id="clipPath4150"
       clipPathUnits="userSpaceOnUse">
      <path
         inkscape:connector-curvature="0"
         id="path4148"
         d="M 0,864 H 864 V 0 H 0 Z" />
    </clipPath>
    <clipPath
       id="clipPath4295"
       clipPathUnits="userSpaceOnUse">
      <path
         inkscape:connector-curvature="0"
         id="path4293"
         d="M 0,864 H 864 V 0 H 0 Z" />
    </clipPath>
    <clipPath
       id="clipPath4410"
       clipPathUnits="userSpaceOnUse">
      <path
         inkscape:connector-curvature="0"
         id="path4408"
         d="M 0,864 H 864 V 0 H 0 Z" />
    </clipPath>
    <clipPath
       id="clipPath4615"
       clipPathUnits="userSpaceOnUse">
      <path
         inkscape:connector-curvature="0"
         id="path4613"
         d="M 0,864 H 864 V 0 H 0 Z" />
    </clipPath>
    <clipPath
       id="clipPath4838"
       clipPathUnits="userSpaceOnUse">
      <path
         inkscape:connector-curvature="0"
         id="path4836"
         d="M 0,864 H 864 V 0 H 0 Z" />
    </clipPath>
    <clipPath
       id="clipPath5001"
       clipPathUnits="userSpaceOnUse">
      <path
         inkscape:connector-curvature="0"
         id="path4999"
         d="M 0,864 H 864 V 0 H 0 Z" />
    </clipPath>
    <inkscape:perspective
       id="perspective9"
       inkscape:persp3d-origin="372.04724 : 350.78739 : 1"
       inkscape:vp_z="744.09448 : 526.18109 : 1"
       inkscape:vp_y="0 : 1000 : 0"
       inkscape:vp_x="0 : 526.18109 : 1"
       sodipodi:type="inkscape:persp3d" />
  </defs>
  <sodipodi:namedview
     id="base"
     pagecolor="#000000"
     bordercolor="#666666"
     borderopacity="1.0"
     inkscape:pageopacity="0"
     inkscape:pageshadow="2"
     inkscape:zoom="0.91846942"
     inkscape:cx="396.85039"
     inkscape:cy="556.87007"
     inkscape:document-units="mm"
     inkscape:current-layer="g5136"
     showgrid="false"
     inkscape:window-width="2560"
     inkscape:window-height="1385"
     inkscape:window-x="2560"
     inkscape:window-y="27"
     inkscape:window-maximized="1"
     showguides="true"
     inkscape:guide-bbox="true">
    <sodipodi:guide
       position="105.43356,205.96993"
       orientation="1,0"
       id="guide3815"
       inkscape:locked="false" />
    <sodipodi:guide
       position="92.758485,149.50825"
       orientation="0,1"
       id="guide3817"
       inkscape:locked="false" />
  </sodipodi:namedview>
  <metadata
     id="metadata5">
    <rdf:RDF>
      <cc:Work
         rdf:about="">
        <dc:format>image/svg+xml</dc:format>
        <dc:type
           rdf:resource="http://purl.org/dc/dcmitype/StillImage" />
        <dc:title></dc:title>
      </cc:Work>
    </rdf:RDF>
  </metadata>
  <g
     inkscape:label="Layer 1"
     inkscape:groupmode="layer"
     id="layer1">
    <g
       transform="matrix(0.35277777,0,0,-0.35277777,-70.777455,287.43463)"
       inkscape:label="1"
       id="g37">
      <g
         id="g39">
        <g
           id="g5136"
           transform="matrix(0.75000002,0,0,-0.75000002,342.50983,505.50165)"
           style="fill:#ffeeaa">
          <path
             style="fill:#ffeeaa;stroke-width:1.57196534"
             d="m 78.747708,381.29418 c -0.99848,-0.40907 -2.744517,-3.88971 -3.880061,-7.73563 -1.135635,-3.84604 -2.617717,-6.99279 -3.293518,-6.99279 -0.675496,0 -1.22874,-1.62695 -1.22874,-3.61543 0,-1.98862 -0.584602,-4.28754 -1.298643,-5.10897 -0.714761,-0.82168 -2.256432,-4.67652 -3.427112,-8.56722 -1.170655,-3.89058 -2.77526,-7.93423 -3.5658,-8.9858 -2.132564,-2.83687 1.098805,-31.1405 3.741638,-32.77389 0.773591,-0.47768 1.405936,-4.36407 1.405936,-8.63594 0,-4.27194 0.707612,-7.76708 1.57199,-7.76708 0.864445,0 1.571991,-3.14146 1.571991,-6.98101 0,-3.83961 0.707612,-7.41829 1.571964,-7.95264 0.864471,-0.53473 1.571911,-4.07122 1.571911,-7.85977 0,-3.78865 0.707587,-7.32552 1.571965,-7.85987 0.864458,-0.5347 1.571956,-3.44074 1.571956,-6.45867 0,-7.53744 3.79168,-14.20624 9.851445,-17.32682 2.795155,-1.43957 6.226308,-3.92739 7.624595,-5.52859 1.398276,-1.60113 3.697287,-2.91121 5.108829,-2.91121 1.411656,0 2.566576,-0.62112 2.566576,-1.38131 0,-0.75933 2.12218,-2.26027 4.71591,-3.3347 2.59374,-1.07431 4.71591,-2.4554 4.71591,-3.06897 0,-0.61313 1.94531,-2.09387 4.32295,-3.28958 2.3776,-1.19561 6.20052,-3.43734 8.49545,-4.98151 2.29487,-1.54415 5.0421,-2.80764 6.10494,-2.80764 2.37811,0 9.3675,7.91481 9.37008,10.61087 0.001,1.08072 0.70937,1.96487 1.57395,1.96487 0.86446,0 1.57196,2.12219 1.57196,4.71591 0,2.59383 -0.68354,4.71605 -1.51894,4.71605 -1.47574,0 -19.35842,10.893 -23.17316,14.1157 -1.04431,0.88223 -2.83348,1.60395 -3.97589,1.60395 -1.14247,0 -3.09698,1.41475 -4.34332,3.14386 -1.24633,1.72915 -3.15274,3.14393 -4.23656,3.14393 -2.60292,0 -6.090009,7.10467 -7.329775,14.93373 -0.547162,3.45826 -1.675454,9.47109 -2.50613,13.36164 -0.830566,3.89059 -2.244385,10.61084 -3.141358,14.93373 -0.896995,4.32292 -2.372733,11.04303 -3.279408,14.93363 -3.13719,13.4625 -3.55677,22.1029 -1.398795,28.80952 1.160865,3.60781 2.505835,6.91342 2.988856,7.34564 1.532311,1.37136 7.899463,21.49352 7.899463,24.96479 0,1.9588 -1.002595,3.33059 -2.433937,3.33059 -1.33859,0 -5.362115,1.41476 -8.941069,3.14394 -3.578938,1.72918 -6.55117,3.08808 -6.604894,3.01982 -0.05336,-0.071 -0.914675,-0.45807 -1.913155,-0.86713 z M 332.86355,379.0468 c -3.02602,-1.59402 -6.73982,-2.93218 -8.25278,-2.97368 -1.78986,-0.0534 -2.74264,-1.3112 -2.72726,-3.61246 0.0265,-3.83427 3.44217,-14.60056 5.18686,-16.34528 0.59266,-0.59262 1.07727,-2.72796 1.07727,-4.74523 0,-2.0174 0.55253,-3.66798 1.22878,-3.66798 0.67551,0 2.16589,-3.17354 3.31112,-7.05226 2.03806,-6.90247 1.86823,-10.82374 -1.15826,-26.74497 -0.82167,-4.32291 -2.23528,-11.7504 -3.1412,-16.50563 -0.90591,-4.75524 -2.74534,-12.7478 -4.08764,-17.76128 -1.3424,-5.01349 -2.4406,-11.55683 -2.4406,-14.54072 0,-2.98377 -0.7076,-5.4251 -1.57199,-5.4251 -0.86445,0 -1.57198,-0.96712 -1.57198,-2.14914 0,-2.1785 -11.16496,-10.42658 -14.11399,-10.42658 -0.88317,0 -1.60565,-0.70762 -1.60565,-1.57198 0,-0.86446 -0.92767,-1.572 -2.06151,-1.572 -1.13387,0 -3.4629,-1.23797 -5.17572,-2.75092 -3.95228,-3.49142 -11.59161,-8.18639 -15.16327,-9.31903 -2.71226,-0.85998 -4.13427,-9.88804 -1.57198,-9.97991 0.64875,-0.0266 2.91276,-2.8528 5.03195,-6.28791 2.11906,-3.43501 4.72473,-6.2456 5.79044,-6.2456 2.21289,0 18.38155,9.60948 19.17596,11.39679 0.28787,0.64878 1.22183,1.17895 2.07469,1.17895 1.89646,0 16.05968,9.53721 16.78892,11.30531 0.28786,0.69868 1.34927,1.27131 2.3579,1.27234 2.39483,0.001 9.16053,6.15648 11.65881,10.60461 1.08065,1.92426 1.9649,5.84254 1.9649,8.7074 0,2.86492 0.63541,5.88092 1.41092,6.7022 1.32083,1.39801 2.00133,4.90369 4.18021,21.53594 0.48125,3.6745 1.49856,8.09559 2.26043,9.82478 1.29958,2.94932 1.97892,6.54386 4.15957,22.00748 0.48746,3.45834 1.52154,6.95993 2.29754,7.78127 2.51572,2.66252 1.56346,17.9759 -1.49941,24.11371 -1.60076,3.20765 -3.87731,9.19228 -5.05912,13.29903 -1.18174,4.10676 -2.70156,7.46681 -3.37744,7.46681 -0.67552,0 -1.22876,2.12221 -1.22876,4.71597 0,2.59371 -0.70765,4.71582 -1.57197,4.71582 -0.86452,0 -1.57197,0.98537 -1.57197,2.18983 0,1.72177 -4.00171,4.72295 -5.23747,3.92793 -0.14538,-0.0936 -2.74025,-1.47435 -5.7663,-3.06851 z M 195.3165,323.5717 c -2.59375,-0.98361 -5.54638,-2.49999 -6.56137,-3.36967 -1.01506,-0.86983 -5.40106,-4.41073 -9.74662,-7.86907 -4.34553,-3.45829 -7.93612,-7.03865 -7.97919,-7.9564 -0.0446,-0.91765 -1.49292,-3.18709 -3.22213,-5.04316 -1.72916,-1.85602 -3.14393,-4.46523 -3.14393,-5.79829 0,-1.33293 -0.7076,-2.42368 -1.57197,-2.42368 -0.86448,0 -1.57199,-1.07069 -1.57199,-2.37921 0,-1.30866 -0.62029,-3.60764 -1.37896,-5.10896 -5.07702,-10.04943 -6.73318,-34.59059 -3.0941,-45.84695 6.9695,-21.55779 8.48712,-24.39849 18.28217,-34.22049 5.4335,-5.44837 10.84012,-9.90631 12.01454,-9.90631 1.1745,0 2.56479,-1.11892 3.08949,-2.48651 1.25645,-3.27425 1.26225,-3.24156 -1.01076,-5.7148 -4.44841,-4.84024 -5.89481,-9.57266 -5.89481,-19.28673 0,-5.63144 0.59354,-10.23908 1.31958,-10.23908 0.72544,0 2.19207,-1.91476 3.25838,-4.25504 1.06633,-2.34034 3.30206,-5.20997 4.96819,-6.37699 2.99223,-2.09582 4.26674,-8.23159 1.70981,-8.23159 -2.44977,0 -4.96816,-7.95872 -4.96816,-15.70077 0,-4.23122 -0.70762,-8.13026 -1.57194,-8.66461 -3.37202,-2.08406 -1.39475,-17.722071 3.62737,-28.688411 2.85802,-6.240841 4.23244,-3.816159 4.23244,7.466887 v 11.003724 h 9.32577 c 10.55844,0 12.26991,-1.96918 10.39533,-11.960979 -0.70669,-3.76873 -0.31101,-6.101534 1.31041,-7.72317 2.97019,-2.970242 4.11993,-2.939424 4.11993,0.110872 0,1.33868 1.41477,5.362146 3.14393,8.941084 2.57509,5.329924 3.14392,9.724233 3.14392,24.289533 0,9.95027 -0.64609,17.78234 -1.46606,17.78234 -0.80655,0 -1.9437,1.50503 -2.52751,3.34457 -0.81011,2.55226 0.11568,4.34944 3.9076,7.58583 7.60606,6.49159 9.86034,12.04996 9.83653,24.25397 -0.004,5.95041 -0.68978,11.25576 -1.50654,11.78974 -1.72644,1.1282 -5.60323,8.12031 -4.83446,8.71941 0.28606,0.2228 3.68898,2.10773 7.56185,4.18821 13.08163,7.02757 23.89661,20.51671 29.7532,37.11 2.80332,7.94259 3.435,13.17975 3.41076,28.28011 -0.0195,11.27725 -0.66307,18.74391 -1.64701,19.07186 -0.88941,0.29681 -1.61718,2.1816 -1.61718,4.18934 0,8.86578 -18.31681,32.05344 -29.86741,37.80987 -3.02606,1.50804 -6.73025,3.34818 -8.23153,4.08942 -3.88809,1.91936 -29.38119,1.35431 -34.99757,-0.77536 z M 376.83151,247.288 c -2.56786,-2.45398 -4.66883,-5.13612 -4.66883,-5.9602 0,-0.82436 -1.25713,-2.86965 -2.79365,-4.54572 -1.5365,-1.67616 -4.5275,-5.52326 -6.64667,-8.54923 -5.51738,-7.87857 -10.47824,-12.57577 -13.28172,-12.57577 -1.33615,0 -2.42938,-0.70764 -2.42938,-1.57195 0,-0.8645 -1.74692,-1.57201 -3.88214,-1.57201 -2.13511,0 -6.40091,-1.41477 -9.47952,-3.14398 -3.07863,-1.72907 -6.6467,-3.14384 -7.92904,-3.14384 -1.28226,0 -3.55976,-0.6247 -5.06108,-1.38857 -6.15565,-3.1314 -10.88022,-4.74647 -16.09129,-5.50062 -3.02603,-0.43756 -9.03875,-1.58856 -13.36165,-2.55708 -4.32292,-0.96844 -10.51264,-2.14306 -13.75478,-2.61032 -5.70817,-0.82258 -5.89487,-1.05211 -5.89487,-7.25351 0,-7.72717 2.92661,-16.42529 5.9118,-17.57091 1.1967,-0.45901 3.49286,-0.13018 5.10254,0.73165 1.60966,0.86182 5.44902,1.56638 8.53191,1.56638 3.08288,0 5.60524,0.70758 5.60524,1.57193 0,0.86447 2.6025,1.57201 5.78324,1.57201 5.64721,0 14.26532,2.14312 19.73985,4.90886 1.5013,0.75842 3.66741,1.37897 4.81363,1.37897 1.1462,0 5.01227,1.41476 8.59121,3.14394 3.57897,1.72916 7.60244,3.14392 8.94108,3.14392 1.33859,0 2.43387,0.70759 2.43387,1.57201 0,0.8644 1.42437,1.57195 3.16525,1.57195 1.7409,0 4.39356,0.62473 5.89488,1.38859 1.50129,0.76374 4.85173,2.26041 7.44546,3.32608 8.03116,3.29956 9.16949,4.04717 10.89874,7.15798 0.9224,1.65917 2.91492,4.17068 4.428,5.58117 1.51298,1.41052 2.75092,3.56327 2.75092,4.78402 0,1.22076 1.41475,3.2392 3.14388,4.48557 1.7292,1.24634 3.14396,3.03753 3.14396,3.98052 0,0.94295 1.25717,3.08583 2.79369,4.76178 1.53648,1.67608 4.46629,5.41955 6.51061,8.31884 3.04449,4.31777 3.32113,5.52209 1.52932,6.6569 -1.20335,0.76197 -2.54874,1.39613 -2.9899,1.40941 -0.4411,0.004 -2.56323,1.65208 -4.71581,3.64192 -6.47675,5.98698 -9.02112,6.2184 -14.17875,1.28956 z m -334.781507,1.38049 c 0,-0.86449 -0.884055,-1.59436 -1.965013,-1.62174 -3.577041,-0.09 -10.610693,-7.59269 -10.610693,-11.31763 0,-2.01214 1.41477,-4.67804 3.143885,-5.92428 1.729157,-1.24639 3.143923,-3.09627 3.143923,-4.11081 0,-1.01454 2.122202,-4.1164 4.715912,-6.89299 2.593727,-2.7766 4.715864,-5.71931 4.715864,-6.53943 0,-0.81989 2.118883,-3.75154 4.708581,-6.5146 2.589817,-2.76298 4.711943,-5.73521 4.71594,-6.60481 0.0029,-0.86979 2.306337,-2.50764 5.11618,-3.63989 2.809915,-1.13228 6.337179,-2.71975 7.838494,-3.52771 1.501328,-0.80831 4.154024,-1.46894 5.894865,-1.46894 1.740869,0 3.165244,-0.70762 3.165244,-1.572 0,-0.86443 1.070693,-1.57197 2.379332,-1.57197 1.308603,0 3.607506,-0.65058 5.108813,-1.4463 1.501296,-0.79584 6.973972,-2.97419 12.161429,-4.84161 5.187521,-1.86731 10.660091,-4.04599 12.161391,-4.84146 1.5013,-0.79587 4.71992,-1.44635 7.15241,-1.44635 2.43262,0 5.09489,-0.63896 5.91624,-1.41953 0.82164,-0.78074 4.6766,-1.82779 8.56719,-2.32669 3.89064,-0.49902 10.37348,-1.34129 14.4064,-1.872 8.64527,-1.13753 9.78948,0.19331 11.23847,13.07031 1.09551,9.73613 -0.69248,11.41145 -12.17977,11.41145 -3.94753,0 -7.17721,0.70761 -7.17721,1.57196 0,0.86448 -3.53694,1.57197 -7.85977,1.57197 -4.32292,0 -7.85988,0.70763 -7.85988,1.57198 0,0.86448 -1.63563,1.57202 -3.63461,1.57202 -1.99908,0 -6.56297,1.41477 -10.14191,3.1439 -3.57893,1.72919 -7.602418,3.14396 -8.941063,3.14396 -1.338568,0 -2.43386,0.70759 -2.43386,1.5719 0,0.86448 -2.122197,1.57194 -4.71592,1.57194 -2.593743,0 -4.715817,0.70766 -4.715817,1.57199 0,0.86447 -1.373059,1.57199 -3.051172,1.57199 -1.678125,0 -3.488406,0.70761 -4.022669,1.57201 -0.534736,0.86443 -2.698273,1.57195 -4.808706,1.57195 -2.501403,0 -3.837114,0.89341 -3.837114,2.56652 0,1.41154 -1.274313,3.71058 -2.831796,5.10884 -1.557336,1.39829 -5.978564,7.14034 -9.824769,12.76021 -3.846219,5.61976 -7.826698,11.10203 -8.845711,12.18278 -2.213978,2.34811 -6.79311,2.61308 -6.79311,0.39306 z M 134.00996,157.4944 c -1.7292,-0.74331 -7.38828,-1.43995 -12.5757,-1.54867 -5.18755,-0.10879 -16.0412,-1.05456 -24.11936,-2.10182 -14.554662,-1.88685 -14.742987,-1.96736 -20.828476,-8.89461 -3.377652,-3.8449 -6.141035,-7.90041 -6.141035,-9.01244 0,-1.11214 -0.53027,-2.04103 -1.179026,-2.06428 -0.648823,-0.0266 -2.9128,-2.85282 -5.031885,-6.28781 -2.119063,-3.43511 -4.418094,-6.24558 -5.108945,-6.24558 -0.69066,0 -1.255861,-0.76909 -1.255861,-1.70797 0,-1.67489 -8.364125,-14.34463 -12.127716,-18.37089 -1.050341,-1.12366 -3.148225,-4.139479 -4.661814,-6.701742 -1.513525,-2.562284 -3.306763,-4.65873 -3.984998,-4.65873 -0.678186,0 -1.233939,-0.884038 -1.234921,-1.964981 -0.001,-1.080679 -1.769564,-4.020245 -3.929979,-6.532348 -2.160348,-2.512103 -3.927924,-5.114204 -3.927924,-5.78261 0,-0.668376 -1.152576,-2.36769 -2.561286,-3.77642 -2.767179,-2.767064 -3.316328,-15.973553 -0.868933,-20.902502 0.737042,-1.483966 2.245011,-6.942561 3.351634,-12.130004 2.914803,-13.66404 5.030241,-20.292822 6.852615,-21.473826 2.011155,-1.303187 11.48287,0.007 17.233804,2.381718 4.103476,1.695387 4.298246,2.213452 3.335995,8.874325 -0.562316,3.890659 -1.638884,8.265267 -2.393027,9.721488 -0.753939,1.456111 -1.371028,4.774471 -1.371028,7.373979 0,2.599617 -0.707585,5.163673 -1.571931,5.698051 -1.857192,1.147735 -2.146022,13.361716 -0.316392,13.361716 0.690689,0 2.989781,2.810455 5.108964,6.245576 2.119049,3.434993 4.383412,6.264536 5.031847,6.287815 0.648757,0.02664 1.180664,0.92657 1.182671,2.007236 0.0014,1.080726 2.122492,4.440804 4.712204,7.466886 2.589699,3.026011 4.710143,6.327169 4.712166,7.335801 0.0013,1.008657 0.533837,2.069695 1.182726,2.357939 1.840387,0.818081 11.396722,14.983493 11.396722,16.893623 0,0.9394 0.540083,1.70802 1.200913,1.70802 0.660357,0 2.921763,2.78438 5.025053,6.18772 4.892932,7.91688 7.690463,9.19946 22.069413,10.1183 22.14456,1.41503 46.36931,3.88236 49.27513,5.01892 2.25472,0.88139 2.6931,2.18048 1.96498,5.8211 -0.51511,2.57743 -0.93726,7.42729 -0.93726,10.77754 v 6.09141 l -12.18268,-0.11072 c -6.70055,-0.0626 -13.59755,-0.71831 -15.32666,-1.46147 z m 125.99484,-0.7335 c -0.56323,-1.46708 -1.0236,-6.38826 -1.0236,-10.93583 0,-8.23679 0.0266,-8.27543 6.0773,-10.0892 3.34242,-1.00143 11.4356,-1.82079 17.98478,-1.82079 6.54913,0 12.34471,-0.7076 12.87912,-1.57199 0.53467,-0.86441 6.28163,-1.57196 12.77181,-1.57196 15.22268,0 19.88484,-2.5104 27.0047,-14.54072 1.40708,-2.37758 3.02745,-4.32287 3.60079,-4.32287 0.573,0 1.92128,-2.12212 2.99563,-4.71585 1.07444,-2.59383 2.57501,-4.71593 3.33464,-4.71593 0.76017,0 1.38458,-0.88404 1.38859,-1.96496 0.002,-1.080686 2.12612,-4.22563 4.71582,-6.988589 2.58981,-2.762938 4.70863,-5.465042 4.70863,-6.004603 0,-1.078043 9.42373,-15.220685 10.98193,-16.481167 0.5347,-0.432244 2.07236,-3.261781 3.41758,-6.287801 2.45292,-5.517649 2.26999,-18.86363 -0.25843,-18.86363 -0.68711,0 -1.64077,-3.006342 -2.12006,-6.680817 -0.47943,-3.67449 -1.32218,-9.22109 -1.873,-12.325917 -0.91383,-5.150112 -0.61045,-5.794258 3.46408,-7.347886 14.11284,-5.381639 20.97137,-3.182451 20.97137,6.724585 0,2.913221 0.70761,5.734036 1.57196,6.268298 0.86445,0.53471 1.57197,3.178609 1.57197,5.876077 0,2.697461 0.65947,7.076876 1.4654,9.732009 5.32478,17.540815 5.36756,17.868676 2.68148,20.554622 -1.41619,1.4163 -2.5749,3.121895 -2.5749,3.790257 0,0.668393 -1.76758,3.270502 -3.92804,5.782517 -2.16039,2.512088 -3.9288,5.295548 -3.92985,6.185415 -10e-4,0.890292 -1.41678,2.63759 -3.14595,3.883897 -1.72907,1.24635 -3.14384,3.177377 -3.14384,4.291266 0,1.11383 -2.12221,4.245823 -4.71592,6.959974 -2.59375,2.714133 -4.71592,5.890843 -4.71592,7.059473 0,1.1686 -0.58823,2.12488 -1.30634,2.12488 -0.7183,0 -2.30524,1.94529 -3.52618,4.32283 -1.22092,2.37759 -3.46264,5.46703 -4.98148,6.86527 -1.51895,1.39829 -2.76255,3.16669 -2.76361,3.92994 -0.001,0.76283 -1.76954,3.44293 -3.92997,5.95492 -2.16035,2.51215 -3.92794,5.1143 -3.92794,5.78263 0,0.66838 -0.88496,2.15 -1.96705,3.29239 -1.08187,1.14251 -3.69033,4.64543 -5.79655,7.7843 -3.68572,5.49272 -4.27616,5.74829 -15.71763,6.80542 -6.53843,0.60423 -18.25449,1.72712 -26.03567,2.49559 -35.58202,3.51399 -41.1118,3.61416 -42.20545,0.76378 z M 150.41121,118.09829 c -3.83317,-4.37632 -7.25708,-8.79741 -7.60858,-9.82479 -0.35112,-1.02737 -1.7862,-2.92899 -3.18839,-4.22584 -1.4022,-1.29689 -4.98526,-5.541183 -7.96226,-9.431778 -2.97705,-3.890683 -6.67078,-8.217951 -8.20825,-9.616219 -1.53748,-1.398296 -2.79882,-3.166776 -2.80284,-3.929894 -0.002,-0.762899 -2.00473,-3.518364 -4.44613,-6.122655 -2.44143,-2.604274 -6.2642,-7.556014 -8.49516,-11.003771 -4.46931,-6.907186 -4.48625,-4.883468 0.41979,-50.283677 0.93434,-8.6458153 2.31033,-21.3787326 3.0577,-28.295372 1.67016,-15.457312 2.89083,-19.713739 6.58971,-22.977892 1.58454,-1.398289 2.88098,-3.697311 2.88098,-5.108847 0,-1.411659 0.70759,-2.566557 1.57199,-2.566557 0.86442,0 1.57195,-0.927734 1.57195,-2.061602 0,-1.133865 1.41477,-3.580096 3.14397,-5.436106 1.72909,-1.856083 3.14386,-4.465317 3.14386,-5.798265 0,-1.33304 0.58819,-2.423685 1.30638,-2.423685 0.71834,0 2.31007,-1.945307 3.53687,-4.322923 3.82074,-7.404567 7.15121,-10.221182 10.73943,-9.082318 1.80449,0.573031 3.28092,1.701023 3.28092,2.507372 0,0.806536 1.09197,1.466006 2.42653,1.466006 1.33463,0 4.2371,1.678836 6.44986,3.730628 3.57055,3.310793 3.80174,4.151 2.054,7.466865 -1.08307,2.054903 -2.39392,4.089955 -2.91287,4.522166 -0.51866,0.432237 -1.71739,2.200816 -2.66323,3.9299 -4.26687,7.801505 -6.27785,11.031987 -8.10521,13.020231 -1.08078,1.175932 -1.96498,2.744345 -1.96498,3.485472 0,0.741455 -0.88408,2.309515 -1.96491,3.485351 -4.22605,4.598307 -5.89489,9.364568 -5.89489,16.836079 0,4.2835879 -0.70761,8.2255102 -1.572,8.7598691 -0.86442,0.5347353 -1.57197,6.4474306 -1.57197,13.1401122 0,6.6926807 -0.66482,12.8405817 -1.47645,13.6618997 -2.01824,2.041536 -2.77532,32.023485 -0.84394,33.40647 0.84394,0.604221 3.98361,4.281441 6.97766,8.172036 2.99396,3.890597 6.00044,7.309638 6.68084,7.597791 0.68,0.287831 1.23716,1.501238 1.23716,2.695671 0,1.194387 1.41477,2.928788 3.14395,3.854231 1.72917,0.925414 3.14395,2.458883 3.14395,3.407839 0,0.948869 1.24572,2.869279 2.76831,4.267575 1.52259,1.398268 4.62664,5.018207 6.89801,8.044272 2.27132,3.02602 6.01637,7.623955 8.32232,10.217675 7.0284,7.90568 7.52561,9.60616 3.59516,12.29606 -1.92836,1.31978 -5.56156,4.22159 -8.07359,6.44848 -2.51209,2.22693 -5.38859,4.04896 -6.39226,4.04896 -1.00355,0 -4.96102,-3.58052 -8.79428,-7.95682 z m 102.67444,1.85058 c -6.03068,-5.51258 -8.75604,-11.18529 -5.37388,-11.18529 0.7183,0 2.31018,-1.94538 3.53698,-4.32294 1.22684,-2.37759 3.77386,-5.898358 5.66005,-7.823864 1.88618,-1.925407 5.42307,-6.150892 7.85977,-9.389871 2.43671,-3.238935 7.08312,-8.733513 10.32529,-12.210232 3.24218,-3.476642 5.89487,-7.209304 5.89487,-8.294671 0,-1.085384 0.54009,-1.973449 1.2009,-1.973449 0.66039,0 2.94955,-2.829539 5.08695,-6.287923 2.13733,-3.458274 4.52544,-6.28781 5.30696,-6.28781 0.81722,0 0.92271,-3.836746 0.24772,-9.038828 -3.28769,-25.329571 -4.03345,-32.177242 -4.92225,-45.1939839 -0.53111,-7.7812744 -1.59824,-14.8197501 -2.37108,-15.6410691 -0.7727,-0.821677 -1.40504,-3.127276 -1.40504,-5.124269 0,-1.996993 -1.41478,-4.842304 -3.14398,-6.322838 -1.72916,-1.480531 -3.14391,-3.195111 -3.14391,-3.810017 0,-1.178434 -7.43429,-13.938255 -13.68199,-23.483204 -3.99599,-6.104939 -3.56499,-10.158532 1.24214,-11.68424 1.64417,-0.522265 3.88483,-1.844247 4.97917,-2.938641 2.58555,-2.585514 9.38705,-4.271917 11.48553,-2.847719 0.90244,0.612267 2.82742,3.665833 4.27773,6.785375 1.45035,3.119539 5.12721,9.292103 8.17092,13.716793 3.04369,4.424785 5.53394,8.76942 5.53394,9.65483 0,0.885833 0.53026,1.620899 1.17904,1.634363 2.58099,0.05353 8.1276,15.494193 9.02611,25.126998 0.52402,5.619769 1.64546,15.8767704 2.49196,22.7934098 0.84662,6.9167302 2.20525,18.2347882 3.01963,25.1515222 0.81456,6.916636 1.90092,16.112595 2.4145,20.435484 0.83145,6.995524 0.47141,8.378472 -3.27262,12.575708 -2.31357,2.593741 -6.06486,7.191772 -8.33618,10.217824 -2.27135,3.025998 -5.37547,6.645882 -6.89799,8.044156 -1.52261,1.398309 -2.76829,3.170575 -2.76829,3.938456 0,0.7682 -2.82953,4.400057 -6.28793,8.071596 -3.45826,3.671549 -6.28778,7.296194 -6.28778,8.054794 0,0.75839 -2.82954,4.29486 -6.28789,7.85845 -3.45839,3.56356 -6.28793,7.06243 -6.28793,7.77532 0,2.09587 -7.07661,8.13202 -9.53382,8.13202 -1.24149,0 -5.26338,-2.74781 -8.93738,-6.10624 z"
             id="path6497-3-0"
             inkscape:connector-curvature="0"
             sodipodi:nodetypes="scssccccssscscsccsscscsscssscscsccscscssscssccsssccscssssssccccscscccscccccccsssscscccccssscccsccssccsscsscsccscsscccccccccscccccsccssscsccccscsssscsssssccccscscccccccscscsssccccssscccsccccssssssssssscsscccscsccsccssccsccsccsccccscscccsccsscsccsccccscscscscsccscsscccscsccscscssssccscscsccccccscsccccscssscssccsscccccscscsccccssssccccscccsccscsscscccsssccscscsccccccccscscsscc" />
        </g>
      </g>
    </g>
  </g>
</svg>
