<?xml version="1.0" encoding="UTF-8" standalone="no"?>
<!-- Created with Inkscape (http://www.inkscape.org/) -->

<svg
   xmlns:dc="http://purl.org/dc/elements/1.1/"
   xmlns:cc="http://creativecommons.org/ns#"
   xmlns:rdf="http://www.w3.org/1999/02/22-rdf-syntax-ns#"
   xmlns:svg="http://www.w3.org/2000/svg"
   xmlns="http://www.w3.org/2000/svg"
   xmlns:sodipodi="http://sodipodi.sourceforge.net/DTD/sodipodi-0.dtd"
   xmlns:inkscape="http://www.inkscape.org/namespaces/inkscape"
   width="210mm"
   height="297mm"
   viewBox="0 0 210 297"
   version="1.1"
   id="svg8"
   inkscape:version="0.92.2 5c3e80d, 2017-08-06"
   sodipodi:docname="stormtrooper.svg">
  <defs
     id="defs2">
    <clipPath
       id="clipPath45"
       clipPathUnits="userSpaceOnUse">
      <path
         inkscape:connector-curvature="0"
         id="path43"
         d="M 0,864 H 864 V 0 H 0 Z" />
    </clipPath>
    <clipPath
       id="clipPath3854"
       clipPathUnits="userSpaceOnUse">
      <path
         inkscape:connector-curvature="0"
         id="path3852"
         d="M 0,864 H 864 V 0 H 0 Z" />
    </clipPath>
    <clipPath
       id="clipPath4053"
       clipPathUnits="userSpaceOnUse">
      <path
         inkscape:connector-curvature="0"
         id="path4051"
         d="M 0,864 H 864 V 0 H 0 Z" />
    </clipPath>
    <clipPath
       id="clipPath4150"
       clipPathUnits="userSpaceOnUse">
      <path
         inkscape:connector-curvature="0"
         id="path4148"
         d="M 0,864 H 864 V 0 H 0 Z" />
    </clipPath>
    <clipPath
       id="clipPath4295"
       clipPathUnits="userSpaceOnUse">
      <path
         inkscape:connector-curvature="0"
         id="path4293"
         d="M 0,864 H 864 V 0 H 0 Z" />
    </clipPath>
    <clipPath
       id="clipPath4410"
       clipPathUnits="userSpaceOnUse">
      <path
         inkscape:connector-curvature="0"
         id="path4408"
         d="M 0,864 H 864 V 0 H 0 Z" />
    </clipPath>
    <clipPath
       id="clipPath4615"
       clipPathUnits="userSpaceOnUse">
      <path
         inkscape:connector-curvature="0"
         id="path4613"
         d="M 0,864 H 864 V 0 H 0 Z" />
    </clipPath>
    <clipPath
       id="clipPath4838"
       clipPathUnits="userSpaceOnUse">
      <path
         inkscape:connector-curvature="0"
         id="path4836"
         d="M 0,864 H 864 V 0 H 0 Z" />
    </clipPath>
    <clipPath
       id="clipPath5001"
       clipPathUnits="userSpaceOnUse">
      <path
         inkscape:connector-curvature="0"
         id="path4999"
         d="M 0,864 H 864 V 0 H 0 Z" />
    </clipPath>
    <inkscape:perspective
       id="perspective9"
       inkscape:persp3d-origin="372.04724 : 350.78739 : 1"
       inkscape:vp_z="744.09448 : 526.18109 : 1"
       inkscape:vp_y="0 : 1000 : 0"
       inkscape:vp_x="0 : 526.18109 : 1"
       sodipodi:type="inkscape:persp3d" />
  </defs>
  <sodipodi:namedview
     id="base"
     pagecolor="#000000"
     bordercolor="#666666"
     borderopacity="1.0"
     inkscape:pageopacity="0"
     inkscape:pageshadow="2"
     inkscape:zoom="0.91846942"
     inkscape:cx="396.85039"
     inkscape:cy="556.87007"
     inkscape:document-units="mm"
     inkscape:current-layer="g5136"
     showgrid="false"
     inkscape:window-width="2560"
     inkscape:window-height="1385"
     inkscape:window-x="2560"
     inkscape:window-y="27"
     inkscape:window-maximized="1"
     showguides="true"
     inkscape:guide-bbox="true">
    <sodipodi:guide
       position="105.43356,205.96993"
       orientation="1,0"
       id="guide3815"
       inkscape:locked="false" />
    <sodipodi:guide
       position="92.758485,149.50825"
       orientation="0,1"
       id="guide3817"
       inkscape:locked="false" />
  </sodipodi:namedview>
  <metadata
     id="metadata5">
    <rdf:RDF>
      <cc:Work
         rdf:about="">
        <dc:format>image/svg+xml</dc:format>
        <dc:type
           rdf:resource="http://purl.org/dc/dcmitype/StillImage" />
        <dc:title></dc:title>
      </cc:Work>
    </rdf:RDF>
  </metadata>
  <g
     inkscape:label="Layer 1"
     inkscape:groupmode="layer"
     id="layer1">
    <g
       transform="matrix(0.35277777,0,0,-0.35277777,-70.777455,287.43463)"
       inkscape:label="1"
       id="g37">
      <g
         id="g39">
        <g
           id="g5136"
           transform="matrix(0.75000002,0,0,-0.75000002,342.50983,505.50165)"
           style="fill:#ffeeaa">
          <path
             style="fill:#ffeeaa;stroke-width:0.60000002"
             d="m 185.81565,446.10044 c -0.49945,-1.19531 -0.90804,-2.38482 -0.90804,-2.6433 0,-2.97475 -8.44051,-12.40506 -15.00003,-16.75918 -12.18492,-8.08806 -16.69065,-18.89316 -14.34873,-34.40932 0.62011,-4.10838 0.8174,-4.48728 4.12168,-7.91495 4.89429,-5.07699 7.89744,-9.81035 11.6538,-18.36782 0.99741,-2.27226 4.46437,-12.70944 5.75727,-17.33218 0.41533,-1.48499 0.96254,-3.37497 1.21599,-4.19999 0.25342,-0.82499 0.76213,-2.64749 1.13042,-4.04999 0.36825,-1.4025 0.97087,-3.69751 1.33916,-5.10002 0.8191,-3.11941 1.07891,-3.97392 3.53366,-11.62246 l 1.9489,-6.07249 3.60519,-0.3768 c 4.95862,-0.5183 40.64266,0.2939 40.64266,0.9251 0,0.28028 0.51731,1.65429 1.14956,3.05322 0.63225,1.3989 1.49734,3.62345 1.92248,4.94344 0.42512,1.32001 0.98781,2.65649 1.25045,2.97002 0.2626,0.31362 0.47751,0.98087 0.47751,1.48304 0,0.50221 0.527,2.67572 1.17112,4.83001 1.06562,3.5641 2.29352,8.2215 3.64272,13.81692 0.27859,1.15501 0.77284,3.04503 1.0985,4.20002 0.32553,1.15497 1.05035,3.85497 1.61031,5.99998 0.55997,2.145 1.25647,4.15651 1.54775,4.47 0.29117,0.31363 0.52959,0.92394 0.52959,1.35655 0,0.85122 1.77035,5.03118 3.75817,8.87346 2.16796,4.19049 4.6209,7.43669 8.3861,11.09828 l 3.65928,3.55852 -0.003,9.47158 c -0.003,7.86571 -0.20171,10.03112 -1.17531,12.77162 -2.08986,5.88293 -5.2271,9.75385 -11.9252,14.714 -7.46823,5.53042 -9.43839,7.1569 -11.29181,9.32218 -2.16404,2.52822 -5.80822,9.3708 -5.80822,10.90603 0,2.15449 -1.03452,2.25779 -22.61193,2.25779 H 186.72371 Z M 92.111314,435.39415 C 85.2835,433.17003 79.793086,429.53551 74.183926,423.5267 64.804765,413.47933 62.461012,402.18662 67.921249,393.35163 c 5.566509,-9.00695 22.834539,-16.02369 34.558681,-14.04264 8.27895,1.39892 15.58941,6.34791 18.6159,12.60245 2.48166,5.1287 2.82327,6.70094 2.8447,13.09195 0.0238,7.07626 -0.90747,11.70315 -3.30296,16.41216 -0.29151,0.57306 -0.53282,1.38305 -0.53629,1.79997 -0.0102,1.06398 -4.72993,7.20597 -6.8937,8.96853 -3.64524,2.96933 -6.2226,3.76691 -12.60001,3.89899 -3.751843,0.0776 -6.935305,-0.18029 -8.496256,-0.68889 z M 326.8076,434.39746 c -14.67926,-2.5865 -27.54579,-11.90269 -32.79367,-23.74484 -0.94476,-2.13193 -1.28495,-4.14328 -1.31106,-7.75178 -0.034,-4.51678 0.11599,-5.12597 2.03472,-8.33756 4.16094,-6.96452 13.29715,-12.21173 26.5286,-15.23617 9.81076,-2.24252 19.49677,1.06528 24.44164,8.34696 3.93992,5.80176 5.039,10.255 5.03474,20.39962 -0.003,7.61293 -0.1796,9.18734 -1.41097,12.60001 -0.774,2.145 -2.10853,4.96154 -2.96563,6.2589 -2.18701,3.31038 -7.68181,6.73015 -11.61587,7.22923 -1.72837,0.2194 -3.5475,0.48088 -4.04249,0.58146 -0.495,0.10035 -2.25001,-0.0551 -3.90001,-0.34583 z M -70.416007,342.19018 c -13.635171,-5.71873 -24.964697,-20.24413 -28.404193,-36.41648 -0.35091,-1.64999 -0.91571,-4.26707 -1.25511,-5.81571 -0.80595,-3.67713 -0.79254,-15.71561 0.0204,-19.78852 0.35152,-1.75766 0.92734,-4.68077 1.27961,-6.49578 1.740066,-8.96509 6.197116,-19.37718 12.157566,-28.40128 4.655696,-7.04867 7.454003,-9.80986 17.426633,-17.19553 12.996162,-9.62487 20.27353,-17.48373 23.338345,-25.20316 1.923489,-4.84469 2.727279,-7.65484 4.633866,-16.2 0.944442,-4.23286 0.924651,-23.10224 -0.0306,-27.90002 -0.393696,-1.97999 -1.005642,-5.08498 -1.359918,-6.9 -0.846954,-4.33915 -2.719386,-12.59541 -3.8781,-17.09999 -0.509283,-1.98001 -1.169424,-4.74751 -1.466928,-6.15001 -0.297639,-1.4025 -0.821961,-3.83248 -1.165383,-5.4 -2.144286,-9.78684 -2.976237,-16.18374 -3.366198,-25.882306 l -0.347058,-8.63235 1.718847,0.40115 c 8.294499,1.93577 14.725278,10.46634 18.140292,24.063516 1.87263,7.45598 3.266973,17.56319 4.851459,35.16695 0.809982,8.99886 0.808695,34.92458 -0.0018,42.41808 -1.438758,13.2973 -4.77918,26.43694 -8.477676,33.34716 -4.982859,9.30985 -9.242892,15.14678 -21.5068,29.46781 -17.025156,19.88081 -23.166423,29.68157 -26.129907,41.69998 -0.920264,3.73214 -1.129674,15.12429 -0.326556,17.76048 0.291519,0.95675 0.878454,2.95453 1.304334,4.43953 0.42588,1.48499 0.99738,2.9565 1.270017,3.26999 0.272466,0.31363 0.495639,0.89972 0.495639,1.30267 0,1.36563 6.007284,11.14384 9.490023,15.44713 3.368169,4.16177 4.57542,5.81541 4.195395,5.74669 -0.102042,-0.017 -1.276029,-0.49095 -2.60901,-1.05 z m 561.439067,-3.2665 c 1.91352,-3.88813 3.06318,-6.87539 3.98341,-10.34997 1.15463,-4.36 1.34158,-5.34503 2.22017,-11.70002 1.3507,-9.76966 1.18708,-14.31798 -0.99264,-27.6 -0.35203,-2.14501 -0.86183,-4.71 -1.13296,-5.69999 -2.29954,-8.3976 -5.8319,-17.98664 -8.28849,-22.49999 -2.87341,-5.27924 -6.1228,-10.73281 -6.85842,-11.51062 -0.41057,-0.43414 -1.53492,-1.8694 -2.49856,-3.18939 -4.62546,-6.33608 -16.31804,-16.16098 -22.11629,-18.58365 -2.7832,-1.16289 -3.37508,-2.0422 -4.10839,-6.10337 -0.3489,-1.93213 -0.88046,-4.72799 -1.18129,-6.21298 -3.6669,-18.10124 -5.53073,-47.18682 -4.21976,-65.85143 0.84863,-12.0826 2.18731,-22.40661 3.67591,-28.34856 0.28947,-1.155 0.84787,-3.45001 1.24117,-5.10001 2.57863,-10.8184 9.45559,-26.399996 11.65165,-26.399996 2.47937,0 5.64423,8.54275 5.6877,15.352286 0.0272,4.10758 -1.6451,15.29152 -3.57866,23.94771 -0.33165,1.48499 -0.87169,4.05002 -1.20001,5.70001 -0.32824,1.65001 -0.87209,4.215 -1.20837,5.69999 -2.71568,11.99083 -3.6986,20.6247 -3.75684,33 -0.0688,14.64511 0.90095,19.70468 5.75044,29.99999 1.57499,3.34365 7.1099,12.2901 8.16643,13.20001 0.19151,0.16498 1.42074,1.65001 2.73142,3.30001 1.3107,1.65 5.24622,5.97 8.74563,9.59999 14.86858,15.42359 17.49988,18.28037 21.74208,23.60517 2.45604,3.08284 5.00076,6.59286 5.65498,7.80001 0.65426,1.20715 1.7613,3.19819 2.46019,4.4245 0.69895,1.22633 1.98757,4.33132 2.86369,6.90002 3.19193,9.35838 3.99665,18.435 2.40875,27.17031 -1.99825,10.99301 -5.82329,17.69255 -16.59839,29.0718 -2.82698,2.9855 -6.33697,6.77312 -7.80002,8.41693 -3.77088,4.2369 -4.03763,4.51127 -4.38684,4.51127 -0.17177,0 0.25206,-1.14752 0.94231,-2.55003 z M 15.161495,317.32372 c 0.325197,-1.07252 0.869751,-2.89501 1.209807,-4.05002 2.140713,-7.27056 7.729335,-14.39213 16.794531,-21.40131 4.295403,-3.3212 10.083591,-7.30359 13.188654,-9.07401 1.129185,-0.64385 4.483107,-2.58996 7.453089,-4.32469 5.235291,-3.05781 7.159292,-4.17254 11.24999,-6.51807 6.839991,-3.92188 16.706907,-10.18628 22.455189,-14.25654 6.530787,-4.62437 15.455845,-12.89354 37.394835,-34.64671 26.73074,-26.50436 30.9887,-30.27853 43.49999,-38.55766 10.14442,-6.71288 19.63175,-11.17884 27.30003,-12.85095 1.81497,-0.39574 4.08277,-0.95592 5.03949,-1.24481 2.8629,-0.86444 17.02692,-0.6147 21.81723,0.38465 7.19178,1.50037 10.09876,2.54139 17.52481,6.2757 5.76281,2.89798 16.64421,10.04016 19.21845,12.6144 0.16498,0.16498 2.19001,1.90638 4.50002,3.86977 2.30998,1.96336 13.64998,12.93098 25.19999,24.37252 11.55001,11.44154 22.215,21.85016 23.69999,23.13027 1.485,1.28008 2.83501,2.47815 2.99999,2.66235 0.94726,1.05744 8.79049,7.39243 12.90003,10.41936 2.64,1.94451 5.74499,4.25809 6.89999,5.14128 1.15501,0.88315 9.52499,6.55177 18.6,12.59687 9.07502,6.04515 16.63502,11.16537 16.8,11.37827 0.16498,0.21294 1.24501,1.03613 2.40001,1.82931 1.15501,0.79321 2.23501,1.59193 2.39999,1.7749 0.16498,0.18301 1.57043,1.27603 3.12319,2.42893 5.25689,3.9032 16.96219,16.32192 20.82726,22.09669 2.06166,3.08031 3.5954,5.75367 3.40828,5.94079 -0.18709,0.18709 -1.62688,-0.84822 -3.19946,-2.30069 -6.7192,-6.2061 -12.5978,-10.45165 -21.75926,-15.71466 -2.72336,-1.56449 -11.50229,-5.94714 -15.15,-7.56326 -5.68737,-2.51979 -8.61058,-3.82446 -11.71778,-5.2299 -1.7423,-0.78804 -3.29774,-1.4328 -3.45656,-1.4328 -0.15885,0 -1.56829,-0.57171 -3.13221,-1.2705 -1.5639,-0.69878 -4.05848,-1.81263 -5.54347,-2.47519 -1.485,-0.66255 -4.185,-1.86882 -6.00001,-2.68054 -16.8946,-7.55602 -27.08381,-13.55058 -46.19998,-27.18056 -14.9337,-10.64781 -28.14609,-18.38296 -40.21818,-23.54553 -15.46934,-6.61541 -31.48749,-9.619 -44.22602,-8.29289 -6.85638,0.71374 -12.68947,1.64928 -15.15582,2.43076 -0.82498,0.26158 -2.715,0.80736 -4.19999,1.21327 -1.48499,0.40588 -3.24,0.95146 -3.90001,1.21239 -0.66,0.2609 -3.49498,1.36413 -6.29999,2.45155 -6.68344,2.59095 -15.26348,7.01027 -24.3,12.51626 -3.78346,2.30529 -15.75663,10.59289 -16.50001,11.42099 -0.70753,0.78819 -12.56063,8.94911 -15.29998,10.53414 -1.65,0.95472 -3.81,2.2051 -4.80003,2.77865 -0.99,0.57353 -5.57998,2.91212 -10.2,5.19682 -7.81117,3.86289 -11.18356,5.43997 -16.499986,7.71613 -1.155006,0.49449 -3.179997,1.38291 -4.500009,1.97424 -1.319985,0.59137 -3.345012,1.47911 -4.500009,1.97285 -1.154979,0.4937 -3.584988,1.55982 -5.4,2.36912 -1.814985,0.80934 -4.508415,1.98598 -5.985351,2.6148 -4.138254,1.76178 -19.918907,9.83905 -21.707252,11.11073 -0.875934,0.62289 -1.772316,1.13252 -1.991925,1.13252 -1.583946,0 -16.167177,11.2718 -21.300453,16.46376 -2.46672,2.49492 -4.680198,4.53623 -4.918779,4.53623 -0.238455,0 -0.167706,-0.8775 0.157833,-1.94998 z m -49.52546,-11.6607 c 0.345636,-0.26907 2.900421,-3.32433 5.67729,-6.78931 5.820237,-7.26253 11.033351,-12.68627 15.241576,-15.85746 3.238843,-2.44063 8.706811,-5.3884 9.158125,-4.93711 0.300366,0.30036 -5.910435,8.07683 -11.698931,14.64759 -3.727174,4.23087 -9.093228,8.70392 -13.306515,11.09199 -2.610747,1.47978 -6.349752,2.83946 -5.071545,1.8443 z M 443.8076,300.13947 c -2.55442,-1.17919 -6.79046,-5.41363 -12.54161,-12.53695 -4.04495,-5.01 -9.07635,-9.72881 -10.37327,-9.72881 -1.72909,0 -0.36043,-1.50319 1.53887,-1.6901 4.00288,-0.39394 7.8426,2.48397 15.07602,11.29952 4.65737,5.67608 9.69534,10.73221 11.48144,11.5228 1.94196,0.85958 2.14986,1.37389 0.7695,1.90359 -1.61686,0.62045 -3.45358,0.38278 -5.95095,-0.77005 z m -485.700038,-1.06306 c 0,-0.77416 3.201192,-5.94088 5.330034,-8.60271 2.799396,-3.50023 3.627846,-4.31633 9.369981,-9.23022 2.639988,-2.25922 6.892504,-6.15361 9.449979,-8.65418 3.742276,-3.659 4.650021,-4.29523 4.650021,-3.25932 0,4.59185 -10.205781,18.01097 -18.544263,24.383 -5.514903,4.21438 -10.255752,6.69366 -10.255752,5.36343 z m 491.557478,-6.36727 c -2.27408,-1.73106 -5.26982,-5.19383 -9.75741,-11.27867 -4.16292,-5.64458 -10.00288,-10.75677 -12.28809,-10.75677 -0.50157,0 -0.91193,-0.27008 -0.91193,-0.6 0,-0.87859 5.00756,-0.73243 6.80203,0.19865 2.2979,1.19216 5.14937,3.84494 8.8158,8.20144 1.80517,2.14503 3.42633,4.03501 3.60253,4.20003 0.17621,0.16497 1.33896,1.56142 2.58394,3.10322 1.24498,1.54176 3.73333,3.93708 5.52967,5.32295 1.79634,1.38587 3.26602,2.75691 3.26602,3.04679 0,0.28981 -1.14749,0.52047 -2.54999,0.51248 -1.93349,-0.0102 -3.16469,-0.48248 -5.09257,-1.95002 z m -496.357466,-3.04325 c 0,-4.60155 2.4777,-7.82417 12.000006,-15.60779 5.4999,-4.49565 7.683273,-6.63508 10.389051,-10.17983 1.146501,-1.50199 2.248002,-2.5675 2.447739,-2.36776 0.770931,0.7709 0.309546,4.51235 -0.818694,6.63708 -1.687005,3.17742 -3.715776,5.29296 -10.518111,10.96784 -6.463188,5.39197 -9.978516,8.89128 -11.560995,11.50828 -1.404099,2.32201 -1.938996,2.05781 -1.938996,-0.95782 z m 509.900026,-1.4422 c -0.10988,-0.24764 -1.68498,-1.66126 -3.49999,-3.14173 -1.81501,-1.48047 -3.43501,-2.83048 -3.59998,-3.00002 -0.16498,-0.1694 -2.055,-1.79236 -4.20003,-3.60632 -4.5145,-3.81771 -8.46053,-7.98533 -11.29364,-11.92769 -2.09356,-2.91327 -4.56219,-7.81838 -4.14485,-8.23572 0.1347,-0.1347 1.03078,0.45248 1.99159,1.30454 0.9608,0.85206 4.33472,3.66553 7.49761,6.25216 7.55681,6.17995 14.17818,13.39979 16.60782,18.10883 2.07366,4.01896 2.27425,4.69597 1.39148,4.69597 -0.3024,0 -0.63997,-0.20239 -0.75001,-0.45002 z M -53.492412,285.2737 c -0.220086,-0.22007 -0.400032,-1.85076 -0.400032,-3.62389 0,-5.7388 2.683467,-9.23698 14.061735,-18.33075 3.321063,-2.65428 7.062723,-5.85629 8.314812,-7.11558 2.57724,-2.59215 3.541482,-1.96023 2.183706,1.43101 -1.378557,3.44306 -3.887964,6.58432 -11.614671,14.53921 -4.166964,4.28999 -8.424855,9.08251 -9.461961,10.64999 -1.883862,2.84718 -2.331063,3.20255 -3.083589,2.45001 z m 522.430982,-3.92881 c -2.70455,-2.07629 -4.15863,-3.85719 -9.30926,-11.40167 -5.63477,-8.25368 -8.90182,-11.16965 -14.32168,-12.78288 -2.45733,-0.73144 -2.74191,-2.13197 -0.58721,-2.88977 4.93319,-1.73492 17.56719,10.54566 25.09198,24.3901 1.04238,1.9178 1.89523,3.60533 1.89523,3.75 0,0.61705 -1.15722,0.17178 -2.76906,-1.06578 z m -532.627446,-7.22117 c 0.667008,-0.74253 2.782386,-3.24 4.700835,-5.55001 7.288663,-8.7762 10.737076,-12.38527 14.593135,-15.27304 4.468824,-3.34668 8.920152,-5.80927 9.48312,-5.24635 0.498636,0.49867 -7.961832,10.86786 -13.580658,16.64445 -5.423265,5.57559 -12.865405,10.77493 -15.422845,10.77493 -0.848007,0 -0.816273,-0.18947 0.226548,-1.34998 z m 535.996506,-5.46766 c -2.75419,-2.02781 -4.82204,-4.18649 -9.58302,-10.00396 -3.25902,-3.9822 -8.66902,-9.41536 -11.117,-11.16465 l -1.80001,-1.28624 1.70334,-0.44221 c 4.19731,-1.08959 9.48621,2.78835 17.61962,12.91923 4.02766,5.01677 9.1533,9.91664 10.98011,10.49643 2.24174,0.71151 1.20541,1.49908 -1.95305,1.48418 -2.60968,-0.0136 -3.61315,-0.35587 -5.84999,-2.00278 z M -3.68428,159.22369 c -0.87696,-1.8975 -2.610063,-5.36269 -3.851298,-7.70045 -3.47049,-6.53619 -5.591712,-12.08573 -7.265627,-19.00814 -0.858422,-3.55005 -0.927848,-14.8414 -0.09116,-14.8414 0.329953,0 0.600003,0.2847 0.600003,0.63292 0,0.57297 4.528215,7.64824 5.354964,8.36709 0.18981,0.16498 1.28736,1.515 2.439135,2.99999 2.381202,3.07026 6.14474099,7.20025 14.555916,15.97328 3.217482,3.35597 5.843322,6.33234 5.835159,6.61423 -0.0072,0.282 -1.635336,2.22868 -3.615975,4.32623 -2.5280817,2.67731 -4.4922507,4.1523 -6.591636,4.94997 -4.869459,1.85028 -5.542632,1.63891 -7.369407,-2.31372 z m 417.19191,1.86052 c -4.91011,-1.6952 -8.87835,-5.80642 -10.66884,-11.0531 -1.1518,-3.37515 -0.96754,-4.15741 0.97928,-4.15741 0.94078,0 2.62826,-0.29288 3.75,-0.65073 8.9239,-2.84728 14.41479,-9.41636 18.51396,-22.14927 2.06496,-6.41422 2.8097,-7.21557 4.0425,-4.35001 1.64959,3.83436 2.23146,8.88794 1.4442,12.54293 -1.48111,6.87642 -2.34522,9.06775 -8.64302,21.91771 -4.75285,9.69775 -4.59481,9.56516 -9.41808,7.89988 z M 14.643644,128.0237 c -2.429064,-3.62999 -3.901059,-7.48605 -5.325201,-13.95 -0.898011,-4.07601 -1.9217517,-41.682786 -1.21167,-44.511916 0.390357,-1.55533 5.047254,-3.97028 15.4008,-7.98638 3.134988,-1.21607 6.240015,-2.4386 6.899985,-2.7167 0.660015,-0.27826 2.145006,-0.79142 3.300003,-1.14062 1.155006,-0.34924 3.450015,-1.07194 5.100021,-1.60602 3.238506,-1.04827 10.353339,-2.95693 14.700006,-3.94348 1.484991,-0.33709 3.78,-0.857 5.099985,-1.15542 4.373774,-0.98877 14.102963,-2.78384 19.500002,-3.59784 21.588805,-3.25605 38.238065,-4.53409 74.250015,-5.69964 9.96583,-0.32247 13.34999,-0.2558 13.34999,0.26294 0,0.38227 -0.21191,0.69504 -0.47063,0.69504 -0.25887,0 -0.98133,0.86458 -1.60555,1.92124 -1.48343,2.51125 -16.33478,17.57679 -19.98667,20.27496 -1.56044,1.15289 -2.97216,2.23289 -3.13714,2.40001 -1.66112,1.68225 -30.07968,21.0038 -30.8929,21.0038 -0.17551,0 -2.54373,1.44054 -5.26298,3.2012 -11.12652,7.20419 -13.641201,8.798806 -13.875606,8.798806 -0.135378,0 -2.095983,1.12627 -4.357206,2.50281 -6.580521,4.00597 -10.644957,6.19805 -21.811311,11.76368 -9.247553,4.60926 -12.125798,5.93893 -17.100017,7.89988 -1.310697,0.5167 -3.734694,1.51176 -5.85,2.40141 -1.413963,0.59469 -9.318339,3.21857 -16.175439,5.36951 -2.214018,0.69447 -4.971474,1.2627 -6.127668,1.2627 -1.891512,0 -2.333547,-0.34573 -4.410819,-3.45001 z m 377.863956,2.14908 c -8.32026,-2.97828 -12.11416,-4.43933 -13.94183,-5.36908 -0.57303,-0.29152 -1.31849,-0.53 -1.65656,-0.53 -0.33813,0 -1.82673,-0.54 -3.30814,-1.2 -1.48139,-0.65998 -3.90552,-1.73998 -5.38691,-2.39999 -1.48142,-0.66001 -2.82341,-1.20001 -2.98222,-1.20001 -0.62487,0 -14.31703,-6.3421 -21.92436,-10.15516 -7.69735,-3.85824 -14.51734,-7.54544 -19.1113,-10.332546 -2.09623,-1.27176 -3.89188,-2.31229 -3.99032,-2.31229 -0.36019,0 -13.91945,-8.65024 -17.99838,-11.48219 -7.69593,-5.34323 -10.19238,-7.11508 -11.09999,-7.87818 -0.49499,-0.41619 -1.84501,-1.41897 -2.99998,-2.22841 -1.15501,-0.80948 -2.46087,-1.82219 -2.90195,-2.25055 -0.44108,-0.42836 -1.78733,-1.51724 -2.99166,-2.41975 -7.54398,-5.65327 -31.30642,-27.37695 -31.30642,-28.6204 0,-0.52524 20.6249,-0.0677 39.90003,0.88502 22.63636,1.11895 48.57085,4.39371 65.99999,8.33392 1.32001,0.29832 3.61502,0.81835 5.10001,1.15542 7.97846,1.81089 22.26729,6.0312 26.70002,7.88601 0.65997,0.2762 2.81997,1.11506 4.79999,1.86423 1.97999,0.74913 5.21999,2.08213 7.19998,2.96223 1.98002,0.88009 4.47753,1.97937 5.55001,2.44287 l 1.95002,0.84271 v 19.60776 c 0,11.47172 -0.26533,20.933796 -0.63912,22.803546 -0.35152,1.75766 -0.93928,4.68077 -1.30614,6.49575 -0.82073,4.0606 -2.76418,8.48023 -5.21083,11.85003 -2.14381,2.95263 -3.23412,3.11394 -8.44394,1.24906 z M -16.245616,30.299184 c -8.472401,-14.03147 -10.972628,-29.53360001 -6.931223,-42.97547 0.462888,-1.53965 1.025001,-2.25 1.780452,-2.25 2.179053,0 5.729141,4.55896 9.417979,12.09436 4.203907,8.58758 6.123346,11.1190003 9.906235,13.06463 2.41386299,1.24148 3.04335899,1.3324 5.309145,0.76676 3.4238523,-0.85479 7.196715,-1.6783397 11.570589,-2.5257397 1.980027,-0.38363 4.680027,-0.92146 6.000012,-1.19518 1.320012,-0.27383 4.289994,-0.80196 6.600006,-1.17385 2.310003,-0.3719003 5.752503,-0.9359803 7.65,-1.2535803 9.801027,-1.64034 15.407982,-2.49169 23.250006,-3.53015 2.47499,-0.32792001 6.524999,-0.86428001 8.99999,-1.19222001 2.475018,-0.32792 7.335018,-0.89115 10.8,-1.25150999 3.465009,-0.36037 8.595,-0.90272 11.400003,-1.20521 2.805003,-0.3024 8.745002,-0.84155 13.200012,-1.19786 4.45497,-0.35635 9.44998,-0.78689 11.09999,-0.95677 3.55169,-0.36563 16.51417,-1.11972 37.2,-2.16411 30.30357,-1.52993 84.28792,-0.94234 121.5,1.3225 17.4531,1.0622 45.5994,3.86037 60.30002,5.99465999 2.31001,0.33539001 6.09001,0.88040001 8.39998,1.21116001 2.31001,0.33064 5.82003,0.85948 7.80002,1.17494 1.98,0.31533 5.35501,0.84151 7.50001,1.16905 2.145,0.32757 5.65501,0.89128 7.80001,1.2528 26.30081,4.4328303 44.49223,4.73581 55.41095,0.9228903 7.7048,-2.6906203 14.18933,-8.4545503 17.63101,-15.6718703 1.15113,-2.41396 1.53196,-2.52612 2.3961,-0.7057 1.82515,3.84491 2.06057,5.38426 1.78245,11.65529 -0.26803,6.0485203 -0.56989,7.9307403 -2.14679,13.39469 -0.33336,1.155 -0.89128,3.11251 -1.23991,4.35 -0.34859,1.23753 -0.92435,3.26252 -1.27944,4.50001 -0.35509,1.2375 -0.83406,3.195 -1.06438,4.35001 -0.40663,2.03904 -0.49674,2.09799 -3.10438,2.03091 -1.47711,-0.0381 -4.44063,-0.3986 -6.58562,-0.80135 -9.38515,-1.76218 -14.88825,-2.7318 -21,-3.70006 -2.145,-0.33982 -5.385,-0.85818 -7.20001,-1.15188 -7.94465,-1.28562 -12.51147,-1.94947 -24.59999,-3.57604 -36.93319,-4.96953 -65.7833,-7.57609 -107.70003,-9.73057 -20.08636,-1.03245 -96.28144,-1.03354 -116.39999,-0.002 -27.5172,1.41131 -47.085,2.87015 -66.000003,4.92045 -2.970018,0.32213 -7.830018,0.84923 -10.8,1.17177 -18.062801,1.96149 -41.987033,5.35038 -59.399999,8.41407 -1.650006,0.29049 -4.620015,0.80607 -6.6000057,1.14613 -3.7037703,0.63609 -8.7582783,1.58237 -13.5000003,2.5274 -4.899324,0.97642 -8.831,1.30991 -9.153198,0.77631 z M 113.28744,-117.34645 c -0.4088,-0.40876 3.76589,-5.59834 6.81091,-8.46665 3.17772,-2.99332 7.76943,-6.4099 10.95922,-8.15446 1.56752,-0.8573 3.99751,-2.18394 5.4,-2.94811 5.66822,-3.08839 18.02924,-7.384 26.85,-9.33072 1.48503,-0.32757 3.91501,-0.86727 5.4,-1.19893 1.48503,-0.33165 4.72503,-0.87985 7.20001,-1.2182 2.47502,-0.33845 6.66001,-0.93672 9.30001,-1.32974 6.38924,-0.95111 37.32963,-0.9552 44.4,-0.007 16.32253,2.1916 21.94588,3.30501 33.9,6.71198 2.47499,0.70542 5.04001,1.49793 5.70002,1.76117 0.65997,0.26328 2.145,0.80311 3.29997,1.19971 10.33571,3.54909 22.71337,10.89619 29.07734,17.25962 3.45317,3.45294 4.98848,5.54038 4.07481,5.54038 -0.2694,0 -3.72152,-0.90329 -7.67109,-2.00727 -7.46659,-2.08711 -11.49052,-3.03529 -21.58106,-5.08519 -26.7062,-5.4254 -70.61172,-8.24262 -95.06483,-6.09984 -18.59844,1.62977 -23.28925,2.17317 -30.93518,3.5838 -1.65,0.30445 -4.75499,0.8658 -6.89999,1.24753 -2.145,0.38172 -4.70999,0.92006 -5.69999,1.19627 -0.99003,0.2762 -4.50001,1.22197 -7.80001,2.10176 -8.61364,2.29633 -12.11909,3.4578 -15.38532,5.09764 -0.54191,0.27212 -1.1426,0.33743 -1.33482,0.14524 z"
             id="path5992"
             inkscape:connector-curvature="0" />
        </g>
      </g>
    </g>
  </g>
</svg>
