<?xml version="1.0" encoding="UTF-8" standalone="no"?>
<!-- Created with Inkscape (http://www.inkscape.org/) -->

<svg
   xmlns:dc="http://purl.org/dc/elements/1.1/"
   xmlns:cc="http://creativecommons.org/ns#"
   xmlns:rdf="http://www.w3.org/1999/02/22-rdf-syntax-ns#"
   xmlns:svg="http://www.w3.org/2000/svg"
   xmlns="http://www.w3.org/2000/svg"
   xmlns:sodipodi="http://sodipodi.sourceforge.net/DTD/sodipodi-0.dtd"
   xmlns:inkscape="http://www.inkscape.org/namespaces/inkscape"
   width="210mm"
   height="297mm"
   viewBox="0 0 210 297"
   version="1.1"
   id="svg8"
   inkscape:version="0.92.2 5c3e80d, 2017-08-06"
   sodipodi:docname="teeth.svg">
  <defs
     id="defs2">
    <clipPath
       id="clipPath106"
       clipPathUnits="userSpaceOnUse">
      <path
         inkscape:connector-curvature="0"
         id="path104"
         d="M 0,864 H 864 V 0 H 0 Z" />
    </clipPath>
  </defs>
  <sodipodi:namedview
     id="base"
     pagecolor="#000000"
     bordercolor="#666666"
     borderopacity="1.0"
     inkscape:pageopacity="0"
     inkscape:pageshadow="2"
     inkscape:zoom="0.98994949"
     inkscape:cx="291.36527"
     inkscape:cy="554.28571"
     inkscape:document-units="mm"
     inkscape:current-layer="layer1"
     showgrid="false"
     showguides="true"
     inkscape:guide-bbox="true"
     inkscape:window-width="2560"
     inkscape:window-height="1385"
     inkscape:window-x="2560"
     inkscape:window-y="27"
     inkscape:window-maximized="1">
    <sodipodi:guide
       position="104.76965,149.1364"
       orientation="1,0"
       id="guide10"
       inkscape:locked="false" />
    <sodipodi:guide
       position="56.661139,148.86913"
       orientation="0,1"
       id="guide12"
       inkscape:locked="false" />
  </sodipodi:namedview>
  <metadata
     id="metadata5">
    <rdf:RDF>
      <cc:Work
         rdf:about="">
        <dc:format>image/svg+xml</dc:format>
        <dc:type
           rdf:resource="http://purl.org/dc/dcmitype/StillImage" />
        <dc:title></dc:title>
      </cc:Work>
    </rdf:RDF>
  </metadata>
  <g
     inkscape:label="Layer 1"
     inkscape:groupmode="layer"
     id="layer1">
    <g
       transform="matrix(0.18748057,0,0,-0.18748057,70.112072,92.66204)"
       id="g3141"
       style="fill:#ffeeaa">
      <path
         inkscape:connector-curvature="0"
         id="path3143"
         style="fill:#ffeeaa;fill-opacity:1;fill-rule:nonzero;stroke:none"
         d="m 0,0 c 0,0 49.592,-20.049 60.145,-53.816 10.552,-33.764 63.308,-51.702 121.343,-71.748 -35.873,-10.555 -79.138,-32.713 -99.185,-53.817 -20.047,-21.105 -88.633,-11.605 -99.186,44.319 C -27.436,-79.139 1.055,-39.041 0,0" />
    </g>
    <g
       transform="matrix(0.18748057,0,0,-0.18748057,112.84225,117.58818)"
       id="g3145"
       style="fill:#ffeeaa">
      <path
         inkscape:connector-curvature="0"
         id="path3147"
         style="fill:#ffeeaa;fill-opacity:1;fill-rule:nonzero;stroke:none"
         d="m 0,0 c 0,0 75.969,36.932 90.744,46.43 -7.387,10.549 -21.103,18.99 -21.103,37.984 0,18.994 -32.713,40.098 -32.713,40.098 0,0 29.545,-11.608 42.207,-37.987 12.664,-26.379 31.654,-24.269 31.654,-24.269 0,0 17.94,52.754 63.313,44.316 0,-41.152 5.273,-52.759 20.046,-82.302 14.774,-29.543 24.268,-43.26 0,-58.036 2.112,-15.826 1.213,-28.486 14.852,-45.369 -21.184,12.658 -32.789,42.205 -32.789,42.205 0,0 -27.354,-32.711 -71.713,-7.384 C 60.145,-18.992 0,0 0,0" />
    </g>
    <g
       transform="matrix(0.18748057,0,0,-0.18748057,107.10065,126.29248)"
       id="g3149"
       style="fill:#ffeeaa">
      <path
         inkscape:connector-curvature="0"
         id="path3151"
         style="fill:#ffeeaa;fill-opacity:1;fill-rule:nonzero;stroke:none"
         d="M 0,0 C 0,0 -51.678,-3.164 -49.57,-41.148 -47.457,-79.137 -3.191,-17.937 0,0" />
    </g>
    <g
       transform="matrix(0.18748057,0,0,-0.18748057,109.47897,128.23098)"
       id="g3153"
       style="fill:#ffeeaa">
      <path
         inkscape:connector-curvature="0"
         id="path3155"
         style="fill:#ffeeaa;fill-opacity:1;fill-rule:nonzero;stroke:none"
         d="M 0,0 C 0,0 18.992,-68.797 37.984,-61.408 56.98,-54.027 25.604,-8.205 0,0" />
    </g>
    <g
       transform="matrix(0.18748057,0,0,-0.18748057,35.888431,119.56624)"
       id="g3157"
       style="fill:#ffeeaa">
      <path
         inkscape:connector-curvature="0"
         id="path3159"
         style="fill:#ffeeaa;fill-opacity:1;fill-rule:nonzero;stroke:none"
         d="m 0,0 c 0,0 -30.6,-78.082 -27.434,-134.008 13.717,31.656 13.602,37.985 13.602,37.985 v -63.305 l 7.5,42.205 c 0,0 -1.055,-93.91 11.607,-122.402 12.662,54.871 15.829,80.197 15.829,80.197 0,0 -12.663,-146.67 69.64,-219.479 -16.881,67.532 -23.213,125.567 -23.213,144.557 35.875,-111.846 78.08,-170.934 146.668,-213.143 -24.269,60.145 -73.861,235.303 -73.861,235.303 l 73.861,-135.062 c 0,0 6.33,93.912 0,127.677 -6.33,33.764 -18.992,100.241 -13.717,118.178 -17.937,-24.267 -39.043,-73.861 -31.656,-110.793 -21.101,67.531 -31.652,130.84 -14.771,154.055 -31.655,-60.145 -64.95,-117.123 -59.381,-180.434 -19.756,67.532 -26.088,169.885 -26.088,169.885 0,0 -26.789,-89.717 -13.717,-132.953 C 30.6,-153 16.883,-113.041 17.937,-89.23 11.607,-123.455 9.496,-140.363 9.496,-140.363 L 7.387,-52.762 -4.221,-72.805 Z" />
    </g>
    <g
       transform="matrix(0.18748057,0,0,-0.18748057,91.082433,132.4244)"
       id="g3161"
       style="fill:#ffeeaa">
      <path
         inkscape:connector-curvature="0"
         id="path3163"
         style="fill:#ffeeaa;fill-opacity:1;fill-rule:nonzero;stroke:none"
         d="m 0,0 c 0,0 -55.924,-104.467 -54.869,-206.818 1.056,-102.35 60.144,-189.93 60.144,-189.93 v 165.662 c 0,0 8.442,-41.154 17.938,-82.303 9.498,-41.154 46.422,-83.359 46.422,-83.359 0,0 50.644,39.043 46.429,112.904 -4.214,73.862 -10.546,168.828 -10.546,168.828 L 60.623,-285.957 c 0,0 0.477,111.85 0,145.615 -0.477,33.768 -7.865,88.631 -7.865,88.631 0,0 -25.324,-74.914 -26.379,-111.846 C 18.992,-100.246 8.443,-65.426 8.443,-52.764 8.443,-40.102 0,0 0,0" />
    </g>
    <g
       transform="matrix(0.18748057,0,0,-0.18748057,117.69257,147.65758)"
       id="g3165"
       style="fill:#ffeeaa">
      <path
         inkscape:connector-curvature="0"
         id="path3167"
         style="fill:#ffeeaa;fill-opacity:1;fill-rule:nonzero;stroke:none"
         d="m 0,0 c 0,0 -14.256,-75.973 -14.256,-117.125 0,-41.15 15.846,-93.91 14.256,-116.068 -1.594,-22.159 26.898,-64.364 26.898,-64.364 0,0 61.319,103.407 49.653,171.991 37.926,-99.186 72.746,-134.006 72.746,-134.006 0,0 4.221,91.801 0,155.111 C 145.076,-41.152 151.172,0 151.172,0 l -30.365,-67.531 c 0,0 6.332,58.035 1.056,90.744 -5.277,32.711 -8.441,49.424 -8.441,49.424 0,0 -50.651,-85.301 -55.924,-114.842 l -5.277,-29.547 -11.606,53.815 c 0,0 -11.609,-99.188 -11.609,-112.907 0,-13.715 -1.055,-18.99 -1.055,-18.99 0,0 -28.472,122.398 -27.951,149.834" />
    </g>
    <g
       transform="matrix(0.18748057,0,0,-0.18748057,155.17844,132.4244)"
       id="g3169"
       style="fill:#ffeeaa">
      <path
         inkscape:connector-curvature="0"
         id="path3171"
         style="fill:#ffeeaa;fill-opacity:1;fill-rule:nonzero;stroke:none"
         d="m 0,0 c 0,0 -25.324,-88.637 -26.377,-112.906 -1.055,-24.268 -4.221,-75.971 -4.221,-75.971 l 13.782,25.324 c 0,0 17.871,-175.158 24.205,-188.877 11.605,44.319 0,125.565 0,125.565 l 48.537,-78.082 c 0,0 8.441,140.342 -5.276,173.047 27.434,-36.93 50.647,-113.955 53.811,-147.723 15.83,74.916 27.435,161.439 27.435,161.439 l -18.992,-31.652 c 0,0 3.166,94.965 -2.107,119.232 -5.277,24.27 -14.777,63.311 -14.777,63.311 0,0 -7.381,-75.969 -18.991,-122.398 -5.273,46.429 -16.883,95.724 -16.883,95.724 0,0 -3.167,-63.012 -17.937,-90.449 -5.273,13.715 -10.553,34.82 -10.553,34.82 0,0 -5.277,-96.019 -27.433,-134.008 C 11.609,-94.965 0,0 0,0" />
    </g>
  </g>
</svg>
