<?xml version="1.0" encoding="UTF-8" standalone="no"?>
<!-- Created with Inkscape (http://www.inkscape.org/) -->

<svg
   xmlns:dc="http://purl.org/dc/elements/1.1/"
   xmlns:cc="http://creativecommons.org/ns#"
   xmlns:rdf="http://www.w3.org/1999/02/22-rdf-syntax-ns#"
   xmlns:svg="http://www.w3.org/2000/svg"
   xmlns="http://www.w3.org/2000/svg"
   xmlns:sodipodi="http://sodipodi.sourceforge.net/DTD/sodipodi-0.dtd"
   xmlns:inkscape="http://www.inkscape.org/namespaces/inkscape"
   width="210mm"
   height="297mm"
   viewBox="0 0 210 297"
   version="1.1"
   id="svg8"
   inkscape:version="0.92.2 5c3e80d, 2017-08-06"
   sodipodi:docname="tree1.svg">
  <defs
     id="defs2">
    <clipPath
       id="clipPath45"
       clipPathUnits="userSpaceOnUse">
      <path
         inkscape:connector-curvature="0"
         id="path43"
         d="M 0,864 H 864 V 0 H 0 Z" />
    </clipPath>
    <clipPath
       id="clipPath3854"
       clipPathUnits="userSpaceOnUse">
      <path
         inkscape:connector-curvature="0"
         id="path3852"
         d="M 0,864 H 864 V 0 H 0 Z" />
    </clipPath>
    <clipPath
       id="clipPath4053"
       clipPathUnits="userSpaceOnUse">
      <path
         inkscape:connector-curvature="0"
         id="path4051"
         d="M 0,864 H 864 V 0 H 0 Z" />
    </clipPath>
    <clipPath
       id="clipPath4150"
       clipPathUnits="userSpaceOnUse">
      <path
         inkscape:connector-curvature="0"
         id="path4148"
         d="M 0,864 H 864 V 0 H 0 Z" />
    </clipPath>
    <clipPath
       id="clipPath4295"
       clipPathUnits="userSpaceOnUse">
      <path
         inkscape:connector-curvature="0"
         id="path4293"
         d="M 0,864 H 864 V 0 H 0 Z" />
    </clipPath>
    <clipPath
       id="clipPath4410"
       clipPathUnits="userSpaceOnUse">
      <path
         inkscape:connector-curvature="0"
         id="path4408"
         d="M 0,864 H 864 V 0 H 0 Z" />
    </clipPath>
  </defs>
  <sodipodi:namedview
     id="base"
     pagecolor="#000000"
     bordercolor="#666666"
     borderopacity="1.0"
     inkscape:pageopacity="0"
     inkscape:pageshadow="2"
     inkscape:zoom="0.91846942"
     inkscape:cx="396.85039"
     inkscape:cy="561.25984"
     inkscape:document-units="mm"
     inkscape:current-layer="g39"
     showgrid="false"
     inkscape:window-width="2560"
     inkscape:window-height="1385"
     inkscape:window-x="2560"
     inkscape:window-y="27"
     inkscape:window-maximized="1"
     showguides="true"
     inkscape:guide-bbox="true">
    <sodipodi:guide
       position="105.43356,205.96993"
       orientation="1,0"
       id="guide3815"
       inkscape:locked="false" />
    <sodipodi:guide
       position="92.758485,149.50825"
       orientation="0,1"
       id="guide3817"
       inkscape:locked="false" />
  </sodipodi:namedview>
  <metadata
     id="metadata5">
    <rdf:RDF>
      <cc:Work
         rdf:about="">
        <dc:format>image/svg+xml</dc:format>
        <dc:type
           rdf:resource="http://purl.org/dc/dcmitype/StillImage" />
        <dc:title></dc:title>
      </cc:Work>
    </rdf:RDF>
  </metadata>
  <g
     inkscape:label="Layer 1"
     inkscape:groupmode="layer"
     id="layer1">
    <g
       transform="matrix(0.35277777,0,0,-0.35277777,-70.777455,287.43463)"
       inkscape:label="1"
       id="g37">
      <g
         id="g39">
        <g
           transform="matrix(0.75,0,0,0.75,167.38054,68.57226)"
           inkscape:label="6"
           id="g4402"
           style="fill:#ffeeaa">
          <g
             id="g4404"
             style="fill:#ffeeaa">
            <g
               clip-path="url(#clipPath4410)"
               id="g4406"
               style="fill:#ffeeaa">
              <g
                 transform="translate(436.332,446.3159)"
                 id="g4412"
                 style="fill:#ffeeaa">
                <path
                   inkscape:connector-curvature="0"
                   id="path4414"
                   style="fill:#ffeeaa;fill-opacity:1;fill-rule:nonzero;stroke:none"
                   d="m 0,0 c -20.163,-8.049 -26.883,-6.721 -28.228,-26.883 -1.344,-20.161 5.377,-17.474 16.13,-34.948 10.753,-17.473 9.409,-18.818 28.228,0 18.817,18.819 6.72,53.782 6.72,53.782 0,0 -2.688,16.098 -22.85,8.049" />
              </g>
              <g
                 transform="translate(352.9951,457.0693)"
                 id="g4416"
                 style="fill:#ffeeaa">
                <path
                   inkscape:connector-curvature="0"
                   id="path4418"
                   style="fill:#ffeeaa;fill-opacity:1;fill-rule:nonzero;stroke:none"
                   d="M 0,0 C -21.507,-1.345 -9.409,-27.489 -5.377,-47.349 -1.345,-67.208 0,-63.176 12.097,-77.961 c 12.097,-14.785 25.785,18.664 12.097,47.045 0,0 -2.688,32.26 -24.194,30.916" />
              </g>
              <g
                 transform="translate(435.4717,322.6553)"
                 id="g4420"
                 style="fill:#ffeeaa">
                <path
                   inkscape:connector-curvature="0"
                   id="path4422"
                   style="fill:#ffeeaa;fill-opacity:1;fill-rule:nonzero;stroke:none"
                   d="m 0,0 c -6.236,21.506 -31.4,2.688 -52.572,25.538 -21.173,22.851 -31.249,0 -35.282,-17.474 -4.032,-17.474 12.819,-26.091 -13.441,-52.42 -26.259,-26.331 13.441,-21.507 13.441,-21.507 47.045,47.045 32.26,-6.721 35.282,-19.829 3.021,-13.108 13.108,13.108 30.582,19.829 17.473,6.72 8.065,-17.474 10.752,-48.39 2.689,-30.915 32.26,-20.162 38.776,0 C 34.054,-94.091 15.646,-79.305 7.58,-66.21 -0.484,-53.115 6.236,-21.507 0,0" />
              </g>
              <g
                 transform="translate(331.4883,227.2217)"
                 id="g4424"
                 style="fill:#ffeeaa">
                <path
                   inkscape:connector-curvature="0"
                   id="path4426"
                   style="fill:#ffeeaa;fill-opacity:1;fill-rule:nonzero;stroke:none"
                   d="M 0,0 C 0,0 12.098,-56.454 9.086,-87.37 45.055,-40.324 0,0 0,0" />
              </g>
              <g
                 transform="translate(507.5713,166.7354)"
                 id="g4428"
                 style="fill:#ffeeaa">
                <path
                   inkscape:connector-curvature="0"
                   id="path4430"
                   style="fill:#ffeeaa;fill-opacity:1;fill-rule:nonzero;stroke:none"
                   d="m 0,0 c -1.345,32.259 -13.106,60.486 -13.106,60.486 0,0 -4.369,-37.636 -7.835,-72.578 -3.469,-34.941 53.2,-60.493 49.168,-54.887 C 24.194,-61.375 1.344,-32.26 0,0" />
              </g>
              <g
                 transform="translate(218.5806,645.9204)"
                 id="g4432"
                 style="fill:#ffeeaa">
                <path
                   inkscape:connector-curvature="0"
                   id="path4434"
                   style="fill:#ffeeaa;fill-opacity:1;fill-rule:nonzero;stroke:none"
                   d="m 0,0 c 30.916,-4.704 44.357,-57.125 59.143,-81.32 14.785,-24.195 68.551,-18.818 105.176,-29.572 -18.485,22.851 -20.496,37.637 -21.163,83.768 -0.666,46.133 -35.624,50.647 -84.013,58.712 -48.39,8.064 0,79.304 0,79.304 C -18.818,75.256 -89.585,-21.251 -89.585,-21.251 c 0,0 25.589,6.856 43.212,10.499 C -28.749,-7.111 -30.915,4.705 0,0" />
              </g>
              <g
                 transform="translate(314.0146,709.7676)"
                 id="g4436"
                 style="fill:#ffeeaa">
                <path
                   inkscape:connector-curvature="0"
                   id="path4438"
                   style="fill:#ffeeaa;fill-opacity:1;fill-rule:nonzero;stroke:none"
                   d="m 0,0 c 30.916,0 76.275,13.441 93.919,-29.572 13.613,37.637 28.398,52.423 28.398,52.423 0,0 -17.815,13.441 -28.398,24.194 C 83.337,57.798 80.648,61.464 60.486,59.631 40.324,57.798 14.155,55.217 0,47.045 0,47.045 -30.915,0 0,0" />
              </g>
              <g
                 transform="translate(475.8799,741.5459)"
                 id="g4440"
                 style="fill:#ffeeaa">
                <path
                   inkscape:connector-curvature="0"
                   id="path4442"
                   style="fill:#ffeeaa;fill-opacity:1;fill-rule:nonzero;stroke:none"
                   d="m 0,0 c 27.658,-0.863 44.237,27.853 44.237,27.853 0,0 -58.428,20.523 -93.194,0.451 0,0 21.299,-27.44 48.957,-28.304" />
              </g>
              <g
                 transform="translate(580.1543,756.8125)"
                 id="g4444"
                 style="fill:#ffeeaa">
                <path
                   inkscape:connector-curvature="0"
                   id="path4446"
                   style="fill:#ffeeaa;fill-opacity:1;fill-rule:nonzero;stroke:none"
                   d="m 0,0 v -31.79 l 28.57,7.656 C 28.57,-24.134 29.571,0 0,0" />
              </g>
              <g
                 transform="translate(628.543,686.917)"
                 id="g4448"
                 style="fill:#ffeeaa">
                <path
                   inkscape:connector-curvature="0"
                   id="path4450"
                   style="fill:#ffeeaa;fill-opacity:1;fill-rule:nonzero;stroke:none"
                   d="m 0,0 c 19.921,14.702 34.948,0 60.486,-6.721 25.539,-6.72 48.39,-13.441 48.39,-13.441 -4.032,13.441 -32.26,32.259 -61.83,27.343 -29.571,-4.916 -53.011,43.101 -53.011,43.101 0,0 -17.317,-29.994 -28.137,-27.929 C -44.921,24.417 -53.766,2.688 -48.389,-26.883 -43.012,-56.454 -19.92,-14.702 0,0" />
              </g>
              <g
                 transform="translate(486.4756,588.7949)"
                 id="g4452"
                 style="fill:#ffeeaa">
                <path
                   inkscape:connector-curvature="0"
                   id="path4454"
                   style="fill:#ffeeaa;fill-opacity:1;fill-rule:nonzero;stroke:none"
                   d="m 0,0 c -3.1,-20.162 2.873,-11.028 26.898,0 24.027,11.028 42.586,18.818 42.586,40.324 v 37.636 49.733 c 0,0 -22.637,-0.424 -49.733,-22.39 C -7.344,83.336 -18.785,81.49 -14.975,54.858 -11.164,28.227 3.099,20.162 0,0" />
              </g>
              <g
                 transform="translate(693.0625,668.0986)"
                 id="g4456"
                 style="fill:#ffeeaa">
                <path
                   inkscape:connector-curvature="0"
                   id="path4458"
                   style="fill:#ffeeaa;fill-opacity:1;fill-rule:nonzero;stroke:none"
                   d="M 0,0 C -21.506,6.721 -40.324,-24.446 -40.324,-24.446 -1.665,-14.087 -4.033,-28.227 57.798,-55.109 38.98,-25.538 21.506,-6.72 0,0" />
              </g>
              <g
                 transform="translate(652.7383,618.7969)"
                 id="g4460"
                 style="fill:#ffeeaa">
                <path
                   inkscape:connector-curvature="0"
                   id="path4462"
                   style="fill:#ffeeaa;fill-opacity:1;fill-rule:nonzero;stroke:none"
                   d="M 0,0 C 0,0 36.291,-17.905 73.928,-17.905 21.506,11.666 0,0 0,0" />
              </g>
              <g
                 transform="translate(513.374,488.6514)"
                 id="g4464"
                 style="fill:#ffeeaa">
                <path
                   inkscape:connector-curvature="0"
                   id="path4466"
                   style="fill:#ffeeaa;fill-opacity:1;fill-rule:nonzero;stroke:none"
                   d="m 0,0 c 15.703,-2.011 29.146,-0.667 66.78,-16.797 37.637,-16.13 59.798,-3.335 77.823,7.072 18.025,10.407 33.742,38.629 43.822,46.694 10.082,8.065 20.835,10.753 42.341,-14.786 21.505,-25.538 53.766,-43.013 61.83,-53.765 8.064,-10.753 10.783,-8.5 10.783,-8.5 0,0 -6.751,52.767 -17.504,76.334 -10.752,23.567 -16.129,34.32 -34.947,43.729 -18.819,9.409 -25.399,29.647 -62.503,8.225 0,0 -81.969,49.573 -93.07,7.905 C 84.255,54.442 84.255,67.884 49.308,46.377 14.359,24.872 -15.702,2.012 0,0" />
              </g>
              <g
                 transform="translate(796.6611,434.8711)"
                 id="g4468"
                 style="fill:#ffeeaa">
                <path
                   inkscape:connector-curvature="0"
                   id="path4470"
                   style="fill:#ffeeaa;fill-opacity:1;fill-rule:nonzero;stroke:none"
                   d="m 0,0 c 4.091,-13.444 20.092,-70.143 20.092,-70.143 0,0 -1.388,16.369 -3.143,29.81 C 15.196,-26.89 0,0 0,0" />
              </g>
              <g
                 transform="translate(806.707,442.7705)"
                 id="g4472"
                 style="fill:#ffeeaa">
                <path
                   inkscape:connector-curvature="0"
                   id="path4474"
                   style="fill:#ffeeaa;fill-opacity:1;fill-rule:nonzero;stroke:none"
                   d="m 0,0 c 28.164,-59.319 13.489,-112.527 13.489,-112.527 0,0 10.366,21.627 13.288,40.628 C 29.699,-52.9 0,0 0,0" />
              </g>
              <g
                 transform="translate(306.2793,375.4883)"
                 id="g4476"
                 style="fill:#ffeeaa">
                <path
                   inkscape:connector-curvature="0"
                   id="path4478"
                   style="fill:#ffeeaa;fill-opacity:1;fill-rule:nonzero;stroke:none"
                   d="m 0,0 c 17.145,35.88 27.897,65.451 3.703,99.055 -24.194,33.603 -75.272,30.915 -79.304,60.486 -4.033,29.571 -8.065,67.207 -20.162,77.96 -8.065,-37.636 -29.947,-42.28 -27.32,-70.987 2.626,-28.706 -46.508,-57.074 -46.508,-57.074 0,0 25.341,25.394 26.062,45.141 0.72,19.746 10.58,56.541 10.58,56.541 0,0 -55.56,-39.484 -63.625,-74.432 -8.065,-34.947 -18.506,-73.912 -18.506,-73.912 l 2.376,96.763 -19.264,-22.852 19.587,73.099 c 0,0 -48.056,-91.706 -41.781,-204.613 6.274,-112.907 40.61,-226.385 85.816,-253.805 -14.637,75.522 -30.007,149.936 -30.007,149.936 l 24.195,-9.409 c 0,0 -9.406,37.635 20.163,49.733 21.218,-1.644 34.947,-25.538 43.012,-56.454 l 18.818,18.818 -0.863,-160.642 30.575,-1.589 -5.967,89.637 16.647,15.837 16.783,-12.679 -4.32,-99.766 c 0,0 69.439,15.043 45.473,78.762 -23.966,63.717 -41.44,93.289 -27.999,124.203 C -8.394,-31.327 -17.144,-35.879 0,0" />
              </g>
              <g
                 transform="translate(172.5713,621.0664)"
                 id="g4480"
                 style="fill:#ffeeaa">
                <path
                   inkscape:connector-curvature="0"
                   id="path4482"
                   style="fill:#ffeeaa;fill-opacity:1;fill-rule:nonzero;stroke:none"
                   d="m 0,0 c 0,0 -46.922,-14.833 -58.254,-33.633 -11.332,-18.801 -13.349,-26.325 -13.349,-26.325 0,0 47.035,23.745 71.603,59.958" />
              </g>
              <g
                 transform="translate(634.0303,186.0889)"
                 id="g4484"
                 style="fill:#ffeeaa">
                <path
                   inkscape:connector-curvature="0"
                   id="path4486"
                   style="fill:#ffeeaa;fill-opacity:1;fill-rule:nonzero;stroke:none"
                   d="M 0,0 C -6.293,-6.341 -2.41,-8.616 -0.517,-9.251 1.379,-9.889 3.904,-4.062 3.904,-4.062 3.904,-4.062 6.29,6.342 0,0" />
              </g>
              <g
                 transform="translate(645.7559,182.0312)"
                 id="g4488"
                 style="fill:#ffeeaa">
                <path
                   inkscape:connector-curvature="0"
                   id="path4490"
                   style="fill:#ffeeaa;fill-opacity:1;fill-rule:nonzero;stroke:none"
                   d="M 0,0 C 2.964,-9.692 10.918,-8.319 9.041,-1.539 7.159,5.238 3.162,6.339 3.162,6.339 3.162,6.339 -2.963,9.689 0,0" />
              </g>
              <g
                 transform="translate(634.7666,207.6064)"
                 id="g4492"
                 style="fill:#ffeeaa">
                <path
                   inkscape:connector-curvature="0"
                   id="path4494"
                   style="fill:#ffeeaa;fill-opacity:1;fill-rule:nonzero;stroke:none"
                   d="m 0,0 c 0,0 -17.655,3.422 -20.908,14.142 -1.701,4.577 -6.486,19.654 -18.183,10.03 -11.694,-9.624 -15.303,-36.527 9.405,-45.796 4.925,-1.615 18.35,-2.32 30.947,12.542 C 3.189,-5.358 4.827,-0.609 0,0" />
              </g>
              <g
                 transform="translate(696.7217,146.3223)"
                 id="g4496"
                 style="fill:#ffeeaa">
                <path
                   inkscape:connector-curvature="0"
                   id="path4498"
                   style="fill:#ffeeaa;fill-opacity:1;fill-rule:nonzero;stroke:none"
                   d="m 0,0 c -2.313,9.462 -6.079,18.815 -6.079,18.815 0,0 -7.588,-27.523 -14.002,-34.966 -1.558,9.072 -2.95,19.154 -9.273,28 -3.863,-18.705 -9.863,-29.812 -16.953,-36.911 -0.475,12.317 -1.702,22.735 -5.521,30.66 -0.493,-5.91 -4.418,-19.036 -12.089,-30.861 -1.728,6.411 -8.125,11.323 -5.654,33.104 -2.273,-3.829 -8.105,-8.969 -11.662,-28.902 -4.289,10.085 -11.344,33.678 -10.323,39.947 -2.771,-3.365 -8.692,-11.904 -13.028,-24.975 -2.858,8.203 -6.662,13.02 -7.69,37.913 -2.088,-2.625 -9.031,-9.807 -10.999,-15.02 -0.847,10.825 -1.591,21.562 1.244,33.896 0,0 -15.489,-23.115 -0.87,-52.617 2.988,9.734 6.087,18.012 6.087,18.012 0,0 4.208,-18.487 14.511,-32.998 5.458,12.931 7.072,14.238 7.072,14.238 0,0 3.562,-17.024 16.017,-27.064 5.057,10.093 5.832,12.166 5.832,12.166 0,0 3.025,-10.601 8.501,-16.247 6.471,6.612 12.2,14.582 12.2,14.582 0,0 1.268,-9.267 2.077,-15.563 8.758,6.325 17.258,9.997 22.197,22.993 2.94,-11.515 1.616,-15.057 1.616,-15.057 0,0 13.987,8.108 21.489,26.573 2.182,-10.998 2.566,-17.445 2.566,-17.445 0,0 14.217,22.546 9.178,50.118 C 6.085,16.246 2.408,6.427 0,0" />
              </g>
              <g
                 transform="translate(778.5703,241.0615)"
                 id="g4500"
                 style="fill:#ffeeaa">
                <path
                   inkscape:connector-curvature="0"
                   id="path4502"
                   style="fill:#ffeeaa;fill-opacity:1;fill-rule:nonzero;stroke:none"
                   d="m 0,0 c 0,0 29.254,40.053 31.617,69.59 2.364,29.539 -7.089,70.893 -7.089,70.893 0,0 -14.007,-52.264 -21.511,-80.279 -7.506,-28.015 3.887,-43.581 -16.33,-60.95 -20.219,-17.368 -32.086,-19.629 -19.968,4.586 12.118,24.214 22.41,37.542 20.542,55.651 -1.868,18.11 11.181,40.714 16.438,49.818 5.257,9.102 1.302,39.253 1.302,39.253 0,0 -17.047,-47.443 -36.067,-62.47 -19.02,-15.028 -41.43,-4.757 -41.43,-4.757 0,0 28.869,10.404 37.311,21.542 8.441,11.137 1.906,18.606 5.64,29.81 3.734,11.205 11.092,23.949 15.663,31.868 4.572,7.92 -12.862,17.621 -14.73,26.023 -1.867,8.402 -12.137,23.342 -15.872,37.347 -3.737,14.005 -12.957,23.703 -28.012,7.5 -15.055,-16.202 -20.539,-26.174 -28.943,-47.649 -8.405,-21.474 -8.451,-8.478 -32.68,-21.474 -24.229,-12.995 -27.075,-12.138 -37.347,-26.144 -10.271,-14.006 -31.745,-12.139 -42.016,-1.868 -10.272,10.272 -36.416,36.414 -56.022,9.337 -19.607,-27.077 -10.269,-24.993 -19.607,-58.247 -9.336,-33.255 -25.209,-35.122 0,-59.398 25.21,-24.277 31.745,-17.74 40.149,-56.954 2.964,-13.839 4.65,-25.463 6.042,-35.704 0.107,24.309 6.241,47.886 15.984,60.174 22.004,27.746 56.566,23.845 67.682,24.93 2.243,3.906 9.328,3.855 4.007,14.977 -9.717,20.323 12.968,38.617 22.902,44.07 -18.193,-29.94 1.179,-39.12 -0.398,-47.948 -2.976,-16.647 35.635,-24.187 70.644,-44.41 23.966,-13.846 30.409,-68.076 21.581,-105.342 0,0 78.701,72.186 78.701,152.536 C 20.369,5.458 0,0 0,0" />
              </g>
              <g
                 transform="translate(676.5186,182.7002)"
                 id="g4504"
                 style="fill:#ffeeaa">
                <path
                   inkscape:connector-curvature="0"
                   id="path4506"
                   style="fill:#ffeeaa;fill-opacity:1;fill-rule:nonzero;stroke:none"
                   d="M 0,0 C 4.557,0.617 20.288,9.531 15.79,31.512 14.085,38.07 4.282,53.783 -1.313,46.559 -6.908,39.337 -9.326,22.592 -22.75,23.297 c 0,0 -6.896,3.449 -5.325,-4.479 C -26.502,10.885 -26.476,-0.816 0,0" />
              </g>
            </g>
          </g>
        </g>
      </g>
    </g>
  </g>
</svg>
