<?xml version="1.0" encoding="UTF-8" standalone="no"?>
<!-- Created with Inkscape (http://www.inkscape.org/) -->

<svg
   xmlns:dc="http://purl.org/dc/elements/1.1/"
   xmlns:cc="http://creativecommons.org/ns#"
   xmlns:rdf="http://www.w3.org/1999/02/22-rdf-syntax-ns#"
   xmlns:svg="http://www.w3.org/2000/svg"
   xmlns="http://www.w3.org/2000/svg"
   xmlns:sodipodi="http://sodipodi.sourceforge.net/DTD/sodipodi-0.dtd"
   xmlns:inkscape="http://www.inkscape.org/namespaces/inkscape"
   width="210mm"
   height="297mm"
   viewBox="0 0 210 297"
   version="1.1"
   id="svg8"
   inkscape:version="0.92.2 5c3e80d, 2017-08-06"
   sodipodi:docname="tree2.svg">
  <defs
     id="defs2">
    <clipPath
       id="clipPath45"
       clipPathUnits="userSpaceOnUse">
      <path
         inkscape:connector-curvature="0"
         id="path43"
         d="M 0,864 H 864 V 0 H 0 Z" />
    </clipPath>
    <clipPath
       id="clipPath3854"
       clipPathUnits="userSpaceOnUse">
      <path
         inkscape:connector-curvature="0"
         id="path3852"
         d="M 0,864 H 864 V 0 H 0 Z" />
    </clipPath>
    <clipPath
       id="clipPath4053"
       clipPathUnits="userSpaceOnUse">
      <path
         inkscape:connector-curvature="0"
         id="path4051"
         d="M 0,864 H 864 V 0 H 0 Z" />
    </clipPath>
    <clipPath
       id="clipPath4150"
       clipPathUnits="userSpaceOnUse">
      <path
         inkscape:connector-curvature="0"
         id="path4148"
         d="M 0,864 H 864 V 0 H 0 Z" />
    </clipPath>
    <clipPath
       id="clipPath4295"
       clipPathUnits="userSpaceOnUse">
      <path
         inkscape:connector-curvature="0"
         id="path4293"
         d="M 0,864 H 864 V 0 H 0 Z" />
    </clipPath>
    <clipPath
       id="clipPath4410"
       clipPathUnits="userSpaceOnUse">
      <path
         inkscape:connector-curvature="0"
         id="path4408"
         d="M 0,864 H 864 V 0 H 0 Z" />
    </clipPath>
    <clipPath
       id="clipPath4615"
       clipPathUnits="userSpaceOnUse">
      <path
         inkscape:connector-curvature="0"
         id="path4613"
         d="M 0,864 H 864 V 0 H 0 Z" />
    </clipPath>
    <clipPath
       id="clipPath4838"
       clipPathUnits="userSpaceOnUse">
      <path
         inkscape:connector-curvature="0"
         id="path4836"
         d="M 0,864 H 864 V 0 H 0 Z" />
    </clipPath>
    <clipPath
       id="clipPath5001"
       clipPathUnits="userSpaceOnUse">
      <path
         inkscape:connector-curvature="0"
         id="path4999"
         d="M 0,864 H 864 V 0 H 0 Z" />
    </clipPath>
    <inkscape:perspective
       id="perspective9"
       inkscape:persp3d-origin="372.04724 : 350.78739 : 1"
       inkscape:vp_z="744.09448 : 526.18109 : 1"
       inkscape:vp_y="0 : 1000 : 0"
       inkscape:vp_x="0 : 526.18109 : 1"
       sodipodi:type="inkscape:persp3d" />
  </defs>
  <sodipodi:namedview
     id="base"
     pagecolor="#000000"
     bordercolor="#666666"
     borderopacity="1.0"
     inkscape:pageopacity="0"
     inkscape:pageshadow="2"
     inkscape:zoom="0.91846942"
     inkscape:cx="396.85039"
     inkscape:cy="556.87007"
     inkscape:document-units="mm"
     inkscape:current-layer="g5136"
     showgrid="false"
     inkscape:window-width="2560"
     inkscape:window-height="1385"
     inkscape:window-x="2560"
     inkscape:window-y="27"
     inkscape:window-maximized="1"
     showguides="true"
     inkscape:guide-bbox="true">
    <sodipodi:guide
       position="105.43356,205.96993"
       orientation="1,0"
       id="guide3815"
       inkscape:locked="false" />
    <sodipodi:guide
       position="92.758485,149.50825"
       orientation="0,1"
       id="guide3817"
       inkscape:locked="false" />
  </sodipodi:namedview>
  <metadata
     id="metadata5">
    <rdf:RDF>
      <cc:Work
         rdf:about="">
        <dc:format>image/svg+xml</dc:format>
        <dc:type
           rdf:resource="http://purl.org/dc/dcmitype/StillImage" />
        <dc:title></dc:title>
      </cc:Work>
    </rdf:RDF>
  </metadata>
  <g
     inkscape:label="Layer 1"
     inkscape:groupmode="layer"
     id="layer1">
    <g
       transform="matrix(0.35277777,0,0,-0.35277777,-70.777455,287.43463)"
       inkscape:label="1"
       id="g37">
      <g
         id="g39">
        <g
           id="g5136"
           transform="matrix(0.75000002,0,0,-0.75000002,342.50983,505.50165)"
           style="fill:#ffeeaa">
          <path
             style="fill:#ffeeaa;stroke-width:1.57196534"
             d="m 10.749998,365.38591 c 0,-1.92098 6.981607,-8.13385 9.140168,-8.13385 1.024935,0 1.863644,-0.53471 1.863644,-1.18813 0,-0.65323 2.299027,-2.11471 5.108845,-3.24696 2.809928,-1.13227 6.337191,-2.71965 7.838508,-3.52763 1.501302,-0.8083 4.154004,-1.46905 5.894868,-1.46905 1.740849,0 3.165249,-0.70758 3.165249,-1.57193 0,-0.86448 1.270934,-1.57201 2.824191,-1.57201 2.823229,0 7.053248,-2.72355 13.43526,-8.64999 10.372626,-9.63258 19.36784,-15.1305 29.679417,-18.14006 8.64028,-2.52189 9.375883,-3.72762 7.276038,-11.92532 -0.857329,-3.34706 -1.916508,-7.85399 -2.353835,-10.0156 -0.437547,-2.1614 -1.377662,-5.34465 -2.089912,-7.07384 -2.224508,-5.40081 -4.38175,-12.27875 -6.409577,-20.43547 -1.074649,-4.32293 -2.557093,-8.53181 -3.294152,-9.35326 -0.737047,-0.8217 -1.340269,-3.43216 -1.340269,-5.80211 0,-2.36979 -0.6292,-4.69749 -1.398215,-5.17285 -3.177726,-1.96403 -6.180952,-33.24214 -3.453641,-35.96941 0.939394,-0.93937 1.707962,-3.0111 1.707962,-4.60374 0,-3.10839 1.451854,-5.1832 8.300938,-11.86242 9.672109,-9.43212 12.094529,-11.33639 14.421085,-11.33639 1.33619,0 2.42942,-0.7076 2.42942,-1.57199 0,-0.86446 2.1221,-1.57198 4.71589,-1.57198 2.59375,0 4.71586,-0.53471 4.71586,-1.1892 0,-2.49906 13.06061,-5.09861 25.61745,-5.09861 15.65868,0 23.84927,3.27192 30.48903,12.17959 2.41798,3.24393 4.75513,6.25173 5.19377,6.68394 0.81184,0.80029 3.01811,5.49929 5.90478,12.5759 0.88141,2.1613 2.46006,7.11305 3.50748,11.00363 1.04741,3.89058 2.54271,8.30227 3.32305,9.80348 0.7807,1.5013 1.41881,4.46588 1.41881,6.58805 0,2.12213 0.70759,4.29568 1.57195,4.83 0.86447,0.53472 1.57199,2.65659 1.57199,4.71584 0,2.05946 0.70762,4.18158 1.57195,4.71592 0.86448,0.53474 1.57199,3.01019 1.57199,5.50186 0,2.49167 0.5864,4.89292 1.30327,5.33595 0.71654,0.44291 2.24546,4.9058 3.39706,9.91757 1.15143,5.01153 2.68706,9.78411 3.41258,10.60542 0.7254,0.82171 1.31885,3.12027 1.31885,5.10888 0,2.96917 0.84307,3.61546 4.71591,3.61546 4.60613,0 4.71586,-0.18181 4.71586,-7.79821 0,-10.18425 2.85067,-38.42128 4.68777,-46.43461 0.79315,-3.45818 1.87327,-13.81778 2.40084,-23.02086 0.91723,-15.99901 0.80033,-16.89835 -2.67169,-20.49733 -5.86518,-6.08025 -13.66616,-16.45398 -15.65377,-20.81632 -1.01393,-2.2252 -2.43735,-4.046 -3.16313,-4.046 -0.72542,0 -1.31968,-0.98319 -1.31968,-2.18485 0,-1.20167 -4.23806,-4.91544 -9.41806,-8.25273 -5.17986,-3.33744 -9.42414,-6.59846 -9.43175,-7.24691 -0.003,-0.64878 -0.90179,-1.17903 -1.98725,-1.17903 -1.08537,0 -4.84746,-2.7071 -8.3602,-6.01585 -6.37557,-6.00527 -20.02228,-15.99171 -21.85329,-15.99171 -0.53205,0 -2.73565,-1.76833 -4.89711,-3.92989 -2.16142,-2.16142 -4.59606,-3.92991 -5.41024,-3.92991 -2.21775,0 -30.57363,-28.789633 -33.89677,-34.415347 -1.58678,-2.685964 -3.363028,-4.883729 -3.947392,-4.883729 -1.042624,0 -6.142741,-11.535261 -6.095485,-13.78651 0.0044,-0.630976 0.656799,-2.146157 1.429285,-3.36703 1.210264,-1.911944 1.697641,-1.911944 3.512828,0 1.159158,1.220873 3.111404,4.165084 4.338214,6.542713 1.22683,2.377595 2.81845,4.322896 3.53688,4.322896 0.7183,0 1.30642,0.975325 1.30642,2.167392 0,1.192052 3.4653,5.800861 7.70068,10.241579 4.2355,4.440844 8.1039,9.124585 8.59656,10.408358 0.49283,1.283742 1.68072,2.334088 2.64026,2.334088 0.95941,0 4.46306,2.829552 7.78589,6.28791 3.32272,3.45849 7.15786,6.28803 8.52257,6.28803 1.36468,0 2.48116,0.58816 2.48116,1.30617 0,0.71832 1.94526,2.30891 4.3229,3.53443 2.37759,1.22545 4.67662,2.58291 5.10885,3.01657 2.52206,2.53011 14.52824,7.99222 15.43001,7.01974 0.59176,-0.63811 0.1916,-1.47565 -0.88937,-1.86151 -1.08079,-0.3859 -1.9649,-1.34214 -1.9649,-2.12478 0,-1.43519 -2.86349,-5.26653 -8.64581,-11.56816 -1.72922,-1.88449 -4.17304,-5.1557 -5.43085,-7.26945 -3.78187,-6.355158 -14.21882,-28.106613 -14.21882,-29.632956 0,-0.782451 -1.51521,-4.495356 -3.36709,-8.251649 -4.21349,-8.545982 -5.43051,-11.617771 -7.53275,-19.012168 -0.92164,-3.242153 -2.38321,-8.244069 -3.24784,-11.115216 -2.14251,-7.115459 -1.97605,-10.319649 0.67373,-12.969536 3.26308,-3.263023 4.04218,-2.804756 4.04218,2.377518 0,2.542763 0.70763,5.060297 1.572,5.594655 0.86444,0.534712 1.57197,2.656465 1.57197,4.715827 0,2.059445 0.70761,4.181549 1.57195,4.715932 0.86449,0.534713 1.57198,2.698246 1.57198,4.808679 0,2.110436 0.70761,3.837128 1.57201,3.837128 0.86443,0 1.57186,1.070681 1.57186,2.379297 0,1.308532 0.66304,3.607575 1.47377,5.108879 0.81098,1.501315 4.41133,8.679919 8.00174,15.952585 3.59055,7.272699 7.52531,14.220155 8.74411,15.439052 1.21879,1.218691 2.22953,2.695848 2.24611,3.282618 0.0195,0.586386 2.49245,3.888455 5.50184,7.337273 3.00948,3.448896 5.47174,7.162672 5.47174,8.252832 0,1.09018 1.41478,1.98218 3.14398,1.98218 2.95233,0 3.14393,-1.04804 3.14393,-17.198793 0,-9.770299 -0.67909,-17.618544 -1.57198,-18.170425 -0.86444,-0.534728 -1.57195,-3.264082 -1.57195,-6.066285 0,-2.802099 -0.58462,-5.766741 -1.29865,-6.588066 -0.71386,-0.821678 -2.24225,-4.499793 -3.39555,-8.174183 -1.15329,-3.674476 -2.57751,-6.680924 -3.16488,-6.680924 -0.95742,0 -4.71664,-6.94977 -4.71664,-8.719777 0,-0.39123 1.28723,-0.712055 2.86046,-0.712055 3.29536,0 9.71526,6.759947 9.71526,10.229809 0,1.290266 0.53471,2.345983 1.1892,2.345983 1.43819,0 5.09871,11.267891 5.09871,15.69489 0,1.742795 0.62206,3.168725 1.38293,3.168725 0.76109,0 1.82782,4.067414 2.37137,9.038749 0.54365,4.971325 1.65013,13.990487 2.45896,20.042596 0.8092,6.05205 1.95965,15.248006 2.5572,20.435536 0.99826,8.66608 1.86669,10.32484 10.69859,20.4333 5.28685,6.05087 12.26496,13.59979 15.50712,16.77534 3.24216,3.1757 5.89488,6.46108 5.89488,7.30097 0,1.33758 3.51994,3.43537 5.76451,3.43537 1.77319,0 -1.79965,-28.7016 -5.77268,-46.37299 -0.97197,-4.3229 -2.14941,-10.51259 -2.61653,-13.75476 -0.46702,-3.242262 -1.41434,-5.89489 -2.1046,-5.89489 -1.23962,0 -2.18064,-6.265232 -4.09342,-27.255502 -0.90556,-9.936813 0.93837,-25.211425 4.01565,-33.265137 0.66037,-1.729168 2.18938,-6.319433 3.39713,-10.200662 1.37436,-4.416577 3.24819,-7.257598 5.00875,-7.593937 2.38608,-0.455413 2.62456,0.138182 1.57196,3.912779 -1.51687,5.439928 -1.2736,44.239242 0.33778,53.88063 0.64258,3.843077 2.09764,7.917155 3.23396,9.053538 1.70675,1.706689 2.55194,1.243301 4.86039,-2.664668 1.53706,-2.601751 3.34937,-4.730527 4.0275,-4.730527 0.6782,0 1.23304,-1.339107 1.23304,-2.975788 0,-1.636697 1.03235,-3.371845 2.29401,-3.856028 1.26185,-0.483943 4.00289,-4.273629 6.09142,-8.421062 3.49693,-6.944349 3.67926,-8.408673 2.3071,-18.517295 -1.85823,-13.688888 0.58822,-47.9720135 3.42361,-47.9720135 0.67999,0 1.6068,-1.4147683 2.05896,-3.1439454 0.45178,-1.7292703 2.02688,-3.1440401 3.49933,-3.1440401 2.15533,0 2.50318,0.9955508 1.78467,5.1089409 -0.49105,2.809827 -1.56552,8.9995314 -2.38812,13.7547588 -1.61946,9.3626793 -0.55967,31.0359593 1.58235,32.3598293 1.70161,1.051693 10.78596,-13.222347 10.78596,-16.948 0,-1.559853 0.70763,-2.836116 1.572,-2.836116 0.86448,0 1.57201,-1.778106 1.57201,-3.951282 0,-2.173179 0.62026,-5.179611 1.37892,-6.680917 2.36675,-4.684557 4.90896,-13.7952179 4.90896,-17.5925051 0,-6.0900609 3.51423,-15.7904219 5.72068,-15.7904219 4.57704,0 3.7232,11.35425 -2.77831,36.941283 -0.87871,3.458263 -1.97756,8.58682 -2.44208,11.396739 -0.46428,2.80985 -1.47436,5.108871 -2.24427,5.108871 -0.77001,0 -1.39998,0.928253 -1.39998,2.062569 0,1.134572 -1.46431,5.093605 -3.254,8.797847 -3.63187,7.517106 -3.27092,9.081969 1.50531,6.525759 4.11214,-2.200802 19.04034,-17.067146 19.04034,-18.961542 0,-0.784254 1.76836,-3.194124 3.92987,-5.355537 2.16142,-2.161505 3.92993,-4.537067 3.92993,-5.27916 0,-0.742356 1.7607,-4.999323 3.91292,-9.4603719 2.79462,-5.7928398 4.59187,-7.85078685 6.28785,-7.1998498 2.50511,0.9612427 3.40853,10.0067517 0.99945,10.0067517 -0.75661,0 -1.76578,1.951885 -2.24303,4.33761 -0.47679,2.385632 -2.68681,6.453138 -4.91032,9.038743 -2.22367,2.585536 -4.04396,5.263931 -4.04501,5.951652 -10e-4,0.687999 -1.77037,3.018832 -3.93179,5.180328 -2.16151,2.161317 -3.92987,4.458458 -3.92987,5.104488 0,1.78907 -37.02971,38.949556 -39.91634,40.057237 -1.38975,0.532932 -2.52672,2.052945 -2.52672,3.376901 0,1.324065 -0.70761,2.407325 -1.57198,2.407325 -0.86448,0 -1.572,1.414761 -1.572,3.143832 0,1.729284 -0.70758,3.14404 -1.57193,3.14404 -0.86448,0 -1.57198,1.355793 -1.57198,3.012934 0,1.65704 -0.5303,3.248674 -1.17898,3.536907 -4.51079,2.004725 -10.71944,21.745535 -6.83917,21.745535 1.5258,0 2.95518,8.57032 4.30232,25.7955 1.35203,17.28682 4.78819,18.3189 18.37658,5.51957 3.59908,-3.38997 7.17195,-6.16364 7.93988,-6.16364 0.76728,0 2.5401,-1.27147 3.93837,-2.82552 1.39826,-1.55409 5.01821,-4.54509 8.04426,-6.64669 13.13691,-9.12379 15.55925,-15.04024 18.32706,-44.760624 0.48299,-5.187541 1.50894,-10.103826 2.27928,-10.925126 0.7709,-0.821682 1.40115,-3.129953 1.40115,-5.13023 0,-2.000317 0.70758,-5.042039 1.57196,-6.759434 0.86444,-1.717421 2.27932,-4.537339 3.14395,-6.266506 5.60579,-11.211752 10.6799,-17.291656 14.43107,-17.291656 1.81253,0 2.86047,1.151859 2.86047,3.14396 0,1.72917 -0.62115,3.143938 -1.38125,3.143938 -0.75929,0 -2.26015,2.122103 -3.3346,4.715825 -1.0744,2.593742 -2.5749,4.715858 -3.33467,4.715858 -0.75928,0 -1.38124,1.414761 -1.38124,3.144034 0,1.729097 -0.55257,3.143865 -1.22878,3.143865 -2.06261,0 -4.79415,12.648077 -5.68679,26.330197 -0.88497,13.566619 -0.24062,17.691619 2.7609,17.674769 3.98368,-0.0195 35.594,-33.265298 35.594,-37.432428 0,-0.8092 1.09608,-2.381445 2.43571,-3.493116 1.33965,-1.111926 3.84281,-4.912262 5.56258,-8.445307 1.71955,-3.533121 4.84797,-9.607044 6.95175,-13.497635 2.10374,-3.890591 3.84484,-8.225187 3.86919,-9.632389 0.0266,-1.407104 1.15934,-3.483746 2.52204,-4.614761 3.49446,-2.900126 5.35447,0.537377 4.23348,7.824309 -1.04148,6.769158 -13.72012,33.867415 -17.71498,37.862156 -0.4322,0.432231 -1.67018,2.377523 -2.75092,4.322812 -1.08066,1.945403 -2.84914,5.128552 -3.9299,7.073845 -1.08073,1.945414 -2.35276,3.890681 -2.82667,4.322904 -0.47412,0.432256 -2.58892,3.255516 -4.69973,6.27382 -2.11096,3.0183 -6.26676,7.61624 -9.23514,10.2178 -2.96831,2.6015 -6.28515,5.61419 -7.37065,6.6949 -1.08564,1.08075 -2.73158,1.965 -3.65797,1.965 -0.92629,0 -1.68415,1.13768 -1.68415,2.52832 0,1.97024 0.95418,2.29161 4.32291,1.45575 2.37759,-0.58995 4.55868,-1.72775 4.84683,-2.52847 0.28874,-0.80029 1.50493,-1.4556 2.70385,-1.4556 1.19905,0 6.35616,-2.12219 11.46033,-4.71593 5.1041,-2.59372 10.43061,-4.71593 11.83672,-4.71593 1.40612,0 2.55644,-0.7076 2.55644,-1.57197 0,-0.86445 1.41479,-1.57187 3.14401,-1.57187 1.72915,0 3.14391,-0.58817 3.14391,-1.30641 0,-0.71831 1.94532,-2.30889 4.32291,-3.53436 2.37762,-1.22552 4.67655,-2.60124 5.10886,-3.05724 0.43223,-0.45631 3.96918,-3.284869 7.85988,-6.286503 3.89062,-3.001489 11.81454,-10.233901 17.60863,-16.072104 10.30833,-10.38624 15.40256,-13.083001 15.40256,-8.153259 0,1.353707 -0.77888,3.916254 -1.73022,5.69445 -2.30812,4.312537 -16.54803,18.433992 -23.42116,23.226008 -3.02606,2.109778 -5.85562,4.270508 -6.28791,4.801468 -1.71117,2.10207 -15.60248,10.97579 -17.18187,10.97579 -0.92493,0 -1.68168,0.60511 -1.68168,1.34424 0,0.73971 -6.18959,4.37096 -13.75475,8.07022 -24.95143,12.20085 -27.11632,13.36289 -27.11632,14.5553 0,0.64967 -0.92763,1.18162 -2.06151,1.18162 -1.13384,0 -3.58018,1.41475 -5.4362,3.14398 -1.85598,1.72915 -4.46531,3.14393 -5.79838,3.14393 -1.33292,0 -2.42357,0.70758 -2.42357,1.57199 0,0.86444 -1.41478,1.57196 -3.14393,1.57196 -1.72921,0 -3.144,0.70759 -3.144,1.5719 0,0.86443 -1.41477,1.57195 -3.14391,1.57195 -1.72909,0 -3.14387,0.70766 -3.14387,1.57197 0,0.86446 -1.41476,1.57198 -3.14393,1.57198 -1.72921,0 -3.14398,0.70759 -3.14398,1.57199 0,0.86444 -1.08326,1.57197 -2.40727,1.57197 -1.32398,0 -2.8756,1.23798 -3.44776,2.75092 -0.57217,1.513 -5.60456,6.99524 -11.1825,12.1827 -5.57815,5.18757 -13.22265,12.3972 -16.98778,16.0215 l -6.84575,6.58976 v 12.66688 c 0,7.39655 0.65414,12.66681 1.57198,12.66681 0.86442,0 1.57193,1.42437 1.57193,3.16532 0,1.74086 0.81818,4.74721 1.81736,6.68082 3.91217,7.56756 4.47046,9.08392 4.47046,12.14 0,1.74095 0.63632,3.16538 1.41371,3.16538 0.77712,0 1.78337,3.00634 2.23517,6.68079 1.07385,8.73353 3.66508,21.67918 5.03439,25.15144 0.9845,2.49642 4.0951,2.75088 33.61365,2.75088 21.31645,0 33.11733,0.58902 34.2366,1.70804 1.10892,1.10879 5.76869,1.36199 13.28314,0.72182 6.36624,-0.54182 20.06378,-1.33391 30.43868,-1.75929 18.202,-0.7468 19.01512,-0.64164 23.18652,2.99762 2.87651,2.50951 4.32293,5.31435 4.32293,8.38283 0,2.5364 0.63897,5.28362 1.4195,6.10494 2.21646,2.33161 3.51535,15.06356 4.29964,42.14148 l 0.72184,24.92836 -13.04526,-1.1263 c -13.47726,-1.16373 -47.88033,-1.36584 -91.64361,-0.53828 -13.83326,0.262 -30.10307,-0.21741 -36.15524,-1.0648 -6.40605,-0.89663 -17.24331,-1.02344 -25.93743,-0.30387 -37.41656,3.09858 -50.6957,3.02478 -63.29503,-0.35111 -12.30253,-3.29701 -18.42595,-3.0089 -33.49247,1.57576 -5.9509,1.8109 -134.291416,1.97426 -134.291416,0.17132 z M 369.15806,196.91157 c -1.6586,-2.30094 -4.06937,-3.14393 -8.99286,-3.14393 -3.6996,0 -6.7268,-0.38857 -6.7268,-0.8636 0,-0.47495 1.15463,-3.09671 2.56586,-5.82559 1.77407,-3.43065 2.0165,-5.14458 0.78601,-5.55482 -2.51199,-0.8377 -2.27069,-9.76294 0.26379,-9.76294 1.12401,0 2.75109,0.70761 3.61585,1.57215 1.97415,1.97428 10.03036,-1.49187 10.04802,-4.32306 0.0265,-4.21499 3.06766,-1.6775 4.01002,3.34571 0.67463,3.59745 2.34605,5.98936 5.18014,7.41478 2.30104,1.15718 4.37725,2.20305 4.6137,2.32407 1.39653,0.71473 -1.94626,5.38591 -3.85433,5.38591 -3.5578,0 -6.7934,4.06442 -6.7934,8.53363 0,4.84964 -1.64235,5.16243 -4.71591,0.89824 z M 42.654151,178.65968 c -4.509606,-5.06682 -4.730533,-5.73953 -2.110268,-6.42467 1.609689,-0.42068 3.304896,-2.21185 3.767258,-3.97954 0.742381,-2.83787 1.633121,-3.08736 7.612136,-2.13219 8.417946,1.34489 8.895359,1.89475 7.966168,9.17386 -0.627396,4.91109 -1.364044,5.89478 -4.417614,5.89478 -2.015876,0 -4.102336,0.70765 -4.636701,1.57198 -1.563953,2.53064 -2.849869,1.88552 -8.180979,-4.10422 z m 4.078569,-49.98619 c -3.985514,-1.13406 -9.644589,-3.39829 -12.575748,-5.03193 -7.019034,-3.91171 -18.691069,-15.53651 -18.691069,-18.61551 0,-1.33767 -0.707608,-2.43215 -1.571963,-2.43215 -0.86447,0 -1.571992,-1.41477 -1.571992,-3.143871 0,-1.729277 -0.707618,-3.144042 -1.57195,-3.144042 -2.2386665,0 -1.9733883,-22.965788 0.343988,-29.755698 3.243229,-9.503653 15.982656,-26.835043 19.725117,-26.835043 0.741484,0 4.133702,-1.317267 7.53832,-2.927226 7.718209,-3.649954 16.760256,-5.114098 19.686729,-3.187961 1.827314,1.202664 1.593394,1.992175 -1.313869,4.434206 -1.945305,1.634105 -3.536972,3.716905 -3.536972,4.628605 0,0.911865 -1.414761,2.414878 -3.143863,3.340265 -1.806554,0.966758 -3.143969,3.291439 -3.143969,5.464458 0,2.080034 -0.707594,4.218975 -1.571939,4.753353 -0.864457,0.534686 -1.572003,6.94265 -1.572003,14.240453 0,7.797917 0.647926,13.268892 1.572003,13.268892 0.864458,0 1.571939,1.07067 1.571939,2.379309 0,3.375017 3.15744,8.439658 8.744929,14.02717 5.587591,5.58752 10.652175,8.74501 14.027205,8.74501 1.308639,0 2.379295,0.70761 2.379295,1.57188 0,0.88676 4.453925,1.57206 10.217791,1.57206 5.619809,0 10.217821,0.59891 10.217821,1.33148 0,1.72355 -5.522924,8.10029 -7.015568,8.10029 -0.630071,0 -3.022592,1.32488 -5.317478,2.94415 -3.870013,2.73071 -7.824055,3.78611 -21.071272,5.62478 -2.809857,0.39033 -8.369747,-0.21928 -12.35524,-1.35293 z M 139.65114,-4.2997769 c -2.41566,-3.3517036 -11.59442,-4.43155 -13.36165,-1.5719739 -1.9151,3.0985787 -3.92991,1.486687 -3.92991,-3.1439684 0,-2.5937198 0.70761,-4.7159178 1.57191,-4.7159178 0.86444,0 1.57195,-2.122108 1.57195,-4.715827 0,-2.593811 -0.7076,-4.715941 -1.57195,-4.715941 -0.86447,0 -1.57191,-1.414769 -1.57191,-3.143945 0,-1.729178 -0.7076,-3.143947 -1.57197,-3.143947 -0.86443,0 -1.57198,-0.707596 -1.57198,-1.57188 0,-0.864469 3.86573,-1.571972 8.5905,-1.571972 6.53358,0 8.96752,-0.658596 10.16515,-2.750948 4.05595,-7.086056 4.44969,-7.37639 7.06196,-5.208304 1.36279,1.130917 2.47777,3.950388 2.47777,6.265348 0,4.878477 2.5669,7.981703 6.60222,7.981703 1.55629,0 2.82956,0.70762 2.82956,1.571971 0,0.86447 1.06103,1.571974 2.35797,1.571974 1.29689,0 2.35793,0.707619 2.35793,1.571996 0,0.864447 -0.71385,1.571972 -1.58561,1.571972 -3.46777,0 -10.73861,8.383896 -11.69582,13.486495 -1.16363,6.20288865 -5.13273,7.21857475 -8.72612,2.2331651 z m 224.7911,-8.8544471 c 0,-1.411562 -1.55656,-3.916625 -3.45919,-5.566667 l -3.45907,-3.000016 3.45907,-0.904557 c 2.35937,-0.61672 3.45919,-2.111331 3.45919,-4.70052 0,-5.209558 4.31043,-6.547599 7.30768,-2.268441 1.59195,2.272804 3.37341,3.102422 5.32943,2.481622 2.61903,-0.831483 2.90216,-0.113189 2.60638,6.617273 -0.31816,7.240411 -0.50889,7.529162 -4.64374,7.044441 -2.37146,-0.27805 -4.31194,0.252205 -4.31194,1.178951 0,0.926484 -1.41475,1.684445 -3.14395,1.684445 -1.86026,0 -3.14386,-1.047941 -3.14386,-2.566531 z M 207.71849,-42.955641 c -2.72856,-2.952338 -4.46765,-3.538478 -8.25283,-2.78141 -4.14266,0.828818 -4.79567,0.504434 -4.79567,-2.38127 0,-1.837265 0.70762,-3.340457 1.57188,-3.340457 2.13916,0 1.99823,-8.376751 -0.17733,-10.552429 -2.88298,-2.883014 -0.0265,-5.16723 6.46535,-5.16723 3.35633,0 6.53949,-0.707597 7.07383,-1.571971 0.53469,-0.864449 2.34458,-1.571973 4.02267,-1.571973 2.34222,0 3.05119,1.095805 3.05119,4.715918 0,2.698104 0.84039,4.737329 1.96499,4.765929 1.08064,0.02663 3.28912,1.052779 4.9076,2.278416 2.65833,2.013216 2.70727,2.463986 0.50532,4.665929 -1.34051,1.340541 -3.54902,2.437411 -4.90765,2.437411 -1.6051,0 -2.47017,1.4155 -2.47017,4.042184 0,3.399545 -3.29958,8.925044 -4.99667,8.367601 -0.27806,-0.09174 -2.06096,-1.849316 -3.96235,-3.906648 z"
             id="path6497-5-61"
             inkscape:connector-curvature="0"
             sodipodi:nodetypes="cssccsssccsccccsccscssssscccscscscscccsssccccssccscssscscccsssccscssscccscssccccscscsssccsccssscsccsssssssccsccssccsccccccscsscscscscccssscssccssscscsccsccscscssssscsccsscccsccsssssssccsccsccccccccccssccssssssscccscccsssssssssssssssscccssscssccsccccsccccccccccccssccscccccsscccccccsccccsssscscccscscssscsssssccccccssssssssccssssssscscccsccccsssccsscscssccsssccc" />
        </g>
      </g>
    </g>
  </g>
</svg>
