<?xml version="1.0" encoding="UTF-8" standalone="no"?>
<!-- Created with Inkscape (http://www.inkscape.org/) -->

<svg
   xmlns:dc="http://purl.org/dc/elements/1.1/"
   xmlns:cc="http://creativecommons.org/ns#"
   xmlns:rdf="http://www.w3.org/1999/02/22-rdf-syntax-ns#"
   xmlns:svg="http://www.w3.org/2000/svg"
   xmlns="http://www.w3.org/2000/svg"
   xmlns:sodipodi="http://sodipodi.sourceforge.net/DTD/sodipodi-0.dtd"
   xmlns:inkscape="http://www.inkscape.org/namespaces/inkscape"
   width="210mm"
   height="297mm"
   viewBox="0 0 210 297"
   version="1.1"
   id="svg8"
   inkscape:version="0.92.2 5c3e80d, 2017-08-06"
   sodipodi:docname="trickortreat.svg">
  <defs
     id="defs2">
    <clipPath
       id="clipPath106"
       clipPathUnits="userSpaceOnUse">
      <path
         inkscape:connector-curvature="0"
         id="path104"
         d="M 0,864 H 864 V 0 H 0 Z" />
    </clipPath>
  </defs>
  <sodipodi:namedview
     id="base"
     pagecolor="#000000"
     bordercolor="#666666"
     borderopacity="1.0"
     inkscape:pageopacity="0"
     inkscape:pageshadow="2"
     inkscape:zoom="0.98994949"
     inkscape:cx="291.36527"
     inkscape:cy="554.28571"
     inkscape:document-units="mm"
     inkscape:current-layer="layer1"
     showgrid="false"
     showguides="true"
     inkscape:guide-bbox="true"
     inkscape:window-width="2560"
     inkscape:window-height="1385"
     inkscape:window-x="2560"
     inkscape:window-y="27"
     inkscape:window-maximized="1">
    <sodipodi:guide
       position="104.76965,149.1364"
       orientation="1,0"
       id="guide10"
       inkscape:locked="false" />
    <sodipodi:guide
       position="56.661139,148.86913"
       orientation="0,1"
       id="guide12"
       inkscape:locked="false" />
  </sodipodi:namedview>
  <metadata
     id="metadata5">
    <rdf:RDF>
      <cc:Work
         rdf:about="">
        <dc:format>image/svg+xml</dc:format>
        <dc:type
           rdf:resource="http://purl.org/dc/dcmitype/StillImage" />
        <dc:title></dc:title>
      </cc:Work>
    </rdf:RDF>
  </metadata>
  <g
     inkscape:label="Layer 1"
     inkscape:groupmode="layer"
     id="layer1">
    <g
       transform="matrix(0.18748057,0,0,-0.18748057,55.447203,105.4338)"
       id="g3579"
       style="fill:#ffeeaa">
      <path
         inkscape:connector-curvature="0"
         id="path3581"
         style="fill:#ffeeaa;fill-opacity:1;fill-rule:nonzero;stroke:none"
         d="m 0,0 c 0,0 -7.846,18.637 30.405,26.484 38.252,7.847 80.428,7.844 112.797,26.481 32.368,18.637 48.061,31.389 75.525,28.446 27.461,-2.943 64.735,10.79 93.18,10.79 28.444,0 36.289,-10.79 65.715,-10.79 29.426,0 45.117,1.962 72.58,-14.714 27.467,-16.674 50.023,-6.865 51.008,-51.003 0.978,-44.137 0,-84.353 0,-84.353 0,0 -37.273,23.541 -70.625,15.694 -33.348,-7.848 -50.023,-34.328 -59.83,-30.404 -11.77,24.518 -17.654,32.366 -28.443,32.366 -4.903,10.789 0.984,21.582 8.828,32.369 7.845,10.786 3.92,35.308 -19.618,38.251 -23.539,2.943 -37.27,-15.697 -28.446,-34.33 8.831,-18.635 10.793,-24.52 3.923,-34.329 -6.861,-9.809 -1.961,-21.58 -1.961,-21.58 0,0 -11.771,33.351 -34.328,21.58 -22.559,-11.771 -40.212,-29.427 -47.081,-17.656 -6.865,11.771 -23.542,25.504 -36.29,15.695 -12.749,-9.81 -15.693,-13.729 -14.713,-26.481 0.981,-12.752 0.981,-28.45 0,-49.045 -0.98,-20.596 -4.904,-38.252 0.981,-51.003 5.886,-12.751 9.808,-46.099 9.808,-46.099 0,0 -18.635,-18.634 -14.71,-35.309 -8.83,-13.732 -41.199,-2.97 -42.179,9.794 -0.98,12.763 7.849,63.77 5.885,90.25 -1.96,26.481 -6.865,34.329 -4.905,57.871 1.964,23.541 6.869,44.136 6.869,60.811 0,16.676 11.77,23.538 40.215,31.386 28.444,7.847 65.715,21.579 28.444,24.522 -37.274,2.943 -54.93,2.943 -75.528,-1.962 C 106.911,8.828 103.969,12.751 90.238,8.828 76.504,4.904 65.716,-0.981 50.022,1.961 34.33,4.904 0,0 0,0" />
    </g>
    <g
       transform="matrix(0.18748057,0,0,-0.18748057,115.9461,104.33034)"
       id="g3583"
       style="fill:#ffeeaa">
      <path
         inkscape:connector-curvature="0"
         id="path3585"
         style="fill:#ffeeaa;fill-opacity:1;fill-rule:nonzero;stroke:none"
         d="m 0,0 c 0,0 -8.825,-17.657 0,-20.599 8.828,-2.943 12.751,6.862 12.751,10.298 C 12.751,-6.867 11.771,0 0,0" />
    </g>
    <g
       transform="matrix(0.18748057,0,0,-0.18748057,55.322529,111.50246)"
       id="g3587"
       style="fill:#ffeeaa">
      <path
         inkscape:connector-curvature="0"
         id="path3589"
         style="fill:#ffeeaa;fill-opacity:1;fill-rule:nonzero;stroke:none"
         d="m 0,0 c 0,0 -26.801,-39.232 -50.34,-60.812 -23.539,-21.58 -26.483,-40.217 -35.31,-66.698 -8.827,-26.481 -5.886,-58.85 -8.827,-71.601 -2.944,-12.752 -18.635,-66.696 -30.405,-96.12 -11.771,-29.428 -13.734,-86.314 -12.752,-116.722 0.981,-30.406 11.769,-45.117 35.31,-61.792 23.539,-16.675 40.216,-25.501 58.85,-36.29 18.634,-10.789 22.561,-7.848 32.369,-3.924 9.807,3.924 33.349,1.963 33.349,1.963 0,0 0,37.273 -5.886,64.734 -5.885,27.463 -19.962,54.924 -16.358,79.446 3.607,24.522 14.05,54.927 0,61.794 -14.049,6.865 -57.806,9.808 -57.806,9.808 0,0 -8.229,28.806 30.025,37.453 38.254,8.646 57.871,18.458 82.391,33.169 24.522,14.71 50.022,18.634 50.022,18.634 0,0 -14.712,84.357 -14.712,100.047 0,15.691 0.983,37.742 -5.883,52.71 C 77.169,-39.232 62.457,0 62.457,0 Z" />
    </g>
    <g
       transform="matrix(0.18748057,0,0,-0.18748057,97.374198,126.21429)"
       id="g3591"
       style="fill:#ffeeaa">
      <path
         inkscape:connector-curvature="0"
         id="path3593"
         style="fill:#ffeeaa;fill-opacity:1;fill-rule:nonzero;stroke:none"
         d="m 0,0 c 0,0 19.62,14.713 41.198,4.905 21.578,-9.81 33.349,-6.993 38.251,3.37 6.867,-22.988 15.692,-102.434 15.692,-102.434 0,0 -17.655,-5.886 -15.692,-18.637 1.961,-12.751 13.725,-33.347 15.692,-54.926 1.963,-21.58 0,-60.813 0,-60.813 H 54.93 c 0,0 10.785,24.518 13.732,42.174 2.939,17.657 -3.057,46.1 -20.657,62.775 C 30.407,-106.911 0,-97.102 0,-97.102 Z" />
    </g>
    <g
       transform="matrix(0.18748057,0,0,-0.18748057,123.67091,124.6629)"
       id="g3595"
       style="fill:#ffeeaa">
      <path
         inkscape:connector-curvature="0"
         id="path3597"
         style="fill:#ffeeaa;fill-opacity:1;fill-rule:nonzero;stroke:none"
         d="m 0,0 c 0,0 -15.693,-32.794 -16.678,-49.469 -0.977,-16.675 -11.774,-49.042 -11.774,-49.042 0,0 23.544,-1.965 28.452,-28.445 l 28.442,19.618 c 0,0 -10.79,59.833 -10.79,71.602 C 17.652,-23.969 0,0 0,0" />
    </g>
    <g
       transform="matrix(0.18748057,0,0,-0.18748057,149.49525,123.0879)"
       id="g3599"
       style="fill:#ffeeaa">
      <path
         inkscape:connector-curvature="0"
         id="path3601"
         style="fill:#ffeeaa;fill-opacity:1;fill-rule:nonzero;stroke:none"
         d="m 0,0 v -77.487 c 0,0 -16.119,0.981 -22.006,-9.81 -5.885,-10.789 -24.523,-12.751 -41.197,0 -16.671,12.752 -22.557,37.271 -13.733,54.927 8.829,17.657 23.543,24.523 30.409,8.828 C -39.662,-39.237 0.437,-25.507 0,0" />
    </g>
    <g
       transform="matrix(0.18748057,0,0,-0.18748057,159.89714,100.10187)"
       id="g3603"
       style="fill:#ffeeaa">
      <path
         inkscape:connector-curvature="0"
         id="path3605"
         style="fill:#ffeeaa;fill-opacity:1;fill-rule:nonzero;stroke:none"
         d="m 0,0 c 0,0 -8.829,-48.058 -11.771,-68.657 -2.943,-20.598 5.886,-62.349 5.886,-62.349 0,0 26.483,29.981 35.311,40.769 8.826,10.791 -11.77,16.679 -14.715,29.427 C 11.771,-48.061 0,0 0,0" />
    </g>
    <g
       transform="matrix(0.18748057,0,0,-0.18748057,173.87211,116.46768)"
       id="g3607"
       style="fill:#ffeeaa">
      <path
         inkscape:connector-curvature="0"
         id="path3609"
         style="fill:#ffeeaa;fill-opacity:1;fill-rule:nonzero;stroke:none"
         d="m 0,0 c 0,0 -14.711,-20.602 -27.463,-35.312 -12.75,-14.711 -41.575,-20.596 -37.459,-28.442 4.113,-7.849 20.197,-21.617 32.26,-67.697 12.066,-46.08 0,-105.913 0,-105.913 0,0 -4.606,44.562 -15.397,75.246 -10.789,30.685 -35.531,48.763 -38.857,54.927 -3.319,6.165 -6.262,18.914 -6.262,18.914 l -20.599,-93.179 c 0,0 -8.826,31.386 -9.811,39.232 -0.975,7.848 -13.726,10.773 -13.726,10.773 0,0 -24.525,-21.558 -41.196,-21.558 -16.676,0 -32.533,0.977 -32.533,0.977 0,0 6.053,-38.288 -7.68,-54.453 -13.734,12.278 -16.677,16.192 -16.677,16.192 l -47.077,-16.192 c 0,0 5.866,-49.519 -13.743,-74.037 17.665,-28.443 36.299,-30.404 36.299,-30.404 0,0 25.503,45.121 57.87,41.196 32.365,-3.923 53.94,-31.389 53.94,-31.389 0,0 6.87,33.351 23.548,25.503 l 16.67,-7.845 c 0,0 6.867,38.614 -8.824,51.184 27.462,4.722 36.291,-6.071 42.176,-24.704 5.885,-18.635 9.619,-30.404 9.619,-30.404 0,0 15.346,3.924 21.99,-11.771 2.719,-5.886 -2.183,-7.839 -15.916,-11.77 6.866,-45.129 8.829,-76.513 8.829,-95.151 0,-18.636 0.98,-57.869 0.98,-57.869 0,0 50.023,48.061 67.68,121.624 17.656,73.564 21.578,116.702 19.618,135.837 -1.962,19.135 -14.712,71.122 -20.599,90.74 -5.885,19.617 -20.6,66.697 -20.6,66.697 z" />
    </g>
    <g
       transform="matrix(0.18748057,0,0,-0.18748057,103.4435,154.16619)"
       id="g3611"
       style="fill:#ffeeaa">
      <path
         inkscape:connector-curvature="0"
         id="path3613"
         style="fill:#ffeeaa;fill-opacity:1;fill-rule:nonzero;stroke:none"
         d="m 0,0 c 0,0 -49.042,8.832 -51.003,-14.71 -1.961,-23.541 2.933,-54.927 18.63,-54.927 15.698,0 45.127,33.345 32.373,69.637" />
    </g>
    <g
       transform="matrix(0.18748057,0,0,-0.18748057,62.620434,210.252)"
       id="g3615"
       style="fill:#ffeeaa">
      <path
         inkscape:connector-curvature="0"
         id="path3617"
         style="fill:#ffeeaa;fill-opacity:1;fill-rule:nonzero;stroke:none"
         d="m 0,0 c 0,0 -11.771,102.697 -6.866,117.555 4.902,14.859 14.712,53.11 19.617,79.595 4.905,26.483 4.905,42.174 28.444,49.039 23.539,6.868 40.215,21.24 55.908,18.957 15.693,-2.281 26.483,-0.322 35.31,-19.937 8.827,-19.613 17.654,-38.252 5.883,-34.328 -11.768,3.924 -38.252,14.715 -47.078,4.904 -8.829,-9.806 -22.007,-38.25 -23.265,-57.867 -1.258,-19.62 7.569,-52.967 10.513,-69.641 2.942,-16.675 6.866,-66.698 6.866,-66.698 z" />
    </g>
    <g
       transform="matrix(0.18748057,0,0,-0.18748057,82.48147,203.4485)"
       id="g3619"
       style="fill:#ffeeaa">
      <path
         inkscape:connector-curvature="0"
         id="path3621"
         style="fill:#ffeeaa;fill-opacity:1;fill-rule:nonzero;stroke:none"
         d="m 0,0 c 0,0 16.676,95.144 18.637,107.895 1.961,12.751 9.809,34.331 28.444,34.331 18.637,0 31.363,-3.923 32.355,-28.446 0.994,-24.522 8.84,-44.137 18.648,-58.85 9.81,-14.713 43.157,-44.137 43.157,-44.137 0,0 -23.781,-11.777 -53.577,-10.793 C 57.869,0.984 21.849,-0.233 0,0" />
    </g>
    <g
       transform="matrix(0.18748057,0,0,-0.18748057,107.85937,179.54291)"
       id="g3623"
       style="fill:#ffeeaa">
      <path
         inkscape:connector-curvature="0"
         id="path3625"
         style="fill:#ffeeaa;fill-opacity:1;fill-rule:nonzero;stroke:none"
         d="M 0,0 C 0,0 4.907,34.33 29.427,24.522 53.944,14.713 55.885,-9.807 55.885,-9.807 Z" />
    </g>
    <g
       transform="matrix(0.18748057,0,0,-0.18748057,108.96138,187.26603)"
       id="g3627"
       style="fill:#ffeeaa">
      <path
         inkscape:connector-curvature="0"
         id="path3629"
         style="fill:#ffeeaa;fill-opacity:1;fill-rule:nonzero;stroke:none"
         d="m 0,0 c 0,0 28.406,2.521 50.007,10.088 21.6,7.568 35.335,28.167 35.335,28.167 0,0 10.754,-15.692 21.559,-6.867 10.806,8.824 31.405,26.288 51.02,18.048 19.617,-8.242 17.775,-23.642 17.775,-23.642 0,0 -25.622,10.102 -44.256,0 -18.635,-10.101 -37.274,-29.715 -32.367,-50.315 4.902,-20.597 10.785,-57.874 2.94,-61.794 -23.54,-3.921 -67.805,-3.921 -67.805,-3.921 0,0 25.629,17.653 29.553,34.329 3.925,16.675 1.919,20.597 -13.754,12.752 C 34.334,-51.003 -23.544,-65.716 0,0" />
    </g>
    <g
       transform="matrix(0.18748057,0,0,-0.18748057,149.49525,177.99783)"
       id="g3631"
       style="fill:#ffeeaa">
      <path
         inkscape:connector-curvature="0"
         id="path3633"
         style="fill:#ffeeaa;fill-opacity:1;fill-rule:nonzero;stroke:none"
         d="m 0,0 43.107,6.475 c 0,0 -0.362,-33.351 7.487,-52.968 7.845,-19.617 20.595,-40.213 22.556,-59.832 1.961,-19.617 0,-42.175 0,-42.175 l -63.754,3.925 c 0,0 1.96,58.847 0,90.234 C 7.434,-22.951 0,0 0,0" />
    </g>
    <g
       transform="matrix(0.18748057,0,0,-0.18748057,143.90161,188.92133)"
       id="g3635"
       style="fill:#ffeeaa">
      <path
         inkscape:connector-curvature="0"
         id="path3637"
         style="fill:#ffeeaa;fill-opacity:1;fill-rule:nonzero;stroke:none"
         d="m 0,0 c 0,0 -25.505,-4.955 -36.293,-6.4 -10.788,-1.446 -10.788,-13.214 0,-33.813 C -25.5,-60.812 -2.945,-51.002 3.922,-46.098 10.788,-41.193 -7.85,-16.674 0,0" />
    </g>
  </g>
</svg>
